# Blender v3.2.0 OBJ File: 'panele.blend'
# www.blender.org
mtllib luna_main.mtl
o luna_main_Circle
v 0.012584 0.000000 0.021542
v 0.011334 0.000000 0.021410
v 0.010078 0.000000 0.021364
v 0.007573 0.000000 0.021545
v 0.006337 0.000000 0.021769
v 0.005118 0.000000 0.022072
v 0.002759 0.000000 0.022925
v 0.001634 0.000000 0.023480
v -0.000485 0.000000 0.024815
v -0.002406 0.000000 0.026418
v -0.003237 0.000000 0.027351
v -0.004103 0.000000 0.028245
v -0.005257 0.000000 0.028659
v 0.011321 0.000000 0.031135
v 0.012553 0.000000 0.031314
v 0.013762 0.000000 0.031610
v 0.014936 0.000000 0.032020
v 0.016062 0.000000 0.032548
v 0.017132 0.000000 0.033178
v 0.018149 0.000000 0.033889
v 0.019084 0.000000 0.034704
v 0.019873 0.000000 0.035658
v 0.020627 0.000000 0.036639
v 0.021680 0.000000 0.037265
v 0.022923 0.000000 0.037354
v 0.024167 0.000000 0.037329
v -0.004013 0.000000 0.037338
v -0.002768 0.000000 0.037338
v -0.001525 0.000000 0.037265
v -0.000472 0.000000 0.036639
v 0.000282 0.000000 0.035658
v 0.001071 0.000000 0.034704
v 0.002005 0.000000 0.033889
v 0.003022 0.000000 0.033178
v 0.004093 0.000000 0.032548
v 0.005218 0.000000 0.032020
v 0.006392 0.000000 0.031610
v 0.007601 0.000000 0.031314
v 0.008833 0.000000 0.031135
v 0.010077 0.000000 0.031075
v -0.005257 0.000000 0.037338
v 0.024258 0.000000 0.028239
v 0.023343 0.000000 0.027395
v 0.022528 0.000000 0.026443
v 0.021648 0.000000 0.025554
v 0.020666 0.000000 0.024779
v 0.019612 0.000000 0.024099
v 0.018520 0.000000 0.023484
v 0.017394 0.000000 0.022930
v 0.016234 0.000000 0.022452
v 0.015040 0.000000 0.022061
v 0.013821 0.000000 0.021759
v -0.001471 0.000000 0.025587
v 0.000551 0.000000 0.024111
v 0.003922 0.000000 0.022455
v 0.008822 0.000000 0.021408
v -0.004013 0.000000 0.033029
v -0.002807 0.000000 0.032745
v -0.001849 0.000000 0.031965
v -0.001054 0.000000 0.031016
v -0.000191 0.000000 0.030128
v 0.000768 0.000000 0.029342
v 0.001793 0.000000 0.028641
v 0.002869 0.000000 0.028022
v 0.003991 0.000000 0.027486
v 0.005152 0.000000 0.027043
v 0.006350 0.000000 0.026706
v 0.007574 0.000000 0.026478
v 0.008811 0.000000 0.026344
v 0.010055 0.000000 0.026296
v 0.011300 0.000000 0.026341
v 0.012536 0.000000 0.026488
v 0.013756 0.000000 0.026736
v 0.014951 0.000000 0.027083
v 0.016112 0.000000 0.027527
v 0.017234 0.000000 0.028063
v 0.018311 0.000000 0.028681
v 0.019339 0.000000 0.029377
v 0.020293 0.000000 0.030171
v 0.021148 0.000000 0.031065
v 0.021983 0.000000 0.031981
v 0.022964 0.000000 0.032738
v 0.024167 0.000000 0.033027
v 0.024789 0.000000 0.037329
v 0.024835 0.000000 0.028610
v 0.024789 0.000000 0.032998
v -0.004680 0.000000 0.028611
v -0.004635 0.000000 0.037338
v -0.004635 0.000000 0.032998
v -0.018085 0.000000 0.021542
v -0.019335 0.000000 0.021410
v -0.020591 0.000000 0.021364
v -0.023096 0.000000 0.021545
v -0.024332 0.000000 0.021769
v -0.025551 0.000000 0.022072
v -0.027910 0.000000 0.022925
v -0.029035 0.000000 0.023480
v -0.031154 0.000000 0.024815
v -0.033075 0.000000 0.026418
v -0.033906 0.000000 0.027351
v -0.034772 0.000000 0.028245
v -0.035926 0.000000 0.028659
v -0.019348 0.000000 0.031135
v -0.018116 0.000000 0.031314
v -0.016907 0.000000 0.031610
v -0.015733 0.000000 0.032020
v -0.014607 0.000000 0.032548
v -0.013537 0.000000 0.033178
v -0.012519 0.000000 0.033889
v -0.011585 0.000000 0.034704
v -0.010796 0.000000 0.035658
v -0.010042 0.000000 0.036639
v -0.008989 0.000000 0.037265
v -0.007746 0.000000 0.037354
v -0.006502 0.000000 0.037329
v -0.034682 0.000000 0.037338
v -0.033437 0.000000 0.037338
v -0.032194 0.000000 0.037265
v -0.031141 0.000000 0.036639
v -0.030387 0.000000 0.035658
v -0.029598 0.000000 0.034704
v -0.028664 0.000000 0.033889
v -0.027647 0.000000 0.033178
v -0.026576 0.000000 0.032548
v -0.025451 0.000000 0.032020
v -0.024277 0.000000 0.031610
v -0.023067 0.000000 0.031314
v -0.021835 0.000000 0.031135
v -0.020592 0.000000 0.031075
v -0.035926 0.000000 0.037338
v -0.006411 0.000000 0.028239
v -0.007326 0.000000 0.027395
v -0.008141 0.000000 0.026443
v -0.009021 0.000000 0.025554
v -0.010003 0.000000 0.024779
v -0.011057 0.000000 0.024099
v -0.012149 0.000000 0.023484
v -0.013275 0.000000 0.022930
v -0.014435 0.000000 0.022452
v -0.015628 0.000000 0.022061
v -0.016848 0.000000 0.021759
v -0.032140 0.000000 0.025587
v -0.030118 0.000000 0.024111
v -0.026747 0.000000 0.022455
v -0.021847 0.000000 0.021408
v -0.034682 0.000000 0.033029
v -0.033476 0.000000 0.032745
v -0.032518 0.000000 0.031965
v -0.031723 0.000000 0.031016
v -0.030860 0.000000 0.030128
v -0.029901 0.000000 0.029342
v -0.028876 0.000000 0.028641
v -0.027800 0.000000 0.028022
v -0.026678 0.000000 0.027486
v -0.025517 0.000000 0.027043
v -0.024319 0.000000 0.026706
v -0.023095 0.000000 0.026478
v -0.021858 0.000000 0.026344
v -0.020613 0.000000 0.026296
v -0.019369 0.000000 0.026341
v -0.018133 0.000000 0.026488
v -0.016913 0.000000 0.026736
v -0.015718 0.000000 0.027083
v -0.014556 0.000000 0.027527
v -0.013435 0.000000 0.028063
v -0.012358 0.000000 0.028681
v -0.011330 0.000000 0.029377
v -0.010376 0.000000 0.030171
v -0.009521 0.000000 0.031065
v -0.008686 0.000000 0.031981
v -0.007705 0.000000 0.032738
v -0.006502 0.000000 0.033027
v -0.005257 0.000000 0.032968
v -0.035926 0.000000 0.032968
v -0.005880 0.000000 0.037329
v -0.005834 0.000000 0.028610
v -0.005879 0.000000 0.032998
v -0.035349 0.000000 0.028611
v -0.035304 0.000000 0.037338
v -0.035304 0.000000 0.032998
v -0.048754 0.000000 0.021542
v -0.050004 0.000000 0.021410
v -0.051260 0.000000 0.021364
v -0.053765 0.000000 0.021545
v -0.055001 0.000000 0.021769
v -0.056220 0.000000 0.022072
v -0.058579 0.000000 0.022925
v -0.059704 0.000000 0.023480
v -0.061823 0.000000 0.024815
v -0.063744 0.000000 0.026418
v -0.064575 0.000000 0.027351
v -0.065441 0.000000 0.028245
v -0.066595 0.000000 0.028659
v -0.050017 0.000000 0.031135
v -0.048785 0.000000 0.031314
v -0.047576 0.000000 0.031610
v -0.046402 0.000000 0.032020
v -0.045276 0.000000 0.032548
v -0.044206 0.000000 0.033178
v -0.043188 0.000000 0.033889
v -0.042254 0.000000 0.034704
v -0.041465 0.000000 0.035658
v -0.040711 0.000000 0.036639
v -0.039658 0.000000 0.037265
v -0.038415 0.000000 0.037354
v -0.037171 0.000000 0.037329
v -0.065351 0.000000 0.037338
v -0.064106 0.000000 0.037338
v -0.062863 0.000000 0.037265
v -0.061810 0.000000 0.036639
v -0.061056 0.000000 0.035658
v -0.060267 0.000000 0.034704
v -0.059333 0.000000 0.033889
v -0.058316 0.000000 0.033178
v -0.057245 0.000000 0.032548
v -0.056120 0.000000 0.032020
v -0.054945 0.000000 0.031610
v -0.053736 0.000000 0.031314
v -0.052504 0.000000 0.031135
v -0.051261 0.000000 0.031075
v -0.066595 0.000000 0.037338
v -0.037080 0.000000 0.028239
v -0.037995 0.000000 0.027395
v -0.038810 0.000000 0.026443
v -0.039690 0.000000 0.025554
v -0.040672 0.000000 0.024779
v -0.041726 0.000000 0.024099
v -0.042818 0.000000 0.023484
v -0.043944 0.000000 0.022930
v -0.045104 0.000000 0.022452
v -0.046297 0.000000 0.022061
v -0.047517 0.000000 0.021759
v -0.062809 0.000000 0.025587
v -0.060787 0.000000 0.024111
v -0.057416 0.000000 0.022455
v -0.052516 0.000000 0.021408
v -0.065353 0.000000 0.032491
v -0.064170 0.000000 0.032435
v -0.063207 0.000000 0.031768
v -0.062392 0.000000 0.031016
v -0.061529 0.000000 0.030128
v -0.060570 0.000000 0.029342
v -0.059545 0.000000 0.028641
v -0.058469 0.000000 0.028022
v -0.057347 0.000000 0.027486
v -0.056186 0.000000 0.027043
v -0.054988 0.000000 0.026706
v -0.053764 0.000000 0.026478
v -0.052527 0.000000 0.026344
v -0.051282 0.000000 0.026296
v -0.050038 0.000000 0.026341
v -0.048802 0.000000 0.026488
v -0.047582 0.000000 0.026736
v -0.046387 0.000000 0.027083
v -0.045225 0.000000 0.027527
v -0.044104 0.000000 0.028063
v -0.043027 0.000000 0.028681
v -0.041999 0.000000 0.029377
v -0.041045 0.000000 0.030171
v -0.040190 0.000000 0.031065
v -0.039355 0.000000 0.031981
v -0.038374 0.000000 0.032738
v -0.037171 0.000000 0.033027
v -0.066595 0.000000 0.032233
v -0.036548 0.000000 0.037329
v -0.036503 0.000000 0.028610
v -0.036548 0.000000 0.032998
v -0.066018 0.000000 0.028611
v -0.065973 0.000000 0.037338
v -0.065973 0.000000 0.032378
v -0.071474 0.000000 0.037338
v -0.071474 0.000000 0.032233
v 0.043253 0.000000 0.021542
v 0.042003 0.000000 0.021410
v 0.040747 0.000000 0.021364
v 0.038242 0.000000 0.021545
v 0.037006 0.000000 0.021769
v 0.035787 0.000000 0.022072
v 0.033428 0.000000 0.022925
v 0.032303 0.000000 0.023480
v 0.030184 0.000000 0.024815
v 0.028263 0.000000 0.026418
v 0.027432 0.000000 0.027351
v 0.026566 0.000000 0.028245
v 0.025412 0.000000 0.028659
v 0.039323 0.000000 0.031139
v 0.040325 0.000000 0.031307
v 0.041310 0.000000 0.031596
v 0.042267 0.000000 0.032113
v 0.043193 0.000000 0.033068
v 0.044049 0.000000 0.034505
v 0.044801 0.000000 0.036050
v 0.045574 0.000000 0.037338
v 0.050527 0.000000 0.037338
v 0.026656 0.000000 0.037338
v 0.027901 0.000000 0.037338
v 0.028986 0.000000 0.037265
v 0.029783 0.000000 0.036560
v 0.030430 0.000000 0.035651
v 0.031095 0.000000 0.034732
v 0.031822 0.000000 0.033894
v 0.032634 0.000000 0.033173
v 0.033505 0.000000 0.032551
v 0.034412 0.000000 0.032025
v 0.035355 0.000000 0.031611
v 0.036329 0.000000 0.031313
v 0.037324 0.000000 0.031134
v 0.038324 0.000000 0.031077
v 0.025412 0.000000 0.037338
v 0.056081 0.000000 0.028659
v 0.054927 0.000000 0.028239
v 0.054011 0.000000 0.027395
v 0.053197 0.000000 0.026443
v 0.052317 0.000000 0.025554
v 0.051335 0.000000 0.024779
v 0.050281 0.000000 0.024099
v 0.049189 0.000000 0.023484
v 0.048063 0.000000 0.022930
v 0.046903 0.000000 0.022452
v 0.045709 0.000000 0.022061
v 0.044490 0.000000 0.021759
v 0.029198 0.000000 0.025587
v 0.031220 0.000000 0.024111
v 0.034591 0.000000 0.022455
v 0.039491 0.000000 0.021408
v 0.026656 0.000000 0.033029
v 0.027862 0.000000 0.032745
v 0.028820 0.000000 0.031965
v 0.029615 0.000000 0.031016
v 0.030478 0.000000 0.030128
v 0.031437 0.000000 0.029342
v 0.032462 0.000000 0.028641
v 0.033538 0.000000 0.028022
v 0.034659 0.000000 0.027486
v 0.035821 0.000000 0.027043
v 0.037019 0.000000 0.026706
v 0.038243 0.000000 0.026478
v 0.039480 0.000000 0.026344
v 0.040724 0.000000 0.026296
v 0.041969 0.000000 0.026341
v 0.043205 0.000000 0.026488
v 0.044425 0.000000 0.026736
v 0.045619 0.000000 0.027414
v 0.046775 0.000000 0.028181
v 0.047882 0.000000 0.029092
v 0.048933 0.000000 0.030211
v 0.049909 0.000000 0.031453
v 0.050527 0.000000 0.031718
v 0.051817 0.000000 0.031718
v 0.052652 0.000000 0.031718
v 0.053633 0.000000 0.031718
v 0.054861 0.000000 0.031718
v 0.056081 0.000000 0.031718
v 0.025412 0.000000 0.032968
v 0.055504 0.000000 0.028610
v 0.055471 0.000000 0.031718
v 0.025989 0.000000 0.028611
v 0.026034 0.000000 0.037338
v 0.026034 0.000000 0.032998
v 0.048058 0.000000 0.037338
v 0.011334 2.700000 0.021410
v 0.012584 2.700000 0.021542
v 0.010078 2.700000 0.021364
v 0.008822 2.700000 0.021408
v 0.006337 2.700000 0.021769
v 0.007573 2.700000 0.021545
v 0.005118 2.700000 0.022072
v 0.003922 2.700000 0.022455
v 0.001634 2.700000 0.023480
v 0.002759 2.700000 0.022925
v 0.000551 2.700000 0.024111
v -0.001471 2.700000 0.025587
v -0.000485 2.700000 0.024815
v -0.003237 2.700000 0.027351
v -0.002406 2.700000 0.026418
v -0.004103 2.700000 0.028245
v -0.004680 2.700000 0.028611
v 0.010077 2.700000 0.031075
v 0.011321 2.700000 0.031135
v 0.012553 2.700000 0.031314
v 0.013762 2.700000 0.031610
v 0.014936 2.700000 0.032020
v 0.016062 2.700000 0.032548
v 0.017132 2.700000 0.033178
v 0.018149 2.700000 0.033889
v 0.019084 2.700000 0.034704
v 0.019873 2.700000 0.035658
v 0.020627 2.700000 0.036639
v 0.021680 2.700000 0.037265
v 0.022923 2.700000 0.037354
v 0.024167 2.700000 0.037329
v -0.004013 2.700000 0.037338
v -0.002768 2.700000 0.037338
v -0.001525 2.700000 0.037265
v -0.000472 2.700000 0.036639
v 0.000282 2.700000 0.035658
v 0.001071 2.700000 0.034704
v 0.002005 2.700000 0.033889
v 0.003022 2.700000 0.033178
v 0.004093 2.700000 0.032548
v 0.005218 2.700000 0.032020
v 0.006392 2.700000 0.031610
v 0.007601 2.700000 0.031314
v 0.008833 2.700000 0.031135
v 0.024789 2.700000 0.037329
v -0.004635 2.700000 0.037338
v 0.023343 2.700000 0.027395
v 0.024258 2.700000 0.028239
v 0.022528 2.700000 0.026443
v 0.021648 2.700000 0.025554
v 0.020666 2.700000 0.024779
v 0.019612 2.700000 0.024099
v 0.018520 2.700000 0.023484
v 0.017394 2.700000 0.022930
v 0.016234 2.700000 0.022452
v 0.015040 2.700000 0.022061
v 0.013821 2.700000 0.021759
v -0.004013 2.700000 0.033029
v -0.002807 2.700000 0.032745
v -0.001849 2.700000 0.031965
v -0.001054 2.700000 0.031016
v -0.000191 2.700000 0.030128
v 0.000768 2.700000 0.029342
v 0.001793 2.700000 0.028641
v 0.002869 2.700000 0.028022
v 0.003991 2.700000 0.027486
v 0.005152 2.700000 0.027043
v 0.006350 2.700000 0.026706
v 0.007574 2.700000 0.026478
v 0.008811 2.700000 0.026344
v 0.010055 2.700000 0.026296
v 0.011300 2.700000 0.026341
v 0.012536 2.700000 0.026488
v 0.013756 2.700000 0.026736
v 0.014951 2.700000 0.027083
v 0.016112 2.700000 0.027527
v 0.017234 2.700000 0.028063
v 0.018311 2.700000 0.028681
v 0.019339 2.700000 0.029377
v 0.020293 2.700000 0.030171
v 0.021148 2.700000 0.031065
v 0.021983 2.700000 0.031981
v 0.022964 2.700000 0.032738
v 0.024167 2.700000 0.033027
v 0.024789 2.700000 0.032998
v 0.024835 2.700000 0.028610
v -0.005257 2.700000 0.028659
v -0.004635 2.700000 0.032998
v -0.018085 2.700000 0.021542
v -0.019335 2.700000 0.021410
v -0.020591 2.700000 0.021364
v -0.021847 2.700000 0.021408
v -0.023096 2.700000 0.021545
v -0.024332 2.700000 0.021769
v -0.025551 2.700000 0.022072
v -0.026747 2.700000 0.022455
v -0.027910 2.700000 0.022925
v -0.029035 2.700000 0.023480
v -0.030118 2.700000 0.024111
v -0.031154 2.700000 0.024815
v -0.032140 2.700000 0.025587
v -0.033075 2.700000 0.026418
v -0.033906 2.700000 0.027351
v -0.034772 2.700000 0.028245
v -0.035349 2.700000 0.028611
v -0.035926 2.700000 0.032968
v -0.035926 2.700000 0.037338
v -0.020592 2.700000 0.031075
v -0.019348 2.700000 0.031135
v -0.018116 2.700000 0.031314
v -0.016907 2.700000 0.031610
v -0.015733 2.700000 0.032020
v -0.014607 2.700000 0.032548
v -0.013537 2.700000 0.033178
v -0.012519 2.700000 0.033889
v -0.011585 2.700000 0.034704
v -0.010796 2.700000 0.035658
v -0.010042 2.700000 0.036639
v -0.008989 2.700000 0.037265
v -0.007746 2.700000 0.037354
v -0.006502 2.700000 0.037329
v -0.034682 2.700000 0.037338
v -0.033437 2.700000 0.037338
v -0.032194 2.700000 0.037265
v -0.031141 2.700000 0.036639
v -0.030387 2.700000 0.035658
v -0.029598 2.700000 0.034704
v -0.028664 2.700000 0.033889
v -0.027647 2.700000 0.033178
v -0.026576 2.700000 0.032548
v -0.025451 2.700000 0.032020
v -0.024277 2.700000 0.031610
v -0.023067 2.700000 0.031314
v -0.021835 2.700000 0.031135
v -0.005880 2.700000 0.037329
v -0.005257 2.700000 0.037329
v -0.035304 2.700000 0.037338
v -0.006411 2.700000 0.028239
v -0.007326 2.700000 0.027395
v -0.008141 2.700000 0.026443
v -0.009021 2.700000 0.025554
v -0.010003 2.700000 0.024779
v -0.011057 2.700000 0.024099
v -0.012149 2.700000 0.023484
v -0.013275 2.700000 0.022930
v -0.014435 2.700000 0.022452
v -0.015628 2.700000 0.022061
v -0.016848 2.700000 0.021759
v -0.034682 2.700000 0.033029
v -0.033476 2.700000 0.032745
v -0.032518 2.700000 0.031965
v -0.031723 2.700000 0.031016
v -0.030860 2.700000 0.030128
v -0.029901 2.700000 0.029342
v -0.028876 2.700000 0.028641
v -0.027800 2.700000 0.028022
v -0.026678 2.700000 0.027486
v -0.025517 2.700000 0.027043
v -0.024319 2.700000 0.026706
v -0.023095 2.700000 0.026478
v -0.021858 2.700000 0.026344
v -0.020613 2.700000 0.026296
v -0.019369 2.700000 0.026341
v -0.018133 2.700000 0.026488
v -0.016913 2.700000 0.026736
v -0.015718 2.700000 0.027083
v -0.014556 2.700000 0.027527
v -0.013435 2.700000 0.028063
v -0.012358 2.700000 0.028681
v -0.011330 2.700000 0.029377
v -0.010376 2.700000 0.030171
v -0.009521 2.700000 0.031065
v -0.008686 2.700000 0.031981
v -0.007705 2.700000 0.032738
v -0.006502 2.700000 0.033027
v -0.005257 2.700000 0.032968
v -0.035926 2.700000 0.028659
v -0.035304 2.700000 0.032998
v -0.005879 2.700000 0.032998
v -0.005834 2.700000 0.028610
v -0.048754 2.700000 0.021542
v -0.050004 2.700000 0.021410
v -0.051260 2.700000 0.021364
v -0.052516 2.700000 0.021408
v -0.053765 2.700000 0.021545
v -0.055001 2.700000 0.021769
v -0.056220 2.700000 0.022072
v -0.057416 2.700000 0.022455
v -0.058579 2.700000 0.022925
v -0.059704 2.700000 0.023480
v -0.060787 2.700000 0.024111
v -0.061823 2.700000 0.024815
v -0.062809 2.700000 0.025587
v -0.063744 2.700000 0.026418
v -0.064575 2.700000 0.027351
v -0.065441 2.700000 0.028245
v -0.066018 2.700000 0.028611
v -0.066595 2.700000 0.032233
v -0.066595 2.700000 0.037338
v -0.051261 2.700000 0.031075
v -0.050017 2.700000 0.031135
v -0.048785 2.700000 0.031314
v -0.047576 2.700000 0.031610
v -0.046402 2.700000 0.032020
v -0.045276 2.700000 0.032548
v -0.044206 2.700000 0.033178
v -0.043188 2.700000 0.033889
v -0.042254 2.700000 0.034704
v -0.041465 2.700000 0.035658
v -0.040711 2.700000 0.036639
v -0.039658 2.700000 0.037265
v -0.038415 2.700000 0.037354
v -0.037171 2.700000 0.037329
v -0.065351 2.700000 0.037338
v -0.064106 2.700000 0.037338
v -0.062863 2.700000 0.037265
v -0.061810 2.700000 0.036639
v -0.061056 2.700000 0.035658
v -0.060267 2.700000 0.034704
v -0.059333 2.700000 0.033889
v -0.058316 2.700000 0.033178
v -0.057245 2.700000 0.032548
v -0.056120 2.700000 0.032020
v -0.054945 2.700000 0.031610
v -0.053736 2.700000 0.031314
v -0.052504 2.700000 0.031135
v -0.036548 2.700000 0.037329
v -0.065973 2.700000 0.037338
v -0.037080 2.700000 0.028239
v -0.037995 2.700000 0.027395
v -0.038810 2.700000 0.026443
v -0.039690 2.700000 0.025554
v -0.040672 2.700000 0.024779
v -0.041726 2.700000 0.024099
v -0.042818 2.700000 0.023484
v -0.043944 2.700000 0.022930
v -0.045104 2.700000 0.022452
v -0.046297 2.700000 0.022061
v -0.047517 2.700000 0.021759
v -0.065353 2.700000 0.032491
v -0.064170 2.700000 0.032435
v -0.063207 2.700000 0.031768
v -0.062392 2.700000 0.031016
v -0.061529 2.700000 0.030128
v -0.060570 2.700000 0.029342
v -0.059545 2.700000 0.028641
v -0.058469 2.700000 0.028022
v -0.057347 2.700000 0.027486
v -0.056186 2.700000 0.027043
v -0.054988 2.700000 0.026706
v -0.053764 2.700000 0.026478
v -0.052527 2.700000 0.026344
v -0.051282 2.700000 0.026296
v -0.050038 2.700000 0.026341
v -0.048802 2.700000 0.026488
v -0.047582 2.700000 0.026736
v -0.046387 2.700000 0.027083
v -0.045225 2.700000 0.027527
v -0.044104 2.700000 0.028063
v -0.043027 2.700000 0.028681
v -0.041999 2.700000 0.029377
v -0.041045 2.700000 0.030171
v -0.040190 2.700000 0.031065
v -0.039355 2.700000 0.031981
v -0.038374 2.700000 0.032738
v -0.037171 2.700000 0.033027
v -0.066595 2.700000 0.028659
v -0.065973 2.700000 0.032378
v -0.036548 2.700000 0.032998
v -0.036503 2.700000 0.028610
v -0.071474 2.700000 0.032233
v -0.071474 2.700000 0.037338
v 0.043253 2.700000 0.021542
v 0.042003 2.700000 0.021410
v 0.040747 2.700000 0.021364
v 0.039491 2.700000 0.021408
v 0.038242 2.700000 0.021545
v 0.037006 2.700000 0.021769
v 0.035787 2.700000 0.022072
v 0.034591 2.700000 0.022455
v 0.033428 2.700000 0.022925
v 0.032303 2.700000 0.023480
v 0.031220 2.700000 0.024111
v 0.030184 2.700000 0.024815
v 0.029198 2.700000 0.025587
v 0.028263 2.700000 0.026418
v 0.027432 2.700000 0.027351
v 0.026566 2.700000 0.028245
v 0.025989 2.700000 0.028611
v 0.025412 2.700000 0.032968
v 0.025412 2.700000 0.037338
v 0.038324 2.700000 0.031077
v 0.039323 2.700000 0.031139
v 0.040325 2.700000 0.031307
v 0.041310 2.700000 0.031596
v 0.042267 2.700000 0.032113
v 0.043193 2.700000 0.033068
v 0.044049 2.700000 0.034505
v 0.044801 2.700000 0.036050
v 0.045574 2.700000 0.037338
v 0.050527 2.700000 0.037338
v 0.050527 2.700000 0.031718
v 0.026656 2.700000 0.037338
v 0.027901 2.700000 0.037338
v 0.028986 2.700000 0.037265
v 0.029783 2.700000 0.036560
v 0.030430 2.700000 0.035651
v 0.031095 2.700000 0.034732
v 0.031822 2.700000 0.033894
v 0.032634 2.700000 0.033173
v 0.033505 2.700000 0.032551
v 0.034412 2.700000 0.032025
v 0.035355 2.700000 0.031611
v 0.036329 2.700000 0.031313
v 0.037324 2.700000 0.031134
v 0.056081 2.700000 0.031718
v 0.056081 2.700000 0.028659
v 0.026034 2.700000 0.037338
v 0.055504 2.700000 0.028610
v 0.054927 2.700000 0.028239
v 0.054011 2.700000 0.027395
v 0.053197 2.700000 0.026443
v 0.052317 2.700000 0.025554
v 0.051335 2.700000 0.024779
v 0.050281 2.700000 0.024099
v 0.049189 2.700000 0.023484
v 0.048063 2.700000 0.022930
v 0.046903 2.700000 0.022452
v 0.045709 2.700000 0.022061
v 0.044490 2.700000 0.021759
v 0.026656 2.700000 0.033029
v 0.027862 2.700000 0.032745
v 0.028820 2.700000 0.031965
v 0.029615 2.700000 0.031016
v 0.030478 2.700000 0.030128
v 0.031437 2.700000 0.029342
v 0.032462 2.700000 0.028641
v 0.033538 2.700000 0.028022
v 0.034659 2.700000 0.027486
v 0.035821 2.700000 0.027043
v 0.037019 2.700000 0.026706
v 0.038243 2.700000 0.026478
v 0.039480 2.700000 0.026344
v 0.040724 2.700000 0.026296
v 0.041969 2.700000 0.026341
v 0.043205 2.700000 0.026488
v 0.044425 2.700000 0.026736
v 0.045619 2.700000 0.027414
v 0.046775 2.700000 0.028181
v 0.047882 2.700000 0.029092
v 0.048933 2.700000 0.030211
v 0.049909 2.700000 0.031453
v 0.048058 2.700000 0.037338
v 0.051817 2.700000 0.031718
v 0.052652 2.700000 0.031718
v 0.053633 2.700000 0.031718
v 0.054861 2.700000 0.031718
v 0.025412 2.700000 0.028659
v 0.026034 2.700000 0.032998
v 0.055471 2.700000 0.031718
vt 0.000000 0.000000
vt 0.000000 0.000000
vt 0.000000 0.000000
vt 0.000000 0.000000
vt 0.000000 0.000000
vt 0.000000 0.000000
vt 0.000000 0.000000
vt 0.000000 0.000000
vt 0.000000 0.000000
vt 0.000000 0.000000
vt 0.000000 0.000000
vt 0.000000 0.000000
vt 0.000000 0.000000
vt 0.000000 0.000000
vt 0.000000 0.000000
vt 0.000000 0.000000
vt 0.000000 0.000000
vt 0.000000 0.000000
vt 0.000000 0.000000
vt 0.000000 0.000000
vt 0.000000 0.000000
vt 0.000000 0.000000
vt 0.000000 0.000000
vt 0.000000 0.000000
vt 0.000000 0.000000
vt 0.000000 0.000000
vt 0.000000 0.000000
vt 0.000000 0.000000
vt 0.000000 0.000000
vt 0.000000 0.000000
vt 0.000000 0.000000
vt 0.000000 0.000000
vt 0.000000 0.000000
vt 0.000000 0.000000
vt 0.000000 0.000000
vt 0.000000 0.000000
vt 0.000000 0.000000
vt 0.000000 0.000000
vt 0.000000 0.000000
vt 0.000000 0.000000
vt 0.000000 0.000000
vt 0.000000 0.000000
vt 0.000000 0.000000
vt 0.000000 0.000000
vt 0.000000 0.000000
vt 0.000000 0.000000
vt 0.000000 0.000000
vt 0.000000 0.000000
vt 0.000000 0.000000
vt 0.000000 0.000000
vt 0.000000 0.000000
vt 0.000000 0.000000
vt 0.000000 0.000000
vt 0.000000 0.000000
vt 0.000000 0.000000
vt 0.000000 0.000000
vt 0.000000 0.000000
vt 0.000000 0.000000
vt 0.000000 0.000000
vt 0.000000 0.000000
vt 0.000000 0.000000
vt 0.000000 0.000000
vt 0.000000 0.000000
vt 0.000000 0.000000
vt 0.000000 0.000000
vt 0.000000 0.000000
vt 0.000000 0.000000
vt 0.000000 0.000000
vt 0.000000 0.000000
vt 0.000000 0.000000
vt 0.000000 0.000000
vt 0.000000 0.000000
vt 0.000000 0.000000
vt 0.000000 0.000000
vt 0.000000 0.000000
vt 0.000000 0.000000
vt 0.000000 0.000000
vt 0.000000 0.000000
vt 0.000000 0.000000
vt 0.000000 0.000000
vt 0.000000 0.000000
vt 0.000000 0.000000
vt 0.000000 0.000000
vt 0.000000 0.000000
vt 0.000000 0.000000
vt 0.000000 0.000000
vt 0.000000 0.000000
vt 0.000000 0.000000
vt 0.000000 0.000000
vt 0.000000 0.000000
vt 0.000000 0.000000
vt 0.000000 0.000000
vt 0.000000 0.000000
vt 0.000000 0.000000
vt 0.000000 0.000000
vt 0.000000 0.000000
vt 0.000000 0.000000
vt 0.000000 0.000000
vt 0.000000 0.000000
vt 0.000000 0.000000
vt 0.000000 0.000000
vt 0.000000 0.000000
vt 0.000000 0.000000
vt 0.000000 0.000000
vt 0.000000 0.000000
vt 0.000000 0.000000
vt 0.000000 0.000000
vt 0.000000 0.000000
vt 0.000000 0.000000
vt 0.000000 0.000000
vt 0.000000 0.000000
vt 0.000000 0.000000
vt 0.000000 0.000000
vt 0.000000 0.000000
vt 0.000000 0.000000
vt 0.000000 0.000000
vt 0.000000 0.000000
vt 0.000000 0.000000
vt 0.000000 0.000000
vt 0.000000 0.000000
vt 0.000000 0.000000
vt 0.000000 0.000000
vt 0.000000 0.000000
vt 0.000000 0.000000
vt 0.000000 0.000000
vt 0.000000 0.000000
vt 0.000000 0.000000
vt 0.000000 0.000000
vt 0.000000 0.000000
vt 0.000000 0.000000
vt 0.000000 0.000000
vt 0.000000 0.000000
vt 0.000000 0.000000
vt 0.000000 0.000000
vt 0.000000 0.000000
vt 0.000000 0.000000
vt 0.000000 0.000000
vt 0.000000 0.000000
vt 0.000000 0.000000
vt 0.000000 0.000000
vt 0.000000 0.000000
vt 0.000000 0.000000
vt 0.000000 0.000000
vt 0.000000 0.000000
vt 0.000000 0.000000
vt 0.000000 0.000000
vt 0.000000 0.000000
vt 0.000000 0.000000
vt 0.000000 0.000000
vt 0.000000 0.000000
vt 0.000000 0.000000
vt 0.000000 0.000000
vt 0.000000 0.000000
vt 0.000000 0.000000
vt 0.000000 0.000000
vt 0.000000 0.000000
vt 0.000000 0.000000
vt 0.000000 0.000000
vt 0.000000 0.000000
vt 0.000000 0.000000
vt 0.000000 0.000000
vt 0.000000 0.000000
vt 0.000000 0.000000
vt 0.000000 0.000000
vt 0.000000 0.000000
vt 0.000000 0.000000
vt 0.000000 0.000000
vt 0.000000 0.000000
vt 0.000000 0.000000
vt 0.000000 0.000000
vt 0.000000 0.000000
vt 0.000000 0.000000
vt 0.000000 0.000000
vt 0.000000 0.000000
vt 0.000000 0.000000
vt 0.000000 0.000000
vt 0.000000 0.000000
vt 0.000000 0.000000
vt 0.000000 0.000000
vt 0.000000 0.000000
vt 0.000000 0.000000
vt 0.000000 0.000000
vt 0.000000 0.000000
vt 0.000000 0.000000
vt 0.000000 0.000000
vt 0.000000 0.000000
vt 0.000000 0.000000
vt 0.000000 0.000000
vt 0.000000 0.000000
vt 0.000000 0.000000
vt 0.000000 0.000000
vt 0.000000 0.000000
vt 0.000000 0.000000
vt 0.000000 0.000000
vt 0.000000 0.000000
vt 0.000000 0.000000
vt 0.000000 0.000000
vt 0.000000 0.000000
vt 0.000000 0.000000
vt 0.000000 0.000000
vt 0.000000 0.000000
vt 0.000000 0.000000
vt 0.000000 0.000000
vt 0.000000 0.000000
vt 0.000000 0.000000
vt 0.000000 0.000000
vt 0.000000 0.000000
vt 0.000000 0.000000
vt 0.000000 0.000000
vt 0.000000 0.000000
vt 0.000000 0.000000
vt 0.000000 0.000000
vt 0.000000 0.000000
vt 0.000000 0.000000
vt 0.000000 0.000000
vt 0.000000 0.000000
vt 0.000000 0.000000
vt 0.000000 0.000000
vt 0.000000 0.000000
vt 0.000000 0.000000
vt 0.000000 0.000000
vt 0.000000 0.000000
vt 0.000000 0.000000
vt 0.000000 0.000000
vt 0.000000 0.000000
vt 0.000000 0.000000
vt 0.000000 0.000000
vt 0.000000 0.000000
vt 0.000000 0.000000
vt 0.000000 0.000000
vt 0.000000 0.000000
vt 0.000000 0.000000
vt 0.000000 0.000000
vt 0.000000 0.000000
vt 0.000000 0.000000
vt 0.000000 0.000000
vt 0.000000 0.000000
vt 0.000000 0.000000
vt 0.000000 0.000000
vt 0.000000 0.000000
vt 0.000000 0.000000
vt 0.000000 0.000000
vt 0.000000 0.000000
vt 0.000000 0.000000
vt 0.000000 0.000000
vt 0.000000 0.000000
vt 0.000000 0.000000
vt 0.000000 0.000000
vt 0.000000 0.000000
vt 0.000000 0.000000
vt 0.000000 0.000000
vt 0.000000 0.000000
vt 0.000000 0.000000
vt 0.000000 0.000000
vt 0.000000 0.000000
vt 0.000000 0.000000
vt 0.000000 0.000000
vt 0.000000 0.000000
vt 0.000000 0.000000
vt 0.000000 0.000000
vt 0.000000 0.000000
vt 0.000000 0.000000
vt 0.000000 0.000000
vt 0.000000 0.000000
vt 0.000000 0.000000
vt 0.000000 0.000000
vt 0.000000 0.000000
vt 0.000000 0.000000
vt 0.000000 0.000000
vt 0.000000 0.000000
vt 0.000000 0.000000
vt 0.000000 0.000000
vt 0.000000 0.000000
vt 0.000000 0.000000
vt 0.000000 0.000000
vt 0.000000 0.000000
vt 0.000000 0.000000
vt 0.000000 0.000000
vt 0.000000 0.000000
vt 0.000000 0.000000
vt 0.000000 0.000000
vt 0.000000 0.000000
vt 0.000000 0.000000
vt 0.000000 0.000000
vt 0.000000 0.000000
vt 0.000000 0.000000
vt 0.000000 0.000000
vt 0.000000 0.000000
vt 0.000000 0.000000
vt 0.000000 0.000000
vt 0.000000 0.000000
vt 0.000000 0.000000
vt 0.000000 0.000000
vt 0.000000 0.000000
vt 0.000000 0.000000
vt 0.000000 0.000000
vt 0.000000 0.000000
vt 0.000000 0.000000
vt 0.000000 0.000000
vt 0.000000 0.000000
vt 0.000000 0.000000
vt 0.000000 0.000000
vt 0.000000 0.000000
vt 0.000000 0.000000
vt 0.000000 0.000000
vt 0.000000 0.000000
vt 0.000000 0.000000
vt 0.000000 0.000000
vt 0.000000 0.000000
vt 0.000000 0.000000
vt 0.000000 0.000000
vt 0.000000 0.000000
vt 0.000000 0.000000
vt 0.000000 0.000000
vt 0.000000 0.000000
vt 0.000000 0.000000
vt 0.000000 0.000000
vt 0.000000 0.000000
vt 0.000000 0.000000
vt 0.000000 0.000000
vt 0.000000 0.000000
vt 0.000000 0.000000
vt 0.000000 0.000000
vt 0.000000 0.000000
vt 0.000000 0.000000
vt 0.000000 0.000000
vt 0.000000 0.000000
vt 0.000000 0.000000
vt 0.000000 0.000000
vt 0.000000 0.000000
vt 0.000000 0.000000
vt 0.000000 0.000000
vt 0.000000 0.000000
vt 0.000000 0.000000
vt 0.000000 0.000000
vt 0.000000 0.000000
vt 0.000000 0.000000
vt 0.000000 0.000000
vt 0.000000 0.000000
vt 0.000000 0.000000
vt 0.000000 0.000000
vt 0.000000 0.000000
vt 0.000000 0.000000
vt 0.000000 0.000000
vt 0.000000 0.000000
vt 0.000000 0.000000
vt 0.000000 0.000000
vt 0.000000 0.000000
vt 0.000000 0.000000
vt 0.000000 0.000000
vt 0.000000 0.000000
vt 0.000000 0.000000
vt 0.000000 0.000000
vt 0.000000 0.000000
vt 0.000000 0.000000
vt 0.000000 0.000000
vt 0.000000 0.000000
vt 0.000000 0.000000
vt 0.000000 0.000000
vt 0.000000 0.000000
vt 0.000000 0.000000
vt 0.000000 0.000000
vt 0.000000 0.000000
vt 0.000000 0.000000
vt 0.000000 0.000000
vt 0.000000 0.000000
vt 0.000000 0.000000
vt 0.000000 0.000000
vt 0.000000 0.000000
vt 0.000000 0.000000
vt 0.000000 0.000000
vt 0.000000 0.000000
vt 0.000000 0.000000
vt 0.000000 0.000000
vt 0.000000 0.000000
vt 0.000000 0.000000
vt 0.000000 0.000000
vt 0.000000 0.000000
vt 0.000000 0.000000
vt 0.000000 0.000000
vt 0.000000 0.000000
vt 0.000000 0.000000
vt 0.000000 0.000000
vt 0.000000 0.000000
vt 0.000000 0.000000
vt 0.000000 0.000000
vt 0.000000 0.000000
vt 0.000000 0.000000
vt 0.000000 0.000000
vt 0.000000 0.000000
vt 0.000000 0.000000
vt 0.000000 0.000000
vt 0.000000 0.000000
vt 0.000000 0.000000
vt 0.000000 0.000000
vt 0.000000 0.000000
vt 0.000000 0.000000
vt 0.000000 0.000000
vt 0.000000 0.000000
vt 0.000000 0.000000
vt 0.000000 0.000000
vt 0.000000 0.000000
vt 0.000000 0.000000
vt 0.000000 0.000000
vt 0.000000 0.000000
vt 0.000000 0.000000
vt 0.000000 0.000000
vt 0.000000 0.000000
vt 0.000000 0.000000
vt 0.000000 0.000000
vt 0.000000 0.000000
vt 0.000000 0.000000
vt 0.000000 0.000000
vt 0.000000 0.000000
vt 0.000000 0.000000
vt 0.000000 0.000000
vt 0.000000 0.000000
vt 0.000000 0.000000
vt 0.000000 0.000000
vt 0.000000 0.000000
vt 0.000000 0.000000
vt 0.000000 0.000000
vt 0.000000 0.000000
vt 0.000000 0.000000
vt 0.000000 0.000000
vt 0.000000 0.000000
vt 0.000000 0.000000
vt 0.000000 0.000000
vt 0.000000 0.000000
vt 0.000000 0.000000
vt 0.000000 0.000000
vt 0.000000 0.000000
vt 0.000000 0.000000
vt 0.000000 0.000000
vt 0.000000 0.000000
vt 0.000000 0.000000
vt 0.000000 0.000000
vt 0.000000 0.000000
vt 0.000000 0.000000
vt 0.000000 0.000000
vt 0.000000 0.000000
vt 0.000000 0.000000
vt 0.000000 0.000000
vt 0.000000 0.000000
vt 0.000000 0.000000
vt 0.000000 0.000000
vt 0.000000 0.000000
vt 0.000000 0.000000
vt 0.000000 0.000000
vt 0.000000 0.000000
vt 0.000000 0.000000
vt 0.000000 0.000000
vt 0.000000 0.000000
vt 0.000000 0.000000
vt 0.000000 0.000000
vt 0.000000 0.000000
vt 0.000000 0.000000
vt 0.000000 0.000000
vt 0.000000 0.000000
vt 0.000000 0.000000
vt 0.000000 0.000000
vt 0.000000 0.000000
vt 0.000000 0.000000
vt 0.000000 0.000000
vt 0.000000 0.000000
vt 0.000000 0.000000
vt 0.000000 0.000000
vt 0.000000 0.000000
vt 0.000000 0.000000
vt 0.000000 0.000000
vt 0.000000 0.000000
vt 0.000000 0.000000
vt 0.000000 0.000000
vt 0.000000 0.000000
vt 0.000000 0.000000
vt 0.000000 0.000000
vt 0.000000 0.000000
vt 0.000000 0.000000
vt 0.000000 0.000000
vt 0.000000 0.000000
vt 0.000000 0.000000
vt 0.000000 0.000000
vt 0.000000 0.000000
vt 0.000000 0.000000
vt 0.000000 0.000000
vt 0.000000 0.000000
vt 0.000000 0.000000
vt 0.000000 0.000000
vt 0.000000 0.000000
vt 0.000000 0.000000
vt 0.000000 0.000000
vt 0.000000 0.000000
vt 0.000000 0.000000
vt 0.000000 0.000000
vt 0.000000 0.000000
vt 0.000000 0.000000
vt 0.000000 0.000000
vt 0.000000 0.000000
vt 0.000000 0.000000
vt 0.000000 0.000000
vt 0.000000 0.000000
vt 0.000000 0.000000
vt 0.000000 0.000000
vt 0.000000 0.000000
vt 0.000000 0.000000
vt 0.000000 0.000000
vt 0.000000 0.000000
vt 0.000000 0.000000
vt 0.000000 0.000000
vt 0.000000 0.000000
vt 0.000000 0.000000
vt 0.000000 0.000000
vt 0.000000 0.000000
vt 0.000000 0.000000
vt 0.000000 0.000000
vt 0.000000 0.000000
vt 0.000000 0.000000
vt 0.000000 0.000000
vt 0.000000 0.000000
vt 0.000000 0.000000
vt 0.000000 0.000000
vt 0.000000 0.000000
vt 0.000000 0.000000
vt 0.000000 0.000000
vt 0.000000 0.000000
vt 0.000000 0.000000
vt 0.000000 0.000000
vt 0.000000 0.000000
vt 0.000000 0.000000
vt 0.000000 0.000000
vt 0.000000 0.000000
vt 0.000000 0.000000
vt 0.000000 0.000000
vt 0.000000 0.000000
vt 0.000000 0.000000
vt 0.000000 0.000000
vt 0.000000 0.000000
vt 0.000000 0.000000
vt 0.000000 0.000000
vt 0.000000 0.000000
vt 0.000000 0.000000
vt 0.000000 0.000000
vt 0.000000 0.000000
vt 0.000000 0.000000
vt 0.000000 0.000000
vt 0.000000 0.000000
vt 0.000000 0.000000
vt 0.000000 0.000000
vt 0.000000 0.000000
vt 0.000000 0.000000
vt 0.000000 0.000000
vt 0.000000 0.000000
vt 0.000000 0.000000
vt 0.000000 0.000000
vt 0.000000 0.000000
vt 0.000000 0.000000
vt 0.000000 0.000000
vt 0.000000 0.000000
vt 0.000000 0.000000
vt 0.000000 0.000000
vt 0.000000 0.000000
vt 0.000000 0.000000
vt 0.000000 0.000000
vt 0.000000 0.000000
vt 0.000000 0.000000
vt 0.000000 0.000000
vt 0.000000 0.000000
vt 0.000000 0.000000
vt 0.000000 0.000000
vt 0.000000 0.000000
vt 0.000000 0.000000
vt 0.000000 0.000000
vt 0.000000 0.000000
vt 0.000000 0.000000
vt 0.000000 0.000000
vt 0.000000 0.000000
vt 0.000000 0.000000
vt 0.000000 0.000000
vt 0.000000 0.000000
vt 0.000000 0.000000
vt 0.000000 0.000000
vt 0.000000 0.000000
vt 0.000000 0.000000
vt 0.000000 0.000000
vt 0.000000 0.000000
vt 0.000000 0.000000
vt 0.000000 0.000000
vt 0.000000 0.000000
vt 0.000000 0.000000
vt 0.000000 0.000000
vt 0.000000 0.000000
vt 0.000000 0.000000
vt 0.000000 0.000000
vt 0.000000 0.000000
vt 0.000000 0.000000
vt 0.000000 0.000000
vt 0.000000 0.000000
vt 0.000000 0.000000
vt 0.000000 0.000000
vt 0.000000 0.000000
vt 0.000000 0.000000
vt 0.000000 0.000000
vt 0.000000 0.000000
vt 0.000000 0.000000
vt 0.000000 0.000000
vt 0.000000 0.000000
vt 0.000000 0.000000
vt 0.000000 0.000000
vt 0.000000 0.000000
vt 0.000000 0.000000
vt 0.000000 0.000000
vt 0.000000 0.000000
vt 0.000000 0.000000
vt 0.000000 0.000000
vt 0.000000 0.000000
vt 0.000000 0.000000
vt 0.000000 0.000000
vt 0.000000 0.000000
vt 0.000000 0.000000
vt 0.000000 0.000000
vt 0.000000 0.000000
vt 0.000000 0.000000
vt 0.000000 0.000000
vt 0.000000 0.000000
vt 0.000000 0.000000
vt 0.000000 0.000000
vt 0.000000 0.000000
vt 0.000000 0.000000
vt 0.000000 0.000000
vt 0.000000 0.000000
vt 0.000000 0.000000
vt 0.000000 0.000000
vt 0.000000 0.000000
vt 0.000000 0.000000
vt 0.000000 0.000000
vt 0.000000 0.000000
vt 0.000000 0.000000
vt 0.000000 0.000000
vt 0.000000 0.000000
vt 0.000000 0.000000
vt 0.000000 0.000000
vt 0.000000 0.000000
vt 0.000000 0.000000
vt 0.000000 0.000000
vt 0.000000 0.000000
vt 0.000000 0.000000
vt 0.000000 0.000000
vt 0.000000 0.000000
vt 0.000000 0.000000
vt 0.000000 0.000000
vt 0.000000 0.000000
vt 0.000000 0.000000
vt 0.000000 0.000000
vt 0.000000 0.000000
vt 0.000000 0.000000
vt 0.000000 0.000000
vt 0.000000 0.000000
vt 0.000000 0.000000
vt 0.000000 0.000000
vt 0.000000 0.000000
vt 0.000000 0.000000
vt 0.000000 0.000000
vt 0.000000 0.000000
vt 0.000000 0.000000
vt 0.000000 0.000000
vt 0.000000 0.000000
vt 0.000000 0.000000
vt 0.000000 0.000000
vt 0.000000 0.000000
vt 0.000000 0.000000
vt 0.000000 0.000000
vt 0.000000 0.000000
vt 0.000000 0.000000
vt 0.000000 0.000000
vt 0.000000 0.000000
vt 0.000000 0.000000
vt 0.000000 0.000000
vt 0.000000 0.000000
vt 0.000000 0.000000
vt 0.000000 0.000000
vt 0.000000 0.000000
vt 0.000000 0.000000
vt 0.000000 0.000000
vt 0.000000 0.000000
vt 0.000000 0.000000
vt 0.000000 0.000000
vt 0.000000 0.000000
vt 0.000000 0.000000
vt 0.000000 0.000000
vt 0.000000 0.000000
vt 0.000000 0.000000
vt 0.000000 0.000000
vt 0.000000 0.000000
vt 0.000000 0.000000
vt 0.000000 0.000000
vt 0.000000 0.000000
vt 0.000000 0.000000
vt 0.000000 0.000000
vt 0.000000 0.000000
vt 0.000000 0.000000
vt 0.000000 0.000000
vt 0.000000 0.000000
vt 0.000000 0.000000
vt 0.000000 0.000000
vt 0.000000 0.000000
vt 0.000000 0.000000
vt 0.000000 0.000000
vt 0.000000 0.000000
vt 0.000000 0.000000
vt 0.000000 0.000000
vt 0.000000 0.000000
vt 0.000000 0.000000
vt 0.000000 0.000000
vt 0.000000 0.000000
vt 0.000000 0.000000
vt 0.000000 0.000000
vt 0.000000 0.000000
vt 0.000000 0.000000
vt 0.000000 0.000000
vt 0.000000 0.000000
vn 0.0000 -1.0000 0.0000
vn 0.0000 0.0000 1.0000
vn 0.0000 1.0000 -0.0000
vn 0.0000 1.0000 -0.0001
vn 0.0000 1.0000 0.0001
vn 0.0000 1.0000 -0.0002
vn 0.0000 0.0000 -1.0000
vn 0.6627 0.0000 0.7489
vn -0.0484 0.0000 0.9988
vn 0.8147 0.0000 0.5798
vn -0.1441 0.0000 0.9896
vn 0.8100 0.0000 0.5864
vn -0.2372 0.0000 0.9715
vn 0.7555 0.0000 0.6551
vn -0.3301 0.0000 0.9439
vn 0.6639 0.0000 0.7478
vn -0.4242 0.0000 0.9056
vn 0.5812 0.0000 0.8138
vn -0.5074 0.0000 0.8617
vn 0.5012 0.0000 0.8654
vn -0.5731 0.0000 0.8195
vn 0.4027 0.0000 0.9153
vn -0.6574 0.0000 0.7535
vn 0.2918 0.0000 0.9565
vn -0.7705 0.0000 0.6374
vn 0.1772 0.0000 0.9842
vn -0.7931 0.0000 0.6091
vn 0.0569 0.0000 0.9984
vn -0.5109 0.0000 0.8596
vn -0.0712 0.0000 0.9975
vn 0.0199 0.0000 0.9998
vn 0.0580 0.0000 0.9983
vn 0.5109 0.0000 0.8596
vn 0.7931 0.0000 0.6091
vn 0.7705 0.0000 0.6374
vn 0.6574 0.0000 0.7535
vn 0.5731 0.0000 0.8195
vn 0.5074 0.0000 0.8617
vn 0.4242 0.0000 0.9056
vn 0.3301 0.0000 0.9439
vn 0.2372 0.0000 0.9715
vn 0.1441 0.0000 0.9896
vn 0.0484 0.0000 0.9988
vn -0.0066 0.0000 1.0000
vn 0.7931 0.0000 0.6092
vn -0.0133 0.0000 0.9999
vn -0.0618 0.0000 0.9981
vn -0.1649 0.0000 0.9863
vn -0.2816 0.0000 0.9595
vn -0.4754 0.0000 0.8798
vn -0.7180 0.0000 0.6961
vn -0.8590 0.0000 0.5119
vn -0.8991 0.0000 0.4377
vn -0.8573 0.0000 0.5148
vn 1.0000 0.0000 0.0000
vn 0.0663 0.0000 0.9978
vn -0.1089 0.0000 -0.9941
vn 0.5404 0.0000 -0.8414
vn -0.0837 0.0000 -0.9965
vn 0.0855 0.0000 -0.9963
vn 0.6781 0.0000 -0.7350
vn 0.7598 0.0000 -0.6502
vn 0.7108 0.0000 -0.7034
vn 0.6193 0.0000 -0.7852
vn 0.5419 0.0000 -0.8405
vn 0.4911 0.0000 -0.8711
vn 0.4415 0.0000 -0.8973
vn 0.3806 0.0000 -0.9247
vn 0.3114 0.0000 -0.9503
vn 0.2409 0.0000 -0.9706
vn 0.1726 0.0000 -0.9850
vn -0.6643 0.0000 -0.7475
vn -0.5623 0.0000 -0.8269
vn -0.3748 0.0000 -0.9271
vn 0.1052 0.0000 -0.9944
vn 0.0365 0.0000 -0.9993
vn -0.0352 0.0000 -0.9994
vn -0.1785 0.0000 -0.9839
vn -0.2411 0.0000 -0.9705
vn -0.3049 0.0000 -0.9524
vn -0.4429 0.0000 -0.8966
vn -0.5030 0.0000 -0.8643
vn -0.6164 0.0000 -0.7875
vn -0.7466 0.0000 -0.6653
vn -0.7183 0.0000 -0.6958
vn -0.5355 0.0000 -0.8446
vn -1.0000 0.0000 0.0000
vn -0.6642 0.0000 -0.7475
vn -0.5354 0.0000 -0.8446
g luna_main_Circle_gora_dol
usemtl gora_dol
s off
f 12/1/1 11/2/1 58/3/1 57/4/1
f 57/4/1 58/3/1 28/5/1 27/6/1
f 11/2/1 10/7/1 59/8/1 58/3/1
f 58/3/1 59/8/1 29/9/1 28/5/1
f 10/7/1 53/10/1 60/11/1 59/8/1
f 59/8/1 60/11/1 30/12/1 29/9/1
f 53/10/1 9/13/1 61/14/1 60/11/1
f 60/11/1 61/14/1 31/15/1 30/12/1
f 9/13/1 54/16/1 62/17/1 61/14/1
f 61/14/1 62/17/1 32/18/1 31/15/1
f 54/16/1 8/19/1 63/20/1 62/17/1
f 62/17/1 63/20/1 33/21/1 32/18/1
f 8/19/1 7/22/1 64/23/1 63/20/1
f 63/20/1 64/23/1 34/24/1 33/21/1
f 7/22/1 55/25/1 65/26/1 64/23/1
f 64/23/1 65/26/1 35/27/1 34/24/1
f 55/25/1 6/28/1 66/29/1 65/26/1
f 65/26/1 66/29/1 36/30/1 35/27/1
f 6/28/1 5/31/1 67/32/1 66/29/1
f 66/29/1 67/32/1 37/33/1 36/30/1
f 5/31/1 4/34/1 68/35/1 67/32/1
f 67/32/1 68/35/1 38/36/1 37/33/1
f 4/34/1 56/37/1 69/38/1 68/35/1
f 68/35/1 69/38/1 39/39/1 38/36/1
f 56/37/1 3/40/1 70/41/1 69/38/1
f 69/38/1 70/41/1 40/42/1 39/39/1
f 3/40/1 2/43/1 71/44/1 70/41/1
f 70/41/1 71/44/1 14/45/1 40/42/1
f 2/43/1 1/46/1 72/47/1 71/44/1
f 71/44/1 72/47/1 15/48/1 14/45/1
f 1/46/1 52/49/1 73/50/1 72/47/1
f 72/47/1 73/50/1 16/51/1 15/48/1
f 52/49/1 51/52/1 74/53/1 73/50/1
f 73/50/1 74/53/1 17/54/1 16/51/1
f 51/52/1 50/55/1 75/56/1 74/53/1
f 74/53/1 75/56/1 18/57/1 17/54/1
f 50/55/1 49/58/1 76/59/1 75/56/1
f 75/56/1 76/59/1 19/60/1 18/57/1
f 49/58/1 48/61/1 77/62/1 76/59/1
f 76/59/1 77/62/1 20/63/1 19/60/1
f 48/61/1 47/64/1 78/65/1 77/62/1
f 77/62/1 78/65/1 21/66/1 20/63/1
f 47/64/1 46/67/1 79/68/1 78/65/1
f 78/65/1 79/68/1 22/69/1 21/66/1
f 46/67/1 45/70/1 80/71/1 79/68/1
f 79/68/1 80/71/1 23/72/1 22/69/1
f 45/70/1 44/73/1 81/74/1 80/71/1
f 80/71/1 81/74/1 24/75/1 23/72/1
f 44/73/1 43/76/1 82/77/1 81/74/1
f 81/74/1 82/77/1 25/78/1 24/75/1
f 43/76/1 42/79/1 83/80/1 82/77/1
f 82/77/1 83/80/1 26/81/1 25/78/1
f 87/82/1 12/1/1 57/4/1 89/83/1
f 89/83/1 57/4/1 27/6/1 88/84/1
f 85/85/1 86/86/1 83/80/1 42/79/1
f 84/87/1 86/86/1 354/88/1 309/89/1
f 26/81/1 83/80/1 86/86/1 84/87/1
f 285/90/1 354/88/1 86/86/1 85/85/1
f 173/91/1 89/83/1 88/84/1 41/92/1
f 13/93/1 87/82/1 89/83/1 173/91/1
f 101/94/1 100/95/1 147/96/1 146/97/1
f 146/97/1 147/96/1 117/98/1 116/99/1
f 100/95/1 99/100/1 148/101/1 147/96/1
f 147/96/1 148/101/1 118/102/1 117/98/1
f 99/100/1 142/103/1 149/104/1 148/101/1
f 148/101/1 149/104/1 119/105/1 118/102/1
f 142/103/1 98/106/1 150/107/1 149/104/1
f 149/104/1 150/107/1 120/108/1 119/105/1
f 98/106/1 143/109/1 151/110/1 150/107/1
f 150/107/1 151/110/1 121/111/1 120/108/1
f 143/109/1 97/112/1 152/113/1 151/110/1
f 151/110/1 152/113/1 122/114/1 121/111/1
f 97/112/1 96/115/1 153/116/1 152/113/1
f 152/113/1 153/116/1 123/117/1 122/114/1
f 96/115/1 144/118/1 154/119/1 153/116/1
f 153/116/1 154/119/1 124/120/1 123/117/1
f 144/118/1 95/121/1 155/122/1 154/119/1
f 154/119/1 155/122/1 125/123/1 124/120/1
f 95/121/1 94/124/1 156/125/1 155/122/1
f 155/122/1 156/125/1 126/126/1 125/123/1
f 94/124/1 93/127/1 157/128/1 156/125/1
f 156/125/1 157/128/1 127/129/1 126/126/1
f 93/127/1 145/130/1 158/131/1 157/128/1
f 157/128/1 158/131/1 128/132/1 127/129/1
f 145/130/1 92/133/1 159/134/1 158/131/1
f 158/131/1 159/134/1 129/135/1 128/132/1
f 92/133/1 91/136/1 160/137/1 159/134/1
f 159/134/1 160/137/1 103/138/1 129/135/1
f 91/136/1 90/139/1 161/140/1 160/137/1
f 160/137/1 161/140/1 104/141/1 103/138/1
f 90/139/1 141/142/1 162/143/1 161/140/1
f 161/140/1 162/143/1 105/144/1 104/141/1
f 141/142/1 140/145/1 163/146/1 162/143/1
f 162/143/1 163/146/1 106/147/1 105/144/1
f 140/145/1 139/148/1 164/149/1 163/146/1
f 163/146/1 164/149/1 107/150/1 106/147/1
f 139/148/1 138/151/1 165/152/1 164/149/1
f 164/149/1 165/152/1 108/153/1 107/150/1
f 138/151/1 137/154/1 166/155/1 165/152/1
f 165/152/1 166/155/1 109/156/1 108/153/1
f 137/154/1 136/157/1 167/158/1 166/155/1
f 166/155/1 167/158/1 110/159/1 109/156/1
f 136/157/1 135/160/1 168/161/1 167/158/1
f 167/158/1 168/161/1 111/162/1 110/159/1
f 135/160/1 134/163/1 169/164/1 168/161/1
f 168/161/1 169/164/1 112/165/1 111/162/1
f 134/163/1 133/166/1 170/167/1 169/164/1
f 169/164/1 170/167/1 113/168/1 112/165/1
f 133/166/1 132/169/1 171/170/1 170/167/1
f 170/167/1 171/170/1 114/171/1 113/168/1
f 132/169/1 131/172/1 172/173/1 171/170/1
f 171/170/1 172/173/1 115/174/1 114/171/1
f 178/175/1 101/94/1 146/97/1 180/176/1
f 180/176/1 146/97/1 116/99/1 179/177/1
f 176/178/1 177/179/1 172/173/1 131/172/1
f 175/180/1 177/179/1 173/91/1 41/92/1
f 115/174/1 172/173/1 177/179/1 175/180/1
f 13/93/1 173/91/1 177/179/1 176/178/1
f 174/181/1 180/176/1 179/177/1 130/182/1
f 102/183/1 178/175/1 180/176/1 174/181/1
f 192/184/1 191/185/1 238/186/1 237/187/1
f 237/187/1 238/186/1 208/188/1 207/189/1
f 191/185/1 190/190/1 239/191/1 238/186/1
f 238/186/1 239/191/1 209/192/1 208/188/1
f 190/190/1 233/193/1 240/194/1 239/191/1
f 239/191/1 240/194/1 210/195/1 209/192/1
f 233/193/1 189/196/1 241/197/1 240/194/1
f 240/194/1 241/197/1 211/198/1 210/195/1
f 189/196/1 234/199/1 242/200/1 241/197/1
f 241/197/1 242/200/1 212/201/1 211/198/1
f 234/199/1 188/202/1 243/203/1 242/200/1
f 242/200/1 243/203/1 213/204/1 212/201/1
f 188/202/1 187/205/1 244/206/1 243/203/1
f 243/203/1 244/206/1 214/207/1 213/204/1
f 187/205/1 235/208/1 245/209/1 244/206/1
f 244/206/1 245/209/1 215/210/1 214/207/1
f 235/208/1 186/211/1 246/212/1 245/209/1
f 245/209/1 246/212/1 216/213/1 215/210/1
f 186/211/1 185/214/1 247/215/1 246/212/1
f 246/212/1 247/215/1 217/216/1 216/213/1
f 185/214/1 184/217/1 248/218/1 247/215/1
f 247/215/1 248/218/1 218/219/1 217/216/1
f 184/217/1 236/220/1 249/221/1 248/218/1
f 248/218/1 249/221/1 219/222/1 218/219/1
f 236/220/1 183/223/1 250/224/1 249/221/1
f 249/221/1 250/224/1 220/225/1 219/222/1
f 183/223/1 182/226/1 251/227/1 250/224/1
f 250/224/1 251/227/1 194/228/1 220/225/1
f 182/226/1 181/229/1 252/230/1 251/227/1
f 251/227/1 252/230/1 195/231/1 194/228/1
f 181/229/1 232/232/1 253/233/1 252/230/1
f 252/230/1 253/233/1 196/234/1 195/231/1
f 232/232/1 231/235/1 254/236/1 253/233/1
f 253/233/1 254/236/1 197/237/1 196/234/1
f 231/235/1 230/238/1 255/239/1 254/236/1
f 254/236/1 255/239/1 198/240/1 197/237/1
f 230/238/1 229/241/1 256/242/1 255/239/1
f 255/239/1 256/242/1 199/243/1 198/240/1
f 229/241/1 228/244/1 257/245/1 256/242/1
f 256/242/1 257/245/1 200/246/1 199/243/1
f 228/244/1 227/247/1 258/248/1 257/245/1
f 257/245/1 258/248/1 201/249/1 200/246/1
f 227/247/1 226/250/1 259/251/1 258/248/1
f 258/248/1 259/251/1 202/252/1 201/249/1
f 226/250/1 225/253/1 260/254/1 259/251/1
f 259/251/1 260/254/1 203/255/1 202/252/1
f 225/253/1 224/256/1 261/257/1 260/254/1
f 260/254/1 261/257/1 204/258/1 203/255/1
f 224/256/1 223/259/1 262/260/1 261/257/1
f 261/257/1 262/260/1 205/261/1 204/258/1
f 223/259/1 222/262/1 263/263/1 262/260/1
f 262/260/1 263/263/1 206/264/1 205/261/1
f 268/265/1 192/184/1 237/187/1 270/266/1
f 270/266/1 237/187/1 207/189/1 269/267/1
f 266/268/1 267/269/1 263/263/1 222/262/1
f 265/270/1 267/269/1 174/181/1 130/182/1
f 206/264/1 263/263/1 267/269/1 265/270/1
f 102/183/1 174/181/1 267/269/1 266/268/1
f 264/271/1 270/266/1 269/267/1 221/272/1
f 193/273/1 268/265/1 270/266/1 264/271/1
f 264/271/1 221/272/1 271/274/1 272/275/1
f 284/276/1 283/277/1 327/278/1 326/279/1
f 326/279/1 327/278/1 296/280/1 295/281/1
f 283/277/1 282/282/1 328/283/1 327/278/1
f 327/278/1 328/283/1 297/284/1 296/280/1
f 282/282/1 322/285/1 329/286/1 328/283/1
f 328/283/1 329/286/1 298/287/1 297/284/1
f 322/285/1 281/288/1 330/289/1 329/286/1
f 329/286/1 330/289/1 299/290/1 298/287/1
f 281/288/1 323/291/1 331/292/1 330/289/1
f 330/289/1 331/292/1 300/293/1 299/290/1
f 323/291/1 280/294/1 332/295/1 331/292/1
f 331/292/1 332/295/1 301/296/1 300/293/1
f 280/294/1 279/297/1 333/298/1 332/295/1
f 332/295/1 333/298/1 302/299/1 301/296/1
f 279/297/1 324/300/1 334/301/1 333/298/1
f 333/298/1 334/301/1 303/302/1 302/299/1
f 324/300/1 278/303/1 335/304/1 334/301/1
f 334/301/1 335/304/1 304/305/1 303/302/1
f 278/303/1 277/306/1 336/307/1 335/304/1
f 335/304/1 336/307/1 305/308/1 304/305/1
f 277/306/1 276/309/1 337/310/1 336/307/1
f 336/307/1 337/310/1 306/311/1 305/308/1
f 276/309/1 325/312/1 338/313/1 337/310/1
f 337/310/1 338/313/1 307/314/1 306/311/1
f 325/312/1 275/315/1 339/316/1 338/313/1
f 338/313/1 339/316/1 308/317/1 307/314/1
f 275/315/1 274/318/1 340/319/1 339/316/1
f 339/316/1 340/319/1 286/320/1 308/317/1
f 274/318/1 273/321/1 341/322/1 340/319/1
f 340/319/1 341/322/1 287/323/1 286/320/1
f 273/321/1 321/324/1 342/325/1 341/322/1
f 341/322/1 342/325/1 288/326/1 287/323/1
f 321/324/1 320/327/1 343/328/1 342/325/1
f 342/325/1 343/328/1 289/329/1 288/326/1
f 320/327/1 319/330/1 344/331/1 343/328/1
f 343/328/1 344/331/1 290/332/1 289/329/1
f 319/330/1 318/333/1 345/334/1 344/331/1
f 344/331/1 345/334/1 291/335/1 290/332/1
f 318/333/1 317/336/1 346/337/1 345/334/1
f 345/334/1 346/337/1 292/338/1 291/335/1
f 317/336/1 316/339/1 347/340/1 346/337/1
f 346/337/1 347/340/1 293/341/1 292/338/1
f 316/339/1 315/342/1 348/343/1 347/340/1
f 294/344/1 360/345/1 348/343/1
f 315/342/1 314/346/1 349/347/1 348/343/1
f 314/346/1 313/348/1 350/349/1 349/347/1
f 313/348/1 312/350/1 351/351/1 350/349/1
f 312/350/1 311/352/1 352/353/1 351/351/1
f 357/354/1 284/276/1 326/279/1 359/355/1
f 359/355/1 326/279/1 295/281/1 358/356/1
f 355/357/1 356/358/1 352/353/1 311/352/1
f 310/359/1 353/360/1 356/358/1 355/357/1
f 354/88/1 359/355/1 358/356/1 309/89/1
f 285/90/1 357/354/1 359/355/1 354/88/1
f 351/351/2 352/353/2 356/358/2 353/360/2 349/347/2 350/349/2
f 348/343/1 360/345/1 293/341/1 347/340/1
f 376/361/3 418/362/3 419/363/3 374/364/3
f 418/362/3 392/365/3 393/366/3 419/363/3
f 374/364/3 419/363/3 420/367/3 375/368/3
f 419/363/3 393/366/3 394/369/3 420/367/3
f 375/368/3 420/367/3 421/370/3 372/371/3
f 420/367/3 394/369/3 395/372/3 421/370/3
f 372/371/3 421/370/3 422/373/3 373/374/3
f 421/370/3 395/372/3 396/375/3 422/373/3
f 373/374/3 422/373/3 423/376/3 371/377/3
f 422/373/3 396/375/3 397/378/3 423/376/3
f 371/377/3 423/376/3 424/379/3 369/380/3
f 423/376/3 397/378/3 398/381/3 424/379/3
f 369/380/3 424/379/3 425/382/3 370/383/3
f 424/379/3 398/381/3 399/384/3 425/382/3
f 370/383/3 425/382/3 426/385/3 368/386/3
f 425/382/3 399/384/3 400/387/3 426/385/3
f 368/386/3 426/385/3 427/388/3 367/389/3
f 426/385/3 400/387/3 401/390/3 427/388/3
f 367/389/3 427/388/3 428/391/3 365/392/3
f 427/388/3 401/390/3 402/393/3 428/391/3
f 365/392/3 428/391/3 429/394/3 366/395/3
f 428/391/3 402/393/3 403/396/3 429/394/3
f 366/395/3 429/394/3 430/397/3 364/398/3
f 429/394/3 403/396/3 404/399/3 430/397/3
f 364/398/3 430/397/3 431/400/3 363/401/3
f 430/397/3 404/399/3 378/402/3 431/400/3
f 363/401/3 431/400/3 432/403/3 361/404/3
f 431/400/3 378/402/3 379/405/3 432/403/3
f 361/404/3 432/403/3 433/406/3 362/407/3
f 432/403/3 379/405/3 380/408/3 433/406/3
f 362/407/3 433/406/3 434/409/3 417/410/3
f 433/406/3 380/408/3 381/411/3 434/409/3
f 417/410/3 434/409/3 435/412/3 416/413/3
f 434/409/3 381/411/3 382/414/3 435/412/3
f 416/413/3 435/412/3 436/415/3 415/416/3
f 435/412/3 382/414/3 383/417/3 436/415/3
f 415/416/3 436/415/3 437/418/3 414/419/3
f 436/415/3 383/417/3 384/420/3 437/418/3
f 414/419/3 437/418/3 438/421/3 413/422/3
f 437/418/3 384/420/3 385/423/3 438/421/3
f 413/422/3 438/421/3 439/424/3 412/425/3
f 438/421/3 385/423/3 386/426/3 439/424/3
f 412/425/3 439/424/3 440/427/3 411/428/3
f 439/424/3 386/426/3 387/429/3 440/427/3
f 411/428/3 440/427/3 441/430/3 410/431/3
f 440/427/3 387/429/3 388/432/3 441/430/3
f 410/431/3 441/430/3 442/433/3 409/434/3
f 441/430/3 388/432/3 389/435/3 442/433/3
f 409/434/3 442/433/3 443/436/3 407/437/3
f 442/433/3 389/435/3 390/438/3 443/436/3
f 407/437/3 443/436/3 444/439/3 408/440/3
f 443/436/3 390/438/3 391/441/3 444/439/3
f 377/442/3 448/443/3 418/362/3 376/361/3
f 448/443/3 406/444/3 392/365/3 418/362/3
f 446/445/3 408/440/3 444/439/3 445/446/3
f 405/447/3 651/448/3 650/449/3 445/446/3
f 391/441/3 405/447/3 445/446/3 444/439/3
f 718/450/3 446/445/3 445/446/3 650/449/3
f 536/451/3 496/452/3 406/444/3 448/443/3
f 447/453/3 536/451/3 448/443/3 377/442/3
f 464/454/3 509/455/3 510/456/3 463/457/3
f 509/455/3 482/458/3 483/459/3 510/456/3
f 463/457/3 510/456/3 511/460/3 462/461/3
f 510/456/3 483/459/3 484/462/3 511/460/3
f 462/461/3 511/460/3 512/463/3 461/464/3
f 511/460/3 484/462/3 485/465/3 512/463/3
f 461/464/3 512/463/3 513/466/3 460/467/3
f 512/463/3 485/465/3 486/468/3 513/466/3
f 460/467/4 513/466/4 514/469/4 459/470/4
f 513/466/3 486/468/3 487/471/3 514/469/3
f 459/470/3 514/469/3 515/472/3 458/473/3
f 514/469/3 487/471/3 488/474/3 515/472/3
f 458/473/3 515/472/3 516/475/3 457/476/3
f 515/472/3 488/474/3 489/477/3 516/475/3
f 457/476/3 516/475/3 517/478/3 456/479/3
f 516/475/3 489/477/3 490/480/3 517/478/3
f 456/479/3 517/478/3 518/481/3 455/482/3
f 517/478/3 490/480/3 491/483/3 518/481/3
f 455/482/3 518/481/3 519/484/3 454/485/3
f 518/481/3 491/483/3 492/486/3 519/484/3
f 454/485/3 519/484/3 520/487/3 453/488/3
f 519/484/3 492/486/3 493/489/3 520/487/3
f 453/488/3 520/487/3 521/490/3 452/491/3
f 520/487/3 493/489/3 494/492/3 521/490/3
f 452/491/3 521/490/3 522/493/3 451/494/3
f 521/490/3 494/492/3 468/495/3 522/493/3
f 451/494/3 522/493/3 523/496/3 450/497/3
f 522/493/3 468/495/3 469/498/3 523/496/3
f 450/497/3 523/496/3 524/499/3 449/500/3
f 523/496/3 469/498/3 470/501/3 524/499/3
f 449/500/3 524/499/3 525/502/3 508/503/3
f 524/499/3 470/501/3 471/504/3 525/502/3
f 508/503/3 525/502/3 526/505/3 507/506/3
f 525/502/3 471/504/3 472/507/3 526/505/3
f 507/506/3 526/505/3 527/508/3 506/509/3
f 526/505/3 472/507/3 473/510/3 527/508/3
f 506/509/3 527/508/3 528/511/3 505/512/3
f 527/508/3 473/510/3 474/513/3 528/511/3
f 505/512/3 528/511/3 529/514/3 504/515/3
f 528/511/3 474/513/3 475/516/3 529/514/3
f 504/515/3 529/514/3 530/517/3 503/518/3
f 529/514/3 475/516/3 476/519/3 530/517/3
f 503/518/3 530/517/3 531/520/3 502/521/3
f 530/517/3 476/519/3 477/522/3 531/520/3
f 502/521/3 531/520/3 532/523/3 501/524/3
f 531/520/3 477/522/3 478/525/3 532/523/3
f 501/524/3 532/523/3 533/526/3 500/527/3
f 532/523/3 478/525/3 479/528/3 533/526/3
f 500/527/3 533/526/3 534/529/3 499/530/3
f 533/526/3 479/528/3 480/531/3 534/529/3
f 499/530/3 534/529/3 535/532/3 498/533/3
f 534/529/3 480/531/3 481/534/3 535/532/3
f 465/535/3 538/536/3 509/455/3 464/454/3
f 538/536/3 497/537/3 482/458/3 509/455/3
f 540/538/3 498/533/3 535/532/3 539/539/3
f 495/540/3 496/452/3 536/451/3 539/539/3
f 481/534/3 495/540/3 539/539/3 535/532/3
f 447/453/3 540/538/3 539/539/3 536/451/3
f 466/541/3 467/542/3 497/537/3 538/536/3
f 537/543/3 466/541/3 538/536/3 465/535/3
f 556/544/3 600/545/3 601/546/3 555/547/3
f 600/545/3 574/548/3 575/549/3 601/546/3
f 555/547/3 601/546/3 602/550/3 554/551/3
f 601/546/3 575/549/3 576/552/3 602/550/3
f 554/551/3 602/550/3 603/553/3 553/554/3
f 602/550/3 576/552/3 577/555/3 603/553/3
f 553/554/3 603/553/3 604/556/3 552/557/3
f 603/553/3 577/555/3 578/558/3 604/556/3
f 552/557/3 604/556/3 605/559/3 551/560/3
f 604/556/3 578/558/3 579/561/3 605/559/3
f 551/560/3 605/559/3 606/562/3 550/563/3
f 605/559/3 579/561/3 580/564/3 606/562/3
f 550/563/3 606/562/3 607/565/3 549/566/3
f 606/562/3 580/564/3 581/567/3 607/565/3
f 549/566/3 607/565/3 608/568/3 548/569/3
f 607/565/3 581/567/3 582/570/3 608/568/3
f 548/569/3 608/568/3 609/571/3 547/572/3
f 608/568/3 582/570/3 583/573/3 609/571/3
f 547/572/3 609/571/3 610/574/3 546/575/3
f 609/571/3 583/573/3 584/576/3 610/574/3
f 546/575/3 610/574/3 611/577/3 545/578/3
f 610/574/3 584/576/3 585/579/3 611/577/3
f 545/578/3 611/577/3 612/580/3 544/581/3
f 611/577/3 585/579/3 586/582/3 612/580/3
f 544/581/3 612/580/3 613/583/3 543/584/3
f 612/580/3 586/582/3 560/585/3 613/583/3
f 543/584/3 613/583/3 614/586/3 542/587/3
f 613/583/3 560/585/3 561/588/3 614/586/3
f 542/587/3 614/586/3 615/589/3 541/590/3
f 614/586/3 561/588/3 562/591/3 615/589/3
f 541/590/3 615/589/3 616/592/3 599/593/3
f 615/589/3 562/591/3 563/594/3 616/592/3
f 599/593/3 616/592/3 617/595/3 598/596/3
f 616/592/3 563/594/3 564/597/3 617/595/3
f 598/596/3 617/595/3 618/598/3 597/599/3
f 617/595/3 564/597/3 565/600/3 618/598/3
f 597/599/3 618/598/3 619/601/3 596/602/3
f 618/598/3 565/600/3 566/603/3 619/601/3
f 596/602/3 619/601/3 620/604/3 595/605/3
f 619/601/3 566/603/3 567/606/3 620/604/3
f 595/605/3 620/604/3 621/607/3 594/608/3
f 620/604/3 567/606/3 568/609/3 621/607/3
f 594/608/3 621/607/3 622/610/3 593/611/3
f 621/607/3 568/609/3 569/612/3 622/610/3
f 593/611/3 622/610/3 623/613/3 592/614/3
f 622/610/3 569/612/3 570/615/3 623/613/3
f 592/614/4 623/613/4 624/616/4 591/617/4
f 623/613/3 570/615/3 571/618/3 624/616/3
f 591/617/3 624/616/3 625/619/3 590/620/3
f 624/616/3 571/618/3 572/621/3 625/619/3
f 590/620/3 625/619/3 626/622/3 589/623/3
f 625/619/3 572/621/3 573/624/3 626/622/3
f 557/625/3 628/626/3 600/545/3 556/544/3
f 628/626/3 588/627/3 574/548/3 600/545/3
f 630/628/3 589/623/3 626/622/3 629/629/3
f 587/630/3 467/542/3 466/541/3 629/629/3
f 573/624/3 587/630/3 629/629/3 626/622/3
f 537/543/3 630/628/3 629/629/3 466/541/3
f 558/631/3 559/632/3 588/627/3 628/626/3
f 627/633/3 558/631/3 628/626/3 557/625/3
f 558/631/3 631/634/3 632/635/3 559/632/3
f 648/636/3 691/637/3 692/638/3 647/639/3
f 691/637/3 663/640/3 664/641/3 692/638/3
f 647/639/3 692/638/3 693/642/3 646/643/3
f 692/638/3 664/641/3 665/644/3 693/642/3
f 646/643/3 693/642/3 694/645/3 645/646/3
f 693/642/3 665/644/3 666/647/3 694/645/3
f 645/646/3 694/645/3 695/648/3 644/649/3
f 694/645/3 666/647/3 667/650/3 695/648/3
f 644/649/3 695/648/3 696/651/3 643/652/3
f 695/648/3 667/650/3 668/653/3 696/651/3
f 643/652/3 696/651/3 697/654/3 642/655/3
f 696/651/3 668/653/3 669/656/3 697/654/3
f 642/655/3 697/654/3 698/657/3 641/658/3
f 697/654/5 669/656/5 670/659/5 698/657/5
f 641/658/3 698/657/3 699/660/3 640/661/3
f 698/657/4 670/659/4 671/662/4 699/660/4
f 640/661/3 699/660/3 700/663/3 639/664/3
f 699/660/5 671/662/5 672/665/5 700/663/5
f 639/664/3 700/663/3 701/666/3 638/667/3
f 700/663/3 672/665/3 673/668/3 701/666/3
f 638/667/3 701/666/3 702/669/3 637/670/3
f 701/666/3 673/668/3 674/671/3 702/669/3
f 637/670/3 702/669/3 703/672/3 636/673/3
f 702/669/4 674/671/4 675/674/4 703/672/4
f 636/673/3 703/672/3 704/675/3 635/676/3
f 703/672/4 675/674/4 652/677/4 704/675/4
f 635/676/3 704/675/3 705/678/3 634/679/3
f 704/675/4 652/677/4 653/680/4 705/678/4
f 634/679/3 705/678/3 706/681/3 633/682/3
f 705/678/3 653/680/3 654/683/3 706/681/3
f 633/682/3 706/681/3 707/684/3 690/685/3
f 706/681/6 654/683/6 655/686/6 707/684/6
f 690/685/3 707/684/3 708/687/3 689/688/3
f 707/684/3 655/686/3 656/689/3 708/687/3
f 689/688/3 708/687/3 709/690/3 688/691/3
f 708/687/3 656/689/3 657/692/3 709/690/3
f 688/691/3 709/690/3 710/693/3 687/694/3
f 709/690/3 657/692/3 658/695/3 710/693/3
f 687/694/3 710/693/3 711/696/3 686/697/3
f 710/693/3 658/695/3 659/698/3 711/696/3
f 686/697/3 711/696/3 712/699/3 685/700/3
f 711/696/4 659/698/4 660/701/4 712/699/4
f 685/700/3 712/699/3 662/702/3 684/703/3
f 661/704/3 662/702/3 713/705/3
f 684/703/3 662/702/3 714/706/3 683/707/3
f 683/707/4 714/706/4 715/708/4 682/709/4
f 682/709/3 715/708/3 716/710/3 681/711/3
f 681/711/3 716/710/3 717/712/3 680/713/3
f 649/714/3 719/715/3 691/637/3 648/636/3
f 719/715/3 678/716/3 663/640/3 691/637/3
f 679/717/3 680/713/3 717/712/3 720/718/3
f 677/719/3 679/717/3 720/718/3 676/720/3
f 650/449/3 651/448/3 678/716/3 719/715/3
f 718/450/3 650/449/3 719/715/3 649/714/3
f 716/710/7 715/708/7 714/706/7 676/720/7 720/718/7 717/712/7
f 662/702/3 712/699/3 660/701/3 713/705/3
g luna_main_Circle_tyl
usemtl tyl
f 298/287/8 666/647/8 665/644/8 297/284/8
f 103/138/9 469/498/9 468/495/9 129/135/9
f 299/290/10 667/650/10 666/647/10 298/287/10
f 104/141/11 470/501/11 469/498/11 103/138/11
f 300/293/12 668/653/12 667/650/12 299/290/12
f 105/144/13 471/504/13 470/501/13 104/141/13
f 301/296/14 669/656/14 668/653/14 300/293/14
f 106/147/15 472/507/15 471/504/15 105/144/15
f 302/299/16 670/659/16 669/656/16 301/296/16
f 107/150/17 473/510/17 472/507/17 106/147/17
f 303/302/18 671/662/18 670/659/18 302/299/18
f 108/153/19 474/513/19 473/510/19 107/150/19
f 304/305/20 672/665/20 671/662/20 303/302/20
f 109/156/21 475/516/21 474/513/21 108/153/21
f 305/308/22 673/668/22 672/665/22 304/305/22
f 110/159/23 476/519/23 475/516/23 109/156/23
f 358/356/2 678/716/2 651/448/2 309/89/2
f 306/311/24 674/671/24 673/668/24 305/308/24
f 111/162/25 477/522/25 476/519/25 110/159/25
f 307/314/26 675/674/26 674/671/26 306/311/26
f 112/165/27 478/525/27 477/522/27 111/162/27
f 308/317/28 652/677/28 675/674/28 307/314/28
f 113/168/29 479/528/29 478/525/29 112/165/29
f 114/171/30 480/531/30 479/528/30 113/168/30
f 353/360/2 676/720/2 714/706/2 349/347/2
f 295/281/2 663/640/2 678/716/2 358/356/2
f 115/174/31 481/534/31 480/531/31 114/171/31
f 360/345/2 713/705/2 660/701/2 293/341/2
f 117/98/2 483/459/2 482/458/2 116/99/2
f 118/102/32 484/462/32 483/459/32 117/98/32
f 119/105/33 485/465/33 484/462/33 118/102/33
f 120/108/34 486/468/34 485/465/34 119/105/34
f 121/111/35 487/471/35 486/468/35 120/108/35
f 122/114/36 488/474/36 487/471/36 121/111/36
f 123/117/37 489/477/37 488/474/37 122/114/37
f 124/120/38 490/480/38 489/477/38 123/117/38
f 125/123/39 491/483/39 490/480/39 124/120/39
f 126/126/40 492/486/40 491/483/40 125/123/40
f 175/180/2 495/540/2 481/534/2 115/174/2
f 127/129/41 493/489/41 492/486/41 126/126/41
f 128/132/42 494/492/42 493/489/42 127/129/42
f 129/135/43 468/495/43 494/492/43 128/132/43
f 41/92/44 496/452/44 495/540/44 175/180/44
f 116/99/2 482/458/2 497/537/2 179/177/2
f 179/177/2 497/537/2 467/542/2 130/182/2
f 194/228/9 561/588/9 560/585/9 220/225/9
f 195/231/11 562/591/11 561/588/11 194/228/11
f 196/234/13 563/594/13 562/591/13 195/231/13
f 197/237/15 564/597/15 563/594/15 196/234/15
f 198/240/17 565/600/17 564/597/17 197/237/17
f 199/243/19 566/603/19 565/600/19 198/240/19
f 200/246/21 567/606/21 566/603/21 199/243/21
f 201/249/23 568/609/23 567/606/23 200/246/23
f 202/252/25 569/612/25 568/609/25 201/249/25
f 203/255/27 570/615/27 569/612/27 202/252/27
f 204/258/29 571/618/29 570/615/29 203/255/29
f 205/261/30 572/621/30 571/618/30 204/258/30
f 206/264/31 573/624/31 572/621/31 205/261/31
f 208/188/2 575/549/2 574/548/2 207/189/2
f 209/192/32 576/552/32 575/549/32 208/188/32
f 210/195/33 577/555/33 576/552/33 209/192/33
f 211/198/45 578/558/45 577/555/45 210/195/45
f 14/45/9 379/405/9 378/402/9 40/42/9
f 212/201/35 579/561/35 578/558/35 211/198/35
f 15/48/11 380/408/11 379/405/11 14/45/11
f 213/204/36 580/564/36 579/561/36 212/201/36
f 16/51/13 381/411/13 380/408/13 15/48/13
f 214/207/37 581/567/37 580/564/37 213/204/37
f 17/54/15 382/414/15 381/411/15 16/51/15
f 215/210/38 582/570/38 581/567/38 214/207/38
f 18/57/17 383/417/17 382/414/17 17/54/17
f 216/213/39 583/573/39 582/570/39 215/210/39
f 19/60/19 384/420/19 383/417/19 18/57/19
f 265/270/2 587/630/2 573/624/2 206/264/2
f 217/216/40 584/576/40 583/573/40 216/213/40
f 20/63/21 385/423/21 384/420/21 19/60/21
f 218/219/41 585/579/41 584/576/41 217/216/41
f 21/66/23 386/426/23 385/423/23 20/63/23
f 219/222/42 586/582/42 585/579/42 218/219/42
f 22/69/25 387/429/25 386/426/25 21/66/25
f 220/225/43 560/585/43 586/582/43 219/222/43
f 23/72/27 388/432/27 387/429/27 22/69/27
f 130/182/46 467/542/46 587/630/46 265/270/46
f 24/75/29 389/435/29 388/432/29 23/72/29
f 269/267/2 588/627/2 559/632/2 221/272/2
f 207/189/2 574/548/2 588/627/2 269/267/2
f 25/78/30 390/438/30 389/435/30 24/75/30
f 26/81/31 391/441/31 390/438/31 25/78/31
f 28/5/2 393/366/2 392/365/2 27/6/2
f 29/9/32 394/369/32 393/366/32 28/5/32
f 30/12/33 395/372/33 394/369/33 29/9/33
f 221/272/2 559/632/2 632/635/2 271/274/2
f 31/15/45 396/375/45 395/372/45 30/12/45
f 32/18/35 397/378/35 396/375/35 31/15/35
f 33/21/36 398/381/36 397/378/36 32/18/36
f 34/24/37 399/384/37 398/381/37 33/21/37
f 84/87/2 405/447/2 391/441/2 26/81/2
f 35/27/38 400/387/38 399/384/38 34/24/38
f 36/30/39 401/390/39 400/387/39 35/27/39
f 37/33/40 402/393/40 401/390/40 36/30/40
f 38/36/41 403/396/41 402/393/41 37/33/41
f 39/39/42 404/399/42 403/396/42 38/36/42
f 88/84/44 406/444/44 496/452/44 41/92/44
f 40/42/43 378/402/43 404/399/43 39/39/43
f 309/89/46 651/448/46 405/447/46 84/87/46
f 27/6/2 392/365/2 406/444/2 88/84/2
f 286/320/47 653/680/47 652/677/47 308/317/47
f 287/323/48 654/683/48 653/680/48 286/320/48
f 288/326/49 655/686/49 654/683/49 287/323/49
f 294/344/2 661/704/2 713/705/2 360/345/2
f 289/329/50 656/689/50 655/686/50 288/326/50
f 290/332/51 657/692/51 656/689/51 289/329/51
f 349/347/2 714/706/2 662/702/2 348/343/2
f 291/335/52 658/695/52 657/692/52 290/332/52
f 292/338/53 659/698/53 658/695/53 291/335/53
f 293/341/54 660/701/54 659/698/54 292/338/54
f 348/343/55 662/702/55 661/704/55 294/344/55
f 296/280/2 664/641/2 663/640/2 295/281/2
f 297/284/56 665/644/56 664/641/56 296/280/56
g luna_main_Circle_front
usemtl front
f 4/34/57 366/395/57 364/398/57 56/37/57
f 311/352/58 680/713/58 679/717/58 355/357/58
f 285/90/59 718/450/59 649/714/59 357/354/59
f 310/359/55 677/719/55 676/720/55 353/360/55
f 355/357/60 679/717/60 677/719/60 310/359/60
f 312/350/61 681/711/61 680/713/61 311/352/61
f 313/348/62 682/709/62 681/711/62 312/350/62
f 85/85/60 446/445/60 718/450/60 285/90/60
f 314/346/63 683/707/63 682/709/63 313/348/63
f 315/342/64 684/703/64 683/707/64 314/346/64
f 316/339/65 685/700/65 684/703/65 315/342/65
f 317/336/66 686/697/66 685/700/66 316/339/66
f 318/333/67 687/694/67 686/697/67 317/336/67
f 176/178/60 540/538/60 447/453/60 13/93/60
f 319/330/68 688/691/68 687/694/68 318/333/68
f 266/268/60 630/628/60 537/543/60 102/183/60
f 320/327/69 689/688/69 688/691/69 319/330/69
f 321/324/70 690/685/70 689/688/70 320/327/70
f 273/321/71 633/682/71 690/685/71 321/324/71
f 131/172/58 498/533/58 540/538/58 176/178/58
f 282/282/72 646/643/72 645/646/72 322/285/72
f 281/288/73 644/649/73 643/652/73 323/291/73
f 279/297/74 641/658/74 640/661/74 324/300/74
f 276/309/57 637/670/57 636/673/57 325/312/57
f 102/183/59 537/543/59 465/535/59 178/175/59
f 132/169/61 499/530/61 498/533/61 131/172/61
f 133/166/62 500/527/62 499/530/62 132/169/62
f 134/163/63 501/524/63 500/527/63 133/166/63
f 135/160/64 502/521/64 501/524/64 134/163/64
f 136/157/65 503/518/65 502/521/65 135/160/65
f 182/226/75 542/587/75 541/590/75 181/229/75
f 137/154/66 504/515/66 503/518/66 136/157/66
f 183/223/76 543/584/76 542/587/76 182/226/76
f 138/151/67 505/512/67 504/515/67 137/154/67
f 236/220/77 544/581/77 543/584/77 183/223/77
f 139/148/68 506/509/68 505/512/68 138/151/68
f 185/214/78 546/575/78 545/578/78 184/217/78
f 140/145/69 507/506/69 506/509/69 139/148/69
f 186/211/79 547/572/79 546/575/79 185/214/79
f 141/142/70 508/503/70 507/506/70 140/145/70
f 235/208/80 548/569/80 547/572/80 186/211/80
f 90/139/71 449/500/71 508/503/71 141/142/71
f 188/202/81 550/563/81 549/566/81 187/205/81
f 99/100/72 462/461/72 461/464/72 142/103/72
f 234/199/82 551/560/82 550/563/82 188/202/82
f 98/106/73 460/467/73 459/470/73 143/109/73
f 233/193/83 553/554/83 552/557/83 189/196/83
f 96/115/74 457/476/74 456/479/74 144/118/74
f 191/185/84 555/547/84 554/551/84 190/190/84
f 93/127/57 453/488/57 452/491/57 145/130/57
f 192/184/85 556/544/85 555/547/85 191/185/85
f 268/265/86 557/625/86 556/544/86 192/184/86
f 2/43/75 361/404/75 362/407/75 1/46/75
f 3/40/76 363/401/76 361/404/76 2/43/76
f 56/37/77 364/398/77 363/401/77 3/40/77
f 5/31/78 365/392/78 366/395/78 4/34/78
f 6/28/79 367/389/79 365/392/79 5/31/79
f 55/25/80 368/386/80 367/389/80 6/28/80
f 8/19/81 369/380/81 370/383/81 7/22/81
f 54/16/82 371/377/82 369/380/82 8/19/82
f 53/10/83 372/371/83 373/374/83 9/13/83
f 11/2/84 374/364/84 375/368/84 10/7/84
f 12/1/85 376/361/85 374/364/85 11/2/85
f 87/82/86 377/442/86 376/361/86 12/1/86
f 264/271/87 558/631/87 627/633/87 193/273/87
f 222/262/58 589/623/58 630/628/58 266/268/58
f 193/273/59 627/633/59 557/625/59 268/265/59
f 223/259/61 590/620/61 589/623/61 222/262/61
f 224/256/62 591/617/62 590/620/62 223/259/62
f 225/253/63 592/614/63 591/617/63 224/256/63
f 271/274/87 632/635/87 631/634/87 272/275/87
f 226/250/64 593/611/64 592/614/64 225/253/64
f 227/247/65 594/608/65 593/611/65 226/250/65
f 272/275/7 631/634/7 558/631/7 264/271/7
f 228/244/66 595/605/66 594/608/66 227/247/66
f 274/318/75 634/679/75 633/682/75 273/321/75
f 229/241/67 596/602/67 595/605/67 228/244/67
f 275/315/76 635/676/76 634/679/76 274/318/76
f 230/238/68 597/599/68 596/602/68 229/241/68
f 325/312/77 636/673/77 635/676/77 275/315/77
f 231/235/69 598/596/69 597/599/69 230/238/69
f 277/306/78 638/667/78 637/670/78 276/309/78
f 232/232/70 599/593/70 598/596/70 231/235/70
f 42/79/58 408/440/58 446/445/58 85/85/58
f 278/303/79 639/664/79 638/667/79 277/306/79
f 181/229/71 541/590/71 599/593/71 232/232/71
f 324/300/80 640/661/80 639/664/80 278/303/80
f 190/190/88 554/551/88 553/554/88 233/193/88
f 280/294/81 642/655/81 641/658/81 279/297/81
f 189/196/73 552/557/73 551/560/73 234/199/73
f 13/93/59 447/453/59 377/442/59 87/82/59
f 323/291/82 643/652/82 642/655/82 280/294/82
f 187/205/74 549/566/74 548/569/74 235/208/74
f 322/285/83 645/646/83 644/649/83 281/288/83
f 184/217/57 545/578/57 544/581/57 236/220/57
f 283/277/84 647/639/84 646/643/84 282/282/84
f 284/276/85 648/636/85 647/639/85 283/277/85
f 43/76/61 407/437/61 408/440/61 42/79/61
f 357/354/86 649/714/86 648/636/86 284/276/86
f 91/136/75 450/497/75 449/500/75 90/139/75
f 44/73/62 409/434/62 407/437/62 43/76/62
f 92/133/76 451/494/76 450/497/76 91/136/76
f 45/70/63 410/431/63 409/434/63 44/73/63
f 145/130/77 452/491/77 451/494/77 92/133/77
f 46/67/64 411/428/64 410/431/64 45/70/64
f 94/124/78 454/485/78 453/488/78 93/127/78
f 47/64/65 412/425/65 411/428/65 46/67/65
f 95/121/79 455/482/79 454/485/79 94/124/79
f 48/61/66 413/422/66 412/425/66 47/64/66
f 144/118/80 456/479/80 455/482/80 95/121/80
f 49/58/67 414/419/67 413/422/67 48/61/67
f 97/112/81 458/473/81 457/476/81 96/115/81
f 50/55/68 415/416/68 414/419/68 49/58/68
f 143/109/82 459/470/82 458/473/82 97/112/82
f 51/52/69 416/413/69 415/416/69 50/55/69
f 142/103/83 461/464/83 460/467/83 98/106/83
f 52/49/70 417/410/70 416/413/70 51/52/70
f 100/95/84 463/457/84 462/461/84 99/100/84
f 1/46/71 362/407/71 417/410/71 52/49/71
f 101/94/85 464/454/85 463/457/85 100/95/85
f 10/7/72 375/368/72 372/371/72 53/10/72
f 178/175/89 465/535/89 464/454/89 101/94/89
f 9/13/73 373/374/73 371/377/73 54/16/73
f 7/22/74 370/383/74 368/386/74 55/25/74
