# Blender v3.2.0 OBJ File: 'panele.blend'
# www.blender.org
mtllib luna_end1.mtl
o luna_end1_Circle.002
v -0.117929 0.000000 0.037329
v -0.100217 0.000000 0.021542
v -0.101473 0.000000 0.021410
v -0.102735 0.000000 0.021364
v -0.105252 0.000000 0.021545
v -0.106494 0.000000 0.021769
v -0.107718 0.000000 0.022072
v -0.110088 0.000000 0.022925
v -0.111218 0.000000 0.023480
v -0.113347 0.000000 0.024815
v -0.115277 0.000000 0.026418
v -0.116113 0.000000 0.027200
v -0.116982 0.000000 0.028122
v -0.117929 0.000000 0.029311
v -0.104163 0.000000 0.031137
v -0.103151 0.000000 0.031299
v -0.102149 0.000000 0.031607
v -0.101173 0.000000 0.032166
v -0.100240 0.000000 0.033127
v -0.099393 0.000000 0.034498
v -0.098662 0.000000 0.036050
v -0.097885 0.000000 0.037338
v -0.092909 0.000000 0.037338
v -0.116891 0.000000 0.037338
v -0.115641 0.000000 0.037338
v -0.114551 0.000000 0.037265
v -0.113750 0.000000 0.036560
v -0.113106 0.000000 0.035641
v -0.112432 0.000000 0.034738
v -0.111700 0.000000 0.033904
v -0.110891 0.000000 0.033174
v -0.110017 0.000000 0.032551
v -0.109102 0.000000 0.032029
v -0.108154 0.000000 0.031613
v -0.107175 0.000000 0.031312
v -0.106176 0.000000 0.031135
v -0.105171 0.000000 0.031081
v -0.117929 0.000000 0.037338
v -0.087329 0.000000 0.028659
v -0.088489 0.000000 0.028239
v -0.089408 0.000000 0.027395
v -0.090226 0.000000 0.026443
v -0.091110 0.000000 0.025554
v -0.092097 0.000000 0.024779
v -0.093156 0.000000 0.024099
v -0.094253 0.000000 0.023484
v -0.095384 0.000000 0.022930
v -0.096550 0.000000 0.022452
v -0.097749 0.000000 0.022061
v -0.098974 0.000000 0.021759
v -0.114338 0.000000 0.025587
v -0.112306 0.000000 0.024111
v -0.108919 0.000000 0.022455
v -0.103997 0.000000 0.021408
v -0.116891 0.000000 0.033029
v -0.115680 0.000000 0.032745
v -0.114718 0.000000 0.031965
v -0.113919 0.000000 0.031016
v -0.113052 0.000000 0.030128
v -0.112088 0.000000 0.029342
v -0.111059 0.000000 0.028641
v -0.109978 0.000000 0.028022
v -0.108851 0.000000 0.027486
v -0.107684 0.000000 0.027043
v -0.106480 0.000000 0.026706
v -0.105251 0.000000 0.026478
v -0.104007 0.000000 0.026344
v -0.102757 0.000000 0.026296
v -0.101507 0.000000 0.026341
v -0.100265 0.000000 0.026488
v -0.099040 0.000000 0.026736
v -0.097840 0.000000 0.027414
v -0.096679 0.000000 0.028181
v -0.095566 0.000000 0.029092
v -0.094511 0.000000 0.030211
v -0.093530 0.000000 0.031453
v -0.092909 0.000000 0.031718
v -0.091613 0.000000 0.031718
v -0.090774 0.000000 0.031718
v -0.089788 0.000000 0.031718
v -0.088555 0.000000 0.031718
v -0.087329 0.000000 0.031718
v -0.117929 0.000000 0.032968
v -0.087909 0.000000 0.028610
v -0.087942 0.000000 0.031718
v -0.117562 0.000000 0.028714
v -0.117517 0.000000 0.037338
v -0.117517 0.000000 0.032998
v -0.095389 0.000000 0.037338
v -0.100217 2.700000 0.021542
v -0.101473 2.700000 0.021410
v -0.102735 2.700000 0.021364
v -0.103997 2.700000 0.021408
v -0.105252 2.700000 0.021545
v -0.106494 2.700000 0.021769
v -0.107718 2.700000 0.022072
v -0.108919 2.700000 0.022455
v -0.110088 2.700000 0.022925
v -0.111218 2.700000 0.023480
v -0.112306 2.700000 0.024111
v -0.113347 2.700000 0.024815
v -0.114338 2.700000 0.025587
v -0.115277 2.700000 0.026418
v -0.116113 2.700000 0.027200
v -0.116982 2.700000 0.028122
v -0.117562 2.700000 0.028714
v -0.117929 2.700000 0.032968
v -0.117929 2.700000 0.037338
v -0.105171 2.700000 0.031081
v -0.104163 2.700000 0.031137
v -0.103151 2.700000 0.031299
v -0.102149 2.700000 0.031607
v -0.101173 2.700000 0.032166
v -0.100240 2.700000 0.033127
v -0.099393 2.700000 0.034498
v -0.098662 2.700000 0.036050
v -0.097885 2.700000 0.037338
v -0.092909 2.700000 0.037338
v -0.092909 2.700000 0.031718
v -0.116891 2.700000 0.037338
v -0.115641 2.700000 0.037338
v -0.114551 2.700000 0.037265
v -0.113750 2.700000 0.036560
v -0.113106 2.700000 0.035641
v -0.112432 2.700000 0.034738
v -0.111700 2.700000 0.033904
v -0.110891 2.700000 0.033174
v -0.110017 2.700000 0.032551
v -0.109102 2.700000 0.032029
v -0.108154 2.700000 0.031613
v -0.107175 2.700000 0.031312
v -0.106176 2.700000 0.031135
v -0.087329 2.700000 0.031718
v -0.087329 2.700000 0.028659
v -0.117517 2.700000 0.037338
v -0.087909 2.700000 0.028610
v -0.088489 2.700000 0.028239
v -0.089408 2.700000 0.027395
v -0.090226 2.700000 0.026443
v -0.091110 2.700000 0.025554
v -0.092097 2.700000 0.024779
v -0.093156 2.700000 0.024099
v -0.094253 2.700000 0.023484
v -0.095384 2.700000 0.022930
v -0.096550 2.700000 0.022452
v -0.097749 2.700000 0.022061
v -0.098974 2.700000 0.021759
v -0.116891 2.700000 0.033029
v -0.115680 2.700000 0.032745
v -0.114718 2.700000 0.031965
v -0.113919 2.700000 0.031016
v -0.113052 2.700000 0.030128
v -0.112088 2.700000 0.029342
v -0.111059 2.700000 0.028641
v -0.109978 2.700000 0.028022
v -0.108851 2.700000 0.027486
v -0.107684 2.700000 0.027043
v -0.106480 2.700000 0.026706
v -0.105251 2.700000 0.026478
v -0.104007 2.700000 0.026344
v -0.102757 2.700000 0.026296
v -0.101507 2.700000 0.026341
v -0.100265 2.700000 0.026488
v -0.099040 2.700000 0.026736
v -0.097840 2.700000 0.027414
v -0.096679 2.700000 0.028181
v -0.095566 2.700000 0.029092
v -0.094511 2.700000 0.030211
v -0.093530 2.700000 0.031453
v -0.095389 2.700000 0.037338
v -0.091613 2.700000 0.031718
v -0.090774 2.700000 0.031718
v -0.089788 2.700000 0.031718
v -0.088555 2.700000 0.031718
v -0.117929 2.700000 0.029311
v -0.117517 2.700000 0.032998
v -0.087942 2.700000 0.031718
v -0.117929 2.700000 0.037329
vt 0.000000 0.000000
vt 0.000000 0.000000
vt 0.000000 0.000000
vt 0.000000 0.000000
vt 0.000000 0.000000
vt 0.000000 0.000000
vt 0.000000 0.000000
vt 0.000000 0.000000
vt 0.000000 0.000000
vt 0.000000 0.000000
vt 0.000000 0.000000
vt 0.000000 0.000000
vt 0.000000 0.000000
vt 0.000000 0.000000
vt 0.000000 0.000000
vt 0.000000 0.000000
vt 0.000000 0.000000
vt 0.000000 0.000000
vt 0.000000 0.000000
vt 0.000000 0.000000
vt 0.000000 0.000000
vt 0.000000 0.000000
vt 0.000000 0.000000
vt 0.000000 0.000000
vt 0.000000 0.000000
vt 0.000000 0.000000
vt 0.000000 0.000000
vt 0.000000 0.000000
vt 0.000000 0.000000
vt 0.000000 0.000000
vt 0.000000 0.000000
vt 0.000000 0.000000
vt 0.000000 0.000000
vt 0.000000 0.000000
vt 0.000000 0.000000
vt 0.000000 0.000000
vt 0.000000 0.000000
vt 0.000000 0.000000
vt 0.000000 0.000000
vt 0.000000 0.000000
vt 0.000000 0.000000
vt 0.000000 0.000000
vt 0.000000 0.000000
vt 0.000000 0.000000
vt 0.000000 0.000000
vt 0.000000 0.000000
vt 0.000000 0.000000
vt 0.000000 0.000000
vt 0.000000 0.000000
vt 0.000000 0.000000
vt 0.000000 0.000000
vt 0.000000 0.000000
vt 0.000000 0.000000
vt 0.000000 0.000000
vt 0.000000 0.000000
vt 0.000000 0.000000
vt 0.000000 0.000000
vt 0.000000 0.000000
vt 0.000000 0.000000
vt 0.000000 0.000000
vt 0.000000 0.000000
vt 0.000000 0.000000
vt 0.000000 0.000000
vt 0.000000 0.000000
vt 0.000000 0.000000
vt 0.000000 0.000000
vt 0.000000 0.000000
vt 0.000000 0.000000
vt 0.000000 0.000000
vt 0.000000 0.000000
vt 0.000000 0.000000
vt 0.000000 0.000000
vt 0.000000 0.000000
vt 0.000000 0.000000
vt 0.000000 0.000000
vt 0.000000 0.000000
vt 0.000000 0.000000
vt 0.000000 0.000000
vt 0.000000 0.000000
vt 0.000000 0.000000
vt 0.000000 0.000000
vt 0.000000 0.000000
vt 0.000000 0.000000
vt 0.000000 0.000000
vt 0.000000 0.000000
vt 0.000000 0.000000
vt 0.000000 0.000000
vt 0.000000 0.000000
vt 0.000000 0.000000
vt 0.000000 0.000000
vt 0.000000 0.000000
vt 0.000000 0.000000
vt 0.000000 0.000000
vt 0.000000 0.000000
vt 0.000000 0.000000
vt 0.000000 0.000000
vt 0.000000 0.000000
vt 0.000000 0.000000
vt 0.000000 0.000000
vt 0.000000 0.000000
vt 0.000000 0.000000
vt 0.000000 0.000000
vt 0.000000 0.000000
vt 0.000000 0.000000
vt 0.000000 0.000000
vt 0.000000 0.000000
vt 0.000000 0.000000
vt 0.000000 0.000000
vt 0.000000 0.000000
vt 0.000000 0.000000
vt 0.000000 0.000000
vt 0.000000 0.000000
vt 0.000000 0.000000
vt 0.000000 0.000000
vt 0.000000 0.000000
vt 0.000000 0.000000
vt 0.000000 0.000000
vt 0.000000 0.000000
vt 0.000000 0.000000
vt 0.000000 0.000000
vt 0.000000 0.000000
vt 0.000000 0.000000
vt 0.000000 0.000000
vt 0.000000 0.000000
vt 0.000000 0.000000
vt 0.000000 0.000000
vt 0.000000 0.000000
vt 0.000000 0.000000
vt 0.000000 0.000000
vt 0.000000 0.000000
vt 0.000000 0.000000
vt 0.000000 0.000000
vt 0.000000 0.000000
vt 0.000000 0.000000
vt 0.000000 0.000000
vt 0.000000 0.000000
vt 0.000000 0.000000
vt 0.000000 0.000000
vt 0.000000 0.000000
vt 0.000000 0.000000
vt 0.000000 0.000000
vt 0.000000 0.000000
vt 0.000000 0.000000
vt 0.000000 0.000000
vt 0.000000 0.000000
vt 0.000000 0.000000
vt 0.000000 0.000000
vt 0.000000 0.000000
vt 0.000000 0.000000
vt 0.000000 0.000000
vt 0.000000 0.000000
vt 0.000000 0.000000
vt 0.000000 0.000000
vt 0.000000 0.000000
vt 0.000000 0.000000
vt 0.000000 0.000000
vt 0.000000 0.000000
vt 0.000000 0.000000
vt 0.000000 0.000000
vt 0.000000 0.000000
vt 0.000000 0.000000
vt 0.000000 0.000000
vt 0.000000 0.000000
vt 0.000000 0.000000
vt 0.000000 0.000000
vt 0.000000 0.000000
vt 0.000000 0.000000
vt 0.000000 0.000000
vt 0.000000 0.000000
vt 0.000000 0.000000
vt 0.000000 0.000000
vt 0.000000 0.000000
vt 0.000000 0.000000
vt 0.000000 0.000000
vt 0.000000 0.000000
vt 0.000000 0.000000
vt 0.000000 0.000000
vt 0.000000 0.000000
vn 0.0000 -1.0000 0.0000
vn 0.0000 0.0000 1.0000
vn 0.0000 1.0000 0.0000
vn 0.0000 1.0000 -0.0001
vn 0.0000 1.0000 0.0001
vn 0.0000 0.0000 -1.0000
vn 0.0539 0.0000 0.9985
vn -0.0555 0.0000 0.9985
vn -0.1580 0.0000 0.9874
vn -0.2937 0.0000 0.9559
vn -0.4969 0.0000 0.8678
vn -0.7176 0.0000 0.6964
vn -0.8508 0.0000 0.5254
vn -0.9045 0.0000 0.4265
vn -0.8563 0.0000 0.5165
vn 1.0000 0.0000 0.0000
vn 0.0660 0.0000 0.9978
vn 0.6609 0.0000 0.7504
vn 0.8187 0.0000 0.5742
vn 0.8017 0.0000 0.5978
vn 0.7518 0.0000 0.6594
vn 0.6697 0.0000 0.7426
vn 0.5807 0.0000 0.8141
vn 0.4954 0.0000 0.8687
vn 0.4019 0.0000 0.9157
vn 0.2934 0.0000 0.9560
vn 0.1744 0.0000 0.9847
vn -0.6146 0.0000 -0.7889
vn -0.6834 0.0000 -0.7300
vn -0.7274 0.0000 -0.6862
vn 0.0851 0.0000 -0.9964
vn -0.7148 0.0000 -0.6994
vn 0.6763 0.0000 -0.7366
vn -1.0000 0.0000 0.0000
vn 0.7583 0.0000 -0.6519
vn 0.7092 0.0000 -0.7050
vn 0.6175 0.0000 -0.7866
vn 0.5401 0.0000 -0.8416
vn 0.4894 0.0000 -0.8721
vn 0.4398 0.0000 -0.8981
vn 0.3791 0.0000 -0.9254
vn 0.3101 0.0000 -0.9507
vn 0.2398 0.0000 -0.9708
vn 0.1718 0.0000 -0.9851
vn -0.6625 0.0000 -0.7490
vn -0.5605 0.0000 -0.8282
vn -0.3733 0.0000 -0.9277
vn -0.1084 0.0000 -0.9941
vn 0.1047 0.0000 -0.9945
vn 0.5386 0.0000 -0.8425
vn 0.0364 0.0000 -0.9993
vn -0.0350 0.0000 -0.9994
vn -0.1777 0.0000 -0.9841
vn -0.8515 0.0000 -0.5244
vn -0.2401 0.0000 -0.9708
vn -0.3036 0.0000 -0.9528
vn -0.4412 0.0000 -0.8974
vn -0.5013 0.0000 -0.8653
g luna_end1_Circle.002_gora_dol
usemtl gora_dol
s off
f 13/1/1 12/2/1 56/3/1 55/4/1
f 55/4/1 56/3/1 25/5/1 24/6/1
f 12/2/1 11/7/1 57/8/1 56/3/1
f 56/3/1 57/8/1 26/9/1 25/5/1
f 11/7/1 51/10/1 58/11/1 57/8/1
f 57/8/1 58/11/1 27/12/1 26/9/1
f 51/10/1 10/13/1 59/14/1 58/11/1
f 58/11/1 59/14/1 28/15/1 27/12/1
f 10/13/1 52/16/1 60/17/1 59/14/1
f 59/14/1 60/17/1 29/18/1 28/15/1
f 52/16/1 9/19/1 61/20/1 60/17/1
f 60/17/1 61/20/1 30/21/1 29/18/1
f 9/19/1 8/22/1 62/23/1 61/20/1
f 61/20/1 62/23/1 31/24/1 30/21/1
f 8/22/1 53/25/1 63/26/1 62/23/1
f 62/23/1 63/26/1 32/27/1 31/24/1
f 53/25/1 7/28/1 64/29/1 63/26/1
f 63/26/1 64/29/1 33/30/1 32/27/1
f 7/28/1 6/31/1 65/32/1 64/29/1
f 64/29/1 65/32/1 34/33/1 33/30/1
f 6/31/1 5/34/1 66/35/1 65/32/1
f 65/32/1 66/35/1 35/36/1 34/33/1
f 5/34/1 54/37/1 67/38/1 66/35/1
f 66/35/1 67/38/1 36/39/1 35/36/1
f 54/37/1 4/40/1 68/41/1 67/38/1
f 67/38/1 68/41/1 37/42/1 36/39/1
f 4/40/1 3/43/1 69/44/1 68/41/1
f 68/41/1 69/44/1 15/45/1 37/42/1
f 3/43/1 2/46/1 70/47/1 69/44/1
f 69/44/1 70/47/1 16/48/1 15/45/1
f 2/46/1 50/49/1 71/50/1 70/47/1
f 70/47/1 71/50/1 17/51/1 16/48/1
f 50/49/1 49/52/1 72/53/1 71/50/1
f 71/50/1 72/53/1 18/54/1 17/51/1
f 49/52/1 48/55/1 73/56/1 72/53/1
f 72/53/1 73/56/1 19/57/1 18/54/1
f 48/55/1 47/58/1 74/59/1 73/56/1
f 73/56/1 74/59/1 20/60/1 19/57/1
f 47/58/1 46/61/1 75/62/1 74/59/1
f 74/59/1 75/62/1 21/63/1 20/60/1
f 46/61/1 45/64/1 76/65/1 75/62/1
f 75/62/1 76/65/1 22/66/1 21/63/1
f 45/64/1 44/67/1 77/68/1 76/65/1
f 23/69/1 89/70/1 77/68/1
f 44/67/1 43/71/1 78/72/1 77/68/1
f 43/71/1 42/73/1 79/74/1 78/72/1
f 42/73/1 41/75/1 80/76/1 79/74/1
f 41/75/1 40/77/1 81/78/1 80/76/1
f 86/79/1 13/1/1 55/4/1 88/80/1
f 88/80/1 55/4/1 24/6/1 87/81/1
f 84/82/1 85/83/1 81/78/1 40/77/1
f 39/84/1 82/85/1 85/83/1 84/82/1
f 83/86/1 88/80/1 87/81/1 38/87/1
f 14/88/1 86/79/1 88/80/1 83/86/1
f 80/76/2 81/78/2 85/83/2 82/85/2 78/72/2 79/74/2
f 77/68/1 89/70/1 22/66/1 76/65/1
f 105/89/3 148/90/3 149/91/3 104/92/3
f 148/90/3 120/93/3 121/94/3 149/91/3
f 104/92/3 149/91/3 150/95/3 103/96/3
f 149/91/3 121/94/3 122/97/3 150/95/3
f 103/96/3 150/95/3 151/98/3 102/99/3
f 150/95/3 122/97/3 123/100/3 151/98/3
f 102/99/3 151/98/3 152/101/3 101/102/3
f 151/98/3 123/100/3 124/103/3 152/101/3
f 101/102/3 152/101/3 153/104/3 100/105/3
f 152/101/3 124/103/3 125/106/3 153/104/3
f 100/105/3 153/104/3 154/107/3 99/108/3
f 153/104/3 125/106/3 126/109/3 154/107/3
f 99/108/3 154/107/3 155/110/3 98/111/3
f 154/107/3 126/109/3 127/112/3 155/110/3
f 98/111/3 155/110/3 156/113/3 97/114/3
f 155/110/3 127/112/3 128/115/3 156/113/3
f 97/114/3 156/113/3 157/116/3 96/117/3
f 156/113/4 128/115/4 129/118/4 157/116/4
f 96/117/3 157/116/3 158/119/3 95/120/3
f 157/116/3 129/118/3 130/121/3 158/119/3
f 95/120/3 158/119/3 159/122/3 94/123/3
f 158/119/4 130/121/4 131/124/4 159/122/4
f 94/123/3 159/122/3 160/125/3 93/126/3
f 159/122/3 131/124/3 132/127/3 160/125/3
f 93/126/3 160/125/3 161/128/3 92/129/3
f 160/125/3 132/127/3 109/130/3 161/128/3
f 92/129/3 161/128/3 162/131/3 91/132/3
f 161/128/4 109/130/4 110/133/4 162/131/4
f 91/132/3 162/131/3 163/134/3 90/135/3
f 162/131/3 110/133/3 111/136/3 163/134/3
f 90/135/3 163/134/3 164/137/3 147/138/3
f 163/134/4 111/136/4 112/139/4 164/137/4
f 147/138/3 164/137/3 165/140/3 146/141/3
f 164/137/5 112/139/5 113/142/5 165/140/5
f 146/141/3 165/140/3 166/143/3 145/144/3
f 165/140/3 113/142/3 114/145/3 166/143/3
f 145/144/3 166/143/3 167/146/3 144/147/3
f 166/143/3 114/145/3 115/148/3 167/146/3
f 144/147/3 167/146/3 168/149/3 143/150/3
f 167/146/3 115/148/3 116/151/3 168/149/3
f 143/150/3 168/149/3 169/152/3 142/153/3
f 168/149/5 116/151/5 117/154/5 169/152/5
f 142/153/3 169/152/3 119/155/3 141/156/3
f 118/157/3 119/155/3 170/158/3
f 141/156/3 119/155/3 171/159/3 140/160/3
f 140/160/3 171/159/3 172/161/3 139/162/3
f 139/162/3 172/161/3 173/163/3 138/164/3
f 138/164/3 173/163/3 174/165/3 137/166/3
f 106/167/3 176/168/3 148/90/3 105/89/3
f 176/168/3 135/169/3 120/93/3 148/90/3
f 136/170/4 137/166/4 174/165/4 177/171/4
f 134/172/3 136/170/3 177/171/3 133/173/3
f 107/174/3 108/175/3 135/169/3 176/168/3
f 175/176/3 107/174/3 176/168/3 106/167/3
f 173/163/6 172/161/6 171/159/6 133/173/6 177/171/6 174/165/6
f 119/155/3 169/152/3 117/154/3 170/158/3
g luna_end1_Circle.002_tyl
usemtl tyl
f 37/42/7 109/130/7 132/127/7 36/39/7
f 82/85/2 133/173/2 171/159/2 78/72/2
f 24/6/2 120/93/2 135/169/2 87/81/2
f 89/70/2 170/158/2 117/154/2 22/66/2
f 15/45/8 110/133/8 109/130/8 37/42/8
f 16/48/9 111/136/9 110/133/9 15/45/9
f 17/51/10 112/139/10 111/136/10 16/48/10
f 23/69/2 118/157/2 170/158/2 89/70/2
f 18/54/11 113/142/11 112/139/11 17/51/11
f 19/57/12 114/145/12 113/142/12 18/54/12
f 78/72/2 171/159/2 119/155/2 77/68/2
f 20/60/13 115/148/13 114/145/13 19/57/13
f 21/63/14 116/151/14 115/148/14 20/60/14
f 22/66/15 117/154/15 116/151/15 21/63/15
f 77/68/16 119/155/16 118/157/16 23/69/16
f 25/5/2 121/94/2 120/93/2 24/6/2
f 26/9/17 122/97/17 121/94/17 25/5/17
f 27/12/18 123/100/18 122/97/18 26/9/18
f 28/15/19 124/103/19 123/100/19 27/12/19
f 29/18/20 125/106/20 124/103/20 28/15/20
f 30/21/21 126/109/21 125/106/21 29/18/21
f 31/24/22 127/112/22 126/109/22 30/21/22
f 32/27/23 128/115/23 127/112/23 31/24/23
f 33/30/24 129/118/24 128/115/24 32/27/24
f 34/33/25 130/121/25 129/118/25 33/30/25
f 87/81/2 135/169/2 108/175/2 38/87/2
f 35/36/26 131/124/26 130/121/26 34/33/26
f 36/39/27 132/127/27 131/124/27 35/36/27
g luna_end1_Circle.002_front
usemtl front
f 51/10/28 102/99/28 101/102/28 10/13/28
f 39/84/16 134/172/16 133/173/16 82/85/16
f 12/2/29 104/92/29 103/96/29 11/7/29
f 13/1/30 105/89/30 104/92/30 12/2/30
f 84/82/31 136/170/31 134/172/31 39/84/31
f 86/79/32 106/167/32 105/89/32 13/1/32
f 41/75/33 138/164/33 137/166/33 40/77/33
f 1/177/16 83/86/16 107/174/16 178/178/16
f 38/87/34 108/175/34 107/174/34 83/86/34
f 42/73/35 139/162/35 138/164/35 41/75/35
f 43/71/36 140/160/36 139/162/36 42/73/36
f 44/67/37 141/156/37 140/160/37 43/71/37
f 45/64/38 142/153/38 141/156/38 44/67/38
f 46/61/39 143/150/39 142/153/39 45/64/39
f 47/58/40 144/147/40 143/150/40 46/61/40
f 48/55/41 145/144/41 144/147/41 47/58/41
f 49/52/42 146/141/42 145/144/42 48/55/42
f 50/49/43 147/138/43 146/141/43 49/52/43
f 2/46/44 90/135/44 147/138/44 50/49/44
f 11/7/45 103/96/45 102/99/45 51/10/45
f 10/13/46 101/102/46 100/105/46 52/16/46
f 83/86/34 107/174/34 175/176/34 14/88/34
f 8/22/47 98/111/47 97/114/47 53/25/47
f 5/34/48 94/123/48 93/126/48 54/37/48
f 3/43/49 91/132/49 90/135/49 2/46/49
f 40/77/50 137/166/50 136/170/50 84/82/50
f 4/40/51 92/129/51 91/132/51 3/43/51
f 54/37/52 93/126/52 92/129/52 4/40/52
f 6/31/53 95/120/53 94/123/53 5/34/53
f 14/88/54 175/176/54 106/167/54 86/79/54
f 7/28/55 96/117/55 95/120/55 6/31/55
f 53/25/56 97/114/56 96/117/56 7/28/56
f 9/19/57 99/108/57 98/111/57 8/22/57
f 52/16/58 100/105/58 99/108/58 9/19/58
