<?xml version="1.0" encoding="utf-8"?>
<COLLADA xmlns="http://www.collada.org/2005/11/COLLADASchema" version="1.4.1" xmlns:xsi="http://www.w3.org/2001/XMLSchema-instance">
  <asset>
    <contributor>
      <author>Blender User</author>
      <authoring_tool>Blender 3.2.0 commit date:2022-06-08, commit time:10:22, hash:e05e1e369187</authoring_tool>
    </contributor>
    <created>2023-03-08T13:25:02</created>
    <modified>2023-03-08T13:25:02</modified>
    <unit name="meter" meter="1"/>
    <up_axis>Z_UP</up_axis>
  </asset>
  <library_effects>
    <effect id="gora_dol-effect">
      <profile_COMMON>
        <technique sid="common">
          <lambert>
            <emission>
              <color sid="emission">0 0 0 1</color>
            </emission>
            <diffuse>
              <color sid="diffuse">0.8 0.8 0.8 1</color>
            </diffuse>
            <index_of_refraction>
              <float sid="ior">1.45</float>
            </index_of_refraction>
          </lambert>
        </technique>
      </profile_COMMON>
    </effect>
    <effect id="tyl-effect">
      <profile_COMMON>
        <technique sid="common">
          <lambert>
            <emission>
              <color sid="emission">0 0 0 1</color>
            </emission>
            <diffuse>
              <color sid="diffuse">0.8 0.8 0.8 1</color>
            </diffuse>
            <index_of_refraction>
              <float sid="ior">1.45</float>
            </index_of_refraction>
          </lambert>
        </technique>
      </profile_COMMON>
    </effect>
    <effect id="front-effect">
      <profile_COMMON>
        <technique sid="common">
          <lambert>
            <emission>
              <color sid="emission">0 0 0 1</color>
            </emission>
            <diffuse>
              <color sid="diffuse">0.8 0.8 0.8 1</color>
            </diffuse>
            <index_of_refraction>
              <float sid="ior">1.45</float>
            </index_of_refraction>
          </lambert>
        </technique>
      </profile_COMMON>
    </effect>
  </library_effects>
  <library_images/>
  <library_materials>
    <material id="gora_dol-material" name="gora_dol">
      <instance_effect url="#gora_dol-effect"/>
    </material>
    <material id="tyl-material" name="tyl">
      <instance_effect url="#tyl-effect"/>
    </material>
    <material id="front-material" name="front">
      <instance_effect url="#front-effect"/>
    </material>
  </library_materials>
  <library_geometries>
    <geometry id="Circle_002-mesh" name="Circle.002">
      <mesh>
        <source id="Circle_002-mesh-positions">
          <float_array id="Circle_002-mesh-positions-array" count="534">-0.01373195 -0.008009672 -1.349999 0.00397998 0.00777769 -1.349999 0.002724409 0.007909893 -1.349999 0.001462519 0.007955849 -1.349999 -0.001054406 0.00777477 -1.349999 -0.002296268 0.007550477 -1.349999 -0.003520727 0.007247686 -1.349999 -0.005891025 0.006394565 -1.349999 -0.007020831 0.005839049 -1.349999 -0.009149849 0.004504263 -1.349999 -0.0110799 0.002901613 -1.349999 -0.0119152 0.00211966 -1.349999 -0.01278507 0.001197516 -1.349999 -0.01373195 8.82707e-6 -1.349999 3.38033e-5 -0.001817584 -1.349999 0.001046359 -0.001979589 -1.349999 0.002048492 -0.002287566 -1.349999 0.003024637 -0.002846539 -1.349999 0.003956735 -0.003807008 -1.349999 0.004803955 -0.005178809 -1.349999 0.005535602 -0.006730496 -1.349999 0.006312251 -0.008017957 -1.349999 0.01128792 -0.008017957 -1.349999 -0.01269406 -0.008017957 -1.349999 -0.01144355 -0.008017957 -1.349999 -0.01035332 -0.007945775 -1.349999 -0.009552896 -0.007240831 -1.349999 -0.008908212 -0.006321609 -1.349999 -0.008234798 -0.005418419 -1.349999 -0.007502913 -0.004584074 -1.349999 -0.006694018 -0.003854572 -1.349999 -0.005820155 -0.003231346 -1.349999 -0.004904866 -0.002709448 -1.349999 -0.003956854 -0.002293288 -1.349999 -0.002977788 -0.001992821 -1.349999 -0.001978397 -0.001815795 -1.349999 -9.73634e-4 -0.001761615 -1.349999 -0.01373195 -0.008017957 -1.349999 0.01686799 6.60496e-4 -1.349999 0.01570856 0.001080572 -1.349999 0.0147891 0.001924812 -1.349999 0.01397091 0.00287646 -1.349999 0.01308673 0.003765821 -1.349999 0.01209998 0.004540443 -1.349999 0.0110408 0.005220174 -1.349999 0.009943783 0.005835771 -1.349999 0.008813023 0.006389558 -1.349999 0.007647037 0.006867229 -1.349999 0.006448209 0.007258236 -1.349999 0.005223393 0.007560849 -1.349999 -0.01014024 0.003732681 -1.349999 -0.008109211 0.005208611 -1.349999 -0.004722058 0.006864845 -1.349999 2.00555e-4 0.007911622 -1.349999 -0.01269406 -0.003709375 -1.349999 -0.01148313 -0.0034253 -1.349999 -0.01052051 -0.002645552 -1.349999 -0.009721398 -0.001696944 -1.349999 -0.008854806 -8.08245e-4 -1.349999 -0.007890939 -2.23499e-5 -1.349999 -0.006861567 6.78139e-4 -1.349999 -0.005780279 0.001297771 -1.349999 -0.004653394 0.0018332 -1.349999 -0.003486275 0.002276957 -1.349999 -0.002282857 0.002613544 -1.349999 -0.001053571 0.002841353 -1.349999 1.89893e-4 0.002975463 -1.349999 0.001439869 0.003023982 -1.349999 0.002690017 0.002978384 -1.349999 0.003932118 0.002831399 -1.349999 0.005157649 0.002583563 -1.349999 0.006357252 0.001905262 -1.349999 0.007518589 0.001138269 -1.349999 0.008631229 2.27714e-4 -1.349999 0.009686589 -8.91471e-4 -1.349999 0.01066702 -0.002133727 -1.349999 0.01128792 -0.002398252 -1.349999 0.01258456 -0.002398252 -1.349999 0.01342356 -0.002398252 -1.349999 0.01440882 -0.002398252 -1.349999 0.01564264 -0.002398252 -1.349999 0.01686799 -0.002398252 -1.349999 -0.01373195 -0.003647983 -1.349999 0.01628828 7.10009e-4 -1.349999 0.01625531 -0.002398252 -1.349999 -0.01336479 6.05075e-4 -1.349999 -0.01331925 -0.008017957 -1.349999 -0.01331925 -0.003678679 -1.349999 0.008807778 -0.008017957 -1.349999 0.00397998 0.00777769 1.350001 0.002724409 0.007909893 1.350001 0.001462519 0.007955849 1.350001 2.00555e-4 0.007911622 1.350001 -0.001054406 0.00777477 1.350001 -0.002296268 0.007550477 1.350001 -0.003520727 0.007247686 1.350001 -0.004722058 0.006864845 1.350001 -0.005891025 0.006394565 1.350001 -0.007020831 0.005839049 1.350001 -0.008109211 0.005208611 1.350001 -0.009149849 0.004504263 1.350001 -0.01014024 0.003732681 1.350001 -0.0110799 0.002901613 1.350001 -0.0119152 0.00211966 1.350001 -0.01278507 0.001197516 1.350001 -0.01336479 6.05075e-4 1.350001 -0.01373195 -0.003647983 1.350001 -0.01373195 -0.008017957 1.350001 -9.73634e-4 -0.001761615 1.350001 3.38033e-5 -0.001817584 1.350001 0.001046359 -0.001979589 1.350001 0.002048492 -0.002287566 1.350001 0.003024637 -0.002846539 1.350001 0.003956735 -0.003807008 1.350001 0.004803955 -0.005178809 1.350001 0.005535602 -0.006730496 1.350001 0.006312251 -0.008017957 1.350001 0.01128792 -0.008017957 1.350001 0.01128792 -0.002398252 1.350001 -0.01269406 -0.008017957 1.350001 -0.01144355 -0.008017957 1.350001 -0.01035332 -0.007945775 1.350001 -0.009552896 -0.007240831 1.350001 -0.008908212 -0.006321609 1.350001 -0.008234798 -0.005418419 1.350001 -0.007502913 -0.004584074 1.350001 -0.006694018 -0.003854572 1.350001 -0.005820155 -0.003231346 1.350001 -0.004904866 -0.002709448 1.350001 -0.003956854 -0.002293288 1.350001 -0.002977788 -0.001992821 1.350001 -0.001978397 -0.001815795 1.350001 0.01686799 -0.002398252 1.350001 0.01686799 6.60496e-4 1.350001 -0.01331925 -0.008017957 1.350001 0.01628828 7.10009e-4 1.350001 0.01570856 0.001080572 1.350001 0.0147891 0.001924812 1.350001 0.01397091 0.00287646 1.350001 0.01308673 0.003765821 1.350001 0.01209998 0.004540443 1.350001 0.0110408 0.005220174 1.350001 0.009943783 0.005835771 1.350001 0.008813023 0.006389558 1.350001 0.007647037 0.006867229 1.350001 0.006448209 0.007258236 1.350001 0.005223393 0.007560849 1.350001 -0.01269406 -0.003709375 1.350001 -0.01148313 -0.0034253 1.350001 -0.01052051 -0.002645552 1.350001 -0.009721398 -0.001696944 1.350001 -0.008854806 -8.08245e-4 1.350001 -0.007890939 -2.23499e-5 1.350001 -0.006861567 6.78139e-4 1.350001 -0.005780279 0.001297771 1.350001 -0.004653394 0.0018332 1.350001 -0.003486275 0.002276957 1.350001 -0.002282857 0.002613544 1.350001 -0.001053571 0.002841353 1.350001 1.89893e-4 0.002975463 1.350001 0.001439869 0.003023982 1.350001 0.002690017 0.002978384 1.350001 0.003932118 0.002831399 1.350001 0.005157649 0.002583563 1.350001 0.006357252 0.001905262 1.350001 0.007518589 0.001138269 1.350001 0.008631229 2.27714e-4 1.350001 0.009686589 -8.91471e-4 1.350001 0.01066702 -0.002133727 1.350001 0.008807778 -0.008017957 1.350001 0.01258456 -0.002398252 1.350001 0.01342356 -0.002398252 1.350001 0.01440882 -0.002398252 1.350001 0.01564264 -0.002398252 1.350001 -0.01373195 8.82707e-6 1.350001 -0.01331925 -0.003678679 1.350001 0.01625531 -0.002398252 1.350001 -0.01373195 -0.008009672 1.350001</float_array>
          <technique_common>
            <accessor source="#Circle_002-mesh-positions-array" count="178" stride="3">
              <param name="X" type="float"/>
              <param name="Y" type="float"/>
              <param name="Z" type="float"/>
            </accessor>
          </technique_common>
        </source>
        <source id="Circle_002-mesh-normals">
          <float_array id="Circle_002-mesh-normals-array" count="633">3.90149e-5 0 -1 0 0 -1 -4.10297e-5 0 -1 2.9045e-5 0 -1 1.87641e-4 0 -1 8.01e-5 0 -1 9.17063e-5 0 -1 6.24386e-5 0 -1 -1.30497e-4 0 -1 1.27069e-4 0 -1 -4.20457e-5 0 -1 -1.90719e-4 0 -1 -1.02493e-4 0 -1 -6.14521e-5 0 -1 1.00312e-4 0 -1 5.92002e-5 0 -1 -5.91644e-5 0 -1 1.44553e-4 0 -1 -9.71175e-6 0 -1 -2.81413e-5 0 -1 -1.05449e-4 0 -1 1.35334e-5 0 -1 -1.0437e-4 0 -1 1.23138e-4 0 -1 -4.48142e-5 0 -1 -5.57682e-5 0 -1 -2.34882e-5 0 -1 4.40393e-5 0 -1 5.09708e-5 0 -1 1.79296e-5 0 -1 -1.38152e-4 0 -1 2.47095e-4 0 -1 -1.92552e-4 0 -1 3.23455e-4 0 -1 5.16387e-4 0 -0.9999999 8.19578e-5 0 -1 4.2124e-5 0 -1 0 0 1 -2.02908e-4 0 1 1.96874e-4 0 1 1.88874e-4 0 1 1.60018e-4 0 1 -1.86078e-4 0 1 -1.57479e-4 0 1 -1.55614e-4 0 1 1.74351e-4 0 1 7.24743e-5 0 1 4.22719e-5 0 1 -1.88968e-5 0 1 1.38173e-4 0 1 1.04684e-4 0 1 1.26288e-4 0 1 -2.88341e-5 0 1 1.7269e-5 0 1 -2.66229e-5 0 1 -3.29394e-5 0 1 2.33081e-5 0 1 1.54434e-5 0 1 -1.06984e-4 0 1 4.34221e-5 0 1 3.11431e-5 0 1 4.81381e-5 0 1 -5.41998e-5 0 1 -3.21321e-4 0 1 -2.41373e-5 0 1 3.75188e-4 0 1 5.82055e-4 0 0.9999998 2.24661e-4 0 1 0.05387598 -0.9985477 0 -0.6145775 0.7888565 0 1 0 0 0 -1 0 -0.6834002 0.730044 0 -0.7274231 0.6861892 0 0.08509695 0.9963727 0 -0.7147783 0.6993511 0 0.6763444 0.7365856 0 -1 0 0 0.7582632 0.6519485 0 -0.0554921 -0.9984592 0 0.7091831 0.7050244 0 -0.1579933 -0.9874402 0 0.6174637 0.7865995 0 -0.2937455 -0.9558838 0 0.5400987 0.8416017 0 -0.4969234 -0.8677945 0 0.4894002 0.8720594 0 -0.7176265 -0.6964282 0 0.4398232 0.8980844 0 -0.8508306 -0.5254401 0 0.3790836 0.9253625 0 -0.9044909 -0.426493 0 0.3100967 0.9507051 0 -0.8562573 -0.5165496 0 0.2398056 0.970821 0 0.1718119 0.9851298 0 -0.6625166 0.7490473 0 0.06603926 -0.9978171 0 -0.5604877 0.8281628 0 0.6609384 -0.7504403 0 -0.3732663 0.9277243 0 0.8187362 -0.57417 0 -0.1084028 0.9941071 0 0.8016693 -0.5977678 0 0.1047434 0.9944993 0 0.7517635 -0.6594329 0 0.5386413 0.8425353 0 0.03635591 0.999339 0 0.6697014 -0.7426306 0 -0.03499996 0.9993874 0 0.5806612 -0.8141454 0 -0.1777376 0.9840779 0 0.4953547 -0.8686908 0 -0.8514947 0.5243634 0 -0.2400777 0.9707538 0 0.4019263 -0.9156721 0 -0.3036011 0.9527993 0 0.2934291 -0.9559808 0 -0.4411983 0.8974096 0 0.1743877 -0.9846771 0 -0.5012621 0.8652955 0 -1.77989e-4 0 -1 -1.7088e-4 0 -1 1.62896e-4 0 -1 1.86078e-4 0 -1 -1.83244e-4 0 -1 -1.79437e-4 0 -1 1.53962e-4 0 -1 1.52006e-4 0 -1 1.50376e-4 0 -1 1.41582e-5 0 -1 9.46332e-6 0 -1 9.51734e-6 0 -1 1.79565e-5 0 -1 1.03451e-4 0 -1 -2.89928e-5 0 -1 3.31606e-5 0 -1 -3.15165e-5 0 -1 -6.06756e-5 0 -1 -4.57569e-5 0 -1 -3.86063e-5 0 -1 -9.75374e-6 0 1 4.10297e-5 0 1 -3.19495e-5 0 1 -9.38203e-5 0 1 2.67e-5 0 1 4.58531e-5 0 1 8.69983e-5 0 1 -1.90603e-4 0 1 -8.40914e-5 0 1 -1.27146e-4 0 1 -8.19947e-5 0 1 1.22904e-4 0 1 2.00624e-5 0 1 8.88004e-5 0 1 7.88858e-5 0 1 2.89107e-5 0 1 6.79822e-5 0 1 3.83453e-5 0 1 -6.7667e-5 0 1 -4.7441e-5 0 1 -4.53667e-5 0 1 -7.78352e-5 0 1 9.2947e-5 0 1 -1.51021e-4 0 1 2.34882e-5 0 1 -5.50492e-6 0 1 -4.07767e-5 0 1 -1.43652e-4 0 1 -3.58592e-5 0 1 -1.37935e-4 0 1 2.4463e-5 0 1 4.56259e-4 0 1 -4.48357e-4 0 1 0.05387598 -0.9985477 0 -0.7274243 0.6861881 0 0.08509695 0.9963727 0 -0.7147766 0.6993528 0 0.6763433 0.7365866 0 0.7582622 0.6519499 0 0.6174647 0.7865986 0 -0.2937455 -0.9558838 0 0.5400987 0.8416017 0 -0.4969235 -0.8677945 0 0.4894008 0.8720591 0 -0.7176265 -0.6964283 0 -0.8508304 -0.5254404 0 0.3790835 0.9253625 0 0.310097 0.950705 0 -0.8562571 -0.5165499 0 0.2398058 0.9708209 0 0.171812 0.9851298 0 -0.662516 0.7490478 0 0.06603926 -0.9978171 0 -0.5604872 0.8281632 0 0.6609377 -0.7504408 0 -0.3732665 0.9277242 0 0.8187362 -0.5741699 0 -0.1084028 0.9941071 0 0.8016693 -0.5977678 0 0.7517641 -0.6594322 0 0.5386412 0.8425353 0 0.6697013 -0.7426306 0 -0.03499996 0.9993873 0 -0.1777376 0.9840779 0 -0.8514929 0.5243663 0 -0.2400775 0.9707537 0 0.4019261 -0.9156722 0 -0.3036012 0.9527992 0 -0.4411979 0.8974099 0 -0.5012617 0.8652959 0</float_array>
          <technique_common>
            <accessor source="#Circle_002-mesh-normals-array" count="211" stride="3">
              <param name="X" type="float"/>
              <param name="Y" type="float"/>
              <param name="Z" type="float"/>
            </accessor>
          </technique_common>
        </source>
        <source id="Circle_002-mesh-map-0">
          <float_array id="Circle_002-mesh-map-0-array" count="2100">0 0 0 0 0 0 0 0 0 0 0 0 0 0 0 0 0 0 0 0 0 0 0 0 0 0 0 0 0 0 0 0 0 0 0 0 0 0 0 0 0 0 0 0 0 0 0 0 0 0 0 0 0 0 0 0 0 0 0 0 0 0 0 0 0 0 0 0 0 0 0 0 0 0 0 0 0 0 0 0 0 0 0 0 0 0 0 0 0 0 0 0 0 0 0 0 0 0 0 0 0 0 0 0 0 0 0 0 0 0 0 0 0 0 0 0 0 0 0 0 0 0 0 0 0 0 0 0 0 0 0 0 0 0 0 0 0 0 0 0 0 0 0 0 0 0 0 0 0 0 0 0 0 0 0 0 0 0 0 0 0 0 0 0 0 0 0 0 0 0 0 0 0 0 0 0 0 0 0 0 0 0 0 0 0 0 0 0 0 0 0 0 0 0 0 0 0 0 0 0 0 0 0 0 0 0 0 0 0 0 0 0 0 0 0 0 0 0 0 0 0 0 0 0 0 0 0 0 0 0 0 0 0 0 0 0 0 0 0 0 0 0 0 0 0 0 0 0 0 0 0 0 0 0 0 0 0 0 0 0 0 0 0 0 0 0 0 0 0 0 0 0 0 0 0 0 0 0 0 0 0 0 0 0 0 0 0 0 0 0 0 0 0 0 0 0 0 0 0 0 0 0 0 0 0 0 0 0 0 0 0 0 0 0 0 0 0 0 0 0 0 0 0 0 0 0 0 0 0 0 0 0 0 0 0 0 0 0 0 0 0 0 0 0 0 0 0 0 0 0 0 0 0 0 0 0 0 0 0 0 0 0 0 0 0 0 0 0 0 0 0 0 0 0 0 0 0 0 0 0 0 0 0 0 0 0 0 0 0 0 0 0 0 0 0 0 0 0 0 0 0 0 0 0 0 0 0 0 0 0 0 0 0 0 0 0 0 0 0 0 0 0 0 0 0 0 0 0 0 0 0 0 0 0 0 0 0 0 0 0 0 0 0 0 0 0 0 0 0 0 0 0 0 0 0 0 0 0 0 0 0 0 0 0 0 0 0 0 0 0 0 0 0 0 0 0 0 0 0 0 0 0 0 0 0 0 0 0 0 0 0 0 0 0 0 0 0 0 0 0 0 0 0 0 0 0 0 0 0 0 0 0 0 0 0 0 0 0 0 0 0 0 0 0 0 0 0 0 0 0 0 0 0 0 0 0 0 0 0 0 0 0 0 0 0 0 0 0 0 0 0 0 0 0 0 0 0 0 0 0 0 0 0 0 0 0 0 0 0 0 0 0 0 0 0 0 0 0 0 0 0 0 0 0 0 0 0 0 0 0 0 0 0 0 0 0 0 0 0 0 0 0 0 0 0 0 0 0 0 0 0 0 0 0 0 0 0 0 0 0 0 0 0 0 0 0 0 0 0 0 0 0 0 0 0 0 0 0 0 0 0 0 0 0 0 0 0 0 0 0 0 0 0 0 0 0 0 0 0 0 0 0 0 0 0 0 0 0 0 0 0 0 0 0 0 0 0 0 0 0 0 0 0 0 0 0 0 0 0 0 0 0 0 0 0 0 0 0 0 0 0 0 0 0 0 0 0 0 0 0 0 0 0 0 0 0 0 0 0 0 0 0 0 0 0 0 0 0 0 0 0 0 0 0 0 0 0 0 0 0 0 0 0 0 0 0 0 0 0 0 0 0 0 0 0 0 0 0 0 0 0 0 0 0 0 0 0 0 0 0 0 0 0 0 0 0 0 0 0 0 0 0 0 0 0 0 0 0 0 0 0 0 0 0 0 0 0 0 0 0 0 0 0 0 0 0 0 0 0 0 0 0 0 0 0 0 0 0 0 0 0 0 0 0 0 0 0 0 0 0 0 0 0 0 0 0 0 0 0 0 0 0 0 0 0 0 0 0 0 0 0 0 0 0 0 0 0 0 0 0 0 0 0 0 0 0 0 0 0 0 0 0 0 0 0 0 0 0 0 0 0 0 0 0 0 0 0 0 0 0 0 0 0 0 0 0 0 0 0 0 0 0 0 0 0 0 0 0 0 0 0 0 0 0 0 0 0 0 0 0 0 0 0 0 0 0 0 0 0 0 0 0 0 0 0 0 0 0 0 0 0 0 0 0 0 0 0 0 0 0 0 0 0 0 0 0 0 0 0 0 0 0 0 0 0 0 0 0 0 0 0 0 0 0 0 0 0 0 0 0 0 0 0 0 0 0 0 0 0 0 0 0 0 0 0 0 0 0 0 0 0 0 0 0 0 0 0 0 0 0 0 0 0 0 0 0 0 0 0 0 0 0 0 0 0 0 0 0 0 0 0 0 0 0 0 0 0 0 0 0 0 0 0 0 0 0 0 0 0 0 0 0 0 0 0 0 0 0 0 0 0 0 0 0 0 0 0 0 0 0 0 0 0 0 0 0 0 0 0 0 0 0 0 0 0 0 0 0 0 0 0 0 0 0 0 0 0 0 0 0 0 0 0 0 0 0 0 0 0 0 0 0 0 0 0 0 0 0 0 0 0 0 0 0 0 0 0 0 0 0 0 0 0 0 0 0 0 0 0 0 0 0 0 0 0 0 0 0 0 0 0 0 0 0 0 0 0 0 0 0 0 0 0 0 0 0 0 0 0 0 0 0 0 0 0 0 0 0 0 0 0 0 0 0 0 0 0 0 0 0 0 0 0 0 0 0 0 0 0 0 0 0 0 0 0 0 0 0 0 0 0 0 0 0 0 0 0 0 0 0 0 0 0 0 0 0 0 0 0 0 0 0 0 0 0 0 0 0 0 0 0 0 0 0 0 0 0 0 0 0 0 0 0 0 0 0 0 0 0 0 0 0 0 0 0 0 0 0 0 0 0 0 0 0 0 0 0 0 0 0 0 0 0 0 0 0 0 0 0 0 0 0 0 0 0 0 0 0 0 0 0 0 0 0 0 0 0 0 0 0 0 0 0 0 0 0 0 0 0 0 0 0 0 0 0 0 0 0 0 0 0 0 0 0 0 0 0 0 0 0 0 0 0 0 0 0 0 0 0 0 0 0 0 0 0 0 0 0 0 0 0 0 0 0 0 0 0 0 0 0 0 0 0 0 0 0 0 0 0 0 0 0 0 0 0 0 0 0 0 0 0 0 0 0 0 0 0 0 0 0 0 0 0 0 0 0 0 0 0 0 0 0 0 0 0 0 0 0 0 0 0 0 0 0 0 0 0 0 0 0 0 0 0 0 0 0 0 0 0 0 0 0 0 0 0 0 0 0 0 0 0 0 0 0 0 0 0 0 0 0 0 0 0 0 0 0 0 0 0 0 0 0 0 0 0 0 0 0 0 0 0 0 0 0 0 0 0 0 0 0 0 0 0 0 0 0 0 0 0 0 0 0 0 0 0 0 0 0 0 0 0 0 0 0 0 0 0 0 0 0 0 0 0 0 0 0 0 0 0 0 0 0 0 0 0 0 0 0 0 0 0 0 0 0 0 0 0 0 0 0 0 0 0 0 0 0 0 0 0 0 0 0 0 0 0 0 0 0 0 0 0 0 0 0 0 0 0 0 0 0 0 0 0 0 0 0 0 0 0 0 0 0 0 0 0 0 0 0 0 0 0 0 0 0 0 0 0 0 0 0 0 0 0 0 0 0 0 0 0 0 0 0 0 0 0 0 0 0 0 0 0 0 0 0 0 0 0 0 0 0 0 0 0 0 0 0 0 0 0 0 0 0 0 0 0 0 0 0 0 0 0 0 0 0 0 0 0 0 0 0 0 0 0 0 0 0 0 0 0 0 0 0 0 0 0 0 0 0 0 0 0 0 0 0 0 0 0 0 0 0 0 0 0 0 0 0 0 0 0 0 0 0 0 0 0 0 0 0 0 0 0 0 0 0 0 0 0 0 0 0 0 0 0 0 0 0 0 0 0 0 0 0 0 0 0 0 0 0 0 0 0 0 0 0 0 0 0 0 0 0 0 0 0 0 0 0 0 0 0 0 0 0 0 0 0 0 0 0 0 0 0 0 0 0 0 0 0 0 0 0 0 0 0 0 0 0 0 0 0 0 0 0 0 0 0 0 0 0 0 0 0 0 0 0 0 0 0 0 0 0 0 0 0 0 0 0 0 0 0 0 0 0 0 0 0 0 0 0 0 0 0 0 0 0 0 0 0 0 0 0 0 0 0 0 0 0 0 0 0 0 0 0 0 0 0 0 0 0 0 0 0 0 0 0 0 0 0 0 0 0 0 0 0 0 0 0 0 0 0 0 0 0 0 0 0 0 0 0 0 0 0 0 0 0 0 0 0 0 0 0 0 0 0 0 0 0 0 0 0 0 0 0 0 0 0 0 0 0 0 0 0 0 0 0 0 0 0 0 0 0 0 0 0 0 0 0 0 0 0 0 0 0 0 0 0 0 0 0 0 0 0 0 0 0 0 0 0 0 0 0 0 0 0 0 0 0 0 0 0 0 0 0 0 0 0 0 0 0 0 0 0 0 0 0 0 0 0 0 0 0 0 0 0 0 0 0 0 0 0 0 0 0 0 0 0 0 0 0 0 0 0 0 0 0 0 0 0 0 0 0 0 0 0 0 0 0 0 0 0 0 0 0 0 0 0 0 0 0 0 0 0 0 0 0 0 0 0 0 0 0 0 0 0 0 0 0 0 0 0 0 0 0 0 0 0 0 0 0 0 0 0 0 0 0 0 0 0 0 0 0 0 0 0 0 0 0 0 0 0 0</float_array>
          <technique_common>
            <accessor source="#Circle_002-mesh-map-0-array" count="1050" stride="2">
              <param name="S" type="float"/>
              <param name="T" type="float"/>
            </accessor>
          </technique_common>
        </source>
        <vertices id="Circle_002-mesh-vertices">
          <input semantic="POSITION" source="#Circle_002-mesh-positions"/>
        </vertices>
        <triangles material="gora_dol-material" count="226">
          <input semantic="VERTEX" source="#Circle_002-mesh-vertices" offset="0"/>
          <input semantic="NORMAL" source="#Circle_002-mesh-normals" offset="1"/>
          <input semantic="TEXCOORD" source="#Circle_002-mesh-map-0" offset="2" set="0"/>
          <p>12 0 0 55 0 1 54 0 2 54 1 3 24 1 4 23 1 5 11 2 6 56 2 7 55 2 8 55 3 9 25 3 10 24 3 11 10 4 12 57 4 13 56 4 14 56 5 15 26 5 16 25 5 17 50 6 18 58 6 19 57 6 20 57 7 21 27 7 22 26 7 23 9 8 24 59 8 25 58 8 26 58 9 27 28 9 28 27 9 29 51 10 30 60 10 31 59 10 32 59 11 33 29 11 34 28 11 35 8 12 36 61 12 37 60 12 38 60 13 39 30 13 40 29 13 41 7 14 42 62 14 43 61 14 44 61 15 45 31 15 46 30 15 47 52 16 48 63 16 49 62 16 50 62 17 51 32 17 52 31 17 53 6 18 54 64 18 55 63 18 56 63 19 57 33 19 58 32 19 59 5 20 60 65 20 61 64 20 62 64 21 63 34 21 64 33 21 65 4 22 66 66 22 67 65 22 68 65 23 69 35 23 70 34 23 71 53 24 72 67 24 73 66 24 74 66 25 75 36 25 76 35 25 77 2 1 78 67 1 79 3 1 80 67 26 81 14 26 82 36 26 83 1 1 84 68 1 85 2 1 86 68 27 87 15 27 88 14 27 89 49 1 90 69 1 91 1 1 92 69 28 93 16 28 94 15 28 95 48 1 96 70 1 97 49 1 98 70 29 99 17 29 100 16 29 101 47 1 102 71 1 103 48 1 104 72 1 105 17 1 106 71 1 107 46 30 108 72 30 109 47 30 110 73 1 111 18 1 112 72 1 113 45 1 114 73 1 115 46 1 116 74 1 117 19 1 118 73 1 119 44 31 120 74 31 121 45 31 122 75 1 123 20 1 124 74 1 125 43 1 126 75 1 127 44 1 128 22 1 129 88 1 130 76 1 131 42 1 132 76 1 133 43 1 134 41 1 135 77 1 136 42 1 137 40 32 138 78 32 139 41 32 140 39 1 141 79 1 142 40 1 143 85 33 144 54 33 145 87 33 146 54 1 147 86 1 148 87 1 149 83 1 150 80 1 151 39 1 152 38 1 153 84 1 154 83 1 155 87 34 156 37 34 157 82 34 158 13 35 159 87 35 160 82 35 161 80 1 162 81 1 163 77 1 164 88 36 165 75 36 166 76 36 167 104 37 168 148 37 169 103 37 170 147 37 171 120 37 172 148 37 173 103 37 174 149 37 175 102 37 176 148 37 177 121 37 178 149 37 179 102 37 180 150 37 181 101 37 182 149 38 183 122 38 184 150 38 185 101 37 186 151 37 187 100 37 188 150 39 189 123 39 190 151 39 191 100 37 192 152 37 193 99 37 194 151 40 195 124 40 196 152 40 197 99 37 198 153 37 199 98 37 200 152 37 201 125 37 202 153 37 203 98 41 204 154 41 205 97 41 206 153 42 207 126 42 208 154 42 209 97 43 210 155 43 211 96 43 212 154 37 213 127 37 214 155 37 215 96 44 216 156 44 217 95 44 218 155 37 219 128 37 220 156 37 221 95 37 222 157 37 223 94 37 224 156 45 225 129 45 226 157 45 227 94 37 228 158 37 229 93 37 230 157 37 231 130 37 232 158 37 233 93 37 234 159 37 235 92 37 236 158 37 237 131 37 238 159 37 239 92 37 240 160 37 241 91 37 242 159 37 243 108 37 244 160 37 245 160 46 246 90 46 247 91 46 248 160 37 249 109 37 250 161 37 251 161 47 252 89 47 253 90 47 254 161 37 255 110 37 256 162 37 257 162 48 258 146 48 259 89 48 260 162 49 261 111 49 262 163 49 263 163 50 264 145 50 265 146 50 266 163 37 267 112 37 268 164 37 269 164 51 270 144 51 271 145 51 272 112 52 273 165 52 274 164 52 275 165 53 276 143 53 277 144 53 278 113 54 279 166 54 280 165 54 281 166 55 282 142 55 283 143 55 284 114 56 285 167 56 286 166 56 287 167 57 288 141 57 289 142 57 290 115 58 291 168 58 292 167 58 293 168 59 294 140 59 295 141 59 296 117 37 297 118 37 298 169 37 299 118 60 300 139 60 301 140 60 302 170 37 303 138 37 304 139 37 305 171 61 306 137 61 307 138 61 308 172 62 309 136 62 310 137 62 311 105 63 312 147 63 313 104 63 314 134 64 315 147 64 316 175 64 317 135 37 318 173 37 319 176 37 320 133 37 321 176 37 322 132 37 323 107 65 324 175 65 325 106 65 326 174 66 327 175 66 328 105 66 329 170 37 330 132 37 331 173 37 332 168 67 333 169 67 334 118 67 335 12 1 522 11 1 523 55 1 524 54 1 525 55 1 526 24 1 527 11 1 528 10 1 529 56 1 530 55 121 531 56 121 532 25 121 533 10 122 534 50 122 535 57 122 536 56 1 537 57 1 538 26 1 539 50 1 540 9 1 541 58 1 542 57 1 543 58 1 544 27 1 545 9 1 546 51 1 547 59 1 548 58 1 549 59 1 550 28 1 551 51 123 552 8 123 553 60 123 554 59 1 555 60 1 556 29 1 557 8 1 558 7 1 559 61 1 560 60 124 561 61 124 562 30 124 563 7 1 564 52 1 565 62 1 566 61 125 567 62 125 568 31 125 569 52 1 570 6 1 571 63 1 572 62 126 573 63 126 574 32 126 575 6 127 576 5 127 577 64 127 578 63 1 579 64 1 580 33 1 581 5 128 582 4 128 583 65 128 584 64 1 585 65 1 586 34 1 587 4 129 588 53 129 589 66 129 590 65 1 591 66 1 592 35 1 593 53 1 594 3 1 595 67 1 596 66 1 597 67 1 598 36 1 599 2 130 600 68 130 601 67 130 602 67 1 603 68 1 604 14 1 605 1 131 606 69 131 607 68 131 608 68 1 609 69 1 610 15 1 611 49 132 612 70 132 613 69 132 614 69 1 615 70 1 616 16 1 617 48 133 618 71 133 619 70 133 620 70 1 621 71 1 622 17 1 623 47 134 624 72 134 625 71 134 626 72 135 627 18 135 628 17 135 629 46 136 630 73 136 631 72 136 632 73 1 633 19 1 634 18 1 635 45 137 636 74 137 637 73 137 638 74 1 639 20 1 640 19 1 641 44 138 642 75 138 643 74 138 644 75 139 645 21 139 646 20 139 647 43 140 648 76 140 649 75 140 650 42 1 651 77 1 652 76 1 653 41 1 654 78 1 655 77 1 656 40 1 657 79 1 658 78 1 659 39 1 660 80 1 661 79 1 662 85 1 663 12 1 664 54 1 665 54 1 666 23 1 667 86 1 668 83 1 669 84 1 670 80 1 671 38 1 672 81 1 673 84 1 674 87 1 675 86 1 676 37 1 677 13 1 678 85 1 679 87 1 680 78 37 681 79 37 682 80 37 683 80 37 684 84 37 685 81 37 686 77 37 687 78 37 688 80 37 689 88 1 690 21 1 691 75 1 692 104 141 693 147 141 694 148 141 695 147 37 696 119 37 697 120 37 698 103 142 699 148 142 700 149 142 701 148 143 702 120 143 703 121 143 704 102 144 705 149 144 706 150 144 707 149 145 708 121 145 709 122 145 710 101 146 711 150 146 712 151 146 713 150 37 714 122 37 715 123 37 716 100 147 717 151 147 718 152 147 719 151 148 720 123 148 721 124 148 722 99 149 723 152 149 724 153 149 725 152 150 726 124 150 727 125 150 728 98 151 729 153 151 730 154 151 731 153 152 732 125 152 733 126 152 734 97 153 735 154 153 736 155 153 737 154 154 738 126 154 739 127 154 740 96 155 741 155 155 742 156 155 743 155 156 744 127 156 745 128 156 746 95 157 747 156 157 748 157 157 749 156 37 750 128 37 751 129 37 752 94 158 753 157 158 754 158 158 755 157 159 756 129 159 757 130 159 758 93 160 759 158 160 760 159 160 761 158 161 762 130 161 763 131 161 764 92 162 765 159 162 766 160 162 767 159 163 768 131 163 769 108 163 770 160 164 771 161 164 772 90 164 773 160 165 774 108 165 775 109 165 776 161 37 777 162 37 778 89 37 779 161 166 780 109 166 781 110 166 782 162 37 783 163 37 784 146 37 785 162 167 786 110 167 787 111 167 788 163 168 789 164 168 790 145 168 791 163 169 792 111 169 793 112 169 794 164 170 795 165 170 796 144 170 797 112 37 798 113 37 799 165 37 800 165 37 801 166 37 802 143 37 803 113 37 804 114 37 805 166 37 806 166 37 807 167 37 808 142 37 809 114 37 810 115 37 811 167 37 812 167 37 813 168 37 814 141 37 815 115 37 816 116 37 817 168 37 818 168 37 819 118 37 820 140 37 821 118 37 822 170 37 823 139 37 824 170 37 825 171 37 826 138 37 827 171 37 828 172 37 829 137 37 830 172 37 831 173 37 832 136 37 833 105 171 834 175 171 835 147 171 836 134 37 837 119 37 838 147 37 839 135 172 840 136 172 841 173 172 842 133 37 843 135 37 844 176 37 845 107 37 846 134 37 847 175 37 848 174 173 849 106 173 850 175 173 851 173 37 852 172 37 853 171 37 854 173 37 855 171 37 856 170 37 857 132 37 858 176 37 859 173 37 860 168 37 861 116 37 862 169 37 863</p>
        </triangles>
        <triangles material="tyl-material" count="56">
          <input semantic="VERTEX" source="#Circle_002-mesh-vertices" offset="0"/>
          <input semantic="NORMAL" source="#Circle_002-mesh-normals" offset="1"/>
          <input semantic="TEXCOORD" source="#Circle_002-mesh-map-0" offset="2" set="0"/>
          <p>108 68 336 35 68 337 36 68 338 132 71 345 77 71 346 81 71 347 119 71 351 86 71 352 23 71 353 169 71 354 21 71 355 88 71 356 109 79 378 36 79 379 14 79 380 110 81 384 14 81 385 15 81 386 111 83 390 15 83 391 16 83 392 117 71 393 88 71 394 22 71 395 112 85 399 16 85 400 17 85 401 113 87 405 17 87 406 18 87 407 170 71 408 76 71 409 77 71 410 114 89 414 18 89 415 19 89 416 115 91 420 19 91 421 20 91 422 116 93 426 20 93 427 21 93 428 118 70 432 22 70 433 76 70 434 120 71 438 23 71 439 24 71 440 121 97 444 24 97 445 25 97 446 122 99 450 25 99 451 26 99 452 123 101 459 26 101 460 27 101 461 124 103 465 27 103 466 28 103 467 125 105 471 28 105 472 29 105 473 126 108 480 29 108 481 30 108 482 127 110 486 30 110 487 31 110 488 128 112 492 31 112 493 32 112 494 129 115 501 32 115 502 33 115 503 134 71 504 37 71 505 86 71 506 130 117 510 33 117 511 34 117 512 131 119 516 34 119 517 35 119 518 108 174 864 131 174 865 35 174 866 132 71 873 170 71 874 77 71 875 119 71 879 134 71 880 86 71 881 169 71 882 116 71 883 21 71 884 109 79 906 108 79 907 36 79 908 110 81 912 109 81 913 14 81 914 111 181 918 110 181 919 15 181 920 117 71 921 169 71 922 88 71 923 112 183 927 111 183 928 16 183 929 113 185 933 112 185 934 17 185 935 170 71 936 118 71 937 76 71 938 114 186 942 113 186 943 18 186 944 115 91 948 114 91 949 19 91 950 116 189 954 115 189 955 20 189 956 118 70 960 117 70 961 22 70 962 120 71 966 119 71 967 23 71 968 121 193 972 120 193 973 24 193 974 122 195 978 121 195 979 25 195 980 123 197 987 122 197 988 26 197 989 124 199 993 123 199 994 27 199 995 125 200 999 124 200 1000 28 200 1001 126 202 1008 125 202 1009 29 202 1010 127 110 1014 126 110 1015 30 110 1016 128 112 1020 127 112 1021 31 112 1022 129 207 1029 128 207 1030 32 207 1031 134 71 1032 107 71 1033 37 71 1034 130 117 1038 129 117 1039 33 117 1040 131 119 1044 130 119 1045 34 119 1046</p>
        </triangles>
        <triangles material="front-material" count="68">
          <input semantic="VERTEX" source="#Circle_002-mesh-vertices" offset="0"/>
          <input semantic="NORMAL" source="#Circle_002-mesh-normals" offset="1"/>
          <input semantic="TEXCOORD" source="#Circle_002-mesh-map-0" offset="2" set="0"/>
          <p>101 69 339 9 69 340 50 69 341 133 70 342 81 70 343 38 70 344 103 72 348 10 72 349 11 72 350 104 73 357 11 73 358 12 73 359 135 74 360 38 74 361 83 74 362 105 75 363 12 75 364 85 75 365 137 76 366 39 76 367 40 76 368 82 70 369 177 70 370 0 70 371 107 77 372 82 77 373 37 77 374 138 78 375 40 78 376 41 78 377 139 80 381 41 80 382 42 80 383 140 82 387 42 82 388 43 82 389 141 84 396 43 84 397 44 84 398 142 86 402 44 86 403 45 86 404 143 88 411 45 88 412 46 88 413 144 90 417 46 90 418 47 90 419 145 92 423 47 92 424 48 92 425 146 94 429 48 94 430 49 94 431 89 95 435 49 95 436 1 95 437 102 96 441 50 96 442 10 96 443 100 98 447 51 98 448 9 98 449 106 77 453 13 77 454 82 77 455 97 100 456 52 100 457 7 100 458 93 102 462 53 102 463 4 102 464 90 104 468 1 104 469 2 104 470 136 106 474 83 106 475 39 106 476 91 107 477 2 107 478 3 107 479 92 109 483 3 109 484 53 109 485 94 111 489 4 111 490 5 111 491 174 113 495 85 113 496 13 113 497 95 114 498 5 114 499 6 114 500 96 116 507 6 116 508 52 116 509 98 118 513 7 118 514 8 118 515 99 120 519 8 120 520 51 120 521 101 69 867 100 69 868 9 69 869 133 70 870 132 70 871 81 70 872 103 72 876 102 72 877 10 72 878 104 175 885 103 175 886 11 175 887 135 176 888 133 176 889 38 176 890 105 177 891 104 177 892 12 177 893 137 178 894 136 178 895 39 178 896 82 70 897 106 70 898 177 70 899 107 77 900 106 77 901 82 77 902 138 179 903 137 179 904 40 179 905 139 80 909 138 80 910 41 80 911 140 180 915 139 180 916 42 180 917 141 182 924 140 182 925 43 182 926 142 184 930 141 184 931 44 184 932 143 88 939 142 88 940 45 88 941 144 187 945 143 187 946 46 187 947 145 188 951 144 188 952 47 188 953 146 190 957 145 190 958 48 190 959 89 191 963 146 191 964 49 191 965 102 192 969 101 192 970 50 192 971 100 194 975 99 194 976 51 194 977 106 77 981 174 77 982 13 77 983 97 196 984 96 196 985 52 196 986 93 198 990 92 198 991 53 198 992 90 104 996 89 104 997 1 104 998 136 201 1002 135 201 1003 83 201 1004 91 107 1005 90 107 1006 2 107 1007 92 203 1011 91 203 1012 3 203 1013 94 204 1017 93 204 1018 4 204 1019 174 205 1023 105 205 1024 85 205 1025 95 206 1026 94 206 1027 5 206 1028 96 208 1035 95 208 1036 6 208 1037 98 209 1041 97 209 1042 7 209 1043 99 210 1047 98 210 1048 8 210 1049</p>
        </triangles>
      </mesh>
    </geometry>
  </library_geometries>
  <library_visual_scenes>
    <visual_scene id="Scene" name="Scene">
      <node id="luna_end1" name="luna_end1" type="NODE">
        <matrix sid="transform">1 0 0 -0.1041973 0 1 0 -0.02931952 0 0 1 1.349999 0 0 0 1</matrix>
        <instance_geometry url="#Circle_002-mesh" name="luna_end1">
          <bind_material>
            <technique_common>
              <instance_material symbol="gora_dol-material" target="#gora_dol-material">
                <bind_vertex_input semantic="UVMap" input_semantic="TEXCOORD" input_set="0"/>
              </instance_material>
              <instance_material symbol="tyl-material" target="#tyl-material">
                <bind_vertex_input semantic="UVMap" input_semantic="TEXCOORD" input_set="0"/>
              </instance_material>
              <instance_material symbol="front-material" target="#front-material">
                <bind_vertex_input semantic="UVMap" input_semantic="TEXCOORD" input_set="0"/>
              </instance_material>
            </technique_common>
          </bind_material>
        </instance_geometry>
      </node>
    </visual_scene>
  </library_visual_scenes>
  <scene>
    <instance_visual_scene url="#Scene"/>
  </scene>
</COLLADA>