<?xml version="1.0" encoding="utf-8"?>
<COLLADA xmlns="http://www.collada.org/2005/11/COLLADASchema" version="1.4.1" xmlns:xsi="http://www.w3.org/2001/XMLSchema-instance">
  <asset>
    <contributor>
      <author>Blender User</author>
      <authoring_tool>Blender 3.2.0 commit date:2022-06-08, commit time:10:22, hash:e05e1e369187</authoring_tool>
    </contributor>
    <created>2023-03-08T13:25:13</created>
    <modified>2023-03-08T13:25:13</modified>
    <unit name="meter" meter="1"/>
    <up_axis>Z_UP</up_axis>
  </asset>
  <library_effects>
    <effect id="gora_dol-effect">
      <profile_COMMON>
        <technique sid="common">
          <lambert>
            <emission>
              <color sid="emission">0 0 0 1</color>
            </emission>
            <diffuse>
              <color sid="diffuse">0.8 0.8 0.8 1</color>
            </diffuse>
            <index_of_refraction>
              <float sid="ior">1.45</float>
            </index_of_refraction>
          </lambert>
        </technique>
      </profile_COMMON>
    </effect>
    <effect id="tyl-effect">
      <profile_COMMON>
        <technique sid="common">
          <lambert>
            <emission>
              <color sid="emission">0 0 0 1</color>
            </emission>
            <diffuse>
              <color sid="diffuse">0.8 0.8 0.8 1</color>
            </diffuse>
            <index_of_refraction>
              <float sid="ior">1.45</float>
            </index_of_refraction>
          </lambert>
        </technique>
      </profile_COMMON>
    </effect>
    <effect id="front-effect">
      <profile_COMMON>
        <technique sid="common">
          <lambert>
            <emission>
              <color sid="emission">0 0 0 1</color>
            </emission>
            <diffuse>
              <color sid="diffuse">0.8 0.8 0.8 1</color>
            </diffuse>
            <index_of_refraction>
              <float sid="ior">1.45</float>
            </index_of_refraction>
          </lambert>
        </technique>
      </profile_COMMON>
    </effect>
  </library_effects>
  <library_images/>
  <library_materials>
    <material id="gora_dol-material" name="gora_dol">
      <instance_effect url="#gora_dol-effect"/>
    </material>
    <material id="tyl-material" name="tyl">
      <instance_effect url="#tyl-effect"/>
    </material>
    <material id="front-material" name="front">
      <instance_effect url="#front-effect"/>
    </material>
  </library_materials>
  <library_geometries>
    <geometry id="Circle_003-mesh" name="Circle.003">
      <mesh>
        <source id="Circle_003-mesh-positions">
          <float_array id="Circle_003-mesh-positions-array" count="552">0.004920244 0.008800804 -1.35 0.003649353 0.008933007 -1.35 0.002372086 0.008978903 -1.35 -1.75558e-4 0.008797883 -1.35 -0.001432538 0.008573591 -1.35 -0.002671957 0.00827074 -1.35 -0.005071163 0.007417678 -1.35 -0.006214797 0.006862163 -1.35 -0.008369743 0.005527377 -1.35 -0.01032334 0.003924667 -1.35 -0.01116883 0.002991676 -1.35 -0.01204931 0.002097845 -1.35 -0.01322281 0.001683592 -1.35 0.003636121 -7.92461e-4 -1.35 0.004889011 -9.71826e-4 -1.35 0.006118535 -0.001266956 -1.35 0.007312655 -0.001677632 -1.35 0.008457362 -0.002204895 -1.35 0.009545862 -0.002835094 -1.35 0.01058018 -0.003546357 -1.35 0.01153057 -0.004361629 -1.35 0.01233285 -0.005315303 -1.35 0.01309937 -0.006296694 -1.35 0.01417052 -0.006922662 -1.35 0.01543408 -0.007011353 -1.35 0.01669979 -0.006986558 -1.35 -0.01195716 -0.006994843 -1.35 -0.01069146 -0.006994843 -1.35 -0.009427905 -0.006922662 -1.35 -0.00835675 -0.006296694 -1.35 -0.007590174 -0.005315363 -1.35 -0.006787955 -0.004361629 -1.35 -0.005837559 -0.003546357 -1.35 -0.00480318 -0.002835094 -1.35 -0.00371474 -0.002204895 -1.35 -0.002569973 -0.001677632 -1.35 -0.001375913 -0.001266956 -1.35 -1.46411e-4 -9.71829e-4 -1.35 0.001106441 -7.92461e-4 -1.35 0.002371311 -7.32155e-4 -1.35 -0.01322281 -0.006994843 -1.35 0.01679188 0.001959562 -1.35 0.01586127 0.00307846 -1.35 0.01503306 0.003964841 -1.35 0.0141381 0.004788935 -1.35 0.0131393 0.005563557 -1.35 0.01206719 0.006243288 -1.35 0.01095682 0.006858885 -1.35 0.009812235 0.007412672 -1.35 0.008632063 0.007890343 -1.35 0.007418572 0.00828135 -1.35 0.006178796 0.008583903 -1.35 -0.009372234 0.004755795 -1.35 -0.00731641 0.006231725 -1.35 -0.003887951 0.007887959 -1.35 0.001094698 0.008934736 -1.35 -0.01195955 -0.002147972 -1.35 -0.01075661 -0.002091944 -1.35 -0.009777247 -0.001425385 -1.35 -0.008948266 -6.73851e-4 -1.35 -0.008071064 2.14862e-4 -1.35 -0.007095456 0.001000702 -1.35 -0.006053507 0.001701235 -1.35 -0.004959046 0.002320885 -1.35 -0.003818452 0.002856314 -1.35 -0.002637088 0.003300011 -1.35 -0.001419007 0.003636658 -1.35 -1.74724e-4 0.003864467 -1.35 0.00108391 0.003998577 -1.35 0.002349138 0.004047036 -1.35 0.003614544 0.004001498 -1.35 0.004871845 0.003854513 -1.35 0.006112277 0.003606617 -1.35 0.007327497 0.003259956 -1.35 0.008508741 0.002815723 -1.35 0.009648978 0.0022794 -1.35 0.01074481 0.001661598 -1.35 0.01178997 9.65478e-4 -1.35 0.01275986 1.71984e-4 -1.35 0.01362979 -7.2269e-4 -1.35 0.01447904 -0.001638293 -1.35 0.01547634 -0.002395272 -1.35 0.01669991 -0.002684831 -1.35 -0.01322281 -0.00189048 -1.35 0.01736992 -0.006986558 -1.35 0.01741594 0.001072108 -1.35 0.01736998 -0.00265485 -1.35 -0.01263606 0.001732051 -1.35 -0.01258999 -0.006994843 -1.35 -0.01258999 -0.002035379 -1.35 -0.018184 -0.006994843 -1.35 -0.018184 -0.00189048 -1.35 0.004920244 0.008800804 1.35 0.003649353 0.008933007 1.35 0.002372086 0.008978903 1.35 0.001094698 0.008934736 1.35 -1.75558e-4 0.008797883 1.35 -0.001432538 0.008573591 1.35 -0.002671957 0.00827074 1.35 -0.003887951 0.007887959 1.35 -0.005071163 0.007417678 1.35 -0.006214797 0.006862163 1.35 -0.00731641 0.006231725 1.35 -0.008369743 0.005527377 1.35 -0.009372234 0.004755795 1.35 -0.01032334 0.003924667 1.35 -0.01116883 0.002991676 1.35 -0.01204931 0.002097845 1.35 -0.01263606 0.001732051 1.35 -0.01322281 -0.00189048 1.35 -0.01322281 -0.006994843 1.35 0.002371311 -7.32155e-4 1.35 0.003636121 -7.92461e-4 1.35 0.004889011 -9.71826e-4 1.35 0.006118535 -0.001266956 1.35 0.007312655 -0.001677632 1.35 0.008457362 -0.002204895 1.35 0.009545862 -0.002835094 1.35 0.01058018 -0.003546357 1.35 0.01153057 -0.004361629 1.35 0.01233285 -0.005315303 1.35 0.01309937 -0.006296694 1.35 0.01417052 -0.006922662 1.35 0.01543408 -0.007011353 1.35 0.01669979 -0.006986558 1.35 -0.01195716 -0.006994843 1.35 -0.01069146 -0.006994843 1.35 -0.009427905 -0.006922662 1.35 -0.00835675 -0.006296694 1.35 -0.007590174 -0.005315363 1.35 -0.006787955 -0.004361629 1.35 -0.005837559 -0.003546357 1.35 -0.00480318 -0.002835094 1.35 -0.00371474 -0.002204895 1.35 -0.002569973 -0.001677632 1.35 -0.001375913 -0.001266956 1.35 -1.46411e-4 -9.71829e-4 1.35 0.001106441 -7.92461e-4 1.35 -0.01258999 -0.006994843 1.35 0.01679188 0.001959562 1.35 0.01586127 0.00307846 1.35 0.01503306 0.003964841 1.35 0.0141381 0.004788935 1.35 0.0131393 0.005563557 1.35 0.01206719 0.006243288 1.35 0.01095682 0.006858885 1.35 0.009812235 0.007412672 1.35 0.008632063 0.007890343 1.35 0.007418572 0.00828135 1.35 0.006178796 0.008583903 1.35 -0.01195955 -0.002147972 1.35 -0.01075661 -0.002091944 1.35 -0.009777247 -0.001425385 1.35 -0.008948266 -6.73851e-4 1.35 -0.008071064 2.14862e-4 1.35 -0.007095456 0.001000702 1.35 -0.006053507 0.001701235 1.35 -0.004959046 0.002320885 1.35 -0.003818452 0.002856314 1.35 -0.002637088 0.003300011 1.35 -0.001419007 0.003636658 1.35 -1.74724e-4 0.003864467 1.35 0.00108391 0.003998577 1.35 0.002349138 0.004047036 1.35 0.003614544 0.004001498 1.35 0.004871845 0.003854513 1.35 0.006112277 0.003606617 1.35 0.007327497 0.003259956 1.35 0.008508741 0.002815723 1.35 0.009648978 0.0022794 1.35 0.01074481 0.001661598 1.35 0.01178997 9.65478e-4 1.35 0.01275986 1.71984e-4 1.35 0.01362979 -7.2269e-4 1.35 0.01447904 -0.001638293 1.35 0.01547634 -0.002395272 1.35 0.01669991 -0.002684831 1.35 -0.01322281 0.001683592 1.35 -0.01258999 -0.002035379 1.35 0.01736998 -0.00265485 1.35 0.01736992 -0.006986558 1.35 0.01741594 0.001072108 1.35 -0.018184 -0.00189048 1.35 -0.018184 -0.006994843 1.35</float_array>
          <technique_common>
            <accessor source="#Circle_003-mesh-positions-array" count="184" stride="3">
              <param name="X" type="float"/>
              <param name="Y" type="float"/>
              <param name="Z" type="float"/>
            </accessor>
          </technique_common>
        </source>
        <source id="Circle_003-mesh-normals">
          <float_array id="Circle_003-mesh-normals-array" count="705">1.02467e-4 0 -1 0 0 -1 1.10794e-4 0 -1 -7.04146e-6 0 -1 -5.71855e-5 0 -1 4.76078e-5 0 -1 -4.75617e-5 0 -1 -4.15386e-5 0 -1 -4.35436e-5 0 -1 -6.0755e-5 0 -1 6.25716e-5 0 -1 1.98208e-5 0 -1 -2.03868e-5 0 -1 5.8451e-5 0 -1 -1.1943e-4 0 -1 -5.84876e-5 0 -1 -4.73538e-5 0 -1 -2.89016e-5 0 -1 -9.37395e-6 0 -1 -4.79904e-5 0 -1 -6.29153e-5 0 -1 8.64293e-5 0 -1 1.48488e-4 0 -1 -1.57304e-4 0 -1 1.51959e-4 0 -1 -1.64299e-4 0 -1 1.63989e-4 0 -1 -1.74028e-4 0 -1 -1.64534e-4 0 -1 2.45606e-5 0 -1 -2.8832e-4 0 -1 4.44097e-4 0 -1 0 0 1 1.68818e-4 0 1 -1.76435e-4 0 1 1.64376e-4 0 1 -1.70156e-4 0 1 1.6226e-4 0 1 -1.53739e-4 0 1 -5.54332e-5 0 1 -2.64722e-5 0 1 9.74455e-5 0 1 -5.31426e-5 0 1 7.46757e-5 0 1 -7.7836e-5 0 1 8.46188e-5 0 1 -6.88206e-5 0 1 -5.98113e-5 0 1 5.77455e-5 0 1 1.01192e-4 0 1 3.90274e-5 0 1 -2.05374e-5 0 1 -1.97265e-5 0 1 8.37862e-5 0 1 5.97336e-5 0 1 1.3001e-4 0 1 4.09972e-5 0 1 -4.51586e-5 0 1 4.3507e-5 0 1 4.46108e-5 0 1 9.0744e-5 0 1 -4.23047e-5 0 1 -1.26429e-4 0 1 -4.11334e-5 0 1 1.8617e-5 0 1 -1.42842e-4 0 1 -2.0723e-4 0 1 -9.71462e-5 0 1 0.7880772 -0.6155766 0 -0.1756634 0.9844503 0 0.7652375 -0.6437481 0 -1 0 0 -0.2373465 0.9714251 0 0.6511203 -0.7589746 0 -0.3002756 0.9538525 0 0.5665948 -0.8239966 0 -0.4369029 0.8995087 0 0.5010566 -0.8654146 0 0 -1 0 -0.4967153 0.8679137 0 0.4183413 -0.9082899 0 0.8179833 0.5752421 0 -0.6099444 0.7924443 0 0.3252314 -0.9456345 0 1 -1.21037e-5 0 -0.7410242 0.6714784 0 0.2334356 -0.9723722 0 0.999924 -0.01233476 0 -0.7123923 0.7017814 0 0.1417185 -0.9899071 0 -0.08232557 0.9966055 0 -0.5290555 0.8485872 0 0.04762411 -0.9988654 0 -0.04762381 -0.9988654 0 0.7688397 0.6394417 0 -0.1417164 -0.9899073 0 0.7306727 0.682728 0 -0.2334383 -0.9723716 0 0.6773833 0.7356303 0 -0.3252297 -0.9456351 0 0.6128331 0.7902124 0 -0.4183438 -0.9082889 0 0.5354617 0.8445596 0 0 1 0 -0.5010492 -0.8654189 0 0.4848963 0.8745717 0 -0.5665969 -0.8239952 0 0.4355362 0.9001712 0 -0.6511235 -0.7589718 0 0.3751617 0.9269595 0 -0.7652369 -0.6437488 0 0.3067111 0.9518027 0 -0.7880783 -0.6155752 0 0.2370809 0.97149 0 -0.5045709 -0.8633703 0 0.1698002 0.9854785 0 -0.06998831 -0.9975479 0 -0.6579934 0.7530239 0 0.01954817 -0.9998089 0 -0.5558305 0.8312957 0 0.1034946 0.99463 0 -0.3693826 0.9292775 0 0.0570147 -0.9983734 0 0.03591853 0.9993547 0 -0.1071113 0.9942471 0 0.5045729 -0.8633692 0 -0.03457868 0.9994021 0 1.67624e-4 0 -1 -1.64376e-4 0 -1 -1.6226e-4 0 -1 1.5979e-4 0 -1 1.57577e-4 0 -1 1.52105e-4 0 -1 -1.53989e-4 0 -1 3.26379e-5 0 -1 6.72107e-5 0 -1 -7.94682e-5 0 -1 7.70475e-5 0 -1 -3.76107e-5 0 -1 -9.71663e-6 0 -1 -2.8469e-5 0 -1 5.9174e-5 0 -1 -1.92453e-5 0 -1 -4.03204e-5 0 -1 -1.95965e-5 0 -1 6.2011e-5 0 -1 -3.99611e-5 0 -1 6.34528e-5 0 -1 4.07822e-5 0 -1 4.41449e-5 0 -1 9.68198e-5 0 -1 -9.71506e-5 0 -1 1.32653e-4 0 -1 -9.94387e-5 0 -1 1.0472e-4 0 -1 -7.13639e-5 0 -1 1.00224e-4 0 -1 -3.68978e-4 0 -1 2.18635e-4 0 -1 -3.20869e-4 0 -1 -4.89659e-5 0 -1 -6.83112e-5 0 1 -1.32953e-4 0 1 4.69431e-6 0 1 -4.80523e-5 0 1 3.81237e-5 0 1 -4.52999e-5 0 1 4.76078e-5 0 1 -4.29758e-5 0 1 1.42685e-4 0 1 -8.30771e-5 0 1 8.70872e-5 0 1 4.05033e-5 0 1 2.08572e-5 0 1 9.91038e-5 0 1 -8.15472e-5 0 1 -3.89673e-5 0 1 -1.99049e-5 0 1 5.75684e-5 0 1 -1.89415e-5 0 1 1.92677e-5 0 1 9.37395e-6 0 1 -1.91962e-5 0 1 -5.59247e-5 0 1 -5.76195e-5 0 1 -1.49587e-4 0 1 1.55466e-4 0 1 -1.51834e-4 0 1 -1.56772e-4 0 1 -1.77405e-4 0 1 1.59574e-4 0 1 -2.45606e-5 0 1 1.22833e-4 0 1 3.91727e-4 0 1 0.7880766 -0.6155773 0 -0.2373465 0.9714251 0 0.6511209 -0.7589741 0 -0.3002757 0.9538525 0 0.5665946 -0.8239968 0 0.5010566 -0.8654145 0 -0.4967153 0.8679136 0 0.4183416 -0.9082897 0 -0.6099439 0.7924447 0 0.3252315 -0.9456344 0 1 -1.21037e-5 0 0.2334357 -0.9723723 0 0.999924 -0.01233553 0 -0.7123929 0.7017809 0 0.1417184 -0.989907 0 -0.08232599 0.9966055 0 -0.5290538 0.8485884 0 0.7688387 0.6394428 0 0.7306739 0.6827268 0 -0.2334384 -0.9723716 0 0.6773844 0.7356293 0 -0.3252297 -0.9456351 0 0.6128332 0.7902124 0 -0.4183437 -0.9082889 0 -0.5010496 -0.8654186 0 0.4848958 0.874572 0 0.4355358 0.9001715 0 -0.651123 -0.7589722 0 0.3751614 0.9269596 0 -0.7652364 -0.6437495 0 0.3067111 0.9518027 0 -0.7880771 -0.6155765 0 0.2370809 0.97149 0 -0.50457 -0.8633708 0 0.01954817 -0.9998089 0 -0.5558311 0.8312954 0 0.1034945 0.99463 0 0.0570147 -0.9983734 0 0.03591859 0.9993547 0 -0.1071113 0.9942471 0 -0.03457868 0.9994021 0</float_array>
          <technique_common>
            <accessor source="#Circle_003-mesh-normals-array" count="235" stride="3">
              <param name="X" type="float"/>
              <param name="Y" type="float"/>
              <param name="Z" type="float"/>
            </accessor>
          </technique_common>
        </source>
        <source id="Circle_003-mesh-map-0">
          <float_array id="Circle_003-mesh-map-0-array" count="2184">0 0 0 0 0 0 0 0 0 0 0 0 0 0 0 0 0 0 0 0 0 0 0 0 0 0 0 0 0 0 0 0 0 0 0 0 0 0 0 0 0 0 0 0 0 0 0 0 0 0 0 0 0 0 0 0 0 0 0 0 0 0 0 0 0 0 0 0 0 0 0 0 0 0 0 0 0 0 0 0 0 0 0 0 0 0 0 0 0 0 0 0 0 0 0 0 0 0 0 0 0 0 0 0 0 0 0 0 0 0 0 0 0 0 0 0 0 0 0 0 0 0 0 0 0 0 0 0 0 0 0 0 0 0 0 0 0 0 0 0 0 0 0 0 0 0 0 0 0 0 0 0 0 0 0 0 0 0 0 0 0 0 0 0 0 0 0 0 0 0 0 0 0 0 0 0 0 0 0 0 0 0 0 0 0 0 0 0 0 0 0 0 0 0 0 0 0 0 0 0 0 0 0 0 0 0 0 0 0 0 0 0 0 0 0 0 0 0 0 0 0 0 0 0 0 0 0 0 0 0 0 0 0 0 0 0 0 0 0 0 0 0 0 0 0 0 0 0 0 0 0 0 0 0 0 0 0 0 0 0 0 0 0 0 0 0 0 0 0 0 0 0 0 0 0 0 0 0 0 0 0 0 0 0 0 0 0 0 0 0 0 0 0 0 0 0 0 0 0 0 0 0 0 0 0 0 0 0 0 0 0 0 0 0 0 0 0 0 0 0 0 0 0 0 0 0 0 0 0 0 0 0 0 0 0 0 0 0 0 0 0 0 0 0 0 0 0 0 0 0 0 0 0 0 0 0 0 0 0 0 0 0 0 0 0 0 0 0 0 0 0 0 0 0 0 0 0 0 0 0 0 0 0 0 0 0 0 0 0 0 0 0 0 0 0 0 0 0 0 0 0 0 0 0 0 0 0 0 0 0 0 0 0 0 0 0 0 0 0 0 0 0 0 0 0 0 0 0 0 0 0 0 0 0 0 0 0 0 0 0 0 0 0 0 0 0 0 0 0 0 0 0 0 0 0 0 0 0 0 0 0 0 0 0 0 0 0 0 0 0 0 0 0 0 0 0 0 0 0 0 0 0 0 0 0 0 0 0 0 0 0 0 0 0 0 0 0 0 0 0 0 0 0 0 0 0 0 0 0 0 0 0 0 0 0 0 0 0 0 0 0 0 0 0 0 0 0 0 0 0 0 0 0 0 0 0 0 0 0 0 0 0 0 0 0 0 0 0 0 0 0 0 0 0 0 0 0 0 0 0 0 0 0 0 0 0 0 0 0 0 0 0 0 0 0 0 0 0 0 0 0 0 0 0 0 0 0 0 0 0 0 0 0 0 0 0 0 0 0 0 0 0 0 0 0 0 0 0 0 0 0 0 0 0 0 0 0 0 0 0 0 0 0 0 0 0 0 0 0 0 0 0 0 0 0 0 0 0 0 0 0 0 0 0 0 0 0 0 0 0 0 0 0 0 0 0 0 0 0 0 0 0 0 0 0 0 0 0 0 0 0 0 0 0 0 0 0 0 0 0 0 0 0 0 0 0 0 0 0 0 0 0 0 0 0 0 0 0 0 0 0 0 0 0 0 0 0 0 0 0 0 0 0 0 0 0 0 0 0 0 0 0 0 0 0 0 0 0 0 0 0 0 0 0 0 0 0 0 0 0 0 0 0 0 0 0 0 0 0 0 0 0 0 0 0 0 0 0 0 0 0 0 0 0 0 0 0 0 0 0 0 0 0 0 0 0 0 0 0 0 0 0 0 0 0 0 0 0 0 0 0 0 0 0 0 0 0 0 0 0 0 0 0 0 0 0 0 0 0 0 0 0 0 0 0 0 0 0 0 0 0 0 0 0 0 0 0 0 0 0 0 0 0 0 0 0 0 0 0 0 0 0 0 0 0 0 0 0 0 0 0 0 0 0 0 0 0 0 0 0 0 0 0 0 0 0 0 0 0 0 0 0 0 0 0 0 0 0 0 0 0 0 0 0 0 0 0 0 0 0 0 0 0 0 0 0 0 0 0 0 0 0 0 0 0 0 0 0 0 0 0 0 0 0 0 0 0 0 0 0 0 0 0 0 0 0 0 0 0 0 0 0 0 0 0 0 0 0 0 0 0 0 0 0 0 0 0 0 0 0 0 0 0 0 0 0 0 0 0 0 0 0 0 0 0 0 0 0 0 0 0 0 0 0 0 0 0 0 0 0 0 0 0 0 0 0 0 0 0 0 0 0 0 0 0 0 0 0 0 0 0 0 0 0 0 0 0 0 0 0 0 0 0 0 0 0 0 0 0 0 0 0 0 0 0 0 0 0 0 0 0 0 0 0 0 0 0 0 0 0 0 0 0 0 0 0 0 0 0 0 0 0 0 0 0 0 0 0 0 0 0 0 0 0 0 0 0 0 0 0 0 0 0 0 0 0 0 0 0 0 0 0 0 0 0 0 0 0 0 0 0 0 0 0 0 0 0 0 0 0 0 0 0 0 0 0 0 0 0 0 0 0 0 0 0 0 0 0 0 0 0 0 0 0 0 0 0 0 0 0 0 0 0 0 0 0 0 0 0 0 0 0 0 0 0 0 0 0 0 0 0 0 0 0 0 0 0 0 0 0 0 0 0 0 0 0 0 0 0 0 0 0 0 0 0 0 0 0 0 0 0 0 0 0 0 0 0 0 0 0 0 0 0 0 0 0 0 0 0 0 0 0 0 0 0 0 0 0 0 0 0 0 0 0 0 0 0 0 0 0 0 0 0 0 0 0 0 0 0 0 0 0 0 0 0 0 0 0 0 0 0 0 0 0 0 0 0 0 0 0 0 0 0 0 0 0 0 0 0 0 0 0 0 0 0 0 0 0 0 0 0 0 0 0 0 0 0 0 0 0 0 0 0 0 0 0 0 0 0 0 0 0 0 0 0 0 0 0 0 0 0 0 0 0 0 0 0 0 0 0 0 0 0 0 0 0 0 0 0 0 0 0 0 0 0 0 0 0 0 0 0 0 0 0 0 0 0 0 0 0 0 0 0 0 0 0 0 0 0 0 0 0 0 0 0 0 0 0 0 0 0 0 0 0 0 0 0 0 0 0 0 0 0 0 0 0 0 0 0 0 0 0 0 0 0 0 0 0 0 0 0 0 0 0 0 0 0 0 0 0 0 0 0 0 0 0 0 0 0 0 0 0 0 0 0 0 0 0 0 0 0 0 0 0 0 0 0 0 0 0 0 0 0 0 0 0 0 0 0 0 0 0 0 0 0 0 0 0 0 0 0 0 0 0 0 0 0 0 0 0 0 0 0 0 0 0 0 0 0 0 0 0 0 0 0 0 0 0 0 0 0 0 0 0 0 0 0 0 0 0 0 0 0 0 0 0 0 0 0 0 0 0 0 0 0 0 0 0 0 0 0 0 0 0 0 0 0 0 0 0 0 0 0 0 0 0 0 0 0 0 0 0 0 0 0 0 0 0 0 0 0 0 0 0 0 0 0 0 0 0 0 0 0 0 0 0 0 0 0 0 0 0 0 0 0 0 0 0 0 0 0 0 0 0 0 0 0 0 0 0 0 0 0 0 0 0 0 0 0 0 0 0 0 0 0 0 0 0 0 0 0 0 0 0 0 0 0 0 0 0 0 0 0 0 0 0 0 0 0 0 0 0 0 0 0 0 0 0 0 0 0 0 0 0 0 0 0 0 0 0 0 0 0 0 0 0 0 0 0 0 0 0 0 0 0 0 0 0 0 0 0 0 0 0 0 0 0 0 0 0 0 0 0 0 0 0 0 0 0 0 0 0 0 0 0 0 0 0 0 0 0 0 0 0 0 0 0 0 0 0 0 0 0 0 0 0 0 0 0 0 0 0 0 0 0 0 0 0 0 0 0 0 0 0 0 0 0 0 0 0 0 0 0 0 0 0 0 0 0 0 0 0 0 0 0 0 0 0 0 0 0 0 0 0 0 0 0 0 0 0 0 0 0 0 0 0 0 0 0 0 0 0 0 0 0 0 0 0 0 0 0 0 0 0 0 0 0 0 0 0 0 0 0 0 0 0 0 0 0 0 0 0 0 0 0 0 0 0 0 0 0 0 0 0 0 0 0 0 0 0 0 0 0 0 0 0 0 0 0 0 0 0 0 0 0 0 0 0 0 0 0 0 0 0 0 0 0 0 0 0 0 0 0 0 0 0 0 0 0 0 0 0 0 0 0 0 0 0 0 0 0 0 0 0 0 0 0 0 0 0 0 0 0 0 0 0 0 0 0 0 0 0 0 0 0 0 0 0 0 0 0 0 0 0 0 0 0 0 0 0 0 0 0 0 0 0 0 0 0 0 0 0 0 0 0 0 0 0 0 0 0 0 0 0 0 0 0 0 0 0 0 0 0 0 0 0 0 0 0 0 0 0 0 0 0 0 0 0 0 0 0 0 0 0 0 0 0 0 0 0 0 0 0 0 0 0 0 0 0 0 0 0 0 0 0 0 0 0 0 0 0 0 0 0 0 0 0 0 0 0 0 0 0 0 0 0 0 0 0 0 0 0 0 0 0 0 0 0 0 0 0 0 0 0 0 0 0 0 0 0 0 0 0 0 0 0 0 0 0 0 0 0 0 0 0 0 0 0 0 0 0 0 0 0 0 0 0 0 0 0 0 0 0 0 0 0 0 0 0 0 0 0 0 0 0 0 0 0 0 0 0 0 0 0 0 0 0 0 0 0 0 0 0 0 0 0 0 0 0 0 0 0 0 0 0 0 0 0 0 0 0 0 0 0 0 0 0 0 0 0 0 0 0 0 0 0 0 0 0 0 0 0 0 0 0 0 0 0 0 0 0 0 0 0 0 0 0 0 0 0 0 0 0 0 0 0 0 0 0 0 0 0 0 0 0 0 0 0 0 0 0 0 0 0 0 0 0 0 0 0 0 0 0 0</float_array>
          <technique_common>
            <accessor source="#Circle_003-mesh-map-0-array" count="1092" stride="2">
              <param name="S" type="float"/>
              <param name="T" type="float"/>
            </accessor>
          </technique_common>
        </source>
        <vertices id="Circle_003-mesh-vertices">
          <input semantic="POSITION" source="#Circle_003-mesh-positions"/>
        </vertices>
        <triangles material="gora_dol-material" count="236">
          <input semantic="VERTEX" source="#Circle_003-mesh-vertices" offset="0"/>
          <input semantic="NORMAL" source="#Circle_003-mesh-normals" offset="1"/>
          <input semantic="TEXCOORD" source="#Circle_003-mesh-map-0" offset="2" set="0"/>
          <p>11 0 0 57 0 1 56 0 2 56 1 3 27 1 4 26 1 5 10 2 6 58 2 7 57 2 8 57 3 9 28 3 10 27 3 11 9 1 12 59 1 13 58 1 14 58 4 15 29 4 16 28 4 17 52 1 18 60 1 19 59 1 20 59 5 21 30 5 22 29 5 23 8 1 24 61 1 25 60 1 26 60 6 27 31 6 28 30 6 29 53 7 30 62 7 31 61 7 32 61 8 33 32 8 34 31 8 35 7 9 36 63 9 37 62 9 38 62 10 39 33 10 40 32 10 41 6 11 42 64 11 43 63 11 44 63 12 45 34 12 46 33 12 47 54 13 48 65 13 49 64 13 50 64 14 51 35 14 52 34 14 53 5 1 54 66 1 55 65 1 56 65 15 57 36 15 58 35 15 59 4 16 60 67 16 61 66 16 62 66 17 63 37 17 64 36 17 65 3 18 66 68 18 67 67 18 68 67 19 69 38 19 70 37 19 71 55 20 72 69 20 73 68 20 74 68 21 75 39 21 76 38 21 77 1 1 78 69 1 79 2 1 80 70 1 81 39 1 82 69 1 83 0 22 84 70 22 85 1 22 86 71 1 87 13 1 88 70 1 89 51 1 90 71 1 91 0 1 92 72 1 93 14 1 94 71 1 95 50 1 96 72 1 97 51 1 98 73 23 99 15 23 100 72 23 101 49 24 102 73 24 103 50 24 104 74 1 105 16 1 106 73 1 107 48 1 108 74 1 109 49 1 110 75 1 111 17 1 112 74 1 113 47 1 114 75 1 115 48 1 116 76 25 117 18 25 118 75 25 119 46 1 120 76 1 121 47 1 122 77 1 123 19 1 124 76 1 125 45 1 126 77 1 127 46 1 128 78 1 129 20 1 130 77 1 131 44 26 132 78 26 133 45 26 134 79 1 135 21 1 136 78 1 137 43 27 138 79 27 139 44 27 140 80 1 141 22 1 142 79 1 143 42 1 144 80 1 145 43 1 146 81 1 147 23 1 148 80 1 149 41 1 150 81 1 151 42 1 152 82 28 153 24 28 154 81 28 155 87 29 156 56 29 157 89 29 158 56 1 159 88 1 160 89 1 161 85 1 162 82 1 163 41 1 164 82 1 165 84 1 166 25 1 167 89 30 168 40 30 169 83 30 170 87 31 171 83 31 172 12 31 173 40 1 174 91 1 175 83 1 176 107 32 177 151 32 178 106 32 179 150 32 180 126 32 181 151 32 182 106 32 183 152 32 184 105 32 185 151 32 186 127 32 187 152 32 188 105 33 189 153 33 190 104 33 191 152 32 192 128 32 193 153 32 194 104 32 195 154 32 196 103 32 197 153 34 198 129 34 199 154 34 200 103 35 201 155 35 202 102 35 203 154 36 204 130 36 205 155 36 206 102 32 207 156 32 208 101 32 209 155 32 210 131 32 211 156 32 212 101 32 213 157 32 214 100 32 215 156 37 216 132 37 217 157 37 218 100 32 219 158 32 220 99 32 221 157 32 222 133 32 223 158 32 224 99 38 225 159 38 226 98 38 227 158 32 228 134 32 229 159 32 230 98 32 231 160 32 232 97 32 233 159 32 234 135 32 235 160 32 236 97 32 237 161 32 238 96 32 239 160 32 240 136 32 241 161 32 242 96 32 243 162 32 244 95 32 245 161 32 246 137 32 247 162 32 248 95 32 249 163 32 250 94 32 251 162 32 252 111 32 253 163 32 254 163 39 255 93 39 256 94 39 257 111 40 258 164 40 259 163 40 260 164 41 261 92 41 262 93 41 263 112 42 264 165 42 265 164 42 266 165 43 267 149 43 268 92 43 269 113 44 270 166 44 271 165 44 272 166 45 273 148 45 274 149 45 275 114 46 276 167 46 277 166 46 278 167 32 279 147 32 280 148 32 281 115 47 282 168 47 283 167 47 284 168 48 285 146 48 286 147 48 287 116 49 288 169 49 289 168 49 290 169 50 291 145 50 292 146 50 293 117 51 294 170 51 295 169 51 296 170 52 297 144 52 298 145 52 299 118 53 300 171 53 301 170 53 302 171 54 303 143 54 304 144 54 305 119 55 306 172 55 307 171 55 308 172 56 309 142 56 310 143 56 311 120 57 312 173 57 313 172 57 314 173 58 315 141 58 316 142 58 317 121 59 318 174 59 319 173 59 320 174 60 321 140 60 322 141 60 323 122 61 324 175 61 325 174 61 326 175 62 327 139 62 328 140 62 329 123 63 330 176 63 331 175 63 332 108 32 333 150 32 334 107 32 335 138 64 336 150 64 337 178 64 338 181 65 339 176 65 340 179 65 341 180 32 342 176 32 343 124 32 344 110 66 345 178 66 346 109 66 347 109 67 348 108 67 349 177 67 350 182 32 351 110 32 352 109 32 353 11 1 546 10 1 547 57 1 548 56 1 549 57 1 550 27 1 551 10 1 552 9 1 553 58 1 554 57 1 555 58 1 556 28 1 557 9 1 558 52 1 559 59 1 560 58 1 561 59 1 562 29 1 563 52 127 564 8 127 565 60 127 566 59 1 567 60 1 568 30 1 569 8 128 570 53 128 571 61 128 572 60 1 573 61 1 574 31 1 575 53 1 576 7 1 577 62 1 578 61 1 579 62 1 580 32 1 581 7 1 582 6 1 583 63 1 584 62 129 585 63 129 586 33 129 587 6 1 588 54 1 589 64 1 590 63 130 591 64 130 592 34 130 593 54 1 594 5 1 595 65 1 596 64 131 597 65 131 598 35 131 599 5 132 600 4 132 601 66 132 602 65 1 603 66 1 604 36 1 605 4 1 606 3 1 607 67 1 608 66 1 609 67 1 610 37 1 611 3 1 612 55 1 613 68 1 614 67 1 615 68 1 616 38 1 617 55 1 618 2 1 619 69 1 620 68 133 621 69 133 622 39 133 623 1 134 624 70 134 625 69 134 626 70 135 627 13 135 628 39 135 629 0 136 630 71 136 631 70 136 632 71 137 633 14 137 634 13 137 635 51 138 636 72 138 637 71 138 638 72 139 639 15 139 640 14 139 641 50 140 642 73 140 643 72 140 644 73 141 645 16 141 646 15 141 647 49 142 648 74 142 649 73 142 650 74 143 651 17 143 652 16 143 653 48 144 654 75 144 655 74 144 656 75 145 657 18 145 658 17 145 659 47 146 660 76 146 661 75 146 662 76 147 663 19 147 664 18 147 665 46 148 666 77 148 667 76 148 668 77 149 669 20 149 670 19 149 671 45 1 672 78 1 673 77 1 674 78 150 675 21 150 676 20 150 677 44 1 678 79 1 679 78 1 680 79 151 681 22 151 682 21 151 683 43 152 684 80 152 685 79 152 686 80 153 687 23 153 688 22 153 689 42 1 690 81 1 691 80 1 692 81 154 693 24 154 694 23 154 695 41 155 696 82 155 697 81 155 698 82 156 699 25 156 700 24 156 701 87 157 702 11 157 703 56 157 704 56 1 705 26 1 706 88 1 707 85 158 708 86 158 709 82 158 710 82 159 711 86 159 712 84 159 713 89 1 714 88 1 715 40 1 716 87 160 717 89 160 718 83 160 719 40 1 720 90 1 721 91 1 722 107 161 723 150 161 724 151 161 725 150 32 726 125 32 727 126 32 728 106 162 729 151 162 730 152 162 731 151 163 732 126 163 733 127 163 734 105 164 735 152 164 736 153 164 737 152 165 738 127 165 739 128 165 740 104 166 741 153 166 742 154 166 743 153 167 744 128 167 745 129 167 746 103 168 747 154 168 748 155 168 749 154 169 750 129 169 751 130 169 752 102 170 753 155 170 754 156 170 755 155 171 756 130 171 757 131 171 758 101 172 759 156 172 760 157 172 761 156 173 762 131 173 763 132 173 764 100 174 765 157 174 766 158 174 767 157 175 768 132 175 769 133 175 770 99 176 771 158 176 772 159 176 773 158 177 774 133 177 775 134 177 776 98 178 777 159 178 778 160 178 779 159 32 780 134 32 781 135 32 782 97 179 783 160 179 784 161 179 785 160 180 786 135 180 787 136 180 788 96 181 789 161 181 790 162 181 791 161 182 792 136 182 793 137 182 794 95 183 795 162 183 796 163 183 797 162 184 798 137 184 799 111 184 800 163 32 801 164 32 802 93 32 803 111 32 804 112 32 805 164 32 806 164 185 807 165 185 808 92 185 809 112 32 810 113 32 811 165 32 812 165 32 813 166 32 814 149 32 815 113 186 816 114 186 817 166 186 818 166 187 819 167 187 820 148 187 821 114 32 822 115 32 823 167 32 824 167 32 825 168 32 826 147 32 827 115 32 828 116 32 829 168 32 830 168 188 831 169 188 832 146 188 833 116 32 834 117 32 835 169 32 836 169 32 837 170 32 838 145 32 839 117 32 840 118 32 841 170 32 842 170 32 843 171 32 844 144 32 845 118 32 846 119 32 847 171 32 848 171 32 849 172 32 850 143 32 851 119 32 852 120 32 853 172 32 854 172 189 855 173 189 856 142 189 857 120 32 858 121 32 859 173 32 860 173 32 861 174 32 862 141 32 863 121 32 864 122 32 865 174 32 866 174 32 867 175 32 868 140 32 869 122 190 870 123 190 871 175 190 872 175 32 873 176 32 874 139 32 875 123 32 876 124 32 877 176 32 878 108 191 879 178 191 880 150 191 881 138 32 882 125 32 883 150 32 884 181 32 885 139 32 886 176 32 887 180 192 888 179 192 889 176 192 890 110 32 891 138 32 892 178 32 893 109 193 894 178 193 895 108 193 896 182 32 897 183 32 898 110 32 899</p>
        </triangles>
        <triangles material="tyl-material" count="60">
          <input semantic="VERTEX" source="#Circle_003-mesh-vertices" offset="0"/>
          <input semantic="NORMAL" source="#Circle_003-mesh-normals" offset="1"/>
          <input semantic="TEXCOORD" source="#Circle_003-mesh-map-0" offset="2" set="0"/>
          <p>129 68 354 29 68 355 30 68 356 130 70 360 30 70 361 31 70 362 131 73 369 31 73 370 32 73 371 132 75 375 32 75 376 33 75 377 133 77 381 33 77 382 34 77 383 180 78 384 25 78 385 84 78 386 134 80 390 34 80 391 35 80 392 135 83 399 35 83 400 36 83 401 136 86 408 36 86 409 37 86 410 137 89 417 37 89 418 38 89 419 111 92 426 38 92 427 39 92 428 138 78 429 40 78 430 88 78 431 125 78 432 88 78 433 26 78 434 112 93 435 39 93 436 13 93 437 113 95 441 13 95 442 14 95 443 114 97 447 14 97 448 15 97 449 115 99 456 15 99 457 16 99 458 110 78 462 90 78 463 40 78 464 116 101 465 16 101 466 17 101 467 117 104 474 17 104 475 18 104 476 118 106 480 18 106 481 19 106 482 119 108 486 19 108 487 20 108 488 120 110 492 20 110 493 21 110 494 121 112 498 21 112 499 22 112 500 122 114 504 22 114 505 23 114 506 123 116 510 23 116 511 24 116 512 124 118 516 24 118 517 25 118 518 126 78 522 26 78 523 27 78 524 127 122 531 27 122 532 28 122 533 128 125 540 28 125 541 29 125 542 129 194 900 128 194 901 29 194 902 130 70 906 129 70 907 30 70 908 131 196 915 130 196 916 31 196 917 132 198 921 131 198 922 32 198 923 133 199 927 132 199 928 33 199 929 180 78 930 124 78 931 25 78 932 134 201 936 133 201 937 34 201 938 135 203 945 134 203 946 35 203 947 136 205 954 135 205 955 36 205 956 137 208 963 136 208 964 37 208 965 111 92 972 137 92 973 38 92 974 138 78 975 110 78 976 40 78 977 125 78 978 138 78 979 88 78 980 112 93 981 111 93 982 39 93 983 113 95 987 112 95 988 13 95 989 114 213 993 113 213 994 14 213 995 115 215 1002 114 215 1003 15 215 1004 110 78 1008 183 78 1009 90 78 1010 116 217 1011 115 217 1012 16 217 1013 117 218 1020 116 218 1021 17 218 1022 118 106 1026 117 106 1027 18 106 1028 119 221 1032 118 221 1033 19 221 1034 120 223 1038 119 223 1039 20 223 1040 121 225 1044 120 225 1045 21 225 1046 122 227 1050 121 227 1051 22 227 1052 123 116 1056 122 116 1057 23 116 1058 124 228 1062 123 228 1063 24 228 1064 126 78 1068 125 78 1069 26 78 1070 127 231 1077 126 231 1078 27 231 1079 128 125 1086 127 125 1087 28 125 1088</p>
        </triangles>
        <triangles material="front-material" count="68">
          <input semantic="VERTEX" source="#Circle_003-mesh-vertices" offset="0"/>
          <input semantic="NORMAL" source="#Circle_003-mesh-normals" offset="1"/>
          <input semantic="TEXCOORD" source="#Circle_003-mesh-map-0" offset="2" set="0"/>
          <p>97 69 357 3 69 358 4 69 359 109 71 363 12 71 364 83 71 365 98 72 366 4 72 367 5 72 368 99 74 372 5 74 373 54 74 374 101 76 378 6 76 379 7 76 380 102 79 387 7 79 388 53 79 389 139 81 393 85 81 394 41 81 395 104 82 396 8 82 397 52 82 398 179 84 402 84 84 403 86 84 404 106 85 405 9 85 406 10 85 407 181 87 411 86 87 412 85 87 413 107 88 414 10 88 415 11 88 416 177 90 420 87 90 421 12 90 422 108 91 423 11 91 424 87 91 425 140 94 438 41 94 439 42 94 440 141 96 444 42 96 445 43 96 446 142 98 450 43 98 451 44 98 452 183 71 453 91 71 454 90 71 455 143 100 459 44 100 460 45 100 461 144 102 468 45 102 469 46 102 470 182 103 471 83 103 472 91 103 473 145 105 477 46 105 478 47 105 479 146 107 483 47 107 484 48 107 485 147 109 489 48 109 490 49 109 491 148 111 495 49 111 496 50 111 497 149 113 501 50 113 502 51 113 503 92 115 507 51 115 508 0 115 509 105 117 513 52 117 514 9 117 515 103 119 519 53 119 520 8 119 521 93 120 525 0 120 526 1 120 527 100 121 528 54 121 529 6 121 530 94 123 534 1 123 535 2 123 536 96 124 537 55 124 538 3 124 539 95 126 543 2 126 544 55 126 545 97 69 903 96 69 904 3 69 905 109 71 909 177 71 910 12 71 911 98 195 912 97 195 913 4 195 914 99 197 918 98 197 919 5 197 920 101 76 924 100 76 925 6 76 926 102 200 933 101 200 934 7 200 935 139 81 939 181 81 940 85 81 941 104 202 942 103 202 943 8 202 944 179 204 948 180 204 949 84 204 950 106 85 951 105 85 952 9 85 953 181 206 957 179 206 958 86 206 959 107 207 960 106 207 961 10 207 962 177 209 966 108 209 967 87 209 968 108 210 969 107 210 970 11 210 971 140 211 984 139 211 985 41 211 986 141 212 990 140 212 991 42 212 992 142 214 996 141 214 997 43 214 998 183 71 999 182 71 1000 91 71 1001 143 216 1005 142 216 1006 44 216 1007 144 102 1014 143 102 1015 45 102 1016 182 103 1017 109 103 1018 83 103 1019 145 219 1023 144 219 1024 46 219 1025 146 220 1029 145 220 1030 47 220 1031 147 222 1035 146 222 1036 48 222 1037 148 224 1041 147 224 1042 49 224 1043 149 226 1047 148 226 1048 50 226 1049 92 115 1053 149 115 1054 51 115 1055 105 117 1059 104 117 1060 52 117 1061 103 229 1065 102 229 1066 53 229 1067 93 230 1071 92 230 1072 0 230 1073 100 121 1074 99 121 1075 54 121 1076 94 232 1080 93 232 1081 1 232 1082 96 233 1083 95 233 1084 55 233 1085 95 234 1089 94 234 1090 2 234 1091</p>
        </triangles>
      </mesh>
    </geometry>
  </library_geometries>
  <library_visual_scenes>
    <visual_scene id="Scene" name="Scene">
      <node id="luna_end2" name="luna_end2" type="NODE">
        <matrix sid="transform">1 0 0 0.08842251 0 1 0 -0.03034263 0 0 1 1.35 0 0 0 1</matrix>
        <instance_geometry url="#Circle_003-mesh" name="luna_end2">
          <bind_material>
            <technique_common>
              <instance_material symbol="gora_dol-material" target="#gora_dol-material">
                <bind_vertex_input semantic="UVMap" input_semantic="TEXCOORD" input_set="0"/>
              </instance_material>
              <instance_material symbol="tyl-material" target="#tyl-material">
                <bind_vertex_input semantic="UVMap" input_semantic="TEXCOORD" input_set="0"/>
              </instance_material>
              <instance_material symbol="front-material" target="#front-material">
                <bind_vertex_input semantic="UVMap" input_semantic="TEXCOORD" input_set="0"/>
              </instance_material>
            </technique_common>
          </bind_material>
        </instance_geometry>
      </node>
    </visual_scene>
  </library_visual_scenes>
  <scene>
    <instance_visual_scene url="#Scene"/>
  </scene>
</COLLADA>