# Blender v3.2.0 OBJ File: 'panele.blend'
# www.blender.org
mtllib luna_end2.mtl
o luna_end2_Circle.003
v 0.093343 0.000000 0.021542
v 0.092072 0.000000 0.021410
v 0.090795 0.000000 0.021364
v 0.088247 0.000000 0.021545
v 0.086990 0.000000 0.021769
v 0.085751 0.000000 0.022072
v 0.083351 0.000000 0.022925
v 0.082208 0.000000 0.023480
v 0.080053 0.000000 0.024815
v 0.078099 0.000000 0.026418
v 0.077254 0.000000 0.027351
v 0.076373 0.000000 0.028245
v 0.075200 0.000000 0.028659
v 0.092059 0.000000 0.031135
v 0.093312 0.000000 0.031314
v 0.094541 0.000000 0.031610
v 0.095735 0.000000 0.032020
v 0.096880 0.000000 0.032548
v 0.097968 0.000000 0.033178
v 0.099003 0.000000 0.033889
v 0.099953 0.000000 0.034704
v 0.100755 0.000000 0.035658
v 0.101522 0.000000 0.036639
v 0.102593 0.000000 0.037265
v 0.103857 0.000000 0.037354
v 0.105122 0.000000 0.037329
v 0.076465 0.000000 0.037338
v 0.077731 0.000000 0.037338
v 0.078995 0.000000 0.037265
v 0.080066 0.000000 0.036639
v 0.080832 0.000000 0.035658
v 0.081635 0.000000 0.034704
v 0.082585 0.000000 0.033889
v 0.083619 0.000000 0.033178
v 0.084708 0.000000 0.032548
v 0.085853 0.000000 0.032020
v 0.087047 0.000000 0.031610
v 0.088276 0.000000 0.031314
v 0.089529 0.000000 0.031135
v 0.090794 0.000000 0.031075
v 0.075200 0.000000 0.037338
v 0.105214 0.000000 0.028383
v 0.104284 0.000000 0.027264
v 0.103456 0.000000 0.026378
v 0.102561 0.000000 0.025554
v 0.101562 0.000000 0.024779
v 0.100490 0.000000 0.024099
v 0.099379 0.000000 0.023484
v 0.098235 0.000000 0.022930
v 0.097055 0.000000 0.022452
v 0.095841 0.000000 0.022061
v 0.094601 0.000000 0.021759
v 0.079050 0.000000 0.025587
v 0.081106 0.000000 0.024111
v 0.084535 0.000000 0.022455
v 0.089517 0.000000 0.021408
v 0.076463 0.000000 0.032491
v 0.077666 0.000000 0.032435
v 0.078645 0.000000 0.031768
v 0.079474 0.000000 0.031016
v 0.080351 0.000000 0.030128
v 0.081327 0.000000 0.029342
v 0.082369 0.000000 0.028641
v 0.083463 0.000000 0.028022
v 0.084604 0.000000 0.027486
v 0.085785 0.000000 0.027043
v 0.087004 0.000000 0.026706
v 0.088248 0.000000 0.026478
v 0.089506 0.000000 0.026344
v 0.090772 0.000000 0.026296
v 0.092037 0.000000 0.026341
v 0.093294 0.000000 0.026488
v 0.094535 0.000000 0.026736
v 0.095750 0.000000 0.027083
v 0.096931 0.000000 0.027527
v 0.098072 0.000000 0.028063
v 0.099167 0.000000 0.028681
v 0.100212 0.000000 0.029377
v 0.101182 0.000000 0.030171
v 0.102052 0.000000 0.031065
v 0.102902 0.000000 0.031981
v 0.103899 0.000000 0.032738
v 0.105122 0.000000 0.033027
v 0.075200 0.000000 0.032233
v 0.105792 0.000000 0.037329
v 0.105838 0.000000 0.029270
v 0.105793 0.000000 0.032998
v 0.075786 0.000000 0.028611
v 0.075832 0.000000 0.037338
v 0.075832 0.000000 0.032378
v 0.070238 0.000000 0.037338
v 0.070238 0.000000 0.032233
v 0.093343 2.700000 0.021542
v 0.092072 2.700000 0.021410
v 0.090795 2.700000 0.021364
v 0.089517 2.700000 0.021408
v 0.088247 2.700000 0.021545
v 0.086990 2.700000 0.021769
v 0.085751 2.700000 0.022072
v 0.084535 2.700000 0.022455
v 0.083351 2.700000 0.022925
v 0.082208 2.700000 0.023480
v 0.081106 2.700000 0.024111
v 0.080053 2.700000 0.024815
v 0.079050 2.700000 0.025587
v 0.078099 2.700000 0.026418
v 0.077254 2.700000 0.027351
v 0.076373 2.700000 0.028245
v 0.075786 2.700000 0.028611
v 0.075200 2.700000 0.032233
v 0.075200 2.700000 0.037338
v 0.090794 2.700000 0.031075
v 0.092059 2.700000 0.031135
v 0.093312 2.700000 0.031314
v 0.094541 2.700000 0.031610
v 0.095735 2.700000 0.032020
v 0.096880 2.700000 0.032548
v 0.097968 2.700000 0.033178
v 0.099003 2.700000 0.033889
v 0.099953 2.700000 0.034704
v 0.100755 2.700000 0.035658
v 0.101522 2.700000 0.036639
v 0.102593 2.700000 0.037265
v 0.103857 2.700000 0.037354
v 0.105122 2.700000 0.037329
v 0.076465 2.700000 0.037338
v 0.077731 2.700000 0.037338
v 0.078995 2.700000 0.037265
v 0.080066 2.700000 0.036639
v 0.080832 2.700000 0.035658
v 0.081635 2.700000 0.034704
v 0.082585 2.700000 0.033889
v 0.083619 2.700000 0.033178
v 0.084708 2.700000 0.032548
v 0.085853 2.700000 0.032020
v 0.087047 2.700000 0.031610
v 0.088276 2.700000 0.031314
v 0.089529 2.700000 0.031135
v 0.075832 2.700000 0.037338
v 0.105214 2.700000 0.028383
v 0.104284 2.700000 0.027264
v 0.103456 2.700000 0.026378
v 0.102561 2.700000 0.025554
v 0.101562 2.700000 0.024779
v 0.100490 2.700000 0.024099
v 0.099379 2.700000 0.023484
v 0.098235 2.700000 0.022930
v 0.097055 2.700000 0.022452
v 0.095841 2.700000 0.022061
v 0.094601 2.700000 0.021759
v 0.076463 2.700000 0.032491
v 0.077666 2.700000 0.032435
v 0.078645 2.700000 0.031768
v 0.079474 2.700000 0.031016
v 0.080351 2.700000 0.030128
v 0.081327 2.700000 0.029342
v 0.082369 2.700000 0.028641
v 0.083463 2.700000 0.028022
v 0.084604 2.700000 0.027486
v 0.085785 2.700000 0.027043
v 0.087004 2.700000 0.026706
v 0.088248 2.700000 0.026478
v 0.089506 2.700000 0.026344
v 0.090772 2.700000 0.026296
v 0.092037 2.700000 0.026341
v 0.093294 2.700000 0.026488
v 0.094535 2.700000 0.026736
v 0.095750 2.700000 0.027083
v 0.096931 2.700000 0.027527
v 0.098072 2.700000 0.028063
v 0.099167 2.700000 0.028681
v 0.100212 2.700000 0.029377
v 0.101182 2.700000 0.030171
v 0.102052 2.700000 0.031065
v 0.102902 2.700000 0.031981
v 0.103899 2.700000 0.032738
v 0.105122 2.700000 0.033027
v 0.075200 2.700000 0.028659
v 0.075832 2.700000 0.032378
v 0.105793 2.700000 0.032998
v 0.105792 2.700000 0.037329
v 0.105838 2.700000 0.029270
v 0.070238 2.700000 0.032233
v 0.070238 2.700000 0.037338
vt 0.000000 0.000000
vt 0.000000 0.000000
vt 0.000000 0.000000
vt 0.000000 0.000000
vt 0.000000 0.000000
vt 0.000000 0.000000
vt 0.000000 0.000000
vt 0.000000 0.000000
vt 0.000000 0.000000
vt 0.000000 0.000000
vt 0.000000 0.000000
vt 0.000000 0.000000
vt 0.000000 0.000000
vt 0.000000 0.000000
vt 0.000000 0.000000
vt 0.000000 0.000000
vt 0.000000 0.000000
vt 0.000000 0.000000
vt 0.000000 0.000000
vt 0.000000 0.000000
vt 0.000000 0.000000
vt 0.000000 0.000000
vt 0.000000 0.000000
vt 0.000000 0.000000
vt 0.000000 0.000000
vt 0.000000 0.000000
vt 0.000000 0.000000
vt 0.000000 0.000000
vt 0.000000 0.000000
vt 0.000000 0.000000
vt 0.000000 0.000000
vt 0.000000 0.000000
vt 0.000000 0.000000
vt 0.000000 0.000000
vt 0.000000 0.000000
vt 0.000000 0.000000
vt 0.000000 0.000000
vt 0.000000 0.000000
vt 0.000000 0.000000
vt 0.000000 0.000000
vt 0.000000 0.000000
vt 0.000000 0.000000
vt 0.000000 0.000000
vt 0.000000 0.000000
vt 0.000000 0.000000
vt 0.000000 0.000000
vt 0.000000 0.000000
vt 0.000000 0.000000
vt 0.000000 0.000000
vt 0.000000 0.000000
vt 0.000000 0.000000
vt 0.000000 0.000000
vt 0.000000 0.000000
vt 0.000000 0.000000
vt 0.000000 0.000000
vt 0.000000 0.000000
vt 0.000000 0.000000
vt 0.000000 0.000000
vt 0.000000 0.000000
vt 0.000000 0.000000
vt 0.000000 0.000000
vt 0.000000 0.000000
vt 0.000000 0.000000
vt 0.000000 0.000000
vt 0.000000 0.000000
vt 0.000000 0.000000
vt 0.000000 0.000000
vt 0.000000 0.000000
vt 0.000000 0.000000
vt 0.000000 0.000000
vt 0.000000 0.000000
vt 0.000000 0.000000
vt 0.000000 0.000000
vt 0.000000 0.000000
vt 0.000000 0.000000
vt 0.000000 0.000000
vt 0.000000 0.000000
vt 0.000000 0.000000
vt 0.000000 0.000000
vt 0.000000 0.000000
vt 0.000000 0.000000
vt 0.000000 0.000000
vt 0.000000 0.000000
vt 0.000000 0.000000
vt 0.000000 0.000000
vt 0.000000 0.000000
vt 0.000000 0.000000
vt 0.000000 0.000000
vt 0.000000 0.000000
vt 0.000000 0.000000
vt 0.000000 0.000000
vt 0.000000 0.000000
vt 0.000000 0.000000
vt 0.000000 0.000000
vt 0.000000 0.000000
vt 0.000000 0.000000
vt 0.000000 0.000000
vt 0.000000 0.000000
vt 0.000000 0.000000
vt 0.000000 0.000000
vt 0.000000 0.000000
vt 0.000000 0.000000
vt 0.000000 0.000000
vt 0.000000 0.000000
vt 0.000000 0.000000
vt 0.000000 0.000000
vt 0.000000 0.000000
vt 0.000000 0.000000
vt 0.000000 0.000000
vt 0.000000 0.000000
vt 0.000000 0.000000
vt 0.000000 0.000000
vt 0.000000 0.000000
vt 0.000000 0.000000
vt 0.000000 0.000000
vt 0.000000 0.000000
vt 0.000000 0.000000
vt 0.000000 0.000000
vt 0.000000 0.000000
vt 0.000000 0.000000
vt 0.000000 0.000000
vt 0.000000 0.000000
vt 0.000000 0.000000
vt 0.000000 0.000000
vt 0.000000 0.000000
vt 0.000000 0.000000
vt 0.000000 0.000000
vt 0.000000 0.000000
vt 0.000000 0.000000
vt 0.000000 0.000000
vt 0.000000 0.000000
vt 0.000000 0.000000
vt 0.000000 0.000000
vt 0.000000 0.000000
vt 0.000000 0.000000
vt 0.000000 0.000000
vt 0.000000 0.000000
vt 0.000000 0.000000
vt 0.000000 0.000000
vt 0.000000 0.000000
vt 0.000000 0.000000
vt 0.000000 0.000000
vt 0.000000 0.000000
vt 0.000000 0.000000
vt 0.000000 0.000000
vt 0.000000 0.000000
vt 0.000000 0.000000
vt 0.000000 0.000000
vt 0.000000 0.000000
vt 0.000000 0.000000
vt 0.000000 0.000000
vt 0.000000 0.000000
vt 0.000000 0.000000
vt 0.000000 0.000000
vt 0.000000 0.000000
vt 0.000000 0.000000
vt 0.000000 0.000000
vt 0.000000 0.000000
vt 0.000000 0.000000
vt 0.000000 0.000000
vt 0.000000 0.000000
vt 0.000000 0.000000
vt 0.000000 0.000000
vt 0.000000 0.000000
vt 0.000000 0.000000
vt 0.000000 0.000000
vt 0.000000 0.000000
vt 0.000000 0.000000
vt 0.000000 0.000000
vt 0.000000 0.000000
vt 0.000000 0.000000
vt 0.000000 0.000000
vt 0.000000 0.000000
vt 0.000000 0.000000
vt 0.000000 0.000000
vt 0.000000 0.000000
vt 0.000000 0.000000
vt 0.000000 0.000000
vt 0.000000 0.000000
vt 0.000000 0.000000
vt 0.000000 0.000000
vt 0.000000 0.000000
vt 0.000000 0.000000
vt 0.000000 0.000000
vn 0.0000 -1.0000 0.0000
vn 0.0000 1.0000 -0.0000
vn 0.7881 0.0000 0.6156
vn 0.7652 0.0000 0.6437
vn 0.6511 0.0000 0.7590
vn 0.5666 0.0000 0.8240
vn 0.5011 0.0000 0.8654
vn 0.0000 0.0000 1.0000
vn 0.4183 0.0000 0.9083
vn 0.3252 0.0000 0.9456
vn 0.2334 0.0000 0.9724
vn 0.1417 0.0000 0.9899
vn 0.0476 0.0000 0.9989
vn -0.0476 0.0000 0.9989
vn -0.1417 0.0000 0.9899
vn -0.2334 0.0000 0.9724
vn -0.3252 0.0000 0.9456
vn -0.4183 0.0000 0.9083
vn -0.5010 0.0000 0.8654
vn -0.5666 0.0000 0.8240
vn -0.6511 0.0000 0.7590
vn -0.7652 0.0000 0.6437
vn -0.7881 0.0000 0.6156
vn -0.5046 0.0000 0.8634
vn -0.0700 0.0000 0.9975
vn 0.0195 0.0000 0.9998
vn 0.0570 0.0000 0.9984
vn 0.5046 0.0000 0.8634
vn -0.1757 0.0000 -0.9845
vn -1.0000 0.0000 0.0000
vn -0.2373 0.0000 -0.9714
vn -0.3003 0.0000 -0.9539
vn -0.4369 0.0000 -0.8995
vn -0.4967 0.0000 -0.8679
vn 0.8180 0.0000 -0.5752
vn -0.6099 0.0000 -0.7924
vn 1.0000 0.0000 0.0000
vn -0.7410 0.0000 -0.6715
vn 0.9999 0.0000 0.0123
vn -0.7124 0.0000 -0.7018
vn -0.0823 0.0000 -0.9966
vn -0.5291 0.0000 -0.8486
vn 0.7688 0.0000 -0.6394
vn 0.7307 0.0000 -0.6827
vn 0.6774 0.0000 -0.7356
vn 0.6128 0.0000 -0.7902
vn 0.5355 0.0000 -0.8446
vn 0.0000 0.0000 -1.0000
vn 0.4849 0.0000 -0.8746
vn 0.4355 0.0000 -0.9002
vn 0.3752 0.0000 -0.9270
vn 0.3067 0.0000 -0.9518
vn 0.2371 0.0000 -0.9715
vn 0.1698 0.0000 -0.9855
vn -0.6580 0.0000 -0.7530
vn -0.5558 0.0000 -0.8313
vn 0.1035 0.0000 -0.9946
vn -0.3694 0.0000 -0.9293
vn 0.0359 0.0000 -0.9994
vn -0.1071 0.0000 -0.9942
vn -0.0346 0.0000 -0.9994
g luna_end2_Circle.003_gora_dol
usemtl gora_dol
s off
f 12/1/1 11/2/1 58/3/1 57/4/1
f 57/4/1 58/3/1 28/5/1 27/6/1
f 11/2/1 10/7/1 59/8/1 58/3/1
f 58/3/1 59/8/1 29/9/1 28/5/1
f 10/7/1 53/10/1 60/11/1 59/8/1
f 59/8/1 60/11/1 30/12/1 29/9/1
f 53/10/1 9/13/1 61/14/1 60/11/1
f 60/11/1 61/14/1 31/15/1 30/12/1
f 9/13/1 54/16/1 62/17/1 61/14/1
f 61/14/1 62/17/1 32/18/1 31/15/1
f 54/16/1 8/19/1 63/20/1 62/17/1
f 62/17/1 63/20/1 33/21/1 32/18/1
f 8/19/1 7/22/1 64/23/1 63/20/1
f 63/20/1 64/23/1 34/24/1 33/21/1
f 7/22/1 55/25/1 65/26/1 64/23/1
f 64/23/1 65/26/1 35/27/1 34/24/1
f 55/25/1 6/28/1 66/29/1 65/26/1
f 65/26/1 66/29/1 36/30/1 35/27/1
f 6/28/1 5/31/1 67/32/1 66/29/1
f 66/29/1 67/32/1 37/33/1 36/30/1
f 5/31/1 4/34/1 68/35/1 67/32/1
f 67/32/1 68/35/1 38/36/1 37/33/1
f 4/34/1 56/37/1 69/38/1 68/35/1
f 68/35/1 69/38/1 39/39/1 38/36/1
f 56/37/1 3/40/1 70/41/1 69/38/1
f 69/38/1 70/41/1 40/42/1 39/39/1
f 3/40/1 2/43/1 71/44/1 70/41/1
f 70/41/1 71/44/1 14/45/1 40/42/1
f 2/43/1 1/46/1 72/47/1 71/44/1
f 71/44/1 72/47/1 15/48/1 14/45/1
f 1/46/1 52/49/1 73/50/1 72/47/1
f 72/47/1 73/50/1 16/51/1 15/48/1
f 52/49/1 51/52/1 74/53/1 73/50/1
f 73/50/1 74/53/1 17/54/1 16/51/1
f 51/52/1 50/55/1 75/56/1 74/53/1
f 74/53/1 75/56/1 18/57/1 17/54/1
f 50/55/1 49/58/1 76/59/1 75/56/1
f 75/56/1 76/59/1 19/60/1 18/57/1
f 49/58/1 48/61/1 77/62/1 76/59/1
f 76/59/1 77/62/1 20/63/1 19/60/1
f 48/61/1 47/64/1 78/65/1 77/62/1
f 77/62/1 78/65/1 21/66/1 20/63/1
f 47/64/1 46/67/1 79/68/1 78/65/1
f 78/65/1 79/68/1 22/69/1 21/66/1
f 46/67/1 45/70/1 80/71/1 79/68/1
f 79/68/1 80/71/1 23/72/1 22/69/1
f 45/70/1 44/73/1 81/74/1 80/71/1
f 80/71/1 81/74/1 24/75/1 23/72/1
f 44/73/1 43/76/1 82/77/1 81/74/1
f 81/74/1 82/77/1 25/78/1 24/75/1
f 43/76/1 42/79/1 83/80/1 82/77/1
f 82/77/1 83/80/1 26/81/1 25/78/1
f 88/82/1 12/1/1 57/4/1 90/83/1
f 90/83/1 57/4/1 27/6/1 89/84/1
f 86/85/1 87/86/1 83/80/1 42/79/1
f 26/81/1 83/80/1 87/86/1 85/87/1
f 84/88/1 90/83/1 89/84/1 41/89/1
f 13/90/1 88/82/1 90/83/1 84/88/1
f 84/88/1 41/89/1 91/91/1 92/92/1
f 108/93/2 151/94/2 152/95/2 107/96/2
f 151/94/2 126/97/2 127/98/2 152/95/2
f 107/96/2 152/95/2 153/99/2 106/100/2
f 152/95/2 127/98/2 128/101/2 153/99/2
f 106/100/2 153/99/2 154/102/2 105/103/2
f 153/99/2 128/101/2 129/104/2 154/102/2
f 105/103/2 154/102/2 155/105/2 104/106/2
f 154/102/2 129/104/2 130/107/2 155/105/2
f 104/106/2 155/105/2 156/108/2 103/109/2
f 155/105/2 130/107/2 131/110/2 156/108/2
f 103/109/2 156/108/2 157/111/2 102/112/2
f 156/108/2 131/110/2 132/113/2 157/111/2
f 102/112/2 157/111/2 158/114/2 101/115/2
f 157/111/2 132/113/2 133/116/2 158/114/2
f 101/115/2 158/114/2 159/117/2 100/118/2
f 158/114/2 133/116/2 134/119/2 159/117/2
f 100/118/2 159/117/2 160/120/2 99/121/2
f 159/117/2 134/119/2 135/122/2 160/120/2
f 99/121/2 160/120/2 161/123/2 98/124/2
f 160/120/2 135/122/2 136/125/2 161/123/2
f 98/124/2 161/123/2 162/126/2 97/127/2
f 161/123/2 136/125/2 137/128/2 162/126/2
f 97/127/2 162/126/2 163/129/2 96/130/2
f 162/126/2 137/128/2 138/131/2 163/129/2
f 96/130/2 163/129/2 164/132/2 95/133/2
f 163/129/2 138/131/2 112/134/2 164/132/2
f 95/133/2 164/132/2 165/135/2 94/136/2
f 164/132/2 112/134/2 113/137/2 165/135/2
f 94/136/2 165/135/2 166/138/2 93/139/2
f 165/135/2 113/137/2 114/140/2 166/138/2
f 93/139/2 166/138/2 167/141/2 150/142/2
f 166/138/2 114/140/2 115/143/2 167/141/2
f 150/142/2 167/141/2 168/144/2 149/145/2
f 167/141/2 115/143/2 116/146/2 168/144/2
f 149/145/2 168/144/2 169/147/2 148/148/2
f 168/144/2 116/146/2 117/149/2 169/147/2
f 148/148/2 169/147/2 170/150/2 147/151/2
f 169/147/2 117/149/2 118/152/2 170/150/2
f 147/151/2 170/150/2 171/153/2 146/154/2
f 170/150/2 118/152/2 119/155/2 171/153/2
f 146/154/2 171/153/2 172/156/2 145/157/2
f 171/153/2 119/155/2 120/158/2 172/156/2
f 145/157/2 172/156/2 173/159/2 144/160/2
f 172/156/2 120/158/2 121/161/2 173/159/2
f 144/160/2 173/159/2 174/162/2 143/163/2
f 173/159/2 121/161/2 122/164/2 174/162/2
f 143/163/2 174/162/2 175/165/2 142/166/2
f 174/162/2 122/164/2 123/167/2 175/165/2
f 142/166/2 175/165/2 176/168/2 141/169/2
f 175/165/2 123/167/2 124/170/2 176/168/2
f 141/169/2 176/168/2 177/171/2 140/172/2
f 176/168/2 124/170/2 125/173/2 177/171/2
f 109/174/2 179/175/2 151/94/2 108/93/2
f 179/175/2 139/176/2 126/97/2 151/94/2
f 182/177/2 140/172/2 177/171/2 180/178/2
f 125/173/2 181/179/2 180/178/2 177/171/2
f 110/180/2 111/181/2 139/176/2 179/175/2
f 178/182/2 110/180/2 179/175/2 109/174/2
f 110/180/2 183/183/2 184/184/2 111/181/2
g luna_end2_Circle.003_tyl
usemtl tyl
f 31/15/3 130/107/3 129/104/3 30/12/3
f 32/18/4 131/110/4 130/107/4 31/15/4
f 33/21/5 132/113/5 131/110/5 32/18/5
f 34/24/6 133/116/6 132/113/6 33/21/6
f 35/27/7 134/119/7 133/116/7 34/24/7
f 85/87/8 181/179/8 125/173/8 26/81/8
f 36/30/9 135/122/9 134/119/9 35/27/9
f 37/33/10 136/125/10 135/122/10 36/30/10
f 38/36/11 137/128/11 136/125/11 37/33/11
f 39/39/12 138/131/12 137/128/12 38/36/12
f 40/42/13 112/134/13 138/131/13 39/39/13
f 89/84/8 139/176/8 111/181/8 41/89/8
f 27/6/8 126/97/8 139/176/8 89/84/8
f 14/45/14 113/137/14 112/134/14 40/42/14
f 15/48/15 114/140/15 113/137/15 14/45/15
f 16/51/16 115/143/16 114/140/16 15/48/16
f 17/54/17 116/146/17 115/143/17 16/51/17
f 41/89/8 111/181/8 184/184/8 91/91/8
f 18/57/18 117/149/18 116/146/18 17/54/18
f 19/60/19 118/152/19 117/149/19 18/57/19
f 20/63/20 119/155/20 118/152/20 19/60/20
f 21/66/21 120/158/21 119/155/21 20/63/21
f 22/69/22 121/161/22 120/158/22 21/66/22
f 23/72/23 122/164/23 121/161/23 22/69/23
f 24/75/24 123/167/24 122/164/24 23/72/24
f 25/78/25 124/170/25 123/167/25 24/75/25
f 26/81/26 125/173/26 124/170/26 25/78/26
f 28/5/8 127/98/8 126/97/8 27/6/8
f 29/9/27 128/101/27 127/98/27 28/5/27
f 30/12/28 129/104/28 128/101/28 29/9/28
g luna_end2_Circle.003_front
usemtl front
f 5/31/29 98/124/29 97/127/29 4/34/29
f 84/88/30 110/180/30 178/182/30 13/90/30
f 6/28/31 99/121/31 98/124/31 5/31/31
f 55/25/32 100/118/32 99/121/32 6/28/32
f 8/19/33 102/112/33 101/115/33 7/22/33
f 54/16/34 103/109/34 102/112/34 8/19/34
f 42/79/35 140/172/35 182/177/35 86/85/35
f 53/10/36 105/103/36 104/106/36 9/13/36
f 87/86/37 180/178/37 181/179/37 85/87/37
f 11/2/38 107/96/38 106/100/38 10/7/38
f 86/85/39 182/177/39 180/178/39 87/86/39
f 12/1/40 108/93/40 107/96/40 11/2/40
f 13/90/41 178/182/41 109/174/41 88/82/41
f 88/82/42 109/174/42 108/93/42 12/1/42
f 43/76/43 141/169/43 140/172/43 42/79/43
f 44/73/44 142/166/44 141/169/44 43/76/44
f 45/70/45 143/163/45 142/166/45 44/73/45
f 91/91/30 184/184/30 183/183/30 92/92/30
f 46/67/46 144/160/46 143/163/46 45/70/46
f 47/64/47 145/157/47 144/160/47 46/67/47
f 92/92/48 183/183/48 110/180/48 84/88/48
f 48/61/49 146/154/49 145/157/49 47/64/49
f 49/58/50 147/151/50 146/154/50 48/61/50
f 50/55/51 148/148/51 147/151/51 49/58/51
f 51/52/52 149/145/52 148/148/52 50/55/52
f 52/49/53 150/142/53 149/145/53 51/52/53
f 1/46/54 93/139/54 150/142/54 52/49/54
f 10/7/55 106/100/55 105/103/55 53/10/55
f 9/13/56 104/106/56 103/109/56 54/16/56
f 2/43/57 94/136/57 93/139/57 1/46/57
f 7/22/58 101/115/58 100/118/58 55/25/58
f 3/40/59 95/133/59 94/136/59 2/43/59
f 4/34/60 97/127/60 96/130/60 56/37/60
f 56/37/61 96/130/61 95/133/61 3/40/61
