# Blender v3.0.0 OBJ File: 'base.blend'
# www.blender.org
mtllib asti.mtl
o 0028_-_ASTI-DZ_BL|Group_1.323
v 0.613802 2.700592 0.012744
v 0.595405 2.700592 0.013299
v 0.613566 2.700592 0.013299
v 0.595175 2.700592 0.012842
v 0.594995 2.700592 0.012486
v 0.614171 2.700592 0.012151
v 0.594477 2.700592 0.011878
v 0.614614 2.700592 0.011748
v 0.593892 2.700592 0.011495
v 0.615133 2.700592 0.011449
v 0.593100 2.700592 0.011382
v 0.615826 2.700592 0.011349
v 0.636809 2.700592 0.012745
v 0.618332 2.700592 0.013299
v 0.636483 2.700592 0.013299
v 0.618067 2.700592 0.012773
v 0.617694 2.700592 0.012183
v 0.636942 2.700592 0.012369
v 0.637291 2.700592 0.011883
v 0.617064 2.700592 0.011691
v 0.638087 2.700592 0.011464
v 0.616325 2.700592 0.011386
v 0.638880 2.700592 0.011354
v 0.639580 2.700592 0.011336
v 0.590714 2.700592 0.013299
v 0.570278 2.700592 0.013112
v 0.570514 2.700592 0.013299
v 0.591153 2.700592 0.012376
v 0.570152 2.700592 0.012840
v 0.570160 2.700592 0.008478
v 0.591612 2.700592 0.011848
v 0.592302 2.700592 0.011446
v 0.659891 2.700592 0.012226
v 0.641187 2.700592 0.013299
v 0.659387 2.700592 0.013299
v 0.641041 2.700592 0.013299
v 0.640923 2.700592 0.012764
v 0.640592 2.700592 0.012149
v 0.660414 2.700592 0.011761
v 0.640125 2.700592 0.011774
v 0.661021 2.700592 0.011414
v 0.661821 2.700592 0.011386
v 0.669270 2.700592 0.007935
v 0.654220 2.700592 0.007913
v 0.646520 2.700592 0.007919
v 0.668687 2.700592 0.007791
v 0.654714 2.700592 0.007838
v 0.655082 2.700592 0.007680
v 0.668371 2.700592 0.007547
v 0.655486 2.700592 0.007238
v 0.668131 2.700592 0.007228
v 0.655581 2.700592 0.006955
v 0.667935 2.700592 0.006769
v 0.655958 2.700592 0.001884
v 0.667552 2.700592 0.001899
v 0.667348 2.700592 0.001680
v 0.656238 2.700592 0.001598
v 0.667121 2.700592 0.001484
v 0.656489 2.700592 0.001435
v 0.666861 2.700592 0.001335
v 0.656695 2.700592 0.001335
v 0.685289 2.700592 0.007935
v 0.664089 2.700592 0.013299
v 0.685289 2.700592 0.013299
v 0.663945 2.700592 0.013299
v 0.663782 2.700592 0.012555
v 0.663282 2.700592 0.011933
v 0.662517 2.700592 0.011460
v 0.585500 2.700592 0.007948
v 0.631335 2.700592 0.007940
v 0.631828 2.700592 0.007856
v 0.646222 2.700592 0.007888
v 0.645742 2.700592 0.007748
v 0.632263 2.700592 0.007609
v 0.645487 2.700592 0.007590
v 0.632515 2.700592 0.007300
v 0.645282 2.700592 0.007371
v 0.645090 2.700592 0.007021
v 0.632668 2.700592 0.006825
v 0.644674 2.700592 0.001954
v 0.633067 2.700592 0.001856
v 0.644501 2.700592 0.001709
v 0.633356 2.700592 0.001580
v 0.644270 2.700592 0.001519
v 0.633777 2.700592 0.001335
v 0.643915 2.700592 0.001335
v 0.622946 2.700592 0.007819
v 0.608511 2.700592 0.007905
v 0.623436 2.700592 0.007921
v 0.609000 2.700592 0.007802
v 0.622588 2.700592 0.007641
v 0.609496 2.700592 0.007465
v 0.622361 2.700592 0.007445
v 0.609735 2.700592 0.007027
v 0.622189 2.700592 0.007201
v 0.621731 2.700592 0.001936
v 0.609827 2.700592 0.006537
v 0.610159 2.700592 0.001863
v 0.621546 2.700592 0.001701
v 0.610381 2.700592 0.001662
v 0.621319 2.700592 0.001506
v 0.610632 2.700592 0.001497
v 0.620957 2.700592 0.001335
v 0.610879 2.700592 0.001335
v 0.600511 2.700592 0.007897
v 0.586176 2.700592 0.007770
v 0.599927 2.700592 0.007760
v 0.586490 2.700592 0.007522
v 0.599575 2.700592 0.007571
v 0.599315 2.700592 0.007268
v 0.586751 2.700592 0.007097
v 0.599188 2.700592 0.006785
v 0.586869 2.700592 0.006510
v 0.598844 2.700592 0.001912
v 0.587274 2.700592 0.001942
v 0.587410 2.700592 0.001675
v 0.598648 2.700592 0.001686
v 0.598410 2.700592 0.001504
v 0.587718 2.700592 0.001421
v 0.598047 2.700592 0.001335
v 0.587952 2.700592 0.001335
v 0.576924 2.700592 0.007744
v 0.563803 2.700592 0.001871
v 0.577500 2.700592 0.007913
v 0.576577 2.700592 0.007546
v 0.576379 2.700592 0.007199
v 0.576221 2.700592 0.006726
v 0.575954 2.700592 0.001948
v 0.575866 2.700592 0.001769
v 0.563986 2.700592 0.001633
v 0.575562 2.700592 0.001510
v 0.564452 2.700592 0.001335
v 0.575203 2.700592 0.001335
v 0.655581 0.000592 0.006954
v 0.655958 0.000592 0.001883
v 0.656238 0.000592 0.001597
v 0.656489 0.000592 0.001434
v 0.646520 0.000592 0.007918
v 0.654220 0.000592 0.007912
v 0.646222 0.000592 0.007887
v 0.645742 0.000592 0.007747
v 0.640923 0.000592 0.012763
v 0.641187 0.000592 0.013298
v 0.641041 0.000592 0.013298
v 0.659387 0.000592 0.013298
v 0.659891 0.000592 0.012225
v 0.640592 0.000592 0.012148
v 0.660414 0.000592 0.011760
v 0.640125 0.000592 0.011773
v 0.639580 0.000592 0.011335
v 0.661021 0.000592 0.011413
v 0.661821 0.000592 0.011385
v 0.570278 0.000592 0.013111
v 0.590714 0.000592 0.013298
v 0.570514 0.000592 0.013298
v 0.591153 0.000592 0.012375
v 0.570152 0.000592 0.012839
v 0.570160 0.000592 0.008477
v 0.591612 0.000592 0.011847
v 0.592302 0.000592 0.011445
v 0.593100 0.000592 0.011381
v 0.615826 0.000592 0.011348
v 0.563803 0.000592 0.001870
v 0.576924 0.000592 0.007743
v 0.577500 0.000592 0.007912
v 0.585500 0.000592 0.007947
v 0.576577 0.000592 0.007545
v 0.576379 0.000592 0.007198
v 0.576221 0.000592 0.006725
v 0.575954 0.000592 0.001947
v 0.575866 0.000592 0.001768
v 0.563986 0.000592 0.001632
v 0.575562 0.000592 0.001509
v 0.564452 0.000592 0.001334
v 0.575203 0.000592 0.001334
v 0.631335 0.000592 0.007939
v 0.669270 0.000592 0.007934
v 0.631828 0.000592 0.007855
v 0.632263 0.000592 0.007608
v 0.645487 0.000592 0.007589
v 0.632515 0.000592 0.007299
v 0.645282 0.000592 0.007370
v 0.645090 0.000592 0.007021
v 0.632668 0.000592 0.006824
v 0.644674 0.000592 0.001953
v 0.633067 0.000592 0.001855
v 0.644501 0.000592 0.001708
v 0.633356 0.000592 0.001579
v 0.644270 0.000592 0.001518
v 0.633777 0.000592 0.001334
v 0.643915 0.000592 0.001334
v 0.600511 0.000592 0.007896
v 0.586176 0.000592 0.007769
v 0.608511 0.000592 0.007904
v 0.623436 0.000592 0.007920
v 0.599927 0.000592 0.007759
v 0.586490 0.000592 0.007521
v 0.599575 0.000592 0.007570
v 0.599315 0.000592 0.007267
v 0.586751 0.000592 0.007096
v 0.599188 0.000592 0.006784
v 0.586869 0.000592 0.006509
v 0.598844 0.000592 0.001911
v 0.587274 0.000592 0.001941
v 0.587410 0.000592 0.001674
v 0.598648 0.000592 0.001685
v 0.598410 0.000592 0.001503
v 0.587718 0.000592 0.001420
v 0.598047 0.000592 0.001334
v 0.587952 0.000592 0.001334
v 0.622946 0.000592 0.007818
v 0.609000 0.000592 0.007801
v 0.622588 0.000592 0.007640
v 0.609496 0.000592 0.007464
v 0.622361 0.000592 0.007444
v 0.609735 0.000592 0.007026
v 0.622189 0.000592 0.007200
v 0.621731 0.000592 0.001935
v 0.609827 0.000592 0.006536
v 0.610159 0.000592 0.001862
v 0.621546 0.000592 0.001700
v 0.610381 0.000592 0.001661
v 0.621319 0.000592 0.001505
v 0.610632 0.000592 0.001496
v 0.620957 0.000592 0.001334
v 0.610879 0.000592 0.001334
v 0.668687 0.000592 0.007790
v 0.654714 0.000592 0.007837
v 0.655082 0.000592 0.007679
v 0.668371 0.000592 0.007546
v 0.655486 0.000592 0.007237
v 0.668131 0.000592 0.007227
v 0.667935 0.000592 0.006768
v 0.667552 0.000592 0.001898
v 0.667348 0.000592 0.001679
v 0.667121 0.000592 0.001483
v 0.666861 0.000592 0.001334
v 0.656695 0.000592 0.001334
v 0.663782 0.000592 0.012554
v 0.664089 0.000592 0.013298
v 0.663945 0.000592 0.013298
v 0.685289 0.000592 0.013298
v 0.685289 0.000592 0.007934
v 0.663282 0.000592 0.011932
v 0.662517 0.000592 0.011459
v 0.618067 0.000592 0.012772
v 0.636483 0.000592 0.013298
v 0.618332 0.000592 0.013298
v 0.636809 0.000592 0.012744
v 0.617694 0.000592 0.012182
v 0.636942 0.000592 0.012368
v 0.637291 0.000592 0.011882
v 0.617064 0.000592 0.011690
v 0.638087 0.000592 0.011463
v 0.616325 0.000592 0.011385
v 0.638880 0.000592 0.011353
v 0.595175 0.000592 0.012841
v 0.613566 0.000592 0.013298
v 0.595405 0.000592 0.013298
v 0.613802 0.000592 0.012743
v 0.594995 0.000592 0.012485
v 0.614171 0.000592 0.012150
v 0.594477 0.000592 0.011877
v 0.614614 0.000592 0.011747
v 0.593892 0.000592 0.011494
v 0.615133 0.000592 0.011448
v 0.570149 2.700592 0.008448
v 0.570149 2.700592 0.008478
v 0.570149 2.700592 0.008314
v 0.570149 2.700592 0.007804
v 0.570149 2.700592 0.008109
v 0.563342 2.700592 0.007804
v 0.570149 2.700592 0.008205
v 0.570149 0.000592 0.008465
v 0.570149 0.000592 0.008477
v 0.569512 0.000592 0.007804
v 0.563342 0.000592 0.007804
v 0.570149 0.000592 0.007804
v 0.563342 2.425078 0.007804
v 0.570149 0.005122 0.008477
vt 0.000000 0.000000
vt 0.000000 0.000000
vt 0.000000 0.000000
vt 0.000000 0.000000
vt 0.000000 0.000000
vt 0.000000 0.000000
vt 0.000000 0.000000
vt 0.000000 0.000000
vt 0.000000 0.000000
vt 0.000000 0.000000
vt 0.000000 0.000000
vt 0.000000 0.000000
vt 0.000000 0.000000
vt 0.000000 0.000000
vt 0.000000 0.000000
vt 0.000000 0.000000
vt 0.000000 0.000000
vt 0.000000 0.000000
vt 0.000000 0.000000
vt 0.000000 0.000000
vt 0.000000 0.000000
vt 0.000000 0.000000
vt 0.000000 0.000000
vt 0.000000 0.000000
vt 0.000000 0.000000
vt 0.000000 0.000000
vt 0.000000 0.000000
vt 0.000000 0.000000
vt 0.000000 0.000000
vt 0.000000 0.000000
vt 0.000000 0.000000
vt 0.000000 0.000000
vt 0.000000 0.000000
vt 0.000000 0.000000
vt 0.000000 0.000000
vt 0.000000 0.000000
vt 0.000000 0.000000
vt 0.000000 0.000000
vt 0.000000 0.000000
vt 0.000000 0.000000
vt 0.000000 0.000000
vt 0.000000 0.000000
vt 0.000000 0.000000
vt 0.000000 0.000000
vt 0.000000 0.000000
vt 0.000000 0.000000
vt 0.000000 0.000000
vt 0.000000 0.000000
vt 0.000000 0.000000
vt 0.000000 0.000000
vt 0.000000 0.000000
vt 0.000000 0.000000
vt 0.000000 0.000000
vt 0.000000 0.000000
vt 0.000000 0.000000
vt 0.000000 0.000000
vt 0.000000 0.000000
vt 0.000000 0.000000
vt 0.000000 0.000000
vt 0.000000 0.000000
vt 0.000000 0.000000
vt 0.000000 0.000000
vt 0.000000 0.000000
vt 0.000000 0.000000
vt 0.000000 0.000000
vt 0.000000 0.000000
vt 0.000000 0.000000
vt 0.000000 0.000000
vt 0.000000 0.000000
vt 0.000000 0.000000
vt 0.000000 0.000000
vt 0.000000 0.000000
vt 0.000000 0.000000
vt 0.000000 0.000000
vt 0.000000 0.000000
vt 0.000000 0.000000
vt 0.000000 0.000000
vt 0.000000 0.000000
vt 0.000000 0.000000
vt 0.000000 0.000000
vt 0.000000 0.000000
vt 0.000000 0.000000
vt 0.000000 0.000000
vt 0.000000 0.000000
vt 0.000000 0.000000
vt 0.000000 0.000000
vt 0.000000 0.000000
vt 0.000000 0.000000
vt 0.000000 0.000000
vt 0.000000 0.000000
vt 0.000000 0.000000
vt 0.000000 0.000000
vt 0.000000 0.000000
vt 0.000000 0.000000
vt 0.000000 0.000000
vt 0.000000 0.000000
vt 0.000000 0.000000
vt 0.000000 0.000000
vt 0.000000 0.000000
vt 0.000000 0.000000
vt 0.000000 0.000000
vt 0.000000 0.000000
vt 0.000000 0.000000
vt 0.000000 0.000000
vt 0.000000 0.000000
vt 0.000000 0.000000
vt 0.000000 0.000000
vt 0.000000 0.000000
vt 0.000000 0.000000
vt 0.000000 0.000000
vt 0.000000 0.000000
vt 0.000000 0.000000
vt 0.000000 0.000000
vt 0.000000 0.000000
vt 0.000000 0.000000
vt 0.000000 0.000000
vt 0.000000 0.000000
vt 0.000000 0.000000
vt 0.000000 0.000000
vt 0.000000 0.000000
vt 0.000000 0.000000
vt 0.000000 0.000000
vt 0.000000 0.000000
vt 0.000000 0.000000
vt 0.000000 0.000000
vt 0.000000 0.000000
vt 0.000000 0.000000
vt 0.000000 0.000000
vt 0.000000 0.000000
vt 0.000000 0.000000
vt 0.000000 0.000000
vt 0.000000 0.000000
vt 0.000000 0.000000
vt 0.000000 0.000000
vt 0.000000 0.000000
vt 0.000000 0.000000
vt 0.000000 0.000000
vt 0.000000 0.000000
vt 0.000000 0.000000
vt 0.000000 0.000000
vt 0.000000 0.000000
vt 0.000000 0.000000
vt 0.000000 0.000000
vt 0.000000 0.000000
vt 0.000000 0.000000
vt 0.000000 0.000000
vt 0.000000 0.000000
vt 0.000000 0.000000
vt 0.000000 0.000000
vt 0.000000 0.000000
vt 0.000000 0.000000
vt 0.000000 0.000000
vt 0.000000 0.000000
vt 0.000000 0.000000
vt 0.000000 0.000000
vt 0.000000 0.000000
vt 0.000000 0.000000
vt 0.000000 0.000000
vt 0.000000 0.000000
vt 0.000000 0.000000
vt 0.000000 0.000000
vt 0.000000 0.000000
vt 0.000000 0.000000
vt 0.000000 0.000000
vt 0.000000 0.000000
vt 0.000000 0.000000
vt 0.000000 0.000000
vt 0.000000 0.000000
vt 0.000000 0.000000
vt 0.000000 0.000000
vt 0.000000 0.000000
vt 0.000000 0.000000
vt 0.000000 0.000000
vt 0.000000 0.000000
vt 0.000000 0.000000
vt 0.000000 0.000000
vt 0.000000 0.000000
vt 0.000000 0.000000
vt 0.000000 0.000000
vt 0.000000 0.000000
vt 0.000000 0.000000
vt 0.000000 0.000000
vt 0.000000 0.000000
vt 0.000000 0.000000
vt 0.000000 0.000000
vt 0.000000 0.000000
vt 0.000000 0.000000
vt 0.000000 0.000000
vt 0.000000 0.000000
vt 0.000000 0.000000
vt 0.000000 0.000000
vt 0.000000 0.000000
vt 0.000000 0.000000
vt 0.000000 0.000000
vt 0.000000 0.000000
vt 0.000000 0.000000
vt 0.000000 0.000000
vt 0.000000 0.000000
vt 0.000000 0.000000
vt 0.000000 0.000000
vt 0.000000 0.000000
vt 0.000000 0.000000
vt 0.000000 0.000000
vt 0.000000 0.000000
vt 0.000000 0.000000
vt 0.000000 0.000000
vt 0.000000 0.000000
vt 0.000000 0.000000
vt 0.000000 0.000000
vt 0.000000 0.000000
vt 0.000000 0.000000
vt 0.000000 0.000000
vt 0.000000 0.000000
vt 0.000000 0.000000
vt 0.000000 0.000000
vt 0.000000 0.000000
vt 0.000000 0.000000
vt 0.000000 0.000000
vt 0.000000 0.000000
vt 0.000000 0.000000
vt 0.000000 0.000000
vt 0.000000 0.000000
vt 0.000000 0.000000
vt 0.000000 0.000000
vt 0.000000 0.000000
vt 0.000000 0.000000
vt 0.000000 0.000000
vt 0.000000 0.000000
vt 0.000000 0.000000
vt 0.000000 0.000000
vt 0.000000 0.000000
vt 0.000000 0.000000
vt 0.000000 0.000000
vt 0.000000 0.000000
vt 0.000000 0.000000
vt 0.000000 0.000000
vt 0.000000 0.000000
vt 0.000000 0.000000
vt 0.000000 0.000000
vt 0.000000 0.000000
vt 0.000000 0.000000
vt 0.000000 0.000000
vt 0.000000 0.000000
vt 0.000000 0.000000
vt 0.000000 0.000000
vt 0.000000 0.000000
vt 0.000000 0.000000
vt 0.000000 0.000000
vt 0.000000 0.000000
vt 0.000000 0.000000
vt 0.000000 0.000000
vt 0.000000 0.000000
vt 0.000000 0.000000
vt 0.000000 0.000000
vt 0.000000 0.000000
vt 0.000000 0.000000
vt 0.000000 0.000000
vt 0.000000 0.000000
vt 0.000000 0.000000
vt 0.000000 0.000000
vt 0.000000 0.000000
vt 0.000000 0.000000
vt 0.000000 0.000000
vt 0.000000 0.000000
vt 0.000000 0.000000
vt 0.000000 0.000000
vt 0.000000 0.000000
vt 0.000000 0.000000
vt 0.000000 0.000000
vt 0.000000 0.000000
vt 0.000000 0.000000
vt 0.000000 0.000000
vt 0.000000 0.000000
vt 0.000000 0.000000
vt 0.000000 0.000000
vt 0.000000 0.000000
vt 0.000000 0.000000
vt 0.000000 0.000000
vt 0.000000 0.000000
vt 0.000000 0.000000
vt 0.596232 0.483869
vt 0.386332 0.483869
vt 0.386332 0.498492
vt 0.386332 0.500000
vt 0.620085 0.500000
vt 0.620085 0.483869
vt 0.620085 0.501598
vt 0.620084 0.501526
vt 0.620085 0.501210
vt 0.620085 0.500951
vt 0.620084 0.500723
vt 0.386332 0.501567
vt 0.386332 0.501596
vt 0.386724 0.501596
vn 0.0000 1.0000 -0.0004
vn 0.0000 1.0000 -0.0012
vn 0.0000 1.0000 -0.0003
vn 0.0000 1.0000 0.0021
vn 0.0000 1.0000 0.0000
vn 0.0000 1.0000 -0.0002
vn 0.0000 1.0000 -0.0014
vn 0.0000 1.0000 0.0017
vn 0.0000 1.0000 0.0008
vn 0.0000 1.0000 -0.0008
vn 0.0000 1.0000 0.0013
vn 0.0000 1.0000 -0.0001
vn 0.0000 1.0000 -0.0015
vn 0.0000 1.0000 0.0004
vn -0.5440 0.0000 -0.8391
vn 0.0000 -1.0000 0.0000
vn -0.7144 0.0000 -0.6998
vn 0.7866 0.0000 -0.6175
vn 0.6512 0.0000 -0.7589
vn 0.4258 0.0000 -0.9048
vn 0.0000 0.0000 -1.0000
vn -0.5486 0.0000 -0.8361
vn 0.8172 0.0000 -0.5764
vn 0.6340 0.0000 -0.7733
vn 0.4598 0.0000 -0.8880
vn -0.5021 0.0000 -0.8648
vn -0.6907 0.0000 -0.7232
vn 0.7314 0.0000 -0.6819
vn 0.6541 0.0000 -0.7564
vn 0.4951 0.0000 -0.8688
vn -0.4379 0.0000 -0.8990
vn -0.5485 0.0000 -0.8362
vn -0.6708 0.0000 -0.7417
vn 0.7569 0.0000 -0.6535
vn 0.6070 0.0000 -0.7947
vn 0.4210 0.0000 -0.9070
vn -0.3435 0.0000 -0.9391
vn -0.6366 0.0000 -0.7712
vn -0.8916 0.0000 -0.4529
vn 0.8980 0.0000 -0.4400
vn 0.8980 0.0000 -0.4401
vn 0.6493 0.0000 -0.7605
vn 0.4357 0.0000 -0.9001
vn -0.5386 0.0000 -0.8426
vn -0.7917 0.0000 -0.6109
vn 0.0000 1.0000 0.0031
vn 0.0000 1.0000 0.0001
vn 0.0000 1.0000 -0.0006
vn 0.0000 1.0000 -0.0017
vn 0.0000 1.0000 0.0089
vn 0.0000 1.0000 -0.0043
vn 0.0000 1.0000 -0.0011
vn 0.0000 1.0000 0.0003
vn 0.0000 1.0000 0.0007
vn 0.0000 1.0000 -0.0029
vn 0.0000 1.0000 -0.0013
vn 0.0000 1.0000 -0.0096
vn 0.0000 1.0000 -0.0005
vn 0.0000 1.0000 0.0006
vn 0.0000 1.0000 -0.0036
vn 0.0000 0.9845 0.1754
vn 0.0000 1.0000 0.0036
vn 0.0000 1.0000 0.0019
vn 0.0000 1.0000 -0.0023
vn 0.0000 1.0000 0.0012
vn 0.0000 1.0000 -0.0010
vn 0.0000 1.0000 0.0020
vn 0.0000 1.0000 0.0028
vn 0.0000 0.9966 -0.0823
vn 0.0000 1.0000 -0.0028
vn 0.0000 1.0000 0.0011
vn 0.0000 1.0000 0.0005
vn 0.0000 1.0000 -0.0084
vn -0.9972 0.0000 -0.0742
vn -0.0009 0.0000 -1.0000
vn 0.1058 0.0000 -0.9944
vn 0.2801 0.0000 -0.9600
vn 0.5255 0.0000 -0.8508
vn 0.7305 0.0000 -0.6829
vn 0.7306 0.0000 -0.6829
vn 0.8767 0.0000 -0.4811
vn 0.9962 0.0000 -0.0866
vn 0.9966 0.0000 -0.0819
vn -0.9968 0.0000 -0.0800
vn -0.9519 0.0000 -0.3065
vn -0.7758 0.0000 -0.6310
vn -0.4928 0.0000 -0.8701
vn -0.1692 0.0000 -0.9856
vn 0.0025 0.0000 -1.0000
vn 0.2023 0.0000 -0.9793
vn 0.4470 0.0000 -0.8945
vn 0.6527 0.0000 -0.7576
vn 0.8170 0.0000 -0.5767
vn -0.9970 0.0000 -0.0775
vn 0.0000 -0.0000 1.0000
vn 0.0001 -0.0000 1.0000
vn -1.0000 0.0000 -0.0019
vn -0.9067 -0.0000 0.4217
vn -0.6220 -0.0000 0.7830
vn -0.6221 -0.0000 0.7830
vn 0.9034 -0.0000 0.4288
vn 0.7543 -0.0000 0.6565
vn 0.5031 -0.0000 0.8642
vn 0.0799 -0.0000 0.9968
vn -0.1410 -0.0000 0.9900
vn -0.5479 -0.0000 0.8365
vn -0.7610 -0.0000 0.6488
vn -0.8928 -0.0000 0.4504
vn 0.9205 -0.0000 0.3907
vn 0.8487 -0.0000 0.5289
vn 0.6736 -0.0000 0.7391
vn 0.4990 -0.0000 0.8666
vn 0.1422 -0.0000 0.9898
vn -0.0732 -0.0000 0.9973
vn -0.3815 -0.0000 0.9244
vn -0.6160 -0.0000 0.7878
vn -0.8452 -0.0000 0.5344
vn 0.8619 -0.0000 0.5071
vn 0.9432 -0.0000 0.3323
vn 0.8118 -0.0000 0.5839
vn 0.4650 -0.0000 0.8853
vn 0.1376 -0.0000 0.9905
vn 0.0264 -0.0000 0.9997
vn -0.6262 -0.0000 0.7797
vn -0.8801 -0.0000 0.4747
vn -0.9769 -0.0000 0.2137
vn 0.9050 -0.0000 0.4255
vn 0.6651 -0.0000 0.7467
vn 0.4955 -0.0000 0.8686
vn 0.0350 -0.0000 0.9994
vn -0.1058 -0.0000 0.9944
vn -0.5252 -0.0000 0.8510
vn -0.7793 -0.0000 0.6266
vn 1.0000 0.0000 0.0000
vn 0.2409 0.0000 -0.9706
vn 0.6107 0.0000 -0.7918
vn 0.7986 0.0000 -0.6018
vn 0.9199 0.0000 -0.3922
vn 0.9969 0.0000 -0.0784
vn -0.9486 0.0000 -0.3165
vn -0.7376 0.0000 -0.6752
vn -0.3942 0.0000 -0.9190
vn -0.1495 0.0000 -0.9888
vn -0.9975 0.0000 -0.0708
vn -0.9829 0.0000 -0.1844
vn -0.8777 0.0000 -0.4793
vn -0.5624 0.0000 -0.8269
vn -0.2064 0.0000 -0.9785
vn 0.0011 0.0000 -1.0000
vn 0.2272 0.0000 -0.9738
vn 0.4733 0.0000 -0.8809
vn 0.7599 0.0000 -0.6501
vn 0.9670 0.0000 -0.2549
vn 0.9975 0.0000 -0.0705
vn -0.9961 0.0000 -0.0884
vn -0.9804 0.0000 -0.1971
vn -0.8525 0.0000 -0.5227
vn -0.6190 0.0000 -0.7854
vn -0.2544 0.0000 -0.9671
vn 0.0044 0.0000 -1.0000
vn 0.2810 0.0000 -0.9597
vn 0.4965 0.0000 -0.8680
vn 0.8684 0.0000 -0.4958
vn 0.9483 0.0000 -0.3172
vn 0.9984 0.0000 -0.0558
vn -1.0000 0.0000 0.0000
usemtl teksture
s off
f 54/1/1 55/2/1 56/3/1
f 54/1/2 56/3/2 57/4/2
f 57/4/3 56/3/3 58/5/3
f 57/4/4 58/5/4 59/6/4
f 59/6/1 58/5/1 60/7/1
f 59/6/5 60/7/5 61/8/5
f 81/9/6 80/10/6 82/11/6
f 81/9/5 82/11/5 83/12/5
f 83/12/6 82/11/6 84/13/6
f 83/12/7 84/13/7 85/14/7
f 85/14/8 84/13/8 86/15/8
f 98/16/9 96/17/9 99/18/9
f 98/16/5 99/18/5 100/19/5
f 100/19/2 99/18/2 101/20/2
f 100/19/4 101/20/4 102/21/4
f 102/21/10 101/20/10 103/22/10
f 102/21/5 103/22/5 104/23/5
f 115/24/5 114/25/5 116/26/5
f 116/26/6 114/25/6 117/27/6
f 116/26/11 117/27/11 118/28/11
f 116/26/5 118/28/5 119/29/5
f 119/29/12 118/28/12 120/30/12
f 119/29/5 120/30/5 121/31/5
f 123/32/13 128/33/13 129/34/13
f 123/32/5 129/34/5 130/35/5
f 130/35/8 129/34/8 131/36/8
f 130/35/5 131/36/5 132/37/5
f 132/37/14 131/36/14 133/38/14
f 59/6/15 136/39/15 57/4/15
f 136/39/15 59/6/15 137/40/15
f 170/41/16 163/42/16 171/43/16
f 171/43/16 163/42/16 172/44/16
f 171/43/16 172/44/16 173/45/16
f 173/45/16 172/44/16 174/46/16
f 173/45/16 174/46/16 175/47/16
f 185/48/16 186/49/16 187/50/16
f 187/50/16 186/49/16 188/51/16
f 187/50/16 188/51/16 189/52/16
f 189/52/16 188/51/16 190/53/16
f 189/52/16 190/53/16 191/54/16
f 203/55/16 204/56/16 205/57/16
f 203/55/16 205/57/16 206/58/16
f 206/58/16 205/57/16 207/59/16
f 207/59/16 205/57/16 208/60/16
f 207/59/16 208/60/16 209/61/16
f 209/61/16 208/60/16 210/62/16
f 218/63/16 220/64/16 221/65/16
f 221/65/16 220/64/16 222/66/16
f 221/65/16 222/66/16 223/67/16
f 223/67/16 222/66/16 224/68/16
f 223/67/16 224/68/16 225/69/16
f 225/69/16 224/68/16 226/70/16
f 234/71/16 135/72/16 235/73/16
f 235/73/16 135/72/16 136/39/16
f 235/73/16 136/39/16 236/74/16
f 236/74/16 136/39/16 137/40/16
f 236/74/16 137/40/16 237/75/16
f 237/75/16 137/40/16 238/76/16
f 136/39/17 54/1/17 57/4/17
f 54/1/17 136/39/17 135/72/17
f 218/63/18 99/18/18 96/17/18
f 99/18/18 218/63/18 221/65/18
f 99/18/19 223/67/19 101/20/19
f 223/67/19 99/18/19 221/65/19
f 101/20/20 225/69/20 103/22/20
f 225/69/20 101/20/20 223/67/20
f 103/22/21 226/70/21 104/23/21
f 226/70/21 103/22/21 225/69/21
f 104/23/22 224/68/22 102/21/22
f 224/68/22 104/23/22 226/70/22
f 185/48/23 82/11/23 80/10/23
f 82/11/23 185/48/23 187/50/23
f 82/11/24 189/52/24 84/13/24
f 189/52/24 82/11/24 187/50/24
f 84/13/25 191/54/25 86/15/25
f 191/54/25 84/13/25 189/52/25
f 86/15/21 190/53/21 85/14/21
f 190/53/21 86/15/21 191/54/21
f 85/14/26 188/51/26 83/12/26
f 188/51/26 85/14/26 190/53/26
f 83/12/27 186/49/27 81/9/27
f 186/49/27 83/12/27 188/51/27
f 55/2/28 235/73/28 56/3/28
f 235/73/28 55/2/28 234/71/28
f 56/3/29 236/74/29 58/5/29
f 236/74/29 56/3/29 235/73/29
f 58/5/30 237/75/30 60/7/30
f 237/75/30 58/5/30 236/74/30
f 60/7/21 238/76/21 61/8/21
f 238/76/21 60/7/21 237/75/21
f 61/8/31 137/40/31 59/6/31
f 137/40/31 61/8/31 238/76/31
f 102/21/32 222/66/32 100/19/32
f 222/66/32 102/21/32 224/68/32
f 100/19/33 220/64/33 98/16/33
f 220/64/33 100/19/33 222/66/33
f 203/55/34 117/27/34 114/25/34
f 117/27/34 203/55/34 206/58/34
f 117/27/35 207/59/35 118/28/35
f 207/59/35 117/27/35 206/58/35
f 118/28/36 209/61/36 120/30/36
f 209/61/36 118/28/36 207/59/36
f 120/30/21 210/62/21 121/31/21
f 210/62/21 120/30/21 209/61/21
f 121/31/37 208/60/37 119/29/37
f 208/60/37 121/31/37 210/62/37
f 119/29/38 205/57/38 116/26/38
f 205/57/38 119/29/38 208/60/38
f 205/57/39 115/24/39 116/26/39
f 115/24/39 205/57/39 204/56/39
f 128/33/40 171/43/40 129/34/40
f 171/43/41 128/33/41 170/41/41
f 129/34/42 173/45/42 131/36/42
f 173/45/42 129/34/42 171/43/42
f 131/36/43 175/47/43 133/38/43
f 175/47/43 131/36/43 173/45/43
f 133/38/21 174/46/21 132/37/21
f 174/46/21 133/38/21 175/47/21
f 132/37/44 172/44/44 130/35/44
f 172/44/44 132/37/44 174/46/44
f 172/44/45 123/32/45 130/35/45
f 123/32/45 172/44/45 163/42/45
usemtl black
f 1/77/5 2/78/5 3/79/5
f 2/78/5 1/77/5 4/80/5
f 4/80/5 1/77/5 5/81/5
f 5/81/6 1/77/6 6/82/6
f 5/81/5 6/82/5 7/83/5
f 7/83/1 6/82/1 8/84/1
f 7/83/5 8/84/5 9/85/5
f 9/85/5 8/84/5 10/86/5
f 9/85/46 10/86/46 11/87/46
f 11/87/47 10/86/47 12/88/47
f 13/89/5 14/90/5 15/91/5
f 14/90/5 13/89/5 16/92/5
f 16/92/5 13/89/5 17/93/5
f 17/93/47 13/89/47 18/94/47
f 17/93/48 18/94/48 19/95/48
f 17/93/9 19/95/9 20/96/9
f 20/96/3 19/95/3 21/97/3
f 20/96/5 21/97/5 22/98/5
f 22/98/49 21/97/49 23/99/49
f 22/98/50 23/99/50 12/88/50
f 12/88/51 23/99/51 24/100/51
f 25/101/13 26/102/13 27/103/13
f 26/102/5 25/101/5 28/104/5
f 29/105/11 26/102/11 28/104/11
f 30/106/5 29/105/5 28/104/5
f 30/106/6 28/104/6 31/107/6
f 30/106/47 31/107/47 32/108/47
f 30/106/52 32/108/52 11/87/52
f 30/106/5 11/87/5 12/88/5
f 30/106/5 12/88/5 24/100/5
f 33/109/1 34/110/1 35/111/1
f 34/110/5 33/109/5 36/112/5
f 36/112/5 33/109/5 37/113/5
f 37/113/5 33/109/5 38/114/5
f 38/114/53 33/109/53 39/115/53
f 38/114/5 39/115/5 40/116/5
f 40/116/5 39/115/5 24/100/5
f 24/100/6 39/115/6 41/117/6
f 24/100/54 41/117/54 42/118/54
f 43/119/5 44/120/5 45/121/5
f 44/120/55 43/119/55 46/122/55
f 44/120/5 46/122/5 47/123/5
f 47/123/5 46/122/5 48/124/5
f 48/124/6 46/122/6 49/125/6
f 48/124/56 49/125/56 50/126/56
f 50/126/9 49/125/9 51/127/9
f 50/126/5 51/127/5 52/128/5
f 52/128/54 51/127/54 53/129/54
f 52/128/12 53/129/12 54/1/12
f 54/1/47 53/129/47 55/2/47
f 62/130/5 63/131/5 64/132/5
f 63/131/57 62/130/57 65/133/57
f 65/133/14 62/130/14 66/134/14
f 66/134/58 62/130/58 67/135/58
f 67/135/59 62/130/59 68/136/59
f 68/136/60 62/130/60 42/118/60
f 42/118/5 62/130/5 24/100/5
f 24/100/5 62/130/5 30/106/5
f 30/106/5 62/130/5 267/137/5 268/138/5
f 62/130/12 69/139/12 269/140/12 267/137/12
f 69/139/61 62/130/61 70/141/61
f 70/141/5 62/130/5 43/119/5
f 70/141/5 43/119/5 45/121/5
f 70/141/5 45/121/5 71/142/5
f 71/142/62 45/121/62 72/143/62
f 71/142/63 72/143/63 73/144/63
f 71/142/5 73/144/5 74/145/5
f 74/145/64 73/144/64 75/146/64
f 74/145/5 75/146/5 76/147/5
f 76/147/10 75/146/10 77/148/10
f 76/147/65 77/148/65 78/149/65
f 76/147/56 78/149/56 79/150/56
f 79/150/5 78/149/5 80/10/5
f 79/150/5 80/10/5 81/9/5
f 87/151/5 88/152/5 89/153/5
f 88/152/5 87/151/5 90/154/5
f 90/154/66 87/151/66 91/155/66
f 90/154/5 91/155/5 92/156/5
f 92/156/67 91/155/67 93/157/67
f 92/156/56 93/157/56 94/158/56
f 94/158/4 93/157/4 95/159/4
f 94/158/5 95/159/5 96/17/5
f 94/158/5 96/17/5 97/160/5
f 97/160/5 96/17/5 98/16/5
f 69/139/68 105/161/68 106/162/68
f 105/161/5 69/139/5 70/141/5
f 105/161/69 70/141/69 88/152/69
f 88/152/5 70/141/5 89/153/5
f 106/162/70 105/161/70 107/163/70
f 106/162/5 107/163/5 108/164/5
f 108/164/71 107/163/71 109/165/71
f 108/164/72 109/165/72 110/166/72
f 108/164/7 110/166/7 111/167/7
f 111/167/54 110/166/54 112/168/54
f 111/167/66 112/168/66 113/169/66
f 113/169/47 112/168/47 114/25/47
f 113/169/5 114/25/5 115/24/5
f 122/170/5 123/32/5 272/171/5 270/172/5 271/173/5
f 124/174/5 122/170/5 271/173/5 273/175/5
f 69/139/5 124/174/5 273/175/5 269/140/5
f 123/32/73 122/170/73 125/176/73
f 123/32/71 125/176/71 126/177/71
f 123/32/12 126/177/12 127/178/12
f 123/32/5 127/178/5 128/33/5
f 54/1/74 134/179/74 52/128/74
f 134/179/74 54/1/74 135/72/74
f 44/120/75 138/180/75 45/121/75
f 138/180/75 44/120/75 139/181/75
f 45/121/76 140/182/76 72/143/76
f 140/182/76 45/121/76 138/180/76
f 72/143/77 141/183/77 73/144/77
f 141/183/77 72/143/77 140/182/77
f 142/184/16 143/185/16 144/186/16
f 143/185/16 142/184/16 145/187/16
f 145/187/16 142/184/16 146/188/16
f 146/188/16 142/184/16 147/189/16
f 146/188/16 147/189/16 148/190/16
f 148/190/16 147/189/16 149/191/16
f 148/190/16 149/191/16 150/192/16
f 148/190/16 150/192/16 151/193/16
f 151/193/16 150/192/16 152/194/16
f 153/195/16 154/196/16 155/197/16
f 154/196/16 153/195/16 156/198/16
f 157/199/16 156/198/16 153/195/16
f 158/200/16 156/198/16 157/199/16
f 156/198/16 158/200/16 159/201/16
f 159/201/16 158/200/16 160/202/16
f 160/202/16 158/200/16 161/203/16
f 161/203/16 158/200/16 162/204/16
f 162/204/16 158/200/16 150/192/16
f 158/200/16 275/205/16 274/206/16
f 163/42/16 276/207/16 277/208/16
f 163/42/16 164/209/16 158/200/16 274/206/16 278/210/16 276/207/16
f 158/200/16 164/209/16 165/211/16
f 158/200/16 165/211/16 166/212/16
f 164/209/16 163/42/16 167/213/16
f 167/213/16 163/42/16 168/214/16
f 168/214/16 163/42/16 169/215/16
f 169/215/16 163/42/16 170/41/16
f 176/216/16 138/180/16 177/217/16
f 138/180/16 176/216/16 178/218/16
f 138/180/16 178/218/16 140/182/16
f 140/182/16 178/218/16 141/183/16
f 141/183/16 178/218/16 179/219/16
f 141/183/16 179/219/16 180/220/16
f 180/220/16 179/219/16 181/221/16
f 180/220/16 181/221/16 182/222/16
f 182/222/16 181/221/16 183/223/16
f 183/223/16 181/221/16 184/224/16
f 183/223/16 184/224/16 185/48/16
f 185/48/16 184/224/16 186/49/16
f 166/212/16 192/225/16 176/216/16
f 192/225/16 166/212/16 193/226/16
f 176/216/16 192/225/16 194/227/16
f 176/216/16 194/227/16 195/228/16
f 192/225/16 193/226/16 196/229/16
f 196/229/16 193/226/16 197/230/16
f 196/229/16 197/230/16 198/231/16
f 198/231/16 197/230/16 199/232/16
f 199/232/16 197/230/16 200/233/16
f 199/232/16 200/233/16 201/234/16
f 201/234/16 200/233/16 202/235/16
f 201/234/16 202/235/16 203/55/16
f 203/55/16 202/235/16 204/56/16
f 194/227/16 211/236/16 195/228/16
f 211/236/16 194/227/16 212/237/16
f 211/236/16 212/237/16 213/238/16
f 213/238/16 212/237/16 214/239/16
f 213/238/16 214/239/16 215/240/16
f 215/240/16 214/239/16 216/241/16
f 215/240/16 216/241/16 217/242/16
f 217/242/16 216/241/16 218/63/16
f 218/63/16 216/241/16 219/243/16
f 218/63/16 219/243/16 220/64/16
f 177/217/16 139/181/16 227/244/16
f 139/181/16 177/217/16 138/180/16
f 227/244/16 139/181/16 228/245/16
f 227/244/16 228/245/16 229/246/16
f 227/244/16 229/246/16 230/247/16
f 230/247/16 229/246/16 231/248/16
f 230/247/16 231/248/16 232/249/16
f 232/249/16 231/248/16 134/179/16
f 232/249/16 134/179/16 233/250/16
f 233/250/16 134/179/16 135/72/16
f 233/250/16 135/72/16 234/71/16
f 239/251/16 240/252/16 241/253/16
f 240/252/16 239/251/16 242/254/16
f 242/254/16 239/251/16 243/255/16
f 243/255/16 239/251/16 244/256/16
f 243/255/16 244/256/16 245/257/16
f 243/255/16 245/257/16 152/194/16
f 243/255/16 152/194/16 150/192/16
f 243/255/16 150/192/16 158/200/16
f 243/255/16 158/200/16 166/212/16
f 243/255/16 166/212/16 176/216/16
f 243/255/16 176/216/16 177/217/16
f 246/258/16 247/259/16 248/260/16
f 247/259/16 246/258/16 249/261/16
f 249/261/16 246/258/16 250/262/16
f 249/261/16 250/262/16 251/263/16
f 251/263/16 250/262/16 252/264/16
f 252/264/16 250/262/16 253/265/16
f 252/264/16 253/265/16 254/266/16
f 254/266/16 253/265/16 255/267/16
f 254/266/16 255/267/16 256/268/16
f 256/268/16 255/267/16 162/204/16
f 256/268/16 162/204/16 150/192/16
f 257/269/16 258/270/16 259/271/16
f 258/270/16 257/269/16 260/272/16
f 260/272/16 257/269/16 261/273/16
f 260/272/16 261/273/16 262/274/16
f 262/274/16 261/273/16 263/275/16
f 262/274/16 263/275/16 264/276/16
f 264/276/16 263/275/16 265/277/16
f 264/276/16 265/277/16 266/278/16
f 266/278/16 265/277/16 161/203/16
f 266/278/16 161/203/16 162/204/16
f 73/144/78 180/220/78 75/146/78
f 180/220/78 73/144/78 141/183/78
f 180/220/79 77/148/79 75/146/79
f 77/148/80 180/220/80 182/222/80
f 182/222/81 78/149/81 77/148/81
f 78/149/81 182/222/81 183/223/81
f 217/242/82 96/17/82 95/159/82
f 96/17/82 217/242/82 218/63/82
f 183/223/83 80/10/83 78/149/83
f 80/10/83 183/223/83 185/48/83
f 186/49/84 79/150/84 81/9/84
f 79/150/84 186/49/84 184/224/84
f 184/224/85 76/147/85 79/150/85
f 76/147/85 184/224/85 181/221/85
f 181/221/86 74/145/86 76/147/86
f 74/145/86 181/221/86 179/219/86
f 74/145/87 178/218/87 71/142/87
f 178/218/87 74/145/87 179/219/87
f 71/142/88 176/216/88 70/141/88
f 176/216/88 71/142/88 178/218/88
f 70/141/89 195/228/89 89/153/89
f 195/228/89 70/141/89 176/216/89
f 89/153/90 211/236/90 87/151/90
f 211/236/90 89/153/90 195/228/90
f 87/151/91 213/238/91 91/155/91
f 213/238/91 87/151/91 211/236/91
f 91/155/92 215/240/92 93/157/92
f 215/240/92 91/155/92 213/238/92
f 215/240/93 95/159/93 93/157/93
f 95/159/93 215/240/93 217/242/93
f 123/32/94 163/42/94 279/279/94 272/171/94
f 279/279/94 163/42/94 277/208/94
f 280/280/95 275/205/95 158/200/95
f 158/200/96 30/106/96 268/138/96 280/280/96
f 30/106/97 158/200/97 29/105/97
f 29/105/97 158/200/97 157/199/97
f 26/102/98 29/105/98 153/195/98
f 29/105/98 157/199/98 153/195/98
f 155/197/99 26/102/99 153/195/99
f 26/102/100 155/197/100 27/103/100
f 154/196/95 27/103/95 155/197/95
f 27/103/95 154/196/95 25/101/95
f 154/196/101 28/104/101 25/101/101
f 28/104/101 154/196/101 156/198/101
f 156/198/102 31/107/102 28/104/102
f 31/107/102 156/198/102 159/201/102
f 160/202/103 31/107/103 159/201/103
f 31/107/103 160/202/103 32/108/103
f 161/203/104 32/108/104 160/202/104
f 32/108/104 161/203/104 11/87/104
f 265/277/105 11/87/105 161/203/105
f 11/87/105 265/277/105 9/85/105
f 263/275/106 9/85/106 265/277/106
f 9/85/106 263/275/106 7/83/106
f 263/275/107 5/81/107 7/83/107
f 5/81/107 263/275/107 261/273/107
f 261/273/108 4/80/108 5/81/108
f 4/80/108 261/273/108 257/269/108
f 4/80/108 259/271/108 2/78/108
f 259/271/108 4/80/108 257/269/108
f 258/270/95 2/78/95 259/271/95
f 2/78/95 258/270/95 3/79/95
f 258/270/109 1/77/109 3/79/109
f 1/77/109 258/270/109 260/272/109
f 260/272/110 6/82/110 1/77/110
f 6/82/110 260/272/110 262/274/110
f 264/276/111 6/82/111 262/274/111
f 6/82/111 264/276/111 8/84/111
f 266/278/112 8/84/112 264/276/112
f 8/84/112 266/278/112 10/86/112
f 162/204/113 10/86/113 266/278/113
f 10/86/113 162/204/113 12/88/113
f 255/267/114 12/88/114 162/204/114
f 12/88/114 255/267/114 22/98/114
f 253/265/115 22/98/115 255/267/115
f 22/98/115 253/265/115 20/96/115
f 250/262/116 20/96/116 253/265/116
f 20/96/116 250/262/116 17/93/116
f 250/262/117 16/92/117 17/93/117
f 16/92/117 250/262/117 246/258/117
f 246/258/108 14/90/108 16/92/108
f 14/90/108 246/258/108 248/260/108
f 247/259/95 14/90/95 248/260/95
f 14/90/95 247/259/95 15/91/95
f 15/91/118 249/261/118 13/89/118
f 249/261/118 15/91/118 247/259/118
f 249/261/119 18/94/119 13/89/119
f 18/94/119 249/261/119 251/263/119
f 251/263/120 19/95/120 18/94/120
f 19/95/120 251/263/120 252/264/120
f 254/266/121 19/95/121 252/264/121
f 19/95/121 254/266/121 21/97/121
f 256/268/122 21/97/122 254/266/122
f 21/97/122 256/268/122 23/99/122
f 150/192/123 23/99/123 256/268/123
f 23/99/123 150/192/123 24/100/123
f 149/191/124 24/100/124 150/192/124
f 24/100/124 149/191/124 40/116/124
f 147/189/124 40/116/124 149/191/124
f 40/116/124 147/189/124 38/114/124
f 38/114/125 142/184/125 37/113/125
f 142/184/125 38/114/125 147/189/125
f 142/184/126 36/112/126 37/113/126
f 36/112/126 142/184/126 144/186/126
f 143/185/95 36/112/95 144/186/95
f 36/112/95 143/185/95 34/110/95
f 145/187/95 34/110/95 143/185/95
f 34/110/95 145/187/95 35/111/95
f 145/187/127 33/109/127 35/111/127
f 33/109/127 145/187/127 146/188/127
f 148/190/128 33/109/128 146/188/128
f 33/109/128 148/190/128 39/115/128
f 151/193/129 39/115/129 148/190/129
f 39/115/129 151/193/129 41/117/129
f 152/194/130 41/117/130 151/193/130
f 41/117/130 152/194/130 42/118/130
f 245/257/131 42/118/131 152/194/131
f 42/118/131 245/257/131 68/136/131
f 244/256/132 68/136/132 245/257/132
f 68/136/132 244/256/132 67/135/132
f 244/256/133 66/134/133 67/135/133
f 66/134/133 244/256/133 239/251/133
f 66/134/126 241/253/126 65/133/126
f 241/253/126 66/134/126 239/251/126
f 240/252/95 65/133/95 241/253/95
f 65/133/95 240/252/95 63/131/95
f 242/254/95 63/131/95 240/252/95
f 63/131/95 242/254/95 64/132/95
f 242/254/134 62/130/134 64/132/134
f 62/130/134 242/254/134 243/255/134
f 62/130/21 177/217/21 43/119/21
f 177/217/21 62/130/21 243/255/21
f 43/119/135 227/244/135 46/122/135
f 227/244/135 43/119/135 177/217/135
f 46/122/136 230/247/136 49/125/136
f 230/247/136 46/122/136 227/244/136
f 230/247/137 51/127/137 49/125/137
f 51/127/137 230/247/137 232/249/137
f 232/249/138 53/129/138 51/127/138
f 53/129/138 232/249/138 233/250/138
f 233/250/139 55/2/139 53/129/139
f 55/2/139 233/250/139 234/71/139
f 134/179/140 50/126/140 52/128/140
f 50/126/140 134/179/140 231/248/140
f 231/248/141 48/124/141 50/126/141
f 48/124/141 231/248/141 229/246/141
f 48/124/142 228/245/142 47/123/142
f 228/245/142 48/124/142 229/246/142
f 47/123/143 139/181/143 44/120/143
f 139/181/143 47/123/143 228/245/143
f 220/64/144 97/160/144 98/16/144
f 97/160/144 220/64/144 219/243/144
f 219/243/145 94/158/145 97/160/145
f 94/158/145 219/243/145 216/241/145
f 216/241/146 92/156/146 94/158/146
f 92/156/146 216/241/146 214/239/146
f 92/156/147 212/237/147 90/154/147
f 212/237/147 92/156/147 214/239/147
f 90/154/148 194/227/148 88/152/148
f 194/227/148 90/154/148 212/237/148
f 88/152/149 192/225/149 105/161/149
f 192/225/149 88/152/149 194/227/149
f 105/161/150 196/229/150 107/163/150
f 196/229/150 105/161/150 192/225/150
f 107/163/151 198/231/151 109/165/151
f 198/231/151 107/163/151 196/229/151
f 198/231/152 110/166/152 109/165/152
f 110/166/152 198/231/152 199/232/152
f 199/232/153 112/168/153 110/166/153
f 112/168/153 199/232/153 201/234/153
f 201/234/154 114/25/154 112/168/154
f 114/25/154 201/234/154 203/55/154
f 204/56/155 113/169/155 115/24/155
f 113/169/155 204/56/155 202/235/155
f 202/235/156 111/167/156 113/169/156
f 111/167/156 202/235/156 200/233/156
f 200/233/157 108/164/157 111/167/157
f 108/164/157 200/233/157 197/230/157
f 108/164/158 193/226/158 106/162/158
f 193/226/158 108/164/158 197/230/158
f 106/162/159 166/212/159 69/139/159
f 166/212/159 106/162/159 193/226/159
f 69/139/160 165/211/160 124/174/160
f 165/211/160 69/139/160 166/212/160
f 124/174/161 164/209/161 122/170/161
f 164/209/161 124/174/161 165/211/161
f 122/170/162 167/213/162 125/176/162
f 167/213/162 122/170/162 164/209/162
f 167/213/163 126/177/163 125/176/163
f 126/177/163 167/213/163 168/214/163
f 168/214/164 127/178/164 126/177/164
f 127/178/164 168/214/164 169/215/164
f 169/215/165 128/33/165 127/178/165
f 128/33/165 169/215/165 170/41/165
f 279/281/95 277/282/95 276/283/95 278/284/95 270/285/95 272/286/95
f 268/287/166 267/288/166 269/289/166 273/290/166 271/291/166 270/285/166 278/284/166 274/292/166 275/293/166 280/294/166
