# Blender v3.0.0 OBJ File: 'base.blend'
# www.blender.org
mtllib milo.mtl
o 0001_-_MILO-DS_BL|Group_1.466
v 0.353056 0.000592 0.015685
v 0.338769 0.000592 0.009770
v 0.338597 2.700257 0.009389
v 0.338769 2.700257 0.009771
v 0.338597 0.000592 0.009388
v 0.338501 0.000592 0.008958
v 0.338501 2.700257 0.008959
v 0.338121 0.000592 0.004087
v 0.338121 2.700257 0.003901
v 0.338051 2.700257 0.003781
v 0.337922 0.000592 0.003686
v 0.337922 2.700257 0.003687
v 0.330957 0.000592 0.003686
v 0.330957 2.700257 0.003687
v 0.330711 2.700257 0.003859
v 0.330598 2.700257 0.004027
v 0.330598 0.000592 0.004026
v 0.330221 2.700257 0.009370
v 0.329993 2.700257 0.009813
v 0.329993 0.000592 0.009812
v 0.329665 0.000592 0.010041
v 0.329236 2.700257 0.010173
v 0.237524 0.000592 0.015685
v 0.353056 0.000592 0.010508
v 0.231155 0.000592 0.010200
v 0.353018 0.000592 0.010372
v 0.352933 0.000592 0.010294
v 0.323242 0.000592 0.010258
v 0.264684 0.000592 0.010046
v 0.264412 0.000592 0.009819
v 0.263719 0.000592 0.003992
v 0.231703 0.000592 0.003914
v 0.263684 0.000592 0.003846
v 0.231969 0.000592 0.003687
v 0.263516 0.000592 0.003687
v 0.271496 0.000592 0.010175
v 0.282101 0.000592 0.010237
v 0.271896 0.000592 0.010018
v 0.281059 0.000592 0.009883
v 0.272216 0.000592 0.009727
v 0.280870 0.000592 0.009621
v 0.272381 0.000592 0.009285
v 0.280391 0.000592 0.004093
v 0.272467 0.000592 0.008944
v 0.272841 0.000592 0.003975
v 0.272897 0.000592 0.003848
v 0.272982 0.000592 0.003752
v 0.280090 0.000592 0.003687
v 0.287738 0.000592 0.010237
v 0.322769 0.000592 0.010188
v 0.288118 0.000592 0.010178
v 0.288546 0.000592 0.010013
v 0.288891 0.000592 0.009715
v 0.321976 0.000592 0.009505
v 0.289057 0.000592 0.009274
v 0.289482 0.000592 0.004006
v 0.321519 0.000592 0.004009
v 0.289557 0.000592 0.003840
v 0.289773 0.000592 0.003687
v 0.329236 0.000592 0.010173
v 0.339945 0.000592 0.010249
v 0.339043 0.000592 0.010024
v 0.330221 0.000592 0.009370
v 0.338121 0.000592 0.003900
v 0.330711 0.000592 0.003858
v 0.338051 0.000592 0.003780
v 0.339414 2.700257 0.010183
v 0.339043 2.700257 0.010025
v 0.339414 0.000592 0.010182
v 0.328869 0.000592 0.010257
v 0.322370 0.000592 0.010010
v 0.322144 0.000592 0.009786
v 0.322144 2.700257 0.009787
v 0.321883 0.000592 0.009093
v 0.321519 2.700257 0.004010
v 0.321883 2.700257 0.009094
v 0.321437 2.700257 0.003783
v 0.321325 2.700257 0.003687
v 0.321437 0.000592 0.003782
v 0.289773 2.700257 0.003687
v 0.321325 0.000592 0.003686
v 0.289482 2.700257 0.004007
v 0.289557 2.700257 0.003841
v 0.289057 2.700257 0.009275
v 0.288891 2.700257 0.009716
v 0.288546 2.700257 0.010013
v 0.288118 2.700257 0.010179
v 0.287738 2.700257 0.010238
v 0.282101 2.700257 0.010238
v 0.281782 0.000592 0.010185
v 0.281782 2.700257 0.010186
v 0.280325 2.700257 0.003889
v 0.280216 0.000592 0.003777
v 0.280325 0.000592 0.003888
v 0.280216 2.700257 0.003778
v 0.280090 2.700257 0.003687
v 0.273102 0.000592 0.003686
v 0.273102 2.700257 0.003687
v 0.272841 2.700257 0.003976
v 0.272897 2.700257 0.003849
v 0.272467 2.700257 0.008945
v 0.271896 2.700257 0.010018
v 0.265501 0.000592 0.010256
v 0.271120 0.000592 0.010256
v 0.265501 2.700257 0.010257
v 0.265063 0.000592 0.010185
v 0.265063 2.700257 0.010186
v 0.264684 2.700257 0.010047
v 0.264412 2.700257 0.009820
v 0.264200 0.000592 0.009464
v 0.264200 2.700257 0.009465
v 0.264055 0.000592 0.009012
v 0.264055 2.700257 0.009013
v 0.263684 2.700257 0.003847
v 0.263625 0.000592 0.003760
v 0.263625 2.700257 0.003761
v 0.231969 2.700257 0.003687
v 0.231815 2.700257 0.003791
v 0.231815 0.000592 0.003790
v 0.231629 2.700257 0.004067
v 0.231703 2.700257 0.003915
v 0.231629 0.000592 0.004066
v 0.231155 2.700257 0.010201
v 0.353056 2.700257 0.015686
v 0.353018 2.700257 0.010372
v 0.237524 0.000592 0.010200
v 0.237524 2.700257 0.015686
v 0.237524 2.700257 0.010201
v 0.328869 2.700257 0.010258
v 0.329665 2.700257 0.010041
v 0.338121 2.700257 0.004088
v 0.353056 2.700257 0.010508
v 0.323242 2.700257 0.010258
v 0.271120 2.700257 0.010257
v 0.263719 2.700257 0.003992
v 0.263516 2.700257 0.003687
v 0.322769 2.700257 0.010188
v 0.322370 2.700257 0.010010
v 0.321976 2.700257 0.009506
v 0.271496 2.700257 0.010175
v 0.281362 2.700257 0.010062
v 0.272216 2.700257 0.009727
v 0.272381 2.700257 0.009286
v 0.280391 2.700257 0.004093
v 0.272982 2.700257 0.003752
v 0.281362 0.000592 0.010061
v 0.280870 2.700257 0.009622
v 0.281059 2.700257 0.009884
v 0.280765 2.700257 0.009418
v 0.280765 0.000592 0.009417
v 0.352933 2.700257 0.010294
v 0.339945 2.700257 0.010250
v 0.237523 2.700257 0.010057
v 0.238154 2.700257 0.005062
v 0.238154 2.700257 0.005212
v 0.238152 2.700257 0.003784
v 0.238152 2.700257 0.003901
vn -0.5538 0.0000 -0.8326
vn 0.5832 0.0000 -0.8123
vn -0.8299 0.0000 -0.5578
vn -0.5786 0.0000 -0.8156
vn -0.7433 0.0000 -0.6689
vn 0.0000 -1.0000 0.0000
vn 0.0000 1.0000 0.0000
vn -0.9125 0.0000 -0.4091
vn 0.9512 0.0000 -0.3085
vn 0.8229 0.0000 -0.5682
vn -0.0000 0.0000 -1.0000
vn -0.5717 0.0000 -0.8205
vn 0.6481 0.0000 -0.7616
vn -0.4772 0.0000 -0.8788
vn -0.9140 0.0000 -0.4057
vn 0.9412 0.0000 -0.3377
vn 0.5608 0.0000 -0.8279
vn 0.7138 0.0000 -0.7003
vn -0.7533 0.0000 -0.6577
vn -0.9008 0.0000 -0.4343
vn 0.8657 0.0000 -0.5006
vn 0.0000 1.0000 -0.0012
vn 0.0000 1.0000 -0.0034
vn 0.0000 1.0000 -0.0024
vn 0.0000 1.0000 0.0033
vn 0.0000 1.0000 -0.0004
vn 0.0000 1.0000 0.0036
vn 0.9728 0.0000 -0.2316
vn 1.0000 0.0000 0.0000
vn 0.5869 0.0000 -0.8097
vn 0.0000 1.0000 -0.0050
vn 0.0000 1.0000 0.0024
vn 0.0000 1.0000 0.0030
vn 0.0000 1.0000 0.0010
vn 0.9111 0.0000 -0.4122
vn 0.9761 0.0000 -0.2171
vn 0.8883 0.0000 -0.4592
vn 0.9978 0.0000 -0.0669
vn 0.5067 0.0000 -0.8621
vn 0.0000 -0.0000 1.0000
vn -0.8890 0.0000 -0.4579
vn -0.5716 0.0000 -0.8206
vn -0.2942 0.0000 -0.9558
vn -0.2253 0.0000 -0.9743
vn 0.0000 1.0000 -0.0001
vn 0.0000 -1.0000 0.0010
vn -0.1542 0.0000 -0.9880
vn -0.2132 0.0000 -0.9770
vn 0.1616 0.0000 -0.9869
vn 0.1462 0.0000 -0.9893
vn 0.7011 0.0000 -0.7130
vn 0.6807 0.0000 -0.7326
vn 0.9975 0.0000 -0.0700
vn 0.4075 0.0000 -0.9132
vn -0.9367 0.0000 -0.3500
vn 0.6734 0.0000 -0.7393
vn -0.9968 0.0000 -0.0804
vn -0.9354 0.0000 -0.3535
vn -0.6728 0.0000 -0.7399
vn 0.8593 0.0000 -0.5115
vn 0.3911 0.0000 -0.9203
vn 0.1254 0.0000 -0.9921
vn 0.1614 0.0000 -0.9869
vn 0.9970 0.0000 -0.0779
vn 0.0034 0.0000 -1.0000
vn 0.8111 0.0000 -0.5849
vn -0.9972 0.0000 -0.0751
vn -0.6534 0.0000 -0.7570
vn 0.8589 0.0000 -0.5122
vn -0.9697 0.0000 -0.2445
vn -0.3654 0.0000 -0.9309
vn -0.3602 0.0000 -0.9329
vn 0.3434 0.0000 -0.9392
vn 0.9639 0.0000 -0.2663
vn -1.0000 -0.0000 0.0000
vn -0.9970 0.0000 -0.0771
vn 0.9755 0.0000 -0.2199
vn 0.6421 0.0000 -0.7666
vn -0.9975 0.0000 -0.0705
vn 0.9518 0.0000 -0.3066
vn 0.9974 0.0000 -0.0716
vn 0.0000 0.9999 -0.0123
vn 0.0000 1.0000 -0.0014
vn 0.0000 1.0000 0.0012
vn 0.0000 1.0000 0.0002
vn 0.0000 1.0000 -0.0023
vn 0.0000 1.0000 0.0021
vn 0.0000 0.9999 -0.0143
vn 0.0000 0.9974 0.0727
vn 0.0000 0.5981 0.8014
vn 0.0000 1.0000 0.0073
vn 0.0000 1.0000 -0.0043
vn 0.0000 1.0000 0.0003
vn 0.0000 1.0000 0.0001
vn 0.0000 1.0000 0.0042
vn 0.0000 0.9976 -0.0686
vn 0.0000 1.0000 -0.0018
vn 0.0000 1.0000 -0.0009
vn 0.2834 0.0000 -0.9590
vn 0.0000 1.0000 -0.0013
vn 0.0000 1.0000 0.0004
vn 0.0000 1.0000 -0.0055
vn 0.0000 1.0000 0.0011
vn 0.0000 1.0000 -0.0003
usemtl teksture
s off
f 117//1 34//1 119//1 118//1
f 95//2 93//2 48//2 96//2
f 65//3 17//3 16//3 15//3
f 80//4 59//4 58//4 83//4
f 119//5 32//5 121//5 118//5
f 31//6 32//6 33//6
f 33//6 32//6 119//6
f 33//6 119//6 115//6
f 115//6 119//6 34//6
f 115//6 34//6 35//6
f 56//6 58//6 79//6 57//6
f 94//6 45//6 46//6
f 94//6 46//6 93//6
f 93//6 46//6 47//6
f 93//6 47//6 48//6
f 48//6 47//6 97//6
f 9//7 15//7 16//7 131//7
f 77//7 83//7 82//7 75//7
f 79//6 58//6 59//6
f 79//6 59//6 81//6
f 64//6 65//6 66//6
f 66//6 65//6 13//6
f 66//6 13//6 11//6
f 58//8 56//8 82//8 83//8
f 43//9 94//9 92//9 144//9
f 114//10 33//10 115//10 116//10
f 78//11 81//11 59//11 80//11
f 14//12 13//12 65//12 15//12
f 77//13 79//13 81//13 78//13
f 96//11 48//11 97//11 98//11
f 98//14 97//14 47//14 145//14
f 46//15 45//15 99//15 100//15
f 57//16 79//16 77//16 75//16
f 116//17 115//17 35//17 136//17
f 92//18 94//18 93//18 95//18
f 136//11 35//11 34//11 117//11
f 47//19 46//19 100//19 145//19
f 32//20 122//20 120//20 121//20
f 12//11 11//11 13//11 14//11
f 9//21 64//21 66//21 10//21
f 17//6 65//6 64//6 8//6
f 15//22 9//22 10//22
f 15//7 10//7 14//7
f 14//23 10//23 12//23
f 121//24 157//24 156//24 118//24
f 118//7 156//7 117//7
f 83//7 77//7 80//7
f 80//25 77//25 78//25
f 99//7 92//7 100//7
f 100//26 92//26 95//26
f 100//7 95//7 145//7
f 145//27 95//27 96//27
f 145//7 96//7 98//7
f 31//28 33//28 114//28 135//28
f 8//29 64//29 9//29 131//29
f 10//30 66//30 11//30 12//30
f 156//31 157//31 114//31
f 157//32 135//32 114//32
f 156//33 114//33 116//33
f 156//34 116//34 136//34
usemtl black
f 2//35 5//35 3//35 4//35
f 5//36 6//36 7//36 3//36
f 41//37 150//37 149//37 147//37
f 112//38 31//38 135//38 113//38
f 141//39 146//39 39//39 148//39
f 126//40 128//40 123//40 25//40
f 63//41 20//41 19//41 18//41
f 19//42 20//42 21//42 130//42
f 130//43 21//43 60//43 22//43
f 22//44 60//44 70//44 129//44
f 132//7 128//7 127//7 124//7
f 122//6 126//6 25//6
f 126//6 122//6 106//6
f 126//6 106//6 103//6
f 126//6 103//6 24//6
f 24//6 103//6 26//6
f 26//6 103//6 27//6
f 27//6 103//6 28//6
f 106//6 122//6 29//6
f 29//6 122//6 30//6
f 30//6 122//6 110//6
f 110//6 122//6 112//6
f 135//7 157//7 154//7 113//7
f 36//6 37//6 104//6
f 37//6 36//6 90//6
f 90//6 36//6 146//6
f 146//6 36//6 38//6
f 146//6 38//6 39//6
f 39//6 38//6 40//6
f 39//6 40//6 41//6
f 4//45 3//45 18//45 19//45
f 150//6 42//6 43//6
f 43//6 42//6 44//6
f 28//6 49//6 50//6
f 49//6 28//6 104//6
f 104//46 28//46 103//46
f 49//6 104//6 37//6
f 50//6 49//6 51//6
f 50//6 51//6 71//6
f 71//6 51//6 52//6
f 71//6 52//6 53//6
f 71//6 53//6 72//6
f 72//6 53//6 54//6
f 122//6 32//6 31//6 112//6
f 60//6 61//6 70//6
f 61//6 60//6 69//6
f 69//6 60//6 62//6
f 62//6 60//6 21//6
f 62//6 21//6 20//6
f 62//6 20//6 2//6
f 5//6 63//6 6//6
f 7//7 131//7 16//7 18//7
f 144//45 92//45 99//45 101//45
f 70//6 27//6 28//6
f 27//6 70//6 61//6
f 87//47 51//47 49//47 88//47
f 140//48 36//48 104//48 134//48
f 105//49 103//49 106//49 107//49
f 133//50 28//50 50//50 137//50
f 138//51 71//51 72//51 73//51
f 68//52 62//52 2//52 4//52
f 150//53 43//53 144//53 149//53
f 137//54 50//54 71//54 138//54
f 42//55 40//55 142//55 143//55
f 129//11 70//11 28//11 133//11
f 125//56 26//56 27//56 151//56
f 82//57 56//57 55//57 84//57
f 55//58 53//58 85//58 84//58
f 142//59 40//59 38//59 102//59
f 72//60 54//60 139//60 73//60
f 67//61 69//61 62//61 68//61
f 152//62 61//62 69//62 67//62
f 88//11 49//11 37//11 89//11
f 89//63 37//63 90//63 91//63
f 6//64 8//64 131//64 7//64
f 151//65 27//65 61//65 152//65
f 39//66 41//66 147//66 148//66
f 45//67 44//67 101//67 99//67
f 85//68 53//68 52//68 86//68
f 30//69 110//69 111//69 109//69
f 101//70 44//70 42//70 143//70
f 102//71 38//71 36//71 140//71
f 86//72 52//72 51//72 87//72
f 134//11 104//11 103//11 105//11
f 107//73 106//73 29//73 108//73
f 24//74 26//74 125//74 132//74
f 126//75 23//75 127//75 128//75
f 120//76 122//76 25//76 123//76
f 54//77 74//77 76//77 139//77
f 126//6 24//6 1//6 23//6
f 108//78 29//78 30//78 109//78
f 16//79 17//79 63//79 18//79
f 110//80 112//80 113//80 111//80
f 74//81 57//81 75//81 76//81
f 129//82 151//82 152//82
f 129//7 152//7 22//7
f 22//83 152//83 67//83
f 22//84 67//84 68//84
f 22//7 68//7 130//7
f 130//7 68//7 19//7
f 19//85 68//85 4//85
f 63//6 5//6 2//6 20//6
f 18//85 3//85 7//85
f 76//7 75//7 82//7 84//7
f 17//6 8//6 6//6 63//6
f 123//86 128//86 153//86
f 123//7 153//7 155//7 120//7
f 105//83 132//83 125//83
f 105//87 125//87 151//87
f 105//88 151//88 133//88
f 133//89 151//89 129//89
f 105//90 133//90 134//90
f 120//32 155//32 154//32
f 139//85 76//85 84//85 85//85
f 133//91 88//91 134//91
f 88//92 133//92 137//92
f 88//7 137//7 87//7
f 87//93 137//93 138//93
f 87//7 138//7 86//7
f 86//7 138//7 85//7
f 85//22 138//22 73//22
f 85//26 73//26 139//26
f 55//6 74//6 54//6 53//6
f 56//6 57//6 74//6 55//6
f 147//94 149//94 143//94 142//94
f 134//95 89//95 140//95
f 89//96 134//96 88//96
f 140//97 89//97 91//97
f 140//98 91//98 141//98
f 140//7 141//7 102//7
f 102//93 141//93 148//93
f 102//7 148//7 142//7
f 142//94 148//94 147//94
f 42//6 150//6 41//6 40//6
f 143//7 149//7 144//7
f 143//7 144//7 101//7
f 45//6 94//6 43//6 44//6
f 1//29 24//29 132//29 124//29
f 91//99 90//99 146//99 141//99
f 1//40 124//40 127//40 23//40
f 153//7 128//7 132//7 105//7
f 155//7 153//7 107//7
f 155//100 107//100 108//100
f 154//101 155//101 109//101 111//101
f 154//7 157//7 121//7 120//7
f 153//102 105//102 107//102
f 155//103 108//103 109//103
f 154//104 111//104 113//104
