# Blender v3.0.0 OBJ File: 'base.blend'
# www.blender.org
mtllib olmo.mtl
o 0010_-_OLMO-DZII_BL|Group_1.469
v -0.002034 2.700592 0.000000
v -0.002114 2.700592 -0.000185
v -0.002114 2.700592 -0.000387
v 0.114032 2.700592 -0.004500
v 0.114048 2.700592 -0.004600
v -0.007952 2.700592 -0.004929
v -0.007952 2.700592 -0.005300
v 0.113895 2.700592 -0.004851
v 0.098195 2.700592 -0.004936
v 0.097735 2.700592 -0.005132
v 0.097518 2.700592 -0.005341
v 0.068195 2.700592 -0.006362
v 0.069317 2.700592 -0.011639
v 0.096156 2.700592 -0.011735
v 0.095950 2.700592 -0.011850
v 0.095451 2.700592 -0.011961
v 0.029049 2.700592 -0.005430
v 0.059971 2.700592 -0.005500
v 0.029672 2.700592 -0.005929
v 0.058285 2.700592 -0.011542
v 0.031554 2.700592 -0.011958
v 0.057558 2.700592 -0.011974
v 0.031847 2.700592 -0.012000
v 0.022357 2.700592 -0.005340
v 0.021447 2.700592 -0.005720
v 0.019706 2.700592 -0.011859
v 0.019447 2.700592 -0.011916
v 0.067246 0.000592 -0.005395
v -0.002114 0.000592 -0.000185
v -0.002034 0.000592 0.000000
v 0.111821 2.700592 0.000000
v 0.111821 0.000592 0.000000
v 0.113985 2.700592 -0.004411
v 0.111821 0.000592 0.000000
v 0.113985 0.000592 -0.004411
v -0.002114 0.000592 -0.000387
v 0.114032 0.000592 -0.004500
v -0.007952 0.000592 -0.004928
v -0.007952 0.000592 -0.005300
v 0.097518 0.000592 -0.005341
v 0.066850 0.000592 -0.005337
v 0.060647 0.000592 -0.005337
v 0.067246 0.000592 -0.005395
v 0.067917 0.000592 -0.005826
v 0.096233 0.000592 -0.011603
v 0.068195 0.000592 -0.006362
v 0.095950 0.000592 -0.011850
v 0.069517 0.000592 -0.011787
v 0.095711 0.000592 -0.011911
v 0.069772 0.000592 -0.011893
v 0.022357 0.000592 -0.005340
v 0.021963 0.000592 -0.005414
v -0.006884 0.000592 -0.011583
v 0.021233 0.000592 -0.005933
v -0.006725 0.000592 -0.011752
v -0.006498 0.000592 -0.011884
v 0.019447 0.000592 -0.011916
v 0.029049 0.000592 -0.005430
v 0.029389 0.000592 -0.005644
v 0.059524 0.000592 -0.005898
v 0.058285 0.000592 -0.011542
v 0.029894 0.000592 -0.006381
v 0.058199 0.000592 -0.011691
v 0.031233 0.000592 -0.011799
v 0.057807 0.000592 -0.011910
v 0.031847 0.000592 -0.012000
v 0.113895 0.000592 -0.004851
v 0.000092 0.000592 -0.004928
v -0.007952 0.000592 -0.004928
v -0.001958 2.700592 -0.000758
v 0.000092 2.700592 -0.004929
v -0.001958 0.000592 -0.000758
v 0.066850 2.700592 -0.005337
v 0.060647 2.700592 -0.005337
v 0.060250 0.000592 -0.005388
v 0.060250 2.700592 -0.005389
v 0.059725 0.000592 -0.005673
v 0.059725 2.700592 -0.005674
v 0.059971 0.000592 -0.005500
v 0.059725 0.000592 -0.005673
v 0.059524 2.700592 -0.005898
v 0.058285 0.000592 -0.011542
v 0.058285 0.000592 -0.011542
v 0.058199 2.700592 -0.011691
v 0.058199 0.000592 -0.011691
v 0.058199 0.000592 -0.011691
v 0.058005 0.000592 -0.011824
v 0.057807 2.700592 -0.011910
v 0.058005 2.700592 -0.011824
v 0.057558 0.000592 -0.011974
v 0.031554 0.000592 -0.011958
v 0.031233 2.700592 -0.011799
v 0.031554 0.000592 -0.011958
v 0.031039 0.000592 -0.011647
v 0.029894 2.700592 -0.006381
v 0.031039 2.700592 -0.011647
v 0.029672 0.000592 -0.005929
v 0.029389 0.000592 -0.005644
v 0.029389 2.700592 -0.005644
v 0.029672 0.000592 -0.005929
v 0.114048 0.000592 -0.004600
v 0.114017 0.000592 -0.004696
v 0.114017 0.000592 -0.004696
v 0.114017 2.700592 -0.004696
v 0.113970 2.700592 -0.004785
v 0.113970 0.000592 -0.004784
v 0.098688 0.000592 -0.004851
v 0.098688 2.700592 -0.004851
v 0.097914 0.000592 -0.005042
v 0.097914 2.700592 -0.005042
v 0.098195 0.000592 -0.004936
v 0.097735 0.000592 -0.005132
v 0.097333 0.000592 -0.005699
v 0.096233 2.700592 -0.011603
v 0.097333 2.700592 -0.005699
v 0.096233 0.000592 -0.011603
v 0.096156 0.000592 -0.011735
v 0.095711 2.700592 -0.011911
v 0.095451 0.000592 -0.011961
v 0.095711 0.000592 -0.011911
v 0.070040 0.000592 -0.011981
v 0.070040 2.700592 -0.011982
v 0.069772 2.700592 -0.011893
v 0.069517 2.700592 -0.011787
v 0.069317 0.000592 -0.011638
v 0.068195 0.000592 -0.006362
v 0.067917 2.700592 -0.005826
v 0.067604 0.000592 -0.005575
v 0.067604 2.700592 -0.005575
v 0.067246 2.700592 -0.005395
v 0.028659 0.000592 -0.005340
v 0.029049 0.000592 -0.005430
v 0.028659 2.700592 -0.005340
v 0.028659 0.000592 -0.005340
v 0.021963 2.700592 -0.005414
v 0.021695 0.000592 -0.005550
v 0.021695 2.700592 -0.005550
v 0.021963 0.000592 -0.005414
v 0.021447 0.000592 -0.005720
v 0.020079 2.700592 -0.011563
v 0.021233 2.700592 -0.005933
v 0.020079 0.000592 -0.011563
v 0.020079 0.000592 -0.011563
v 0.019986 2.700592 -0.011750
v 0.019986 0.000592 -0.011750
v 0.019986 0.000592 -0.011750
v 0.019706 0.000592 -0.011859
v 0.019447 0.000592 -0.011916
v 0.019706 0.000592 -0.011859
v 0.019174 0.000592 -0.011963
v 0.019174 2.700592 -0.011963
v -0.006237 2.700592 -0.011982
v -0.006237 0.000592 -0.011982
v -0.006498 2.700592 -0.011884
v -0.006884 2.700592 -0.011584
v -0.006725 2.700592 -0.011752
v -0.006884 0.000592 -0.011583
v -0.006884 0.000592 -0.011583
v -0.007952 0.000592 -0.005300
v 0.095502 2.700592 -0.004734
v 0.095452 2.700592 -0.011911
v 0.095509 2.700592 -0.003829
v 0.095460 2.700592 -0.011561
v 0.095509 2.700592 -0.003709
v 0.095495 2.700592 -0.005691
v 0.095498 2.700592 -0.005341
v 0.095501 2.700592 -0.004863
v 0.095498 2.700592 -0.005341
v 0.095504 2.700592 -0.004495
v 0.095459 2.700592 -0.011609
v 0.095535 2.700592 0.000000
v 0.095500 2.700592 -0.005048
v 0.095501 2.700592 -0.004865
v 0.095502 2.700592 -0.004808
v 0.095503 2.700592 -0.004570
v 0.095509 2.700592 -0.003739
v 0.095495 2.700592 -0.005707
v 0.095498 2.700592 -0.005345
v 0.095536 0.000592 0.000000
v 0.095452 2.700592 -0.011911
v 0.095456 2.700592 -0.011736
v 0.095460 2.700592 -0.011557
v 0.095501 2.700592 -0.004946
v 0.095509 2.700592 -0.003771
v 0.095496 2.700592 -0.005680
v 0.095535 0.386782 0.000000
v 0.095503 2.700592 -0.004653
v 0.095453 2.700592 -0.011850
v 0.095453 2.700592 -0.011849
v 0.095499 2.700592 -0.005136
v 0.063748 2.700592 -0.005337
v 0.025508 2.700592 -0.005340
vt 0.000000 0.000000
vt 0.000000 0.000000
vt 0.000000 0.000000
vt 0.000000 0.000000
vt 0.000000 0.000000
vt 0.000000 0.000000
vt 0.000000 0.000000
vt 0.000000 0.000000
vt 0.000000 0.000000
vt 0.000000 0.000000
vt 0.000000 0.000000
vt 0.000000 0.000000
vt 0.000000 0.000000
vt 0.000000 0.000000
vt 0.000000 0.000000
vt 0.000000 0.000000
vt 0.000000 0.000000
vt 0.000000 0.000000
vt 0.000000 0.000000
vt 0.000000 0.000000
vt 0.000000 0.000000
vt 0.000000 0.000000
vt 0.000000 0.000000
vt 0.000000 0.000000
vt 0.000000 0.000000
vt 0.000000 0.000000
vt 0.000000 0.000000
vt 0.000000 0.000000
vt 0.000000 0.000000
vt 0.000000 0.000000
vt 0.000000 0.000000
vt 0.000000 0.000000
vt 0.000000 0.000000
vt 0.000000 0.000000
vt 0.000000 0.000000
vt 0.000000 0.000000
vt 0.000000 0.000000
vt 0.000000 0.000000
vt 0.000000 0.000000
vt 0.000000 0.000000
vt 0.000000 0.000000
vt 0.000000 0.000000
vt 0.000000 0.000000
vt 0.000000 0.000000
vt 0.000000 0.000000
vt 0.000000 0.000000
vt 0.000000 0.000000
vt 0.000000 0.000000
vt 0.000000 0.000000
vt 0.000000 0.000000
vt 0.000000 0.000000
vt 0.000000 0.000000
vt 0.000000 0.000000
vt 0.000000 0.000000
vt 0.000000 0.000000
vt 0.000000 0.000000
vt 0.000000 0.000000
vt 0.000000 0.000000
vt 0.000000 0.000000
vt 0.000000 0.000000
vt 0.000000 0.000000
vt 0.000000 0.000000
vt 0.000000 0.000000
vt 0.000000 0.000000
vt 0.000000 0.000000
vt 0.000000 0.000000
vt 0.000000 0.000000
vt 0.000000 0.000000
vt 0.000000 0.000000
vt 0.000000 0.000000
vt 0.000000 0.000000
vt 0.000000 0.000000
vt 0.000000 0.000000
vt 0.000000 0.000000
vt 0.000000 0.000000
vt 0.000000 0.000000
vt 0.000000 0.000000
vt 0.000000 0.000000
vt 0.000000 0.000000
vt 0.000000 0.000000
vt 0.000000 0.000000
vt 0.000000 0.000000
vt 0.000000 0.000000
vt 0.000000 0.000000
vt 0.000000 0.000000
vt 0.000000 0.000000
vt 0.000000 0.000000
vt 0.000000 0.000000
vt 0.000000 0.000000
vt 0.000000 0.000000
vt 0.000000 0.000000
vt 0.000000 0.000000
vt 0.000000 0.000000
vt 0.000000 0.000000
vt 0.000000 0.000000
vt 0.000000 0.000000
vt 0.000000 0.000000
vt 0.000000 0.000000
vt 0.000000 0.000000
vt 0.000000 0.000000
vt 0.000000 0.000000
vt 0.000000 0.000000
vt 0.000000 0.000000
vt 0.000000 0.000000
vt 0.000000 0.000000
vt 0.000000 0.000000
vt 0.000000 0.000000
vt 0.000000 0.000000
vt 0.000000 0.000000
vt 0.000000 0.000000
vt 0.000000 0.000000
vt 0.000000 0.000000
vt 0.000000 0.000000
vt 0.000000 0.000000
vt 0.000000 0.000000
vt 0.000000 0.000000
vt 0.000000 0.000000
vt 0.000000 0.000000
vt 0.000000 0.000000
vt 0.000000 0.000000
vt 0.000000 0.000000
vt 0.000000 0.000000
vt 0.000000 0.000000
vt 0.000000 0.000000
vt 0.000000 0.000000
vt 0.000000 0.000000
vt 0.000000 0.000000
vt 0.000000 0.000000
vt 0.000000 0.000000
vt 0.000000 0.000000
vt 0.000000 0.000000
vt 0.000000 0.000000
vt 0.000000 0.000000
vt 0.000000 0.000000
vt 0.000000 0.000000
vt 0.000000 0.000000
vt 0.000000 0.000000
vt 0.000000 0.000000
vt 0.000000 0.000000
vt 0.000000 0.000000
vt 0.000000 0.000000
vt 0.000000 0.000000
vt 0.000000 0.000000
vt 0.000000 0.000000
vt 0.000000 0.000000
vt 0.000000 0.000000
vt 0.000000 0.000000
vt 0.000000 0.000000
vt 0.000000 0.000000
vt 0.000000 0.000000
vt 0.000000 0.000000
vt 0.000000 0.000000
vt 0.000000 0.000000
vt 0.000000 0.000000
vt 0.000000 0.000000
vt 0.000000 0.000000
vt 0.000000 0.000000
vt 0.000000 0.000000
vt 0.000000 0.000000
vt 0.000000 0.000000
vt 0.000000 0.000000
vt 0.000000 0.000000
vt 0.000000 0.000000
vt 0.000000 0.000000
vt 0.000000 0.000000
vt 0.000000 0.000000
vt 0.000000 0.000000
vt 0.000000 0.000000
vt 0.000000 0.000000
vt 0.000000 0.000000
vt 0.000000 0.000000
vt 0.000000 0.000000
vt 0.000000 0.000000
vt 0.000000 0.000000
vt 0.000000 0.000000
vt 0.000000 0.000000
vt 0.000000 0.000000
vt 0.000000 0.000000
vt 0.000000 0.000000
vt 0.000000 0.000000
vt 0.000000 0.000000
vt 0.000000 0.000000
vt 0.000000 0.000000
vt 0.000000 0.000000
vt 0.000000 0.000000
vt 0.000000 0.000000
vt 0.000000 0.000000
vt 0.000000 0.000000
vt 0.000000 0.000000
vt 0.000000 0.000000
vt 0.000000 0.000000
vt 0.000000 0.000000
vn 0.0000 1.0000 0.0027
vn 0.0000 1.0000 0.0010
vn 0.0000 1.0000 0.0038
vn 0.0000 1.0000 -0.0019
vn 0.0000 1.0000 0.0000
vn 0.0000 1.0000 -0.0025
vn 0.0000 1.0000 0.0066
vn 0.0000 1.0000 -0.0003
vn 0.0000 1.0000 0.0004
vn 0.0000 1.0000 0.0029
vn 0.0000 1.0000 -0.0012
vn 0.0000 1.0000 0.0018
vn 0.0000 1.0000 0.0008
vn 0.0000 -1.0000 0.0000
vn 0.8646 -0.0000 -0.5025
vn 0.5678 -0.0000 -0.8232
vn 0.3970 -0.0000 -0.9178
vn 0.2485 -0.0000 -0.9686
vn 0.0010 -0.0000 -1.0000
vn -0.1407 -0.0000 -0.9900
vn -0.4436 -0.0000 -0.8962
vn -0.6164 -0.0000 -0.7875
vn 0.8641 -0.0000 -0.5034
vn 0.4884 -0.0000 -0.8726
vn 0.2473 -0.0000 -0.9689
vn 0.1892 -0.0000 -0.9819
vn 0.0008 -0.0000 -1.0000
vn -0.3140 -0.0000 -0.9494
vn -0.3821 -0.0000 -0.9241
vn -0.5965 -0.0000 -0.8026
vn -0.5964 -0.0000 -0.8027
vn 0.8969 -0.0000 -0.4422
vn 0.3619 -0.0000 -0.9322
vn 0.2158 -0.0000 -0.9764
vn 0.1706 -0.0000 -0.9853
vn 0.0007 -0.0000 -1.0000
vn -0.3521 -0.0000 -0.9360
vn -0.5014 -0.0000 -0.8652
vn -0.7262 -0.0000 -0.6874
vn -0.7263 -0.0000 -0.6874
vn 0.0000 1.0000 0.0003
vn 0.0000 1.0000 0.0026
vn 0.0000 1.0000 0.0051
vn 0.0000 1.0000 -0.0050
vn 0.0000 1.0000 -0.0062
vn 0.0000 -0.9987 0.0514
vn 0.0000 1.0000 0.0063
vn 0.0000 1.0000 0.0007
vn 0.0000 1.0000 -0.0001
vn 0.0000 1.0000 -0.0011
vn 0.0000 1.0000 0.0025
vn 0.0000 1.0000 -0.0010
vn 0.0000 0.9998 0.0175
vn 0.0000 1.0000 0.0001
vn 0.0000 1.0000 -0.0091
vn 0.0000 1.0000 0.0023
vn 0.0000 1.0000 -0.0006
vn 0.0000 0.9984 0.0557
vn 0.0000 0.9611 0.2762
vn 0.0000 1.0000 -0.0005
vn 0.0000 1.0000 0.0002
vn 0.8843 0.0000 0.4669
vn 0.9860 0.0000 0.1667
vn -0.1433 -0.0000 -0.9897
vn -0.9222 -0.0000 -0.3866
vn -1.0000 -0.0000 0.0000
vn -0.9184 0.0000 0.3956
vn 0.0000 0.0000 1.0000
vn 0.8978 0.0000 0.4404
vn -0.8974 -0.0000 -0.4412
vn 0.0000 -0.0000 -1.0000
vn 0.1279 -0.0000 -0.9918
vn 0.3702 -0.0000 -0.9289
vn 0.5777 -0.0000 -0.8162
vn 0.7454 -0.0000 -0.6666
vn 0.9767 -0.0000 -0.2145
vn -0.9772 -0.0000 -0.2124
vn -0.8980 -0.0000 -0.4401
vn -0.7075 -0.0000 -0.7068
vn -0.5337 -0.0000 -0.8457
vn 0.9504 -0.0000 -0.3110
vn 0.8826 -0.0000 -0.4701
vn 0.6671 -0.0000 -0.7449
vn 0.1697 -0.0000 -0.9855
vn 0.3503 -0.0000 -0.9366
vn 0.4509 -0.0000 -0.8926
vn 0.6949 -0.0000 -0.7191
vn 0.8878 -0.0000 -0.4603
vn 0.9831 -0.0000 -0.1832
vn -0.9782 -0.0000 -0.2078
vn -0.8871 -0.0000 -0.4615
vn -0.6260 -0.0000 -0.7798
vn -0.4504 -0.0000 -0.8928
vn -0.2246 -0.0000 -0.9744
vn 0.1836 -0.0000 -0.9830
vn 0.4525 -0.0000 -0.8917
vn 0.5649 -0.0000 -0.8252
vn 0.7062 -0.0000 -0.7080
vn 0.9796 -0.0000 -0.2009
vn -0.9859 -0.0000 -0.1674
vn 0.0000 0.9995 0.0324
vn 0.0000 0.9999 -0.0126
vn 0.0000 1.0000 -0.0013
vn 0.0000 1.0000 -0.0014
vn 0.0000 1.0000 0.0015
vn 0.0000 1.0000 -0.0002
vn 0.0000 1.0000 -0.0017
vn 0.0000 0.9899 -0.1417
vn 0.0000 1.0000 0.0006
usemtl teksture
s off
f 13/1/1 170/2/1 181/3/1
f 13/1/2 181/3/2 189/4/2
f 13/1/3 189/4/3 188/5/3 124/6/3
f 124/6/4 188/5/4 161/7/4
f 124/6/5 161/7/5 180/8/5 123/9/5
f 123/9/6 180/8/6 16/10/6
f 123/9/7 16/10/7 122/11/7
f 96/12/8 20/13/8 84/14/8
f 96/12/9 84/14/9 89/15/9
f 96/12/5 89/15/5 92/16/5
f 92/16/4 89/15/4 88/17/4
f 92/16/5 88/17/5 21/18/5
f 21/18/10 88/17/10 22/19/10
f 21/18/5 22/19/5 23/20/5
f 155/21/2 140/22/2 144/23/2
f 155/21/5 144/23/5 156/24/5
f 156/24/11 144/23/11 26/25/11
f 156/24/5 26/25/5 154/26/5
f 154/26/12 26/25/12 27/27/12
f 154/26/5 27/27/5 152/28/5
f 152/28/13 27/27/13 151/29/13
f 45/30/14 125/31/14 117/32/14
f 117/32/14 125/31/14 47/33/14
f 47/33/14 125/31/14 48/34/14
f 47/33/14 48/34/14 49/35/14
f 49/35/14 48/34/14 50/36/14
f 49/35/14 50/36/14 119/37/14
f 119/37/14 50/36/14 121/38/14
f 143/39/14 53/40/14 145/41/14
f 145/41/14 53/40/14 55/42/14
f 145/41/14 55/42/14 147/43/14
f 147/43/14 55/42/14 56/44/14
f 147/43/14 56/44/14 57/45/14
f 57/45/14 56/44/14 153/46/14
f 57/45/14 153/46/14 150/47/14
f 61/48/14 94/49/14 63/50/14
f 63/50/14 94/49/14 87/51/14
f 87/51/14 94/49/14 64/52/14
f 87/51/14 64/52/14 65/53/14
f 65/53/14 64/52/14 93/54/14
f 65/53/14 93/54/14 90/55/14
f 90/55/14 93/54/14 66/56/14
f 83/57/15 84/14/15 20/13/15
f 84/14/15 83/57/15 85/58/15
f 86/59/16 89/15/16 84/14/16
f 89/15/16 86/59/16 87/51/16
f 87/51/17 88/17/17 89/15/17
f 88/17/17 87/51/17 65/53/17
f 88/17/18 90/55/18 22/19/18
f 90/55/18 88/17/18 65/53/18
f 22/19/19 66/56/19 23/20/19
f 66/56/19 22/19/19 90/55/19
f 23/20/20 91/60/20 21/18/20
f 91/60/20 23/20/20 66/56/20
f 21/18/21 64/52/21 92/16/21
f 64/52/21 21/18/21 93/54/21
f 64/52/22 96/12/22 92/16/22
f 96/12/22 64/52/22 94/49/22
f 45/30/23 14/61/23 114/62/23
f 14/61/23 45/30/23 117/32/23
f 117/32/24 15/63/24 14/61/24
f 15/63/24 117/32/24 47/33/24
f 15/63/25 120/64/25 118/65/25
f 120/64/25 15/63/25 47/33/25
f 118/65/26 119/37/26 16/10/26
f 119/37/26 118/65/26 120/64/26
f 16/10/27 121/38/27 122/11/27
f 121/38/27 16/10/27 119/37/27
f 122/11/28 50/36/28 123/9/28
f 50/36/28 122/11/28 121/38/28
f 123/9/29 48/34/29 124/6/29
f 48/34/29 123/9/29 50/36/29
f 48/34/30 13/1/30 124/6/30
f 13/1/31 48/34/31 125/31/31
f 143/39/32 144/23/32 140/22/32
f 144/23/32 143/39/32 145/41/32
f 146/66/33 26/25/33 144/23/33
f 26/25/33 146/66/33 147/43/33
f 26/25/34 148/67/34 27/27/34
f 148/67/34 26/25/34 149/68/34
f 27/27/35 150/47/35 151/29/35
f 150/47/35 27/27/35 148/67/35
f 151/29/36 153/46/36 152/28/36
f 153/46/36 151/29/36 150/47/36
f 152/28/37 56/44/37 154/26/37
f 56/44/37 152/28/37 153/46/37
f 154/26/38 55/42/38 156/24/38
f 55/42/38 154/26/38 56/44/38
f 55/42/39 155/21/39 156/24/39
f 155/21/40 55/42/40 157/69/40
f 188/5/5 189/4/5 15/63/5
f 189/4/5 181/3/5 14/61/5 15/63/5
f 181/3/41 170/2/41 114/62/41 14/61/41
f 170/2/5 163/70/5 114/62/5
f 16/10/5 180/8/5 118/65/5
f 163/70/5 182/71/5 114/62/5
f 180/8/5 161/7/5 118/65/5
f 161/7/6 188/5/6 15/63/6 118/65/6
usemtl black
f 33/72/5 164/73/5 171/74/5 31/75/5
f 1/76/5 164/73/5 176/77/5 2/78/5
f 2/78/42 176/77/42 184/79/42 3/80/42
f 3/80/5 184/79/5 162/81/5 70/82/5
f 70/82/5 162/81/5 169/83/5 71/84/5
f 71/84/43 169/83/43 175/85/43
f 71/84/44 175/85/44 187/86/44
f 71/84/8 187/86/8 160/87/8
f 71/84/45 160/87/45 174/88/45
f 71/84/46 174/88/46 105/89/46 6/90/46
f 6/90/5 105/89/5 167/91/5 7/92/5
f 7/92/47 167/91/47 173/93/47
f 108/94/48 105/89/48 8/95/48
f 7/92/49 173/93/49 183/96/49
f 7/92/50 183/96/50 172/97/50
f 7/92/51 172/97/51 190/98/51
f 7/92/52 190/98/52 168/99/52
f 7/92/53 168/99/53 166/100/53 73/101/53
f 73/101/5 166/100/5 178/102/5 130/103/5
f 130/103/54 178/102/54 185/104/54
f 130/103/5 185/104/5 165/105/5 129/106/5
f 129/106/5 165/105/5 177/107/5 127/108/5
f 127/108/5 177/107/5 182/71/5
f 127/108/50 182/71/50 163/70/50 12/109/50
f 12/109/5 163/70/5 170/2/5 13/1/5
f 76/110/55 133/111/55 74/112/55
f 133/111/5 76/110/5 17/113/5
f 17/113/56 76/110/56 18/114/56
f 17/113/5 18/114/5 99/115/5
f 99/115/57 18/114/57 78/116/57
f 99/115/5 78/116/5 19/117/5
f 19/117/54 78/116/54 81/118/54
f 19/117/5 81/118/5 20/13/5
f 19/117/5 20/13/5 95/119/5
f 95/119/5 20/13/5 96/12/5
f 7/92/5 135/120/5 155/21/5
f 135/120/5 7/92/5 24/121/5
f 24/121/5 7/92/5 74/112/5
f 74/112/58 7/92/58 73/101/58 191/122/58
f 24/121/59 74/112/59 133/111/59 192/123/59
f 155/21/49 135/120/49 137/124/49
f 155/21/60 137/124/60 25/125/60
f 155/21/61 25/125/61 141/126/61
f 155/21/5 141/126/5 140/22/5
f 35/127/62 4/128/62 33/72/62
f 4/128/62 35/127/62 37/129/62
f 37/129/63 5/130/63 4/128/63
f 5/130/63 37/129/63 101/131/63
f 130/103/64 41/132/64 73/101/64
f 41/132/64 130/103/64 28/133/64
f 72/134/65 3/80/65 70/82/65
f 3/80/65 72/134/65 36/135/65
f 36/135/66 2/78/66 3/80/66
f 2/78/66 36/135/66 29/136/66
f 2/78/67 30/137/67 1/76/67
f 30/137/67 2/78/67 29/136/67
f 32/138/68 186/139/68 179/140/68
f 1/76/68 186/139/68 171/74/68
f 32/138/69 33/72/69 31/75/69
f 33/72/69 32/138/69 35/127/69
f 29/136/14 34/141/14 30/137/14
f 34/141/14 29/136/14 35/127/14
f 35/127/14 29/136/14 36/135/14
f 35/127/14 36/135/14 72/134/14
f 35/127/14 72/134/14 68/142/14
f 35/127/14 68/142/14 37/129/14
f 37/129/14 68/142/14 101/131/14
f 101/131/14 68/142/14 102/143/14
f 102/143/14 68/142/14 106/144/14
f 106/144/5 68/142/5 38/145/5
f 106/144/14 38/145/14 39/146/14
f 106/144/14 39/146/14 107/147/14
f 107/147/14 39/146/14 111/148/14
f 111/148/14 39/146/14 109/149/14
f 109/149/14 39/146/14 112/150/14
f 112/150/14 39/146/14 40/151/14
f 40/151/14 39/146/14 41/132/14
f 41/132/14 39/146/14 42/152/14
f 40/151/14 41/132/14 43/153/14
f 40/151/14 43/153/14 113/154/14
f 113/154/14 43/153/14 128/155/14
f 113/154/14 128/155/14 44/156/14
f 113/154/14 44/156/14 45/30/14
f 45/30/14 44/156/14 46/157/14
f 45/30/14 46/157/14 125/31/14
f 39/146/14 51/158/14 42/152/14
f 51/158/14 39/146/14 52/159/14
f 52/159/14 39/146/14 53/40/14
f 52/159/14 53/40/14 136/160/14
f 136/160/14 53/40/14 139/161/14
f 139/161/14 53/40/14 54/162/14
f 54/162/14 53/40/14 143/39/14
f 42/152/14 131/163/14 75/164/14
f 131/163/14 42/152/14 51/158/14
f 75/164/14 131/163/14 58/165/14
f 75/164/14 58/165/14 79/166/14
f 79/166/14 58/165/14 59/167/14
f 79/166/14 59/167/14 77/168/14
f 77/168/14 59/167/14 100/169/14
f 77/168/14 100/169/14 60/170/14
f 60/170/14 100/169/14 61/48/14
f 61/48/14 100/169/14 62/171/14
f 61/48/14 62/171/14 94/49/14
f 67/172/14 106/144/14 107/147/14
f 68/142/68 6/90/68 69/173/68
f 6/90/68 68/142/68 71/84/68
f 68/142/70 70/82/70 71/84/70
f 70/82/70 68/142/70 72/134/70
f 73/101/71 42/152/71 74/112/71 191/122/71
f 42/152/71 73/101/71 41/132/71
f 74/112/72 75/164/72 76/110/72
f 75/164/72 74/112/72 42/152/72
f 76/110/73 79/166/73 18/114/73
f 79/166/73 76/110/73 75/164/73
f 18/114/74 77/168/74 78/116/74
f 77/168/74 18/114/74 79/166/74
f 80/174/75 81/118/75 78/116/75
f 81/118/75 80/174/75 60/170/75
f 60/170/76 20/13/76 81/118/76
f 20/13/76 60/170/76 82/175/76
f 94/49/77 95/119/77 96/12/77
f 95/119/77 94/49/77 62/171/77
f 159/176/66 6/90/66 7/92/66
f 6/90/66 159/176/66 38/145/66
f 62/171/78 19/117/78 95/119/78
f 19/117/78 62/171/78 97/177/78
f 19/117/79 98/178/79 99/115/79
f 98/178/79 19/117/79 100/169/79
f 99/115/80 58/165/80 17/113/80
f 58/165/80 99/115/80 59/167/80
f 101/131/81 104/179/81 5/130/81
f 104/179/81 101/131/81 102/143/81
f 103/180/82 105/89/82 104/179/82
f 105/89/82 103/180/82 106/144/82
f 105/89/83 67/172/83 8/95/83
f 67/172/83 105/89/83 106/144/83
f 8/95/71 107/147/71 108/94/71
f 107/147/71 8/95/71 67/172/71
f 108/94/84 111/148/84 9/181/84
f 111/148/84 108/94/84 107/147/84
f 9/181/85 109/149/85 110/182/85
f 109/149/85 9/181/85 111/148/85
f 110/182/86 112/150/86 10/183/86
f 112/150/86 110/182/86 109/149/86
f 10/183/87 40/151/87 11/184/87
f 40/151/87 10/183/87 112/150/87
f 40/151/88 115/185/88 11/184/88
f 115/185/88 40/151/88 113/154/88
f 113/154/89 114/62/89 115/185/89
f 114/62/89 113/154/89 116/186/89
f 125/31/90 12/109/90 13/1/90
f 12/109/90 125/31/90 126/187/90
f 126/187/91 127/108/91 12/109/91
f 127/108/91 126/187/91 44/156/91
f 127/108/92 128/155/92 129/106/92
f 128/155/92 127/108/92 44/156/92
f 129/106/93 28/133/93 130/103/93
f 28/133/93 129/106/93 128/155/93
f 17/113/94 131/163/94 133/111/94
f 131/163/94 17/113/94 132/188/94
f 133/111/71 51/158/71 24/121/71 192/123/71
f 51/158/71 133/111/71 134/189/71
f 24/121/95 138/190/95 135/120/95
f 138/190/95 24/121/95 51/158/95
f 135/120/96 136/160/96 137/124/96
f 136/160/96 135/120/96 138/190/96
f 137/124/97 139/161/97 25/125/97
f 139/161/97 137/124/97 136/160/97
f 25/125/98 54/162/98 141/126/98
f 54/162/98 25/125/98 139/161/98
f 54/162/99 140/22/99 141/126/99
f 140/22/99 54/162/99 142/191/99
f 158/192/100 7/92/100 155/21/100
f 7/92/100 158/192/100 159/176/100
f 162/81/5 184/79/5 33/72/5
f 190/98/48 172/97/48 110/182/48 10/183/48
f 177/107/101 165/105/101 115/185/101
f 184/79/102 176/77/102 33/72/102
f 174/88/13 160/87/13 104/179/13 105/89/13
f 172/97/103 183/96/103 9/181/103 110/182/103
f 165/105/5 185/104/5 115/185/5
f 176/77/5 164/73/5 33/72/5
f 160/87/104 187/86/104 5/130/104 104/179/104
f 183/96/105 173/93/105 108/94/105 9/181/105
f 185/104/54 178/102/54 11/184/54 115/185/54
f 171/74/5 164/73/5 1/76/5
f 187/86/106 175/85/106 4/128/106 5/130/106
f 178/102/5 166/100/5 11/184/5
f 175/85/107 169/83/107 33/72/107 4/128/107
f 171/74/68 186/139/68 32/138/68 31/75/68
f 166/100/5 168/99/5 11/184/5
f 173/93/108 167/91/108 105/89/108 108/94/108
f 169/83/109 162/81/109 33/72/109
f 179/140/68 186/139/68 1/76/68 30/137/68
f 168/99/8 190/98/8 10/183/8 11/184/8
f 182/71/5 177/107/5 115/185/5 114/62/5
