# Blender v3.0.0 OBJ File: 'base.blend'
# www.blender.org
mtllib vasco.mtl
o 0019_-_VASCO-DZ_BL|Group_1.478
v -0.165006 2.700593 0.002825
v -0.176135 2.700593 0.003284
v -0.105317 2.700593 0.002842
v -0.205832 2.700593 0.003284
v -0.202899 2.700593 0.003284
v -0.206196 2.700593 0.002852
v -0.151733 2.700593 0.003284
v -0.130953 2.700593 0.003284
v -0.117257 2.700593 0.003284
v -0.094311 2.700593 -0.002564
v -0.104810 2.700593 0.003284
v -0.131879 2.700593 -0.002991
v -0.125133 2.700593 -0.002612
v -0.125381 2.700593 -0.002900
v -0.132502 2.700593 -0.005504
v -0.138062 2.700593 -0.010214
v -0.144210 2.700593 -0.010337
v -0.150809 2.700593 -0.004164
v -0.158671 2.700593 -0.002743
v -0.158406 2.700593 -0.003275
v -0.158313 2.700593 -0.003753
v -0.149267 2.700593 -0.007413
v -0.147002 2.700593 -0.009359
v -0.157002 2.700593 -0.017397
v -0.156514 2.700593 -0.017643
v -0.176958 2.700593 0.003284
v -0.182496 2.700593 -0.002539
v -0.183149 2.700593 -0.003488
v -0.191392 2.700593 -0.007230
v -0.215510 2.700593 -0.017029
v -0.209911 2.700593 -0.002616
v -0.200941 2.700593 -0.008016
v -0.199353 2.700593 -0.010000
v -0.151733 0.000592 0.003284
v -0.164484 2.700593 0.003284
v -0.151543 0.000592 0.001247
v -0.151419 2.700593 -0.000093
v -0.151543 2.700593 0.001247
v -0.151419 0.000592 -0.000093
v -0.151177 0.000592 -0.002250
v -0.151177 2.700593 -0.002250
v -0.150809 0.000592 -0.004164
v -0.150237 0.000592 -0.005836
v -0.150237 2.700593 -0.005837
v -0.149267 0.000592 -0.007413
v -0.148264 2.700593 -0.008483
v -0.148264 0.000592 -0.008483
v -0.192869 2.700593 -0.009763
v -0.192869 0.000592 -0.009763
v -0.192180 0.000592 -0.009008
v -0.191689 2.700593 -0.008152
v -0.192180 2.700593 -0.009008
v -0.191689 0.000592 -0.008152
v -0.191392 0.000592 -0.007230
v -0.191136 0.000592 -0.005971
v -0.190888 2.700593 -0.003900
v -0.191136 2.700593 -0.005972
v -0.189930 0.000592 0.003284
v -0.176958 0.000592 0.003284
v -0.189930 2.700593 0.003284
v -0.176518 0.000592 0.002864
v -0.176518 2.700593 0.002864
v -0.176135 0.000592 0.003284
v -0.165377 0.000592 0.003284
v -0.165377 2.700593 0.003284
v -0.165006 0.000592 0.002825
v -0.164484 0.000592 0.003284
v -0.132970 0.000592 -0.006634
v -0.132502 0.000592 -0.005504
v -0.131879 0.000592 -0.002991
v -0.131441 2.700593 -0.000256
v -0.117257 0.000592 0.003284
v -0.116751 0.000592 0.002854
v -0.116351 2.700593 0.003284
v -0.116751 2.700593 0.002854
v -0.105903 2.700593 0.003284
v -0.104810 0.000592 0.003284
v -0.094853 2.700593 0.003284
v -0.094311 2.700593 0.003284
v -0.094311 0.000592 -0.002564
v -0.124339 0.000592 -0.002375
v -0.124339 2.700593 -0.002375
v -0.124776 2.700593 -0.002430
v -0.124776 0.000592 -0.002430
v -0.126870 2.700593 -0.016949
v -0.125545 2.700593 -0.003232
v -0.126870 0.000592 -0.016949
v -0.131441 0.000592 -0.000256
v -0.130953 0.000592 0.003284
v -0.105317 0.000592 0.002842
v -0.094853 0.000592 0.003284
v -0.094311 0.000592 0.003284
v -0.206571 0.000592 0.003284
v -0.209911 0.000592 0.003284
v -0.206196 0.000592 0.002852
v -0.205832 0.000592 0.003284
v -0.105903 0.000592 0.003284
v -0.116351 0.000592 0.003284
v -0.216311 0.000592 -0.002616
v -0.200343 0.000592 -0.009081
v -0.194270 0.000592 -0.010376
v -0.190888 0.000592 -0.003900
v -0.182496 0.000592 -0.002539
v -0.182799 0.000592 -0.002762
v -0.193671 0.000592 -0.010213
v -0.185095 0.000592 -0.017666
v -0.185486 0.000592 -0.017716
v -0.159137 0.000592 -0.002464
v -0.158916 0.000592 -0.002549
v -0.158520 0.000592 -0.002940
v -0.144210 0.000592 -0.010337
v -0.126938 0.000592 -0.017196
v -0.157002 0.000592 -0.017397
v -0.127766 0.000592 -0.017716
v -0.125133 0.000592 -0.002612
v -0.125381 0.000592 -0.002900
v -0.125545 0.000592 -0.003232
v -0.133836 0.000592 -0.007805
v -0.135250 0.000592 -0.008993
v -0.136687 0.000592 -0.009872
v -0.126938 2.700593 -0.017196
v -0.127125 0.000592 -0.017433
v -0.127125 2.700593 -0.017433
v -0.127371 2.700593 -0.017596
v -0.127371 0.000592 -0.017596
v -0.145725 0.000592 -0.009969
v -0.147002 0.000592 -0.009359
v -0.145725 2.700593 -0.009969
v -0.138062 0.000592 -0.010214
v -0.136687 2.700593 -0.009872
v -0.135250 2.700593 -0.008993
v -0.133836 2.700593 -0.007805
v -0.132970 2.700593 -0.006634
v -0.127766 2.700593 -0.017716
v -0.156222 0.000592 -0.017716
v -0.156222 2.700593 -0.017716
v -0.156814 0.000592 -0.017533
v -0.156514 0.000592 -0.017643
v -0.156814 2.700593 -0.017534
v -0.157090 2.700593 -0.017255
v -0.157090 0.000592 -0.017255
v -0.158313 0.000592 -0.003753
v -0.158406 0.000592 -0.003275
v -0.158520 2.700593 -0.002940
v -0.158671 0.000592 -0.002743
v -0.158916 2.700593 -0.002549
v -0.159137 2.700593 -0.002464
v -0.182132 0.000592 -0.002464
v -0.182132 2.700593 -0.002464
v -0.182799 2.700593 -0.002762
v -0.183003 0.000592 -0.003064
v -0.183003 2.700593 -0.003064
v -0.183149 0.000592 -0.003488
v -0.184357 2.700593 -0.017120
v -0.184357 0.000592 -0.017120
v -0.184440 0.000592 -0.017349
v -0.184440 2.700593 -0.017349
v -0.184698 2.700593 -0.017531
v -0.184698 0.000592 -0.017531
v -0.185095 2.700593 -0.017666
v -0.185486 2.700593 -0.017716
v -0.214512 2.700593 -0.017716
v -0.214512 0.000592 -0.017716
v -0.215033 0.000592 -0.017536
v -0.215363 2.700593 -0.017262
v -0.215033 2.700593 -0.017536
v -0.215363 0.000592 -0.017262
v -0.215510 0.000592 -0.017029
v -0.216311 2.700593 -0.002616
v -0.209911 0.000592 -0.002616
v -0.209911 2.700593 0.003284
v -0.206571 2.700593 0.003284
v -0.202899 0.000592 0.003284
v -0.202600 2.700593 0.002974
v -0.202600 0.000592 0.002974
v -0.202493 2.700593 0.002742
v -0.202493 0.000592 0.002742
v -0.201185 0.000592 -0.006915
v -0.201185 2.700593 -0.006915
v -0.200941 0.000592 -0.008016
v -0.200343 2.700593 -0.009081
v -0.199353 0.000592 -0.010000
v -0.198390 0.000592 -0.010376
v -0.198390 2.700593 -0.010376
v -0.193671 2.700593 -0.010213
v -0.194270 2.700593 -0.010376
vn 0.0000 1.0000 0.0000
vn 0.0000 1.0000 -0.0016
vn 0.0000 1.0000 -0.0003
vn 0.0000 1.0000 0.0011
vn 0.0000 1.0000 -0.0013
vn 0.0000 1.0000 0.0002
vn 0.0000 1.0000 0.0001
vn 0.0000 0.9998 -0.0194
vn 0.0000 1.0000 0.0021
vn 0.0000 1.0000 -0.0005
vn 0.0000 1.0000 0.0003
vn 0.0000 1.0000 -0.0015
vn 0.0000 1.0000 -0.0001
vn 0.0000 1.0000 0.0015
vn 0.0000 1.0000 -0.0002
vn 0.0000 0.0000 1.0000
vn 0.9957 0.0000 0.0926
vn 0.9938 0.0000 0.1113
vn 0.9820 0.0000 0.1886
vn 0.9462 0.0000 0.3236
vn 0.8516 0.0000 0.5242
vn 0.7298 0.0000 0.6837
vn 0.5702 0.0000 0.8215
vn -0.4886 0.0000 0.8725
vn -0.7389 0.0000 0.6739
vn -0.8674 0.0000 0.4976
vn -0.9518 0.0000 0.3068
vn -0.9799 0.0000 0.1994
vn -0.9929 0.0000 0.1188
vn -0.9912 0.0000 0.1322
vn 0.6902 0.0000 0.7236
vn -0.7391 0.0000 0.6736
vn 0.7775 0.0000 0.6288
vn -0.6608 0.0000 0.7506
vn -0.9239 0.0000 0.3827
vn -0.9706 0.0000 0.2407
vn -0.9874 0.0000 0.1581
vn -0.9906 0.0000 0.1365
vn 0.6471 0.0000 0.7624
vn -0.7324 0.0000 0.6809
vn 0.6012 0.0000 0.7991
vn -0.6564 0.0000 0.7544
vn 1.0000 0.0000 0.0000
vn -0.0063 -0.0000 -1.0000
vn 0.1243 -0.0000 -0.9922
vn 0.4552 -0.0000 -0.8904
vn 0.7563 -0.0000 -0.6543
vn 0.8976 -0.0000 -0.4408
vn 0.9954 0.0000 -0.0962
vn 0.0000 -1.0000 0.0000
vn 0.4307 0.0000 0.9025
vn 0.2363 0.0000 0.9717
vn -0.0201 0.0000 0.9998
vn -0.2411 0.0000 0.9705
vn -0.5222 0.0000 0.8528
vn -0.6430 0.0000 0.7659
vn -0.8041 0.0000 0.5944
vn -0.9959 -0.0000 -0.0901
vn -0.9815 0.0000 -0.1914
vn -0.9465 -0.0000 -0.3227
vn -0.7941 -0.0000 -0.6078
vn -0.6207 -0.0000 -0.7841
vn -0.3588 -0.0000 -0.9334
vn 0.0000 -0.0000 -1.0000
vn 0.2025 -0.0000 -0.9793
vn 0.5926 -0.0000 -0.8055
vn 0.8281 -0.0000 -0.5605
vn 0.9458 -0.0000 -0.3246
vn 0.9961 0.0000 -0.0883
vn -0.9985 -0.0000 -0.0555
vn -1.0000 0.0000 0.0000
vn 0.7546 0.0000 0.6561
vn -0.7642 0.0000 0.6450
vn 0.7189 0.0000 0.6952
vn 0.9085 0.0000 0.4178
vn 0.9910 0.0000 0.1342
vn 0.9763 0.0000 0.2163
vn 0.8720 0.0000 0.4895
vn 0.6802 0.0000 0.7330
vn 0.3634 0.0000 0.9316
vn -0.2627 0.0000 0.9649
vn 0.0000 1.0000 0.0006
vn 0.0000 1.0000 0.0035
vn 0.0000 1.0000 0.0017
vn 0.0000 1.0000 -0.0047
vn 0.0000 1.0000 -0.0007
vn 0.0000 1.0000 0.0071
vn 0.0000 1.0000 0.0007
vn 0.0000 1.0000 -0.0006
vn 0.0000 1.0000 -0.0028
vn 0.0000 1.0000 0.0027
vn 0.9635 -0.0000 -0.2678
vn 0.7856 -0.0000 -0.6188
vn 0.5510 -0.0000 -0.8345
vn 0.2918 -0.0000 -0.9565
vn 0.2919 -0.0000 -0.9565
vn -0.2433 -0.0000 -0.9700
vn -0.3428 -0.0000 -0.9394
vn -0.5873 -0.0000 -0.8094
vn -0.8487 -0.0000 -0.5289
vn 0.9401 -0.0000 -0.3409
vn 0.5770 -0.0000 -0.8167
vn 0.3216 -0.0000 -0.9469
vn 0.1283 -0.0000 -0.9917
vn -0.3279 -0.0000 -0.9447
vn -0.6380 -0.0000 -0.7701
vn -0.6380 -0.0000 -0.7700
vn -0.8461 -0.0000 -0.5330
usemtl black
s off
f 1//1 2//1 65//1
f 2//1 1//1 62//1
f 3//1 74//1 76//1
f 74//1 3//1 75//1
f 174//1 4//1 5//1
f 4//1 174//1 6//1
f 6//2 174//2 176//2
f 38//3 35//3 7//3
f 35//4 38//4 1//4
f 75//5 8//5 9//5
f 8//1 75//1 71//1
f 71//6 75//6 3//6
f 10//1 78//1 79//1
f 78//1 10//1 11//1
f 11//1 10//1 3//1
f 3//1 10//1 71//1
f 71//1 10//1 82//1
f 82//7 12//7 71//7
f 12//8 82//8 83//8
f 12//9 83//9 13//9
f 12//7 13//7 14//7
f 12//10 14//10 86//10
f 12//1 86//1 15//1
f 15//1 86//1 85//1
f 15//1 85//1 133//1
f 133//1 85//1 132//1
f 132//1 85//1 131//1
f 131//1 85//1 130//1
f 130//11 85//11 16//11
f 16//1 85//1 17//1
f 18//1 147//1 41//1
f 147//1 18//1 146//1
f 146//1 18//1 19//1
f 19//1 18//1 144//1
f 144//12 18//12 20//12
f 20//4 18//4 21//4
f 21//1 18//1 140//1
f 140//13 18//13 44//13
f 140//1 44//1 22//1
f 140//1 22//1 46//1
f 140//7 46//7 23//7
f 140//13 23//13 128//13
f 140//11 128//11 17//11
f 140//1 17//1 85//1
f 62//1 60//1 26//1
f 60//1 62//1 56//1
f 56//1 62//1 1//1
f 56//1 1//1 149//1
f 149//1 1//1 38//1
f 149//3 38//3 37//3
f 149//1 37//1 41//1
f 149//14 41//14 147//14
f 56//1 149//1 27//1
f 56//7 27//7 150//7
f 56//3 150//3 152//3
f 56//13 152//13 28//13
f 56//1 28//1 154//1
f 56//15 154//15 57//15
f 57//1 154//1 29//1
f 29//1 154//1 51//1
f 51//1 154//1 52//1
f 52//1 154//1 48//1
f 48//1 154//1 185//1
f 185//1 154//1 186//1
f 186//1 154//1 184//1
f 184//1 154//1 30//1
f 6//5 171//5 172//5
f 171//1 6//1 31//1
f 31//7 6//7 176//7
f 31//1 176//1 179//1
f 31//1 179//1 169//1
f 169//1 179//1 30//1
f 30//7 179//7 32//7
f 30//3 32//3 181//3
f 30//7 181//7 33//7
f 30//11 33//11 184//11
f 34//16 35//16 67//16
f 35//16 34//16 7//16
f 34//17 38//17 7//17
f 38//17 34//17 36//17
f 36//17 37//17 38//17
f 37//17 36//17 39//17
f 39//18 41//18 37//18
f 41//18 39//18 40//18
f 40//19 18//19 41//19
f 18//19 40//19 42//19
f 42//20 44//20 18//20
f 44//20 42//20 43//20
f 43//21 22//21 44//21
f 22//21 43//21 45//21
f 45//22 46//22 22//22
f 46//22 45//22 47//22
f 127//23 46//23 47//23
f 46//23 127//23 23//23
f 105//24 48//24 185//24
f 48//24 105//24 49//24
f 49//25 52//25 48//25
f 52//25 49//25 50//25
f 50//26 51//26 52//26
f 51//26 50//26 53//26
f 53//27 29//27 51//27
f 29//27 53//27 54//27
f 54//28 57//28 29//28
f 57//28 54//28 55//28
f 55//29 56//29 57//29
f 56//29 55//29 102//29
f 102//30 60//30 56//30
f 60//30 102//30 58//30
f 59//16 60//16 58//16
f 60//16 59//16 26//16
f 61//31 26//31 59//31
f 26//31 61//31 62//31
f 61//32 2//32 62//32
f 2//32 61//32 63//32
f 64//16 2//16 63//16
f 2//16 64//16 65//16
f 64//33 1//33 65//33
f 1//33 64//33 66//33
f 67//34 1//34 66//34
f 1//34 67//34 35//34
f 68//35 15//35 133//35
f 15//35 68//35 69//35
f 69//36 12//36 15//36
f 12//36 69//36 70//36
f 70//37 71//37 12//37
f 71//37 70//37 88//37
f 88//38 8//38 71//38
f 8//38 88//38 89//38
f 72//16 8//16 89//16
f 8//16 72//16 9//16
f 73//39 9//39 72//39
f 9//39 73//39 75//39
f 73//40 74//40 75//40
f 74//40 73//40 98//40
f 97//16 74//16 98//16
f 74//16 97//16 76//16
f 90//41 76//41 97//41
f 76//41 90//41 3//41
f 77//42 3//42 90//42
f 3//42 77//42 11//42
f 91//16 11//16 77//16
f 11//16 91//16 78//16
f 92//16 78//16 91//16
f 78//16 92//16 79//16
f 92//43 10//43 79//43
f 10//43 92//43 80//43
f 10//44 81//44 82//44
f 81//44 10//44 80//44
f 82//45 84//45 83//45
f 84//45 82//45 81//45
f 83//46 115//46 13//46
f 115//46 83//46 84//46
f 115//47 14//47 13//47
f 14//47 115//47 116//47
f 14//48 117//48 86//48
f 117//48 14//48 116//48
f 117//49 85//49 86//49
f 85//49 117//49 87//49
f 88//50 72//50 89//50
f 72//50 88//50 73//50
f 73//50 88//50 90//50
f 90//50 91//50 77//50
f 91//50 90//50 92//50
f 92//50 90//50 80//50
f 80//50 90//50 88//50
f 80//50 88//50 81//50
f 170//50 93//50 94//50
f 93//50 170//50 95//50
f 95//50 170//50 177//50
f 177//50 170//50 178//50
f 66//50 34//50 67//50
f 34//50 66//50 36//50
f 95//50 173//50 96//50
f 173//50 95//50 175//50
f 175//50 95//50 177//50
f 73//50 97//50 98//50
f 97//50 73//50 90//50
f 61//50 64//50 63//50
f 64//50 61//50 66//50
f 168//50 170//50 99//50
f 170//50 168//50 178//50
f 178//50 168//50 180//50
f 180//50 168//50 100//50
f 100//50 168//50 182//50
f 182//50 168//50 183//50
f 183//50 168//50 101//50
f 102//50 59//50 58//50
f 59//50 102//50 61//50
f 61//50 102//50 66//50
f 66//50 102//50 148//50
f 66//50 148//50 36//50
f 36//50 148//50 39//50
f 39//50 148//50 40//50
f 148//50 102//50 103//50
f 103//50 102//50 104//50
f 104//50 102//50 151//50
f 151//50 102//50 153//50
f 153//50 102//50 155//50
f 155//50 102//50 55//50
f 155//50 55//50 54//50
f 155//50 54//50 53//50
f 155//50 53//50 50//50
f 155//50 50//50 49//50
f 155//50 49//50 105//50
f 155//50 105//50 101//50
f 155//50 101//50 168//50
f 40//50 108//50 42//50
f 108//50 40//50 148//50
f 42//50 108//50 109//50
f 42//50 109//50 145//50
f 42//50 145//50 110//50
f 42//50 110//50 143//50
f 42//50 143//50 142//50
f 42//50 142//50 141//50
f 42//50 141//50 43//50
f 43//50 141//50 45//50
f 45//50 141//50 47//50
f 47//50 141//50 127//50
f 127//50 141//50 126//50
f 126//50 141//50 111//50
f 111//50 141//50 87//50
f 70//50 81//50 88//50
f 81//50 70//50 84//50
f 84//50 70//50 115//50
f 115//50 70//50 116//50
f 116//50 70//50 117//50
f 117//50 70//50 69//50
f 117//50 69//50 87//50
f 87//50 69//50 68//50
f 87//50 68//50 118//50
f 87//50 118//50 119//50
f 87//50 119//50 120//50
f 87//50 120//50 129//50
f 87//50 129//50 111//50
f 126//51 23//51 127//51
f 23//51 126//51 128//51
f 111//52 128//52 126//52
f 128//52 111//52 17//52
f 129//53 17//53 111//53
f 17//53 129//53 16//53
f 120//54 16//54 129//54
f 16//54 120//54 130//54
f 119//55 130//55 120//55
f 130//55 119//55 131//55
f 118//56 131//56 119//56
f 131//56 118//56 132//56
f 118//57 133//57 132//57
f 133//57 118//57 68//57
f 141//58 21//58 140//58
f 21//58 141//58 142//58
f 142//59 20//59 21//59
f 20//59 142//59 143//59
f 143//60 144//60 20//60
f 144//60 143//60 110//60
f 110//61 19//61 144//61
f 19//61 110//61 145//61
f 19//62 109//62 146//62
f 109//62 19//62 145//62
f 146//63 108//63 147//63
f 108//63 146//63 109//63
f 147//64 148//64 149//64
f 148//64 147//64 108//64
f 149//65 103//65 27//65
f 103//65 149//65 148//65
f 27//66 104//66 150//66
f 104//66 27//66 103//66
f 104//67 152//67 150//67
f 152//67 104//67 151//67
f 151//68 28//68 152//68
f 28//68 151//68 153//68
f 153//69 154//69 28//69
f 154//69 153//69 155//69
f 168//70 169//70 30//70
f 169//70 168//70 99//70
f 99//16 31//16 169//16
f 31//16 99//16 170//16
f 170//71 171//71 31//71
f 171//71 170//71 94//71
f 94//16 172//16 171//16
f 172//16 94//16 93//16
f 93//72 6//72 172//72
f 6//72 93//72 95//72
f 95//73 4//73 6//73
f 4//73 95//73 96//73
f 96//16 5//16 4//16
f 5//16 96//16 173//16
f 173//74 174//74 5//74
f 174//74 173//74 175//74
f 175//75 176//75 174//75
f 176//75 175//75 177//75
f 177//76 179//76 176//76
f 179//76 177//76 178//76
f 178//77 32//77 179//77
f 32//77 178//77 180//77
f 180//78 181//78 32//78
f 181//78 180//78 100//78
f 100//79 33//79 181//79
f 33//79 100//79 182//79
f 182//80 184//80 33//80
f 184//80 182//80 183//80
f 183//16 186//16 184//16
f 186//16 183//16 101//16
f 101//81 185//81 186//81
f 185//81 101//81 105//81
usemtl teksture
f 140//12 85//12 121//12
f 140//82 121//82 123//82
f 140//83 123//83 24//83
f 24//1 123//1 139//1
f 139//84 123//84 124//84
f 139//85 124//85 25//85
f 25//86 124//86 134//86
f 25//87 134//87 136//87
f 30//9 154//9 165//9
f 165//1 154//1 157//1
f 165//1 157//1 166//1
f 166//88 157//88 158//88
f 166//89 158//89 160//89
f 166//90 160//90 162//90
f 162//91 160//91 161//91
f 85//92 112//92 121//92
f 112//92 85//92 87//92
f 155//50 168//50 167//50
f 155//50 167//50 156//50
f 156//50 167//50 164//50
f 156//50 164//50 159//50
f 159//50 164//50 106//50
f 106//50 164//50 163//50
f 106//50 163//50 107//50
f 87//50 141//50 112//50
f 112//50 141//50 122//50
f 122//50 141//50 113//50
f 122//50 113//50 137//50
f 122//50 137//50 125//50
f 125//50 137//50 138//50
f 125//50 138//50 114//50
f 114//50 138//50 135//50
f 112//93 123//93 121//93
f 123//93 112//93 122//93
f 122//94 124//94 123//94
f 124//94 122//94 125//94
f 124//95 114//95 134//95
f 114//96 124//96 125//96
f 134//64 135//64 136//64
f 135//64 134//64 114//64
f 136//97 138//97 25//97
f 138//97 136//97 135//97
f 25//98 137//98 139//98
f 137//98 25//98 138//98
f 137//99 24//99 139//99
f 24//99 137//99 113//99
f 113//100 140//100 24//100
f 140//100 113//100 141//100
f 155//101 157//101 154//101
f 157//101 155//101 156//101
f 156//102 158//102 157//102
f 158//102 156//102 159//102
f 158//103 106//103 160//103
f 106//103 158//103 159//103
f 160//104 107//104 161//104
f 107//104 160//104 106//104
f 161//64 163//64 162//64
f 163//64 161//64 107//64
f 162//105 164//105 166//105
f 164//105 162//105 163//105
f 164//106 165//106 166//106
f 165//107 164//107 167//107
f 167//108 30//108 165//108
f 30//108 167//108 168//108
