# Blender v3.0.0 OBJ File: 'base.blend'
# www.blender.org
mtllib zl1.mtl
o 0002_-_ZL1-DS_BL|Group_1.468
v 0.237453 0.000592 0.015685
v 0.223152 0.000592 0.009770
v 0.222980 2.700257 0.009389
v 0.223152 2.700257 0.009771
v 0.222980 0.000592 0.009388
v 0.222884 0.000592 0.008958
v 0.222884 2.700257 0.008959
v 0.222503 0.000592 0.004087
v 0.222503 2.700257 0.003901
v 0.222434 2.700257 0.003781
v 0.222304 0.000592 0.003686
v 0.222304 2.700257 0.003687
v 0.237453 0.000592 0.010508
v 0.237416 0.000592 0.010372
v 0.237330 0.000592 0.010294
v 0.224329 0.000592 0.010249
v 0.223427 0.000592 0.010024
v 0.222503 0.000592 0.003900
v 0.222434 0.000592 0.003780
v 0.223798 2.700257 0.010183
v 0.223427 2.700257 0.010025
v 0.223798 0.000592 0.010182
v 0.237453 2.700257 0.015686
v 0.237416 2.700257 0.010372
v 0.222503 2.700257 0.004088
v 0.237453 2.700257 0.010508
v 0.237330 2.700257 0.010294
v 0.224329 2.700257 0.010250
v 0.195453 2.700257 0.010453
v 0.195453 2.700257 0.015686
v 0.195453 2.700257 0.003687
v 0.195453 0.000592 0.010448
v 0.195453 0.000592 0.010452
v 0.195453 0.000592 0.010344
v 0.195453 2.700257 0.010263
v 0.195453 2.700257 0.010256
v 0.195453 0.000592 0.010285
v 0.195453 0.000592 0.010268
v 0.195453 2.700257 0.010194
v 0.195453 2.700257 0.009375
v 0.195453 2.700257 0.010176
v 0.195453 2.700257 0.009803
v 0.195453 2.700257 0.003866
v 0.195453 2.700257 0.010130
v 0.195453 2.700257 0.004039
v 0.195453 2.700257 0.010037
v 0.195453 0.000592 0.010193
v 0.195453 0.000592 0.010255
v 0.195453 2.700257 0.009862
v 0.195453 0.000592 0.010175
v 0.195453 0.000592 0.010130
v 0.195453 0.000592 0.010036
v 0.195453 0.000592 0.009374
v 0.195453 0.000592 0.009861
v 0.195453 0.000592 0.009802
v 0.195453 2.700257 0.009278
v 0.195453 0.000592 0.009277
v 0.195453 0.000592 0.003866
v 0.195453 0.000592 0.004038
v 0.195453 2.700257 0.003844
v 0.195453 0.000592 0.003844
v 0.195453 2.700257 0.003702
v 0.195453 0.000592 0.003701
v 0.195453 0.000592 0.003686
v 0.195453 0.000592 0.010262
v 0.195453 2.700257 0.010448
v 0.195453 2.700257 0.010345
v 0.195453 0.000592 0.015685
v 0.195453 2.700257 0.010286
v 0.195453 2.700257 0.010269
vt 0.000000 0.000000
vt 0.000000 0.000000
vt 0.000000 0.000000
vt 0.000000 0.000000
vt 0.000000 0.000000
vt 0.000000 0.000000
vt 0.000000 0.000000
vt 0.000000 0.000000
vt 0.000000 0.000000
vt 0.000000 0.000000
vt 0.000000 0.000000
vt 0.000000 0.000000
vt 0.000000 0.000000
vt 0.000000 0.000000
vt 0.000000 0.000000
vt 0.000000 0.000000
vt 0.000000 0.000000
vt 0.000000 0.000000
vt 0.620055 0.632010
vt 0.620055 0.619608
vt 0.620055 0.619598
vt 0.620055 0.619353
vt 0.620055 0.619212
vt 0.620055 0.619173
vt 0.620055 0.619158
vt 0.620055 0.619141
vt 0.620055 0.618994
vt 0.620055 0.618952
vt 0.620055 0.618844
vt 0.620055 0.618623
vt 0.620055 0.618207
vt 0.620055 0.618068
vt 0.620055 0.617053
vt 0.620055 0.616825
vt 0.620055 0.604408
vt 0.620055 0.604000
vt 0.620055 0.603947
vt 0.620055 0.603611
vt 0.620055 0.603576
vt 0.386332 0.603573
vt 0.386332 0.603608
vt 0.386332 0.603946
vt 0.386332 0.603998
vt 0.386332 0.604406
vt 0.386332 0.616823
vt 0.386332 0.617051
vt 0.386332 0.618065
vt 0.386332 0.618205
vt 0.386332 0.618622
vt 0.386332 0.618843
vt 0.386332 0.618950
vt 0.386332 0.618993
vt 0.386332 0.619140
vt 0.386332 0.619157
vt 0.386332 0.619172
vt 0.386332 0.619210
vt 0.386332 0.619351
vt 0.386332 0.619596
vt 0.386332 0.619607
vt 0.386332 0.632008
vt 0.000000 0.000000
vt 0.000000 0.000000
vt 0.000000 0.000000
vt 0.000000 0.000000
vt 0.000000 0.000000
vt 0.000000 0.000000
vt 0.000000 0.000000
vt 0.000000 0.000000
vt 0.000000 0.000000
vt 0.000000 0.000000
vt 0.000000 0.000000
vt 0.000000 0.000000
vt 0.000000 0.000000
vt 0.000000 0.000000
vt 0.000000 0.000000
vt 0.000000 0.000000
vt 0.000000 0.000000
vt 0.000000 0.000000
vt 0.000000 0.000000
vt 0.000000 0.000000
vt 0.000000 0.000000
vt 0.000000 0.000000
vt 0.000000 0.000000
vt 0.000000 0.000000
vt 0.000000 0.000000
vt 0.000000 0.000000
vt 0.000000 0.000000
vt 0.000000 0.000000
vt 0.000000 0.000000
vt 0.000000 0.000000
vt 0.000000 0.000000
vt 0.000000 0.000000
vt 0.000000 0.000000
vt 0.000000 0.000000
vt 0.000000 0.000000
vt 0.000000 0.000000
vt 0.000000 0.000000
vt 0.000000 0.000000
vt 0.000000 0.000000
vt 0.000000 0.000000
vt 0.000000 0.000000
vt 0.000000 0.000000
vt 0.000000 0.000000
vt 0.000000 0.000000
vt 0.000000 0.000000
vt 0.000000 0.000000
vt 0.000000 0.000000
vt 0.000000 0.000000
vt 0.000000 0.000000
vt 0.000000 0.000000
vt 0.000000 0.000000
vt 0.000000 0.000000
vn 0.0000 1.0000 0.0000
vn 0.0000 -1.0000 0.0000
vn -0.0000 0.0000 -1.0000
vn 0.8655 0.0000 -0.5009
vn 1.0000 0.0000 0.0000
vn 0.5865 0.0000 -0.8100
vn -1.0000 -0.0000 0.0000
vn 0.9109 0.0000 -0.4125
vn 0.9761 0.0000 -0.2173
vn 0.6803 0.0000 -0.7329
vn 0.6730 0.0000 -0.7397
vn 0.3908 0.0000 -0.9205
vn 0.1252 0.0000 -0.9921
vn 0.9970 0.0000 -0.0779
vn 0.0034 0.0000 -1.0000
vn 0.9638 0.0000 -0.2665
vn 0.0000 1.0000 0.0010
vn 0.0000 1.0000 0.0015
vn 0.0000 1.0000 -0.0026
vn 0.0000 -0.0000 1.0000
usemtl teksture
s off
f 25/1/1 9/2/1 43/3/1 45/4/1
f 19/5/2 18/6/2 58/7/2 61/8/2
f 63/9/2 19/5/2 61/8/2
f 11/10/2 19/5/2 63/9/2 64/11/2
f 31/12/3 12/13/3 11/10/3 64/11/3
f 9/2/4 18/6/4 19/5/4 10/14/4
f 58/7/2 18/6/2 8/15/2 59/16/2
f 9/2/1 10/14/1 60/17/1 43/3/1
f 62/18/1 60/17/1 10/14/1
f 10/14/1 12/13/1 31/12/1 62/18/1
f 8/15/5 18/6/5 9/2/5 25/1/5
f 10/14/6 19/5/6 11/10/6 12/13/6
f 30/19/7 29/20/7 66/21/7 67/22/7 69/23/7 70/24/7 35/25/7 36/26/7 39/27/7 41/28/7 44/29/7 46/30/7 49/31/7 42/32/7 40/33/7 56/34/7 45/35/7 43/36/7 60/37/7 62/38/7 31/39/7 64/40/7 63/41/7 61/42/7 58/43/7 59/44/7 57/45/7 53/46/7 55/47/7 54/48/7 52/49/7 51/50/7 50/51/7 47/52/7 48/53/7 65/54/7 38/55/7 37/56/7 34/57/7 32/58/7 33/59/7 68/60/7
usemtl black
f 2/61/8 5/62/8 3/63/8 4/64/8
f 5/62/9 6/65/9 7/66/9 3/63/9
f 23/67/1 26/68/1 29/69/1 30/70/1
f 32/71/2 13/72/2 33/73/2
f 14/74/2 13/72/2 32/71/2 34/75/2
f 15/76/2 14/74/2 34/75/2 37/77/2
f 38/78/2 15/76/2 37/77/2
f 42/79/1 4/64/1 3/63/1 40/80/1
f 47/81/2 16/82/2 48/83/2
f 22/84/2 16/82/2 47/81/2 50/85/2
f 17/86/2 22/84/2 50/85/2 51/87/2
f 52/88/2 17/86/2 51/87/2
f 54/89/2 17/86/2 52/88/2
f 2/61/2 17/86/2 54/89/2 55/90/2
f 6/65/2 5/62/2 53/91/2 57/92/2
f 56/93/1 7/66/1 25/1/1 45/4/1
f 65/94/2 15/76/2 38/78/2
f 16/82/2 15/76/2 65/94/2 48/83/2
f 21/95/10 17/86/10 2/61/10 4/64/10
f 24/96/11 14/74/11 15/76/11 27/97/11
f 20/98/12 22/84/12 17/86/12 21/95/12
f 28/99/13 16/82/13 22/84/13 20/98/13
f 6/65/14 8/15/14 25/1/14 7/66/14
f 27/97/15 15/76/15 16/82/15 28/99/15
f 13/72/16 14/74/16 24/96/16 26/68/16
f 13/72/2 1/100/2 68/101/2 33/73/2
f 27/97/1 28/99/1 36/102/1 35/103/1
f 39/104/1 36/102/1 28/99/1
f 28/99/1 20/98/1 41/105/1 39/104/1
f 20/98/1 21/95/1 44/106/1 41/105/1
f 46/107/1 44/106/1 21/95/1
f 49/108/1 46/107/1 21/95/1
f 21/95/1 4/64/1 42/79/1 49/108/1
f 5/62/2 2/61/2 55/90/2 53/91/2
f 3/63/17 7/66/17 56/93/17 40/80/17
f 8/15/2 6/65/2 57/92/2 59/16/2
f 26/68/18 24/96/18 67/109/18 66/110/18
f 24/96/19 27/97/19 69/111/19 67/109/19
f 70/112/1 69/111/1 27/97/1
f 35/103/1 70/112/1 27/97/1
f 1/100/5 13/72/5 26/68/5 23/67/5
f 68/101/20 1/100/20 23/67/20 30/70/20
f 66/110/1 29/69/1 26/68/1
