# Blender v3.0.0 OBJ File: 'base.blend'
# www.blender.org
mtllib zl2.mtl
o 0020_-_ZL2-DZ_BL|Group_1.480
v -0.221861 2.700592 0.002821
v -0.233842 2.700592 0.003280
v -0.263544 2.700592 0.003280
v -0.260610 2.700592 0.003280
v -0.263908 2.700592 0.002849
v -0.234665 2.700592 0.003280
v -0.240204 2.700592 -0.002543
v -0.240857 2.700592 -0.003492
v -0.249101 2.700592 -0.007234
v -0.258652 2.700592 -0.008020
v -0.257064 2.700592 -0.010004
v -0.221339 2.700592 0.003280
v -0.250578 2.700592 -0.009767
v -0.250578 0.000592 -0.009767
v -0.249889 0.000592 -0.009011
v -0.249398 2.700592 -0.008156
v -0.249889 2.700592 -0.009011
v -0.249398 0.000592 -0.008156
v -0.249101 0.000592 -0.007234
v -0.248845 0.000592 -0.005975
v -0.248597 2.700592 -0.003904
v -0.248845 2.700592 -0.005975
v -0.247639 0.000592 0.003280
v -0.234665 0.000592 0.003280
v -0.247639 2.700592 0.003280
v -0.234225 0.000592 0.002860
v -0.234225 2.700592 0.002860
v -0.233842 0.000592 0.003280
v -0.222232 0.000592 0.003280
v -0.222232 2.700592 0.003280
v -0.221861 0.000592 0.002821
v -0.221339 0.000592 0.003280
v -0.264283 0.000592 0.003280
v -0.263908 0.000592 0.002849
v -0.263544 0.000592 0.003280
v -0.258054 0.000592 -0.009085
v -0.251980 0.000592 -0.010379
v -0.248597 0.000592 -0.003904
v -0.240204 0.000592 -0.002543
v -0.240507 0.000592 -0.002765
v -0.251381 0.000592 -0.010216
v -0.242803 0.000592 -0.017669
v -0.243194 0.000592 -0.017720
v -0.239840 0.000592 -0.002467
v -0.239840 2.700592 -0.002468
v -0.240507 2.700592 -0.002765
v -0.240711 0.000592 -0.003067
v -0.240711 2.700592 -0.003068
v -0.240857 0.000592 -0.003492
v -0.242065 2.700592 -0.017124
v -0.242065 0.000592 -0.017124
v -0.242148 0.000592 -0.017352
v -0.242148 2.700592 -0.017352
v -0.242406 2.700592 -0.017534
v -0.242406 0.000592 -0.017534
v -0.242803 2.700592 -0.017669
v -0.243194 2.700592 -0.017720
v -0.264283 2.700592 0.003280
v -0.260610 0.000592 0.003280
v -0.260310 2.700592 0.002971
v -0.260310 0.000592 0.002971
v -0.260204 2.700592 0.002739
v -0.260204 0.000592 0.002739
v -0.258896 0.000592 -0.006919
v -0.258896 2.700592 -0.006919
v -0.258652 0.000592 -0.008020
v -0.258054 2.700592 -0.009085
v -0.257064 0.000592 -0.010004
v -0.256100 0.000592 -0.010379
v -0.256100 2.700592 -0.010380
v -0.251381 2.700592 -0.010216
v -0.251980 2.700592 -0.010380
v -0.210119 2.700592 0.003073
v -0.210119 2.700592 0.003280
v -0.210119 2.700592 0.002606
v -0.210119 2.700592 -0.000167
v -0.210119 2.700592 -0.001004
v -0.210119 2.700592 -0.002337
v -0.210119 2.700592 -0.002468
v -0.210119 2.422180 0.003280
v -0.210119 0.000592 0.003280
v -0.210119 0.000592 0.002885
v -0.210119 0.000592 0.002606
v -0.210119 0.000592 -0.000167
v -0.210119 0.000592 -0.001003
v -0.210119 0.000592 -0.002336
v -0.210119 0.000592 -0.002467
v -0.210119 2.227116 -0.002468
v -0.270119 2.700592 -0.017042
v -0.270119 2.700592 -0.015457
v -0.270119 2.700592 -0.017252
v -0.270119 2.700592 -0.017274
v -0.270119 2.700592 -0.017523
v -0.270119 2.700592 -0.017539
v -0.270119 2.700592 -0.017551
v -0.270119 2.700592 -0.017716
v -0.270119 2.700592 -0.017720
v -0.270119 2.700592 0.003199
v -0.270119 2.700592 0.003280
v -0.270119 2.700592 -0.001596
v -0.270119 2.700592 -0.001944
v -0.270119 2.700592 -0.003106
v -0.270119 2.700592 -0.003730
v -0.270119 2.700592 -0.014487
v -0.270119 2.700592 -0.014757
v -0.270119 2.700592 -0.015047
v -0.270119 2.700592 -0.015317
v -0.270119 0.000592 -0.001458
v -0.270119 0.000592 0.003280
v -0.270119 0.000592 -0.001596
v -0.270119 0.000592 -0.001944
v -0.270119 0.000592 -0.003106
v -0.270119 0.000592 -0.014487
v -0.270119 0.000592 -0.014757
v -0.270119 0.000592 -0.015047
v -0.270119 0.000592 -0.015317
v -0.270119 0.000592 -0.015456
v -0.270119 0.000592 -0.015674
v -0.270119 0.000592 -0.017042
v -0.270119 0.000592 -0.017252
v -0.270119 0.000592 -0.017273
v -0.270119 0.000592 -0.017523
v -0.270119 0.000592 -0.017539
v -0.270119 0.000592 -0.017551
v -0.270119 0.000592 -0.017716
v -0.270119 0.000592 -0.017720
v -0.270119 0.196464 -0.017720
v -0.270119 0.532019 0.003280
vt 0.000000 0.000000
vt 0.000000 0.000000
vt 0.000000 0.000000
vt 0.000000 0.000000
vt 0.000000 0.000000
vt 0.000000 0.000000
vt 0.000000 0.000000
vt 0.000000 0.000000
vt 0.000000 0.000000
vt 0.000000 0.000000
vt 0.000000 0.000000
vt 0.000000 0.000000
vt 0.000000 0.000000
vt 0.000000 0.000000
vt 0.000000 0.000000
vt 0.000000 0.000000
vt 0.000000 0.000000
vt 0.000000 0.000000
vt 0.000000 0.000000
vt 0.000000 0.000000
vt 0.000000 0.000000
vt 0.000000 0.000000
vt 0.000000 0.000000
vt 0.000000 0.000000
vt 0.000000 0.000000
vt 0.000000 0.000000
vt 0.000000 0.000000
vt 0.620084 0.602511
vt 0.620084 0.602320
vt 0.620085 0.591014
vt 0.620085 0.590194
vt 0.620085 0.587456
vt 0.620085 0.585985
vt 0.620084 0.560623
vt 0.620085 0.559987
vt 0.620085 0.559304
vt 0.620085 0.558666
vt 0.620085 0.558338
vt 0.620085 0.555649
vt 0.620085 0.554750
vt 0.620085 0.554656
vt 0.620085 0.553587
vt 0.620085 0.553520
vt 0.620084 0.553470
vt 0.620085 0.552760
vt 0.620085 0.552745
vt 0.403289 0.552745
vt 0.386332 0.552745
vt 0.386332 0.552760
vt 0.386332 0.553470
vt 0.386332 0.553521
vt 0.386332 0.553587
vt 0.386332 0.554657
vt 0.386332 0.554750
vt 0.386332 0.555650
vt 0.386332 0.557824
vt 0.386332 0.558338
vt 0.386332 0.558667
vt 0.386332 0.559304
vt 0.386332 0.559988
vt 0.386332 0.560623
vt 0.386332 0.587456
vt 0.386332 0.590194
vt 0.386332 0.591015
vt 0.386332 0.591339
vt 0.386332 0.602511
vt 0.432340 0.602511
vt 0.000000 0.000000
vt 0.000000 0.000000
vt 0.000000 0.000000
vt 0.000000 0.000000
vt 0.000000 0.000000
vt 0.000000 0.000000
vt 0.000000 0.000000
vt 0.000000 0.000000
vt 0.000000 0.000000
vt 0.000000 0.000000
vt 0.000000 0.000000
vt 0.000000 0.000000
vt 0.000000 0.000000
vt 0.000000 0.000000
vt 0.000000 0.000000
vt 0.000000 0.000000
vt 0.000000 0.000000
vt 0.000000 0.000000
vt 0.000000 0.000000
vt 0.000000 0.000000
vt 0.000000 0.000000
vt 0.000000 0.000000
vt 0.000000 0.000000
vt 0.000000 0.000000
vt 0.000000 0.000000
vt 0.000000 0.000000
vt 0.000000 0.000000
vt 0.000000 0.000000
vt 0.000000 0.000000
vt 0.000000 0.000000
vt 0.000000 0.000000
vt 0.000000 0.000000
vt 0.000000 0.000000
vt 0.000000 0.000000
vt 0.000000 0.000000
vt 0.000000 0.000000
vt 0.000000 0.000000
vt 0.000000 0.000000
vt 0.000000 0.000000
vt 0.000000 0.000000
vt 0.000000 0.000000
vt 0.000000 0.000000
vt 0.000000 0.000000
vt 0.000000 0.000000
vt 0.000000 0.000000
vt 0.000000 0.000000
vt 0.000000 0.000000
vt 0.000000 0.000000
vt 0.000000 0.000000
vt 0.000000 0.000000
vt 0.000000 0.000000
vt 0.000000 0.000000
vt 0.000000 0.000000
vt 0.000000 0.000000
vt 0.000000 0.000000
vt 0.000000 0.000000
vt 0.000000 0.000000
vt 0.000000 0.000000
vt 0.000000 0.000000
vt 0.000000 0.000000
vt 0.000000 0.000000
vt 0.000000 0.000000
vt 0.000000 0.000000
vt 0.000000 0.000000
vt 0.000000 0.000000
vt 0.000000 0.000000
vt 0.000000 0.000000
vt 0.000000 0.000000
vt 0.000000 0.000000
vt 0.000000 0.000000
vt 0.000000 0.000000
vt 0.000000 0.000000
vt 0.000000 0.000000
vt 0.000000 0.000000
vt 0.000000 0.000000
vt 0.000000 0.000000
vt 0.000000 0.000000
vt 0.000000 0.000000
vt 0.000000 0.000000
vt 0.000000 0.000000
vt 0.000000 0.000000
vt 0.000000 0.000000
vt 0.000000 0.000000
vt 0.000000 0.000000
vt 0.000000 0.000000
vt 0.000000 0.000000
vt 0.000000 0.000000
vt 0.000000 0.000000
vt 0.000000 0.000000
vt 0.000000 0.000000
vt 0.000000 0.000000
vt 0.000000 0.000000
vt 0.000000 0.000000
vt 0.000000 0.000000
vt 0.000000 0.000000
vt 0.000000 0.000000
vt 0.000000 0.000000
vt 0.000000 0.000000
vt 0.000000 0.000000
vt 0.000000 0.000000
vt 0.000000 0.000000
vt 0.579093 0.161040
vt 0.620085 0.161040
vt 0.620084 0.160731
vt 0.620084 0.157588
vt 0.620084 0.155616
vt 0.620084 0.149079
vt 0.620085 0.147977
vt 0.620085 0.147489
vt 0.595981 0.147489
vt 0.386332 0.147489
vt 0.386332 0.148421
vt 0.386332 0.149078
vt 0.386332 0.155615
vt 0.386332 0.157588
vt 0.386332 0.160731
vt 0.386332 0.161039
vn 0.0000 1.0000 0.0000
vn 0.0000 1.0000 -0.0021
vn 0.0000 1.0000 -0.0037
vn 0.0000 0.9999 0.0102
vn 0.0000 -1.0000 0.0000
vn 0.9401 0.0000 -0.3410
vn 0.5770 -0.0000 -0.8168
vn 0.3215 -0.0000 -0.9469
vn 0.1283 -0.0000 -0.9917
vn 0.0000 -0.0000 -1.0000
vn -1.0000 0.0000 0.0000
vn 0.0000 1.0000 0.0007
vn 0.0000 1.0000 -0.0004
vn 0.0000 1.0000 0.0001
vn 0.0000 0.9998 0.0205
vn 0.0000 1.0000 -0.0005
vn 0.0000 1.0000 -0.0006
vn 0.0000 1.0000 0.0006
vn 0.0000 1.0000 -0.0002
vn 0.0000 0.0000 1.0000
vn -0.4886 0.0000 0.8725
vn -0.7388 0.0000 0.6739
vn -0.8674 0.0000 0.4976
vn -0.9518 0.0000 0.3068
vn -0.9799 0.0000 0.1994
vn -0.9929 0.0000 0.1188
vn -0.9912 0.0000 0.1322
vn 0.6901 0.0000 0.7237
vn -0.7390 0.0000 0.6737
vn 0.7775 0.0000 0.6289
vn -0.6608 0.0000 0.7506
vn 0.2025 -0.0000 -0.9793
vn 0.5925 -0.0000 -0.8055
vn 0.8281 -0.0000 -0.5606
vn 0.9458 -0.0000 -0.3246
vn 0.9961 0.0000 -0.0883
vn 0.7546 0.0000 0.6562
vn -0.7641 0.0000 0.6450
vn 0.7188 0.0000 0.6952
vn 0.9085 0.0000 0.4178
vn 0.9910 0.0000 0.1342
vn 0.9763 0.0000 0.2163
vn 0.8720 0.0000 0.4896
vn 0.6802 0.0000 0.7330
vn 0.3634 0.0000 0.9316
vn -0.2627 0.0000 0.9649
vn 1.0000 -0.0000 0.0000
usemtl teksture
s off
f 91/1/1 89/2/1 50/3/1
f 50/3/2 53/4/2 92/5/2 91/1/2
f 93/6/1 92/5/1 53/4/1
f 53/4/1 54/7/1 94/8/1 93/6/1
f 54/7/3 56/9/3 95/10/3 94/8/3
f 96/11/1 95/10/1 56/9/1
f 56/9/4 57/12/4 97/13/4 96/11/4
f 120/14/5 51/15/5 119/16/5
f 52/17/5 51/15/5 120/14/5 121/18/5
f 122/19/5 52/17/5 121/18/5
f 55/20/5 52/17/5 122/19/5 123/21/5
f 42/22/5 55/20/5 123/21/5 124/23/5
f 125/24/5 42/22/5 124/23/5
f 43/25/5 42/22/5 125/24/5 126/26/5
f 51/15/6 53/4/6 50/3/6
f 53/4/6 51/15/6 52/17/6
f 52/17/7 54/7/7 53/4/7
f 54/7/7 52/17/7 55/20/7
f 54/7/8 42/22/8 56/9/8
f 42/22/8 54/7/8 55/20/8
f 56/9/9 43/25/9 57/12/9
f 43/25/9 56/9/9 42/22/9
f 97/13/10 57/12/10 127/27/10
f 127/27/10 57/12/10 43/25/10 126/26/10
f 99/28/11 98/29/11 100/30/11 101/31/11 102/32/11 103/33/11 104/34/11 105/35/11 106/36/11 107/37/11 90/38/11 89/39/11 91/40/11 92/41/11 93/42/11 94/43/11 95/44/11 96/45/11 97/46/11 127/47/11 126/48/11 125/49/11 124/50/11 123/51/11 122/52/11 121/53/11 120/54/11 119/55/11 118/56/11 117/57/11 116/58/11 115/59/11 114/60/11 113/61/11 112/62/11 111/63/11 110/64/11 108/65/11 109/66/11 128/67/11
usemtl black
f 1/68/1 2/69/1 30/70/1
f 2/69/1 1/68/1 27/71/1
f 60/72/1 3/73/1 4/74/1
f 3/73/1 60/72/1 5/75/1
f 5/75/12 60/72/12 62/76/12
f 12/77/1 74/78/1 73/79/1
f 1/68/1 12/77/1 73/79/1 75/80/1
f 27/71/1 25/81/1 6/82/1
f 25/81/1 27/71/1 21/83/1
f 21/83/1 27/71/1 1/68/1
f 21/83/13 1/68/13 45/84/13
f 45/84/14 1/68/14 75/80/14 76/85/14
f 45/84/1 76/85/1 77/86/1
f 45/84/1 77/86/1 78/87/1
f 45/84/1 78/87/1 79/88/1
f 21/83/15 45/84/15 7/89/15
f 21/83/16 7/89/16 46/90/16
f 21/83/17 46/90/17 48/91/17
f 21/83/18 48/91/18 8/92/18
f 21/83/1 8/92/1 50/3/1
f 21/83/1 50/3/1 22/93/1
f 22/93/1 50/3/1 9/94/1
f 9/94/1 50/3/1 16/95/1
f 16/95/1 50/3/1 17/96/1
f 17/96/1 50/3/1 13/97/1
f 13/97/1 50/3/1 71/98/1
f 71/98/1 50/3/1 72/99/1
f 72/99/1 50/3/1 70/100/1
f 70/100/14 50/3/14 89/2/14 90/101/14
f 58/102/1 5/75/1 98/103/1 99/104/1
f 100/105/1 98/103/1 5/75/1
f 5/75/1 62/76/1 101/106/1 100/105/1
f 62/76/1 65/107/1 102/108/1 101/106/1
f 103/109/1 102/108/1 65/107/1
f 104/110/1 103/109/1 65/107/1
f 65/107/19 10/111/19 105/112/19 104/110/19
f 10/111/1 67/113/1 106/114/1 105/112/1
f 67/113/1 11/115/1 107/116/1 106/114/1
f 11/115/1 70/100/1 90/101/1 107/116/1
f 80/117/20 12/77/20 32/118/20 81/119/20
f 12/77/20 80/117/20 74/78/20
f 41/120/21 13/97/21 71/98/21
f 13/97/21 41/120/21 14/121/21
f 14/121/22 17/96/22 13/97/22
f 17/96/22 14/121/22 15/122/22
f 15/122/23 16/95/23 17/96/23
f 16/95/23 15/122/23 18/123/23
f 18/123/24 9/94/24 16/95/24
f 9/94/24 18/123/24 19/124/24
f 19/124/25 22/93/25 9/94/25
f 22/93/25 19/124/25 20/125/25
f 20/125/26 21/83/26 22/93/26
f 21/83/26 20/125/26 38/126/26
f 38/126/27 25/81/27 21/83/27
f 25/81/27 38/126/27 23/127/27
f 24/128/20 25/81/20 23/127/20
f 25/81/20 24/128/20 6/82/20
f 26/129/28 6/82/28 24/128/28
f 6/82/28 26/129/28 27/71/28
f 26/129/29 2/69/29 27/71/29
f 2/69/29 26/129/29 28/130/29
f 29/131/20 2/69/20 28/130/20
f 2/69/20 29/131/20 30/70/20
f 29/131/30 1/68/30 30/70/30
f 1/68/30 29/131/30 31/132/30
f 32/118/31 1/68/31 31/132/31
f 1/68/31 32/118/31 12/77/31
f 108/133/5 33/134/5 109/135/5
f 34/136/5 33/134/5 108/133/5 110/137/5
f 111/138/5 63/139/5 34/136/5 110/137/5
f 112/140/5 64/141/5 63/139/5 111/138/5
f 81/119/5 32/118/5 31/132/5 82/142/5
f 31/132/5 83/143/5 82/142/5
f 34/136/5 59/144/5 35/145/5
f 59/144/5 34/136/5 61/146/5
f 61/146/5 34/136/5 63/139/5
f 26/129/5 29/131/5 28/130/5
f 29/131/5 26/129/5 31/132/5
f 113/147/5 64/141/5 112/140/5
f 66/148/5 64/141/5 113/147/5 114/149/5
f 36/150/5 66/148/5 114/149/5 115/151/5
f 68/152/5 36/150/5 115/151/5 116/153/5
f 117/154/5 69/155/5 68/152/5 116/153/5
f 118/156/5 37/157/5 69/155/5 117/154/5
f 38/126/5 24/128/5 23/127/5
f 24/128/5 38/126/5 26/129/5
f 26/129/5 38/126/5 31/132/5
f 31/132/5 38/126/5 44/158/5
f 83/143/5 31/132/5 44/158/5 84/159/5
f 44/158/5 85/160/5 84/159/5
f 44/158/5 86/161/5 85/160/5
f 44/158/5 38/126/5 39/162/5
f 39/162/5 38/126/5 40/163/5
f 40/163/5 38/126/5 47/164/5
f 47/164/5 38/126/5 49/165/5
f 49/165/5 38/126/5 51/15/5
f 51/15/5 38/126/5 20/125/5
f 51/15/5 20/125/5 19/124/5
f 51/15/5 19/124/5 18/123/5
f 51/15/5 18/123/5 15/122/5
f 51/15/5 15/122/5 14/121/5
f 51/15/5 14/121/5 41/120/5
f 51/15/5 41/120/5 37/157/5
f 119/16/5 51/15/5 37/157/5 118/156/5
f 44/158/5 87/166/5 86/161/5
f 45/84/10 79/88/10 88/167/10 44/158/10
f 44/158/10 88/167/10 87/166/10
f 45/84/32 39/162/32 7/89/32
f 39/162/32 45/84/32 44/158/32
f 7/89/33 40/163/33 46/90/33
f 40/163/33 7/89/33 39/162/33
f 40/163/34 48/91/34 46/90/34
f 48/91/34 40/163/34 47/164/34
f 47/164/35 8/92/35 48/91/35
f 8/92/35 47/164/35 49/165/35
f 49/165/36 50/3/36 8/92/36
f 50/3/36 49/165/36 51/15/36
f 58/102/20 99/104/20 128/168/20
f 33/134/20 58/102/20 128/168/20 109/135/20
f 33/134/37 5/75/37 58/102/37
f 5/75/37 33/134/37 34/136/37
f 34/136/38 3/73/38 5/75/38
f 3/73/38 34/136/38 35/145/38
f 35/145/20 4/74/20 3/73/20
f 4/74/20 35/145/20 59/144/20
f 59/144/39 60/72/39 4/74/39
f 60/72/39 59/144/39 61/146/39
f 61/146/40 62/76/40 60/72/40
f 62/76/40 61/146/40 63/139/40
f 63/139/41 65/107/41 62/76/41
f 65/107/41 63/139/41 64/141/41
f 64/141/42 10/111/42 65/107/42
f 10/111/42 64/141/42 66/148/42
f 66/148/43 67/113/43 10/111/43
f 67/113/43 66/148/43 36/150/43
f 36/150/44 11/115/44 67/113/44
f 11/115/44 36/150/44 68/152/44
f 68/152/45 70/100/45 11/115/45
f 70/100/45 68/152/45 69/155/45
f 69/155/20 72/99/20 70/100/20
f 72/99/20 69/155/20 37/157/20
f 37/157/46 71/98/46 72/99/46
f 71/98/46 37/157/46 41/120/46
f 88/169/47 79/170/47 78/171/47 77/172/47 76/173/47 75/174/47 73/175/47 74/176/47 80/177/47 81/178/47 82/179/47 83/180/47 84/181/47 85/182/47 86/183/47 87/184/47
