# Blender v3.0.0 OBJ File: 'base.blend'
# www.blender.org
mtllib zp1.mtl
o 0003_-_ZP1-DS_BL|Group_1.467
v 0.353091 0.000592 0.015685
v 0.347382 0.000592 0.003790
v 0.347537 0.000592 0.003686
v 0.347270 0.000592 0.003914
v 0.347270 2.700257 0.003915
v 0.346723 0.000592 0.010200
v 0.346723 2.700257 0.010201
v 0.347197 0.000592 0.004066
v 0.353091 0.000592 0.010200
v 0.353091 2.700257 0.015686
v 0.347197 2.700257 0.004067
v 0.347382 2.700257 0.003790
v 0.347537 2.700257 0.003687
v 0.353091 2.700257 0.010057
v 0.353719 2.700257 0.003701
v 0.353722 2.700257 0.005261
v 0.353091 2.700257 0.010179
v 0.353722 2.700257 0.005148
v 0.353720 2.700257 0.003901
v 0.373723 2.700257 0.015686
v 0.373723 0.000592 0.015685
v 0.373723 2.700257 0.009059
v 0.373723 2.700257 0.012963
v 0.373723 0.000592 0.009624
v 0.373723 2.700257 0.006110
v 0.373723 0.000592 0.012971
v 0.373723 2.700257 0.003838
v 0.373723 2.700257 0.009608
v 0.373723 1.350424 0.015685
v 0.373723 0.000592 0.006104
v 0.373723 1.350424 0.003687
v 0.373723 2.700257 0.014324
v 0.373723 0.000592 0.009906
v 0.373723 2.700257 0.007178
v 0.373723 0.000592 0.010229
v 0.373723 0.000592 0.014328
v 0.373723 2.700257 0.008651
v 0.373723 0.000592 0.008890
v 0.373723 2.700257 0.009882
v 0.373723 0.675508 0.015685
v 0.373723 2.700257 0.010218
v 0.373723 2.700257 0.008502
v 0.373723 0.000592 0.008317
v 0.373723 2.700257 0.003705
v 0.373723 0.000592 0.005042
v 0.373723 0.000592 0.008653
v 0.373723 0.000592 0.003702
v 0.373723 2.025341 0.003687
v 0.373723 2.700257 0.011601
v 0.373723 0.000592 0.009341
v 0.373723 2.700257 0.005043
v 0.373723 0.000592 0.011614
v 0.373723 0.000592 0.009045
v 0.373723 2.700257 0.008778
v 0.373723 2.700257 0.009334
v 0.373723 2.025341 0.015685
v 0.373723 2.700257 0.008331
v 0.373723 0.000592 0.008497
v 0.373723 0.000592 0.007165
v 0.373723 0.000592 0.003819
v 0.373723 0.000592 0.003949
v 0.373723 0.000592 0.008787
v 0.373723 2.700257 0.003946
v 0.373723 2.700257 0.008946
v 0.373723 0.675508 0.003687
v 0.373723 2.700257 0.015686
v 0.373723 0.000592 0.015685
v 0.373723 2.700257 0.003705
v 0.373723 0.000592 0.003702
vt 0.000000 0.000000
vt 0.000000 0.000000
vt 0.000000 0.000000
vt 0.000000 0.000000
vt 0.000000 0.000000
vt 0.000000 0.000000
vt 0.000000 0.000000
vt 0.000000 0.000000
vt 0.000000 0.000000
vt 0.000000 0.000000
vt 0.000000 0.000000
vt 0.000000 0.000000
vt 0.000000 0.000000
vt 0.000000 0.000000
vt 0.000000 0.000000
vt 0.000000 0.000000
vt 0.000000 0.000000
vt 0.000000 0.000000
vt 0.000000 0.000000
vt 0.000000 0.000000
vt 0.000000 0.000000
vt 0.000000 0.000000
vt 0.000000 0.000000
vt 0.000000 0.000000
vt 0.000000 0.000000
vt 0.000000 0.000000
vt 0.000000 0.000000
vt 0.000000 0.000000
vt 0.000000 0.000000
vt 0.000000 0.000000
vt 0.000000 0.000000
vt 0.000000 0.000000
vt 0.000000 0.000000
vt 0.000000 0.000000
vt 0.000000 0.000000
vt 0.000000 0.000000
vt 0.000000 0.000000
vt 0.000000 0.000000
vt 0.000000 0.000000
vt 0.000000 0.000000
vt 0.000000 0.000000
vt 0.000000 0.000000
vt 0.000000 0.000000
vt 0.000000 0.000000
vt 0.000000 0.000000
vt 0.000000 0.000000
vt 0.000000 0.000000
vt 0.000000 0.000000
vt 0.000000 0.000000
vt 0.000000 0.000000
vt 0.000000 0.000000
vt 0.000000 0.000000
vt 0.000000 0.000000
vt 0.000000 0.000000
vt 0.000000 0.000000
vt 0.000000 0.000000
vt 0.000000 0.000000
vt 0.000000 0.000000
vt 0.000000 0.000000
vt 0.000000 0.000000
vt 0.000000 0.000000
vt 0.000000 0.000000
vt 0.000000 0.000000
vt 0.000000 0.000000
vt 0.000000 0.000000
vt 0.000000 0.000000
vt 0.000000 0.000000
vt 0.000000 0.000000
vt 0.000000 0.000000
vn -0.5550 0.0000 -0.8318
vn -0.7429 0.0000 -0.6694
vn 0.0000 -1.0000 0.0000
vn 0.0002 0.0000 -1.0000
vn -0.9008 0.0000 -0.4342
vn 0.0000 1.0000 0.0000
vn 1.0000 0.0000 0.0000
vn 0.0017 0.0000 1.0000
vn -1.0000 -0.0000 0.0000
vn -0.9970 0.0000 -0.0771
vn 0.0000 1.0000 0.0011
vn 0.0000 1.0000 0.0001
vn -0.0000 -0.0000 1.0000
vn 0.0000 1.0000 -0.0001
usemtl teksture
s off
f 13/1/1 3/2/1 2/3/1 12/4/1
f 2/3/2 4/5/2 5/6/2 12/4/2
f 4/5/3 60/7/3 61/8/3
f 2/3/3 60/7/3 4/5/3
f 3/2/3 60/7/3 2/3/3
f 3/2/3 47/9/3 60/7/3
f 3/2/4 13/1/4 44/10/4 48/11/4 31/12/4 65/13/4 47/9/4
f 4/5/5 8/14/5 11/15/5 5/6/5
f 5/6/6 19/16/6 15/17/6 12/4/6
f 12/4/6 15/17/6 13/1/6
f 15/17/6 19/16/6 63/18/6 27/19/6
f 15/17/6 27/19/6 44/10/6
f 68/20/7 66/21/7 67/22/7 69/23/7
usemtl black
f 9/24/8 17/25/8 7/26/8 6/27/8
f 41/28/6 17/25/6 10/29/6 20/30/6 32/31/6 23/32/6 49/33/6
f 8/14/3 9/24/3 6/27/3
f 35/34/3 9/24/3 8/14/3 53/35/3 50/36/3 24/37/3 33/38/3
f 8/14/3 38/39/3 53/35/3
f 8/14/3 58/40/3 46/41/3 62/42/3 38/39/3
f 8/14/3 43/43/3 58/40/3
f 63/18/6 19/16/6 18/44/6 57/45/6 34/46/6 25/47/6 51/48/6
f 8/14/3 4/5/3 61/8/3 45/49/3 30/50/3 59/51/3 43/43/3
f 9/24/9 1/52/9 10/29/9 17/25/9
f 11/15/10 8/14/10 6/27/10 7/26/10
f 21/53/3 1/52/3 9/24/3 35/34/3 52/54/3 26/55/3 36/56/3
f 7/26/11 17/25/11 14/57/11
f 7/26/6 14/57/6 16/58/6 11/15/6
f 11/15/12 16/58/12 18/44/12
f 10/29/13 1/52/13 21/53/13 40/59/13 29/60/13 56/61/13 20/30/13
f 16/58/6 14/57/6 41/28/6 39/62/6 28/63/6 55/64/6 22/65/6
f 18/44/6 16/58/6 22/65/6 64/66/6
f 18/44/6 54/67/6 37/68/6 42/69/6
f 18/44/14 19/16/14 5/6/14 11/15/14
f 18/44/6 64/66/6 54/67/6
f 18/44/6 42/69/6 57/45/6
f 14/57/6 17/25/6 41/28/6
