# Blender v3.0.0 OBJ File: 'base.blend'
# www.blender.org
mtllib zp2.mtl
o 0021_-_ZP2-DZ_BL|Group_1.481
v -0.090462 2.700593 0.003296
v -0.087530 2.700593 0.003296
v -0.090826 2.700593 0.002864
v -0.076028 2.700593 -0.007218
v -0.100135 2.700593 -0.017017
v -0.094223 2.700593 -0.002604
v -0.085574 2.700593 -0.008004
v -0.083986 2.700593 -0.009988
v -0.077505 2.700593 -0.009751
v -0.077505 0.000592 -0.009751
v -0.076816 0.000592 -0.008996
v -0.076325 2.700593 -0.008140
v -0.076816 2.700593 -0.008996
v -0.076325 0.000592 -0.008140
v -0.076028 0.000592 -0.007218
v -0.075772 0.000592 -0.005959
v -0.075525 2.700593 -0.003888
v -0.075772 2.700593 -0.005959
v -0.074567 0.000592 0.003296
v -0.074567 2.700593 0.003296
v -0.091201 0.000592 0.003296
v -0.094223 0.000592 0.003296
v -0.090826 0.000592 0.002864
v -0.090462 0.000592 0.003296
v -0.100936 0.000592 -0.002604
v -0.084976 0.000592 -0.009069
v -0.078906 0.000592 -0.010364
v -0.075525 0.000592 -0.003888
v -0.078307 0.000592 -0.010201
v -0.099138 2.700593 -0.017704
v -0.099138 0.000592 -0.017704
v -0.099659 0.000592 -0.017523
v -0.099989 2.700593 -0.017250
v -0.099659 2.700593 -0.017523
v -0.099989 0.000592 -0.017249
v -0.100135 0.000592 -0.017017
v -0.100936 2.700593 -0.002604
v -0.094223 0.000592 -0.002604
v -0.094223 2.700593 0.003296
v -0.091201 2.700593 0.003296
v -0.087530 0.000592 0.003296
v -0.087231 2.700593 0.002986
v -0.087231 0.000592 0.002987
v -0.087124 2.700593 0.002754
v -0.087124 0.000592 0.002754
v -0.085817 0.000592 -0.006903
v -0.085817 2.700593 -0.006903
v -0.085574 0.000592 -0.008004
v -0.084976 2.700593 -0.009069
v -0.083986 0.000592 -0.009988
v -0.083023 0.000592 -0.010364
v -0.083023 2.700593 -0.010364
v -0.078307 2.700593 -0.010201
v -0.078906 2.700593 -0.010364
v -0.068936 2.700593 0.003163
v -0.068936 2.700593 0.003296
v -0.068936 0.000592 -0.001211
v -0.068936 0.000592 0.003296
v -0.068936 2.700593 -0.001445
v -0.068936 0.000592 -0.001445
v -0.068936 2.700593 -0.002539
v -0.068936 2.700593 -0.003037
v -0.068936 2.700593 -0.003046
v -0.068936 0.000592 -0.002539
v -0.068936 2.700593 -0.003158
v -0.068936 0.000592 -0.003036
v -0.068936 2.700593 -0.003338
v -0.068936 0.000592 -0.003046
v -0.068936 2.700593 -0.003612
v -0.068936 0.000592 -0.003157
v -0.068936 2.700593 -0.014096
v -0.068936 0.000592 -0.003337
v -0.068936 2.700593 -0.014602
v -0.068936 0.000592 -0.003612
v -0.068936 2.700593 -0.014919
v -0.068936 0.000592 -0.014096
v -0.068936 2.700593 -0.015161
v -0.068936 0.000592 -0.014602
v -0.068936 2.700593 -0.015406
v -0.068936 0.000592 -0.014919
v -0.068936 2.700593 -0.015632
v -0.068936 0.000592 -0.015161
v -0.068936 2.700593 -0.015791
v -0.068936 0.000592 -0.015406
v -0.068936 2.700593 -0.015870
v -0.068936 0.000592 -0.015632
v -0.068936 2.700593 -0.016123
v -0.068936 0.000592 -0.015791
v -0.068936 2.700593 -0.017104
v -0.068936 0.000592 -0.015870
v -0.068936 2.700593 -0.017114
v -0.068936 0.000592 -0.017104
v -0.068936 2.700593 -0.017333
v -0.068936 0.000592 -0.017114
v -0.068936 2.700593 -0.017344
v -0.068936 0.000592 -0.017333
v -0.068936 2.700593 -0.017519
v -0.068936 0.000592 -0.017344
v -0.068936 2.700593 -0.017651
v -0.068936 0.000592 -0.017519
v -0.068936 2.700593 -0.017655
v -0.068936 0.000592 -0.017651
v -0.068936 2.700593 -0.017704
v -0.068936 0.000592 -0.017655
v -0.068936 1.819555 0.003296
v -0.068936 0.000592 -0.017704
v -0.068936 2.680969 -0.017704
v -0.068936 2.700593 0.003296
v -0.068936 0.000592 0.003296
v -0.068936 2.700593 -0.017704
v -0.068936 1.819555 0.003296
v -0.068936 0.000592 -0.017704
vt 0.000000 0.000000
vt 0.000000 0.000000
vt 0.000000 0.000000
vt 0.000000 0.000000
vt 0.000000 0.000000
vt 0.000000 0.000000
vt 0.000000 0.000000
vt 0.000000 0.000000
vt 0.000000 0.000000
vt 0.000000 0.000000
vt 0.000000 0.000000
vt 0.000000 0.000000
vt 0.000000 0.000000
vt 0.000000 0.000000
vt 0.000000 0.000000
vt 0.000000 0.000000
vt 0.000000 0.000000
vt 0.000000 0.000000
vt 0.000000 0.000000
vt 0.000000 0.000000
vt 0.000000 0.000000
vt 0.000000 0.000000
vt 0.000000 0.000000
vt 0.000000 0.000000
vt 0.000000 0.000000
vt 0.000000 0.000000
vt 0.000000 0.000000
vt 0.000000 0.000000
vt 0.000000 0.000000
vt 0.000000 0.000000
vt 0.000000 0.000000
vt 0.000000 0.000000
vt 0.000000 0.000000
vt 0.000000 0.000000
vt 0.000000 0.000000
vt 0.000000 0.000000
vt 0.000000 0.000000
vt 0.000000 0.000000
vt 0.000000 0.000000
vt 0.000000 0.000000
vt 0.000000 0.000000
vt 0.000000 0.000000
vt 0.000000 0.000000
vt 0.000000 0.000000
vt 0.000000 0.000000
vt 0.000000 0.000000
vt 0.000000 0.000000
vt 0.000000 0.000000
vt 0.000000 0.000000
vt 0.000000 0.000000
vt 0.000000 0.000000
vt 0.000000 0.000000
vt 0.000000 0.000000
vt 0.000000 0.000000
vt 0.000000 0.000000
vt 0.000000 0.000000
vt 0.000000 0.000000
vt 0.000000 0.000000
vt 0.000000 0.000000
vt 0.000000 0.000000
vt 0.000000 0.000000
vt 0.000000 0.000000
vt 0.000000 0.000000
vt 0.000000 0.000000
vt 0.000000 0.000000
vt 0.000000 0.000000
vt 0.000000 0.000000
vt 0.000000 0.000000
vt 0.000000 0.000000
vt 0.000000 0.000000
vt 0.000000 0.000000
vt 0.000000 0.000000
vt 0.000000 0.000000
vt 0.000000 0.000000
vt 0.000000 0.000000
vt 0.000000 0.000000
vt 0.000000 0.000000
vt 0.000000 0.000000
vt 0.000000 0.000000
vt 0.000000 0.000000
vt 0.000000 0.000000
vt 0.000000 0.000000
vt 0.000000 0.000000
vt 0.000000 0.000000
vt 0.000000 0.000000
vt 0.000000 0.000000
vt 0.000000 0.000000
vt 0.000000 0.000000
vt 0.000000 0.000000
vt 0.000000 0.000000
vt 0.000000 0.000000
vt 0.000000 0.000000
vt 0.000000 0.000000
vt 0.000000 0.000000
vt 0.000000 0.000000
vt 0.000000 0.000000
vt 0.000000 0.000000
vt 0.000000 0.000000
vt 0.000000 0.000000
vt 0.000000 0.000000
vt 0.000000 0.000000
vt 0.000000 0.000000
vt 0.000000 0.000000
vt 0.000000 0.000000
vt 0.000000 0.000000
vt 0.000000 0.000000
vt 0.000000 0.000000
vt 0.386332 0.197255
vt 0.620085 0.197255
vt 0.620085 0.147489
vt 0.543809 0.147489
vt 0.386332 0.147489
vn 0.0000 1.0000 0.0021
vn 0.0000 1.0000 0.0000
vn 0.0000 1.0000 -0.0002
vn 0.0000 1.0000 0.0001
vn 0.0000 1.0000 0.0002
vn 0.0000 1.0000 -0.0003
vn 0.0000 1.0000 0.0014
vn 0.0000 1.0000 -0.0001
vn 0.0000 1.0000 0.0004
vn -0.4888 0.0000 0.8724
vn -0.7390 0.0000 0.6737
vn -0.8675 0.0000 0.4974
vn -0.9518 0.0000 0.3067
vn -0.9799 0.0000 0.1993
vn -0.9929 0.0000 0.1187
vn -0.9912 0.0000 0.1321
vn 0.0000 0.0000 1.0000
vn 0.0000 -1.0000 0.0000
vn -0.9985 0.0000 -0.0555
vn -1.0000 -0.0000 0.0000
vn 0.7548 0.0000 0.6560
vn -0.7643 0.0000 0.6448
vn 0.7190 0.0000 0.6950
vn 0.9086 0.0000 0.4177
vn 0.9910 0.0000 0.1341
vn 0.9763 0.0000 0.2162
vn 0.8721 0.0000 0.4894
vn 0.6804 0.0000 0.7328
vn 0.3636 0.0000 0.9316
vn -0.2628 0.0000 0.9648
vn 0.0000 1.0000 -0.0009
vn 0.0000 -0.0000 -1.0000
vn -0.3280 -0.0000 -0.9447
vn -0.6382 -0.0000 -0.7699
vn -0.8462 -0.0000 -0.5328
vn 1.0000 -0.0000 0.0000
usemtl black
s off
f 42/1/1 1/2/1 2/3/1
f 1/2/2 42/1/2 3/4/2
f 3/4/3 42/1/3 44/5/3
f 20/6/2 56/7/2 55/8/2
f 17/9/2 20/6/2 55/8/2 59/10/2
f 17/9/2 59/10/2 61/11/2
f 17/9/2 61/11/2 62/12/2
f 17/9/2 62/12/2 63/13/2
f 17/9/2 63/13/2 65/14/2
f 17/9/2 65/14/2 67/15/2
f 17/9/2 67/15/2 69/16/2
f 17/9/2 69/16/2 71/17/2
f 71/17/4 73/18/4 18/19/4 17/9/4
f 73/18/2 75/20/2 4/21/2 18/19/2
f 75/20/5 77/22/5 12/23/5 4/21/5
f 77/22/6 79/24/6 13/25/6 12/23/6
f 79/24/2 81/26/2 9/27/2 13/25/2
f 81/26/4 83/28/4 53/29/4 9/27/4
f 54/30/2 53/29/2 83/28/2 85/31/2
f 52/32/2 54/30/2 85/31/2 87/33/2
f 5/34/2 52/32/2 87/33/2 89/35/2
f 3/4/7 39/36/7 40/37/7
f 39/36/2 3/4/2 6/38/2
f 6/38/8 3/4/8 44/5/8
f 6/38/2 44/5/2 47/39/2
f 6/38/2 47/39/2 37/40/2
f 37/40/2 47/39/2 5/34/2
f 5/34/2 47/39/2 7/41/2
f 5/34/2 7/41/2 49/42/2
f 5/34/3 49/42/3 8/43/3
f 5/34/9 8/43/9 52/32/9
f 29/44/10 9/27/10 53/29/10
f 9/27/10 29/44/10 10/45/10
f 10/45/11 13/25/11 9/27/11
f 13/25/11 10/45/11 11/46/11
f 11/46/12 12/23/12 13/25/12
f 12/23/12 11/46/12 14/47/12
f 14/47/13 4/21/13 12/23/13
f 4/21/13 14/47/13 15/48/13
f 15/48/14 18/19/14 4/21/14
f 18/19/14 15/48/14 16/49/14
f 16/49/15 17/9/15 18/19/15
f 17/9/15 16/49/15 28/50/15
f 28/50/16 20/6/16 17/9/16
f 20/6/16 28/50/16 19/51/16
f 105/52/17 20/6/17 19/51/17 58/53/17
f 20/6/17 105/52/17 56/7/17
f 38/54/18 21/55/18 22/56/18
f 21/55/18 38/54/18 23/57/18
f 23/57/18 38/54/18 45/58/18
f 45/58/18 38/54/18 46/59/18
f 23/57/18 41/60/18 24/61/18
f 41/60/18 23/57/18 43/62/18
f 43/62/18 23/57/18 45/58/18
f 36/63/18 38/54/18 25/64/18
f 38/54/18 36/63/18 46/59/18
f 46/59/18 36/63/18 48/65/18
f 48/65/18 36/63/18 26/66/18
f 26/66/18 36/63/18 50/67/18
f 50/67/18 36/63/18 51/68/18
f 51/68/18 36/63/18 27/69/18
f 58/53/18 19/51/18 28/50/18 57/70/18
f 28/50/18 60/71/18 57/70/18
f 28/50/18 64/72/18 60/71/18
f 28/50/18 66/73/18 64/72/18
f 28/50/18 68/74/18 66/73/18
f 28/50/18 70/75/18 68/74/18
f 28/50/18 72/76/18 70/75/18
f 28/50/18 74/77/18 72/76/18
f 28/50/18 76/78/18 74/77/18
f 16/49/18 78/79/18 76/78/18 28/50/18
f 15/48/18 80/80/18 78/79/18 16/49/18
f 14/47/18 82/81/18 80/80/18 15/48/18
f 11/46/18 84/82/18 82/81/18 14/47/18
f 10/45/18 86/83/18 84/82/18 11/46/18
f 29/44/18 88/84/18 86/83/18 10/45/18
f 88/84/18 29/44/18 27/69/18 90/85/18
f 90/85/18 27/69/18 36/63/18 92/86/18
f 36/63/19 37/40/19 5/34/19
f 37/40/19 36/63/19 25/64/19
f 25/64/17 6/38/17 37/40/17
f 6/38/17 25/64/17 38/54/17
f 38/54/20 39/36/20 6/38/20
f 39/36/20 38/54/20 22/56/20
f 22/56/17 40/37/17 39/36/17
f 40/37/17 22/56/17 21/55/17
f 21/55/21 3/4/21 40/37/21
f 3/4/21 21/55/21 23/57/21
f 23/57/22 1/2/22 3/4/22
f 1/2/22 23/57/22 24/61/22
f 24/61/17 2/3/17 1/2/17
f 2/3/17 24/61/17 41/60/17
f 41/60/23 42/1/23 2/3/23
f 42/1/23 41/60/23 43/62/23
f 43/62/24 44/5/24 42/1/24
f 44/5/24 43/62/24 45/58/24
f 45/58/25 47/39/25 44/5/25
f 47/39/25 45/58/25 46/59/25
f 46/59/26 7/41/26 47/39/26
f 7/41/26 46/59/26 48/65/26
f 48/65/27 49/42/27 7/41/27
f 49/42/27 48/65/27 26/66/27
f 26/66/28 8/43/28 49/42/28
f 8/43/28 26/66/28 50/67/28
f 50/67/29 52/32/29 8/43/29
f 52/32/29 50/67/29 51/68/29
f 51/68/17 54/30/17 52/32/17
f 54/30/17 51/68/17 27/69/17
f 27/69/30 53/29/30 54/30/30
f 53/29/30 27/69/30 29/44/30
usemtl teksture
f 89/35/31 91/87/31 33/88/31 5/34/31
f 33/88/2 91/87/2 93/89/2
f 93/89/2 95/90/2 34/91/2 33/88/2
f 34/91/2 95/90/2 97/92/2
f 34/91/2 97/92/2 99/93/2
f 99/93/31 101/94/31 30/95/31 34/91/31
f 30/95/2 101/94/2 103/96/2
f 35/97/18 94/98/18 92/86/18 36/63/18
f 35/97/18 96/99/18 94/98/18
f 32/100/18 98/101/18 96/99/18 35/97/18
f 32/100/18 100/102/18 98/101/18
f 32/100/18 102/103/18 100/102/18
f 31/104/18 104/105/18 102/103/18 32/100/18
f 31/104/18 106/106/18 104/105/18
f 30/95/32 103/96/32 107/107/32 31/104/32
f 31/104/32 107/107/32 106/106/32
f 30/95/33 32/100/33 34/91/33
f 32/100/33 30/95/33 31/104/33
f 32/100/34 33/88/34 34/91/34
f 33/88/34 32/100/34 35/97/34
f 35/97/35 5/34/35 33/88/35
f 5/34/35 35/97/35 36/63/35
f 112/108/36 110/109/36 108/110/36 111/111/36 109/112/36
