<?xml version="1.0" encoding="utf-8"?>
<COLLADA xmlns="http://www.collada.org/2005/11/COLLADASchema" version="1.4.1" xmlns:xsi="http://www.w3.org/2001/XMLSchema-instance">
  <asset>
    <contributor>
      <author>Blender User</author>
      <authoring_tool>Blender 3.2.0 commit date:2022-06-08, commit time:10:22, hash:e05e1e369187</authoring_tool>
    </contributor>
    <created>2023-03-08T13:25:41</created>
    <modified>2023-03-08T13:25:41</modified>
    <unit name="meter" meter="1"/>
    <up_axis>Z_UP</up_axis>
  </asset>
  <library_effects>
    <effect id="gora_dol-effect">
      <profile_COMMON>
        <technique sid="common">
          <lambert>
            <emission>
              <color sid="emission">0 0 0 1</color>
            </emission>
            <diffuse>
              <color sid="diffuse">0.8 0.8 0.8 1</color>
            </diffuse>
            <index_of_refraction>
              <float sid="ior">1.45</float>
            </index_of_refraction>
          </lambert>
        </technique>
      </profile_COMMON>
    </effect>
    <effect id="tyl-effect">
      <profile_COMMON>
        <technique sid="common">
          <lambert>
            <emission>
              <color sid="emission">0 0 0 1</color>
            </emission>
            <diffuse>
              <color sid="diffuse">0.8 0.8 0.8 1</color>
            </diffuse>
            <index_of_refraction>
              <float sid="ior">1.45</float>
            </index_of_refraction>
          </lambert>
        </technique>
      </profile_COMMON>
    </effect>
    <effect id="front-effect">
      <profile_COMMON>
        <technique sid="common">
          <lambert>
            <emission>
              <color sid="emission">0 0 0 1</color>
            </emission>
            <diffuse>
              <color sid="diffuse">0.8 0.8 0.8 1</color>
            </diffuse>
            <index_of_refraction>
              <float sid="ior">1.45</float>
            </index_of_refraction>
          </lambert>
        </technique>
      </profile_COMMON>
    </effect>
  </library_effects>
  <library_images/>
  <library_materials>
    <material id="gora_dol-material" name="gora_dol">
      <instance_effect url="#gora_dol-effect"/>
    </material>
    <material id="tyl-material" name="tyl">
      <instance_effect url="#tyl-effect"/>
    </material>
    <material id="front-material" name="front">
      <instance_effect url="#front-effect"/>
    </material>
  </library_materials>
  <library_geometries>
    <geometry id="Plane_006-mesh" name="Plane.006">
      <mesh>
        <source id="Plane_006-mesh-positions">
          <float_array id="Plane_006-mesh-positions-array" count="498">-0.0163992 0.006629586 -1.35 -0.01396811 0.006629586 -1.35 -0.002108514 -0.006070375 -1.35 -0.002108514 0.001929938 -1.35 -0.008281826 -0.006070375 -1.35 -0.008281826 0.003026783 -1.35 -0.01044952 0.004023015 -1.35 -0.007252454 -0.006070375 -1.35 -0.006395101 -0.006070375 -1.35 -0.005537807 -0.006070375 -1.35 -0.004680454 -0.006070375 -1.35 -0.003823161 -0.006070375 -1.35 -0.002965807 -0.006070375 -1.35 -0.002965807 0.001929938 -1.35 -0.003823161 0.001995563 -1.35 -0.004680454 0.002108812 -1.35 -0.005537807 0.002257347 -1.35 -0.006395101 0.002457737 -1.35 -0.007252454 0.002678871 -1.35 -0.009279668 0.003442406 -1.35 -0.01132917 0.004550218 -1.35 -0.01220881 0.005118846 -1.35 -0.01308846 0.005853474 -1.35 0.009751081 -0.006070375 -1.35 0.009751081 0.006629586 -1.35 0.01560074 -0.006070375 -1.35 0.01208239 -0.006070375 -1.35 0.003892719 -0.006070375 -1.35 0.003892719 0.002955138 -1.35 0.005917727 0.00387156 -1.35 0.005917727 -0.006070375 -1.35 0.003035366 -0.006070375 -1.35 0.002178072 -0.006070375 -1.35 0.001320719 -0.006070375 -1.35 4.63448e-4 -0.006070375 -1.35 -3.93867e-4 -0.006070375 -1.35 -0.001251161 -0.006070375 -1.35 -0.001251161 0.001929938 -1.35 -3.93867e-4 0.001995563 -1.35 4.63456e-4 0.002108812 -1.35 0.001320719 0.002257347 -1.35 0.002178072 0.002457737 -1.35 0.003035366 0.002678871 -1.35 0.004792392 -0.006070375 -1.35 0.004792392 0.003329873 -1.35 0.007112145 0.004550218 -1.35 0.00799179 0.005118846 -1.35 0.008871436 0.005853474 -1.35 0.008871436 -0.006070375 -1.35 0.00799179 -0.006070375 -1.35 0.007112145 -0.006070375 -1.35 0.01208239 0.006629586 -1.35 0.01560074 0.006629586 -1.35 -0.01396811 -0.00108093 -1.35 -0.0163992 -0.00108093 -1.35 -0.002108514 -0.00108093 -1.35 -0.008281826 -0.00108093 -1.35 -0.01044952 -0.00108093 -1.35 -0.007252454 -0.00108093 -1.35 -0.006395101 -0.00108093 -1.35 -0.005537807 -0.00108093 -1.35 -0.004680454 -0.00108093 -1.35 -0.003823161 -0.00108093 -1.35 -0.002965807 -0.00108093 -1.35 -0.009279668 -0.00108093 -1.35 -0.01308846 -0.00108093 -1.35 -0.01220881 -0.00108093 -1.35 -0.01132917 -0.00108093 -1.35 0.009751081 -0.00108093 -1.35 0.01560074 -0.00108093 -1.35 0.003892719 -0.00108093 -1.35 0.005917727 -0.00108093 -1.35 0.01208239 -0.00108093 -1.35 0.003035366 -0.00108093 -1.35 0.002178072 -0.00108093 -1.35 0.001320719 -0.00108093 -1.35 4.63448e-4 -0.00108093 -1.35 -3.93867e-4 -0.00108093 -1.35 -0.001251161 -0.00108093 -1.35 0.004792392 -0.00108093 -1.35 0.008871436 -0.00108093 -1.35 0.00799179 -0.00108093 -1.35 0.007112145 -0.00108093 -1.35 -0.0163992 0.006629586 1.35 -0.01396811 0.006629586 1.35 -0.002108514 -0.006070375 1.35 -0.002108514 0.001929938 1.35 -0.008281826 -0.006070375 1.35 -0.008281826 0.003026783 1.35 -0.01044952 0.004023015 1.35 -0.007252454 -0.006070375 1.35 -0.006395101 -0.006070375 1.35 -0.005537807 -0.006070375 1.35 -0.004680454 -0.006070375 1.35 -0.003823161 -0.006070375 1.35 -0.002965807 -0.006070375 1.35 -0.002965807 0.001929938 1.35 -0.003823161 0.001995563 1.35 -0.004680454 0.002108812 1.35 -0.005537807 0.002257347 1.35 -0.006395101 0.002457737 1.35 -0.007252454 0.002678871 1.35 -0.009279668 0.003442406 1.35 -0.01132917 0.004550218 1.35 -0.01220881 0.005118846 1.35 -0.01308846 0.005853474 1.35 0.009751081 -0.006070375 1.35 0.009751081 0.006629586 1.35 0.01560074 -0.006070375 1.35 0.01208239 -0.006070375 1.35 0.003892719 -0.006070375 1.35 0.003892719 0.002955138 1.35 0.005917727 0.00387156 1.35 0.005917727 -0.006070375 1.35 0.003035366 -0.006070375 1.35 0.002178072 -0.006070375 1.35 0.001320719 -0.006070375 1.35 4.63448e-4 -0.006070375 1.35 -3.93867e-4 -0.006070375 1.35 -0.001251161 -0.006070375 1.35 -0.001251161 0.001929938 1.35 -3.93867e-4 0.001995563 1.35 4.63456e-4 0.002108812 1.35 0.001320719 0.002257347 1.35 0.002178072 0.002457737 1.35 0.003035366 0.002678871 1.35 0.004792392 -0.006070375 1.35 0.004792392 0.003329873 1.35 0.007112145 0.004550218 1.35 0.00799179 0.005118846 1.35 0.008871436 0.005853474 1.35 0.008871436 -0.006070375 1.35 0.00799179 -0.006070375 1.35 0.007112145 -0.006070375 1.35 0.01208239 0.006629586 1.35 0.01560074 0.006629586 1.35 -0.01396811 -0.00108093 1.35 -0.0163992 -0.00108093 1.35 -0.002108514 -0.00108093 1.35 -0.008281826 -0.00108093 1.35 -0.01044952 -0.00108093 1.35 -0.007252454 -0.00108093 1.35 -0.006395101 -0.00108093 1.35 -0.005537807 -0.00108093 1.35 -0.004680454 -0.00108093 1.35 -0.003823161 -0.00108093 1.35 -0.002965807 -0.00108093 1.35 -0.009279668 -0.00108093 1.35 -0.01308846 -0.00108093 1.35 -0.01220881 -0.00108093 1.35 -0.01132917 -0.00108093 1.35 0.009751081 -0.00108093 1.35 0.01560074 -0.00108093 1.35 0.003892719 -0.00108093 1.35 0.005917727 -0.00108093 1.35 0.01208239 -0.00108093 1.35 0.003035366 -0.00108093 1.35 0.002178072 -0.00108093 1.35 0.001320719 -0.00108093 1.35 4.63448e-4 -0.00108093 1.35 -3.93867e-4 -0.00108093 1.35 -0.001251161 -0.00108093 1.35 0.004792392 -0.00108093 1.35 0.008871436 -0.00108093 1.35 0.00799179 -0.00108093 1.35 0.007112145 -0.00108093 1.35</float_array>
          <technique_common>
            <accessor source="#Plane_006-mesh-positions-array" count="166" stride="3">
              <param name="X" type="float"/>
              <param name="Y" type="float"/>
              <param name="Z" type="float"/>
            </accessor>
          </technique_common>
        </source>
        <source id="Plane_006-mesh-normals">
          <float_array id="Plane_006-mesh-normals-array" count="228">0 0 -1 4.26922e-5 0 -1 6.8655e-5 0 -1 -2.08883e-5 0 -1 -2.48267e-4 0 -1 2.23491e-4 0 -1 -3.05072e-5 0 -1 -1.91863e-5 0 -1 -7.22317e-5 0 -1 1.8504e-4 0 -1 -6.92337e-5 0 -1 -5.8672e-5 0 -1 -2.74623e-4 0 -1 2.88927e-4 0 -1 1.88014e-4 0 -1 0 0 1 1.67106e-4 0 1 3.2541e-4 0 1 -1.38467e-4 0 1 -1.49424e-4 0 1 1.52678e-4 0 1 -1.02983e-4 0 1 2.20684e-5 0 1 2.12847e-5 0 1 -2.74562e-4 0 1 2.68608e-4 0 1 -9.02896e-5 0 1 9.63614e-5 0 1 -4.70035e-5 0 1 0 1 0 -0.1309568 0.9913882 0 0.3844953 0.923127 0 0 -1 0 -1 0 0 -0.1706897 0.9853249 0 -0.2275927 0.9737564 0 0.5140473 0.8577619 0 -0.2497503 0.9683103 0 0.5428979 0.8397986 0 0.6616002 0.7498568 0 0.6409962 0.7675442 0 0.3202176 0.9473441 0 0.4445673 0.8957455 0 1 0 0 -0.3844933 0.9231278 0 -0.6615976 0.7498591 0 -0.494026 0.8694472 0 -0.3067288 0.9517971 0 -0.542895 0.8398006 0 -0.6409994 0.7675414 0 -0.4337115 0.9010518 0 0.07634913 0.9970812 0 0.1309555 0.9913883 0 0.1706882 0.9853251 0 0.2275925 0.9737565 0 0.2497506 0.9683103 0 -0.07634824 0.9970812 0 0.3844949 0.9231271 0 -0.1706897 0.9853249 0 -0.2275926 0.9737564 0 -0.2497504 0.9683104 0 0.5428979 0.8397988 0 0.6616014 0.7498557 0 0.6409974 0.7675432 0 0.3202172 0.9473442 0 0.4445672 0.8957455 0 -0.3844936 0.9231277 0 -0.4940259 0.8694472 0 -0.306729 0.951797 0 -0.542895 0.8398007 0 -0.6409995 0.7675414 0 -0.4337113 0.9010519 0 0.1309553 0.9913883 0 0.1706883 0.9853252 0 0.2275923 0.9737566 0 -0.07634818 0.9970813 0</float_array>
          <technique_common>
            <accessor source="#Plane_006-mesh-normals-array" count="76" stride="3">
              <param name="X" type="float"/>
              <param name="Y" type="float"/>
              <param name="Z" type="float"/>
            </accessor>
          </technique_common>
        </source>
        <source id="Plane_006-mesh-map-0">
          <float_array id="Plane_006-mesh-map-0-array" count="1968">0 1 1 0.5 0 0.5 1 0.5 1 0 1 0.5 1 0.5 1 0 1 0.5 1 0.5 1 0 1 0.5 1 0.5 1 0 1 0.5 1 0.5 1 0 1 0.5 1 0.5 1 0 1 0.5 1 0.5 1 0 1 0.5 1 0.5 0 1 0 0.5 1 0 1 0.5 1 0.5 1 0 1 0.5 1 0.5 1 0 1 0.5 1 0.5 1 0 1 0.5 1 0.5 1 0 1 0.5 1 0.5 1 0 1 0.5 1 0.5 1 0 1 0.5 1 0.5 1 0 1 0.5 1 0.5 1 0 1 0.5 1 0.5 1 0 1 0.5 1 0.5 1 0 1 0.5 1 0.5 1 0 1 0.5 1 0.5 1 0 1 0.5 1 0.5 0 1 1 0.5 0 0.5 0 0.5 1 0 0 0 1 0.5 1 1 1 1 1 0.5 1 1 1 1 1 0.5 1 1 1 1 1 0.5 1 1 1 1 1 0.5 1 1 1 1 1 0.5 1 1 1 1 1 0.5 1 1 1 1 1 0.5 1 1 1 1 1 0.5 1 1 1 1 1 0.5 1 1 1 1 1 0.5 1 1 1 1 1 0.5 1 1 1 1 1 0.5 1 1 1 1 1 0 0 0.5 0 0 1 1 1 0.5 1 1 1 1 1 0.5 1 1 1 1 1 0.5 1 1 1 1 1 0.5 1 1 1 1 1 0.5 1 1 1 1 1 0.5 1 1 1 1 1 0.5 1 1 1 1 1 0.5 1 1 1 1 1 0.5 1 1 1 1 1 0.5 1 1 1 1 1 0.5 1 1 1 1 1 0.5 1 1 1 1 1 0.5 1 1 1 0.5 0 1 0 0.5 1 0 1 0.5 1 0.5 1 0 1 0.5 1 0.5 1 0 1 0.5 1 0.5 1 0 1 0.5 1 0.5 1 0 1 0.5 1 0.5 1 0 1 0.5 1 0.5 1 0 1 0.5 1 0.5 0 1 1 0.5 0 0.5 1 0.5 1 0 1 0.5 1 0.5 1 0 1 0.5 1 0.5 1 0 1 0.5 1 0.5 1 0 1 0.5 1 0.5 1 0 1 0.5 1 0.5 1 0 1 0.5 1 0.5 1 0 1 0.5 1 0.5 1 0 1 0.5 1 0.5 1 0 1 0.5 1 0.5 1 0 1 0.5 1 0.5 1 0 1 0.5 1 0.5 1 0 1 0.5 1 0.5 1 0 1 0.5 1 0.5 0 1 0 0.5 1 0 0 0.5 0 0 1 1 1 0.5 1 1 1 1 1 0.5 1 1 1 1 1 0.5 1 1 1 1 1 0.5 1 1 1 1 1 0.5 1 1 1 1 1 0.5 1 1 1 1 1 0.5 1 1 1 1 1 0.5 1 1 1 1 1 0.5 1 1 1 1 1 0.5 1 1 1 1 1 0.5 1 1 1 1 1 0.5 1 1 1 1 1 0.5 1 1 0 0.5 1 0 0 0 1 0.5 1 1 1 1 1 0.5 1 1 1 1 1 0.5 1 1 1 1 1 0.5 1 1 1 1 1 0.5 1 1 1 1 1 0.5 1 1 1 1 1 0.5 1 1 1 1 1 0.5 1 1 1 1 1 0.5 1 1 1 1 1 0.5 1 1 1 1 1 0.5 1 1 1 1 1 0.5 1 1 1 1 1 0.5 1 1 1 1 1 1 0 1 1 1 1 1 1 1 1 1 1 1 1 1 1 1 1 0.5 0 0.5 1 0.5 0 1 1 1 0 1 0 0.5 0 1 0 0.5 1 1 1 1 1 1 1 1 1 1 1 1 1 1 1 1 1 1 1 0 1 0 1 0 1 0 1 0.5 1 0 1 1 1 1 1 1 1 1 1 1 1 1 1 1 1 1 1 1 1 1 1 1 1 1 1 1 1 1 1 1 1 1 1 1 1 1 1 0 1 0 1 0 1 1 1 0.5 1 1 1 0 1 0 1 0 1 0 1 0 1 0 1 0 0 0 1 0 1 0 1 0 1 0 1 0.5 1 0 1 0.5 1 1 1 1 1 1 1 1 1 1 1 1 1 0 1 0 1 0 1 0 1 0 1 0 1 0 1 0 1 0 1 1 1 1 1 1 1 1 1 1 1 1 1 0 1 0 1 0 1 0.5 1 0.5 1 0.5 1 1 1 1 1 1 1 1 1 1 1 1 1 0.5 1 0.5 1 0.5 1 1 1 1 1 1 1 1 1 1 1 1 1 1 1 1 1 1 1 0.5 1 0.5 1 0.5 1 0 1 0 1 0 1 0 1 0 1 0 1 1 1 1 1 1 1 0.5 1 0.5 1 0.5 1 0 1 0 1 0 1 1 1 1 1 1 1 0 1 0 1 0 1 0 1 0 1 0 1 1 1 1 1 1 1 0 1 0 1 0 1 1 1 1 1 1 1 0 1 0 1 0 1 0 1 0 1 0 1 0 1 0 1 0 1 0 1 0 1 0 1 1 1 1 1 1 1 0 1 0 1 0 1 0.5 1 0.5 1 0.5 0 1 1 1 0 1 1 0.5 1 0.5 1 0.5 0 0 1 0 0 0 1 1 1 1 1 1 0 1 1 1 1 0.5 1 0.5 1 0 1 0 1 0.5 1 0 1 0 1 0.5 1 0 1 0 1 0.5 1 0 1 0 1 0.5 1 0 1 0 1 0.5 1 0 1 0 1 0.5 1 0 1 0 1 0.5 1 1 0 1 1 0 1 0 1 0.5 1 0 1 0 1 0.5 1 0 1 0 1 0.5 1 0 1 0 1 0.5 1 0 1 0 1 0.5 1 0 1 0 1 0.5 1 0 1 0 1 0.5 1 0 1 0 1 0.5 1 0 1 0 1 0.5 1 0 1 0 1 0.5 1 0 1 0 1 0.5 1 0 1 0 1 0.5 1 0 1 0 1 0.5 0 1 1 1 1 0.5 0 0.5 1 0.5 1 0 1 0.5 1 0.5 1 1 1 0.5 1 0.5 1 1 1 0.5 1 0.5 1 1 1 0.5 1 0.5 1 1 1 0.5 1 0.5 1 1 1 0.5 1 0.5 1 1 1 0.5 1 0.5 1 1 1 0.5 1 0.5 1 1 1 0.5 1 0.5 1 1 1 0.5 1 0.5 1 1 1 0.5 1 0.5 1 1 1 0.5 1 0.5 1 1 1 0.5 1 0.5 1 1 1 0 1 0.5 0 0.5 1 1 1 0.5 1 0.5 1 1 1 0.5 1 0.5 1 1 1 0.5 1 0.5 1 1 1 0.5 1 0.5 1 1 1 0.5 1 0.5 1 1 1 0.5 1 0.5 1 1 1 0.5 1 0.5 1 1 1 0.5 1 0.5 1 1 1 0.5 1 0.5 1 1 1 0.5 1 0.5 1 1 1 0.5 1 0.5 1 1 1 0.5 1 0.5 1 1 1 0.5 1 0.5 1 0.5 1 1 0 1 1 0 1 0 1 0.5 1 0 1 0 1 0.5 1 0 1 0 1 0.5 1 0 1 0 1 0.5 1 0 1 0 1 0.5 1 0 1 0 1 0.5 1 0 1 0 1 0.5 0 1 1 1 1 0.5 1 0.5 1 0 1 0 1 0.5 1 0 1 0 1 0.5 1 0 1 0 1 0.5 1 0 1 0 1 0.5 1 0 1 0 1 0.5 1 0 1 0 1 0.5 1 0 1 0 1 0.5 1 0 1 0 1 0.5 1 0 1 0 1 0.5 1 0 1 0 1 0.5 1 0 1 0 1 0.5 1 0 1 0 1 0.5 1 0 1 0 1 0.5 1 1 0 1 1 0 1 0.5 0 0.5 1 1 1 0.5 1 0.5 1 1 1 0.5 1 0.5 1 1 1 0.5 1 0.5 1 1 1 0.5 1 0.5 1 1 1 0.5 1 0.5 1 1 1 0.5 1 0.5 1 1 1 0.5 1 0.5 1 1 1 0.5 1 0.5 1 1 1 0.5 1 0.5 1 1 1 0.5 1 0.5 1 1 1 0.5 1 0.5 1 1 1 0.5 1 0.5 1 1 1 0.5 1 0.5 0 0.5 1 0.5 1 0 1 0.5 1 0.5 1 1 1 0.5 1 0.5 1 1 1 0.5 1 0.5 1 1 1 0.5 1 0.5 1 1 1 0.5 1 0.5 1 1 1 0.5 1 0.5 1 1 1 0.5 1 0.5 1 1 1 0.5 1 0.5 1 1 1 0.5 1 0.5 1 1 1 0.5 1 0.5 1 1 1 0.5 1 0.5 1 1 1 0.5 1 0.5 1 1 1 0.5 1 0.5 1 1 1 1 0 1 0 1 1 1 1 1 1 1 1 1 1 1 1 1 1 0.5 0 0.5 0 0.5 0 1 1 1 1 1 0 0.5 0 1 0 1 1 1 1 1 1 1 1 1 1 1 1 1 1 1 1 1 1 1 1 0 1 0 1 0 1 0 1 0.5 1 0.5 1 1 1 1 1 1 1 1 1 1 1 1 1 1 1 1 1 1 1 1 1 1 1 1 1 1 1 1 1 1 1 1 1 1 1 1 1 0 1 0 1 0 1 1 1 0.5 1 0.5 1 0 1 0 1 0 1 0 1 0 1 0 1 0 0 0 0 0 1 0 1 0 1 0 1 0.5 1 0 1 0 1 1 1 1 1 1 1 1 1 1 1 1 1 0 1 0 1 0 1 0 1 0 1 0 1 0 1 0 1 0 1 1 1 1 1 1 1 1 1 1 1 1 1 0 1 0 1 0 1 0.5 1 0.5 1 0.5 1 1 1 1 1 1 1 1 1 1 1 1 1 0.5 1 0.5 1 0.5 1 1 1 1 1 1 1 1 1 1 1 1 1 1 1 1 1 1 1 0.5 1 0.5 1 0.5 1 0 1 0 1 0 1 0 1 0 1 0 1 1 1 1 1 1 1 0.5 1 0.5 1 0.5 1 0 1 0 1 0 1 1 1 1 1 1 1 0 1 0 1 0 1 0 1 0 1 0 1 1 1 1 1 1 1 0 1 0 1 0 1 1 1 1 1 1 1 0 1 0 1 0 1 0 1 0 1 0 1 0 1 0 1 0 1 0 1 0 1 0 1 1 1 1 1 1 1 0 1 0 1 0 1 0.5 1 0.5 1 0.5 0 1 1 1 1 1 1 0.5 1 0.5 1 0.5 0 0 1 0 1 0 1 1 1 1 1 1</float_array>
          <technique_common>
            <accessor source="#Plane_006-mesh-map-0-array" count="984" stride="2">
              <param name="S" type="float"/>
              <param name="T" type="float"/>
            </accessor>
          </technique_common>
        </source>
        <vertices id="Plane_006-mesh-vertices">
          <input semantic="POSITION" source="#Plane_006-mesh-positions"/>
        </vertices>
        <triangles material="gora_dol-material" count="204">
          <input semantic="VERTEX" source="#Plane_006-mesh-vertices" offset="0"/>
          <input semantic="NORMAL" source="#Plane_006-mesh-normals" offset="1"/>
          <input semantic="TEXCOORD" source="#Plane_006-mesh-map-0" offset="2" set="0"/>
          <p>0 0 0 53 0 1 54 0 2 55 0 3 12 0 4 63 0 5 58 0 6 4 0 7 56 0 8 59 0 9 7 0 10 58 0 11 60 0 12 8 0 13 59 0 14 61 0 15 9 0 16 60 0 17 62 0 18 10 0 19 61 0 20 63 0 21 11 0 22 62 0 23 68 0 24 51 0 25 72 0 26 36 0 27 55 0 28 78 0 29 43 0 30 70 0 31 79 0 32 50 0 33 71 0 34 82 0 35 27 0 36 73 0 37 70 0 38 31 0 39 74 0 40 73 0 41 32 0 42 75 0 43 74 0 44 33 0 45 76 0 46 75 0 47 34 0 48 77 0 49 76 0 50 35 0 51 78 0 52 77 0 53 30 0 54 79 0 55 71 0 56 23 0 57 80 0 58 68 0 59 48 0 60 81 0 61 80 0 62 49 0 63 82 0 64 81 0 65 51 0 66 69 0 67 72 0 68 72 0 69 25 0 70 26 0 71 81 1 72 45 1 73 46 1 74 80 0 75 46 0 76 47 0 77 68 2 78 47 2 79 24 2 80 71 3 81 44 3 82 29 3 83 77 4 84 37 4 85 38 4 86 76 5 87 38 5 88 39 5 89 75 6 90 39 6 91 40 6 92 74 7 93 40 7 94 41 7 95 73 8 96 41 8 97 42 8 98 70 9 99 42 9 100 28 9 101 82 10 102 29 10 103 45 10 104 79 11 105 28 11 106 44 11 107 78 0 108 3 0 109 37 0 110 23 0 111 72 0 112 26 0 113 20 0 114 66 0 115 21 0 116 21 0 117 65 0 118 22 0 119 22 12 120 53 12 121 1 12 122 19 0 123 57 0 124 6 0 125 13 0 126 62 0 127 14 0 128 14 0 129 61 0 130 15 0 131 15 0 132 60 0 133 16 0 134 16 0 135 59 0 136 17 0 137 17 13 138 58 13 139 18 13 140 18 0 141 56 0 142 5 0 143 6 14 144 67 14 145 20 14 146 5 0 147 64 0 148 19 0 149 3 0 150 63 0 151 13 0 152 136 15 153 83 15 154 137 15 155 95 15 156 138 15 157 146 15 158 87 15 159 141 15 160 139 15 161 90 15 162 142 15 163 141 15 164 91 15 165 143 15 166 142 15 167 92 15 168 144 15 169 143 15 170 93 15 171 145 15 172 144 15 173 94 15 174 146 15 175 145 15 176 134 15 177 151 15 178 155 15 179 138 15 180 119 15 181 161 15 182 153 15 183 126 15 184 162 15 185 154 15 186 133 15 187 165 15 188 156 15 189 110 15 190 153 15 191 157 15 192 114 15 193 156 15 194 158 15 195 115 15 196 157 15 197 159 15 198 116 15 199 158 15 200 160 15 201 117 15 202 159 15 203 161 15 204 118 15 205 160 15 206 162 15 207 113 15 208 154 15 209 163 15 210 106 15 211 151 15 212 164 15 213 131 15 214 163 15 215 165 15 216 132 15 217 164 15 218 152 15 219 134 15 220 155 15 221 108 15 222 155 15 223 109 15 224 128 15 225 164 15 226 129 15 227 129 15 228 163 15 229 130 15 230 130 15 231 151 15 232 107 15 233 127 16 234 154 16 235 112 16 236 120 15 237 160 15 238 121 15 239 121 15 240 159 15 241 122 15 242 122 17 243 158 17 244 123 17 245 123 15 246 157 15 247 124 15 248 124 15 249 156 15 250 125 15 251 125 15 252 153 15 253 111 15 254 112 18 255 165 18 256 128 18 257 111 15 258 162 15 259 127 15 260 86 15 261 161 15 262 120 15 263 155 15 264 106 15 265 109 15 266 149 19 267 103 19 268 104 19 269 148 20 270 104 20 271 105 20 272 136 21 273 105 21 274 84 21 275 140 15 276 102 15 277 89 15 278 145 22 279 96 22 280 97 22 281 144 23 282 97 23 283 98 23 284 143 24 285 98 24 286 99 24 287 142 25 288 99 25 289 100 25 290 141 26 291 100 26 292 101 26 293 139 27 294 101 27 295 88 27 296 150 28 297 89 28 298 103 28 299 147 15 300 88 15 301 102 15 302 146 15 303 86 15 304 96 15 305 0 0 492 1 0 493 53 0 494 55 0 495 2 0 496 12 0 497 58 0 498 7 0 499 4 0 500 59 0 501 8 0 502 7 0 503 60 0 504 9 0 505 8 0 506 61 0 507 10 0 508 9 0 509 62 0 510 11 0 511 10 0 512 63 0 513 12 0 514 11 0 515 68 0 516 24 0 517 51 0 518 36 0 519 2 0 520 55 0 521 43 0 522 27 0 523 70 0 524 50 0 525 30 0 526 71 0 527 27 0 528 31 0 529 73 0 530 31 0 531 32 0 532 74 0 533 32 0 534 33 0 535 75 0 536 33 0 537 34 0 538 76 0 539 34 0 540 35 0 541 77 0 542 35 0 543 36 0 544 78 0 545 30 0 546 43 0 547 79 0 548 23 0 549 48 0 550 80 0 551 48 0 552 49 0 553 81 0 554 49 0 555 50 0 556 82 0 557 51 0 558 52 0 559 69 0 560 72 0 561 69 0 562 25 0 563 81 0 564 82 0 565 45 0 566 80 0 567 81 0 568 46 0 569 68 0 570 80 0 571 47 0 572 71 0 573 79 0 574 44 0 575 77 0 576 78 0 577 37 0 578 76 0 579 77 0 580 38 0 581 75 0 582 76 0 583 39 0 584 74 0 585 75 0 586 40 0 587 73 0 588 74 0 589 41 0 590 70 0 591 73 0 592 42 0 593 82 0 594 71 0 595 29 0 596 79 0 597 70 0 598 28 0 599 78 0 600 55 0 601 3 0 602 23 0 603 68 0 604 72 0 605 20 0 606 67 0 607 66 0 608 21 0 609 66 0 610 65 0 611 22 0 612 65 0 613 53 0 614 19 0 615 64 0 616 57 0 617 13 0 618 63 0 619 62 0 620 14 0 621 62 0 622 61 0 623 15 0 624 61 0 625 60 0 626 16 0 627 60 0 628 59 0 629 17 0 630 59 0 631 58 0 632 18 0 633 58 0 634 56 0 635 6 0 636 57 0 637 67 0 638 5 0 639 56 0 640 64 0 641 3 0 642 55 0 643 63 0 644 136 15 645 84 15 646 83 15 647 95 15 648 85 15 649 138 15 650 87 15 651 90 15 652 141 15 653 90 15 654 91 15 655 142 15 656 91 15 657 92 15 658 143 15 659 92 15 660 93 15 661 144 15 662 93 15 663 94 15 664 145 15 665 94 15 666 95 15 667 146 15 668 134 15 669 107 15 670 151 15 671 138 15 672 85 15 673 119 15 674 153 15 675 110 15 676 126 15 677 154 15 678 113 15 679 133 15 680 156 15 681 114 15 682 110 15 683 157 15 684 115 15 685 114 15 686 158 15 687 116 15 688 115 15 689 159 15 690 117 15 691 116 15 692 160 15 693 118 15 694 117 15 695 161 15 696 119 15 697 118 15 698 162 15 699 126 15 700 113 15 701 163 15 702 131 15 703 106 15 704 164 15 705 132 15 706 131 15 707 165 15 708 133 15 709 132 15 710 152 15 711 135 15 712 134 15 713 108 15 714 152 15 715 155 15 716 128 15 717 165 15 718 164 15 719 129 15 720 164 15 721 163 15 722 130 15 723 163 15 724 151 15 725 127 15 726 162 15 727 154 15 728 120 15 729 161 15 730 160 15 731 121 15 732 160 15 733 159 15 734 122 15 735 159 15 736 158 15 737 123 15 738 158 15 739 157 15 740 124 15 741 157 15 742 156 15 743 125 15 744 156 15 745 153 15 746 112 15 747 154 15 748 165 15 749 111 15 750 153 15 751 162 15 752 86 15 753 138 15 754 161 15 755 155 15 756 151 15 757 106 15 758 149 15 759 150 15 760 103 15 761 148 15 762 149 15 763 104 15 764 136 15 765 148 15 766 105 15 767 140 15 768 147 15 769 102 15 770 145 15 771 146 15 772 96 15 773 144 15 774 145 15 775 97 15 776 143 15 777 144 15 778 98 15 779 142 15 780 143 15 781 99 15 782 141 15 783 142 15 784 100 15 785 139 15 786 141 15 787 101 15 788 150 15 789 140 15 790 89 15 791 147 15 792 139 15 793 88 15 794 146 15 795 138 15 796 86 15 797</p>
        </triangles>
        <triangles material="tyl-material" count="60">
          <input semantic="VERTEX" source="#Plane_006-mesh-vertices" offset="0"/>
          <input semantic="NORMAL" source="#Plane_006-mesh-normals" offset="1"/>
          <input semantic="TEXCOORD" source="#Plane_006-mesh-map-0" offset="2" set="0"/>
          <p>136 32 315 54 32 316 53 32 317 85 32 333 12 32 334 2 32 335 87 33 336 56 33 337 4 33 338 90 32 357 4 32 358 7 32 359 91 32 363 7 32 364 8 32 365 113 32 366 43 32 367 30 32 368 108 32 369 26 32 370 25 32 371 92 32 372 8 32 373 9 32 374 93 32 384 9 32 385 10 32 386 126 32 387 27 32 388 43 32 389 94 32 390 10 32 391 11 32 392 95 32 399 11 32 400 12 32 401 150 32 402 66 32 403 67 32 404 149 32 411 65 32 412 66 32 413 148 32 423 53 32 424 65 32 425 106 32 426 48 32 427 23 32 428 133 32 429 30 32 430 50 32 431 147 32 435 57 32 436 64 32 437 131 32 438 49 32 439 48 32 440 132 32 444 50 32 445 49 32 446 110 32 447 31 32 448 27 32 449 114 32 453 32 32 454 31 32 455 115 32 459 33 32 460 32 32 461 116 32 462 34 32 463 33 32 464 119 32 465 2 32 466 36 32 467 117 32 468 35 32 469 34 32 470 118 32 474 36 32 475 35 32 476 140 32 477 67 32 478 57 32 479 139 32 483 64 32 484 56 32 485 109 32 486 23 32 487 26 32 488 136 32 807 137 32 808 54 32 809 85 32 825 95 32 826 12 32 827 87 33 828 139 33 829 56 33 830 90 32 849 87 32 850 4 32 851 91 32 855 90 32 856 7 32 857 113 32 858 126 32 859 43 32 860 108 32 861 109 32 862 26 32 863 92 32 864 91 32 865 8 32 866 93 32 876 92 32 877 9 32 878 126 32 879 110 32 880 27 32 881 94 32 882 93 32 883 10 32 884 95 32 891 94 32 892 11 32 893 150 32 894 149 32 895 66 32 896 149 32 903 148 32 904 65 32 905 148 32 915 136 32 916 53 32 917 106 32 918 131 32 919 48 32 920 133 32 921 113 32 922 30 32 923 147 32 927 140 32 928 57 32 929 131 32 930 132 32 931 49 32 932 132 32 936 133 32 937 50 32 938 110 32 939 114 32 940 31 32 941 114 32 945 115 32 946 32 32 947 115 32 951 116 32 952 33 32 953 116 32 954 117 32 955 34 32 956 119 32 957 85 32 958 2 32 959 117 32 960 118 32 961 35 32 962 118 32 966 119 32 967 36 32 968 140 32 969 150 32 970 67 32 971 139 32 975 147 32 976 64 32 977 109 32 978 106 32 979 23 32 980</p>
        </triangles>
        <triangles material="front-material" count="64">
          <input semantic="VERTEX" source="#Plane_006-mesh-vertices" offset="0"/>
          <input semantic="NORMAL" source="#Plane_006-mesh-normals" offset="1"/>
          <input semantic="TEXCOORD" source="#Plane_006-mesh-map-0" offset="2" set="0"/>
          <p>107 29 306 51 29 307 24 29 308 121 30 309 39 30 310 38 30 311 102 31 312 5 31 313 19 31 314 83 29 318 1 29 319 0 29 320 137 33 321 0 33 322 54 33 323 122 34 324 40 34 325 39 34 326 123 35 327 41 35 328 40 35 329 103 36 330 6 36 331 20 36 332 124 37 339 42 37 340 41 37 341 104 38 342 20 38 343 21 38 344 84 39 345 22 39 346 1 39 347 105 40 348 21 40 349 22 40 350 88 41 351 18 41 352 5 41 353 89 42 354 19 42 355 6 42 356 135 43 360 69 43 361 52 43 362 152 43 375 25 43 376 69 43 377 111 44 378 44 44 379 28 44 380 130 45 381 24 45 382 47 45 383 112 46 393 45 46 394 29 46 395 125 47 396 28 47 397 42 47 398 128 48 405 46 48 406 45 48 407 96 29 408 3 29 409 13 29 410 129 49 414 47 49 415 46 49 416 127 50 417 29 50 418 44 50 419 97 51 420 13 51 421 14 51 422 98 52 432 14 52 433 15 52 434 99 53 441 15 53 442 16 53 443 100 54 450 16 54 451 17 54 452 101 55 456 17 55 457 18 55 458 86 29 471 37 29 472 3 29 473 134 29 480 52 29 481 51 29 482 120 56 489 38 56 490 37 56 491 107 29 798 134 29 799 51 29 800 121 30 801 122 30 802 39 30 803 102 57 804 88 57 805 5 57 806 83 29 810 84 29 811 1 29 812 137 33 813 83 33 814 0 33 815 122 58 816 123 58 817 40 58 818 123 59 819 124 59 820 41 59 821 103 36 822 89 36 823 6 36 824 124 60 831 125 60 832 42 60 833 104 61 834 103 61 835 20 61 836 84 62 837 105 62 838 22 62 839 105 63 840 104 63 841 21 63 842 88 64 843 101 64 844 18 64 845 89 65 846 102 65 847 19 65 848 135 43 852 152 43 853 69 43 854 152 43 867 108 43 868 25 43 869 111 66 870 127 66 871 44 66 872 130 45 873 107 45 874 24 45 875 112 67 885 128 67 886 45 67 887 125 68 888 111 68 889 28 68 890 128 69 897 129 69 898 46 69 899 96 29 900 86 29 901 3 29 902 129 70 906 130 70 907 47 70 908 127 71 909 112 71 910 29 71 911 97 51 912 96 51 913 13 51 914 98 72 924 97 72 925 14 72 926 99 73 933 98 73 934 15 73 935 100 74 942 99 74 943 16 74 944 101 55 948 100 55 949 17 55 950 86 29 963 120 29 964 37 29 965 134 29 972 135 29 973 52 29 974 120 75 981 121 75 982 38 75 983</p>
        </triangles>
      </mesh>
    </geometry>
  </library_geometries>
  <library_visual_scenes>
    <visual_scene id="Scene" name="Scene">
      <node id="onda_end1" name="onda_end1" type="NODE">
        <matrix sid="transform">1 0 0 0.09282362 0 1 0 -2.79625e-4 0 0 1 1.35 0 0 0 1</matrix>
        <instance_geometry url="#Plane_006-mesh" name="onda_end1">
          <bind_material>
            <technique_common>
              <instance_material symbol="gora_dol-material" target="#gora_dol-material">
                <bind_vertex_input semantic="UVMap" input_semantic="TEXCOORD" input_set="0"/>
              </instance_material>
              <instance_material symbol="tyl-material" target="#tyl-material">
                <bind_vertex_input semantic="UVMap" input_semantic="TEXCOORD" input_set="0"/>
              </instance_material>
              <instance_material symbol="front-material" target="#front-material">
                <bind_vertex_input semantic="UVMap" input_semantic="TEXCOORD" input_set="0"/>
              </instance_material>
            </technique_common>
          </bind_material>
        </instance_geometry>
      </node>
    </visual_scene>
  </library_visual_scenes>
  <scene>
    <instance_visual_scene url="#Scene"/>
  </scene>
</COLLADA>