# Blender v3.2.0 OBJ File: 'panele.blend'
# www.blender.org
mtllib onda_end2.mtl
o onda_end1_Plane.006
v 0.076424 0.000000 -0.006350
v 0.078855 0.000000 -0.006350
v 0.090715 0.000000 0.006350
v 0.090715 0.000000 -0.001650
v 0.084542 0.000000 0.006350
v 0.084542 0.000000 -0.002747
v 0.082374 0.000000 -0.003743
v 0.085571 0.000000 0.006350
v 0.086428 0.000000 0.006350
v 0.087286 0.000000 0.006350
v 0.088143 0.000000 0.006350
v 0.089000 0.000000 0.006350
v 0.089858 0.000000 0.006350
v 0.089858 0.000000 -0.001650
v 0.089000 0.000000 -0.001716
v 0.088143 0.000000 -0.001829
v 0.087286 0.000000 -0.001978
v 0.086428 0.000000 -0.002178
v 0.085571 0.000000 -0.002399
v 0.083544 0.000000 -0.003163
v 0.081494 0.000000 -0.004271
v 0.080615 0.000000 -0.004839
v 0.079735 0.000000 -0.005574
v 0.102575 0.000000 0.006350
v 0.102575 0.000000 -0.006350
v 0.108424 0.000000 0.006350
v 0.104906 0.000000 0.006350
v 0.096716 0.000000 0.006350
v 0.096716 0.000000 -0.002676
v 0.098741 0.000000 -0.003592
v 0.098741 0.000000 0.006350
v 0.095859 0.000000 0.006350
v 0.095002 0.000000 0.006350
v 0.094144 0.000000 0.006350
v 0.093287 0.000000 0.006350
v 0.092430 0.000000 0.006350
v 0.091572 0.000000 0.006350
v 0.091572 0.000000 -0.001650
v 0.092430 0.000000 -0.001716
v 0.093287 0.000000 -0.001829
v 0.094144 0.000000 -0.001978
v 0.095002 0.000000 -0.002178
v 0.095859 0.000000 -0.002399
v 0.097616 0.000000 0.006350
v 0.097616 0.000000 -0.003050
v 0.099936 0.000000 -0.004271
v 0.100815 0.000000 -0.004839
v 0.101695 0.000000 -0.005574
v 0.101695 0.000000 0.006350
v 0.100815 0.000000 0.006350
v 0.099936 0.000000 0.006350
v 0.104906 0.000000 -0.006350
v 0.108424 0.000000 -0.006350
v 0.078855 0.000000 0.001361
v 0.076424 0.000000 0.001361
v 0.090715 0.000000 0.001361
v 0.084542 0.000000 0.001361
v 0.082374 0.000000 0.001361
v 0.085571 0.000000 0.001361
v 0.086428 0.000000 0.001361
v 0.087286 0.000000 0.001361
v 0.088143 0.000000 0.001361
v 0.089000 0.000000 0.001361
v 0.089858 0.000000 0.001361
v 0.083544 0.000000 0.001361
v 0.079735 0.000000 0.001361
v 0.080615 0.000000 0.001361
v 0.081494 0.000000 0.001361
v 0.102575 0.000000 0.001361
v 0.108424 0.000000 0.001361
v 0.096716 0.000000 0.001361
v 0.098741 0.000000 0.001361
v 0.104906 0.000000 0.001361
v 0.095859 0.000000 0.001361
v 0.095002 0.000000 0.001361
v 0.094144 0.000000 0.001361
v 0.093287 0.000000 0.001361
v 0.092430 0.000000 0.001361
v 0.091572 0.000000 0.001361
v 0.097616 0.000000 0.001361
v 0.101695 0.000000 0.001361
v 0.100815 0.000000 0.001361
v 0.099936 0.000000 0.001361
v 0.076424 2.700000 -0.006350
v 0.078855 2.700000 -0.006350
v 0.090715 2.700000 0.006350
v 0.090715 2.700000 -0.001650
v 0.084542 2.700000 0.006350
v 0.084542 2.700000 -0.002747
v 0.082374 2.700000 -0.003743
v 0.085571 2.700000 0.006350
v 0.086428 2.700000 0.006350
v 0.087286 2.700000 0.006350
v 0.088143 2.700000 0.006350
v 0.089000 2.700000 0.006350
v 0.089858 2.700000 0.006350
v 0.089858 2.700000 -0.001650
v 0.089000 2.700000 -0.001716
v 0.088143 2.700000 -0.001829
v 0.087286 2.700000 -0.001978
v 0.086428 2.700000 -0.002178
v 0.085571 2.700000 -0.002399
v 0.083544 2.700000 -0.003163
v 0.081494 2.700000 -0.004271
v 0.080615 2.700000 -0.004839
v 0.079735 2.700000 -0.005574
v 0.102575 2.700000 0.006350
v 0.102575 2.700000 -0.006350
v 0.108424 2.700000 0.006350
v 0.104906 2.700000 0.006350
v 0.096716 2.700000 0.006350
v 0.096716 2.700000 -0.002676
v 0.098741 2.700000 -0.003592
v 0.098741 2.700000 0.006350
v 0.095859 2.700000 0.006350
v 0.095002 2.700000 0.006350
v 0.094144 2.700000 0.006350
v 0.093287 2.700000 0.006350
v 0.092430 2.700000 0.006350
v 0.091572 2.700000 0.006350
v 0.091572 2.700000 -0.001650
v 0.092430 2.700000 -0.001716
v 0.093287 2.700000 -0.001829
v 0.094144 2.700000 -0.001978
v 0.095002 2.700000 -0.002178
v 0.095859 2.700000 -0.002399
v 0.097616 2.700000 0.006350
v 0.097616 2.700000 -0.003050
v 0.099936 2.700000 -0.004271
v 0.100815 2.700000 -0.004839
v 0.101695 2.700000 -0.005574
v 0.101695 2.700000 0.006350
v 0.100815 2.700000 0.006350
v 0.099936 2.700000 0.006350
v 0.104906 2.700000 -0.006350
v 0.108424 2.700000 -0.006350
v 0.078855 2.700000 0.001361
v 0.076424 2.700000 0.001361
v 0.090715 2.700000 0.001361
v 0.084542 2.700000 0.001361
v 0.082374 2.700000 0.001361
v 0.085571 2.700000 0.001361
v 0.086428 2.700000 0.001361
v 0.087286 2.700000 0.001361
v 0.088143 2.700000 0.001361
v 0.089000 2.700000 0.001361
v 0.089858 2.700000 0.001361
v 0.083544 2.700000 0.001361
v 0.079735 2.700000 0.001361
v 0.080615 2.700000 0.001361
v 0.081494 2.700000 0.001361
v 0.102575 2.700000 0.001361
v 0.108424 2.700000 0.001361
v 0.096716 2.700000 0.001361
v 0.098741 2.700000 0.001361
v 0.104906 2.700000 0.001361
v 0.095859 2.700000 0.001361
v 0.095002 2.700000 0.001361
v 0.094144 2.700000 0.001361
v 0.093287 2.700000 0.001361
v 0.092430 2.700000 0.001361
v 0.091572 2.700000 0.001361
v 0.097616 2.700000 0.001361
v 0.101695 2.700000 0.001361
v 0.100815 2.700000 0.001361
v 0.099936 2.700000 0.001361
vt 0.000000 0.500000
vt 0.000000 1.000000
vt 1.000000 1.000000
vt 1.000000 0.500000
vt 1.000000 0.500000
vt 1.000000 0.500000
vt 1.000000 0.000000
vt 1.000000 0.000000
vt 1.000000 0.500000
vt 1.000000 0.500000
vt 1.000000 0.000000
vt 1.000000 0.000000
vt 1.000000 0.500000
vt 1.000000 0.000000
vt 1.000000 0.500000
vt 1.000000 0.000000
vt 1.000000 0.500000
vt 1.000000 0.000000
vt 1.000000 0.500000
vt 1.000000 0.000000
vt 0.000000 0.500000
vt 1.000000 0.500000
vt 1.000000 1.000000
vt 0.000000 1.000000
vt 1.000000 0.500000
vt 1.000000 0.000000
vt 1.000000 0.500000
vt 1.000000 0.000000
vt 1.000000 0.000000
vt 1.000000 0.500000
vt 1.000000 0.500000
vt 1.000000 0.000000
vt 1.000000 0.000000
vt 1.000000 0.500000
vt 1.000000 0.000000
vt 1.000000 0.500000
vt 1.000000 0.000000
vt 1.000000 0.500000
vt 1.000000 0.000000
vt 1.000000 0.500000
vt 1.000000 0.000000
vt 1.000000 0.500000
vt 1.000000 0.000000
vt 1.000000 0.500000
vt 1.000000 0.000000
vt 1.000000 0.000000
vt 1.000000 0.500000
vt 1.000000 0.000000
vt 1.000000 0.500000
vt 1.000000 1.000000
vt 1.000000 0.500000
vt 0.000000 0.000000
vt 1.000000 0.000000
vt 1.000000 1.000000
vt 1.000000 1.000000
vt 1.000000 1.000000
vt 1.000000 1.000000
vt 1.000000 1.000000
vt 1.000000 1.000000
vt 1.000000 1.000000
vt 1.000000 1.000000
vt 1.000000 1.000000
vt 1.000000 1.000000
vt 1.000000 1.000000
vt 1.000000 1.000000
vt 1.000000 1.000000
vt 1.000000 1.000000
vt 1.000000 1.000000
vt 1.000000 0.500000
vt 1.000000 0.500000
vt 1.000000 1.000000
vt 1.000000 0.500000
vt 1.000000 1.000000
vt 1.000000 1.000000
vt 1.000000 0.500000
vt 1.000000 0.500000
vt 1.000000 1.000000
vt 1.000000 1.000000
vt 1.000000 1.000000
vt 1.000000 1.000000
vt 1.000000 1.000000
vt 1.000000 1.000000
vt 1.000000 1.000000
vt 0.000000 0.500000
vt 1.000000 0.500000
vt 1.000000 1.000000
vt 0.000000 1.000000
vt 1.000000 0.500000
vt 1.000000 0.000000
vt 1.000000 0.000000
vt 1.000000 0.500000
vt 1.000000 0.500000
vt 1.000000 0.000000
vt 1.000000 0.000000
vt 1.000000 0.500000
vt 1.000000 0.000000
vt 1.000000 0.500000
vt 1.000000 0.000000
vt 1.000000 0.500000
vt 1.000000 0.000000
vt 1.000000 0.500000
vt 1.000000 0.000000
vt 1.000000 0.500000
vt 0.000000 0.500000
vt 0.000000 1.000000
vt 1.000000 1.000000
vt 1.000000 0.500000
vt 1.000000 0.500000
vt 1.000000 0.000000
vt 1.000000 0.500000
vt 1.000000 0.500000
vt 1.000000 0.000000
vt 1.000000 0.000000
vt 1.000000 0.500000
vt 1.000000 0.500000
vt 1.000000 0.000000
vt 1.000000 0.000000
vt 1.000000 0.500000
vt 1.000000 0.000000
vt 1.000000 0.500000
vt 1.000000 0.000000
vt 1.000000 0.500000
vt 1.000000 0.000000
vt 1.000000 0.500000
vt 1.000000 0.000000
vt 1.000000 0.500000
vt 1.000000 0.000000
vt 1.000000 0.500000
vt 1.000000 0.000000
vt 1.000000 0.000000
vt 1.000000 0.500000
vt 1.000000 0.000000
vt 1.000000 0.500000
vt 1.000000 1.000000
vt 0.000000 0.000000
vt 1.000000 0.000000
vt 1.000000 1.000000
vt 1.000000 1.000000
vt 1.000000 1.000000
vt 1.000000 1.000000
vt 1.000000 1.000000
vt 1.000000 1.000000
vt 1.000000 1.000000
vt 1.000000 1.000000
vt 1.000000 1.000000
vt 1.000000 1.000000
vt 1.000000 1.000000
vt 1.000000 1.000000
vt 1.000000 1.000000
vt 1.000000 1.000000
vt 1.000000 0.500000
vt 1.000000 0.500000
vt 1.000000 1.000000
vt 1.000000 1.000000
vt 1.000000 0.500000
vt 1.000000 1.000000
vt 1.000000 0.500000
vt 1.000000 0.500000
vt 1.000000 1.000000
vt 1.000000 1.000000
vt 1.000000 1.000000
vt 1.000000 1.000000
vt 1.000000 1.000000
vt 1.000000 1.000000
vt 1.000000 1.000000
vt 1.000000 1.000000
vn 0.0000 -1.0000 0.0000
vn 0.0000 1.0000 0.0000
vn 0.0000 0.0000 1.0000
vn -1.0000 0.0000 0.0000
vn 0.0000 0.0000 -1.0000
vn -0.1310 0.0000 -0.9914
vn 0.3845 0.0000 -0.9231
vn -0.1707 0.0000 -0.9853
vn -0.2276 0.0000 -0.9738
vn 0.5140 0.0000 -0.8578
vn -0.2498 0.0000 -0.9683
vn 0.5429 0.0000 -0.8398
vn 0.6616 0.0000 -0.7499
vn 0.6410 0.0000 -0.7675
vn 0.3202 0.0000 -0.9473
vn 0.4446 0.0000 -0.8957
vn 1.0000 0.0000 0.0000
vn -0.3845 0.0000 -0.9231
vn -0.6616 0.0000 -0.7499
vn -0.4940 0.0000 -0.8694
vn -0.3067 0.0000 -0.9518
vn -0.5429 0.0000 -0.8398
vn -0.6410 0.0000 -0.7675
vn -0.4337 0.0000 -0.9011
vn 0.0763 0.0000 -0.9971
vn 0.1310 0.0000 -0.9914
vn 0.1707 0.0000 -0.9853
vn 0.2276 0.0000 -0.9738
vn 0.2498 0.0000 -0.9683
vn -0.0763 0.0000 -0.9971
g onda_end1_Plane.006_gora_dol
usemtl gora_dol
s off
f 55/1/1 1/2/1 2/3/1 54/4/1
f 64/5/1 56/6/1 3/7/1 13/8/1
f 57/9/1 59/10/1 8/11/1 5/12/1
f 59/10/1 60/13/1 9/14/1 8/11/1
f 60/13/1 61/15/1 10/16/1 9/14/1
f 61/15/1 62/17/1 11/18/1 10/16/1
f 62/17/1 63/19/1 12/20/1 11/18/1
f 63/19/1 64/5/1 13/8/1 12/20/1
f 73/21/1 69/22/1 25/23/1 52/24/1
f 79/25/1 37/26/1 3/7/1 56/6/1
f 80/27/1 44/28/1 28/29/1 71/30/1
f 83/31/1 51/32/1 31/33/1 72/34/1
f 71/30/1 28/29/1 32/35/1 74/36/1
f 74/36/1 32/35/1 33/37/1 75/38/1
f 75/38/1 33/37/1 34/39/1 76/40/1
f 76/40/1 34/39/1 35/41/1 77/42/1
f 77/42/1 35/41/1 36/43/1 78/44/1
f 78/44/1 36/43/1 37/26/1 79/25/1
f 72/34/1 31/33/1 44/28/1 80/27/1
f 69/22/1 24/45/1 49/46/1 81/47/1
f 81/47/1 49/46/1 50/48/1 82/49/1
f 82/49/1 50/48/1 51/32/1 83/31/1
f 73/21/1 52/24/1 53/50/1 70/51/1
f 27/52/1 73/21/1 70/51/1 26/53/1
f 47/54/1 82/49/1 83/31/1 46/55/1
f 48/56/1 81/47/1 82/49/1 47/54/1
f 25/23/1 69/22/1 81/47/1 48/56/1
f 30/57/1 72/34/1 80/27/1 45/58/1
f 39/59/1 78/44/1 79/25/1 38/60/1
f 40/61/1 77/42/1 78/44/1 39/59/1
f 41/62/1 76/40/1 77/42/1 40/61/1
f 42/63/1 75/38/1 76/40/1 41/62/1
f 43/64/1 74/36/1 75/38/1 42/63/1
f 29/65/1 71/30/1 74/36/1 43/64/1
f 46/55/1 83/31/1 72/34/1 30/57/1
f 45/58/1 80/27/1 71/30/1 29/65/1
f 38/60/1 79/25/1 56/6/1 4/66/1
f 27/52/1 24/45/1 69/22/1 73/21/1
f 22/67/1 21/68/1 68/69/1 67/70/1
f 23/71/1 22/67/1 67/70/1 66/72/1
f 2/3/1 23/71/1 66/72/1 54/4/1
f 7/73/1 20/74/1 65/75/1 58/76/1
f 15/77/1 14/78/1 64/5/1 63/19/1
f 16/79/1 15/77/1 63/19/1 62/17/1
f 17/80/1 16/79/1 62/17/1 61/15/1
f 18/81/1 17/80/1 61/15/1 60/13/1
f 19/82/1 18/81/1 60/13/1 59/10/1
f 6/83/1 19/82/1 59/10/1 57/9/1
f 21/68/1 7/73/1 58/76/1 68/69/1
f 20/74/1 6/83/1 57/9/1 65/75/1
f 14/78/1 4/66/1 56/6/1 64/5/1
f 138/84/2 137/85/2 85/86/2 84/87/2
f 147/88/2 96/89/2 86/90/2 139/91/2
f 140/92/2 88/93/2 91/94/2 142/95/2
f 142/95/2 91/94/2 92/96/2 143/97/2
f 143/97/2 92/96/2 93/98/2 144/99/2
f 144/99/2 93/98/2 94/100/2 145/101/2
f 145/101/2 94/100/2 95/102/2 146/103/2
f 146/103/2 95/102/2 96/89/2 147/88/2
f 156/104/2 135/105/2 108/106/2 152/107/2
f 162/108/2 139/91/2 86/90/2 120/109/2
f 163/110/2 154/111/2 111/112/2 127/113/2
f 166/114/2 155/115/2 114/116/2 134/117/2
f 154/111/2 157/118/2 115/119/2 111/112/2
f 157/118/2 158/120/2 116/121/2 115/119/2
f 158/120/2 159/122/2 117/123/2 116/121/2
f 159/122/2 160/124/2 118/125/2 117/123/2
f 160/124/2 161/126/2 119/127/2 118/125/2
f 161/126/2 162/108/2 120/109/2 119/127/2
f 155/115/2 163/110/2 127/113/2 114/116/2
f 152/107/2 164/128/2 132/129/2 107/130/2
f 164/128/2 165/131/2 133/132/2 132/129/2
f 165/131/2 166/114/2 134/117/2 133/132/2
f 156/104/2 153/133/2 136/134/2 135/105/2
f 110/135/2 109/136/2 153/133/2 156/104/2
f 130/137/2 129/138/2 166/114/2 165/131/2
f 131/139/2 130/137/2 165/131/2 164/128/2
f 108/106/2 131/139/2 164/128/2 152/107/2
f 113/140/2 128/141/2 163/110/2 155/115/2
f 122/142/2 121/143/2 162/108/2 161/126/2
f 123/144/2 122/142/2 161/126/2 160/124/2
f 124/145/2 123/144/2 160/124/2 159/122/2
f 125/146/2 124/145/2 159/122/2 158/120/2
f 126/147/2 125/146/2 158/120/2 157/118/2
f 112/148/2 126/147/2 157/118/2 154/111/2
f 129/138/2 113/140/2 155/115/2 166/114/2
f 128/141/2 112/148/2 154/111/2 163/110/2
f 121/143/2 87/149/2 139/91/2 162/108/2
f 110/135/2 156/104/2 152/107/2 107/130/2
f 105/150/2 150/151/2 151/152/2 104/153/2
f 106/154/2 149/155/2 150/151/2 105/150/2
f 85/86/2 137/85/2 149/155/2 106/154/2
f 90/156/2 141/157/2 148/158/2 103/159/2
f 98/160/2 146/103/2 147/88/2 97/161/2
f 99/162/2 145/101/2 146/103/2 98/160/2
f 100/163/2 144/99/2 145/101/2 99/162/2
f 101/164/2 143/97/2 144/99/2 100/163/2
f 102/165/2 142/95/2 143/97/2 101/164/2
f 89/166/2 140/92/2 142/95/2 102/165/2
f 104/153/2 151/152/2 141/157/2 90/156/2
f 103/159/2 148/158/2 140/92/2 89/166/2
f 97/161/2 147/88/2 139/91/2 87/149/2
g onda_end1_Plane.006_tyl
usemtl tyl
f 54/4/3 137/85/3 138/84/3 55/1/3
f 3/7/3 86/90/3 96/89/3 13/8/3
f 5/12/4 88/93/4 140/92/4 57/9/4
f 8/11/3 91/94/3 88/93/3 5/12/3
f 9/14/3 92/96/3 91/94/3 8/11/3
f 31/33/3 114/116/3 127/113/3 44/28/3
f 26/53/3 109/136/3 110/135/3 27/52/3
f 10/16/3 93/98/3 92/96/3 9/14/3
f 11/18/3 94/100/3 93/98/3 10/16/3
f 44/28/3 127/113/3 111/112/3 28/29/3
f 12/20/3 95/102/3 94/100/3 11/18/3
f 13/8/3 96/89/3 95/102/3 12/20/3
f 68/69/3 151/152/3 150/151/3 67/70/3
f 67/70/3 150/151/3 149/155/3 66/72/3
f 66/72/3 149/155/3 137/85/3 54/4/3
f 24/45/3 107/130/3 132/129/3 49/46/3
f 51/32/3 134/117/3 114/116/3 31/33/3
f 65/75/3 148/158/3 141/157/3 58/76/3
f 49/46/3 132/129/3 133/132/3 50/48/3
f 50/48/3 133/132/3 134/117/3 51/32/3
f 28/29/3 111/112/3 115/119/3 32/35/3
f 32/35/3 115/119/3 116/121/3 33/37/3
f 33/37/3 116/121/3 117/123/3 34/39/3
f 34/39/3 117/123/3 118/125/3 35/41/3
f 37/26/3 120/109/3 86/90/3 3/7/3
f 35/41/3 118/125/3 119/127/3 36/43/3
f 36/43/3 119/127/3 120/109/3 37/26/3
f 58/76/3 141/157/3 151/152/3 68/69/3
f 57/9/3 140/92/3 148/158/3 65/75/3
f 27/52/3 110/135/3 107/130/3 24/45/3
g onda_end1_Plane.006_front
usemtl front
f 25/23/5 108/106/5 135/105/5 52/24/5
f 39/59/6 122/142/6 123/144/6 40/61/6
f 20/74/7 103/159/7 89/166/7 6/83/7
f 1/2/5 84/87/5 85/86/5 2/3/5
f 55/1/4 138/84/4 84/87/4 1/2/4
f 40/61/8 123/144/8 124/145/8 41/62/8
f 41/62/9 124/145/9 125/146/9 42/63/9
f 21/68/10 104/153/10 90/156/10 7/73/10
f 42/63/11 125/146/11 126/147/11 43/64/11
f 22/67/12 105/150/12 104/153/12 21/68/12
f 2/3/13 85/86/13 106/154/13 23/71/13
f 23/71/14 106/154/14 105/150/14 22/67/14
f 6/83/15 89/166/15 102/165/15 19/82/15
f 7/73/16 90/156/16 103/159/16 20/74/16
f 53/50/17 136/134/17 153/133/17 70/51/17
f 70/51/17 153/133/17 109/136/17 26/53/17
f 29/65/18 112/148/18 128/141/18 45/58/18
f 48/56/19 131/139/19 108/106/19 25/23/19
f 30/57/20 113/140/20 129/138/20 46/55/20
f 43/64/21 126/147/21 112/148/21 29/65/21
f 46/55/22 129/138/22 130/137/22 47/54/22
f 14/78/5 97/161/5 87/149/5 4/66/5
f 47/54/23 130/137/23 131/139/23 48/56/23
f 45/58/24 128/141/24 113/140/24 30/57/24
f 15/77/25 98/160/25 97/161/25 14/78/25
f 16/79/26 99/162/26 98/160/26 15/77/26
f 17/80/27 100/163/27 99/162/27 16/79/27
f 18/81/28 101/164/28 100/163/28 17/80/28
f 19/82/29 102/165/29 101/164/29 18/81/29
f 4/66/5 87/149/5 121/143/5 38/60/5
f 52/24/5 135/105/5 136/134/5 53/50/5
f 38/60/30 121/143/30 122/142/30 39/59/30
