# Blender v3.2.0 OBJ File: 'panele.blend'
# www.blender.org
mtllib onda_end1.mtl
o onda_end2_Plane.007
v -0.116051 0.000000 0.006350
v -0.116051 0.000000 -0.006350
v -0.111594 0.000000 0.006350
v -0.113730 0.000000 0.006350
v -0.113730 0.000000 -0.006350
v -0.111594 0.000000 -0.006350
v -0.099791 0.000000 0.005400
v -0.099791 0.000000 -0.001650
v -0.105763 0.000000 0.005400
v -0.105763 0.000000 -0.002676
v -0.108092 0.000000 -0.003743
v -0.108092 0.000000 0.005914
v -0.104910 0.000000 0.005400
v -0.104057 0.000000 0.005400
v -0.103204 0.000000 0.005400
v -0.102350 0.000000 0.005400
v -0.101497 0.000000 0.005400
v -0.100644 0.000000 0.005400
v -0.100644 0.000000 -0.001650
v -0.101497 0.000000 -0.001716
v -0.102350 0.000000 -0.001829
v -0.103204 0.000000 -0.001978
v -0.104057 0.000000 -0.002178
v -0.104910 0.000000 -0.002399
v -0.106928 0.000000 0.005400
v -0.106928 0.000000 -0.003163
v -0.108968 0.000000 -0.004271
v -0.109843 0.000000 -0.004839
v -0.110719 0.000000 -0.005574
v -0.110719 0.000000 0.006350
v -0.109843 0.000000 0.006350
v -0.108968 0.000000 0.006350
v -0.085739 0.000000 0.006350
v -0.087987 0.000000 0.006350
v -0.085739 0.000000 -0.006350
v -0.087987 0.000000 -0.006350
v -0.093818 0.000000 0.005400
v -0.093818 0.000000 -0.002676
v -0.091802 0.000000 -0.003592
v -0.091802 0.000000 0.005400
v -0.094671 0.000000 0.005400
v -0.095524 0.000000 0.005400
v -0.096378 0.000000 0.005400
v -0.097231 0.000000 0.005400
v -0.098084 0.000000 0.005400
v -0.098937 0.000000 0.005400
v -0.098937 0.000000 -0.001650
v -0.098084 0.000000 -0.001716
v -0.097231 0.000000 -0.001829
v -0.096378 0.000000 -0.001978
v -0.095524 0.000000 -0.002178
v -0.094671 0.000000 -0.002399
v -0.092922 0.000000 0.005400
v -0.092922 0.000000 -0.003050
v -0.090614 0.000000 -0.004271
v -0.089738 0.000000 -0.004839
v -0.088863 0.000000 -0.005574
v -0.088863 0.000000 0.006350
v -0.089738 0.000000 0.006350
v -0.090614 0.000000 0.005992
v -0.078051 0.000000 0.001697
v -0.078051 0.000000 0.006350
v -0.116051 0.000000 0.001361
v -0.111594 0.000000 0.001361
v -0.113730 0.000000 0.001361
v -0.099791 0.000000 0.001361
v -0.105763 0.000000 0.001361
v -0.108092 0.000000 0.001361
v -0.104910 0.000000 0.001361
v -0.104057 0.000000 0.001361
v -0.103204 0.000000 0.001361
v -0.102350 0.000000 0.001361
v -0.101497 0.000000 0.001361
v -0.100644 0.000000 0.001361
v -0.106928 0.000000 0.001361
v -0.110719 0.000000 0.001361
v -0.109843 0.000000 0.001361
v -0.108968 0.000000 0.001361
v -0.085739 0.000000 0.001697
v -0.087987 0.000000 0.001361
v -0.093818 0.000000 0.001361
v -0.091802 0.000000 0.001361
v -0.094671 0.000000 0.001361
v -0.095524 0.000000 0.001361
v -0.096378 0.000000 0.001361
v -0.097231 0.000000 0.001361
v -0.098084 0.000000 0.001361
v -0.098937 0.000000 0.001361
v -0.092922 0.000000 0.001361
v -0.088863 0.000000 0.001361
v -0.089738 0.000000 0.001361
v -0.090614 0.000000 0.001361
v -0.116051 2.700000 0.006350
v -0.116051 2.700000 -0.006350
v -0.111594 2.700000 0.006350
v -0.113730 2.700000 0.006350
v -0.113730 2.700000 -0.006350
v -0.111594 2.700000 -0.006350
v -0.099791 2.700000 0.005400
v -0.099791 2.700000 -0.001650
v -0.105763 2.700000 0.005400
v -0.105763 2.700000 -0.002676
v -0.108092 2.700000 -0.003743
v -0.108092 2.700000 0.005914
v -0.104910 2.700000 0.005400
v -0.104057 2.700000 0.005400
v -0.103204 2.700000 0.005400
v -0.102350 2.700000 0.005400
v -0.101497 2.700000 0.005400
v -0.100644 2.700000 0.005400
v -0.100644 2.700000 -0.001650
v -0.101497 2.700000 -0.001716
v -0.102350 2.700000 -0.001829
v -0.103204 2.700000 -0.001978
v -0.104057 2.700000 -0.002178
v -0.104910 2.700000 -0.002399
v -0.106928 2.700000 0.005400
v -0.106928 2.700000 -0.003163
v -0.108968 2.700000 -0.004271
v -0.109843 2.700000 -0.004839
v -0.110719 2.700000 -0.005574
v -0.110719 2.700000 0.006350
v -0.109843 2.700000 0.006350
v -0.108968 2.700000 0.006350
v -0.085739 2.700000 0.006350
v -0.087987 2.700000 0.006350
v -0.085739 2.700000 -0.006350
v -0.087987 2.700000 -0.006350
v -0.093818 2.700000 0.005400
v -0.093818 2.700000 -0.002676
v -0.091802 2.700000 -0.003592
v -0.091802 2.700000 0.005400
v -0.094671 2.700000 0.005400
v -0.095524 2.700000 0.005400
v -0.096378 2.700000 0.005400
v -0.097231 2.700000 0.005400
v -0.098084 2.700000 0.005400
v -0.098937 2.700000 0.005400
v -0.098937 2.700000 -0.001650
v -0.098084 2.700000 -0.001716
v -0.097231 2.700000 -0.001829
v -0.096378 2.700000 -0.001978
v -0.095524 2.700000 -0.002178
v -0.094671 2.700000 -0.002399
v -0.092922 2.700000 0.005400
v -0.092922 2.700000 -0.003050
v -0.090614 2.700000 -0.004271
v -0.089738 2.700000 -0.004839
v -0.088863 2.700000 -0.005574
v -0.088863 2.700000 0.006350
v -0.089738 2.700000 0.006350
v -0.090614 2.700000 0.005992
v -0.078051 2.700000 0.001697
v -0.078051 2.700000 0.006350
v -0.116051 2.700000 0.001361
v -0.111594 2.700000 0.001361
v -0.113730 2.700000 0.001361
v -0.099791 2.700000 0.001361
v -0.105763 2.700000 0.001361
v -0.108092 2.700000 0.001361
v -0.104910 2.700000 0.001361
v -0.104057 2.700000 0.001361
v -0.103204 2.700000 0.001361
v -0.102350 2.700000 0.001361
v -0.101497 2.700000 0.001361
v -0.100644 2.700000 0.001361
v -0.106928 2.700000 0.001361
v -0.110719 2.700000 0.001361
v -0.109843 2.700000 0.001361
v -0.108968 2.700000 0.001361
v -0.085739 2.700000 0.001697
v -0.087987 2.700000 0.001361
v -0.093818 2.700000 0.001361
v -0.091802 2.700000 0.001361
v -0.094671 2.700000 0.001361
v -0.095524 2.700000 0.001361
v -0.096378 2.700000 0.001361
v -0.097231 2.700000 0.001361
v -0.098084 2.700000 0.001361
v -0.098937 2.700000 0.001361
v -0.092922 2.700000 0.001361
v -0.088863 2.700000 0.001361
v -0.089738 2.700000 0.001361
v -0.090614 2.700000 0.001361
vt 0.000000 0.500000
vt 1.000000 0.500000
vt 1.000000 1.000000
vt 0.000000 1.000000
vt 1.000000 1.000000
vt 1.000000 0.500000
vt 1.000000 0.500000
vt 1.000000 0.500000
vt 1.000000 0.000000
vt 1.000000 0.000000
vt 1.000000 0.500000
vt 1.000000 0.500000
vt 1.000000 0.000000
vt 1.000000 0.000000
vt 1.000000 0.500000
vt 1.000000 0.500000
vt 1.000000 0.000000
vt 1.000000 0.000000
vt 1.000000 0.500000
vt 1.000000 0.000000
vt 1.000000 0.500000
vt 1.000000 0.000000
vt 1.000000 0.500000
vt 1.000000 0.000000
vt 1.000000 0.500000
vt 1.000000 0.000000
vt 1.000000 0.500000
vt 1.000000 0.000000
vt 1.000000 0.500000
vt 1.000000 0.000000
vt 1.000000 0.000000
vt 1.000000 0.500000
vt 1.000000 0.000000
vt 0.000000 0.500000
vt 1.000000 0.500000
vt 1.000000 1.000000
vt 0.000000 1.000000
vt 1.000000 0.500000
vt 1.000000 0.000000
vt 1.000000 0.500000
vt 1.000000 0.000000
vt 1.000000 0.000000
vt 1.000000 0.500000
vt 1.000000 0.500000
vt 1.000000 0.000000
vt 1.000000 0.000000
vt 1.000000 0.500000
vt 1.000000 0.000000
vt 1.000000 0.500000
vt 1.000000 0.000000
vt 1.000000 0.500000
vt 1.000000 0.000000
vt 1.000000 0.500000
vt 1.000000 0.000000
vt 1.000000 0.500000
vt 1.000000 0.000000
vt 1.000000 0.500000
vt 1.000000 0.000000
vt 1.000000 0.000000
vt 1.000000 0.500000
vt 1.000000 0.000000
vt 1.000000 0.500000
vt 0.000000 0.000000
vt 0.000000 0.500000
vt 0.000000 0.000000
vt 1.000000 1.000000
vt 1.000000 1.000000
vt 1.000000 1.000000
vt 1.000000 1.000000
vt 1.000000 1.000000
vt 1.000000 1.000000
vt 1.000000 1.000000
vt 1.000000 1.000000
vt 1.000000 1.000000
vt 1.000000 1.000000
vt 1.000000 1.000000
vt 1.000000 1.000000
vt 1.000000 1.000000
vt 1.000000 1.000000
vt 1.000000 1.000000
vt 1.000000 1.000000
vt 1.000000 1.000000
vt 1.000000 1.000000
vt 1.000000 1.000000
vt 1.000000 1.000000
vt 1.000000 1.000000
vt 1.000000 1.000000
vt 1.000000 1.000000
vt 1.000000 1.000000
vt 1.000000 1.000000
vt 0.000000 0.000000
vt 1.000000 0.000000
vt 0.000000 0.500000
vt 0.000000 1.000000
vt 1.000000 1.000000
vt 1.000000 0.500000
vt 1.000000 0.500000
vt 1.000000 1.000000
vt 1.000000 0.500000
vt 1.000000 0.000000
vt 1.000000 0.000000
vt 1.000000 0.500000
vt 1.000000 0.500000
vt 1.000000 0.000000
vt 1.000000 0.000000
vt 1.000000 0.500000
vt 1.000000 0.500000
vt 1.000000 0.000000
vt 1.000000 0.000000
vt 1.000000 0.500000
vt 1.000000 0.000000
vt 1.000000 0.500000
vt 1.000000 0.000000
vt 1.000000 0.500000
vt 1.000000 0.000000
vt 1.000000 0.500000
vt 1.000000 0.000000
vt 1.000000 0.500000
vt 1.000000 0.000000
vt 1.000000 0.500000
vt 1.000000 0.000000
vt 1.000000 0.000000
vt 1.000000 0.500000
vt 1.000000 0.000000
vt 1.000000 0.500000
vt 0.000000 0.500000
vt 0.000000 1.000000
vt 1.000000 1.000000
vt 1.000000 0.500000
vt 1.000000 0.500000
vt 1.000000 0.000000
vt 1.000000 0.500000
vt 1.000000 0.500000
vt 1.000000 0.000000
vt 1.000000 0.000000
vt 1.000000 0.500000
vt 1.000000 0.500000
vt 1.000000 0.000000
vt 1.000000 0.000000
vt 1.000000 0.500000
vt 1.000000 0.000000
vt 1.000000 0.500000
vt 1.000000 0.000000
vt 1.000000 0.500000
vt 1.000000 0.000000
vt 1.000000 0.500000
vt 1.000000 0.000000
vt 1.000000 0.500000
vt 1.000000 0.000000
vt 1.000000 0.500000
vt 1.000000 0.000000
vt 1.000000 0.000000
vt 1.000000 0.500000
vt 1.000000 0.000000
vt 0.000000 0.000000
vt 0.000000 0.000000
vt 0.000000 0.500000
vt 1.000000 1.000000
vt 1.000000 1.000000
vt 1.000000 1.000000
vt 1.000000 1.000000
vt 1.000000 1.000000
vt 1.000000 1.000000
vt 1.000000 1.000000
vt 1.000000 1.000000
vt 1.000000 1.000000
vt 1.000000 1.000000
vt 1.000000 1.000000
vt 1.000000 1.000000
vt 1.000000 1.000000
vt 1.000000 1.000000
vt 1.000000 1.000000
vt 1.000000 1.000000
vt 1.000000 1.000000
vt 1.000000 1.000000
vt 1.000000 1.000000
vt 1.000000 1.000000
vt 1.000000 1.000000
vt 1.000000 1.000000
vt 1.000000 1.000000
vt 1.000000 1.000000
vt 1.000000 1.000000
vt 0.000000 0.000000
vt 1.000000 0.000000
vn 0.0000 -1.0000 0.0000
vn 0.0000 1.0000 0.0000
vn 0.0000 0.0000 1.0000
vn 0.4041 0.0000 0.9147
vn 0.4455 0.0000 0.8953
vn -0.4455 0.0000 0.8953
vn -0.3789 0.0000 0.9254
vn 0.0000 0.0000 -1.0000
vn 0.3861 0.0000 -0.9225
vn 0.6634 0.0000 -0.7483
vn -0.0767 0.0000 -0.9971
vn 0.5158 0.0000 -0.8567
vn 0.3081 0.0000 -0.9514
vn -0.1316 0.0000 -0.9913
vn 0.5447 0.0000 -0.8386
vn -1.0000 0.0000 0.0000
vn -0.1715 0.0000 -0.9852
vn 0.6428 0.0000 -0.7660
vn 0.4463 0.0000 -0.8949
vn -0.2286 0.0000 -0.9735
vn -0.2509 0.0000 -0.9680
vn 1.0000 0.0000 0.0000
vn -0.3861 0.0000 -0.9225
vn 0.0767 0.0000 -0.9971
vn -0.6634 0.0000 -0.7483
vn 0.1316 0.0000 -0.9913
vn -0.4958 0.0000 -0.8684
vn 0.1715 0.0000 -0.9852
vn -0.5447 0.0000 -0.8386
vn -0.3081 0.0000 -0.9514
vn 0.2286 0.0000 -0.9735
vn -0.6428 0.0000 -0.7660
vn 0.2509 0.0000 -0.9680
vn -0.4354 0.0000 -0.9002
g onda_end2_Plane.007_gora_dol
usemtl gora_dol
s off
f 65/1/1 63/2/1 2/3/1 5/4/1
f 65/1/1 5/4/1 6/5/1 64/6/1
f 74/7/1 66/8/1 7/9/1 18/10/1
f 75/11/1 67/12/1 9/13/1 25/14/1
f 78/15/1 68/16/1 12/17/1 32/18/1
f 67/12/1 69/19/1 13/20/1 9/13/1
f 69/19/1 70/21/1 14/22/1 13/20/1
f 70/21/1 71/23/1 15/24/1 14/22/1
f 71/23/1 72/25/1 16/26/1 15/24/1
f 72/25/1 73/27/1 17/28/1 16/26/1
f 73/27/1 74/7/1 18/10/1 17/28/1
f 68/16/1 75/11/1 25/14/1 12/17/1
f 64/6/1 76/29/1 30/30/1 3/31/1
f 76/29/1 77/32/1 31/33/1 30/30/1
f 77/32/1 78/15/1 32/18/1 31/33/1
f 79/34/1 80/35/1 36/36/1 35/37/1
f 88/38/1 46/39/1 7/9/1 66/8/1
f 89/40/1 53/41/1 37/42/1 81/43/1
f 92/44/1 60/45/1 40/46/1 82/47/1
f 81/43/1 37/42/1 41/48/1 83/49/1
f 83/49/1 41/48/1 42/50/1 84/51/1
f 84/51/1 42/50/1 43/52/1 85/53/1
f 85/53/1 43/52/1 44/54/1 86/55/1
f 86/55/1 44/54/1 45/56/1 87/57/1
f 87/57/1 45/56/1 46/39/1 88/38/1
f 82/47/1 40/46/1 53/41/1 89/40/1
f 80/35/1 34/58/1 58/59/1 90/60/1
f 90/60/1 58/59/1 59/61/1 91/62/1
f 91/62/1 59/61/1 60/45/1 92/44/1
f 33/63/1 79/34/1 61/64/1 62/65/1
f 56/66/1 91/62/1 92/44/1 55/67/1
f 57/68/1 90/60/1 91/62/1 56/66/1
f 36/36/1 80/35/1 90/60/1 57/68/1
f 39/69/1 82/47/1 89/40/1 54/70/1
f 48/71/1 87/57/1 88/38/1 47/72/1
f 49/73/1 86/55/1 87/57/1 48/71/1
f 50/74/1 85/53/1 86/55/1 49/73/1
f 51/75/1 84/51/1 85/53/1 50/74/1
f 52/76/1 83/49/1 84/51/1 51/75/1
f 38/77/1 81/43/1 83/49/1 52/76/1
f 55/67/1 92/44/1 82/47/1 39/69/1
f 54/70/1 89/40/1 81/43/1 38/77/1
f 47/72/1 88/38/1 66/8/1 8/78/1
f 33/63/1 34/58/1 80/35/1 79/34/1
f 28/79/1 27/80/1 78/15/1 77/32/1
f 29/81/1 28/79/1 77/32/1 76/29/1
f 6/5/1 29/81/1 76/29/1 64/6/1
f 11/82/1 26/83/1 75/11/1 68/16/1
f 20/84/1 19/85/1 74/7/1 73/27/1
f 21/86/1 20/84/1 73/27/1 72/25/1
f 22/87/1 21/86/1 72/25/1 71/23/1
f 23/88/1 22/87/1 71/23/1 70/21/1
f 24/89/1 23/88/1 70/21/1 69/19/1
f 10/90/1 24/89/1 69/19/1 67/12/1
f 27/80/1 11/82/1 68/16/1 78/15/1
f 26/83/1 10/90/1 67/12/1 75/11/1
f 19/85/1 8/78/1 66/8/1 74/7/1
f 4/91/1 65/1/1 64/6/1 3/31/1
f 4/91/1 1/92/1 63/2/1 65/1/1
f 157/93/2 97/94/2 94/95/2 155/96/2
f 157/93/2 156/97/2 98/98/2 97/94/2
f 166/99/2 110/100/2 99/101/2 158/102/2
f 167/103/2 117/104/2 101/105/2 159/106/2
f 170/107/2 124/108/2 104/109/2 160/110/2
f 159/106/2 101/105/2 105/111/2 161/112/2
f 161/112/2 105/111/2 106/113/2 162/114/2
f 162/114/2 106/113/2 107/115/2 163/116/2
f 163/116/2 107/115/2 108/117/2 164/118/2
f 164/118/2 108/117/2 109/119/2 165/120/2
f 165/120/2 109/119/2 110/100/2 166/99/2
f 160/110/2 104/109/2 117/104/2 167/103/2
f 156/97/2 95/121/2 122/122/2 168/123/2
f 168/123/2 122/122/2 123/124/2 169/125/2
f 169/125/2 123/124/2 124/108/2 170/107/2
f 171/126/2 127/127/2 128/128/2 172/129/2
f 180/130/2 158/102/2 99/101/2 138/131/2
f 181/132/2 173/133/2 129/134/2 145/135/2
f 184/136/2 174/137/2 132/138/2 152/139/2
f 173/133/2 175/140/2 133/141/2 129/134/2
f 175/140/2 176/142/2 134/143/2 133/141/2
f 176/142/2 177/144/2 135/145/2 134/143/2
f 177/144/2 178/146/2 136/147/2 135/145/2
f 178/146/2 179/148/2 137/149/2 136/147/2
f 179/148/2 180/130/2 138/131/2 137/149/2
f 174/137/2 181/132/2 145/135/2 132/138/2
f 172/129/2 182/150/2 150/151/2 126/152/2
f 182/150/2 183/153/2 151/154/2 150/151/2
f 183/153/2 184/136/2 152/139/2 151/154/2
f 125/155/2 154/156/2 153/157/2 171/126/2
f 148/158/2 147/159/2 184/136/2 183/153/2
f 149/160/2 148/158/2 183/153/2 182/150/2
f 128/128/2 149/160/2 182/150/2 172/129/2
f 131/161/2 146/162/2 181/132/2 174/137/2
f 140/163/2 139/164/2 180/130/2 179/148/2
f 141/165/2 140/163/2 179/148/2 178/146/2
f 142/166/2 141/165/2 178/146/2 177/144/2
f 143/167/2 142/166/2 177/144/2 176/142/2
f 144/168/2 143/167/2 176/142/2 175/140/2
f 130/169/2 144/168/2 175/140/2 173/133/2
f 147/159/2 131/161/2 174/137/2 184/136/2
f 146/162/2 130/169/2 173/133/2 181/132/2
f 139/164/2 100/170/2 158/102/2 180/130/2
f 125/155/2 171/126/2 172/129/2 126/152/2
f 120/171/2 169/125/2 170/107/2 119/172/2
f 121/173/2 168/123/2 169/125/2 120/171/2
f 98/98/2 156/97/2 168/123/2 121/173/2
f 103/174/2 160/110/2 167/103/2 118/175/2
f 112/176/2 165/120/2 166/99/2 111/177/2
f 113/178/2 164/118/2 165/120/2 112/176/2
f 114/179/2 163/116/2 164/118/2 113/178/2
f 115/180/2 162/114/2 163/116/2 114/179/2
f 116/181/2 161/112/2 162/114/2 115/180/2
f 102/182/2 159/106/2 161/112/2 116/181/2
f 119/172/2 170/107/2 160/110/2 103/174/2
f 118/175/2 167/103/2 159/106/2 102/182/2
f 111/177/2 166/99/2 158/102/2 100/170/2
f 96/183/2 95/121/2 156/97/2 157/93/2
f 96/183/2 157/93/2 155/96/2 93/184/2
g onda_end2_Plane.007_tyl
usemtl tyl
f 41/48/3 133/141/3 134/143/3 42/50/3
f 42/50/3 134/143/3 135/145/3 43/52/3
f 46/39/3 138/131/3 99/101/3 7/9/3
f 43/52/3 135/145/3 136/147/3 44/54/3
f 25/14/4 117/104/4 104/109/4 12/17/4
f 7/9/3 99/101/3 110/100/3 18/10/3
f 44/54/3 136/147/3 137/149/3 45/56/3
f 4/91/3 96/183/3 93/184/3 1/92/3
f 45/56/3 137/149/3 138/131/3 46/39/3
f 9/13/3 101/105/3 117/104/3 25/14/3
f 30/30/3 122/122/3 95/121/3 3/31/3
f 12/17/5 104/109/5 124/108/5 32/18/5
f 31/33/3 123/124/3 122/122/3 30/30/3
f 32/18/3 124/108/3 123/124/3 31/33/3
f 13/20/3 105/111/3 101/105/3 9/13/3
f 62/65/3 154/156/3 125/155/3 33/63/3
f 14/22/3 106/113/3 105/111/3 13/20/3
f 15/24/3 107/115/3 106/113/3 14/22/3
f 16/26/3 108/117/3 107/115/3 15/24/3
f 17/28/3 109/119/3 108/117/3 16/26/3
f 33/63/3 125/155/3 126/152/3 34/58/3
f 18/10/3 110/100/3 109/119/3 17/28/3
f 40/46/3 132/138/3 145/135/3 53/41/3
f 53/41/3 145/135/3 129/134/3 37/42/3
f 34/58/3 126/152/3 150/151/3 58/59/3
f 58/59/3 150/151/3 151/154/3 59/61/3
f 60/45/6 152/139/6 132/138/6 40/46/6
f 59/61/7 151/154/7 152/139/7 60/45/7
f 3/31/3 95/121/3 96/183/3 4/91/3
f 37/42/3 129/134/3 133/141/3 41/48/3
g onda_end2_Plane.007_front
usemtl front
f 5/4/8 97/94/8 98/98/8 6/5/8
f 8/78/8 100/170/8 139/164/8 47/72/8
f 26/83/9 118/175/9 102/182/9 10/90/9
f 6/5/10 98/98/10 121/173/10 29/81/10
f 2/3/8 94/95/8 97/94/8 5/4/8
f 47/72/11 139/164/11 140/163/11 48/71/11
f 27/80/12 119/172/12 103/174/12 11/82/12
f 10/90/13 102/182/13 116/181/13 24/89/13
f 79/34/8 171/126/8 153/157/8 61/64/8
f 48/71/14 140/163/14 141/165/14 49/73/14
f 28/79/15 120/171/15 119/172/15 27/80/15
f 1/92/16 93/184/16 155/96/16 63/2/16
f 49/73/17 141/165/17 142/166/17 50/74/17
f 29/81/18 121/173/18 120/171/18 28/79/18
f 11/82/19 103/174/19 118/175/19 26/83/19
f 50/74/20 142/166/20 143/167/20 51/75/20
f 51/75/21 143/167/21 144/168/21 52/76/21
f 61/64/22 153/157/22 154/156/22 62/65/22
f 35/37/22 127/127/22 171/126/22 79/34/22
f 19/85/8 111/177/8 100/170/8 8/78/8
f 38/77/23 130/169/23 146/162/23 54/70/23
f 36/36/8 128/128/8 127/127/8 35/37/8
f 20/84/24 112/176/24 111/177/24 19/85/24
f 57/68/25 149/160/25 128/128/25 36/36/25
f 21/86/26 113/178/26 112/176/26 20/84/26
f 39/69/27 131/161/27 147/159/27 55/67/27
f 22/87/28 114/179/28 113/178/28 21/86/28
f 55/67/29 147/159/29 148/158/29 56/66/29
f 52/76/30 144/168/30 130/169/30 38/77/30
f 23/88/31 115/180/31 114/179/31 22/87/31
f 56/66/32 148/158/32 149/160/32 57/68/32
f 24/89/33 116/181/33 115/180/33 23/88/33
f 54/70/34 146/162/34 131/161/34 39/69/34
f 63/2/16 155/96/16 94/95/16 2/3/16
