# Blender v3.2.0 OBJ File: 'panele.blend'
# www.blender.org
mtllib onda_main.mtl
o onda_main_Plane.004
v -0.004358 0.000000 0.005400
v -0.002364 0.000000 0.005400
v 0.009463 0.000000 0.001361
v -0.002364 0.000000 -0.006350
v 0.009463 0.000000 0.006350
v 0.009463 0.000000 -0.001650
v 0.003478 0.000000 0.006350
v 0.003478 0.000000 -0.002676
v 0.001145 0.000000 -0.003743
v 0.001145 0.000000 0.005400
v 0.004333 0.000000 0.006350
v 0.005188 0.000000 0.006350
v 0.006043 0.000000 0.006350
v 0.006898 0.000000 0.006350
v 0.007753 0.000000 0.006350
v 0.008608 0.000000 0.006350
v 0.008608 0.000000 -0.001650
v 0.007753 0.000000 -0.001716
v 0.006898 0.000000 -0.001829
v 0.006043 0.000000 -0.001978
v 0.005188 0.000000 -0.002178
v 0.004333 0.000000 -0.002399
v 0.002312 0.000000 0.005875
v 0.002312 0.000000 -0.003163
v 0.000268 0.000000 -0.004271
v -0.000609 0.000000 -0.004839
v -0.001486 0.000000 -0.005574
v -0.001486 0.000000 0.005400
v -0.000609 0.000000 0.005400
v 0.000268 0.000000 0.005400
v 0.021289 0.000000 0.005400
v 0.021289 0.000000 -0.006350
v 0.025755 0.000000 0.005400
v 0.023614 0.000000 0.005400
v 0.015447 0.000000 0.006350
v 0.015447 0.000000 -0.002676
v 0.017467 0.000000 -0.003592
v 0.017467 0.000000 0.005888
v 0.014592 0.000000 0.006350
v 0.013737 0.000000 0.006350
v 0.012883 0.000000 0.006350
v 0.012028 0.000000 0.006350
v 0.011173 0.000000 0.006350
v 0.010318 0.000000 0.006350
v 0.010318 0.000000 -0.001650
v 0.011173 0.000000 -0.001716
v 0.012028 0.000000 -0.001829
v 0.012883 0.000000 -0.001978
v 0.013737 0.000000 -0.002178
v 0.014592 0.000000 -0.002399
v 0.016344 0.000000 0.006350
v 0.016344 0.000000 -0.003050
v 0.018658 0.000000 -0.004271
v 0.019535 0.000000 -0.004839
v 0.020412 0.000000 -0.005574
v 0.020412 0.000000 0.005400
v 0.019535 0.000000 0.005400
v 0.018658 0.000000 0.005400
v 0.023614 0.000000 -0.006350
v 0.025755 0.000000 -0.006350
v 0.037581 0.000000 0.005400
v 0.037581 0.000000 -0.001650
v 0.031597 0.000000 0.005400
v 0.031597 0.000000 -0.002676
v 0.029263 0.000000 -0.003743
v 0.029263 0.000000 0.005400
v 0.032451 0.000000 0.005400
v 0.033306 0.000000 0.005400
v 0.034161 0.000000 0.005400
v 0.035016 0.000000 0.005400
v 0.035871 0.000000 0.005400
v 0.036726 0.000000 0.005400
v 0.036726 0.000000 -0.001650
v 0.035871 0.000000 -0.001716
v 0.035016 0.000000 -0.001829
v 0.034161 0.000000 -0.001978
v 0.033306 0.000000 -0.002178
v 0.032451 0.000000 -0.002399
v 0.030430 0.000000 0.005400
v 0.030430 0.000000 -0.003163
v 0.028386 0.000000 -0.004271
v 0.027509 0.000000 -0.004839
v 0.026632 0.000000 -0.005574
v 0.026632 0.000000 0.005400
v 0.027509 0.000000 0.005400
v 0.028386 0.000000 0.005400
v 0.051380 0.000000 0.006350
v 0.049407 0.000000 0.006350
v 0.051380 0.000000 -0.006350
v 0.049407 0.000000 -0.006350
v 0.043565 0.000000 0.005400
v 0.043565 0.000000 -0.002676
v 0.045585 0.000000 -0.003592
v 0.045585 0.000000 0.005400
v 0.042711 0.000000 0.005400
v 0.041856 0.000000 0.005400
v 0.041001 0.000000 0.005400
v 0.040146 0.000000 0.005400
v 0.039291 0.000000 0.005400
v 0.038436 0.000000 0.005400
v 0.038436 0.000000 -0.001650
v 0.039291 0.000000 -0.001716
v 0.040146 0.000000 -0.001829
v 0.041001 0.000000 -0.001978
v 0.041856 0.000000 -0.002178
v 0.042711 0.000000 -0.002399
v 0.044463 0.000000 0.005400
v 0.044463 0.000000 -0.003050
v 0.046776 0.000000 -0.004271
v 0.047653 0.000000 -0.004839
v 0.048530 0.000000 -0.005574
v 0.048530 0.000000 0.006350
v 0.047653 0.000000 0.006350
v 0.046776 0.000000 0.005992
v -0.060671 0.000000 -0.006350
v -0.058307 0.000000 -0.006350
v -0.046481 0.000000 0.006350
v -0.046481 0.000000 -0.001650
v -0.052637 0.000000 0.006350
v -0.052637 0.000000 -0.002747
v -0.054798 0.000000 -0.003743
v -0.051610 0.000000 0.006350
v -0.050755 0.000000 0.006350
v -0.049900 0.000000 0.006350
v -0.049045 0.000000 0.006350
v -0.048190 0.000000 0.006350
v -0.047335 0.000000 0.006350
v -0.047335 0.000000 -0.001650
v -0.048190 0.000000 -0.001716
v -0.049045 0.000000 -0.001829
v -0.049900 0.000000 -0.001978
v -0.050755 0.000000 -0.002178
v -0.051610 0.000000 -0.002399
v -0.053632 0.000000 -0.003163
v -0.055675 0.000000 -0.004271
v -0.056553 0.000000 -0.004839
v -0.057430 0.000000 -0.005574
v 0.059363 0.000000 0.001697
v 0.059363 0.000000 0.006350
v -0.034654 0.000000 0.005400
v -0.034654 0.000000 -0.006350
v -0.030189 0.000000 0.005400
v -0.032329 0.000000 0.005400
v -0.040496 0.000000 0.006350
v -0.040496 0.000000 -0.002676
v -0.038477 0.000000 -0.003592
v -0.038477 0.000000 0.005888
v -0.041351 0.000000 0.006350
v -0.042206 0.000000 0.006350
v -0.043061 0.000000 0.006350
v -0.043916 0.000000 0.006350
v -0.044771 0.000000 0.006350
v -0.045626 0.000000 0.006350
v -0.045626 0.000000 -0.001650
v -0.044771 0.000000 -0.001716
v -0.043916 0.000000 -0.001829
v -0.043061 0.000000 -0.001978
v -0.042206 0.000000 -0.002178
v -0.041351 0.000000 -0.002399
v -0.039599 0.000000 0.006350
v -0.039599 0.000000 -0.003050
v -0.037286 0.000000 -0.004271
v -0.036409 0.000000 -0.004839
v -0.035531 0.000000 -0.005574
v -0.035531 0.000000 0.005400
v -0.036409 0.000000 0.005400
v -0.037286 0.000000 0.005400
v -0.032329 0.000000 -0.006350
v -0.030189 0.000000 -0.006350
v -0.018362 0.000000 0.005400
v -0.018362 0.000000 -0.001650
v -0.024347 0.000000 0.005400
v -0.024347 0.000000 -0.002676
v -0.026680 0.000000 -0.003743
v -0.026680 0.000000 0.005400
v -0.023492 0.000000 0.005400
v -0.022637 0.000000 0.005400
v -0.021782 0.000000 0.005400
v -0.020927 0.000000 0.005400
v -0.020072 0.000000 0.005400
v -0.019217 0.000000 0.005400
v -0.019217 0.000000 -0.001650
v -0.020072 0.000000 -0.001716
v -0.020927 0.000000 -0.001829
v -0.021782 0.000000 -0.001978
v -0.022637 0.000000 -0.002178
v -0.023492 0.000000 -0.002399
v -0.025514 0.000000 0.005400
v -0.025514 0.000000 -0.003163
v -0.027557 0.000000 -0.004271
v -0.028434 0.000000 -0.004839
v -0.029312 0.000000 -0.005574
v -0.029312 0.000000 0.005400
v -0.028434 0.000000 0.005400
v -0.027557 0.000000 0.005400
v -0.002364 0.000000 0.001361
v -0.006536 0.000000 0.005400
v -0.004358 0.000000 -0.006350
v -0.006536 0.000000 -0.006350
v -0.012378 0.000000 0.005400
v -0.012378 0.000000 -0.002676
v -0.010359 0.000000 -0.003592
v -0.010359 0.000000 0.005400
v -0.013233 0.000000 0.005400
v -0.014088 0.000000 0.005400
v -0.014943 0.000000 0.005400
v -0.015798 0.000000 0.005400
v -0.016653 0.000000 0.005400
v -0.017508 0.000000 0.005400
v -0.017508 0.000000 -0.001650
v -0.016653 0.000000 -0.001716
v -0.015798 0.000000 -0.001829
v -0.014943 0.000000 -0.001978
v -0.014088 0.000000 -0.002178
v -0.013233 0.000000 -0.002399
v -0.011481 0.000000 0.005400
v -0.011481 0.000000 -0.003050
v -0.009168 0.000000 -0.004271
v -0.008290 0.000000 -0.004839
v -0.007413 0.000000 -0.005574
v -0.007413 0.000000 0.005400
v -0.008290 0.000000 0.005400
v -0.009168 0.000000 0.005400
v 0.003478 0.000000 0.001361
v 0.001145 0.000000 0.001361
v 0.004333 0.000000 0.001361
v 0.005188 0.000000 0.001361
v 0.006043 0.000000 0.001361
v 0.006898 0.000000 0.001361
v 0.007753 0.000000 0.001361
v 0.008608 0.000000 0.001361
v 0.002312 0.000000 0.001361
v -0.001486 0.000000 0.001361
v -0.000609 0.000000 0.001361
v 0.000268 0.000000 0.001361
v -0.058307 0.000000 0.001361
v 0.021289 0.000000 0.001361
v -0.060671 0.000000 0.001361
v 0.025755 0.000000 0.001361
v 0.015447 0.000000 0.001361
v 0.017467 0.000000 0.001361
v 0.023614 0.000000 0.001361
v 0.014592 0.000000 0.001361
v 0.013737 0.000000 0.001361
v 0.012883 0.000000 0.001361
v 0.012028 0.000000 0.001361
v 0.011173 0.000000 0.001361
v 0.010318 0.000000 0.001361
v 0.016344 0.000000 0.001361
v 0.020412 0.000000 0.001361
v 0.019535 0.000000 0.001361
v 0.018658 0.000000 0.001361
v 0.037581 0.000000 0.001361
v 0.031597 0.000000 0.001361
v 0.029263 0.000000 0.001361
v 0.032451 0.000000 0.001361
v 0.033306 0.000000 0.001361
v 0.034161 0.000000 0.001361
v 0.035016 0.000000 0.001361
v 0.035871 0.000000 0.001361
v 0.036726 0.000000 0.001361
v 0.030430 0.000000 0.001361
v 0.026632 0.000000 0.001361
v 0.027509 0.000000 0.001361
v 0.028386 0.000000 0.001361
v 0.051380 0.000000 0.001697
v 0.049407 0.000000 0.001361
v 0.043565 0.000000 0.001361
v 0.045585 0.000000 0.001361
v 0.042711 0.000000 0.001361
v 0.041856 0.000000 0.001361
v 0.041001 0.000000 0.001361
v 0.040146 0.000000 0.001361
v 0.039291 0.000000 0.001361
v 0.038436 0.000000 0.001361
v 0.044463 0.000000 0.001361
v 0.048530 0.000000 0.001361
v 0.047653 0.000000 0.001361
v 0.046776 0.000000 0.001361
v -0.046481 0.000000 0.001361
v -0.052637 0.000000 0.001361
v -0.054798 0.000000 0.001361
v -0.051610 0.000000 0.001361
v -0.050755 0.000000 0.001361
v -0.049900 0.000000 0.001361
v -0.049045 0.000000 0.001361
v -0.048190 0.000000 0.001361
v -0.047335 0.000000 0.001361
v -0.053632 0.000000 0.001361
v -0.057430 0.000000 0.001361
v -0.056553 0.000000 0.001361
v -0.055675 0.000000 0.001361
v -0.034654 0.000000 0.001361
v -0.030189 0.000000 0.001361
v -0.040496 0.000000 0.001361
v -0.038477 0.000000 0.001361
v -0.032329 0.000000 0.001361
v -0.041351 0.000000 0.001361
v -0.042206 0.000000 0.001361
v -0.043061 0.000000 0.001361
v -0.043916 0.000000 0.001361
v -0.044771 0.000000 0.001361
v -0.045626 0.000000 0.001361
v -0.039599 0.000000 0.001361
v -0.035531 0.000000 0.001361
v -0.036409 0.000000 0.001361
v -0.037286 0.000000 0.001361
v -0.018362 0.000000 0.001361
v -0.024347 0.000000 0.001361
v -0.026680 0.000000 0.001361
v -0.023492 0.000000 0.001361
v -0.022637 0.000000 0.001361
v -0.021782 0.000000 0.001361
v -0.020927 0.000000 0.001361
v -0.020072 0.000000 0.001361
v -0.019217 0.000000 0.001361
v -0.025514 0.000000 0.001361
v -0.029312 0.000000 0.001361
v -0.028434 0.000000 0.001361
v -0.027557 0.000000 0.001361
v -0.006536 0.000000 0.001361
v -0.012378 0.000000 0.001361
v -0.010359 0.000000 0.001361
v -0.013233 0.000000 0.001361
v -0.014088 0.000000 0.001361
v -0.014943 0.000000 0.001361
v -0.015798 0.000000 0.001361
v -0.016653 0.000000 0.001361
v -0.017508 0.000000 0.001361
v -0.011481 0.000000 0.001361
v -0.007413 0.000000 0.001361
v -0.008290 0.000000 0.001361
v -0.009168 0.000000 0.001361
v -0.004358 0.000000 0.001361
v -0.004358 2.700000 0.005400
v -0.002364 2.700000 0.005400
v 0.009463 2.700000 0.001361
v -0.002364 2.700000 -0.006350
v 0.009463 2.700000 0.006350
v 0.009463 2.700000 -0.001650
v 0.003478 2.700000 0.006350
v 0.003478 2.700000 -0.002676
v 0.001145 2.700000 -0.003743
v 0.001145 2.700000 0.005400
v 0.004333 2.700000 0.006350
v 0.005188 2.700000 0.006350
v 0.006043 2.700000 0.006350
v 0.006898 2.700000 0.006350
v 0.007753 2.700000 0.006350
v 0.008608 2.700000 0.006350
v 0.008608 2.700000 -0.001650
v 0.007753 2.700000 -0.001716
v 0.006898 2.700000 -0.001829
v 0.006043 2.700000 -0.001978
v 0.005188 2.700000 -0.002178
v 0.004333 2.700000 -0.002399
v 0.002312 2.700000 0.005875
v 0.002312 2.700000 -0.003163
v 0.000268 2.700000 -0.004271
v -0.000609 2.700000 -0.004839
v -0.001486 2.700000 -0.005574
v -0.001486 2.700000 0.005400
v -0.000609 2.700000 0.005400
v 0.000268 2.700000 0.005400
v 0.021289 2.700000 0.005400
v 0.021289 2.700000 -0.006350
v 0.025755 2.700000 0.005400
v 0.023614 2.700000 0.005400
v 0.015447 2.700000 0.006350
v 0.015447 2.700000 -0.002676
v 0.017467 2.700000 -0.003592
v 0.017467 2.700000 0.005888
v 0.014592 2.700000 0.006350
v 0.013737 2.700000 0.006350
v 0.012883 2.700000 0.006350
v 0.012028 2.700000 0.006350
v 0.011173 2.700000 0.006350
v 0.010318 2.700000 0.006350
v 0.010318 2.700000 -0.001650
v 0.011173 2.700000 -0.001716
v 0.012028 2.700000 -0.001829
v 0.012883 2.700000 -0.001978
v 0.013737 2.700000 -0.002178
v 0.014592 2.700000 -0.002399
v 0.016344 2.700000 0.006350
v 0.016344 2.700000 -0.003050
v 0.018658 2.700000 -0.004271
v 0.019535 2.700000 -0.004839
v 0.020412 2.700000 -0.005574
v 0.020412 2.700000 0.005400
v 0.019535 2.700000 0.005400
v 0.018658 2.700000 0.005400
v 0.023614 2.700000 -0.006350
v 0.025755 2.700000 -0.006350
v 0.037581 2.700000 0.005400
v 0.037581 2.700000 -0.001650
v 0.031597 2.700000 0.005400
v 0.031597 2.700000 -0.002676
v 0.029263 2.700000 -0.003743
v 0.029263 2.700000 0.005400
v 0.032451 2.700000 0.005400
v 0.033306 2.700000 0.005400
v 0.034161 2.700000 0.005400
v 0.035016 2.700000 0.005400
v 0.035871 2.700000 0.005400
v 0.036726 2.700000 0.005400
v 0.036726 2.700000 -0.001650
v 0.035871 2.700000 -0.001716
v 0.035016 2.700000 -0.001829
v 0.034161 2.700000 -0.001978
v 0.033306 2.700000 -0.002178
v 0.032451 2.700000 -0.002399
v 0.030430 2.700000 0.005400
v 0.030430 2.700000 -0.003163
v 0.028386 2.700000 -0.004271
v 0.027509 2.700000 -0.004839
v 0.026632 2.700000 -0.005574
v 0.026632 2.700000 0.005400
v 0.027509 2.700000 0.005400
v 0.028386 2.700000 0.005400
v 0.051380 2.700000 0.006350
v 0.049407 2.700000 0.006350
v 0.051380 2.700000 -0.006350
v 0.049407 2.700000 -0.006350
v 0.043565 2.700000 0.005400
v 0.043565 2.700000 -0.002676
v 0.045585 2.700000 -0.003592
v 0.045585 2.700000 0.005400
v 0.042711 2.700000 0.005400
v 0.041856 2.700000 0.005400
v 0.041001 2.700000 0.005400
v 0.040146 2.700000 0.005400
v 0.039291 2.700000 0.005400
v 0.038436 2.700000 0.005400
v 0.038436 2.700000 -0.001650
v 0.039291 2.700000 -0.001716
v 0.040146 2.700000 -0.001829
v 0.041001 2.700000 -0.001978
v 0.041856 2.700000 -0.002178
v 0.042711 2.700000 -0.002399
v 0.044463 2.700000 0.005400
v 0.044463 2.700000 -0.003050
v 0.046776 2.700000 -0.004271
v 0.047653 2.700000 -0.004839
v 0.048530 2.700000 -0.005574
v 0.048530 2.700000 0.006350
v 0.047653 2.700000 0.006350
v 0.046776 2.700000 0.005992
v -0.060671 2.700000 -0.006350
v -0.058307 2.700000 -0.006350
v -0.046481 2.700000 0.006350
v -0.046481 2.700000 -0.001650
v -0.052637 2.700000 0.006350
v -0.052637 2.700000 -0.002747
v -0.054798 2.700000 -0.003743
v -0.051610 2.700000 0.006350
v -0.050755 2.700000 0.006350
v -0.049900 2.700000 0.006350
v -0.049045 2.700000 0.006350
v -0.048190 2.700000 0.006350
v -0.047335 2.700000 0.006350
v -0.047335 2.700000 -0.001650
v -0.048190 2.700000 -0.001716
v -0.049045 2.700000 -0.001829
v -0.049900 2.700000 -0.001978
v -0.050755 2.700000 -0.002178
v -0.051610 2.700000 -0.002399
v -0.053632 2.700000 -0.003163
v -0.055675 2.700000 -0.004271
v -0.056553 2.700000 -0.004839
v -0.057430 2.700000 -0.005574
v 0.059363 2.700000 0.001697
v 0.059363 2.700000 0.006350
v -0.034654 2.700000 0.005400
v -0.034654 2.700000 -0.006350
v -0.030189 2.700000 0.005400
v -0.032329 2.700000 0.005400
v -0.040496 2.700000 0.006350
v -0.040496 2.700000 -0.002676
v -0.038477 2.700000 -0.003592
v -0.038477 2.700000 0.005888
v -0.041351 2.700000 0.006350
v -0.042206 2.700000 0.006350
v -0.043061 2.700000 0.006350
v -0.043916 2.700000 0.006350
v -0.044771 2.700000 0.006350
v -0.045626 2.700000 0.006350
v -0.045626 2.700000 -0.001650
v -0.044771 2.700000 -0.001716
v -0.043916 2.700000 -0.001829
v -0.043061 2.700000 -0.001978
v -0.042206 2.700000 -0.002178
v -0.041351 2.700000 -0.002399
v -0.039599 2.700000 0.006350
v -0.039599 2.700000 -0.003050
v -0.037286 2.700000 -0.004271
v -0.036409 2.700000 -0.004839
v -0.035531 2.700000 -0.005574
v -0.035531 2.700000 0.005400
v -0.036409 2.700000 0.005400
v -0.037286 2.700000 0.005400
v -0.032329 2.700000 -0.006350
v -0.030189 2.700000 -0.006350
v -0.018362 2.700000 0.005400
v -0.018362 2.700000 -0.001650
v -0.024347 2.700000 0.005400
v -0.024347 2.700000 -0.002676
v -0.026680 2.700000 -0.003743
v -0.026680 2.700000 0.005400
v -0.023492 2.700000 0.005400
v -0.022637 2.700000 0.005400
v -0.021782 2.700000 0.005400
v -0.020927 2.700000 0.005400
v -0.020072 2.700000 0.005400
v -0.019217 2.700000 0.005400
v -0.019217 2.700000 -0.001650
v -0.020072 2.700000 -0.001716
v -0.020927 2.700000 -0.001829
v -0.021782 2.700000 -0.001978
v -0.022637 2.700000 -0.002178
v -0.023492 2.700000 -0.002399
v -0.025514 2.700000 0.005400
v -0.025514 2.700000 -0.003163
v -0.027557 2.700000 -0.004271
v -0.028434 2.700000 -0.004839
v -0.029312 2.700000 -0.005574
v -0.029312 2.700000 0.005400
v -0.028434 2.700000 0.005400
v -0.027557 2.700000 0.005400
v -0.002364 2.700000 0.001361
v -0.006536 2.700000 0.005400
v -0.004358 2.700000 -0.006350
v -0.006536 2.700000 -0.006350
v -0.012378 2.700000 0.005400
v -0.012378 2.700000 -0.002676
v -0.010359 2.700000 -0.003592
v -0.010359 2.700000 0.005400
v -0.013233 2.700000 0.005400
v -0.014088 2.700000 0.005400
v -0.014943 2.700000 0.005400
v -0.015798 2.700000 0.005400
v -0.016653 2.700000 0.005400
v -0.017508 2.700000 0.005400
v -0.017508 2.700000 -0.001650
v -0.016653 2.700000 -0.001716
v -0.015798 2.700000 -0.001829
v -0.014943 2.700000 -0.001978
v -0.014088 2.700000 -0.002178
v -0.013233 2.700000 -0.002399
v -0.011481 2.700000 0.005400
v -0.011481 2.700000 -0.003050
v -0.009168 2.700000 -0.004271
v -0.008290 2.700000 -0.004839
v -0.007413 2.700000 -0.005574
v -0.007413 2.700000 0.005400
v -0.008290 2.700000 0.005400
v -0.009168 2.700000 0.005400
v 0.003478 2.700000 0.001361
v 0.001145 2.700000 0.001361
v 0.004333 2.700000 0.001361
v 0.005188 2.700000 0.001361
v 0.006043 2.700000 0.001361
v 0.006898 2.700000 0.001361
v 0.007753 2.700000 0.001361
v 0.008608 2.700000 0.001361
v 0.002312 2.700000 0.001361
v -0.001486 2.700000 0.001361
v -0.000609 2.700000 0.001361
v 0.000268 2.700000 0.001361
v -0.058307 2.700000 0.001361
v 0.021289 2.700000 0.001361
v -0.060671 2.700000 0.001361
v 0.025755 2.700000 0.001361
v 0.015447 2.700000 0.001361
v 0.017467 2.700000 0.001361
v 0.023614 2.700000 0.001361
v 0.014592 2.700000 0.001361
v 0.013737 2.700000 0.001361
v 0.012883 2.700000 0.001361
v 0.012028 2.700000 0.001361
v 0.011173 2.700000 0.001361
v 0.010318 2.700000 0.001361
v 0.016344 2.700000 0.001361
v 0.020412 2.700000 0.001361
v 0.019535 2.700000 0.001361
v 0.018658 2.700000 0.001361
v 0.037581 2.700000 0.001361
v 0.031597 2.700000 0.001361
v 0.029263 2.700000 0.001361
v 0.032451 2.700000 0.001361
v 0.033306 2.700000 0.001361
v 0.034161 2.700000 0.001361
v 0.035016 2.700000 0.001361
v 0.035871 2.700000 0.001361
v 0.036726 2.700000 0.001361
v 0.030430 2.700000 0.001361
v 0.026632 2.700000 0.001361
v 0.027509 2.700000 0.001361
v 0.028386 2.700000 0.001361
v 0.051380 2.700000 0.001697
v 0.049407 2.700000 0.001361
v 0.043565 2.700000 0.001361
v 0.045585 2.700000 0.001361
v 0.042711 2.700000 0.001361
v 0.041856 2.700000 0.001361
v 0.041001 2.700000 0.001361
v 0.040146 2.700000 0.001361
v 0.039291 2.700000 0.001361
v 0.038436 2.700000 0.001361
v 0.044463 2.700000 0.001361
v 0.048530 2.700000 0.001361
v 0.047653 2.700000 0.001361
v 0.046776 2.700000 0.001361
v -0.046481 2.700000 0.001361
v -0.052637 2.700000 0.001361
v -0.054798 2.700000 0.001361
v -0.051610 2.700000 0.001361
v -0.050755 2.700000 0.001361
v -0.049900 2.700000 0.001361
v -0.049045 2.700000 0.001361
v -0.048190 2.700000 0.001361
v -0.047335 2.700000 0.001361
v -0.053632 2.700000 0.001361
v -0.057430 2.700000 0.001361
v -0.056553 2.700000 0.001361
v -0.055675 2.700000 0.001361
v -0.034654 2.700000 0.001361
v -0.030189 2.700000 0.001361
v -0.040496 2.700000 0.001361
v -0.038477 2.700000 0.001361
v -0.032329 2.700000 0.001361
v -0.041351 2.700000 0.001361
v -0.042206 2.700000 0.001361
v -0.043061 2.700000 0.001361
v -0.043916 2.700000 0.001361
v -0.044771 2.700000 0.001361
v -0.045626 2.700000 0.001361
v -0.039599 2.700000 0.001361
v -0.035531 2.700000 0.001361
v -0.036409 2.700000 0.001361
v -0.037286 2.700000 0.001361
v -0.018362 2.700000 0.001361
v -0.024347 2.700000 0.001361
v -0.026680 2.700000 0.001361
v -0.023492 2.700000 0.001361
v -0.022637 2.700000 0.001361
v -0.021782 2.700000 0.001361
v -0.020927 2.700000 0.001361
v -0.020072 2.700000 0.001361
v -0.019217 2.700000 0.001361
v -0.025514 2.700000 0.001361
v -0.029312 2.700000 0.001361
v -0.028434 2.700000 0.001361
v -0.027557 2.700000 0.001361
v -0.006536 2.700000 0.001361
v -0.012378 2.700000 0.001361
v -0.010359 2.700000 0.001361
v -0.013233 2.700000 0.001361
v -0.014088 2.700000 0.001361
v -0.014943 2.700000 0.001361
v -0.015798 2.700000 0.001361
v -0.016653 2.700000 0.001361
v -0.017508 2.700000 0.001361
v -0.011481 2.700000 0.001361
v -0.007413 2.700000 0.001361
v -0.008290 2.700000 0.001361
v -0.009168 2.700000 0.001361
v -0.004358 2.700000 0.001361
vt 0.000000 0.500000
vt 0.000000 1.000000
vt 1.000000 1.000000
vt 1.000000 0.500000
vt 1.000000 0.500000
vt 1.000000 0.500000
vt 1.000000 0.000000
vt 1.000000 0.000000
vt 1.000000 0.500000
vt 1.000000 0.500000
vt 1.000000 0.000000
vt 1.000000 0.000000
vt 1.000000 0.500000
vt 1.000000 0.500000
vt 1.000000 0.000000
vt 1.000000 0.000000
vt 1.000000 0.500000
vt 1.000000 0.000000
vt 1.000000 0.500000
vt 1.000000 0.000000
vt 1.000000 0.500000
vt 1.000000 0.000000
vt 1.000000 0.500000
vt 1.000000 0.000000
vt 1.000000 0.500000
vt 1.000000 0.000000
vt 1.000000 0.500000
vt 1.000000 0.000000
vt 1.000000 0.000000
vt 1.000000 0.500000
vt 1.000000 0.000000
vt 0.000000 0.500000
vt 1.000000 0.500000
vt 1.000000 1.000000
vt 0.000000 1.000000
vt 1.000000 0.500000
vt 1.000000 0.000000
vt 1.000000 0.500000
vt 1.000000 0.000000
vt 1.000000 0.000000
vt 1.000000 0.500000
vt 1.000000 0.500000
vt 1.000000 0.000000
vt 1.000000 0.000000
vt 1.000000 0.500000
vt 1.000000 0.000000
vt 1.000000 0.500000
vt 1.000000 0.000000
vt 1.000000 0.500000
vt 1.000000 0.000000
vt 1.000000 0.500000
vt 1.000000 0.000000
vt 1.000000 0.500000
vt 1.000000 0.000000
vt 1.000000 0.500000
vt 1.000000 0.000000
vt 1.000000 0.000000
vt 1.000000 0.500000
vt 1.000000 0.000000
vt 1.000000 0.500000
vt 1.000000 1.000000
vt 1.000000 0.500000
vt 1.000000 0.500000
vt 1.000000 0.500000
vt 1.000000 0.000000
vt 1.000000 0.000000
vt 1.000000 0.500000
vt 1.000000 0.500000
vt 1.000000 0.000000
vt 1.000000 0.000000
vt 1.000000 0.500000
vt 1.000000 0.500000
vt 1.000000 0.000000
vt 1.000000 0.000000
vt 1.000000 0.500000
vt 1.000000 0.000000
vt 1.000000 0.500000
vt 1.000000 0.000000
vt 1.000000 0.500000
vt 1.000000 0.000000
vt 1.000000 0.500000
vt 1.000000 0.000000
vt 1.000000 0.500000
vt 1.000000 0.000000
vt 1.000000 0.500000
vt 1.000000 0.000000
vt 1.000000 0.000000
vt 1.000000 0.500000
vt 1.000000 0.000000
vt 0.000000 0.500000
vt 1.000000 0.500000
vt 1.000000 1.000000
vt 0.000000 1.000000
vt 1.000000 0.500000
vt 1.000000 0.000000
vt 1.000000 0.500000
vt 1.000000 0.000000
vt 1.000000 0.000000
vt 1.000000 0.500000
vt 1.000000 0.500000
vt 1.000000 0.000000
vt 1.000000 0.000000
vt 1.000000 0.500000
vt 1.000000 0.000000
vt 1.000000 0.500000
vt 1.000000 0.000000
vt 1.000000 0.500000
vt 1.000000 0.000000
vt 1.000000 0.500000
vt 1.000000 0.000000
vt 1.000000 0.500000
vt 1.000000 0.000000
vt 1.000000 0.500000
vt 1.000000 0.000000
vt 1.000000 0.000000
vt 1.000000 0.500000
vt 1.000000 0.000000
vt 1.000000 0.500000
vt 0.000000 0.500000
vt 0.000000 1.000000
vt 1.000000 1.000000
vt 1.000000 0.500000
vt 1.000000 0.500000
vt 1.000000 0.500000
vt 1.000000 0.000000
vt 1.000000 0.000000
vt 1.000000 0.500000
vt 1.000000 0.500000
vt 1.000000 0.000000
vt 1.000000 0.000000
vt 1.000000 0.500000
vt 1.000000 0.000000
vt 1.000000 0.500000
vt 1.000000 0.000000
vt 1.000000 0.500000
vt 1.000000 0.000000
vt 1.000000 0.500000
vt 1.000000 0.000000
vt 0.000000 0.000000
vt 0.000000 0.500000
vt 0.000000 0.000000
vt 0.000000 0.500000
vt 1.000000 0.500000
vt 1.000000 1.000000
vt 0.000000 1.000000
vt 1.000000 0.500000
vt 1.000000 0.000000
vt 1.000000 0.500000
vt 1.000000 0.000000
vt 1.000000 0.000000
vt 1.000000 0.500000
vt 1.000000 0.500000
vt 1.000000 0.000000
vt 1.000000 0.000000
vt 1.000000 0.500000
vt 1.000000 0.000000
vt 1.000000 0.500000
vt 1.000000 0.000000
vt 1.000000 0.500000
vt 1.000000 0.000000
vt 1.000000 0.500000
vt 1.000000 0.000000
vt 1.000000 0.500000
vt 1.000000 0.000000
vt 1.000000 0.500000
vt 1.000000 0.000000
vt 1.000000 0.000000
vt 1.000000 0.500000
vt 1.000000 0.000000
vt 1.000000 0.500000
vt 1.000000 1.000000
vt 1.000000 0.500000
vt 1.000000 0.500000
vt 1.000000 0.500000
vt 1.000000 0.000000
vt 1.000000 0.000000
vt 1.000000 0.500000
vt 1.000000 0.500000
vt 1.000000 0.000000
vt 1.000000 0.000000
vt 1.000000 0.500000
vt 1.000000 0.500000
vt 1.000000 0.000000
vt 1.000000 0.000000
vt 1.000000 0.500000
vt 1.000000 0.000000
vt 1.000000 0.500000
vt 1.000000 0.000000
vt 1.000000 0.500000
vt 1.000000 0.000000
vt 1.000000 0.500000
vt 1.000000 0.000000
vt 1.000000 0.500000
vt 1.000000 0.000000
vt 1.000000 0.500000
vt 1.000000 0.000000
vt 1.000000 0.000000
vt 1.000000 0.500000
vt 1.000000 0.000000
vt 1.000000 0.500000
vt 1.000000 1.000000
vt 1.000000 0.500000
vt 1.000000 0.000000
vt 1.000000 0.500000
vt 1.000000 0.000000
vt 1.000000 0.000000
vt 1.000000 0.500000
vt 1.000000 0.500000
vt 1.000000 0.000000
vt 1.000000 0.000000
vt 1.000000 0.500000
vt 1.000000 0.000000
vt 1.000000 0.500000
vt 1.000000 0.000000
vt 1.000000 0.500000
vt 1.000000 0.000000
vt 1.000000 0.500000
vt 1.000000 0.000000
vt 1.000000 0.500000
vt 1.000000 0.000000
vt 1.000000 0.500000
vt 1.000000 0.000000
vt 1.000000 0.000000
vt 1.000000 0.500000
vt 1.000000 0.000000
vt 1.000000 0.500000
vt 1.000000 1.000000
vt 1.000000 1.000000
vt 1.000000 1.000000
vt 1.000000 1.000000
vt 1.000000 1.000000
vt 1.000000 1.000000
vt 1.000000 1.000000
vt 1.000000 1.000000
vt 1.000000 1.000000
vt 1.000000 1.000000
vt 1.000000 1.000000
vt 1.000000 1.000000
vt 1.000000 1.000000
vt 0.000000 0.000000
vt 1.000000 1.000000
vt 1.000000 1.000000
vt 1.000000 1.000000
vt 1.000000 1.000000
vt 1.000000 1.000000
vt 1.000000 1.000000
vt 1.000000 1.000000
vt 1.000000 1.000000
vt 1.000000 1.000000
vt 1.000000 1.000000
vt 1.000000 1.000000
vt 1.000000 1.000000
vt 0.000000 0.000000
vt 1.000000 1.000000
vt 1.000000 1.000000
vt 1.000000 1.000000
vt 1.000000 1.000000
vt 1.000000 1.000000
vt 1.000000 1.000000
vt 1.000000 1.000000
vt 1.000000 1.000000
vt 1.000000 1.000000
vt 1.000000 1.000000
vt 1.000000 1.000000
vt 1.000000 1.000000
vt 1.000000 1.000000
vt 1.000000 1.000000
vt 1.000000 1.000000
vt 1.000000 0.500000
vt 1.000000 0.500000
vt 1.000000 1.000000
vt 1.000000 0.500000
vt 1.000000 1.000000
vt 1.000000 1.000000
vt 1.000000 0.500000
vt 1.000000 0.500000
vt 1.000000 1.000000
vt 1.000000 1.000000
vt 1.000000 1.000000
vt 1.000000 1.000000
vt 1.000000 1.000000
vt 1.000000 1.000000
vt 1.000000 1.000000
vt 1.000000 1.000000
vt 1.000000 1.000000
vt 1.000000 1.000000
vt 1.000000 1.000000
vt 1.000000 1.000000
vt 1.000000 1.000000
vt 1.000000 1.000000
vt 1.000000 1.000000
vt 1.000000 1.000000
vt 1.000000 1.000000
vt 1.000000 1.000000
vt 1.000000 1.000000
vt 1.000000 1.000000
vt 1.000000 1.000000
vt 1.000000 1.000000
vt 1.000000 1.000000
vt 1.000000 1.000000
vt 1.000000 1.000000
vt 1.000000 1.000000
vt 1.000000 1.000000
vt 1.000000 1.000000
vt 1.000000 1.000000
vt 1.000000 1.000000
vt 1.000000 1.000000
vt 1.000000 1.000000
vt 0.000000 0.000000
vt 1.000000 1.000000
vt 1.000000 1.000000
vt 1.000000 1.000000
vt 1.000000 1.000000
vt 1.000000 1.000000
vt 1.000000 1.000000
vt 1.000000 1.000000
vt 1.000000 1.000000
vt 1.000000 1.000000
vt 1.000000 1.000000
vt 1.000000 1.000000
vt 1.000000 1.000000
vt 1.000000 1.000000
vt 1.000000 1.000000
vt 1.000000 1.000000
vt 1.000000 1.000000
vt 1.000000 1.000000
vt 1.000000 1.000000
vt 1.000000 1.000000
vt 1.000000 1.000000
vt 1.000000 1.000000
vt 1.000000 1.000000
vt 1.000000 1.000000
vt 1.000000 1.000000
vt 1.000000 1.000000
vt 0.000000 0.500000
vt 1.000000 0.500000
vt 1.000000 1.000000
vt 0.000000 1.000000
vt 1.000000 0.500000
vt 1.000000 0.000000
vt 1.000000 0.000000
vt 1.000000 0.500000
vt 1.000000 0.500000
vt 1.000000 0.000000
vt 1.000000 0.000000
vt 1.000000 0.500000
vt 1.000000 0.500000
vt 1.000000 0.000000
vt 1.000000 0.000000
vt 1.000000 0.500000
vt 1.000000 0.000000
vt 1.000000 0.500000
vt 1.000000 0.000000
vt 1.000000 0.500000
vt 1.000000 0.000000
vt 1.000000 0.500000
vt 1.000000 0.000000
vt 1.000000 0.500000
vt 1.000000 0.000000
vt 1.000000 0.500000
vt 1.000000 0.000000
vt 1.000000 0.000000
vt 1.000000 0.500000
vt 1.000000 0.000000
vt 1.000000 0.500000
vt 0.000000 0.500000
vt 0.000000 1.000000
vt 1.000000 1.000000
vt 1.000000 0.500000
vt 1.000000 0.500000
vt 1.000000 0.000000
vt 1.000000 0.500000
vt 1.000000 0.500000
vt 1.000000 0.000000
vt 1.000000 0.000000
vt 1.000000 0.500000
vt 1.000000 0.500000
vt 1.000000 0.000000
vt 1.000000 0.000000
vt 1.000000 0.500000
vt 1.000000 0.000000
vt 1.000000 0.500000
vt 1.000000 0.000000
vt 1.000000 0.500000
vt 1.000000 0.000000
vt 1.000000 0.500000
vt 1.000000 0.000000
vt 1.000000 0.500000
vt 1.000000 0.000000
vt 1.000000 0.500000
vt 1.000000 0.000000
vt 1.000000 0.000000
vt 1.000000 0.500000
vt 1.000000 0.000000
vt 1.000000 0.500000
vt 1.000000 1.000000
vt 1.000000 0.500000
vt 1.000000 0.000000
vt 1.000000 0.000000
vt 1.000000 0.500000
vt 1.000000 0.500000
vt 1.000000 0.000000
vt 1.000000 0.000000
vt 1.000000 0.500000
vt 1.000000 0.500000
vt 1.000000 0.000000
vt 1.000000 0.000000
vt 1.000000 0.500000
vt 1.000000 0.000000
vt 1.000000 0.500000
vt 1.000000 0.000000
vt 1.000000 0.500000
vt 1.000000 0.000000
vt 1.000000 0.500000
vt 1.000000 0.000000
vt 1.000000 0.500000
vt 1.000000 0.000000
vt 1.000000 0.500000
vt 1.000000 0.000000
vt 1.000000 0.000000
vt 1.000000 0.500000
vt 1.000000 0.000000
vt 1.000000 0.500000
vt 0.000000 0.500000
vt 0.000000 1.000000
vt 1.000000 1.000000
vt 1.000000 0.500000
vt 1.000000 0.500000
vt 1.000000 0.000000
vt 1.000000 0.500000
vt 1.000000 0.500000
vt 1.000000 0.000000
vt 1.000000 0.000000
vt 1.000000 0.500000
vt 1.000000 0.500000
vt 1.000000 0.000000
vt 1.000000 0.000000
vt 1.000000 0.500000
vt 1.000000 0.000000
vt 1.000000 0.500000
vt 1.000000 0.000000
vt 1.000000 0.500000
vt 1.000000 0.000000
vt 1.000000 0.500000
vt 1.000000 0.000000
vt 1.000000 0.500000
vt 1.000000 0.000000
vt 1.000000 0.500000
vt 1.000000 0.000000
vt 1.000000 0.000000
vt 1.000000 0.500000
vt 1.000000 0.000000
vt 0.000000 0.500000
vt 1.000000 0.500000
vt 1.000000 1.000000
vt 0.000000 1.000000
vt 1.000000 0.500000
vt 1.000000 0.000000
vt 1.000000 0.000000
vt 1.000000 0.500000
vt 1.000000 0.500000
vt 1.000000 0.000000
vt 1.000000 0.000000
vt 1.000000 0.500000
vt 1.000000 0.000000
vt 1.000000 0.500000
vt 1.000000 0.000000
vt 1.000000 0.500000
vt 1.000000 0.000000
vt 1.000000 0.500000
vt 1.000000 0.000000
vt 1.000000 0.500000
vt 0.000000 0.000000
vt 0.000000 0.000000
vt 0.000000 0.500000
vt 0.000000 0.500000
vt 0.000000 1.000000
vt 1.000000 1.000000
vt 1.000000 0.500000
vt 1.000000 0.500000
vt 1.000000 0.000000
vt 1.000000 0.500000
vt 1.000000 0.500000
vt 1.000000 0.000000
vt 1.000000 0.000000
vt 1.000000 0.500000
vt 1.000000 0.500000
vt 1.000000 0.000000
vt 1.000000 0.000000
vt 1.000000 0.500000
vt 1.000000 0.000000
vt 1.000000 0.500000
vt 1.000000 0.000000
vt 1.000000 0.500000
vt 1.000000 0.000000
vt 1.000000 0.500000
vt 1.000000 0.000000
vt 1.000000 0.500000
vt 1.000000 0.000000
vt 1.000000 0.500000
vt 1.000000 0.000000
vt 1.000000 0.000000
vt 1.000000 0.500000
vt 1.000000 0.000000
vt 1.000000 0.500000
vt 1.000000 1.000000
vt 1.000000 0.500000
vt 1.000000 0.000000
vt 1.000000 0.000000
vt 1.000000 0.500000
vt 1.000000 0.500000
vt 1.000000 0.000000
vt 1.000000 0.000000
vt 1.000000 0.500000
vt 1.000000 0.500000
vt 1.000000 0.000000
vt 1.000000 0.000000
vt 1.000000 0.500000
vt 1.000000 0.000000
vt 1.000000 0.500000
vt 1.000000 0.000000
vt 1.000000 0.500000
vt 1.000000 0.000000
vt 1.000000 0.500000
vt 1.000000 0.000000
vt 1.000000 0.500000
vt 1.000000 0.000000
vt 1.000000 0.500000
vt 1.000000 0.000000
vt 1.000000 0.000000
vt 1.000000 0.500000
vt 1.000000 0.000000
vt 1.000000 0.500000
vt 1.000000 1.000000
vt 1.000000 0.500000
vt 1.000000 0.500000
vt 1.000000 0.000000
vt 1.000000 0.500000
vt 1.000000 0.500000
vt 1.000000 0.000000
vt 1.000000 0.000000
vt 1.000000 0.500000
vt 1.000000 0.500000
vt 1.000000 0.000000
vt 1.000000 0.000000
vt 1.000000 0.500000
vt 1.000000 0.000000
vt 1.000000 0.500000
vt 1.000000 0.000000
vt 1.000000 0.500000
vt 1.000000 0.000000
vt 1.000000 0.500000
vt 1.000000 0.000000
vt 1.000000 0.500000
vt 1.000000 0.000000
vt 1.000000 0.500000
vt 1.000000 0.000000
vt 1.000000 0.000000
vt 1.000000 0.500000
vt 1.000000 0.000000
vt 1.000000 1.000000
vt 1.000000 1.000000
vt 1.000000 1.000000
vt 1.000000 1.000000
vt 1.000000 1.000000
vt 1.000000 1.000000
vt 1.000000 1.000000
vt 1.000000 1.000000
vt 1.000000 1.000000
vt 1.000000 1.000000
vt 1.000000 1.000000
vt 1.000000 1.000000
vt 1.000000 1.000000
vt 0.000000 0.000000
vt 1.000000 1.000000
vt 1.000000 1.000000
vt 1.000000 1.000000
vt 1.000000 1.000000
vt 1.000000 1.000000
vt 1.000000 1.000000
vt 1.000000 1.000000
vt 1.000000 1.000000
vt 1.000000 1.000000
vt 1.000000 1.000000
vt 1.000000 1.000000
vt 1.000000 1.000000
vt 0.000000 0.000000
vt 1.000000 1.000000
vt 1.000000 1.000000
vt 1.000000 1.000000
vt 1.000000 1.000000
vt 1.000000 1.000000
vt 1.000000 1.000000
vt 1.000000 1.000000
vt 1.000000 1.000000
vt 1.000000 1.000000
vt 1.000000 1.000000
vt 1.000000 1.000000
vt 1.000000 1.000000
vt 1.000000 1.000000
vt 1.000000 1.000000
vt 1.000000 0.500000
vt 1.000000 0.500000
vt 1.000000 1.000000
vt 1.000000 1.000000
vt 1.000000 0.500000
vt 1.000000 1.000000
vt 1.000000 0.500000
vt 1.000000 0.500000
vt 1.000000 1.000000
vt 1.000000 1.000000
vt 1.000000 1.000000
vt 1.000000 1.000000
vt 1.000000 1.000000
vt 1.000000 1.000000
vt 1.000000 1.000000
vt 1.000000 1.000000
vt 1.000000 1.000000
vt 1.000000 1.000000
vt 1.000000 1.000000
vt 1.000000 1.000000
vt 1.000000 1.000000
vt 1.000000 1.000000
vt 1.000000 1.000000
vt 1.000000 1.000000
vt 1.000000 1.000000
vt 1.000000 1.000000
vt 1.000000 1.000000
vt 1.000000 1.000000
vt 1.000000 1.000000
vt 1.000000 1.000000
vt 1.000000 1.000000
vt 1.000000 1.000000
vt 1.000000 1.000000
vt 1.000000 1.000000
vt 1.000000 1.000000
vt 1.000000 1.000000
vt 1.000000 1.000000
vt 1.000000 1.000000
vt 1.000000 1.000000
vt 1.000000 1.000000
vt 1.000000 1.000000
vt 0.000000 0.000000
vt 1.000000 1.000000
vt 1.000000 1.000000
vt 1.000000 1.000000
vt 1.000000 1.000000
vt 1.000000 1.000000
vt 1.000000 1.000000
vt 1.000000 1.000000
vt 1.000000 1.000000
vt 1.000000 1.000000
vt 1.000000 1.000000
vt 1.000000 1.000000
vt 1.000000 1.000000
vt 1.000000 1.000000
vt 1.000000 1.000000
vt 1.000000 1.000000
vt 1.000000 1.000000
vt 1.000000 1.000000
vt 1.000000 1.000000
vt 1.000000 1.000000
vt 1.000000 1.000000
vt 1.000000 1.000000
vt 1.000000 1.000000
vt 1.000000 1.000000
vt 1.000000 1.000000
vt 1.000000 1.000000
vn 0.0000 -1.0000 0.0000
vn 0.0000 1.0000 0.0000
vn 0.0000 1.0000 -0.0001
vn 0.0000 1.0000 0.0001
vn 0.0000 0.0000 1.0000
vn 0.3809 0.0000 0.9246
vn -1.0000 0.0000 0.0000
vn 0.3789 0.0000 0.9254
vn -0.3771 0.0000 0.9262
vn -0.4448 0.0000 0.8956
vn -0.3783 0.0000 0.9257
vn -0.2282 0.0000 -0.9736
vn 0.0000 0.0000 -1.0000
vn -0.2504 0.0000 -0.9681
vn 0.3854 0.0000 -0.9227
vn 0.6626 0.0000 -0.7489
vn 0.5151 0.0000 -0.8571
vn 0.3210 0.0000 -0.9471
vn 0.5440 0.0000 -0.8391
vn 0.6421 0.0000 -0.7667
vn 0.4456 0.0000 -0.8952
vn -0.3854 0.0000 -0.9227
vn -0.4951 0.0000 -0.8689
vn -0.5440 0.0000 -0.8391
vn -0.6421 0.0000 -0.7667
vn 0.0766 0.0000 -0.9971
vn 0.1313 0.0000 -0.9913
vn -0.6626 0.0000 -0.7489
vn 0.1712 0.0000 -0.9852
vn 1.0000 0.0000 0.0000
vn 0.2282 0.0000 -0.9736
vn -0.3075 0.0000 -0.9515
vn 0.2504 0.0000 -0.9681
vn -0.4347 0.0000 -0.9006
vn 0.3075 0.0000 -0.9515
vn -0.0766 0.0000 -0.9971
vn -0.1313 0.0000 -0.9913
vn -0.1712 0.0000 -0.9852
g onda_main_Plane.004_gora_dol
usemtl gora_dol
s off
f 334/1/1 198/2/1 4/3/1 196/4/1
f 231/5/1 3/6/1 5/7/1 16/8/1
f 232/9/1 224/10/1 7/11/1 23/12/1
f 235/13/1 225/14/1 10/15/1 30/16/1
f 224/10/1 226/17/1 11/18/1 7/11/1
f 226/17/1 227/19/1 12/20/1 11/18/1
f 227/19/1 228/21/1 13/22/1 12/20/1
f 228/21/1 229/23/1 14/24/1 13/22/1
f 229/23/1 230/25/1 15/26/1 14/24/1
f 230/25/1 231/5/1 16/8/1 15/26/1
f 225/14/1 232/9/1 23/12/1 10/15/1
f 196/4/1 233/27/1 28/28/1 2/29/1
f 233/27/1 234/30/1 29/31/1 28/28/1
f 234/30/1 235/13/1 30/16/1 29/31/1
f 242/32/1 237/33/1 32/34/1 59/35/1
f 248/36/1 44/37/1 5/7/1 3/6/1
f 249/38/1 51/39/1 35/40/1 240/41/1
f 252/42/1 58/43/1 38/44/1 241/45/1
f 240/41/1 35/40/1 39/46/1 243/47/1
f 243/47/1 39/46/1 40/48/1 244/49/1
f 244/49/1 40/48/1 41/50/1 245/51/1
f 245/51/1 41/50/1 42/52/1 246/53/1
f 246/53/1 42/52/1 43/54/1 247/55/1
f 247/55/1 43/54/1 44/37/1 248/36/1
f 241/45/1 38/44/1 51/39/1 249/38/1
f 237/33/1 31/56/1 56/57/1 250/58/1
f 250/58/1 56/57/1 57/59/1 251/60/1
f 251/60/1 57/59/1 58/43/1 252/42/1
f 242/32/1 59/35/1 60/61/1 239/62/1
f 261/63/1 253/64/1 61/65/1 72/66/1
f 262/67/1 254/68/1 63/69/1 79/70/1
f 265/71/1 255/72/1 66/73/1 86/74/1
f 254/68/1 256/75/1 67/76/1 63/69/1
f 256/75/1 257/77/1 68/78/1 67/76/1
f 257/77/1 258/79/1 69/80/1 68/78/1
f 258/79/1 259/81/1 70/82/1 69/80/1
f 259/81/1 260/83/1 71/84/1 70/82/1
f 260/83/1 261/63/1 72/66/1 71/84/1
f 255/72/1 262/67/1 79/70/1 66/73/1
f 239/62/1 263/85/1 84/86/1 33/87/1
f 263/85/1 264/88/1 85/89/1 84/86/1
f 264/88/1 265/71/1 86/74/1 85/89/1
f 266/90/1 267/91/1 90/92/1 89/93/1
f 275/94/1 100/95/1 61/65/1 253/64/1
f 276/96/1 107/97/1 91/98/1 268/99/1
f 279/100/1 114/101/1 94/102/1 269/103/1
f 268/99/1 91/98/1 95/104/1 270/105/1
f 270/105/1 95/104/1 96/106/1 271/107/1
f 271/107/1 96/106/1 97/108/1 272/109/1
f 272/109/1 97/108/1 98/110/1 273/111/1
f 273/111/1 98/110/1 99/112/1 274/113/1
f 274/113/1 99/112/1 100/95/1 275/94/1
f 269/103/1 94/102/1 107/97/1 276/96/1
f 267/91/1 88/114/1 112/115/1 277/116/1
f 277/116/1 112/115/1 113/117/1 278/118/1
f 278/118/1 113/117/1 114/101/1 279/100/1
f 238/119/1 115/120/1 116/121/1 236/122/1
f 288/123/1 280/124/1 117/125/1 127/126/1
f 281/127/1 283/128/1 122/129/1 119/130/1
f 283/128/1 284/131/1 123/132/1 122/129/1
f 284/131/1 285/133/1 124/134/1 123/132/1
f 285/133/1 286/135/1 125/136/1 124/134/1
f 286/135/1 287/137/1 126/138/1 125/136/1
f 287/137/1 288/123/1 127/126/1 126/138/1
f 87/139/1 266/90/1 138/140/1 139/141/1
f 297/142/1 293/143/1 141/144/1 168/145/1
f 303/146/1 153/147/1 117/125/1 280/124/1
f 304/148/1 160/149/1 144/150/1 295/151/1
f 307/152/1 167/153/1 147/154/1 296/155/1
f 295/151/1 144/150/1 148/156/1 298/157/1
f 298/157/1 148/156/1 149/158/1 299/159/1
f 299/159/1 149/158/1 150/160/1 300/161/1
f 300/161/1 150/160/1 151/162/1 301/163/1
f 301/163/1 151/162/1 152/164/1 302/165/1
f 302/165/1 152/164/1 153/147/1 303/146/1
f 296/155/1 147/154/1 160/149/1 304/148/1
f 293/143/1 140/166/1 165/167/1 305/168/1
f 305/168/1 165/167/1 166/169/1 306/170/1
f 306/170/1 166/169/1 167/153/1 307/152/1
f 297/142/1 168/145/1 169/171/1 294/172/1
f 316/173/1 308/174/1 170/175/1 181/176/1
f 317/177/1 309/178/1 172/179/1 188/180/1
f 320/181/1 310/182/1 175/183/1 195/184/1
f 309/178/1 311/185/1 176/186/1 172/179/1
f 311/185/1 312/187/1 177/188/1 176/186/1
f 312/187/1 313/189/1 178/190/1 177/188/1
f 313/189/1 314/191/1 179/192/1 178/190/1
f 314/191/1 315/193/1 180/194/1 179/192/1
f 315/193/1 316/173/1 181/176/1 180/194/1
f 310/182/1 317/177/1 188/180/1 175/183/1
f 294/172/1 318/195/1 193/196/1 142/197/1
f 318/195/1 319/198/1 194/199/1 193/196/1
f 319/198/1 320/181/1 195/184/1 194/199/1
f 334/1/1 321/200/1 199/201/1 198/2/1
f 329/202/1 209/203/1 170/175/1 308/174/1
f 330/204/1 216/205/1 200/206/1 322/207/1
f 333/208/1 223/209/1 203/210/1 323/211/1
f 322/207/1 200/206/1 204/212/1 324/213/1
f 324/213/1 204/212/1 205/214/1 325/215/1
f 325/215/1 205/214/1 206/216/1 326/217/1
f 326/217/1 206/216/1 207/218/1 327/219/1
f 327/219/1 207/218/1 208/220/1 328/221/1
f 328/221/1 208/220/1 209/203/1 329/202/1
f 323/211/1 203/210/1 216/205/1 330/204/1
f 321/200/1 197/222/1 221/223/1 331/224/1
f 331/224/1 221/223/1 222/225/1 332/226/1
f 332/226/1 222/225/1 223/209/1 333/208/1
f 219/227/1 332/226/1 333/208/1 218/228/1
f 220/229/1 331/224/1 332/226/1 219/227/1
f 199/201/1 321/200/1 331/224/1 220/229/1
f 202/230/1 323/211/1 330/204/1 217/231/1
f 211/232/1 328/221/1 329/202/1 210/233/1
f 212/234/1 327/219/1 328/221/1 211/232/1
f 213/235/1 326/217/1 327/219/1 212/234/1
f 214/236/1 325/215/1 326/217/1 213/235/1
f 215/237/1 324/213/1 325/215/1 214/236/1
f 201/238/1 322/207/1 324/213/1 215/237/1
f 218/228/1 333/208/1 323/211/1 202/230/1
f 217/231/1 330/204/1 322/207/1 201/238/1
f 210/233/1 329/202/1 308/174/1 171/239/1
f 1/240/1 197/222/1 321/200/1 334/1/1
f 191/241/1 190/242/1 320/181/1 319/198/1
f 192/243/1 191/241/1 319/198/1 318/195/1
f 169/171/1 192/243/1 318/195/1 294/172/1
f 174/244/1 189/245/1 317/177/1 310/182/1
f 183/246/1 182/247/1 316/173/1 315/193/1
f 184/248/1 183/246/1 315/193/1 314/191/1
f 185/249/1 184/248/1 314/191/1 313/189/1
f 186/250/1 185/249/1 313/189/1 312/187/1
f 187/251/1 186/250/1 312/187/1 311/185/1
f 173/252/1 187/251/1 311/185/1 309/178/1
f 190/242/1 174/244/1 310/182/1 320/181/1
f 189/245/1 173/252/1 309/178/1 317/177/1
f 182/247/1 171/239/1 308/174/1 316/173/1
f 143/253/1 297/142/1 294/172/1 142/197/1
f 163/254/1 306/170/1 307/152/1 162/255/1
f 164/256/1 305/168/1 306/170/1 163/254/1
f 141/144/1 293/143/1 305/168/1 164/256/1
f 146/257/1 296/155/1 304/148/1 161/258/1
f 155/259/1 302/165/1 303/146/1 154/260/1
f 156/261/1 301/163/1 302/165/1 155/259/1
f 157/262/1 300/161/1 301/163/1 156/261/1
f 158/263/1 299/159/1 300/161/1 157/262/1
f 159/264/1 298/157/1 299/159/1 158/263/1
f 145/265/1 295/151/1 298/157/1 159/264/1
f 162/255/1 307/152/1 296/155/1 146/257/1
f 161/258/1 304/148/1 295/151/1 145/265/1
f 154/260/1 303/146/1 280/124/1 118/266/1
f 143/253/1 140/166/1 293/143/1 297/142/1
f 136/267/1 135/268/1 292/269/1 291/270/1
f 137/271/1 136/267/1 291/270/1 290/272/1
f 116/121/1 137/271/1 290/272/1 236/122/1
f 121/273/1 134/274/1 289/275/1 282/276/1
f 129/277/1 128/278/1 288/123/1 287/137/1
f 130/279/1 129/277/1 287/137/1 286/135/1
f 131/280/1 130/279/1 286/135/1 285/133/1
f 132/281/1 131/280/1 285/133/1 284/131/1
f 133/282/1 132/281/1 284/131/1 283/128/1
f 120/283/1 133/282/1 283/128/1 281/127/1
f 135/268/1 121/273/1 282/276/1 292/269/1
f 134/274/1 120/283/1 281/127/1 289/275/1
f 128/278/1 118/266/1 280/124/1 288/123/1
f 110/284/1 278/118/1 279/100/1 109/285/1
f 111/286/1 277/116/1 278/118/1 110/284/1
f 90/92/1 267/91/1 277/116/1 111/286/1
f 93/287/1 269/103/1 276/96/1 108/288/1
f 102/289/1 274/113/1 275/94/1 101/290/1
f 103/291/1 273/111/1 274/113/1 102/289/1
f 104/292/1 272/109/1 273/111/1 103/291/1
f 105/293/1 271/107/1 272/109/1 104/292/1
f 106/294/1 270/105/1 271/107/1 105/293/1
f 92/295/1 268/99/1 270/105/1 106/294/1
f 109/285/1 279/100/1 269/103/1 93/287/1
f 108/288/1 276/96/1 268/99/1 92/295/1
f 101/290/1 275/94/1 253/64/1 62/296/1
f 87/139/1 88/114/1 267/91/1 266/90/1
f 82/297/1 81/298/1 265/71/1 264/88/1
f 83/299/1 82/297/1 264/88/1 263/85/1
f 60/61/1 83/299/1 263/85/1 239/62/1
f 65/300/1 80/301/1 262/67/1 255/72/1
f 74/302/1 73/303/1 261/63/1 260/83/1
f 75/304/1 74/302/1 260/83/1 259/81/1
f 76/305/1 75/304/1 259/81/1 258/79/1
f 77/306/1 76/305/1 258/79/1 257/77/1
f 78/307/1 77/306/1 257/77/1 256/75/1
f 64/308/1 78/307/1 256/75/1 254/68/1
f 81/298/1 65/300/1 255/72/1 265/71/1
f 80/301/1 64/308/1 254/68/1 262/67/1
f 73/303/1 62/296/1 253/64/1 261/63/1
f 34/309/1 242/32/1 239/62/1 33/87/1
f 54/310/1 251/60/1 252/42/1 53/311/1
f 55/312/1 250/58/1 251/60/1 54/310/1
f 32/34/1 237/33/1 250/58/1 55/312/1
f 37/313/1 241/45/1 249/38/1 52/314/1
f 46/315/1 247/55/1 248/36/1 45/316/1
f 47/317/1 246/53/1 247/55/1 46/315/1
f 48/318/1 245/51/1 246/53/1 47/317/1
f 49/319/1 244/49/1 245/51/1 48/318/1
f 50/320/1 243/47/1 244/49/1 49/319/1
f 36/321/1 240/41/1 243/47/1 50/320/1
f 53/311/1 252/42/1 241/45/1 37/313/1
f 52/314/1 249/38/1 240/41/1 36/321/1
f 45/316/1 248/36/1 3/6/1 6/322/1
f 34/309/1 31/56/1 237/33/1 242/32/1
f 26/323/1 25/324/1 235/13/1 234/30/1
f 27/325/1 26/323/1 234/30/1 233/27/1
f 4/3/1 27/325/1 233/27/1 196/4/1
f 9/326/1 24/327/1 232/9/1 225/14/1
f 18/328/1 17/329/1 231/5/1 230/25/1
f 19/330/1 18/328/1 230/25/1 229/23/1
f 20/331/1 19/330/1 229/23/1 228/21/1
f 21/332/1 20/331/1 228/21/1 227/19/1
f 22/333/1 21/332/1 227/19/1 226/17/1
f 8/334/1 22/333/1 226/17/1 224/10/1
f 25/324/1 9/326/1 225/14/1 235/13/1
f 24/327/1 8/334/1 224/10/1 232/9/1
f 17/329/1 6/322/1 3/6/1 231/5/1
f 1/240/1 334/1/1 196/4/1 2/29/1
f 668/335/2 530/336/2 338/337/2 532/338/2
f 565/339/2 350/340/2 339/341/2 337/342/2
f 566/343/2 357/344/2 341/345/2 558/346/2
f 569/347/2 364/348/2 344/349/2 559/350/2
f 558/346/2 341/345/2 345/351/2 560/352/2
f 560/352/2 345/351/2 346/353/2 561/354/2
f 561/354/3 346/353/3 347/355/3 562/356/3
f 562/356/2 347/355/2 348/357/2 563/358/2
f 563/358/2 348/357/2 349/359/2 564/360/2
f 564/360/2 349/359/2 350/340/2 565/339/2
f 559/350/2 344/349/2 357/344/2 566/343/2
f 530/336/2 336/361/2 362/362/2 567/363/2
f 567/363/2 362/362/2 363/364/2 568/365/2
f 568/365/2 363/364/2 364/348/2 569/347/2
f 576/366/2 393/367/2 366/368/2 571/369/2
f 582/370/2 337/342/2 339/341/2 378/371/2
f 583/372/2 574/373/2 369/374/2 385/375/2
f 586/376/2 575/377/2 372/378/2 392/379/2
f 574/373/4 577/380/4 373/381/4 369/374/4
f 577/380/3 578/382/3 374/383/3 373/381/3
f 578/382/2 579/384/2 375/385/2 374/383/2
f 579/384/2 580/386/2 376/387/2 375/385/2
f 580/386/3 581/388/3 377/389/3 376/387/3
f 581/388/2 582/370/2 378/371/2 377/389/2
f 575/377/2 583/372/2 385/375/2 372/378/2
f 571/369/2 584/390/2 390/391/2 365/392/2
f 584/390/2 585/393/2 391/394/2 390/391/2
f 585/393/2 586/376/2 392/379/2 391/394/2
f 576/366/2 573/395/2 394/396/2 393/367/2
f 595/397/2 406/398/2 395/399/2 587/400/2
f 596/401/2 413/402/2 397/403/2 588/404/2
f 599/405/2 420/406/2 400/407/2 589/408/2
f 588/404/2 397/403/2 401/409/2 590/410/2
f 590/410/2 401/409/2 402/411/2 591/412/2
f 591/412/2 402/411/2 403/413/2 592/414/2
f 592/414/2 403/413/2 404/415/2 593/416/2
f 593/416/2 404/415/2 405/417/2 594/418/2
f 594/418/2 405/417/2 406/398/2 595/397/2
f 589/408/2 400/407/2 413/402/2 596/401/2
f 573/395/2 367/419/2 418/420/2 597/421/2
f 597/421/2 418/420/2 419/422/2 598/423/2
f 598/423/2 419/422/2 420/406/2 599/405/2
f 600/424/2 423/425/2 424/426/2 601/427/2
f 609/428/2 587/400/2 395/399/2 434/429/2
f 610/430/2 602/431/2 425/432/2 441/433/2
f 613/434/2 603/435/2 428/436/2 448/437/2
f 602/431/2 604/438/2 429/439/2 425/432/2
f 604/438/2 605/440/2 430/441/2 429/439/2
f 605/440/2 606/442/2 431/443/2 430/441/2
f 606/442/2 607/444/2 432/445/2 431/443/2
f 607/444/2 608/446/2 433/447/2 432/445/2
f 608/446/2 609/428/2 434/429/2 433/447/2
f 603/435/2 610/430/2 441/433/2 428/436/2
f 601/427/2 611/448/2 446/449/2 422/450/2
f 611/448/2 612/451/2 447/452/2 446/449/2
f 612/451/2 613/434/2 448/437/2 447/452/2
f 572/453/2 570/454/2 450/455/2 449/456/2
f 622/457/2 461/458/2 451/459/2 614/460/2
f 615/461/2 453/462/2 456/463/2 617/464/2
f 617/464/2 456/463/2 457/465/2 618/466/2
f 618/466/2 457/465/2 458/467/2 619/468/2
f 619/468/2 458/467/2 459/469/2 620/470/2
f 620/470/2 459/469/2 460/471/2 621/472/2
f 621/472/2 460/471/2 461/458/2 622/457/2
f 421/473/2 473/474/2 472/475/2 600/424/2
f 631/476/2 502/477/2 475/478/2 627/479/2
f 637/480/2 614/460/2 451/459/2 487/481/2
f 638/482/2 629/483/2 478/484/2 494/485/2
f 641/486/2 630/487/2 481/488/2 501/489/2
f 629/483/2 632/490/2 482/491/2 478/484/2
f 632/490/2 633/492/2 483/493/2 482/491/2
f 633/492/2 634/494/2 484/495/2 483/493/2
f 634/494/2 635/496/2 485/497/2 484/495/2
f 635/496/2 636/498/2 486/499/2 485/497/2
f 636/498/2 637/480/2 487/481/2 486/499/2
f 630/487/2 638/482/2 494/485/2 481/488/2
f 627/479/2 639/500/2 499/501/2 474/502/2
f 639/500/2 640/503/2 500/504/2 499/501/2
f 640/503/2 641/486/2 501/489/2 500/504/2
f 631/476/2 628/505/2 503/506/2 502/477/2
f 650/507/2 515/508/2 504/509/2 642/510/2
f 651/511/2 522/512/2 506/513/2 643/514/2
f 654/515/2 529/516/2 509/517/2 644/518/2
f 643/514/2 506/513/2 510/519/2 645/520/2
f 645/520/2 510/519/2 511/521/2 646/522/2
f 646/522/2 511/521/2 512/523/2 647/524/2
f 647/524/2 512/523/2 513/525/2 648/526/2
f 648/526/2 513/525/2 514/527/2 649/528/2
f 649/528/2 514/527/2 515/508/2 650/507/2
f 644/518/2 509/517/2 522/512/2 651/511/2
f 628/505/2 476/529/2 527/530/2 652/531/2
f 652/531/2 527/530/2 528/532/2 653/533/2
f 653/533/2 528/532/2 529/516/2 654/515/2
f 668/335/2 532/338/2 533/534/2 655/535/2
f 663/536/2 642/510/2 504/509/2 543/537/2
f 664/538/2 656/539/2 534/540/2 550/541/2
f 667/542/2 657/543/2 537/544/2 557/545/2
f 656/539/2 658/546/2 538/547/2 534/540/2
f 658/546/3 659/548/3 539/549/3 538/547/3
f 659/548/2 660/550/2 540/551/2 539/549/2
f 660/550/4 661/552/4 541/553/4 540/551/4
f 661/552/2 662/554/2 542/555/2 541/553/2
f 662/554/2 663/536/2 543/537/2 542/555/2
f 657/543/3 664/538/3 550/541/3 537/544/3
f 655/535/2 665/556/2 555/557/2 531/558/2
f 665/556/2 666/559/2 556/560/2 555/557/2
f 666/559/2 667/542/2 557/545/2 556/560/2
f 553/561/2 552/562/2 667/542/2 666/559/2
f 554/563/2 553/561/2 666/559/2 665/556/2
f 533/534/2 554/563/2 665/556/2 655/535/2
f 536/564/2 551/565/2 664/538/2 657/543/2
f 545/566/2 544/567/2 663/536/2 662/554/2
f 546/568/2 545/566/2 662/554/2 661/552/2
f 547/569/2 546/568/2 661/552/2 660/550/2
f 548/570/2 547/569/2 660/550/2 659/548/2
f 549/571/2 548/570/2 659/548/2 658/546/2
f 535/572/2 549/571/2 658/546/2 656/539/2
f 552/562/2 536/564/2 657/543/2 667/542/2
f 551/565/2 535/572/2 656/539/2 664/538/2
f 544/567/2 505/573/2 642/510/2 663/536/2
f 335/574/2 668/335/2 655/535/2 531/558/2
f 525/575/2 653/533/2 654/515/2 524/576/2
f 526/577/2 652/531/2 653/533/2 525/575/2
f 503/506/2 628/505/2 652/531/2 526/577/2
f 508/578/2 644/518/2 651/511/2 523/579/2
f 517/580/2 649/528/2 650/507/2 516/581/2
f 518/582/2 648/526/2 649/528/2 517/580/2
f 519/583/2 647/524/2 648/526/2 518/582/2
f 520/584/2 646/522/2 647/524/2 519/583/2
f 521/585/2 645/520/2 646/522/2 520/584/2
f 507/586/2 643/514/2 645/520/2 521/585/2
f 524/576/2 654/515/2 644/518/2 508/578/2
f 523/579/2 651/511/2 643/514/2 507/586/2
f 516/581/2 650/507/2 642/510/2 505/573/2
f 477/587/2 476/529/2 628/505/2 631/476/2
f 497/588/2 496/589/2 641/486/2 640/503/2
f 498/590/2 497/588/2 640/503/2 639/500/2
f 475/478/2 498/590/2 639/500/2 627/479/2
f 480/591/2 495/592/2 638/482/2 630/487/2
f 489/593/2 488/594/2 637/480/2 636/498/2
f 490/595/4 489/593/4 636/498/4 635/496/4
f 491/596/2 490/595/2 635/496/2 634/494/2
f 492/597/2 491/596/2 634/494/2 633/492/2
f 493/598/2 492/597/2 633/492/2 632/490/2
f 479/599/2 493/598/2 632/490/2 629/483/2
f 496/589/2 480/591/2 630/487/2 641/486/2
f 495/592/2 479/599/2 629/483/2 638/482/2
f 488/594/2 452/600/2 614/460/2 637/480/2
f 477/587/2 631/476/2 627/479/2 474/502/2
f 470/601/2 625/602/2 626/603/2 469/604/2
f 471/605/2 624/606/2 625/602/2 470/601/2
f 450/455/2 570/454/2 624/606/2 471/605/2
f 455/607/2 616/608/2 623/609/2 468/610/2
f 463/611/2 621/472/2 622/457/2 462/612/2
f 464/613/2 620/470/2 621/472/2 463/611/2
f 465/614/2 619/468/2 620/470/2 464/613/2
f 466/615/2 618/466/2 619/468/2 465/614/2
f 467/616/2 617/464/2 618/466/2 466/615/2
f 454/617/2 615/461/2 617/464/2 467/616/2
f 469/604/2 626/603/2 616/608/2 455/607/2
f 468/610/2 623/609/2 615/461/2 454/617/2
f 462/612/2 622/457/2 614/460/2 452/600/2
f 444/618/2 443/619/2 613/434/2 612/451/2
f 445/620/2 444/618/2 612/451/2 611/448/2
f 424/426/2 445/620/2 611/448/2 601/427/2
f 427/621/2 442/622/2 610/430/2 603/435/2
f 436/623/2 435/624/2 609/428/2 608/446/2
f 437/625/4 436/623/4 608/446/4 607/444/4
f 438/626/2 437/625/2 607/444/2 606/442/2
f 439/627/2 438/626/2 606/442/2 605/440/2
f 440/628/2 439/627/2 605/440/2 604/438/2
f 426/629/2 440/628/2 604/438/2 602/431/2
f 443/619/2 427/621/2 603/435/2 613/434/2
f 442/622/2 426/629/2 602/431/2 610/430/2
f 435/624/2 396/630/2 587/400/2 609/428/2
f 421/473/2 600/424/2 601/427/2 422/450/2
f 416/631/2 598/423/2 599/405/2 415/632/2
f 417/633/2 597/421/2 598/423/2 416/631/2
f 394/396/2 573/395/2 597/421/2 417/633/2
f 399/634/2 589/408/2 596/401/2 414/635/2
f 408/636/2 594/418/2 595/397/2 407/637/2
f 409/638/4 593/416/4 594/418/4 408/636/4
f 410/639/2 592/414/2 593/416/2 409/638/2
f 411/640/2 591/412/2 592/414/2 410/639/2
f 412/641/2 590/410/2 591/412/2 411/640/2
f 398/642/2 588/404/2 590/410/2 412/641/2
f 415/632/2 599/405/2 589/408/2 399/634/2
f 414/635/2 596/401/2 588/404/2 398/642/2
f 407/637/2 595/397/2 587/400/2 396/630/2
f 368/643/2 367/419/2 573/395/2 576/366/2
f 388/644/2 387/645/2 586/376/2 585/393/2
f 389/646/2 388/644/2 585/393/2 584/390/2
f 366/368/2 389/646/2 584/390/2 571/369/2
f 371/647/2 386/648/2 583/372/2 575/377/2
f 380/649/2 379/650/2 582/370/2 581/388/2
f 381/651/2 380/649/2 581/388/2 580/386/2
f 382/652/4 381/651/4 580/386/4 579/384/4
f 383/653/2 382/652/2 579/384/2 578/382/2
f 384/654/2 383/653/2 578/382/2 577/380/2
f 370/655/2 384/654/2 577/380/2 574/373/2
f 387/645/2 371/647/2 575/377/2 586/376/2
f 386/648/2 370/655/2 574/373/2 583/372/2
f 379/650/2 340/656/2 337/342/2 582/370/2
f 368/643/2 576/366/2 571/369/2 365/392/2
f 360/657/2 568/365/2 569/347/2 359/658/2
f 361/659/2 567/363/2 568/365/2 360/657/2
f 338/337/2 530/336/2 567/363/2 361/659/2
f 343/660/2 559/350/2 566/343/2 358/661/2
f 352/662/2 564/360/2 565/339/2 351/663/2
f 353/664/2 563/358/2 564/360/2 352/662/2
f 354/665/2 562/356/2 563/358/2 353/664/2
f 355/666/4 561/354/4 562/356/4 354/665/4
f 356/667/2 560/352/2 561/354/2 355/666/2
f 342/668/2 558/346/2 560/352/2 356/667/2
f 359/658/2 569/347/2 559/350/2 343/660/2
f 358/661/2 566/343/2 558/346/2 342/668/2
f 351/663/2 565/339/2 337/342/2 340/656/2
f 335/574/2 336/361/2 530/336/2 668/335/2
g onda_main_Plane.004_tyl
usemtl tyl
f 34/309/5 368/643/5 365/392/5 31/56/5
f 292/269/5 626/603/5 625/602/5 291/270/5
f 291/270/5 625/602/5 624/606/5 290/272/5
f 290/272/5 624/606/5 570/454/5 236/122/5
f 188/180/5 522/512/5 509/517/5 175/183/5
f 289/275/5 623/609/5 616/608/5 282/276/5
f 117/125/5 451/459/5 461/458/5 127/126/5
f 38/44/6 372/378/6 385/375/6 51/39/6
f 193/196/5 527/530/5 476/529/5 142/197/5
f 194/199/5 528/532/5 527/530/5 193/196/5
f 122/129/5 456/463/5 453/462/5 119/130/5
f 282/276/5 616/608/5 626/603/5 292/269/5
f 195/184/5 529/516/5 528/532/5 194/199/5
f 123/132/5 457/465/5 456/463/5 122/129/5
f 281/127/5 615/461/5 623/609/5 289/275/5
f 119/130/7 453/462/7 615/461/7 281/127/7
f 124/134/5 458/467/5 457/465/5 123/132/5
f 125/136/5 459/469/5 458/467/5 124/134/5
f 236/122/5 570/454/5 572/453/5 238/119/5
f 126/138/5 460/471/5 459/469/5 125/136/5
f 31/56/5 365/392/5 390/391/5 56/57/5
f 127/126/5 461/458/5 460/471/5 126/138/5
f 56/57/5 390/391/5 391/394/5 57/59/5
f 57/59/5 391/394/5 392/379/5 58/43/5
f 139/141/5 473/474/5 421/473/5 87/139/5
f 216/205/5 550/541/5 534/540/5 200/206/5
f 44/37/5 378/371/5 339/341/5 5/7/5
f 223/209/5 557/545/5 537/544/5 203/210/5
f 61/65/5 395/399/5 406/398/5 72/66/5
f 200/206/5 534/540/5 538/547/5 204/212/5
f 63/69/5 397/403/5 413/402/5 79/70/5
f 204/212/5 538/547/5 539/549/5 205/214/5
f 205/214/5 539/549/5 540/551/5 206/216/5
f 206/216/5 540/551/5 541/553/5 207/218/5
f 207/218/5 541/553/5 542/555/5 208/220/5
f 66/73/5 400/407/5 420/406/5 86/74/5
f 208/220/5 542/555/5 543/537/5 209/203/5
f 67/76/5 401/409/5 397/403/5 63/69/5
f 68/78/5 402/411/5 401/409/5 67/76/5
f 69/80/5 403/413/5 402/411/5 68/78/5
f 70/82/5 404/415/5 403/413/5 69/80/5
f 71/84/5 405/417/5 404/415/5 70/82/5
f 72/66/5 406/398/5 405/417/5 71/84/5
f 142/197/5 476/529/5 477/587/5 143/253/5
f 160/149/5 494/485/5 478/484/5 144/150/5
f 2/29/5 336/361/5 335/574/5 1/240/5
f 203/210/5 537/544/5 550/541/5 216/205/5
f 167/153/8 501/489/8 481/488/8 147/154/8
f 5/7/5 339/341/5 350/340/5 16/8/5
f 144/150/5 478/484/5 482/491/5 148/156/5
f 7/11/9 341/345/9 357/344/9 23/12/9
f 148/156/5 482/491/5 483/493/5 149/158/5
f 197/222/5 531/558/5 555/557/5 221/223/5
f 149/158/5 483/493/5 484/495/5 150/160/5
f 221/223/5 555/557/5 556/560/5 222/225/5
f 150/160/5 484/495/5 485/497/5 151/162/5
f 79/70/5 413/402/5 400/407/5 66/73/5
f 222/225/5 556/560/5 557/545/5 223/209/5
f 151/162/5 485/497/5 486/499/5 152/164/5
f 10/15/5 344/349/5 364/348/5 30/16/5
f 152/164/5 486/499/5 487/481/5 153/147/5
f 11/18/5 345/351/5 341/345/5 7/11/5
f 12/20/5 346/353/5 345/351/5 11/18/5
f 209/203/5 543/537/5 504/509/5 170/175/5
f 13/22/5 347/355/5 346/353/5 12/20/5
f 84/86/5 418/420/5 367/419/5 33/87/5
f 14/24/5 348/357/5 347/355/5 13/22/5
f 143/253/5 477/587/5 474/502/5 140/166/5
f 85/89/5 419/422/5 418/420/5 84/86/5
f 15/26/5 349/359/5 348/357/5 14/24/5
f 86/74/5 420/406/5 419/422/5 85/89/5
f 16/8/5 350/340/5 349/359/5 15/26/5
f 1/240/5 335/574/5 531/558/5 197/222/5
f 87/139/5 421/473/5 422/450/5 88/114/5
f 147/154/6 481/488/6 494/485/6 160/149/6
f 107/97/5 441/433/5 425/432/5 91/98/5
f 140/166/5 474/502/5 499/501/5 165/167/5
f 114/101/10 448/437/10 428/436/10 94/102/10
f 23/12/9 357/344/9 344/349/9 10/15/9
f 165/167/5 499/501/5 500/504/5 166/169/5
f 166/169/5 500/504/5 501/489/5 167/153/5
f 91/98/5 425/432/5 429/439/5 95/104/5
f 95/104/5 429/439/5 430/441/5 96/106/5
f 96/106/5 430/441/5 431/443/5 97/108/5
f 97/108/5 431/443/5 432/445/5 98/110/5
f 153/147/5 487/481/5 451/459/5 117/125/5
f 98/110/5 432/445/5 433/447/5 99/112/5
f 28/28/5 362/362/5 336/361/5 2/29/5
f 99/112/5 433/447/5 434/429/5 100/95/5
f 29/31/5 363/364/5 362/362/5 28/28/5
f 30/16/5 364/348/5 363/364/5 29/31/5
f 170/175/5 504/509/5 515/508/5 181/176/5
f 172/179/5 506/513/5 522/512/5 188/180/5
f 33/87/5 367/419/5 368/643/5 34/309/5
f 175/183/5 509/517/5 529/516/5 195/184/5
f 51/39/5 385/375/5 369/374/5 35/40/5
f 176/186/5 510/519/5 506/513/5 172/179/5
f 177/188/5 511/521/5 510/519/5 176/186/5
f 94/102/5 428/436/5 441/433/5 107/97/5
f 178/190/5 512/523/5 511/521/5 177/188/5
f 179/192/5 513/525/5 512/523/5 178/190/5
f 58/43/8 392/379/8 372/378/8 38/44/8
f 180/194/5 514/527/5 513/525/5 179/192/5
f 181/176/5 515/508/5 514/527/5 180/194/5
f 35/40/5 369/374/5 373/381/5 39/46/5
f 39/46/5 373/381/5 374/383/5 40/48/5
f 88/114/5 422/450/5 446/449/5 112/115/5
f 40/48/5 374/383/5 375/385/5 41/50/5
f 112/115/5 446/449/5 447/452/5 113/117/5
f 41/50/5 375/385/5 376/387/5 42/52/5
f 113/117/11 447/452/11 448/437/11 114/101/11
f 42/52/5 376/387/5 377/389/5 43/54/5
f 43/54/5 377/389/5 378/371/5 44/37/5
f 100/95/5 434/429/5 395/399/5 61/65/5
g onda_main_Plane.004_front
usemtl front
f 48/318/12 382/652/12 383/653/12 49/319/12
f 32/34/13 366/368/13 393/367/13 59/35/13
f 49/319/14 383/653/14 384/654/14 50/320/14
f 115/120/13 449/456/13 450/455/13 116/121/13
f 189/245/15 523/579/15 507/586/15 173/252/15
f 116/121/16 450/455/16 471/605/16 137/271/16
f 190/242/17 524/576/17 508/578/17 174/244/17
f 120/283/18 454/617/18 467/616/18 133/282/18
f 191/241/19 525/575/19 524/576/19 190/242/19
f 192/243/20 526/577/20 525/575/20 191/241/20
f 121/273/21 455/607/21 468/610/21 134/274/21
f 36/321/22 370/655/22 386/648/22 52/314/22
f 37/313/23 371/647/23 387/645/23 53/311/23
f 53/311/24 387/645/24 388/644/24 54/310/24
f 54/310/25 388/644/25 389/646/25 55/312/25
f 128/278/13 462/612/13 452/600/13 118/266/13
f 129/277/26 463/611/26 462/612/26 128/278/26
f 199/201/13 533/534/13 532/338/13 198/2/13
f 130/279/27 464/613/27 463/611/27 129/277/27
f 220/229/28 554/563/28 533/534/28 199/201/28
f 131/280/29 465/614/29 464/613/29 130/279/29
f 138/140/30 472/475/30 473/474/30 139/141/30
f 132/281/31 466/615/31 465/614/31 131/280/31
f 215/237/32 549/571/32 535/572/32 201/238/32
f 133/282/33 467/616/33 466/615/33 132/281/33
f 6/322/13 340/656/13 379/650/13 45/316/13
f 59/35/13 393/367/13 394/396/13 60/61/13
f 217/231/34 551/565/34 536/564/34 202/230/34
f 60/61/16 394/396/16 417/633/16 83/299/16
f 64/308/35 398/642/35 412/641/35 78/307/35
f 134/274/15 468/610/15 454/617/15 120/283/15
f 65/300/21 399/634/21 414/635/21 80/301/21
f 135/268/17 469/604/17 455/607/17 121/273/17
f 136/267/19 470/601/19 469/604/19 135/268/19
f 210/233/36 544/567/36 545/566/36 211/232/36
f 137/271/20 471/605/20 470/601/20 136/267/20
f 211/232/37 545/566/37 546/568/37 212/234/37
f 266/90/13 600/424/13 472/475/13 138/140/13
f 212/234/38 546/568/38 547/569/38 213/235/38
f 213/235/12 547/569/12 548/570/12 214/236/12
f 214/236/14 548/570/14 549/571/14 215/237/14
f 73/303/13 407/637/13 396/630/13 62/296/13
f 74/302/26 408/636/26 407/637/26 73/303/26
f 164/256/28 498/590/28 475/478/28 141/144/28
f 75/304/27 409/638/27 408/636/27 74/302/27
f 76/305/29 410/639/29 409/638/29 75/304/29
f 159/264/32 493/598/32 479/599/32 145/265/32
f 77/306/31 411/640/31 410/639/31 76/305/31
f 78/307/33 412/641/33 411/640/33 77/306/33
f 201/238/22 535/572/22 551/565/22 217/231/22
f 161/258/34 495/592/34 480/591/34 146/257/34
f 202/230/23 536/564/23 552/562/23 218/228/23
f 4/3/16 338/337/16 361/659/16 27/325/16
f 218/228/24 552/562/24 553/561/24 219/227/24
f 219/227/25 553/561/25 554/563/25 220/229/25
f 8/334/35 342/668/35 356/667/35 22/333/35
f 9/326/21 343/660/21 358/661/21 24/327/21
f 80/301/15 414/635/15 398/642/15 64/308/15
f 81/298/17 415/632/17 399/634/17 65/300/17
f 154/260/36 488/594/36 489/593/36 155/259/36
f 82/297/19 416/631/19 415/632/19 81/298/19
f 155/259/37 489/593/37 490/595/37 156/261/37
f 83/299/20 417/633/20 416/631/20 82/297/20
f 171/239/13 505/573/13 544/567/13 210/233/13
f 156/261/38 490/595/38 491/596/38 157/262/38
f 157/262/12 491/596/12 492/597/12 158/263/12
f 141/144/13 475/478/13 502/477/13 168/145/13
f 158/263/14 492/597/14 493/598/14 159/264/14
f 17/329/13 351/663/13 340/656/13 6/322/13
f 198/2/13 532/338/13 338/337/13 4/3/13
f 18/328/26 352/662/26 351/663/26 17/329/26
f 19/330/27 353/664/27 352/662/27 18/328/27
f 89/93/30 423/425/30 600/424/30 266/90/30
f 20/331/29 354/665/29 353/664/29 19/330/29
f 21/332/31 355/666/31 354/665/31 20/331/31
f 22/333/33 356/667/33 355/666/33 21/332/33
f 90/92/13 424/426/13 423/425/13 89/93/13
f 145/265/22 479/599/22 495/592/22 161/258/22
f 111/286/28 445/620/28 424/426/28 90/92/28
f 146/257/23 480/591/23 496/589/23 162/255/23
f 106/294/32 440/628/32 426/629/32 92/295/32
f 162/255/24 496/589/24 497/588/24 163/254/24
f 163/254/25 497/588/25 498/590/25 164/256/25
f 108/288/34 442/622/34 427/621/34 93/287/34
f 24/327/15 358/661/15 342/668/15 8/334/15
f 238/119/7 572/453/7 449/456/7 115/120/7
f 25/324/17 359/658/17 343/660/17 9/326/17
f 26/323/19 360/657/19 359/658/19 25/324/19
f 27/325/20 361/659/20 360/657/20 26/323/20
f 118/266/13 452/600/13 488/594/13 154/260/13
f 168/145/13 502/477/13 503/506/13 169/171/13
f 101/290/36 435/624/36 436/623/36 102/289/36
f 102/289/37 436/623/37 437/625/37 103/291/37
f 103/291/38 437/625/38 438/626/38 104/292/38
f 169/171/16 503/506/16 526/577/16 192/243/16
f 104/292/12 438/626/12 439/627/12 105/293/12
f 105/293/14 439/627/14 440/628/14 106/294/14
f 173/252/35 507/586/35 521/585/35 187/251/35
f 174/244/21 508/578/21 523/579/21 189/245/21
f 55/312/28 389/646/28 366/368/28 32/34/28
f 50/320/32 384/654/32 370/655/32 36/321/32
f 92/295/22 426/629/22 442/622/22 108/288/22
f 52/314/34 386/648/34 371/647/34 37/313/34
f 93/287/23 427/621/23 443/619/23 109/285/23
f 109/285/24 443/619/24 444/618/24 110/284/24
f 182/247/13 516/581/13 505/573/13 171/239/13
f 110/284/25 444/618/25 445/620/25 111/286/25
f 183/246/26 517/580/26 516/581/26 182/247/26
f 184/248/27 518/582/27 517/580/27 183/246/27
f 185/249/29 519/583/29 518/582/29 184/248/29
f 186/250/31 520/584/31 519/583/31 185/249/31
f 187/251/33 521/585/33 520/584/33 186/250/33
f 45/316/36 379/650/36 380/649/36 46/315/36
f 46/315/37 380/649/37 381/651/37 47/317/37
f 62/296/13 396/630/13 435/624/13 101/290/13
f 47/317/38 381/651/38 382/652/38 48/318/38
