<?xml version="1.0" encoding="utf-8"?>
<COLLADA xmlns="http://www.collada.org/2005/11/COLLADASchema" version="1.4.1" xmlns:xsi="http://www.w3.org/2001/XMLSchema-instance">
  <asset>
    <contributor>
      <author>Blender User</author>
      <authoring_tool>Blender 3.2.0 commit date:2022-06-08, commit time:10:22, hash:e05e1e369187</authoring_tool>
    </contributor>
    <created>2023-03-08T13:25:50</created>
    <modified>2023-03-08T13:25:50</modified>
    <unit name="meter" meter="1"/>
    <up_axis>Z_UP</up_axis>
  </asset>
  <library_effects>
    <effect id="gora_dol-effect">
      <profile_COMMON>
        <technique sid="common">
          <lambert>
            <emission>
              <color sid="emission">0 0 0 1</color>
            </emission>
            <diffuse>
              <color sid="diffuse">0.8 0.8 0.8 1</color>
            </diffuse>
            <index_of_refraction>
              <float sid="ior">1.45</float>
            </index_of_refraction>
          </lambert>
        </technique>
      </profile_COMMON>
    </effect>
    <effect id="tyl-effect">
      <profile_COMMON>
        <technique sid="common">
          <lambert>
            <emission>
              <color sid="emission">0 0 0 1</color>
            </emission>
            <diffuse>
              <color sid="diffuse">0.8 0.8 0.8 1</color>
            </diffuse>
            <index_of_refraction>
              <float sid="ior">1.45</float>
            </index_of_refraction>
          </lambert>
        </technique>
      </profile_COMMON>
    </effect>
    <effect id="front-effect">
      <profile_COMMON>
        <technique sid="common">
          <lambert>
            <emission>
              <color sid="emission">0 0 0 1</color>
            </emission>
            <diffuse>
              <color sid="diffuse">0.8 0.8 0.8 1</color>
            </diffuse>
            <index_of_refraction>
              <float sid="ior">1.45</float>
            </index_of_refraction>
          </lambert>
        </technique>
      </profile_COMMON>
    </effect>
  </library_effects>
  <library_images/>
  <library_materials>
    <material id="gora_dol-material" name="gora_dol">
      <instance_effect url="#gora_dol-effect"/>
    </material>
    <material id="tyl-material" name="tyl">
      <instance_effect url="#tyl-effect"/>
    </material>
    <material id="front-material" name="front">
      <instance_effect url="#front-effect"/>
    </material>
  </library_materials>
  <library_geometries>
    <geometry id="Plane_007-mesh" name="Plane.007">
      <mesh>
        <source id="Plane_007-mesh-positions">
          <float_array id="Plane_007-mesh-positions-array" count="552">-0.01832884 -0.005259037 -1.35 -0.01832884 0.007440924 -1.35 -0.0138722 -0.005259037 -1.35 -0.01600861 -0.005259037 -1.35 -0.01600861 0.007440924 -1.35 -0.0138722 0.007440924 -1.35 -0.002068817 -0.004309058 -1.35 -0.002068817 0.002741277 -1.35 -0.00804162 -0.004309058 -1.35 -0.00804162 0.003766477 -1.35 -0.01037031 0.004834353 -1.35 -0.01037031 -0.004823386 -1.35 -0.007188379 -0.004309058 -1.35 -0.006335139 -0.004309058 -1.35 -0.005481898 -0.004309058 -1.35 -0.004628598 -0.004309058 -1.35 -0.003775358 -0.004309058 -1.35 -0.002922117 -0.004309058 -1.35 -0.002922117 0.002741277 -1.35 -0.003775358 0.002806901 -1.35 -0.004628598 0.00292015 -1.35 -0.005481898 0.003068685 -1.35 -0.006335139 0.003269076 -1.35 -0.007188379 0.003490209 -1.35 -0.009205996 -0.004309058 -1.35 -0.009205996 0.004253745 -1.35 -0.01124578 0.005361557 -1.35 -0.01212126 0.005930185 -1.35 -0.01299673 0.006664812 -1.35 -0.01299673 -0.005259037 -1.35 -0.01212126 -0.005259037 -1.35 -0.01124578 -0.005259037 -1.35 0.01198244 -0.005259037 -1.35 0.009734511 -0.005259037 -1.35 0.01198244 0.007440924 -1.35 0.009734511 0.007440924 -1.35 0.003903925 -0.004309058 -1.35 0.003903925 0.003766477 -1.35 0.005919337 0.004682838 -1.35 0.005919337 -0.004309058 -1.35 0.003050625 -0.004309058 -1.35 0.002197384 -0.004309058 -1.35 0.001344144 -0.004309058 -1.35 4.90904e-4 -0.004309058 -1.35 -3.62352e-4 -0.004309058 -1.35 -0.001215577 -0.004309058 -1.35 -0.001215577 0.002741277 -1.35 -3.62352e-4 0.002806901 -1.35 4.90904e-4 0.00292015 -1.35 0.001344144 0.003068685 -1.35 0.002197384 0.003269076 -1.35 0.003050625 0.003490209 -1.35 0.004799306 -0.004309058 -1.35 0.004799306 0.004141211 -1.35 0.007108092 0.005361557 -1.35 0.007983565 0.005930185 -1.35 0.008859038 0.006664812 -1.35 0.008859038 -0.005259037 -1.35 0.007983565 -0.005259037 -1.35 0.007108092 -0.004900515 -1.35 0.01967114 -6.05691e-4 -1.35 0.01967114 -0.005259037 -1.35 -0.01832884 -2.69613e-4 -1.35 -0.0138722 -2.69613e-4 -1.35 -0.01600861 -2.69613e-4 -1.35 -0.002068817 -2.69613e-4 -1.35 -0.00804162 -2.69613e-4 -1.35 -0.01037031 -2.69613e-4 -1.35 -0.007188379 -2.69613e-4 -1.35 -0.006335139 -2.69613e-4 -1.35 -0.005481898 -2.69613e-4 -1.35 -0.004628598 -2.69613e-4 -1.35 -0.003775358 -2.69613e-4 -1.35 -0.002922117 -2.69613e-4 -1.35 -0.009205996 -2.69613e-4 -1.35 -0.01299673 -2.69613e-4 -1.35 -0.01212126 -2.69613e-4 -1.35 -0.01124578 -2.69613e-4 -1.35 0.01198244 -6.05691e-4 -1.35 0.009734511 -2.69613e-4 -1.35 0.003903925 -2.69613e-4 -1.35 0.005919337 -2.69613e-4 -1.35 0.003050625 -2.69613e-4 -1.35 0.002197384 -2.69613e-4 -1.35 0.001344144 -2.69613e-4 -1.35 4.90904e-4 -2.69613e-4 -1.35 -3.62352e-4 -2.69613e-4 -1.35 -0.001215577 -2.69613e-4 -1.35 0.004799306 -2.69613e-4 -1.35 0.008859038 -2.69613e-4 -1.35 0.007983565 -2.69613e-4 -1.35 0.007108032 -2.69613e-4 -1.35 -0.01832884 -0.005259037 1.35 -0.01832884 0.007440924 1.35 -0.0138722 -0.005259037 1.35 -0.01600861 -0.005259037 1.35 -0.01600861 0.007440924 1.35 -0.0138722 0.007440924 1.35 -0.002068817 -0.004309058 1.35 -0.002068817 0.002741277 1.35 -0.00804162 -0.004309058 1.35 -0.00804162 0.003766477 1.35 -0.01037031 0.004834353 1.35 -0.01037031 -0.004823386 1.35 -0.007188379 -0.004309058 1.35 -0.006335139 -0.004309058 1.35 -0.005481898 -0.004309058 1.35 -0.004628598 -0.004309058 1.35 -0.003775358 -0.004309058 1.35 -0.002922117 -0.004309058 1.35 -0.002922117 0.002741277 1.35 -0.003775358 0.002806901 1.35 -0.004628598 0.00292015 1.35 -0.005481898 0.003068685 1.35 -0.006335139 0.003269076 1.35 -0.007188379 0.003490209 1.35 -0.009205996 -0.004309058 1.35 -0.009205996 0.004253745 1.35 -0.01124578 0.005361557 1.35 -0.01212126 0.005930185 1.35 -0.01299673 0.006664812 1.35 -0.01299673 -0.005259037 1.35 -0.01212126 -0.005259037 1.35 -0.01124578 -0.005259037 1.35 0.01198244 -0.005259037 1.35 0.009734511 -0.005259037 1.35 0.01198244 0.007440924 1.35 0.009734511 0.007440924 1.35 0.003903925 -0.004309058 1.35 0.003903925 0.003766477 1.35 0.005919337 0.004682838 1.35 0.005919337 -0.004309058 1.35 0.003050625 -0.004309058 1.35 0.002197384 -0.004309058 1.35 0.001344144 -0.004309058 1.35 4.90904e-4 -0.004309058 1.35 -3.62352e-4 -0.004309058 1.35 -0.001215577 -0.004309058 1.35 -0.001215577 0.002741277 1.35 -3.62352e-4 0.002806901 1.35 4.90904e-4 0.00292015 1.35 0.001344144 0.003068685 1.35 0.002197384 0.003269076 1.35 0.003050625 0.003490209 1.35 0.004799306 -0.004309058 1.35 0.004799306 0.004141211 1.35 0.007108092 0.005361557 1.35 0.007983565 0.005930185 1.35 0.008859038 0.006664812 1.35 0.008859038 -0.005259037 1.35 0.007983565 -0.005259037 1.35 0.007108092 -0.004900515 1.35 0.01967114 -6.05691e-4 1.35 0.01967114 -0.005259037 1.35 -0.01832884 -2.69613e-4 1.35 -0.0138722 -2.69613e-4 1.35 -0.01600861 -2.69613e-4 1.35 -0.002068817 -2.69613e-4 1.35 -0.00804162 -2.69613e-4 1.35 -0.01037031 -2.69613e-4 1.35 -0.007188379 -2.69613e-4 1.35 -0.006335139 -2.69613e-4 1.35 -0.005481898 -2.69613e-4 1.35 -0.004628598 -2.69613e-4 1.35 -0.003775358 -2.69613e-4 1.35 -0.002922117 -2.69613e-4 1.35 -0.009205996 -2.69613e-4 1.35 -0.01299673 -2.69613e-4 1.35 -0.01212126 -2.69613e-4 1.35 -0.01124578 -2.69613e-4 1.35 0.01198244 -6.05691e-4 1.35 0.009734511 -2.69613e-4 1.35 0.003903925 -2.69613e-4 1.35 0.005919337 -2.69613e-4 1.35 0.003050625 -2.69613e-4 1.35 0.002197384 -2.69613e-4 1.35 0.001344144 -2.69613e-4 1.35 4.90904e-4 -2.69613e-4 1.35 -3.62352e-4 -2.69613e-4 1.35 -0.001215577 -2.69613e-4 1.35 0.004799306 -2.69613e-4 1.35 0.008859038 -2.69613e-4 1.35 0.007983565 -2.69613e-4 1.35 0.007108032 -2.69613e-4 1.35</float_array>
          <technique_common>
            <accessor source="#Plane_007-mesh-positions-array" count="184" stride="3">
              <param name="X" type="float"/>
              <param name="Y" type="float"/>
              <param name="Z" type="float"/>
            </accessor>
          </technique_common>
        </source>
        <source id="Plane_007-mesh-normals">
          <float_array id="Plane_007-mesh-normals-array" count="282">0 0 -1 2.66509e-5 0 -1 -6.58689e-5 0 -1 -1.02974e-4 0 -1 -6.43441e-5 0 -1 1.91759e-4 0 -1 -3.44911e-5 0 -1 -3.32604e-5 0 -1 -4.27727e-5 0 -1 1.43044e-4 0 -1 -9.6389e-5 0 -1 -5.44316e-5 0 -1 1.69022e-5 0 -1 1.73909e-5 0 -1 -5.89518e-5 0 -1 3.08445e-4 0 -1 0 0 1 -5.14871e-5 0 1 1.1993e-4 0 1 1.67901e-4 0 1 2.70434e-4 0 1 -1.39127e-4 0 1 -2.35807e-4 0 1 8.57921e-5 0 1 -2.6846e-4 0 1 6.89828e-5 0 1 5.87679e-5 0 1 -1.06932e-5 0 1 1.12392e-4 0 1 -2.12056e-4 0 1 1.45152e-4 0 1 -1.35216e-4 0 1 4.72275e-5 0 1 2.21038e-5 0 1 0 -1 0 0 1 0 0.4040641 -0.9147307 0 0.3860536 0.9224764 0 0.6633676 0.7482937 0 -0.07671099 0.9970534 0 0.5158464 0.8566811 0 0.3080534 0.9513691 0 -0.1315702 0.9913069 0 0.5447201 0.8386179 0 -1 0 0 -0.1714785 0.9851879 0 0.6427917 0.7660411 0 0.4462654 0.8949007 0 -0.2286211 0.9735156 0 0.4455096 -0.8952772 0 -0.250864 0.9680224 0 1 0 0 -0.3860538 0.9224763 0 0.07671028 0.9970535 0 -0.6633649 0.7482961 0 0.1315701 0.9913069 0 -0.4958016 0.8684359 0 0.1714784 0.985188 0 -0.5447195 0.8386184 0 -0.3080554 0.9513684 0 0.2286205 0.9735156 0 -0.6427938 0.7660393 0 0.2508665 0.9680218 0 -0.4353843 0.9002448 0 -0.4454801 -0.8952919 0 -0.3789366 -0.9254227 0 2.11471e-5 0 -1 1.33256e-5 0 -1 -4.15176e-5 0 -1 -1.06604e-4 0 1 -2.19563e-5 0 1 -8.30352e-5 0 1 0.6633676 0.7482936 0 -0.07671099 0.9970534 0 0.308053 0.9513692 0 -0.1315702 0.991307 0 0.5447183 0.8386191 0 0.6427905 0.766042 0 0.4462653 0.8949007 0 -0.2286211 0.9735156 0 0.4455095 -0.8952772 0 -0.2508639 0.9680224 0 0.07671034 0.9970535 0 0.1315702 0.9913069 0 -0.4958012 0.8684362 0 0.1714785 0.9851879 0 -0.5447189 0.8386187 0 -0.3080555 0.9513684 0 0.2286207 0.9735156 0 -0.6427945 0.7660388 0 0.2508664 0.9680218 0 -0.4353843 0.9002448 0 -0.4454805 -0.8952918 0 -0.3789371 -0.9254225 0</float_array>
          <technique_common>
            <accessor source="#Plane_007-mesh-normals-array" count="94" stride="3">
              <param name="X" type="float"/>
              <param name="Y" type="float"/>
              <param name="Z" type="float"/>
            </accessor>
          </technique_common>
        </source>
        <source id="Plane_007-mesh-map-0">
          <float_array id="Plane_007-mesh-map-0-array" count="2184">1 0.5 0 1 0 0.5 0 1 1 0.5 0 0.5 1 0.5 1 0 1 0.5 1 0.5 1 0 1 0.5 1 0.5 1 0 1 0 1 0.5 1 0 1 0.5 1 0.5 1 0 1 0.5 1 0.5 1 0 1 0.5 1 0.5 1 0 1 0.5 1 0.5 1 0 1 0.5 1 0.5 1 0 1 0.5 1 0.5 1 0 1 0 1 0.5 1 0 1 0.5 1 0.5 1 0 1 0.5 1 0.5 1 0 1 0.5 1 0.5 0 1 0 0.5 1 0 1 0.5 1 0.5 1 0 1 0.5 1 0.5 1 0.5 1 0 1 0.5 1 0 1 0.5 1 0.5 1 0 1 0.5 1 0.5 1 0 1 0.5 1 0.5 1 0 1 0.5 1 0.5 1 0 1 0.5 1 0.5 1 0 1 0.5 1 0.5 1 0 1 0.5 1 0.5 1 0 1 0.5 1 0.5 1 0 1 0.5 1 0.5 1 0.5 1 0 1 0.5 0 0.5 0 0 0 0 1 0.5 1 1 1 1 1 0.5 1 1 1 1 1 0.5 1 1 1 1 1 0.5 1 1 1 1 1 0.5 1 1 1 1 1 0.5 1 1 1 1 1 0.5 1 1 1 1 1 0.5 1 1 1 1 1 0.5 1 1 1 1 1 0.5 1 1 1 1 1 0.5 1 1 1 1 1 0.5 1 1 1 1 1 0.5 1 1 1 1 1 0 0 0.5 0 0 1 1 1 0.5 1 1 1 1 1 0.5 1 1 1 1 1 0.5 1 1 1 1 1 0.5 1 1 1 1 1 0.5 1 1 1 1 1 0.5 1 1 1 1 1 0.5 1 1 1 1 1 0.5 1 1 1 1 1 0.5 1 1 1 1 1 0.5 1 1 1 1 1 0.5 1 1 1 1 1 0.5 1 1 1 1 1 0.5 1 1 0 0.5 1 0 0 0 1 0 0 0.5 0 0 0 1 1 0.5 0 0.5 1 0.5 0 1 0 0.5 1 0 1 0.5 1 0.5 1 0 1 0.5 1 0.5 1 0.5 1 0 1 0.5 1 0 1 0.5 1 0.5 1 0 1 0.5 1 0.5 1 0 1 0.5 1 0.5 1 0 1 0.5 1 0.5 1 0 1 0.5 1 0.5 1 0 1 0.5 1 0.5 1 0.5 1 0 1 0.5 1 0 1 0.5 1 0.5 1 0 1 0.5 1 0.5 1 0 1 0.5 1 0.5 0 1 1 0.5 0 0.5 1 0.5 1 0 1 0.5 1 0.5 1 0 1 0.5 1 0.5 1 0 1 0 1 0.5 1 0 1 0.5 1 0.5 1 0 1 0.5 1 0.5 1 0 1 0.5 1 0.5 1 0 1 0.5 1 0.5 1 0 1 0.5 1 0.5 1 0 1 0.5 1 0.5 1 0 1 0.5 1 0.5 1 0 1 0.5 1 0.5 1 0 1 0.5 1 0.5 1 0 1 0 0 0 0 0.5 0 0 1 1 1 0.5 1 1 1 1 1 0.5 1 1 1 1 1 0.5 1 1 1 1 1 0.5 1 1 1 1 1 0.5 1 1 1 1 1 0.5 1 1 1 1 1 0.5 1 1 1 1 1 0.5 1 1 1 1 1 0.5 1 1 1 1 1 0.5 1 1 1 1 1 0.5 1 1 1 1 1 0.5 1 1 1 1 1 0.5 1 1 0 0.5 1 0 0 0 1 0.5 1 1 1 1 1 0.5 1 1 1 1 1 0.5 1 1 1 1 1 0.5 1 1 1 1 1 0.5 1 1 1 1 1 0.5 1 1 1 1 1 0.5 1 1 1 1 1 0.5 1 1 1 1 1 0.5 1 1 1 1 1 0.5 1 1 1 1 1 0.5 1 1 1 1 1 0.5 1 1 1 1 1 0.5 1 1 1 1 1 0 0 0.5 0 0 0 0.5 1 0 0 0 1 0 1 0 1 0 0 1 1 1 0 1 1 0 1 0 1 0 1 0 1 0 1 0 1 0 1 0 1 0 1 0 1 0 1 0 1 0 1 0 1 0 1 1 1 1 1 1 1 0 1 0 1 0 1 1 1 1 1 1 1 1 1 1 1 1 0 0 1 0 0 0 1 0 1 0 1 0 1 0 1 0 1 0 1 1 0 1 1 1 1 1 1 1 1 1 1 1 1 1 1 1 1 1 1 1 1 1 0 0.5 0 0.5 0 0.5 1 1 1 1 1 1 1 1 1 1 1 1 1 0 1 0.5 1 0 1 1 1 1 1 1 1 1 1 1 1 1 1 1 1 1 1 1 1 1 1 1 1 1 1 0 1 0 1 0 1 0 1 0 1 0 1 1 1 1 1 1 1 0 1 0 1 0 1 0 1 0 1 0 1 0 1 0 1 0 0 0 0 0 0 0 1 0 1 0 1 0 0 0.5 0 0 0 0.5 1 0 1 0 1 0 1 0 1 0 1 0 0 1 0 0.5 0 1 1 0 1 0 1 0 0 0 1 0 0 0 1 0 1 0 1 0 1 0 1 0 1 0 1 1 1 1 1 1 1 1 1 1 1 1 1 1 0 1 1 1 1 1 1 1 1 1 1 1 1 1 1 1 1 1 1 1 1 1 1 1 1 1 1 1 1 0 1 0 1 0 1 1 1 1 1 1 1 1 1 1 1 1 1 1 1 1 1 1 1 1 1 1 1 1 1 1 1 1 1 1 1 1 1 1 1 1 1 0 1 0 1 0 1 1 1 1 1 1 1 0.5 1 1 1 0.5 1 0 1 0 1 0 1 0 1 0 1 0 1 0 1 0 1 0 1 0 0 0 1 0 1 0 1 0 1 0 1 0.5 1 1 0 1 0 1 1 1 1 0.5 1 0.5 1 0 1 0 1 0.5 1 0 1 0 1 0.5 1 0.5 1 0 1 0.5 1 0 1 0 1 0.5 1 0 1 0 1 0.5 1 0 1 0 1 0.5 1 0 1 0 1 0.5 1 0 1 0 1 0.5 1 0 1 0 1 0.5 1 0.5 1 0 1 0.5 1 0 1 0 1 0.5 1 0 1 0 1 0.5 1 0 1 0 1 0.5 1 1 0 1 1 0 1 0 1 0.5 1 0 1 0 1 0.5 1 0.5 1 0 1 0 1 0 1 0 1 0.5 1 0 1 0 1 0.5 1 0 1 0 1 0.5 1 0 1 0 1 0.5 1 0 1 0 1 0.5 1 0 1 0 1 0.5 1 0 1 0 1 0.5 1 0 1 0 1 0.5 1 0 1 0 1 0.5 1 0.5 1 0 1 0 0 0.5 0 0.5 0 0 1 0.5 1 0.5 1 1 1 0.5 1 0.5 1 1 1 0.5 1 0.5 1 1 1 0.5 1 0.5 1 1 1 0.5 1 0.5 1 1 1 0.5 1 0.5 1 1 1 0.5 1 0.5 1 1 1 0.5 1 0.5 1 1 1 0.5 1 0.5 1 1 1 0.5 1 0.5 1 1 1 0.5 1 0.5 1 1 1 0.5 1 0.5 1 1 1 0.5 1 0.5 1 1 1 0 1 0.5 0 0.5 1 1 1 0.5 1 0.5 1 1 1 0.5 1 0.5 1 1 1 0.5 1 0.5 1 1 1 0.5 1 0.5 1 1 1 0.5 1 0.5 1 1 1 0.5 1 0.5 1 1 1 0.5 1 0.5 1 1 1 0.5 1 0.5 1 1 1 0.5 1 0.5 1 1 1 0.5 1 0.5 1 1 1 0.5 1 0.5 1 1 1 0.5 1 0.5 1 1 1 0.5 1 0.5 0 0.5 1 0.5 1 0 1 0 1 0.5 0 0.5 0 1 1 1 1 0.5 1 0.5 1 1 0 1 1 0 1 0 1 0.5 1 0 1 0 1 0.5 1 0.5 1 0 1 0 1 0 1 0 1 0.5 1 0 1 0 1 0.5 1 0 1 0 1 0.5 1 0 1 0 1 0.5 1 0 1 0 1 0.5 1 0 1 0 1 0.5 1 0.5 1 0 1 0 1 0 1 0 1 0.5 1 0 1 0 1 0.5 1 0 1 0 1 0.5 0 1 1 1 1 0.5 1 0.5 1 0 1 0 1 0.5 1 0 1 0 1 0.5 1 0.5 1 0 1 0.5 1 0 1 0 1 0.5 1 0 1 0 1 0.5 1 0 1 0 1 0.5 1 0 1 0 1 0.5 1 0 1 0 1 0.5 1 0 1 0 1 0.5 1 0 1 0 1 0.5 1 0 1 0 1 0.5 1 0 1 0 1 0.5 1 0.5 1 0 0 0 0 0.5 0 0.5 1 1 1 0.5 1 0.5 1 1 1 0.5 1 0.5 1 1 1 0.5 1 0.5 1 1 1 0.5 1 0.5 1 1 1 0.5 1 0.5 1 1 1 0.5 1 0.5 1 1 1 0.5 1 0.5 1 1 1 0.5 1 0.5 1 1 1 0.5 1 0.5 1 1 1 0.5 1 0.5 1 1 1 0.5 1 0.5 1 1 1 0.5 1 0.5 1 1 1 0.5 1 0.5 0 0.5 1 0.5 1 0 1 0.5 1 0.5 1 1 1 0.5 1 0.5 1 1 1 0.5 1 0.5 1 1 1 0.5 1 0.5 1 1 1 0.5 1 0.5 1 1 1 0.5 1 0.5 1 1 1 0.5 1 0.5 1 1 1 0.5 1 0.5 1 1 1 0.5 1 0.5 1 1 1 0.5 1 0.5 1 1 1 0.5 1 0.5 1 1 1 0.5 1 0.5 1 1 1 0.5 1 0.5 1 1 1 0 1 0.5 0 0.5 0 0.5 1 0.5 1 0 1 0 1 0 1 0 0 1 1 1 1 1 1 0 1 0 1 0 1 0 1 0 1 0 1 0 1 0 1 0 1 0 1 0 1 0 1 0 1 0 1 0 1 1 1 1 1 1 1 0 1 0 1 0 1 1 1 1 1 1 1 1 1 1 1 1 0 0 1 0 1 0 1 0 1 0 1 0 1 0 1 0 1 0 1 1 0 1 0 1 1 1 1 1 1 1 1 1 1 1 1 1 1 1 1 1 1 1 0 0.5 0 0.5 0 0.5 1 1 1 1 1 1 1 1 1 1 1 1 1 0 1 0.5 1 0.5 1 1 1 1 1 1 1 1 1 1 1 1 1 1 1 1 1 1 1 1 1 1 1 1 1 0 1 0 1 0 1 0 1 0 1 0 1 1 1 1 1 1 1 0 1 0 1 0 1 0 1 0 1 0 1 0 1 0 1 0 0 0 0 0 0 0 1 0 1 0 1 0 0 0.5 0 0 0 0 1 0 1 0 1 0 1 0 1 0 1 0 0 1 0 0.5 0 0.5 1 0 1 0 1 0 0 0 1 0 1 0 1 0 1 0 1 0 1 0 1 0 1 0 1 1 1 1 1 1 1 1 1 1 1 1 1 1 0 1 0 1 1 1 1 1 1 1 1 1 1 1 1 1 1 1 1 1 1 1 1 1 1 1 1 1 1 0 1 0 1 0 1 1 1 1 1 1 1 1 1 1 1 1 1 1 1 1 1 1 1 1 1 1 1 1 1 1 1 1 1 1 1 1 1 1 1 1 1 0 1 0 1 0 1 1 1 1 1 1 1 0.5 1 1 1 1 1 0 1 0 1 0 1 0 1 0 1 0 1 0 1 0 1 0 1 0 0 0 0 0 1 0 1 0 1 0</float_array>
          <technique_common>
            <accessor source="#Plane_007-mesh-map-0-array" count="1092" stride="2">
              <param name="S" type="float"/>
              <param name="T" type="float"/>
            </accessor>
          </technique_common>
        </source>
        <vertices id="Plane_007-mesh-vertices">
          <input semantic="POSITION" source="#Plane_007-mesh-positions"/>
        </vertices>
        <triangles material="gora_dol-material" count="236">
          <input semantic="VERTEX" source="#Plane_007-mesh-vertices" offset="0"/>
          <input semantic="NORMAL" source="#Plane_007-mesh-normals" offset="1"/>
          <input semantic="TEXCOORD" source="#Plane_007-mesh-map-0" offset="2" set="0"/>
          <p>62 0 0 4 0 1 64 0 2 4 0 3 63 0 4 64 0 5 65 0 6 17 0 7 73 0 8 66 0 9 24 0 10 74 0 11 77 1 12 11 1 13 31 1 14 68 0 15 8 0 16 66 0 17 69 0 18 12 0 19 68 0 20 70 0 21 13 0 22 69 0 23 71 0 24 14 0 25 70 0 26 72 0 27 15 0 28 71 0 29 73 0 30 16 0 31 72 0 32 67 2 33 24 2 34 11 2 35 75 0 36 2 0 37 63 0 38 76 0 39 29 0 40 75 0 41 77 0 42 30 0 43 76 0 44 79 3 45 34 3 46 78 3 47 45 0 48 65 0 49 87 0 50 52 0 51 80 0 52 88 0 53 91 0 54 39 0 55 81 0 56 36 0 57 82 0 58 80 0 59 40 0 60 83 0 61 82 0 62 41 0 63 84 0 64 83 0 65 42 0 66 85 0 67 84 0 68 43 0 69 86 0 70 85 0 71 44 0 72 87 0 73 86 0 74 39 0 75 88 0 76 81 0 77 33 0 78 89 0 79 79 0 80 57 0 81 90 0 82 89 0 83 90 0 84 59 0 85 91 0 86 78 0 87 61 0 88 32 0 89 90 4 90 54 4 91 55 4 92 89 5 93 55 5 94 56 5 95 79 6 96 56 6 97 35 6 98 81 0 99 53 0 100 38 0 101 86 7 102 46 7 103 47 7 104 85 8 105 47 8 106 48 8 107 84 9 108 48 9 109 49 9 110 83 10 111 49 10 112 50 10 113 82 11 114 50 11 115 51 11 116 80 12 117 51 12 118 37 12 119 91 13 120 38 13 121 54 13 122 88 14 123 37 14 124 53 14 125 87 0 126 7 0 127 46 0 128 33 0 129 78 0 130 32 0 131 26 0 132 76 0 133 27 0 134 27 0 135 75 0 136 28 0 137 28 0 138 63 0 139 5 0 140 25 0 141 67 0 142 10 0 143 18 0 144 72 0 145 19 0 146 19 0 147 71 0 148 20 0 149 20 0 150 70 0 151 21 0 152 21 15 153 69 15 154 22 15 155 22 0 156 68 0 157 23 0 158 23 0 159 66 0 160 9 0 161 10 0 162 77 0 163 26 0 164 9 0 165 74 0 166 25 0 167 7 0 168 73 0 169 18 0 170 64 0 171 2 0 172 3 0 173 0 0 174 64 0 175 3 0 176 96 16 177 154 16 178 156 16 179 155 16 180 96 16 181 156 16 182 109 16 183 157 16 184 165 16 185 116 16 186 158 16 187 166 16 188 169 16 189 103 16 190 159 16 191 100 16 192 160 16 193 158 16 194 104 16 195 161 16 196 160 16 197 105 16 198 162 16 199 161 16 200 106 16 201 163 16 202 162 16 203 107 16 204 164 16 205 163 16 206 108 16 207 165 16 208 164 16 209 159 16 210 116 16 211 166 16 212 94 16 213 167 16 214 155 16 215 121 16 216 168 16 217 167 16 218 122 16 219 169 16 220 168 16 221 126 17 222 171 17 223 170 17 224 157 16 225 137 16 226 179 16 227 172 16 228 144 16 229 180 16 230 183 16 231 131 16 232 151 16 233 174 16 234 128 16 235 172 16 236 175 16 237 132 16 238 174 16 239 176 16 240 133 16 241 175 16 242 177 16 243 134 16 244 176 16 245 178 16 246 135 16 247 177 16 248 179 16 249 136 16 250 178 16 251 180 16 252 131 16 253 173 16 254 181 16 255 125 16 256 171 16 257 182 16 258 149 16 259 181 16 260 182 18 261 151 18 262 150 18 263 153 16 264 170 16 265 124 16 266 146 16 267 182 16 268 147 16 269 147 16 270 181 16 271 148 16 272 148 16 273 171 16 274 127 16 275 145 19 276 173 19 277 130 19 278 138 16 279 178 16 280 139 16 281 139 16 282 177 16 283 140 16 284 140 16 285 176 16 286 141 16 287 141 16 288 175 16 289 142 16 290 142 16 291 174 16 292 143 16 293 143 20 294 172 20 295 129 20 296 130 21 297 183 21 298 146 21 299 129 22 300 180 22 301 145 22 302 99 16 303 179 16 304 138 16 305 170 16 306 125 16 307 124 16 308 168 23 309 118 23 310 119 23 311 167 24 312 119 24 313 120 24 314 155 25 315 120 25 316 97 25 317 159 26 318 117 26 319 102 26 320 164 16 321 110 16 322 111 16 323 163 27 324 111 27 325 112 27 326 162 28 327 112 28 328 113 28 329 161 29 330 113 29 331 114 29 332 160 30 333 114 30 334 115 30 335 158 31 336 115 31 337 101 31 338 169 32 339 102 32 340 118 32 341 166 33 342 101 33 343 117 33 344 165 16 345 99 16 346 110 16 347 94 16 348 156 16 349 95 16 350 156 16 351 92 16 352 95 16 353 62 0 546 1 0 547 4 0 548 4 0 549 5 0 550 63 0 551 65 0 552 6 0 553 17 0 554 66 0 555 8 0 556 24 0 557 77 0 558 67 0 559 11 0 560 68 0 561 12 0 562 8 0 563 69 0 564 13 0 565 12 0 566 70 0 567 14 0 568 13 0 569 71 0 570 15 0 571 14 0 572 72 0 573 16 0 574 15 0 575 73 0 576 17 0 577 16 0 578 67 0 579 74 0 580 24 0 581 75 0 582 29 0 583 2 0 584 76 0 585 30 0 586 29 0 587 77 0 588 31 0 589 30 0 590 79 0 591 35 0 592 34 0 593 45 0 594 6 0 595 65 0 596 52 0 597 36 0 598 80 0 599 91 66 600 59 66 601 39 66 602 36 0 603 40 0 604 82 0 605 40 0 606 41 0 607 83 0 608 41 0 609 42 0 610 84 0 611 42 0 612 43 0 613 85 0 614 43 0 615 44 0 616 86 0 617 44 0 618 45 0 619 87 0 620 39 0 621 52 0 622 88 0 623 33 0 624 57 0 625 89 0 626 57 0 627 58 0 628 90 0 629 90 67 630 58 67 631 59 67 632 78 0 633 60 0 634 61 0 635 90 0 636 91 0 637 54 0 638 89 0 639 90 0 640 55 0 641 79 0 642 89 0 643 56 0 644 81 0 645 88 0 646 53 0 647 86 0 648 87 0 649 46 0 650 85 0 651 86 0 652 47 0 653 84 0 654 85 0 655 48 0 656 83 0 657 84 0 658 49 0 659 82 0 660 83 0 661 50 0 662 80 0 663 82 0 664 51 0 665 91 0 666 81 0 667 38 0 668 88 0 669 80 0 670 37 0 671 87 0 672 65 0 673 7 0 674 33 68 675 79 68 676 78 68 677 26 0 678 77 0 679 76 0 680 27 0 681 76 0 682 75 0 683 28 0 684 75 0 685 63 0 686 25 0 687 74 0 688 67 0 689 18 0 690 73 0 691 72 0 692 19 0 693 72 0 694 71 0 695 20 0 696 71 0 697 70 0 698 21 0 699 70 0 700 69 0 701 22 0 702 69 0 703 68 0 704 23 0 705 68 0 706 66 0 707 10 0 708 67 0 709 77 0 710 9 0 711 66 0 712 74 0 713 7 0 714 65 0 715 73 0 716 64 0 717 63 0 718 2 0 719 0 0 720 62 0 721 64 0 722 96 16 723 93 16 724 154 16 725 155 16 726 97 16 727 96 16 728 109 16 729 98 16 730 157 16 731 116 16 732 100 16 733 158 16 734 169 69 735 123 69 736 103 69 737 100 16 738 104 16 739 160 16 740 104 16 741 105 16 742 161 16 743 105 16 744 106 16 745 162 16 746 106 16 747 107 16 748 163 16 749 107 16 750 108 16 751 164 16 752 108 16 753 109 16 754 165 16 755 159 70 756 103 70 757 116 70 758 94 16 759 121 16 760 167 16 761 121 16 762 122 16 763 168 16 764 122 16 765 123 16 766 169 16 767 126 16 768 127 16 769 171 16 770 157 16 771 98 16 772 137 16 773 172 16 774 128 16 775 144 16 776 183 16 777 173 16 778 131 16 779 174 16 780 132 16 781 128 16 782 175 16 783 133 16 784 132 16 785 176 16 786 134 16 787 133 16 788 177 16 789 135 16 790 134 16 791 178 16 792 136 16 793 135 16 794 179 16 795 137 16 796 136 16 797 180 16 798 144 16 799 131 16 800 181 16 801 149 16 802 125 16 803 182 16 804 150 16 805 149 16 806 182 16 807 183 16 808 151 16 809 153 16 810 152 16 811 170 16 812 146 16 813 183 16 814 182 16 815 147 16 816 182 16 817 181 16 818 148 16 819 181 16 820 171 16 821 145 16 822 180 16 823 173 16 824 138 16 825 179 16 826 178 16 827 139 16 828 178 16 829 177 16 830 140 16 831 177 16 832 176 16 833 141 16 834 176 16 835 175 16 836 142 16 837 175 16 838 174 16 839 143 16 840 174 16 841 172 16 842 130 16 843 173 16 844 183 16 845 129 16 846 172 16 847 180 16 848 99 16 849 157 16 850 179 16 851 170 71 852 171 71 853 125 71 854 168 16 855 169 16 856 118 16 857 167 16 858 168 16 859 119 16 860 155 16 861 167 16 862 120 16 863 159 16 864 166 16 865 117 16 866 164 16 867 165 16 868 110 16 869 163 16 870 164 16 871 111 16 872 162 16 873 163 16 874 112 16 875 161 16 876 162 16 877 113 16 878 160 16 879 161 16 880 114 16 881 158 16 882 160 16 883 115 16 884 169 16 885 159 16 886 102 16 887 166 16 888 158 16 889 101 16 890 165 16 891 157 16 892 99 16 893 94 16 894 155 16 895 156 16 896 156 16 897 154 16 898 92 16 899</p>
        </triangles>
        <triangles material="tyl-material" count="60">
          <input semantic="VERTEX" source="#Plane_007-mesh-vertices" offset="0"/>
          <input semantic="NORMAL" source="#Plane_007-mesh-normals" offset="1"/>
          <input semantic="TEXCOORD" source="#Plane_007-mesh-map-0" offset="2" set="0"/>
          <p>132 34 354 41 34 355 40 34 356 133 34 360 42 34 361 41 34 362 137 34 363 6 34 364 45 34 365 134 34 366 43 34 367 42 34 368 116 36 369 11 36 370 24 36 371 98 34 372 17 34 373 6 34 374 135 34 378 44 34 379 43 34 380 95 34 387 0 34 388 3 34 389 136 34 390 45 34 391 44 34 392 100 34 393 24 34 394 8 34 395 121 34 432 2 34 433 29 34 434 103 49 435 31 49 436 11 49 437 122 34 441 29 34 442 30 34 443 123 34 444 30 34 445 31 34 446 104 34 447 8 34 448 12 34 449 153 34 450 32 34 451 61 34 452 105 34 453 12 34 454 13 34 455 106 34 459 13 34 460 14 34 461 107 34 462 14 34 463 15 34 464 108 34 468 15 34 469 16 34 470 124 34 471 33 34 472 32 34 473 109 34 474 16 34 475 17 34 476 131 34 477 52 34 478 39 34 479 144 34 501 36 34 502 52 34 503 125 34 522 57 34 523 33 34 524 149 34 531 58 34 532 57 34 533 151 64 534 39 64 535 59 64 536 150 65 537 59 65 538 58 65 539 94 34 540 3 34 541 2 34 542 128 34 543 40 34 544 36 34 545 132 34 900 133 34 901 41 34 902 133 34 906 134 34 907 42 34 908 137 34 909 98 34 910 6 34 911 134 34 912 135 34 913 43 34 914 116 36 915 103 36 916 11 36 917 98 34 918 109 34 919 17 34 920 135 34 924 136 34 925 44 34 926 95 34 933 92 34 934 0 34 935 136 34 936 137 34 937 45 34 938 100 34 939 116 34 940 24 34 941 121 34 978 94 34 979 2 34 980 103 80 981 123 80 982 31 80 983 122 34 987 121 34 988 29 34 989 123 34 990 122 34 991 30 34 992 104 34 993 100 34 994 8 34 995 153 34 996 124 34 997 32 34 998 105 34 999 104 34 1000 12 34 1001 106 34 1005 105 34 1006 13 34 1007 107 34 1008 106 34 1009 14 34 1010 108 34 1014 107 34 1015 15 34 1016 124 34 1017 125 34 1018 33 34 1019 109 34 1020 108 34 1021 16 34 1022 131 34 1023 144 34 1024 52 34 1025 144 34 1047 128 34 1048 36 34 1049 125 34 1068 149 34 1069 57 34 1070 149 34 1077 150 34 1078 58 34 1079 151 92 1080 131 92 1081 39 92 1082 150 93 1083 151 93 1084 59 93 1085 94 34 1086 95 34 1087 3 34 1088 128 34 1089 132 34 1090 40 34 1091</p>
        </triangles>
        <triangles material="front-material" count="68">
          <input semantic="VERTEX" source="#Plane_007-mesh-vertices" offset="0"/>
          <input semantic="NORMAL" source="#Plane_007-mesh-normals" offset="1"/>
          <input semantic="TEXCOORD" source="#Plane_007-mesh-map-0" offset="2" set="0"/>
          <p>96 35 357 5 35 358 4 35 359 99 35 375 46 35 376 7 35 377 117 37 381 9 37 382 25 37 383 97 38 384 28 38 385 5 38 386 93 35 396 4 35 397 1 35 398 138 39 399 47 39 400 46 39 401 118 40 402 10 40 403 26 40 404 101 41 405 23 41 406 9 41 407 170 35 408 60 35 409 78 35 410 139 42 411 48 42 412 47 42 413 119 43 414 26 43 415 27 43 416 92 44 417 62 44 418 0 44 419 140 45 420 49 45 421 48 45 422 120 46 423 27 46 424 28 46 425 102 47 426 25 47 427 10 47 428 141 48 429 50 48 430 49 48 431 142 50 438 51 50 439 50 50 440 152 51 456 61 51 457 60 51 458 126 51 465 78 51 466 34 51 467 110 35 480 7 35 481 18 35 482 129 52 483 53 52 484 37 52 485 127 35 486 34 35 487 35 35 488 111 53 489 18 53 490 19 53 491 148 54 492 35 54 493 56 54 494 112 55 495 19 55 496 20 55 497 130 56 498 54 56 499 38 56 500 113 57 504 20 57 505 21 57 506 146 58 507 55 58 508 54 58 509 143 59 510 37 59 511 51 59 512 114 60 513 21 60 514 22 60 515 147 61 516 56 61 517 55 61 518 115 62 519 22 62 520 23 62 521 145 63 525 38 63 526 53 63 527 154 44 528 1 44 529 62 44 530 96 35 903 97 35 904 5 35 905 99 35 921 138 35 922 46 35 923 117 37 927 101 37 928 9 37 929 97 72 930 120 72 931 28 72 932 93 35 942 96 35 943 4 35 944 138 73 945 139 73 946 47 73 947 118 40 948 102 40 949 10 40 950 101 74 951 115 74 952 23 74 953 170 35 954 152 35 955 60 35 956 139 75 957 140 75 958 48 75 959 119 76 960 118 76 961 26 76 962 92 44 963 154 44 964 62 44 965 140 45 966 141 45 967 49 45 968 120 77 969 119 77 970 27 77 971 102 78 972 117 78 973 25 78 974 141 79 975 142 79 976 50 79 977 142 81 984 143 81 985 51 81 986 152 51 1002 153 51 1003 61 51 1004 126 51 1011 170 51 1012 78 51 1013 110 35 1026 99 35 1027 7 35 1028 129 52 1029 145 52 1030 53 52 1031 127 35 1032 126 35 1033 34 35 1034 111 82 1035 110 82 1036 18 82 1037 148 54 1038 127 54 1039 35 54 1040 112 83 1041 111 83 1042 19 83 1043 130 84 1044 146 84 1045 54 84 1046 113 85 1050 112 85 1051 20 85 1052 146 86 1053 147 86 1054 55 86 1055 143 87 1056 129 87 1057 37 87 1058 114 88 1059 113 88 1060 21 88 1061 147 89 1062 148 89 1063 56 89 1064 115 90 1065 114 90 1066 22 90 1067 145 91 1071 130 91 1072 38 91 1073 154 44 1074 93 44 1075 1 44 1076</p>
        </triangles>
      </mesh>
    </geometry>
  </library_geometries>
  <library_visual_scenes>
    <visual_scene id="Scene" name="Scene">
      <node id="onda_end2" name="onda_end2" type="NODE">
        <matrix sid="transform">1 0 0 -0.0977218 0 1 0 -0.001090955 0 0 1 1.35 0 0 0 1</matrix>
        <instance_geometry url="#Plane_007-mesh" name="onda_end2">
          <bind_material>
            <technique_common>
              <instance_material symbol="gora_dol-material" target="#gora_dol-material">
                <bind_vertex_input semantic="UVMap" input_semantic="TEXCOORD" input_set="0"/>
              </instance_material>
              <instance_material symbol="tyl-material" target="#tyl-material">
                <bind_vertex_input semantic="UVMap" input_semantic="TEXCOORD" input_set="0"/>
              </instance_material>
              <instance_material symbol="front-material" target="#front-material">
                <bind_vertex_input semantic="UVMap" input_semantic="TEXCOORD" input_set="0"/>
              </instance_material>
            </technique_common>
          </bind_material>
        </instance_geometry>
      </node>
    </visual_scene>
  </library_visual_scenes>
  <scene>
    <instance_visual_scene url="#Scene"/>
  </scene>
</COLLADA>