<?xml version="1.0" encoding="utf-8"?>
<COLLADA xmlns="http://www.collada.org/2005/11/COLLADASchema" version="1.4.1" xmlns:xsi="http://www.w3.org/2001/XMLSchema-instance">
  <asset>
    <contributor>
      <author>Blender User</author>
      <authoring_tool>Blender 3.2.0 commit date:2022-06-08, commit time:10:22, hash:e05e1e369187</authoring_tool>
    </contributor>
    <created>2023-03-08T13:26:03</created>
    <modified>2023-03-08T13:26:03</modified>
    <unit name="meter" meter="1"/>
    <up_axis>Z_UP</up_axis>
  </asset>
  <library_effects>
    <effect id="gora_dol-effect">
      <profile_COMMON>
        <technique sid="common">
          <lambert>
            <emission>
              <color sid="emission">0 0 0 1</color>
            </emission>
            <diffuse>
              <color sid="diffuse">0.8 0.8 0.8 1</color>
            </diffuse>
            <index_of_refraction>
              <float sid="ior">1.45</float>
            </index_of_refraction>
          </lambert>
        </technique>
      </profile_COMMON>
    </effect>
    <effect id="tyl-effect">
      <profile_COMMON>
        <technique sid="common">
          <lambert>
            <emission>
              <color sid="emission">0 0 0 1</color>
            </emission>
            <diffuse>
              <color sid="diffuse">0.8 0.8 0.8 1</color>
            </diffuse>
            <index_of_refraction>
              <float sid="ior">1.45</float>
            </index_of_refraction>
          </lambert>
        </technique>
      </profile_COMMON>
    </effect>
    <effect id="front-effect">
      <profile_COMMON>
        <technique sid="common">
          <lambert>
            <emission>
              <color sid="emission">0 0 0 1</color>
            </emission>
            <diffuse>
              <color sid="diffuse">0.8 0.8 0.8 1</color>
            </diffuse>
            <index_of_refraction>
              <float sid="ior">1.45</float>
            </index_of_refraction>
          </lambert>
        </technique>
      </profile_COMMON>
    </effect>
  </library_effects>
  <library_images/>
  <library_materials>
    <material id="gora_dol-material" name="gora_dol">
      <instance_effect url="#gora_dol-effect"/>
    </material>
    <material id="tyl-material" name="tyl">
      <instance_effect url="#tyl-effect"/>
    </material>
    <material id="front-material" name="front">
      <instance_effect url="#front-effect"/>
    </material>
  </library_materials>
  <library_geometries>
    <geometry id="Plane_004-mesh" name="Plane.004">
      <mesh>
        <source id="Plane_004-mesh-positions">
          <float_array id="Plane_004-mesh-positions-array" count="2004">-0.003504812 -0.004581689 -1.35 -0.001510679 -0.004581689 -1.35 0.01031565 -5.42274e-4 -1.35 -0.001510679 0.007168292 -1.35 0.01031565 -0.005531668 -1.35 0.01031565 0.002468585 -1.35 0.004331231 -0.005531668 -1.35 0.004331231 0.003493785 -1.35 0.001998007 0.004561722 -1.35 0.001998007 -0.004581689 -1.35 0.00518614 -0.005531668 -1.35 0.006041049 -0.005531668 -1.35 0.006896018 -0.005531668 -1.35 0.007750928 -0.005531668 -1.35 0.008605837 -0.005531668 -1.35 0.009460747 -0.005531668 -1.35 0.009460747 0.002468585 -1.35 0.008605837 0.00253427 -1.35 0.007750928 0.002647519 -1.35 0.006896018 0.002795994 -1.35 0.006041049 0.002996385 -1.35 0.00518614 0.003217518 -1.35 0.003164589 -0.005056679 -1.35 0.003164589 0.003981053 -1.35 0.001120805 0.005088865 -1.35 2.43665e-4 0.005657553 -1.35 -6.33519e-4 0.00639218 -1.35 -6.33519e-4 -0.004581689 -1.35 2.43665e-4 -0.004581689 -1.35 0.001120805 -0.004581689 -1.35 0.02214211 -0.004581689 -1.35 0.02214211 0.007168292 -1.35 0.02660739 -0.004581689 -1.35 0.02446687 -0.004581689 -1.35 0.01630014 -0.005531668 -1.35 0.01630014 0.003493785 -1.35 0.01831948 0.004410207 -1.35 0.01831948 -0.005069375 -1.35 0.01544523 -0.005531668 -1.35 0.01459026 -0.005531668 -1.35 0.01373535 -0.005531668 -1.35 0.01288044 -0.005531668 -1.35 0.01202553 -0.005531668 -1.35 0.01117062 -0.005531668 -1.35 0.01117062 0.002468585 -1.35 0.01202553 0.00253427 -1.35 0.01288044 0.002647519 -1.35 0.01373535 0.002795994 -1.35 0.01459026 0.002996385 -1.35 0.01544523 0.003217518 -1.35 0.01719731 -0.005531668 -1.35 0.01719731 0.00386852 -1.35 0.01951056 0.005088865 -1.35 0.0203877 0.005657553 -1.35 0.02126491 0.006392121 -1.35 0.02126491 -0.004581689 -1.35 0.0203877 -0.004581689 -1.35 0.01951056 -0.004581689 -1.35 0.02446687 0.007168292 -1.35 0.02660739 0.007168292 -1.35 0.03843379 -0.004581689 -1.35 0.03843379 0.002468585 -1.35 0.03244936 -0.004581689 -1.35 0.03244936 0.003493785 -1.35 0.03011614 0.004561722 -1.35 0.03011614 -0.004581689 -1.35 0.03330427 -0.004581689 -1.35 0.03415918 -0.004581689 -1.35 0.03501409 -0.004581689 -1.35 0.03586906 -0.004581689 -1.35 0.03672397 -0.004581689 -1.35 0.03757888 -0.004581689 -1.35 0.03757888 0.002468585 -1.35 0.03672397 0.00253427 -1.35 0.03586906 0.002647519 -1.35 0.03501409 0.002795994 -1.35 0.03415918 0.002996385 -1.35 0.03330427 0.003217518 -1.35 0.03128272 -0.004581689 -1.35 0.03128272 0.003981053 -1.35 0.02923893 0.005088865 -1.35 0.02836173 0.005657553 -1.35 0.02748459 0.00639218 -1.35 0.02748459 -0.004581689 -1.35 0.02836173 -0.004581689 -1.35 0.02923893 -0.004581689 -1.35 0.05223321 -0.005531668 -1.35 0.05026018 -0.005531668 -1.35 0.05223321 0.007168292 -1.35 0.05026018 0.007168292 -1.35 0.04441827 -0.004581689 -1.35 0.04441827 0.003493785 -1.35 0.04643762 0.004410207 -1.35 0.04643762 -0.004581689 -1.35 0.0435633 -0.004581689 -1.35 0.04270839 -0.004581689 -1.35 0.04185348 -0.004581689 -1.35 0.04099857 -0.004581689 -1.35 0.04014366 -0.004581689 -1.35 0.03928869 -0.004581689 -1.35 0.03928869 0.002468585 -1.35 0.04014366 0.00253427 -1.35 0.04099857 0.002647519 -1.35 0.04185348 0.002795994 -1.35 0.04270839 0.002996385 -1.35 0.0435633 0.003217518 -1.35 0.04531538 -0.004581689 -1.35 0.04531538 0.00386852 -1.35 0.04762864 0.005088865 -1.35 0.04850584 0.005657553 -1.35 0.04938304 0.006392121 -1.35 0.04938304 -0.005531668 -1.35 0.04850584 -0.005531668 -1.35 0.04762864 -0.005173206 -1.35 -0.05981862 0.007168292 -1.35 -0.05745416 0.007168292 -1.35 -0.04562771 -0.005531668 -1.35 -0.04562771 0.002468585 -1.35 -0.05178374 -0.005531668 -1.35 -0.05178374 0.00356549 -1.35 -0.05394542 0.004561722 -1.35 -0.05075728 -0.005531668 -1.35 -0.04990231 -0.005531668 -1.35 -0.04904741 -0.005531668 -1.35 -0.0481925 -0.005531668 -1.35 -0.04733759 -0.005531668 -1.35 -0.04648268 -0.005531668 -1.35 -0.04648268 0.002468585 -1.35 -0.04733759 0.00253427 -1.35 -0.0481925 0.002647519 -1.35 -0.04904741 0.002795994 -1.35 -0.04990231 0.002996385 -1.35 -0.05075728 0.003217518 -1.35 -0.05277878 0.003981053 -1.35 -0.05482256 0.005088865 -1.35 -0.05569976 0.005657553 -1.35 -0.05657696 0.00639218 -1.35 0.06021618 -8.78353e-4 -1.35 0.06021618 -0.005531668 -1.35 -0.03380131 -0.004581689 -1.35 -0.03380131 0.007168292 -1.35 -0.02933603 -0.004581689 -1.35 -0.03147655 -0.004581689 -1.35 -0.03964328 -0.005531668 -1.35 -0.03964328 0.003493785 -1.35 -0.03762394 0.004410207 -1.35 -0.03762394 -0.005069375 -1.35 -0.04049819 -0.005531668 -1.35 -0.0413531 -0.005531668 -1.35 -0.04220807 -0.005531668 -1.35 -0.04306298 -0.005531668 -1.35 -0.04391789 -0.005531668 -1.35 -0.0447728 -0.005531668 -1.35 -0.0447728 0.002468585 -1.35 -0.04391789 0.00253427 -1.35 -0.04306298 0.002647519 -1.35 -0.04220807 0.002795994 -1.35 -0.0413531 0.002996385 -1.35 -0.04049819 0.003217518 -1.35 -0.03874611 -0.005531668 -1.35 -0.03874611 0.00386852 -1.35 -0.03643286 0.005088865 -1.35 -0.03555572 0.005657553 -1.35 -0.03467851 0.006392121 -1.35 -0.03467851 -0.004581689 -1.35 -0.03555572 -0.004581689 -1.35 -0.03643286 -0.004581689 -1.35 -0.03147655 0.007168292 -1.35 -0.02933603 0.007168292 -1.35 -0.01750963 -0.004581689 -1.35 -0.01750963 0.002468585 -1.35 -0.02349406 -0.004581689 -1.35 -0.02349406 0.003493785 -1.35 -0.02582728 0.004561722 -1.35 -0.02582728 -0.004581689 -1.35 -0.02263915 -0.004581689 -1.35 -0.02178424 -0.004581689 -1.35 -0.02092927 -0.004581689 -1.35 -0.02007436 -0.004581689 -1.35 -0.01921945 -0.004581689 -1.35 -0.01836454 -0.004581689 -1.35 -0.01836454 0.002468585 -1.35 -0.01921945 0.00253427 -1.35 -0.02007436 0.002647519 -1.35 -0.02092927 0.002795994 -1.35 -0.02178424 0.002996385 -1.35 -0.02263915 0.003217518 -1.35 -0.02466064 -0.004581689 -1.35 -0.02466064 0.003981053 -1.35 -0.02670449 0.005088865 -1.35 -0.02758163 0.005657553 -1.35 -0.02845883 0.00639218 -1.35 -0.02845883 -0.004581689 -1.35 -0.02758163 -0.004581689 -1.35 -0.02670449 -0.004581689 -1.35 -0.001510679 -5.42274e-4 -1.35 -0.005683183 -0.004581689 -1.35 -0.003504812 0.007168292 -1.35 -0.005683183 0.007168292 -1.35 -0.01152515 -0.004581689 -1.35 -0.01152515 0.003493785 -1.35 -0.009505808 0.004410207 -1.35 -0.009505808 -0.004581689 -1.35 -0.01238006 -0.004581689 -1.35 -0.01323503 -0.004581689 -1.35 -0.01408994 -0.004581689 -1.35 -0.01494485 -0.004581689 -1.35 -0.01579976 -0.004581689 -1.35 -0.01665467 -0.004581689 -1.35 -0.01665467 0.002468585 -1.35 -0.01579976 0.00253427 -1.35 -0.01494485 0.002647519 -1.35 -0.01408994 0.002795994 -1.35 -0.01323503 0.002996385 -1.35 -0.01238006 0.003217518 -1.35 -0.01062798 -0.004581689 -1.35 -0.01062798 0.00386852 -1.35 -0.008314728 0.005088865 -1.35 -0.007437586 0.005657553 -1.35 -0.006560385 0.006392121 -1.35 -0.006560385 -0.004581689 -1.35 -0.007437586 -0.004581689 -1.35 -0.008314728 -0.004581689 -1.35 0.004331231 -5.42274e-4 -1.35 0.001998007 -5.42274e-4 -1.35 0.00518614 -5.42274e-4 -1.35 0.006041049 -5.42274e-4 -1.35 0.006896018 -5.42274e-4 -1.35 0.007750928 -5.42274e-4 -1.35 0.008605837 -5.42274e-4 -1.35 0.009460747 -5.42274e-4 -1.35 0.003164589 -5.42274e-4 -1.35 -6.33519e-4 -5.42274e-4 -1.35 2.43665e-4 -5.42274e-4 -1.35 0.001120805 -5.42274e-4 -1.35 -0.05745416 -5.42274e-4 -1.35 0.02214211 -5.42274e-4 -1.35 -0.05981862 -5.42274e-4 -1.35 0.02660739 -5.42274e-4 -1.35 0.01630014 -5.42274e-4 -1.35 0.01831948 -5.42274e-4 -1.35 0.02446687 -5.42274e-4 -1.35 0.01544523 -5.42274e-4 -1.35 0.01459026 -5.42274e-4 -1.35 0.01373535 -5.42274e-4 -1.35 0.01288044 -5.42274e-4 -1.35 0.01202553 -5.42274e-4 -1.35 0.01117062 -5.42274e-4 -1.35 0.01719731 -5.42274e-4 -1.35 0.02126491 -5.42274e-4 -1.35 0.0203877 -5.42274e-4 -1.35 0.01951056 -5.42274e-4 -1.35 0.03843379 -5.42274e-4 -1.35 0.03244936 -5.42274e-4 -1.35 0.03011614 -5.42274e-4 -1.35 0.03330427 -5.42274e-4 -1.35 0.03415918 -5.42274e-4 -1.35 0.03501409 -5.42274e-4 -1.35 0.03586906 -5.42274e-4 -1.35 0.03672397 -5.42274e-4 -1.35 0.03757888 -5.42274e-4 -1.35 0.03128272 -5.42274e-4 -1.35 0.02748459 -5.42274e-4 -1.35 0.02836173 -5.42274e-4 -1.35 0.02923893 -5.42274e-4 -1.35 0.05223321 -8.78353e-4 -1.35 0.05026018 -5.42274e-4 -1.35 0.04441827 -5.42274e-4 -1.35 0.04643762 -5.42274e-4 -1.35 0.0435633 -5.42274e-4 -1.35 0.04270839 -5.42274e-4 -1.35 0.04185348 -5.42274e-4 -1.35 0.04099857 -5.42274e-4 -1.35 0.04014366 -5.42274e-4 -1.35 0.03928869 -5.42274e-4 -1.35 0.04531538 -5.42274e-4 -1.35 0.04938304 -5.42274e-4 -1.35 0.04850584 -5.42274e-4 -1.35 0.04762864 -5.42274e-4 -1.35 -0.04562771 -5.42274e-4 -1.35 -0.05178374 -5.42274e-4 -1.35 -0.05394542 -5.42274e-4 -1.35 -0.05075728 -5.42274e-4 -1.35 -0.04990231 -5.42274e-4 -1.35 -0.04904741 -5.42274e-4 -1.35 -0.0481925 -5.42274e-4 -1.35 -0.04733759 -5.42274e-4 -1.35 -0.04648268 -5.42274e-4 -1.35 -0.05277878 -5.42274e-4 -1.35 -0.05657696 -5.42274e-4 -1.35 -0.05569976 -5.42274e-4 -1.35 -0.05482256 -5.42274e-4 -1.35 -0.03380131 -5.42274e-4 -1.35 -0.02933603 -5.42274e-4 -1.35 -0.03964328 -5.42274e-4 -1.35 -0.03762394 -5.42274e-4 -1.35 -0.03147655 -5.42274e-4 -1.35 -0.04049819 -5.42274e-4 -1.35 -0.0413531 -5.42274e-4 -1.35 -0.04220807 -5.42274e-4 -1.35 -0.04306298 -5.42274e-4 -1.35 -0.04391789 -5.42274e-4 -1.35 -0.0447728 -5.42274e-4 -1.35 -0.03874611 -5.42274e-4 -1.35 -0.03467851 -5.42274e-4 -1.35 -0.03555572 -5.42274e-4 -1.35 -0.03643286 -5.42274e-4 -1.35 -0.01750963 -5.42274e-4 -1.35 -0.02349406 -5.42274e-4 -1.35 -0.02582728 -5.42274e-4 -1.35 -0.02263915 -5.42274e-4 -1.35 -0.02178424 -5.42274e-4 -1.35 -0.02092927 -5.42274e-4 -1.35 -0.02007436 -5.42274e-4 -1.35 -0.01921945 -5.42274e-4 -1.35 -0.01836454 -5.42274e-4 -1.35 -0.02466064 -5.42274e-4 -1.35 -0.02845883 -5.42274e-4 -1.35 -0.02758163 -5.42274e-4 -1.35 -0.02670449 -5.42274e-4 -1.35 -0.005683183 -5.42274e-4 -1.35 -0.01152515 -5.42274e-4 -1.35 -0.009505808 -5.42274e-4 -1.35 -0.01238006 -5.42274e-4 -1.35 -0.01323503 -5.42274e-4 -1.35 -0.01408994 -5.42274e-4 -1.35 -0.01494485 -5.42274e-4 -1.35 -0.01579976 -5.42274e-4 -1.35 -0.01665467 -5.42274e-4 -1.35 -0.01062798 -5.42274e-4 -1.35 -0.006560385 -5.42274e-4 -1.35 -0.007437586 -5.42274e-4 -1.35 -0.008314728 -5.42274e-4 -1.35 -0.003504812 -5.42274e-4 -1.35 -0.003504812 -0.004581689 1.35 -0.001510679 -0.004581689 1.35 0.01031565 -5.42274e-4 1.35 -0.001510679 0.007168292 1.35 0.01031565 -0.005531668 1.35 0.01031565 0.002468585 1.35 0.004331231 -0.005531668 1.35 0.004331231 0.003493785 1.35 0.001998007 0.004561722 1.35 0.001998007 -0.004581689 1.35 0.00518614 -0.005531668 1.35 0.006041049 -0.005531668 1.35 0.006896018 -0.005531668 1.35 0.007750928 -0.005531668 1.35 0.008605837 -0.005531668 1.35 0.009460747 -0.005531668 1.35 0.009460747 0.002468585 1.35 0.008605837 0.00253427 1.35 0.007750928 0.002647519 1.35 0.006896018 0.002795994 1.35 0.006041049 0.002996385 1.35 0.00518614 0.003217518 1.35 0.003164589 -0.005056679 1.35 0.003164589 0.003981053 1.35 0.001120805 0.005088865 1.35 2.43665e-4 0.005657553 1.35 -6.33519e-4 0.00639218 1.35 -6.33519e-4 -0.004581689 1.35 2.43665e-4 -0.004581689 1.35 0.001120805 -0.004581689 1.35 0.02214211 -0.004581689 1.35 0.02214211 0.007168292 1.35 0.02660739 -0.004581689 1.35 0.02446687 -0.004581689 1.35 0.01630014 -0.005531668 1.35 0.01630014 0.003493785 1.35 0.01831948 0.004410207 1.35 0.01831948 -0.005069375 1.35 0.01544523 -0.005531668 1.35 0.01459026 -0.005531668 1.35 0.01373535 -0.005531668 1.35 0.01288044 -0.005531668 1.35 0.01202553 -0.005531668 1.35 0.01117062 -0.005531668 1.35 0.01117062 0.002468585 1.35 0.01202553 0.00253427 1.35 0.01288044 0.002647519 1.35 0.01373535 0.002795994 1.35 0.01459026 0.002996385 1.35 0.01544523 0.003217518 1.35 0.01719731 -0.005531668 1.35 0.01719731 0.00386852 1.35 0.01951056 0.005088865 1.35 0.0203877 0.005657553 1.35 0.02126491 0.006392121 1.35 0.02126491 -0.004581689 1.35 0.0203877 -0.004581689 1.35 0.01951056 -0.004581689 1.35 0.02446687 0.007168292 1.35 0.02660739 0.007168292 1.35 0.03843379 -0.004581689 1.35 0.03843379 0.002468585 1.35 0.03244936 -0.004581689 1.35 0.03244936 0.003493785 1.35 0.03011614 0.004561722 1.35 0.03011614 -0.004581689 1.35 0.03330427 -0.004581689 1.35 0.03415918 -0.004581689 1.35 0.03501409 -0.004581689 1.35 0.03586906 -0.004581689 1.35 0.03672397 -0.004581689 1.35 0.03757888 -0.004581689 1.35 0.03757888 0.002468585 1.35 0.03672397 0.00253427 1.35 0.03586906 0.002647519 1.35 0.03501409 0.002795994 1.35 0.03415918 0.002996385 1.35 0.03330427 0.003217518 1.35 0.03128272 -0.004581689 1.35 0.03128272 0.003981053 1.35 0.02923893 0.005088865 1.35 0.02836173 0.005657553 1.35 0.02748459 0.00639218 1.35 0.02748459 -0.004581689 1.35 0.02836173 -0.004581689 1.35 0.02923893 -0.004581689 1.35 0.05223321 -0.005531668 1.35 0.05026018 -0.005531668 1.35 0.05223321 0.007168292 1.35 0.05026018 0.007168292 1.35 0.04441827 -0.004581689 1.35 0.04441827 0.003493785 1.35 0.04643762 0.004410207 1.35 0.04643762 -0.004581689 1.35 0.0435633 -0.004581689 1.35 0.04270839 -0.004581689 1.35 0.04185348 -0.004581689 1.35 0.04099857 -0.004581689 1.35 0.04014366 -0.004581689 1.35 0.03928869 -0.004581689 1.35 0.03928869 0.002468585 1.35 0.04014366 0.00253427 1.35 0.04099857 0.002647519 1.35 0.04185348 0.002795994 1.35 0.04270839 0.002996385 1.35 0.0435633 0.003217518 1.35 0.04531538 -0.004581689 1.35 0.04531538 0.00386852 1.35 0.04762864 0.005088865 1.35 0.04850584 0.005657553 1.35 0.04938304 0.006392121 1.35 0.04938304 -0.005531668 1.35 0.04850584 -0.005531668 1.35 0.04762864 -0.005173206 1.35 -0.05981862 0.007168292 1.35 -0.05745416 0.007168292 1.35 -0.04562771 -0.005531668 1.35 -0.04562771 0.002468585 1.35 -0.05178374 -0.005531668 1.35 -0.05178374 0.00356549 1.35 -0.05394542 0.004561722 1.35 -0.05075728 -0.005531668 1.35 -0.04990231 -0.005531668 1.35 -0.04904741 -0.005531668 1.35 -0.0481925 -0.005531668 1.35 -0.04733759 -0.005531668 1.35 -0.04648268 -0.005531668 1.35 -0.04648268 0.002468585 1.35 -0.04733759 0.00253427 1.35 -0.0481925 0.002647519 1.35 -0.04904741 0.002795994 1.35 -0.04990231 0.002996385 1.35 -0.05075728 0.003217518 1.35 -0.05277878 0.003981053 1.35 -0.05482256 0.005088865 1.35 -0.05569976 0.005657553 1.35 -0.05657696 0.00639218 1.35 0.06021618 -8.78353e-4 1.35 0.06021618 -0.005531668 1.35 -0.03380131 -0.004581689 1.35 -0.03380131 0.007168292 1.35 -0.02933603 -0.004581689 1.35 -0.03147655 -0.004581689 1.35 -0.03964328 -0.005531668 1.35 -0.03964328 0.003493785 1.35 -0.03762394 0.004410207 1.35 -0.03762394 -0.005069375 1.35 -0.04049819 -0.005531668 1.35 -0.0413531 -0.005531668 1.35 -0.04220807 -0.005531668 1.35 -0.04306298 -0.005531668 1.35 -0.04391789 -0.005531668 1.35 -0.0447728 -0.005531668 1.35 -0.0447728 0.002468585 1.35 -0.04391789 0.00253427 1.35 -0.04306298 0.002647519 1.35 -0.04220807 0.002795994 1.35 -0.0413531 0.002996385 1.35 -0.04049819 0.003217518 1.35 -0.03874611 -0.005531668 1.35 -0.03874611 0.00386852 1.35 -0.03643286 0.005088865 1.35 -0.03555572 0.005657553 1.35 -0.03467851 0.006392121 1.35 -0.03467851 -0.004581689 1.35 -0.03555572 -0.004581689 1.35 -0.03643286 -0.004581689 1.35 -0.03147655 0.007168292 1.35 -0.02933603 0.007168292 1.35 -0.01750963 -0.004581689 1.35 -0.01750963 0.002468585 1.35 -0.02349406 -0.004581689 1.35 -0.02349406 0.003493785 1.35 -0.02582728 0.004561722 1.35 -0.02582728 -0.004581689 1.35 -0.02263915 -0.004581689 1.35 -0.02178424 -0.004581689 1.35 -0.02092927 -0.004581689 1.35 -0.02007436 -0.004581689 1.35 -0.01921945 -0.004581689 1.35 -0.01836454 -0.004581689 1.35 -0.01836454 0.002468585 1.35 -0.01921945 0.00253427 1.35 -0.02007436 0.002647519 1.35 -0.02092927 0.002795994 1.35 -0.02178424 0.002996385 1.35 -0.02263915 0.003217518 1.35 -0.02466064 -0.004581689 1.35 -0.02466064 0.003981053 1.35 -0.02670449 0.005088865 1.35 -0.02758163 0.005657553 1.35 -0.02845883 0.00639218 1.35 -0.02845883 -0.004581689 1.35 -0.02758163 -0.004581689 1.35 -0.02670449 -0.004581689 1.35 -0.001510679 -5.42274e-4 1.35 -0.005683183 -0.004581689 1.35 -0.003504812 0.007168292 1.35 -0.005683183 0.007168292 1.35 -0.01152515 -0.004581689 1.35 -0.01152515 0.003493785 1.35 -0.009505808 0.004410207 1.35 -0.009505808 -0.004581689 1.35 -0.01238006 -0.004581689 1.35 -0.01323503 -0.004581689 1.35 -0.01408994 -0.004581689 1.35 -0.01494485 -0.004581689 1.35 -0.01579976 -0.004581689 1.35 -0.01665467 -0.004581689 1.35 -0.01665467 0.002468585 1.35 -0.01579976 0.00253427 1.35 -0.01494485 0.002647519 1.35 -0.01408994 0.002795994 1.35 -0.01323503 0.002996385 1.35 -0.01238006 0.003217518 1.35 -0.01062798 -0.004581689 1.35 -0.01062798 0.00386852 1.35 -0.008314728 0.005088865 1.35 -0.007437586 0.005657553 1.35 -0.006560385 0.006392121 1.35 -0.006560385 -0.004581689 1.35 -0.007437586 -0.004581689 1.35 -0.008314728 -0.004581689 1.35 0.004331231 -5.42274e-4 1.35 0.001998007 -5.42274e-4 1.35 0.00518614 -5.42274e-4 1.35 0.006041049 -5.42274e-4 1.35 0.006896018 -5.42274e-4 1.35 0.007750928 -5.42274e-4 1.35 0.008605837 -5.42274e-4 1.35 0.009460747 -5.42274e-4 1.35 0.003164589 -5.42274e-4 1.35 -6.33519e-4 -5.42274e-4 1.35 2.43665e-4 -5.42274e-4 1.35 0.001120805 -5.42274e-4 1.35 -0.05745416 -5.42274e-4 1.35 0.02214211 -5.42274e-4 1.35 -0.05981862 -5.42274e-4 1.35 0.02660739 -5.42274e-4 1.35 0.01630014 -5.42274e-4 1.35 0.01831948 -5.42274e-4 1.35 0.02446687 -5.42274e-4 1.35 0.01544523 -5.42274e-4 1.35 0.01459026 -5.42274e-4 1.35 0.01373535 -5.42274e-4 1.35 0.01288044 -5.42274e-4 1.35 0.01202553 -5.42274e-4 1.35 0.01117062 -5.42274e-4 1.35 0.01719731 -5.42274e-4 1.35 0.02126491 -5.42274e-4 1.35 0.0203877 -5.42274e-4 1.35 0.01951056 -5.42274e-4 1.35 0.03843379 -5.42274e-4 1.35 0.03244936 -5.42274e-4 1.35 0.03011614 -5.42274e-4 1.35 0.03330427 -5.42274e-4 1.35 0.03415918 -5.42274e-4 1.35 0.03501409 -5.42274e-4 1.35 0.03586906 -5.42274e-4 1.35 0.03672397 -5.42274e-4 1.35 0.03757888 -5.42274e-4 1.35 0.03128272 -5.42274e-4 1.35 0.02748459 -5.42274e-4 1.35 0.02836173 -5.42274e-4 1.35 0.02923893 -5.42274e-4 1.35 0.05223321 -8.78353e-4 1.35 0.05026018 -5.42274e-4 1.35 0.04441827 -5.42274e-4 1.35 0.04643762 -5.42274e-4 1.35 0.0435633 -5.42274e-4 1.35 0.04270839 -5.42274e-4 1.35 0.04185348 -5.42274e-4 1.35 0.04099857 -5.42274e-4 1.35 0.04014366 -5.42274e-4 1.35 0.03928869 -5.42274e-4 1.35 0.04531538 -5.42274e-4 1.35 0.04938304 -5.42274e-4 1.35 0.04850584 -5.42274e-4 1.35 0.04762864 -5.42274e-4 1.35 -0.04562771 -5.42274e-4 1.35 -0.05178374 -5.42274e-4 1.35 -0.05394542 -5.42274e-4 1.35 -0.05075728 -5.42274e-4 1.35 -0.04990231 -5.42274e-4 1.35 -0.04904741 -5.42274e-4 1.35 -0.0481925 -5.42274e-4 1.35 -0.04733759 -5.42274e-4 1.35 -0.04648268 -5.42274e-4 1.35 -0.05277878 -5.42274e-4 1.35 -0.05657696 -5.42274e-4 1.35 -0.05569976 -5.42274e-4 1.35 -0.05482256 -5.42274e-4 1.35 -0.03380131 -5.42274e-4 1.35 -0.02933603 -5.42274e-4 1.35 -0.03964328 -5.42274e-4 1.35 -0.03762394 -5.42274e-4 1.35 -0.03147655 -5.42274e-4 1.35 -0.04049819 -5.42274e-4 1.35 -0.0413531 -5.42274e-4 1.35 -0.04220807 -5.42274e-4 1.35 -0.04306298 -5.42274e-4 1.35 -0.04391789 -5.42274e-4 1.35 -0.0447728 -5.42274e-4 1.35 -0.03874611 -5.42274e-4 1.35 -0.03467851 -5.42274e-4 1.35 -0.03555572 -5.42274e-4 1.35 -0.03643286 -5.42274e-4 1.35 -0.01750963 -5.42274e-4 1.35 -0.02349406 -5.42274e-4 1.35 -0.02582728 -5.42274e-4 1.35 -0.02263915 -5.42274e-4 1.35 -0.02178424 -5.42274e-4 1.35 -0.02092927 -5.42274e-4 1.35 -0.02007436 -5.42274e-4 1.35 -0.01921945 -5.42274e-4 1.35 -0.01836454 -5.42274e-4 1.35 -0.02466064 -5.42274e-4 1.35 -0.02845883 -5.42274e-4 1.35 -0.02758163 -5.42274e-4 1.35 -0.02670449 -5.42274e-4 1.35 -0.005683183 -5.42274e-4 1.35 -0.01152515 -5.42274e-4 1.35 -0.009505808 -5.42274e-4 1.35 -0.01238006 -5.42274e-4 1.35 -0.01323503 -5.42274e-4 1.35 -0.01408994 -5.42274e-4 1.35 -0.01494485 -5.42274e-4 1.35 -0.01579976 -5.42274e-4 1.35 -0.01665467 -5.42274e-4 1.35 -0.01062798 -5.42274e-4 1.35 -0.006560385 -5.42274e-4 1.35 -0.007437586 -5.42274e-4 1.35 -0.008314728 -5.42274e-4 1.35 -0.003504812 -5.42274e-4 1.35</float_array>
          <technique_common>
            <accessor source="#Plane_004-mesh-positions-array" count="668" stride="3">
              <param name="X" type="float"/>
              <param name="Y" type="float"/>
              <param name="Z" type="float"/>
            </accessor>
          </technique_common>
        </source>
        <source id="Plane_004-mesh-normals">
          <float_array id="Plane_004-mesh-normals-array" count="711">0 0 -1 1.49844e-4 0 -1 -2.06545e-4 0 -1 -6.28408e-5 0 -1 -2.48967e-4 0 -1 2.24119e-4 0 -1 -3.05927e-5 0 -1 -1.92402e-5 0 -1 -7.24346e-5 0 -1 1.8556e-4 0 -1 -3.47141e-5 0 -1 -5.8837e-5 0 -1 3.06215e-4 0 -1 2.89738e-4 0 -1 1.49843e-4 0 -1 -2.06544e-4 0 -1 -6.28409e-5 0 -1 -2.48966e-4 0 -1 2.24118e-4 0 -1 -3.05928e-5 0 -1 -1.92402e-5 0 -1 -7.24347e-5 0 -1 1.85559e-4 0 -1 -3.47142e-5 0 -1 3.06216e-4 0 -1 2.89738e-4 0 -1 -6.28407e-5 0 -1 -1.92402e-5 0 -1 -7.24347e-5 0 -1 1.85561e-4 0 -1 -3.47142e-5 0 -1 -5.88367e-5 0 -1 2.89739e-4 0 -1 -2.06545e-4 0 -1 -2.48966e-4 0 -1 2.24119e-4 0 -1 -3.05927e-5 0 -1 -1.92402e-5 0 -1 -7.24346e-5 0 -1 1.85561e-4 0 -1 -3.47141e-5 0 -1 3.06215e-4 0 -1 2.89739e-4 0 -1 0 0 1 3.66633e-5 0 1 -4.2212e-5 0 1 5.31984e-5 0 1 1.355e-4 0 1 3.26322e-4 0 1 -1.05839e-4 0 1 6.42187e-5 0 1 -3.82768e-5 0 1 1.03273e-4 0 1 -9.77559e-5 0 1 2.21304e-5 0 1 2.13447e-5 0 1 -2.75335e-4 0 1 2.69363e-4 0 1 -9.05432e-5 0 1 -5.06074e-5 0 1 7.07035e-5 0 1 1.10304e-4 0 1 3.26323e-4 0 1 6.42184e-5 0 1 -3.8277e-5 0 1 -9.77558e-5 0 1 2.13446e-5 0 1 -2.75334e-4 0 1 2.69363e-4 0 1 -9.0543e-5 0 1 9.66321e-5 0 1 7.07034e-5 0 1 2.21303e-5 0 1 2.13446e-5 0 1 -2.75335e-4 0 1 -9.05434e-5 0 1 -5.0607e-5 0 1 3.26323e-4 0 1 6.42185e-5 0 1 -3.82769e-5 0 1 1.03272e-4 0 1 -9.77558e-5 0 1 2.21304e-5 0 1 2.13447e-5 0 1 -2.75334e-4 0 1 2.69363e-4 0 1 -9.05433e-5 0 1 -5.06073e-5 0 1 7.07036e-5 0 1 1.10304e-4 0 1 0 -1 0 -0.228199 0.9736145 0 0 1 0 -0.2504082 0.9681404 0 0.3854135 0.922744 0 0.6626431 0.7489353 0 0.5151119 0.8571229 0 0.3210246 0.9470709 0 0.5439695 0.839105 0 0.6420565 0.7666573 0 0.4455668 0.8952487 0 0.3808939 -0.9246188 0 -0.3854141 0.9227438 0 -0.4950729 0.8688514 0 -1 0 0 -0.543972 0.8391035 0 -0.6420561 0.7666578 0 0.07656168 0.9970648 0 0.131317 0.9913405 0 -0.6626425 0.7489359 0 0.1711566 0.9852439 0 1 0 0 0.2281966 0.9736151 0 -0.3075095 0.9515451 0 0.2504062 0.9681409 0 -0.4346993 0.9005756 0 -7.81926e-7 -1 0 0.3075088 0.9515452 0 0.385412 0.9227446 0 0.4455702 0.8952471 0 0.5151072 0.8571258 0 0.5439671 0.8391066 0 -0.0765624 0.9970648 0 0.6420589 0.7666553 0 -0.1313177 0.9913403 0 -0.1711544 0.9852443 0 -0.2504074 0.9681406 0 0.07656216 0.9970648 0 -0.6626413 0.748937 0 0.1313178 0.9913404 0 0.1711544 0.9852443 0 -0.3075085 0.9515453 0 0.228198 0.9736148 0 0.2504092 0.9681402 0 -0.4346998 0.9005755 0 0.3789316 -0.9254247 0 -0.4950734 0.8688512 0 0.6626418 0.7489365 0 -0.5439714 0.8391039 0 -0.377096 -0.9261742 0 0.3075099 0.9515449 0 0.4455688 0.8952477 0 0.5151096 0.8571245 0 -0.07656192 0.9970648 0 -0.1313181 0.9913403 0 -0.228201 0.9736141 0 0.0765624 0.9970648 0 4.27532e-7 -1 0 0.131318 0.9913403 0 0.1711542 0.9852443 0 0.228199 0.9736145 0 0.2504082 0.9681404 0 0.3808947 -0.9246184 0 -0.3854131 0.9227442 0 -0.6626436 0.7489349 0 -0.4950746 0.8688504 0 -0.3075103 0.9515448 0 -0.5439695 0.839105 0 -0.6420608 0.7666537 0 -0.4447883 -0.8956357 0 -0.3770962 -0.9261741 0 0.3854137 0.922744 0 0.5151107 0.8571238 0 0.5439706 0.8391044 0 0.6420577 0.7666564 0 -0.2281982 0.9736147 0 0.4455685 0.8952479 0 -0.4346989 0.9005759 0 -0.6420584 0.7666558 0 0.1313182 0.9913403 0 -0.3783004 -0.925683 0 0.2281987 0.9736146 0 0.2504076 0.9681405 0 -0.07656216 0.9970648 0 -0.1313185 0.9913403 0 -0.1711539 0.9852444 0 1.20001e-4 0 -1 -4.42089e-5 0 -1 -1.72719e-4 0 -1 2.1106e-5 0 -1 9.30972e-5 0 -1 -1.72719e-4 0 -1 1.35501e-4 0 -1 -1.05839e-4 0 -1 -7.68668e-5 0 -1 1.76836e-4 0 1 -6.47697e-5 0 1 6.23756e-5 0 1 -6.47698e-5 0 1 6.23758e-5 0 1 -9.46053e-5 0 1 0.3210245 0.9470709 0 0.543972 0.8391035 0 0.4455702 0.8952471 0 -0.3854141 0.9227438 0 -0.5439707 0.8391042 0 -0.6420573 0.7666568 0 0.0765627 0.9970648 0 0.1313186 0.9913402 0 -0.6626433 0.7489352 0 0.1711523 0.9852446 0 0.2281994 0.9736144 0 -0.3075098 0.9515449 0 -0.4346993 0.9005758 0 -7.81924e-7 -1 0 0.6626408 0.7489374 0 0.3854157 0.9227432 0 0.4455685 0.8952479 0 -0.3075067 0.9515459 0 -0.3854136 0.9227439 0 -0.4346997 0.9005755 0 -0.4950743 0.8688508 0 0.6626418 0.7489365 0 -0.6420561 0.7666578 0 0.4455687 0.8952478 0 -0.2281968 0.973615 0 -0.2504104 0.9681398 0 0.07656228 0.9970648 0 0.2281984 0.9736147 0 0.2504081 0.9681404 0 -0.3854151 0.9227433 0 -0.434698 0.9005763 0 -0.4447849 -0.8956373 0 -0.3770963 -0.9261742 0 0.5151106 0.8571237 0 0.5439707 0.8391044 0 -0.1711555 0.9852441 0 0.3075115 0.9515444 0 -0.3854131 0.9227442 0 -0.4346989 0.9005759 0 0.37893 -0.9254253 0 -0.4950764 0.8688495 0 -0.5439671 0.8391066 0 -0.6420537 0.7666597 0 0.1711539 0.9852444 0 -0.3783044 -0.9256813 0 0.2504084 0.9681403 0</float_array>
          <technique_common>
            <accessor source="#Plane_004-mesh-normals-array" count="237" stride="3">
              <param name="X" type="float"/>
              <param name="Y" type="float"/>
              <param name="Z" type="float"/>
            </accessor>
          </technique_common>
        </source>
        <source id="Plane_004-mesh-map-0">
          <float_array id="Plane_004-mesh-map-0-array" count="7992">0 1 1 0.5 0 0.5 1 0.5 1 0 1 0.5 1 0.5 1 0 1 0.5 1 0.5 1 0 1 0.5 1 0.5 1 0 1 0.5 1 0.5 1 0 1 0.5 1 0.5 1 0 1 0.5 1 0.5 1 0 1 0.5 1 0.5 1 0 1 0.5 1 0.5 1 0 1 0.5 1 0.5 1 0 1 0.5 1 0.5 1 0 1 0.5 1 0.5 1 0 1 0.5 1 0.5 1 0 1 0.5 0 0.5 1 1 0 1 1 0.5 1 0 1 0.5 1 0 1 0.5 1 0.5 1 0 1 0.5 1 0.5 1 0 1 0.5 1 0.5 1 0 1 0.5 1 0.5 1 0 1 0.5 1 0.5 1 0 1 0.5 1 0.5 1 0 1 0.5 1 0.5 1 0.5 1 0 1 0.5 1 0 1 0.5 1 0.5 1 0 1 0.5 1 0.5 1 0 1 0.5 1 0.5 1 0 1 0.5 1 0.5 0 1 1 0.5 0 0.5 1 0.5 1 0 1 0.5 1 0.5 1 0 1 0.5 1 0.5 1 0 1 0.5 1 0.5 1 0 1 0.5 1 0.5 1 0 1 0.5 1 0.5 1 0 1 0.5 1 0.5 1 0 1 0.5 1 0.5 1 0 1 0.5 1 0.5 1 0 1 0.5 1 0.5 1 0 1 0.5 1 0.5 1 0 1 0.5 1 0.5 1 0 1 0.5 1 0.5 1 0 1 0.5 1 0.5 0 1 0 0.5 1 0 1 0.5 1 0.5 1 0 1 0.5 1 0.5 1 0.5 1 0 1 0.5 1 0 1 0.5 1 0.5 1 0 1 0.5 1 0.5 1 0 1 0.5 1 0.5 1 0 1 0.5 1 0.5 1 0 1 0.5 1 0.5 1 0 1 0.5 1 0.5 1 0 1 0.5 1 0.5 1 0 1 0.5 1 0.5 1 0 1 0.5 1 0.5 1 0.5 1 0 1 0.5 0 1 1 0.5 0 0.5 1 0.5 1 0 1 0.5 1 0.5 1 0 1 0.5 1 0.5 1 0 1 0.5 1 0.5 1 0 1 0.5 1 0.5 1 0 1 0.5 1 0.5 1 0 1 0.5 1 0.5 1 0 1 0.5 0 0.5 0 0 0 0 1 0.5 0 1 0 0.5 1 0 1 0.5 1 0.5 1 0 1 0.5 1 0.5 1 0 1 0.5 1 0.5 1 0 1 0.5 1 0.5 1 0 1 0.5 1 0.5 1 0 1 0.5 1 0.5 1 0 1 0.5 1 0.5 1 0 1 0.5 1 0.5 1 0 1 0.5 1 0.5 1 0 1 0.5 1 0.5 1 0 1 0.5 1 0.5 1 0 1 0.5 1 0.5 1 0 1 0.5 1 0.5 0 1 1 0.5 0 0.5 1 0.5 1 0 1 0.5 1 0.5 1 0 1 0.5 1 0.5 1 0 1 0.5 1 0.5 1 0 1 0.5 1 0.5 1 0 1 0.5 1 0.5 1 0 1 0.5 1 0.5 1 0 1 0.5 1 0.5 1 0 1 0.5 1 0.5 1 0 1 0.5 1 0.5 1 0 1 0.5 1 0.5 1 0 1 0.5 1 0.5 1 0 1 0.5 1 0.5 1 0 1 0.5 1 0.5 0 1 0 0.5 1 0 1 0.5 1 0.5 1 0.5 1 0 1 0.5 1 0.5 1 0 1 0.5 1 0 1 0.5 1 0.5 1 0 1 0.5 1 0.5 1 0 1 0.5 1 0.5 1 0 1 0.5 1 0.5 1 0 1 0.5 1 0.5 1 0 1 0.5 1 0.5 1 0.5 1 0 1 0.5 1 0 1 0.5 1 0.5 1 0 1 0.5 1 0.5 1 0 1 0.5 1 0.5 1 0.5 1 1 1 1 1 0.5 1 1 1 1 1 0.5 1 1 1 1 1 0.5 1 1 1 1 1 0.5 1 1 1 1 1 0.5 1 1 1 1 1 0.5 1 1 1 1 1 0.5 1 1 1 1 1 0.5 1 1 1 1 1 0.5 1 1 1 1 1 0.5 1 1 1 1 1 0.5 1 1 1 1 1 0.5 1 1 1 1 0 0 1 0.5 0 0.5 1 1 1 0.5 1 1 1 1 1 0.5 1 1 1 1 1 0.5 1 1 1 1 1 0.5 1 1 1 1 1 0.5 1 1 1 1 1 0.5 1 1 1 1 1 0.5 1 1 1 1 1 0.5 1 1 1 1 1 0.5 1 1 1 1 1 0.5 1 1 1 1 1 0.5 1 1 1 1 1 0.5 1 1 1 1 1 0.5 1 1 0 0.5 1 0 0 0 1 0.5 1 1 1 1 1 0.5 1 1 1 1 1 0.5 1 1 1 1 1 0.5 1 1 1 1 1 0.5 1 1 1 1 1 0.5 1 1 1 1 1 0.5 1 1 1 1 1 0.5 1 1 1 1 1 0.5 1 1 1 1 1 0.5 1 1 1 1 1 0.5 1 1 1 1 1 0.5 1 1 1 1 1 0.5 1 1 1 1 1 0 0 0.5 0 0 1 1 1 0.5 1 1 1 1 1 0.5 1 1 1 1 1 0.5 1 1 1 1 1 0.5 1 1 1 1 1 0.5 1 1 1 1 1 0.5 1 1 1 1 1 0.5 1 1 1 1 1 0.5 1 1 1 1 1 0.5 1 1 1 1 1 0.5 1 1 1 1 1 0.5 1 1 1 1 1 0.5 1 1 1 1 1 0.5 1 1 1 0.5 1 1 1 1 1 0.5 1 1 1 1 1 0.5 1 1 1 1 1 0.5 1 1 1 1 1 0.5 1 1 1 1 1 0.5 1 1 1 1 1 0.5 1 1 1 1 1 0.5 1 1 1 1 1 0.5 1 1 1 1 1 0.5 1 1 1 1 1 0.5 1 1 1 1 1 0.5 1 1 1 1 1 0.5 1 1 1 1 1 0 0 0.5 0 0 1 1 1 0.5 1 1 1 1 1 0.5 1 1 1 1 1 0.5 1 1 1 1 1 0.5 1 1 1 1 1 0.5 1 1 1 1 1 0.5 1 1 1 1 1 0.5 1 1 1 1 1 0.5 1 1 1 1 1 0.5 1 1 1 1 1 0.5 1 1 1 1 1 0.5 1 1 1 1 1 0.5 1 1 1 1 1 0.5 1 1 0 0 1 0.5 1 0 1 0.5 1 1 1 1 1 0.5 1 1 1 1 1 0.5 1 1 1 1 1 0.5 1 1 1 1 1 0.5 1 1 1 1 1 0.5 1 1 1 1 1 0.5 1 1 1 1 1 0.5 1 1 1 1 1 0.5 1 1 1 1 1 0.5 1 1 1 1 1 0.5 1 1 1 1 1 0.5 1 1 1 1 1 0.5 1 1 1 1 1 0 0 0.5 0 0 1 1 1 0.5 1 1 1 1 1 0.5 1 1 1 1 1 0.5 1 1 1 1 1 0.5 1 1 1 1 1 0.5 1 1 1 1 1 0.5 1 1 1 1 1 0.5 1 1 1 1 1 0.5 1 1 1 1 1 0.5 1 1 1 1 1 0.5 1 1 1 1 1 0.5 1 1 1 1 1 0.5 1 1 1 1 1 0.5 1 1 0 0.5 1 0 0 0 1 0.5 0 1 0 0.5 1 0 1 0.5 1 0.5 1 0 1 0.5 1 0.5 1 0 1 0.5 1 0.5 1 0 1 0.5 1 0.5 1 0 1 0.5 1 0.5 1 0 1 0.5 1 0.5 1 0 1 0.5 1 0.5 1 0 1 0.5 1 0.5 1 0 1 0.5 1 0.5 1 0 1 0.5 1 0.5 1 0 1 0.5 1 0.5 1 0 1 0.5 1 0.5 1 0 1 0.5 1 0.5 0 0.5 1 1 1 0.5 1 0.5 1 0 1 0 1 0.5 1 0 1 0.5 1 0.5 1 0 1 0.5 1 0.5 1 0 1 0.5 1 0.5 1 0 1 0.5 1 0.5 1 0 1 0.5 1 0.5 1 0 1 0.5 1 0.5 1 0 1 0.5 1 0.5 1 0 1 0 1 0.5 1 0 1 0.5 1 0.5 1 0 1 0.5 1 0.5 1 0 1 0.5 1 0.5 1 0 1 0.5 1 0.5 0 1 0 0.5 1 0 1 0.5 1 0.5 1 0 1 0.5 1 0.5 1 0 1 0.5 1 0.5 1 0 1 0.5 1 0.5 1 0 1 0.5 1 0.5 1 0 1 0.5 1 0.5 1 0 1 0.5 1 0.5 1 0 1 0.5 1 0.5 1 0 1 0.5 1 0.5 1 0 1 0.5 1 0.5 1 0 1 0.5 1 0.5 1 0 1 0.5 1 0.5 1 0 1 0.5 1 0.5 0 1 1 0.5 0 0.5 1 0.5 1 0 1 0.5 1 0.5 1 0 1 0.5 1 0.5 1 0 1 0 1 0.5 1 0 1 0.5 1 0.5 1 0 1 0.5 1 0.5 1 0 1 0.5 1 0.5 1 0 1 0.5 1 0.5 1 0 1 0.5 1 0.5 1 0 1 0.5 1 0.5 1 0 1 0.5 1 0.5 1 0 1 0.5 1 0.5 1 0 1 0.5 1 0.5 1 0 1 0 1 0.5 0 1 0 0.5 1 0 1 0.5 1 0.5 1 0 1 0.5 1 0.5 1 0 1 0.5 1 0.5 1 0 1 0.5 1 0.5 1 0 1 0.5 1 0.5 1 0 1 0.5 1 0.5 1 0 1 0.5 1 0.5 0 0 0 0.5 0 0 0 1 1 0.5 0 0.5 1 0.5 1 0 1 0.5 1 0.5 1 0 1 0.5 1 0.5 1 0 1 0.5 1 0.5 1 0 1 0.5 1 0.5 1 0 1 0.5 1 0.5 1 0 1 0.5 1 0.5 1 0 1 0.5 1 0.5 1 0 1 0.5 1 0.5 1 0 1 0.5 1 0.5 1 0 1 0.5 1 0.5 1 0 1 0.5 1 0.5 1 0 1 0.5 1 0.5 1 0 1 0.5 1 0.5 0 1 0 0.5 1 0 1 0.5 1 0.5 1 0 1 0.5 1 0.5 1 0 1 0.5 1 0.5 1 0 1 0.5 1 0.5 1 0 1 0.5 1 0.5 1 0 1 0.5 1 0.5 1 0 1 0.5 1 0.5 1 0 1 0.5 1 0.5 1 0 1 0.5 1 0.5 1 0 1 0.5 1 0.5 1 0 1 0.5 1 0.5 1 0 1 0.5 1 0.5 1 0 1 0.5 1 0.5 0 1 1 0.5 0 0.5 1 0.5 1 0 1 0.5 1 0.5 1 0 1 0 1 0.5 1 0 1 0 1 0.5 1 0 1 0.5 1 0.5 1 0 1 0.5 1 0.5 1 0 1 0.5 1 0.5 1 0 1 0.5 1 0.5 1 0 1 0.5 1 0.5 1 0 1 0.5 1 0.5 1 0 1 0 1 0.5 1 0 1 0.5 1 0.5 1 0 1 0.5 1 0.5 1 0 1 0.5 1 1 1 0.5 1 1 1 1 1 0.5 1 1 1 1 1 0.5 1 1 1 1 1 0.5 1 1 1 1 1 0.5 1 1 1 1 1 0.5 1 1 1 1 1 0.5 1 1 1 1 1 0.5 1 1 1 1 1 0.5 1 1 1 1 1 0.5 1 1 1 1 1 0.5 1 1 1 1 1 0.5 1 1 1 1 1 0.5 1 1 0 0 1 0.5 1 0 1 0.5 1 1 1 1 1 0.5 1 1 1 1 1 0.5 1 1 1 1 1 0.5 1 1 1 1 1 0.5 1 1 1 1 1 0.5 1 1 1 1 1 0.5 1 1 1 1 1 0.5 1 1 1 1 1 0.5 1 1 1 1 1 0.5 1 1 1 1 1 0.5 1 1 1 1 1 0.5 1 1 1 1 1 0.5 1 1 1 1 1 0 0 0.5 0 0 1 1 1 0.5 1 1 1 1 1 0.5 1 1 1 1 1 0.5 1 1 1 1 1 0.5 1 1 1 1 1 0.5 1 1 1 1 1 0.5 1 1 1 1 1 0.5 1 1 1 1 1 0.5 1 1 1 1 1 0.5 1 1 1 1 1 0.5 1 1 1 1 1 0.5 1 1 1 1 1 0.5 1 1 1 1 1 0.5 1 1 0 0.5 1 0 0 0 1 0.5 1 1 1 1 1 0.5 1 1 1 1 1 0.5 1 1 1 1 1 0.5 1 1 1 1 1 0.5 1 1 1 1 1 0.5 1 1 1 1 1 0.5 1 1 1 1 1 0.5 1 1 1 1 1 0.5 1 1 1 1 1 0.5 1 1 1 1 1 0.5 1 1 1 1 1 0.5 1 1 1 1 1 0.5 1 1 1 1 1 1 1 0.5 1 1 1 1 1 0.5 1 1 1 1 1 0.5 1 1 1 1 1 0.5 1 1 1 1 1 0.5 1 1 1 1 1 0.5 1 1 1 1 1 0.5 1 1 1 1 1 0.5 1 1 1 1 1 0.5 1 1 1 1 1 0.5 1 1 1 1 1 0.5 1 1 1 1 1 0.5 1 1 1 1 1 0.5 1 1 0 0.5 1 0 0 0 1 0.5 1 1 1 1 1 0.5 1 1 1 1 1 0.5 1 1 1 1 1 0.5 1 1 1 1 1 0.5 1 1 1 1 1 0.5 1 1 1 1 1 0.5 1 1 1 1 1 0.5 1 1 1 1 1 0.5 1 1 1 1 1 0.5 1 1 1 1 1 0.5 1 1 1 1 1 0.5 1 1 1 1 1 0.5 1 1 1 1 0 0 1 0.5 0 0.5 1 1 1 0.5 1 1 1 1 1 0.5 1 1 1 1 1 0.5 1 1 1 1 1 0.5 1 1 1 1 1 0.5 1 1 1 1 1 0.5 1 1 1 1 1 0.5 1 1 1 1 1 0.5 1 1 1 1 1 0.5 1 1 1 1 1 0.5 1 1 1 1 1 0.5 1 1 1 1 1 0.5 1 1 1 1 1 0.5 1 1 0 0.5 1 0 0 0 1 0.5 1 1 1 1 1 0.5 1 1 1 1 1 0.5 1 1 1 1 1 0.5 1 1 1 1 1 0.5 1 1 1 1 1 0.5 1 1 1 1 1 0.5 1 1 1 1 1 0.5 1 1 1 1 1 0.5 1 1 1 1 1 0.5 1 1 1 1 1 0.5 1 1 1 1 1 0.5 1 1 1 1 1 0.5 1 1 1 1 1 0 0 0.5 0 0 0 0 1 0 0 0 1 1 1 1 1 1 1 0.5 1 0.5 1 0.5 1 1 0 1 1 1 1 1 1 1 1 1 1 0.5 1 0.5 1 0.5 0 1 1 1 0 1 1 0.5 1 0.5 1 0.5 1 0 1 0 1 0 1 0.5 1 0.5 1 0.5 1 1 1 1 1 1 1 0 1 0 1 0 1 1 1 1 1 1 1 1 1 1 1 1 1 1 1 1 1 1 1 1 1 1 1 1 1 1 1 1 1 1 1 1 1 1 1 1 1 0 1 0 1 0 1 0 1 0 1 0 1 1 1 1 1 1 1 0 1 0 1 0 1 0 1 0 1 0 1 0.5 1 0.5 1 0.5 1 0 1 0 1 0 1 0 1 0 1 0 1 1 1 1 1 1 1 0.5 1 0.5 1 0.5 1 0 1 0.5 1 0 1 0 1 0 1 0 1 1 1 1 1 1 1 0 1 0 1 0 1 1 1 1 1 1 1 0.5 0 0.5 1 0.5 1 0 1 0 1 0 1 0 1 0 1 0 1 0 1 0 1 0 1 0 1 0 1 0 1 1 1 1 1 1 1 0 1 0 1 0 1 1 1 1 1 1 1 1 0 1 1 1 1 1 1 1 1 1 0 0 0 0 0 0 1 1 1 1 1 1 1 1 1 1 1 1 0 0.5 0 0 0 0.5 1 0 1 0 1 0 1 1 1 1 1 1 1 0 1 0 1 0 1 1 1 1 1 1 1 1 1 1 1 1 1 1 1 1 1 1 0 1 1 1 0 1 1 1 1 1 1 1 1 0 1 0 1 0 1 0 1 0 1 0 1 1 1 1 1 1 1 0 1 0 1 0 1 0 1 0 1 0 1 0 1 0 1 0 1 1 1 1 1 1 1 0 1 0 1 0 1 1 1 1 1 1 1 0 1 0 1 0 1 1 1 1 1 1 1 0 1 0 1 0 1 1 1 1 1 1 1 0 1 0 1 0 1 0 1 0 1 0 1 1 1 1 1 1 1 1 1 1 1 1 1 1 1 1 1 1 1 0 1 0 1 0 1 1 1 1 1 1 0 0.5 0 0.5 0 0.5 1 0 1 0 1 0 1 1 1 1 1 1 1 0 1 0 1 0 1 1 1 1 1 1 1 0 1 0 1 0 1 1 1 1 1 1 1 0 1 0 1 0 1 0 1 0 1 0 1 1 1 1 1 1 1 0 0 0 1 0 1 1 1 1 1 1 1 1 1 1 1 1 1 1 1 1 1 1 1 0 1 0 1 0 1 1 1 1 1 1 1 0 0 0 1 0 1 1 1 1 1 1 1 1 1 1 1 1 1 0 1 0 1 0 1 1 1 1 1 1 1 1 1 1 1 1 1 1 1 1 1 1 1 0 1 0 1 0 1 0 1 0 1 0 1 1 1 1 1 1 1 1 1 1 1 1 1 1 1 1 1 1 1 0 1 0 1 0 1 0 1 0 1 0 1 1 1 1 1 1 1 0 1 0 1 0 1 1 1 1 1 1 1 0 1 0 1 0 1 0 1 0 1 0 1 0 1 0 1 0 1 0 1 0 1 0 1 0 1 0 1 0 1 1 1 1 1 1 1 0 1 0 1 0 1 0 1 0 1 0 1 1 1 1 1 1 1 0 1 0 1 0 1 0 1 0 1 0 1 1 1 1 1 1 1 0 1 0 1 0 1 1 1 1 1 1 1 1 1 1 1 1 1 0 1 0 1 0 1 0 1 0 1 0 1 1 1 1 1 1 1 1 1 1 1 1 1 0 1 0 1 0 1 1 1 1 1 1 1 1 1 1 1 1 1 0 1 0 1 0 1 0 1 0 1 0 0 0 1 0 0 0 1 1 1 1 1 1 1 0 1 0 1 0 1 0 1 0 1 0 1 1 0 1 1 1 1 1 1 1 1 1 1 0 1 0 1 0 1 0 1 0 1 0 1 1 1 1 1 1 0 1 1 1 0 1 1 1 1 1 1 1 0 0 1 0 0 0 1 1 1 1 1 1 0 1 0 0.5 0 1 1 1 1 1 1 1 0 0 1 0 0 0 1 1 1 1 1 1 1 1 1 1 1 1 1 0 1 0 1 0 1 1 0 1 1 1 1 1 1 1 1 1 1 1 1 1 1 1 1 0 1 0 1 0 1 1 1 1 1 1 1 1 1 1 1 1 1 1 1 1 1 1 1 1 1 1 1 1 1 1 1 1 1 1 1 0 1 0 1 0 1 0 1 0 1 0 1 0 1 0 1 0 1 0 1 0 1 0 1 1 1 1 1 1 0 0.5 0 1 0 0.5 1 0 1 0 1 0 1 0 1 0 1 0 1 0 1 0 1 0 1 1 1 1 1 1 1 0 1 0 1 0 1 1 1 1 1 1 1 0 1 0 1 0 1 1 1 1 1 1 1 0 1 0 1 0 1 0 1 0 1 0 1 0 1 0 1 0 1 1 1 1 1 1 1 0 1 0 1 0 1 0 1 0 1 0 0 1 1 1 0 1 1 1 1 1 1 1 1 0 1 0 1 0 1 1 1 1 1 1 1 0 1 0 1 0 1 1 1 1 1 1 1 1 1 1 1 1 1 1 1 1 1 1 1 0 1 0 1 0 1 1 1 1 1 1 1 1 1 1 1 1 1 1 1 1 1 1 1 0 0 0 1 0 1 0 1 0 1 0 1 1 1 1 1 1 1 0 1 0 1 0 1 0 1 0 1 0 1 1 1 1 1 1 1 0 1 0 1 0 1 0 1 0 1 0 1 0 1 0 1 0 1 1 1 1 1 1 1 1 1 1 1 1 1 0 1 0 1 0 1 0 1 0 1 0 1 0 1 0 1 0 1 1 1 1 1 1 1 0 1 0 1 0 1 1 1 1 1 1 1 0 1 0 1 0 1 1 1 1 1 1 1 1 1 1 1 1 1 0 1 0 1 0 1 1 1 1 1 1 1 0 1 0 1 0 1 0 1 0 1 0 1 1 1 1 1 1 1 0 1 0 1 0 1 0 1 0 1 0 1 1 1 1 1 1 1 0 1 0 1 0 1 0 1 0 1 0 1 1 1 1 1 1 1 0 1 0 1 0 1 1 1 1 1 1 1 1 1 1 1 1 1 0 1 0 1 0 1 1 1 1 1 1 1 1 1 1 1 1 1 1 1 1 1 1 0 1 1 1 1 0.5 1 0.5 1 0 1 0 1 0.5 1 0 1 0 1 0.5 1 0 1 0 1 0.5 1 0 1 0 1 0.5 1 0 1 0 1 0.5 1 0 1 0 1 0.5 1 0 1 0 1 0.5 1 0 1 0 1 0.5 1 0 1 0 1 0.5 1 0 1 0 1 0.5 1 0 1 0 1 0.5 1 0 1 0 1 0.5 1 0 1 0 0 0.5 1 0.5 1 1 1 0.5 1 0 1 0 1 0 1 0 1 0.5 1 0 1 0 1 0.5 1 0 1 0 1 0.5 1 0 1 0 1 0.5 1 0 1 0 1 0.5 1 0 1 0 1 0.5 1 0 1 0 1 0.5 1 0.5 1 0 1 0 1 0 1 0 1 0.5 1 0 1 0 1 0.5 1 0 1 0 1 0.5 1 0 1 0 1 0.5 0 1 1 1 1 0.5 1 0.5 1 0 1 0 1 0.5 1 0 1 0 1 0.5 1 0 1 0 1 0.5 1 0 1 0 1 0.5 1 0 1 0 1 0.5 1 0 1 0 1 0.5 1 0 1 0 1 0.5 1 0 1 0 1 0.5 1 0 1 0 1 0.5 1 0 1 0 1 0.5 1 0 1 0 1 0.5 1 0 1 0 1 0.5 1 0 1 0 1 0.5 1 1 0 1 1 0 1 0 1 0.5 1 0 1 0 1 0.5 1 0.5 1 0 1 0 1 0 1 0 1 0.5 1 0 1 0 1 0.5 1 0 1 0 1 0.5 1 0 1 0 1 0.5 1 0 1 0 1 0.5 1 0 1 0 1 0.5 1 0 1 0 1 0.5 1 0 1 0 1 0.5 1 0 1 0 1 0.5 1 0.5 1 0 1 0 0 1 1 1 1 0.5 1 0.5 1 0 1 0 1 0.5 1 0 1 0 1 0.5 1 0 1 0 1 0.5 1 0 1 0 1 0.5 1 0 1 0 1 0.5 1 0 1 0 1 0.5 1 0 1 0 0 0.5 0 0.5 0 0 1 0.5 1 1 0 1 1 0 1 0 1 0.5 1 0 1 0 1 0.5 1 0 1 0 1 0.5 1 0 1 0 1 0.5 1 0 1 0 1 0.5 1 0 1 0 1 0.5 1 0 1 0 1 0.5 1 0 1 0 1 0.5 1 0 1 0 1 0.5 1 0 1 0 1 0.5 1 0 1 0 1 0.5 1 0 1 0 1 0.5 1 0 1 0 1 0.5 0 1 1 1 1 0.5 1 0.5 1 0 1 0 1 0.5 1 0 1 0 1 0.5 1 0 1 0 1 0.5 1 0 1 0 1 0.5 1 0 1 0 1 0.5 1 0 1 0 1 0.5 1 0 1 0 1 0.5 1 0 1 0 1 0.5 1 0 1 0 1 0.5 1 0 1 0 1 0.5 1 0 1 0 1 0.5 1 0 1 0 1 0.5 1 0 1 0 1 0.5 1 1 0 1 1 0 1 0 1 0.5 1 0.5 1 0 1 0 1 0.5 1 0 1 0 1 0 1 0 1 0.5 1 0 1 0 1 0.5 1 0 1 0 1 0.5 1 0 1 0 1 0.5 1 0 1 0 1 0.5 1 0 1 0 1 0.5 1 0.5 1 0 1 0 1 0 1 0 1 0.5 1 0 1 0 1 0.5 1 0 1 0 1 0.5 1 0.5 1 0.5 1 1 1 0.5 1 0.5 1 1 1 0.5 1 0.5 1 1 1 0.5 1 0.5 1 1 1 0.5 1 0.5 1 1 1 0.5 1 0.5 1 1 1 0.5 1 0.5 1 1 1 0.5 1 0.5 1 1 1 0.5 1 0.5 1 1 1 0.5 1 0.5 1 1 1 0.5 1 0.5 1 1 1 0.5 1 0.5 1 1 1 0.5 1 0.5 1 1 0 0 1 0 1 0.5 1 1 1 0.5 1 0.5 1 1 1 0.5 1 0.5 1 1 1 0.5 1 0.5 1 1 1 0.5 1 0.5 1 1 1 0.5 1 0.5 1 1 1 0.5 1 0.5 1 1 1 0.5 1 0.5 1 1 1 0.5 1 0.5 1 1 1 0.5 1 0.5 1 1 1 0.5 1 0.5 1 1 1 0.5 1 0.5 1 1 1 0.5 1 0.5 1 1 1 0.5 1 0.5 0 0.5 1 0.5 1 0 1 0.5 1 0.5 1 1 1 0.5 1 0.5 1 1 1 0.5 1 0.5 1 1 1 0.5 1 0.5 1 1 1 0.5 1 0.5 1 1 1 0.5 1 0.5 1 1 1 0.5 1 0.5 1 1 1 0.5 1 0.5 1 1 1 0.5 1 0.5 1 1 1 0.5 1 0.5 1 1 1 0.5 1 0.5 1 1 1 0.5 1 0.5 1 1 1 0.5 1 0.5 1 1 1 0 1 0.5 0 0.5 1 1 1 0.5 1 0.5 1 1 1 0.5 1 0.5 1 1 1 0.5 1 0.5 1 1 1 0.5 1 0.5 1 1 1 0.5 1 0.5 1 1 1 0.5 1 0.5 1 1 1 0.5 1 0.5 1 1 1 0.5 1 0.5 1 1 1 0.5 1 0.5 1 1 1 0.5 1 0.5 1 1 1 0.5 1 0.5 1 1 1 0.5 1 0.5 1 1 1 0.5 1 0.5 1 0.5 1 0.5 1 1 1 0.5 1 0.5 1 1 1 0.5 1 0.5 1 1 1 0.5 1 0.5 1 1 1 0.5 1 0.5 1 1 1 0.5 1 0.5 1 1 1 0.5 1 0.5 1 1 1 0.5 1 0.5 1 1 1 0.5 1 0.5 1 1 1 0.5 1 0.5 1 1 1 0.5 1 0.5 1 1 1 0.5 1 0.5 1 1 1 0.5 1 0.5 1 1 1 0 1 0.5 0 0.5 1 1 1 0.5 1 0.5 1 1 1 0.5 1 0.5 1 1 1 0.5 1 0.5 1 1 1 0.5 1 0.5 1 1 1 0.5 1 0.5 1 1 1 0.5 1 0.5 1 1 1 0.5 1 0.5 1 1 1 0.5 1 0.5 1 1 1 0.5 1 0.5 1 1 1 0.5 1 0.5 1 1 1 0.5 1 0.5 1 1 1 0.5 1 0.5 1 1 1 0.5 1 0.5 0 0 0 0.5 1 0.5 1 0.5 1 0.5 1 1 1 0.5 1 0.5 1 1 1 0.5 1 0.5 1 1 1 0.5 1 0.5 1 1 1 0.5 1 0.5 1 1 1 0.5 1 0.5 1 1 1 0.5 1 0.5 1 1 1 0.5 1 0.5 1 1 1 0.5 1 0.5 1 1 1 0.5 1 0.5 1 1 1 0.5 1 0.5 1 1 1 0.5 1 0.5 1 1 1 0.5 1 0.5 1 1 1 0 1 0.5 0 0.5 1 1 1 0.5 1 0.5 1 1 1 0.5 1 0.5 1 1 1 0.5 1 0.5 1 1 1 0.5 1 0.5 1 1 1 0.5 1 0.5 1 1 1 0.5 1 0.5 1 1 1 0.5 1 0.5 1 1 1 0.5 1 0.5 1 1 1 0.5 1 0.5 1 1 1 0.5 1 0.5 1 1 1 0.5 1 0.5 1 1 1 0.5 1 0.5 1 1 1 0.5 1 0.5 0 0.5 1 0.5 1 0 1 0.5 1 1 0 1 1 0 1 0 1 0.5 1 0 1 0 1 0.5 1 0 1 0 1 0.5 1 0 1 0 1 0.5 1 0 1 0 1 0.5 1 0 1 0 1 0.5 1 0 1 0 1 0.5 1 0 1 0 1 0.5 1 0 1 0 1 0.5 1 0 1 0 1 0.5 1 0 1 0 1 0.5 1 0 1 0 1 0.5 1 0 1 0 1 0.5 0 0.5 0 1 1 1 1 0.5 1 0.5 1 0 1 0.5 1 0 1 0 1 0.5 1 0 1 0 1 0.5 1 0 1 0 1 0.5 1 0 1 0 1 0.5 1 0 1 0 1 0.5 1 0 1 0 1 0.5 1 0 1 0 1 0.5 1 0.5 1 0 1 0.5 1 0 1 0 1 0.5 1 0 1 0 1 0.5 1 0 1 0 1 0.5 1 0 1 0 1 0.5 1 1 0 1 1 0 1 0 1 0.5 1 0 1 0 1 0.5 1 0 1 0 1 0.5 1 0 1 0 1 0.5 1 0 1 0 1 0.5 1 0 1 0 1 0.5 1 0 1 0 1 0.5 1 0 1 0 1 0.5 1 0 1 0 1 0.5 1 0 1 0 1 0.5 1 0 1 0 1 0.5 1 0 1 0 1 0.5 1 0 1 0 1 0.5 0 1 1 1 1 0.5 1 0.5 1 0 1 0 1 0.5 1 0 1 0 1 0.5 1 0.5 1 0 1 0.5 1 0 1 0 1 0.5 1 0 1 0 1 0.5 1 0 1 0 1 0.5 1 0 1 0 1 0.5 1 0 1 0 1 0.5 1 0 1 0 1 0.5 1 0 1 0 1 0.5 1 0 1 0 1 0.5 1 0 1 0 1 0.5 1 0.5 1 0 1 0.5 1 1 0 1 1 0 1 0 1 0.5 1 0 1 0 1 0.5 1 0 1 0 1 0.5 1 0 1 0 1 0.5 1 0 1 0 1 0.5 1 0 1 0 1 0.5 1 0 1 0 1 0.5 0 0 0 0.5 0 0.5 0 1 1 1 1 0.5 1 0.5 1 0 1 0 1 0.5 1 0 1 0 1 0.5 1 0 1 0 1 0.5 1 0 1 0 1 0.5 1 0 1 0 1 0.5 1 0 1 0 1 0.5 1 0 1 0 1 0.5 1 0 1 0 1 0.5 1 0 1 0 1 0.5 1 0 1 0 1 0.5 1 0 1 0 1 0.5 1 0 1 0 1 0.5 1 0 1 0 1 0.5 1 1 0 1 1 0 1 0 1 0.5 1 0 1 0 1 0.5 1 0 1 0 1 0.5 1 0 1 0 1 0.5 1 0 1 0 1 0.5 1 0 1 0 1 0.5 1 0 1 0 1 0.5 1 0 1 0 1 0.5 1 0 1 0 1 0.5 1 0 1 0 1 0.5 1 0 1 0 1 0.5 1 0 1 0 1 0.5 1 0 1 0 1 0.5 0 1 1 1 1 0.5 1 0.5 1 0 1 0 1 0.5 1 0.5 1 0 1 0.5 1 0.5 1 0 1 0.5 1 0 1 0 1 0.5 1 0 1 0 1 0.5 1 0 1 0 1 0.5 1 0 1 0 1 0.5 1 0 1 0 1 0.5 1 0 1 0 1 0.5 1 0.5 1 0 1 0.5 1 0 1 0 1 0.5 1 0 1 0 1 0.5 1 0 1 0 1 1 1 0.5 1 0.5 1 1 1 0.5 1 0.5 1 1 1 0.5 1 0.5 1 1 1 0.5 1 0.5 1 1 1 0.5 1 0.5 1 1 1 0.5 1 0.5 1 1 1 0.5 1 0.5 1 1 1 0.5 1 0.5 1 1 1 0.5 1 0.5 1 1 1 0.5 1 0.5 1 1 1 0.5 1 0.5 1 1 1 0.5 1 0.5 1 1 1 0.5 1 0.5 0 0 0 0.5 1 0.5 1 0.5 1 0.5 1 1 1 0.5 1 0.5 1 1 1 0.5 1 0.5 1 1 1 0.5 1 0.5 1 1 1 0.5 1 0.5 1 1 1 0.5 1 0.5 1 1 1 0.5 1 0.5 1 1 1 0.5 1 0.5 1 1 1 0.5 1 0.5 1 1 1 0.5 1 0.5 1 1 1 0.5 1 0.5 1 1 1 0.5 1 0.5 1 1 1 0.5 1 0.5 1 1 1 0 1 0.5 0 0.5 1 1 1 0.5 1 0.5 1 1 1 0.5 1 0.5 1 1 1 0.5 1 0.5 1 1 1 0.5 1 0.5 1 1 1 0.5 1 0.5 1 1 1 0.5 1 0.5 1 1 1 0.5 1 0.5 1 1 1 0.5 1 0.5 1 1 1 0.5 1 0.5 1 1 1 0.5 1 0.5 1 1 1 0.5 1 0.5 1 1 1 0.5 1 0.5 1 1 1 0.5 1 0.5 0 0.5 1 0.5 1 0 1 0.5 1 0.5 1 1 1 0.5 1 0.5 1 1 1 0.5 1 0.5 1 1 1 0.5 1 0.5 1 1 1 0.5 1 0.5 1 1 1 0.5 1 0.5 1 1 1 0.5 1 0.5 1 1 1 0.5 1 0.5 1 1 1 0.5 1 0.5 1 1 1 0.5 1 0.5 1 1 1 0.5 1 0.5 1 1 1 0.5 1 0.5 1 1 1 0.5 1 0.5 1 1 1 1 1 0.5 1 0.5 1 1 1 0.5 1 0.5 1 1 1 0.5 1 0.5 1 1 1 0.5 1 0.5 1 1 1 0.5 1 0.5 1 1 1 0.5 1 0.5 1 1 1 0.5 1 0.5 1 1 1 0.5 1 0.5 1 1 1 0.5 1 0.5 1 1 1 0.5 1 0.5 1 1 1 0.5 1 0.5 1 1 1 0.5 1 0.5 1 1 1 0.5 1 0.5 0 0.5 1 0.5 1 0 1 0.5 1 0.5 1 1 1 0.5 1 0.5 1 1 1 0.5 1 0.5 1 1 1 0.5 1 0.5 1 1 1 0.5 1 0.5 1 1 1 0.5 1 0.5 1 1 1 0.5 1 0.5 1 1 1 0.5 1 0.5 1 1 1 0.5 1 0.5 1 1 1 0.5 1 0.5 1 1 1 0.5 1 0.5 1 1 1 0.5 1 0.5 1 1 1 0.5 1 0.5 1 1 0 0 1 0 1 0.5 1 1 1 0.5 1 0.5 1 1 1 0.5 1 0.5 1 1 1 0.5 1 0.5 1 1 1 0.5 1 0.5 1 1 1 0.5 1 0.5 1 1 1 0.5 1 0.5 1 1 1 0.5 1 0.5 1 1 1 0.5 1 0.5 1 1 1 0.5 1 0.5 1 1 1 0.5 1 0.5 1 1 1 0.5 1 0.5 1 1 1 0.5 1 0.5 1 1 1 0.5 1 0.5 0 0.5 1 0.5 1 0 1 0.5 1 0.5 1 1 1 0.5 1 0.5 1 1 1 0.5 1 0.5 1 1 1 0.5 1 0.5 1 1 1 0.5 1 0.5 1 1 1 0.5 1 0.5 1 1 1 0.5 1 0.5 1 1 1 0.5 1 0.5 1 1 1 0.5 1 0.5 1 1 1 0.5 1 0.5 1 1 1 0.5 1 0.5 1 1 1 0.5 1 0.5 1 1 1 0.5 1 0.5 1 1 1 0 1 0.5 0 0.5 0 0 1 0 1 0 1 1 1 1 1 1 1 0.5 1 0.5 1 0.5 1 1 0 1 0 1 1 1 1 1 1 1 1 0.5 1 0.5 1 0.5 0 1 1 1 1 1 1 0.5 1 0.5 1 0.5 1 0 1 0 1 0 1 0.5 1 0.5 1 0.5 1 1 1 1 1 1 1 0 1 0 1 0 1 1 1 1 1 1 1 1 1 1 1 1 1 1 1 1 1 1 1 1 1 1 1 1 1 1 1 1 1 1 1 1 1 1 1 1 1 0 1 0 1 0 1 0 1 0 1 0 1 1 1 1 1 1 1 0 1 0 1 0 1 0 1 0 1 0 1 0.5 1 0.5 1 0.5 1 0 1 0 1 0 1 0 1 0 1 0 1 1 1 1 1 1 1 0.5 1 0.5 1 0.5 1 0 1 0.5 1 0.5 1 0 1 0 1 0 1 1 1 1 1 1 1 0 1 0 1 0 1 1 1 1 1 1 1 0.5 0 0.5 0 0.5 1 0 1 0 1 0 1 0 1 0 1 0 1 0 1 0 1 0 1 0 1 0 1 0 1 1 1 1 1 1 1 0 1 0 1 0 1 1 1 1 1 1 1 1 0 1 0 1 1 1 1 1 1 1 0 0 0 0 0 0 1 1 1 1 1 1 1 1 1 1 1 1 0 0.5 0 0 0 0 1 0 1 0 1 0 1 1 1 1 1 1 1 0 1 0 1 0 1 1 1 1 1 1 1 1 1 1 1 1 1 1 1 1 1 1 0 1 1 1 1 1 1 1 1 1 1 1 1 0 1 0 1 0 1 0 1 0 1 0 1 1 1 1 1 1 1 0 1 0 1 0 1 0 1 0 1 0 1 0 1 0 1 0 1 1 1 1 1 1 1 0 1 0 1 0 1 1 1 1 1 1 1 0 1 0 1 0 1 1 1 1 1 1 1 0 1 0 1 0 1 1 1 1 1 1 1 0 1 0 1 0 1 0 1 0 1 0 1 1 1 1 1 1 1 1 1 1 1 1 1 1 1 1 1 1 1 0 1 0 1 0 1 1 1 1 1 1 0 0.5 0 0.5 0 0.5 1 0 1 0 1 0 1 1 1 1 1 1 1 0 1 0 1 0 1 1 1 1 1 1 1 0 1 0 1 0 1 1 1 1 1 1 1 0 1 0 1 0 1 0 1 0 1 0 1 1 1 1 1 1 1 0 0 0 0 0 1 1 1 1 1 1 1 1 1 1 1 1 1 1 1 1 1 1 1 0 1 0 1 0 1 1 1 1 1 1 1 0 0 0 0 0 1 1 1 1 1 1 1 1 1 1 1 1 1 0 1 0 1 0 1 1 1 1 1 1 1 1 1 1 1 1 1 1 1 1 1 1 1 0 1 0 1 0 1 0 1 0 1 0 1 1 1 1 1 1 1 1 1 1 1 1 1 1 1 1 1 1 1 0 1 0 1 0 1 0 1 0 1 0 1 1 1 1 1 1 1 0 1 0 1 0 1 1 1 1 1 1 1 0 1 0 1 0 1 0 1 0 1 0 1 0 1 0 1 0 1 0 1 0 1 0 1 0 1 0 1 0 1 1 1 1 1 1 1 0 1 0 1 0 1 0 1 0 1 0 1 1 1 1 1 1 1 0 1 0 1 0 1 0 1 0 1 0 1 1 1 1 1 1 1 0 1 0 1 0 1 1 1 1 1 1 1 1 1 1 1 1 1 0 1 0 1 0 1 0 1 0 1 0 1 1 1 1 1 1 1 1 1 1 1 1 1 0 1 0 1 0 1 1 1 1 1 1 1 1 1 1 1 1 1 0 1 0 1 0 1 0 1 0 1 0 0 0 1 0 1 0 1 1 1 1 1 1 1 0 1 0 1 0 1 0 1 0 1 0 1 1 0 1 0 1 1 1 1 1 1 1 1 0 1 0 1 0 1 0 1 0 1 0 1 1 1 1 1 1 0 1 1 1 1 1 1 1 1 1 1 1 0 0 1 0 1 0 1 1 1 1 1 1 0 1 0 0.5 0 0.5 1 1 1 1 1 1 0 0 1 0 1 0 1 1 1 1 1 1 1 1 1 1 1 1 1 0 1 0 1 0 1 1 0 1 0 1 1 1 1 1 1 1 1 1 1 1 1 1 1 0 1 0 1 0 1 1 1 1 1 1 1 1 1 1 1 1 1 1 1 1 1 1 1 1 1 1 1 1 1 1 1 1 1 1 1 0 1 0 1 0 1 0 1 0 1 0 1 0 1 0 1 0 1 0 1 0 1 0 1 1 1 1 1 1 0 0.5 0 1 0 1 1 0 1 0 1 0 1 0 1 0 1 0 1 0 1 0 1 0 1 1 1 1 1 1 1 0 1 0 1 0 1 1 1 1 1 1 1 0 1 0 1 0 1 1 1 1 1 1 1 0 1 0 1 0 1 0 1 0 1 0 1 0 1 0 1 0 1 1 1 1 1 1 1 0 1 0 1 0 1 0 1 0 1 0 0 1 1 1 1 1 1 1 1 1 1 1 1 0 1 0 1 0 1 1 1 1 1 1 1 0 1 0 1 0 1 1 1 1 1 1 1 1 1 1 1 1 1 1 1 1 1 1 1 0 1 0 1 0 1 1 1 1 1 1 1 1 1 1 1 1 1 1 1 1 1 1 1 0 0 0 0 0 1 0 1 0 1 0 1 1 1 1 1 1 1 0 1 0 1 0 1 0 1 0 1 0 1 1 1 1 1 1 1 0 1 0 1 0 1 0 1 0 1 0 1 0 1 0 1 0 1 1 1 1 1 1 1 1 1 1 1 1 1 0 1 0 1 0 1 0 1 0 1 0 1 0 1 0 1 0 1 1 1 1 1 1 1 0 1 0 1 0 1 1 1 1 1 1 1 0 1 0 1 0 1 1 1 1 1 1 1 1 1 1 1 1 1 0 1 0 1 0 1 1 1 1 1 1 1 0 1 0 1 0 1 0 1 0 1 0 1 1 1 1 1 1 1 0 1 0 1 0 1 0 1 0 1 0 1 1 1 1 1 1 1 0 1 0 1 0 1 0 1 0 1 0 1 1 1 1 1 1 1 0 1 0 1 0 1 1 1 1 1 1 1 1 1 1 1 1 1 0 1 0 1 0 1 1 1 1 1 1 1 1 1 1 1 1 1 1 1 1 1 1</float_array>
          <technique_common>
            <accessor source="#Plane_004-mesh-map-0-array" count="3996" stride="2">
              <param name="S" type="float"/>
              <param name="T" type="float"/>
            </accessor>
          </technique_common>
        </source>
        <vertices id="Plane_004-mesh-vertices">
          <input semantic="POSITION" source="#Plane_004-mesh-positions"/>
        </vertices>
        <triangles material="gora_dol-material" count="872">
          <input semantic="VERTEX" source="#Plane_004-mesh-vertices" offset="0"/>
          <input semantic="NORMAL" source="#Plane_004-mesh-normals" offset="1"/>
          <input semantic="TEXCOORD" source="#Plane_004-mesh-map-0" offset="2" set="0"/>
          <p>197 0 0 195 0 1 333 0 2 2 0 3 15 0 4 230 0 5 223 0 6 22 0 7 231 0 8 224 0 9 29 0 10 234 0 11 225 0 12 6 0 13 223 0 14 226 0 15 10 0 16 225 0 17 227 0 18 11 0 19 226 0 20 228 0 21 12 0 22 227 0 23 229 0 24 13 0 25 228 0 26 230 0 27 14 0 28 229 0 29 231 0 30 9 0 31 224 0 32 232 0 33 1 0 34 195 0 35 233 0 36 27 0 37 232 0 38 234 0 39 28 0 40 233 0 41 241 0 42 31 0 43 58 0 44 247 0 45 4 0 46 2 0 47 50 0 48 239 0 49 248 0 50 57 0 51 240 0 52 251 0 53 34 0 54 242 0 55 239 0 56 38 0 57 243 0 58 242 0 59 39 0 60 244 0 61 243 0 62 40 0 63 245 0 64 244 0 65 41 0 66 246 0 67 245 0 68 246 0 69 43 0 70 247 0 71 37 0 72 248 0 73 240 0 74 30 0 75 249 0 76 236 0 77 55 0 78 250 0 79 249 0 80 56 0 81 251 0 82 250 0 83 58 0 84 238 0 85 241 0 86 252 0 87 71 0 88 260 0 89 253 0 90 78 0 91 261 0 92 254 0 93 85 0 94 264 0 95 255 0 96 62 0 97 253 0 98 256 0 99 66 0 100 255 0 101 257 0 102 67 0 103 256 0 104 258 0 105 68 0 106 257 0 107 259 0 108 69 0 109 258 0 110 260 0 111 70 0 112 259 0 113 261 0 114 65 0 115 254 0 116 262 0 117 32 0 118 238 0 119 263 0 120 83 0 121 262 0 122 264 0 123 84 0 124 263 0 125 266 0 126 88 0 127 265 0 128 99 0 129 252 0 130 274 0 131 106 0 132 267 0 133 275 0 134 278 0 135 93 0 136 268 0 137 90 0 138 269 0 139 267 0 140 94 0 141 270 0 142 269 0 143 95 0 144 271 0 145 270 0 146 96 0 147 272 0 148 271 0 149 97 0 150 273 0 151 272 0 152 98 0 153 274 0 154 273 0 155 93 0 156 275 0 157 268 0 158 87 0 159 276 0 160 266 0 161 111 0 162 277 0 163 276 0 164 277 0 165 113 0 166 278 0 167 114 0 168 235 0 169 237 0 170 279 0 171 126 0 172 287 0 173 282 0 174 118 0 175 280 0 176 283 0 177 121 0 178 282 0 179 284 0 180 122 0 181 283 0 182 285 0 183 123 0 184 284 0 185 286 0 186 124 0 187 285 0 188 287 0 189 125 0 190 286 0 191 265 0 192 138 0 193 86 0 194 292 0 195 167 0 196 296 0 197 152 0 198 279 0 199 302 0 200 159 0 201 294 0 202 303 0 203 166 0 204 295 0 205 306 0 206 143 0 207 297 0 208 294 0 209 147 0 210 298 0 211 297 0 212 148 0 213 299 0 214 298 0 215 149 0 216 300 0 217 299 0 218 150 0 219 301 0 220 300 0 221 151 0 222 302 0 223 301 0 224 146 0 225 303 0 226 295 0 227 139 0 228 304 0 229 292 0 230 164 0 231 305 0 232 304 0 233 165 0 234 306 0 235 305 0 236 167 0 237 293 0 238 296 0 239 307 0 240 180 0 241 315 0 242 308 0 243 187 0 244 316 0 245 309 0 246 194 0 247 319 0 248 310 0 249 171 0 250 308 0 251 311 0 252 175 0 253 310 0 254 312 0 255 176 0 256 311 0 257 313 0 258 177 0 259 312 0 260 314 0 261 178 0 262 313 0 263 315 0 264 179 0 265 314 0 266 316 0 267 174 0 268 309 0 269 317 0 270 141 0 271 293 0 272 318 0 273 192 0 274 317 0 275 319 0 276 193 0 277 318 0 278 320 0 279 197 0 280 333 0 281 208 0 282 307 0 283 328 0 284 329 0 285 199 0 286 321 0 287 332 0 288 202 0 289 322 0 290 199 0 291 323 0 292 321 0 293 203 0 294 324 0 295 323 0 296 204 0 297 325 0 298 324 0 299 205 0 300 326 0 301 325 0 302 206 0 303 327 0 304 326 0 305 207 0 306 328 0 307 327 0 308 322 0 309 215 0 310 329 0 311 196 0 312 330 0 313 320 0 314 220 0 315 331 0 316 330 0 317 221 0 318 332 0 319 331 0 320 331 1 321 217 1 322 218 1 323 330 0 324 218 0 325 219 0 326 320 2 327 219 2 328 198 2 329 322 3 330 216 3 331 201 3 332 327 4 333 209 4 334 210 4 335 326 5 336 210 5 337 211 5 338 325 6 339 211 6 340 212 6 341 324 7 342 212 7 343 213 7 344 323 8 345 213 8 346 214 8 347 321 9 348 214 9 349 200 9 350 332 10 351 201 10 352 217 10 353 329 11 354 200 11 355 216 11 356 328 0 357 170 0 358 209 0 359 0 0 360 320 0 361 333 0 362 189 0 363 318 0 364 190 0 365 190 12 366 317 12 367 191 12 368 191 0 369 293 0 370 168 0 371 188 0 372 309 0 373 173 0 374 181 0 375 314 0 376 182 0 377 182 0 378 313 0 379 183 0 380 183 0 381 312 0 382 184 0 383 184 0 384 311 0 385 185 0 386 185 13 387 310 13 388 186 13 389 186 0 390 308 0 391 172 0 392 173 0 393 319 0 394 189 0 395 172 0 396 316 0 397 188 0 398 170 0 399 315 0 400 181 0 401 296 0 402 141 0 403 142 0 404 305 14 405 161 14 406 162 14 407 304 0 408 162 0 409 163 0 410 292 15 411 163 15 412 140 15 413 295 16 414 160 16 415 145 16 416 301 17 417 153 17 418 154 17 419 300 18 420 154 18 421 155 18 422 299 19 423 155 19 424 156 19 425 298 20 426 156 20 427 157 20 428 297 21 429 157 21 430 158 21 431 294 22 432 158 22 433 144 22 434 306 23 435 145 23 436 161 23 437 303 11 438 144 11 439 160 11 440 302 0 441 117 0 442 153 0 443 139 0 444 296 0 445 142 0 446 134 0 447 290 0 448 135 0 449 135 24 450 289 24 451 136 24 452 136 0 453 235 0 454 115 0 455 133 0 456 281 0 457 120 0 458 127 0 459 286 0 460 128 0 461 128 0 462 285 0 463 129 0 464 129 0 465 284 0 466 130 0 467 130 0 468 283 0 469 131 0 470 131 25 471 282 25 472 132 25 473 132 0 474 280 0 475 119 0 476 120 0 477 291 0 478 134 0 479 119 0 480 288 0 481 133 0 482 117 0 483 287 0 484 127 0 485 277 1 486 108 1 487 109 1 488 276 0 489 109 0 490 110 0 491 266 15 492 110 15 493 89 15 494 268 26 495 107 26 496 92 26 497 273 4 498 100 4 499 101 4 500 272 18 501 101 18 502 102 18 503 271 19 504 102 19 505 103 19 506 270 27 507 103 27 508 104 27 509 269 28 510 104 28 511 105 28 512 267 29 513 105 29 514 91 29 515 278 30 516 92 30 517 108 30 518 275 31 519 91 31 520 107 31 521 274 0 522 61 0 523 100 0 524 87 0 525 265 0 526 86 0 527 80 0 528 263 0 529 81 0 530 81 12 531 262 12 532 82 12 533 82 0 534 238 0 535 59 0 536 79 0 537 254 0 538 64 0 539 72 0 540 259 0 541 73 0 542 73 0 543 258 0 544 74 0 545 74 0 546 257 0 547 75 0 548 75 0 549 256 0 550 76 0 551 76 32 552 255 32 553 77 32 554 77 0 555 253 0 556 63 0 557 64 0 558 264 0 559 80 0 560 63 0 561 261 0 562 79 0 563 61 0 564 260 0 565 72 0 566 33 0 567 238 0 568 32 0 569 250 1 570 52 1 571 53 1 572 249 0 573 53 0 574 54 0 575 236 33 576 54 33 577 31 33 578 240 26 579 51 26 580 36 26 581 246 34 582 44 34 583 45 34 584 245 35 585 45 35 586 46 35 587 244 36 588 46 36 589 47 36 590 243 37 591 47 37 592 48 37 593 242 38 594 48 38 595 49 38 596 239 39 597 49 39 598 35 39 599 251 40 600 36 40 601 52 40 602 248 11 603 35 11 604 51 11 605 247 0 606 5 0 607 44 0 608 30 0 609 241 0 610 33 0 611 24 0 612 233 0 613 25 0 614 25 41 615 232 41 616 26 41 617 26 0 618 195 0 619 3 0 620 23 0 621 224 0 622 8 0 623 16 0 624 229 0 625 17 0 626 17 0 627 228 0 628 18 0 629 18 0 630 227 0 631 19 0 632 19 0 633 226 0 634 20 0 635 20 42 636 225 42 637 21 42 638 21 0 639 223 0 640 7 0 641 8 0 642 234 0 643 24 0 644 7 0 645 231 0 646 23 0 647 5 0 648 230 0 649 16 0 650 333 0 651 1 0 652 0 0 653 529 43 654 531 43 655 667 43 656 349 43 657 336 43 658 564 43 659 356 43 660 557 43 661 565 43 662 363 43 663 558 43 664 568 43 665 340 43 666 559 43 667 557 43 668 344 43 669 560 43 670 559 43 671 345 43 672 561 43 673 560 43 674 346 43 675 562 43 676 561 43 677 347 43 678 563 43 679 562 43 680 348 43 681 564 43 682 563 43 683 343 43 684 565 43 685 558 43 686 335 43 687 566 43 688 529 43 689 361 43 690 567 43 691 566 43 692 362 43 693 568 43 694 567 43 695 575 43 696 365 43 697 570 43 698 581 43 699 338 43 700 377 43 701 573 43 702 384 43 703 582 43 704 574 43 705 391 43 706 585 43 707 576 43 708 368 43 709 573 43 710 577 43 711 372 43 712 576 43 713 578 43 714 373 43 715 577 43 716 579 43 717 374 43 718 578 43 719 580 43 720 375 43 721 579 43 722 580 43 723 377 43 724 376 43 725 582 43 726 371 43 727 574 43 728 583 43 729 364 43 730 570 43 731 584 43 732 389 43 733 583 43 734 585 43 735 390 43 736 584 43 737 572 43 738 392 43 739 575 43 740 405 43 741 586 43 742 594 43 743 412 43 744 587 43 745 595 43 746 419 43 747 588 43 748 598 43 749 396 43 750 589 43 751 587 43 752 400 43 753 590 43 754 589 43 755 401 43 756 591 43 757 590 43 758 402 43 759 592 43 760 591 43 761 403 43 762 593 43 763 592 43 764 404 43 765 594 43 766 593 43 767 399 43 768 595 43 769 588 43 770 366 43 771 596 43 772 572 43 773 417 43 774 597 43 775 596 43 776 418 43 777 598 43 778 597 43 779 422 44 780 600 44 781 599 44 782 586 43 783 433 43 784 608 43 785 601 43 786 440 43 787 609 43 788 612 45 789 427 45 790 447 45 791 603 43 792 424 43 793 601 43 794 604 43 795 428 43 796 603 43 797 605 43 798 429 43 799 604 43 800 606 43 801 430 43 802 605 43 803 607 43 804 431 43 805 606 43 806 608 43 807 432 43 808 607 43 809 609 43 810 427 43 811 602 43 812 610 43 813 421 43 814 600 43 815 611 43 816 445 43 817 610 43 818 611 46 819 447 46 820 446 46 821 569 43 822 448 43 823 571 43 824 460 43 825 613 43 826 621 43 827 452 43 828 616 43 829 614 43 830 455 43 831 617 43 832 616 43 833 456 43 834 618 43 835 617 43 836 457 43 837 619 43 838 618 43 839 458 43 840 620 43 841 619 43 842 459 43 843 621 43 844 620 43 845 472 43 846 599 43 847 420 43 848 501 43 849 626 43 850 630 43 851 613 43 852 486 43 853 636 43 854 628 43 855 493 43 856 637 43 857 629 43 858 500 43 859 640 43 860 631 43 861 477 43 862 628 43 863 632 43 864 481 43 865 631 43 866 633 43 867 482 43 868 632 43 869 634 43 870 483 43 871 633 43 872 635 43 873 484 43 874 634 43 875 636 43 876 485 43 877 635 43 878 637 43 879 480 43 880 629 43 881 638 43 882 473 43 883 626 43 884 639 43 885 498 43 886 638 43 887 640 43 888 499 43 889 639 43 890 627 43 891 501 43 892 630 43 893 514 43 894 641 43 895 649 43 896 521 43 897 642 43 898 650 43 899 528 43 900 643 43 901 653 43 902 505 43 903 644 43 904 642 43 905 509 43 906 645 43 907 644 43 908 510 43 909 646 43 910 645 43 911 511 43 912 647 43 913 646 43 914 512 43 915 648 43 916 647 43 917 513 43 918 649 43 919 648 43 920 508 43 921 650 43 922 643 43 923 475 43 924 651 43 925 627 43 926 526 43 927 652 43 928 651 43 929 527 43 930 653 43 931 652 43 932 531 43 933 654 43 934 667 43 935 641 43 936 542 43 937 662 43 938 663 43 939 533 43 940 549 43 941 666 47 942 536 47 943 556 47 944 657 43 945 533 43 946 655 43 947 658 43 948 537 43 949 657 43 950 659 43 951 538 43 952 658 43 953 660 43 954 539 43 955 659 43 956 661 43 957 540 43 958 660 43 959 662 43 960 541 43 961 661 43 962 656 43 963 549 43 964 536 43 965 664 43 966 530 43 967 654 43 968 665 43 969 554 43 970 664 43 971 666 43 972 555 43 973 665 43 974 551 43 975 665 43 976 552 43 977 552 43 978 664 43 979 553 43 980 553 43 981 654 43 982 532 43 983 550 43 984 656 43 985 535 43 986 543 43 987 661 43 988 544 43 989 544 43 990 660 43 991 545 43 992 545 48 993 659 48 994 546 48 995 546 43 996 658 43 997 547 43 998 547 43 999 657 43 1000 548 43 1001 548 43 1002 655 43 1003 534 43 1004 535 43 1005 666 43 1006 551 43 1007 534 43 1008 663 43 1009 550 43 1010 504 43 1011 662 43 1012 543 43 1013 334 49 1014 654 49 1015 530 49 1016 652 50 1017 523 50 1018 524 50 1019 651 51 1020 524 51 1021 525 51 1022 627 52 1023 525 52 1024 502 52 1025 643 53 1026 522 53 1027 507 53 1028 648 54 1029 515 54 1030 516 54 1031 647 55 1032 516 55 1033 517 55 1034 646 56 1035 517 56 1036 518 56 1037 645 57 1038 518 57 1039 519 57 1040 644 58 1041 519 58 1042 520 58 1043 642 59 1044 520 59 1045 506 59 1046 653 60 1047 507 60 1048 523 60 1049 650 61 1050 506 61 1051 522 61 1052 649 43 1053 504 43 1054 515 43 1055 475 43 1056 630 43 1057 476 43 1058 495 43 1059 639 43 1060 496 43 1061 496 43 1062 638 43 1063 497 43 1064 497 43 1065 626 43 1066 474 43 1067 494 43 1068 629 43 1069 479 43 1070 487 43 1071 635 43 1072 488 43 1073 488 43 1074 634 43 1075 489 43 1076 489 62 1077 633 62 1078 490 62 1079 490 43 1080 632 43 1081 491 43 1082 491 43 1083 631 43 1084 492 43 1085 492 43 1086 628 43 1087 478 43 1088 479 43 1089 640 43 1090 495 43 1091 478 43 1092 637 43 1093 494 43 1094 451 43 1095 636 43 1096 487 43 1097 630 43 1098 473 43 1099 476 43 1100 624 63 1101 468 63 1102 469 63 1103 623 64 1104 469 64 1105 470 64 1106 569 52 1107 470 52 1108 449 52 1109 615 65 1110 467 65 1111 454 65 1112 620 54 1113 461 54 1114 462 54 1115 619 66 1116 462 66 1117 463 66 1118 618 67 1119 463 67 1120 464 67 1121 617 68 1122 464 68 1123 465 68 1124 616 69 1125 465 69 1126 466 69 1127 614 70 1128 466 70 1129 453 70 1130 625 71 1131 454 71 1132 468 71 1133 622 43 1134 453 43 1135 467 43 1136 621 43 1137 451 43 1138 461 43 1139 442 43 1140 611 43 1141 443 43 1142 443 43 1143 610 43 1144 444 43 1145 444 43 1146 600 43 1147 423 43 1148 441 43 1149 602 43 1150 426 43 1151 434 43 1152 607 43 1153 435 43 1154 435 43 1155 606 43 1156 436 43 1157 436 62 1158 605 62 1159 437 62 1160 437 43 1161 604 43 1162 438 43 1163 438 43 1164 603 43 1165 439 43 1166 439 43 1167 601 43 1168 425 43 1169 426 43 1170 612 43 1171 442 43 1172 425 43 1173 609 43 1174 441 43 1175 395 43 1176 608 43 1177 434 43 1178 599 43 1179 421 43 1180 420 43 1181 597 50 1182 414 50 1183 415 50 1184 596 51 1185 415 51 1186 416 51 1187 572 52 1188 416 52 1189 393 52 1190 588 53 1191 413 53 1192 398 53 1193 593 72 1194 406 72 1195 407 72 1196 592 73 1197 407 73 1198 408 73 1199 591 74 1200 408 74 1201 409 74 1202 590 68 1203 409 68 1204 410 68 1205 589 75 1206 410 75 1207 411 75 1208 587 76 1209 411 76 1210 397 76 1211 598 60 1212 398 60 1213 414 60 1214 595 61 1215 397 61 1216 413 61 1217 594 43 1218 395 43 1219 406 43 1220 367 43 1221 572 43 1222 575 43 1223 386 43 1224 584 43 1225 387 43 1226 387 43 1227 583 43 1228 388 43 1229 388 43 1230 570 43 1231 365 43 1232 385 43 1233 574 43 1234 370 43 1235 378 43 1236 580 43 1237 379 43 1238 379 43 1239 579 43 1240 380 43 1241 380 77 1242 578 77 1243 381 77 1244 381 43 1245 577 43 1246 382 43 1247 382 43 1248 576 43 1249 383 43 1250 383 43 1251 573 43 1252 369 43 1253 370 43 1254 585 43 1255 386 43 1256 369 43 1257 582 43 1258 385 43 1259 339 43 1260 581 43 1261 378 43 1262 575 43 1263 364 43 1264 367 43 1265 567 78 1266 358 78 1267 359 78 1268 566 79 1269 359 79 1270 360 79 1271 529 80 1272 360 80 1273 337 80 1274 558 81 1275 357 81 1276 342 81 1277 563 82 1278 350 82 1279 351 82 1280 562 83 1281 351 83 1282 352 83 1283 561 84 1284 352 84 1285 353 84 1286 560 85 1287 353 85 1288 354 85 1289 559 86 1290 354 86 1291 355 86 1292 557 87 1293 355 87 1294 341 87 1295 568 88 1296 342 88 1297 358 88 1298 565 89 1299 341 89 1300 357 89 1301 564 43 1302 339 43 1303 350 43 1304 335 43 1305 667 43 1306 334 43 1307 197 0 1998 3 0 1999 195 0 2000 2 0 2001 4 0 2002 15 0 2003 223 176 2004 6 176 2005 22 176 2006 224 0 2007 9 0 2008 29 0 2009 225 0 2010 10 0 2011 6 0 2012 226 0 2013 11 0 2014 10 0 2015 227 0 2016 12 0 2017 11 0 2018 228 0 2019 13 0 2020 12 0 2021 229 0 2022 14 0 2023 13 0 2024 230 0 2025 15 0 2026 14 0 2027 231 177 2028 22 177 2029 9 177 2030 232 0 2031 27 0 2032 1 0 2033 233 0 2034 28 0 2035 27 0 2036 234 0 2037 29 0 2038 28 0 2039 241 0 2040 236 0 2041 31 0 2042 247 0 2043 43 0 2044 4 0 2045 50 0 2046 34 0 2047 239 0 2048 57 178 2049 37 178 2050 240 178 2051 34 0 2052 38 0 2053 242 0 2054 38 0 2055 39 0 2056 243 0 2057 39 0 2058 40 0 2059 244 0 2060 40 0 2061 41 0 2062 245 0 2063 41 0 2064 42 0 2065 246 0 2066 246 0 2067 42 0 2068 43 0 2069 37 0 2070 50 0 2071 248 0 2072 30 0 2073 55 0 2074 249 0 2075 55 0 2076 56 0 2077 250 0 2078 56 0 2079 57 0 2080 251 0 2081 58 0 2082 59 0 2083 238 0 2084 252 0 2085 60 0 2086 71 0 2087 253 0 2088 62 0 2089 78 0 2090 254 0 2091 65 0 2092 85 0 2093 255 0 2094 66 0 2095 62 0 2096 256 0 2097 67 0 2098 66 0 2099 257 0 2100 68 0 2101 67 0 2102 258 0 2103 69 0 2104 68 0 2105 259 0 2106 70 0 2107 69 0 2108 260 0 2109 71 0 2110 70 0 2111 261 0 2112 78 0 2113 65 0 2114 262 0 2115 83 0 2116 32 0 2117 263 0 2118 84 0 2119 83 0 2120 264 0 2121 85 0 2122 84 0 2123 266 0 2124 89 0 2125 88 0 2126 99 0 2127 60 0 2128 252 0 2129 106 0 2130 90 0 2131 267 0 2132 278 179 2133 113 179 2134 93 179 2135 90 0 2136 94 0 2137 269 0 2138 94 0 2139 95 0 2140 270 0 2141 95 0 2142 96 0 2143 271 0 2144 96 0 2145 97 0 2146 272 0 2147 97 0 2148 98 0 2149 273 0 2150 98 0 2151 99 0 2152 274 0 2153 93 0 2154 106 0 2155 275 0 2156 87 0 2157 111 0 2158 276 0 2159 111 0 2160 112 0 2161 277 0 2162 277 180 2163 112 180 2164 113 180 2165 114 0 2166 115 0 2167 235 0 2168 279 0 2169 116 0 2170 126 0 2171 282 0 2172 121 0 2173 118 0 2174 283 0 2175 122 0 2176 121 0 2177 284 0 2178 123 0 2179 122 0 2180 285 0 2181 124 0 2182 123 0 2183 286 0 2184 125 0 2185 124 0 2186 287 0 2187 126 0 2188 125 0 2189 265 0 2190 137 0 2191 138 0 2192 292 0 2193 140 0 2194 167 0 2195 152 0 2196 116 0 2197 279 0 2198 159 0 2199 143 0 2200 294 0 2201 166 181 2202 146 181 2203 295 181 2204 143 0 2205 147 0 2206 297 0 2207 147 0 2208 148 0 2209 298 0 2210 148 0 2211 149 0 2212 299 0 2213 149 0 2214 150 0 2215 300 0 2216 150 0 2217 151 0 2218 301 0 2219 151 0 2220 152 0 2221 302 0 2222 146 0 2223 159 0 2224 303 0 2225 139 0 2226 164 0 2227 304 0 2228 164 0 2229 165 0 2230 305 0 2231 165 0 2232 166 0 2233 306 0 2234 167 0 2235 168 0 2236 293 0 2237 307 0 2238 169 0 2239 180 0 2240 308 0 2241 171 0 2242 187 0 2243 309 0 2244 174 0 2245 194 0 2246 310 0 2247 175 0 2248 171 0 2249 311 0 2250 176 0 2251 175 0 2252 312 0 2253 177 0 2254 176 0 2255 313 0 2256 178 0 2257 177 0 2258 314 0 2259 179 0 2260 178 0 2261 315 0 2262 180 0 2263 179 0 2264 316 0 2265 187 0 2266 174 0 2267 317 0 2268 192 0 2269 141 0 2270 318 0 2271 193 0 2272 192 0 2273 319 0 2274 194 0 2275 193 0 2276 320 0 2277 198 0 2278 197 0 2279 208 0 2280 169 0 2281 307 0 2282 329 0 2283 215 0 2284 199 0 2285 332 182 2286 222 182 2287 202 182 2288 199 0 2289 203 0 2290 323 0 2291 203 0 2292 204 0 2293 324 0 2294 204 0 2295 205 0 2296 325 0 2297 205 0 2298 206 0 2299 326 0 2300 206 0 2301 207 0 2302 327 0 2303 207 0 2304 208 0 2305 328 0 2306 322 0 2307 202 0 2308 215 0 2309 196 0 2310 220 0 2311 330 0 2312 220 0 2313 221 0 2314 331 0 2315 221 0 2316 222 0 2317 332 0 2318 331 0 2319 332 0 2320 217 0 2321 330 0 2322 331 0 2323 218 0 2324 320 0 2325 330 0 2326 219 0 2327 322 0 2328 329 0 2329 216 0 2330 327 0 2331 328 0 2332 209 0 2333 326 0 2334 327 0 2335 210 0 2336 325 0 2337 326 0 2338 211 0 2339 324 0 2340 325 0 2341 212 0 2342 323 0 2343 324 0 2344 213 0 2345 321 0 2346 323 0 2347 214 0 2348 332 0 2349 322 0 2350 201 0 2351 329 0 2352 321 0 2353 200 0 2354 328 0 2355 307 0 2356 170 0 2357 0 183 2358 196 183 2359 320 183 2360 189 0 2361 319 0 2362 318 0 2363 190 0 2364 318 0 2365 317 0 2366 191 0 2367 317 0 2368 293 0 2369 188 0 2370 316 0 2371 309 0 2372 181 0 2373 315 0 2374 314 0 2375 182 0 2376 314 0 2377 313 0 2378 183 0 2379 313 0 2380 312 0 2381 184 0 2382 312 0 2383 311 0 2384 185 0 2385 311 0 2386 310 0 2387 186 0 2388 310 0 2389 308 0 2390 173 0 2391 309 0 2392 319 0 2393 172 0 2394 308 0 2395 316 0 2396 170 0 2397 307 0 2398 315 0 2399 296 0 2400 293 0 2401 141 0 2402 305 0 2403 306 0 2404 161 0 2405 304 0 2406 305 0 2407 162 0 2408 292 0 2409 304 0 2410 163 0 2411 295 0 2412 303 0 2413 160 0 2414 301 0 2415 302 0 2416 153 0 2417 300 0 2418 301 0 2419 154 0 2420 299 0 2421 300 0 2422 155 0 2423 298 0 2424 299 0 2425 156 0 2426 297 0 2427 298 0 2428 157 0 2429 294 0 2430 297 0 2431 158 0 2432 306 0 2433 295 0 2434 145 0 2435 303 0 2436 294 0 2437 144 0 2438 302 0 2439 279 0 2440 117 0 2441 139 0 2442 292 0 2443 296 0 2444 134 0 2445 291 0 2446 290 0 2447 135 0 2448 290 0 2449 289 0 2450 136 0 2451 289 0 2452 235 0 2453 133 0 2454 288 0 2455 281 0 2456 127 0 2457 287 0 2458 286 0 2459 128 0 2460 286 0 2461 285 0 2462 129 0 2463 285 0 2464 284 0 2465 130 0 2466 284 0 2467 283 0 2468 131 0 2469 283 0 2470 282 0 2471 132 0 2472 282 0 2473 280 0 2474 120 0 2475 281 0 2476 291 0 2477 119 0 2478 280 0 2479 288 0 2480 117 0 2481 279 0 2482 287 0 2483 277 0 2484 278 0 2485 108 0 2486 276 0 2487 277 0 2488 109 0 2489 266 0 2490 276 0 2491 110 0 2492 268 0 2493 275 0 2494 107 0 2495 273 0 2496 274 0 2497 100 0 2498 272 0 2499 273 0 2500 101 0 2501 271 0 2502 272 0 2503 102 0 2504 270 0 2505 271 0 2506 103 0 2507 269 0 2508 270 0 2509 104 0 2510 267 0 2511 269 0 2512 105 0 2513 278 0 2514 268 0 2515 92 0 2516 275 0 2517 267 0 2518 91 0 2519 274 0 2520 252 0 2521 61 0 2522 87 184 2523 266 184 2524 265 184 2525 80 0 2526 264 0 2527 263 0 2528 81 0 2529 263 0 2530 262 0 2531 82 0 2532 262 0 2533 238 0 2534 79 0 2535 261 0 2536 254 0 2537 72 0 2538 260 0 2539 259 0 2540 73 0 2541 259 0 2542 258 0 2543 74 0 2544 258 0 2545 257 0 2546 75 0 2547 257 0 2548 256 0 2549 76 0 2550 256 0 2551 255 0 2552 77 0 2553 255 0 2554 253 0 2555 64 0 2556 254 0 2557 264 0 2558 63 0 2559 253 0 2560 261 0 2561 61 0 2562 252 0 2563 260 0 2564 33 0 2565 241 0 2566 238 0 2567 250 0 2568 251 0 2569 52 0 2570 249 0 2571 250 0 2572 53 0 2573 236 0 2574 249 0 2575 54 0 2576 240 0 2577 248 0 2578 51 0 2579 246 0 2580 247 0 2581 44 0 2582 245 0 2583 246 0 2584 45 0 2585 244 0 2586 245 0 2587 46 0 2588 243 0 2589 244 0 2590 47 0 2591 242 0 2592 243 0 2593 48 0 2594 239 0 2595 242 0 2596 49 0 2597 251 0 2598 240 0 2599 36 0 2600 248 0 2601 239 0 2602 35 0 2603 247 0 2604 2 0 2605 5 0 2606 30 0 2607 236 0 2608 241 0 2609 24 0 2610 234 0 2611 233 0 2612 25 0 2613 233 0 2614 232 0 2615 26 0 2616 232 0 2617 195 0 2618 23 0 2619 231 0 2620 224 0 2621 16 0 2622 230 0 2623 229 0 2624 17 0 2625 229 0 2626 228 0 2627 18 0 2628 228 0 2629 227 0 2630 19 0 2631 227 0 2632 226 0 2633 20 0 2634 226 0 2635 225 0 2636 21 0 2637 225 0 2638 223 0 2639 8 0 2640 224 0 2641 234 0 2642 7 0 2643 223 0 2644 231 0 2645 5 0 2646 2 0 2647 230 0 2648 333 0 2649 195 0 2650 1 0 2651 529 43 2652 337 43 2653 531 43 2654 349 43 2655 338 43 2656 336 43 2657 356 43 2658 340 43 2659 557 43 2660 363 43 2661 343 43 2662 558 43 2663 340 43 2664 344 43 2665 559 43 2666 344 43 2667 345 43 2668 560 43 2669 345 43 2670 346 43 2671 561 43 2672 346 43 2673 347 43 2674 562 43 2675 347 43 2676 348 43 2677 563 43 2678 348 43 2679 349 43 2680 564 43 2681 343 185 2682 356 185 2683 565 185 2684 335 43 2685 361 43 2686 566 43 2687 361 43 2688 362 43 2689 567 43 2690 362 43 2691 363 43 2692 568 43 2693 575 43 2694 392 43 2695 365 43 2696 581 43 2697 336 43 2698 338 43 2699 573 43 2700 368 43 2701 384 43 2702 574 186 2703 371 186 2704 391 186 2705 576 43 2706 372 43 2707 368 43 2708 577 43 2709 373 43 2710 372 43 2711 578 43 2712 374 43 2713 373 43 2714 579 43 2715 375 43 2716 374 43 2717 580 43 2718 376 43 2719 375 43 2720 580 43 2721 581 43 2722 377 43 2723 582 187 2724 384 187 2725 371 187 2726 583 43 2727 389 43 2728 364 43 2729 584 43 2730 390 43 2731 389 43 2732 585 43 2733 391 43 2734 390 43 2735 572 43 2736 393 43 2737 392 43 2738 405 43 2739 394 43 2740 586 43 2741 412 43 2742 396 43 2743 587 43 2744 419 43 2745 399 43 2746 588 43 2747 396 43 2748 400 43 2749 589 43 2750 400 43 2751 401 43 2752 590 43 2753 401 43 2754 402 43 2755 591 43 2756 402 43 2757 403 43 2758 592 43 2759 403 43 2760 404 43 2761 593 43 2762 404 43 2763 405 43 2764 594 43 2765 399 43 2766 412 43 2767 595 43 2768 366 43 2769 417 43 2770 596 43 2771 417 43 2772 418 43 2773 597 43 2774 418 43 2775 419 43 2776 598 43 2777 422 43 2778 423 43 2779 600 43 2780 586 43 2781 394 43 2782 433 43 2783 601 43 2784 424 43 2785 440 43 2786 612 43 2787 602 43 2788 427 43 2789 603 43 2790 428 43 2791 424 43 2792 604 43 2793 429 43 2794 428 43 2795 605 43 2796 430 43 2797 429 43 2798 606 43 2799 431 43 2800 430 43 2801 607 43 2802 432 43 2803 431 43 2804 608 43 2805 433 43 2806 432 43 2807 609 43 2808 440 43 2809 427 43 2810 610 43 2811 445 43 2812 421 43 2813 611 43 2814 446 43 2815 445 43 2816 611 43 2817 612 43 2818 447 43 2819 569 43 2820 449 43 2821 448 43 2822 460 43 2823 450 43 2824 613 43 2825 452 43 2826 455 43 2827 616 43 2828 455 43 2829 456 43 2830 617 43 2831 456 43 2832 457 43 2833 618 43 2834 457 43 2835 458 43 2836 619 43 2837 458 43 2838 459 43 2839 620 43 2840 459 43 2841 460 43 2842 621 43 2843 472 43 2844 471 43 2845 599 43 2846 501 43 2847 474 43 2848 626 43 2849 613 43 2850 450 43 2851 486 43 2852 628 43 2853 477 43 2854 493 43 2855 629 188 2856 480 188 2857 500 188 2858 631 43 2859 481 43 2860 477 43 2861 632 43 2862 482 43 2863 481 43 2864 633 43 2865 483 43 2866 482 43 2867 634 43 2868 484 43 2869 483 43 2870 635 43 2871 485 43 2872 484 43 2873 636 43 2874 486 43 2875 485 43 2876 637 189 2877 493 189 2878 480 189 2879 638 43 2880 498 43 2881 473 43 2882 639 43 2883 499 43 2884 498 43 2885 640 43 2886 500 43 2887 499 43 2888 627 43 2889 502 43 2890 501 43 2891 514 43 2892 503 43 2893 641 43 2894 521 43 2895 505 43 2896 642 43 2897 528 43 2898 508 43 2899 643 43 2900 505 43 2901 509 43 2902 644 43 2903 509 43 2904 510 43 2905 645 43 2906 510 43 2907 511 43 2908 646 43 2909 511 43 2910 512 43 2911 647 43 2912 512 43 2913 513 43 2914 648 43 2915 513 43 2916 514 43 2917 649 43 2918 508 43 2919 521 43 2920 650 43 2921 475 43 2922 526 43 2923 651 43 2924 526 43 2925 527 43 2926 652 43 2927 527 43 2928 528 43 2929 653 43 2930 531 43 2931 532 43 2932 654 43 2933 641 43 2934 503 43 2935 542 43 2936 663 43 2937 655 43 2938 533 43 2939 666 43 2940 656 43 2941 536 43 2942 657 43 2943 537 43 2944 533 43 2945 658 43 2946 538 43 2947 537 43 2948 659 43 2949 539 43 2950 538 43 2951 660 43 2952 540 43 2953 539 43 2954 661 43 2955 541 43 2956 540 43 2957 662 43 2958 542 43 2959 541 43 2960 656 43 2961 663 43 2962 549 43 2963 664 43 2964 554 43 2965 530 43 2966 665 43 2967 555 43 2968 554 43 2969 666 43 2970 556 43 2971 555 43 2972 551 43 2973 666 43 2974 665 43 2975 552 43 2976 665 43 2977 664 43 2978 553 43 2979 664 43 2980 654 43 2981 550 43 2982 663 43 2983 656 43 2984 543 43 2985 662 43 2986 661 43 2987 544 43 2988 661 43 2989 660 43 2990 545 43 2991 660 43 2992 659 43 2993 546 43 2994 659 43 2995 658 43 2996 547 43 2997 658 43 2998 657 43 2999 548 43 3000 657 43 3001 655 43 3002 535 43 3003 656 43 3004 666 43 3005 534 43 3006 655 43 3007 663 43 3008 504 43 3009 641 43 3010 662 43 3011 334 43 3012 667 43 3013 654 43 3014 652 43 3015 653 43 3016 523 43 3017 651 43 3018 652 43 3019 524 43 3020 627 43 3021 651 43 3022 525 43 3023 643 43 3024 650 43 3025 522 43 3026 648 43 3027 649 43 3028 515 43 3029 647 43 3030 648 43 3031 516 43 3032 646 43 3033 647 43 3034 517 43 3035 645 43 3036 646 43 3037 518 43 3038 644 43 3039 645 43 3040 519 43 3041 642 43 3042 644 43 3043 520 43 3044 653 43 3045 643 43 3046 507 43 3047 650 43 3048 642 43 3049 506 43 3050 649 43 3051 641 43 3052 504 43 3053 475 43 3054 627 43 3055 630 43 3056 495 43 3057 640 43 3058 639 43 3059 496 43 3060 639 43 3061 638 43 3062 497 43 3063 638 43 3064 626 43 3065 494 43 3066 637 43 3067 629 43 3068 487 43 3069 636 43 3070 635 43 3071 488 43 3072 635 43 3073 634 43 3074 489 43 3075 634 43 3076 633 43 3077 490 43 3078 633 43 3079 632 43 3080 491 43 3081 632 43 3082 631 43 3083 492 43 3084 631 43 3085 628 43 3086 479 43 3087 629 43 3088 640 43 3089 478 43 3090 628 43 3091 637 43 3092 451 43 3093 613 43 3094 636 43 3095 630 43 3096 626 43 3097 473 43 3098 624 43 3099 625 43 3100 468 43 3101 623 43 3102 624 43 3103 469 43 3104 569 43 3105 623 43 3106 470 43 3107 615 43 3108 622 43 3109 467 43 3110 620 43 3111 621 43 3112 461 43 3113 619 43 3114 620 43 3115 462 43 3116 618 43 3117 619 43 3118 463 43 3119 617 43 3120 618 43 3121 464 43 3122 616 43 3123 617 43 3124 465 43 3125 614 43 3126 616 43 3127 466 43 3128 625 43 3129 615 43 3130 454 43 3131 622 43 3132 614 43 3133 453 43 3134 621 43 3135 613 43 3136 451 43 3137 442 43 3138 612 43 3139 611 43 3140 443 43 3141 611 43 3142 610 43 3143 444 43 3144 610 43 3145 600 43 3146 441 43 3147 609 43 3148 602 43 3149 434 43 3150 608 43 3151 607 43 3152 435 43 3153 607 43 3154 606 43 3155 436 43 3156 606 43 3157 605 43 3158 437 43 3159 605 43 3160 604 43 3161 438 43 3162 604 43 3163 603 43 3164 439 43 3165 603 43 3166 601 43 3167 426 43 3168 602 43 3169 612 43 3170 425 43 3171 601 43 3172 609 43 3173 395 43 3174 586 43 3175 608 43 3176 599 190 3177 600 190 3178 421 190 3179 597 43 3180 598 43 3181 414 43 3182 596 43 3183 597 43 3184 415 43 3185 572 43 3186 596 43 3187 416 43 3188 588 43 3189 595 43 3190 413 43 3191 593 43 3192 594 43 3193 406 43 3194 592 43 3195 593 43 3196 407 43 3197 591 43 3198 592 43 3199 408 43 3200 590 43 3201 591 43 3202 409 43 3203 589 43 3204 590 43 3205 410 43 3206 587 43 3207 589 43 3208 411 43 3209 598 43 3210 588 43 3211 398 43 3212 595 43 3213 587 43 3214 397 43 3215 594 43 3216 586 43 3217 395 43 3218 367 43 3219 366 43 3220 572 43 3221 386 43 3222 585 43 3223 584 43 3224 387 43 3225 584 43 3226 583 43 3227 388 43 3228 583 43 3229 570 43 3230 385 43 3231 582 43 3232 574 43 3233 378 43 3234 581 43 3235 580 43 3236 379 43 3237 580 43 3238 579 43 3239 380 43 3240 579 43 3241 578 43 3242 381 43 3243 578 43 3244 577 43 3245 382 43 3246 577 43 3247 576 43 3248 383 43 3249 576 43 3250 573 43 3251 370 43 3252 574 43 3253 585 43 3254 369 43 3255 573 43 3256 582 43 3257 339 43 3258 336 43 3259 581 43 3260 575 43 3261 570 43 3262 364 43 3263 567 43 3264 568 43 3265 358 43 3266 566 43 3267 567 43 3268 359 43 3269 529 43 3270 566 43 3271 360 43 3272 558 43 3273 565 43 3274 357 43 3275 563 43 3276 564 43 3277 350 43 3278 562 43 3279 563 43 3280 351 43 3281 561 43 3282 562 43 3283 352 43 3284 560 43 3285 561 43 3286 353 43 3287 559 43 3288 560 43 3289 354 43 3290 557 43 3291 559 43 3292 355 43 3293 568 43 3294 558 43 3295 342 43 3296 565 43 3297 557 43 3298 341 43 3299 564 43 3300 336 43 3301 339 43 3302 335 43 3303 529 43 3304 667 43 3305</p>
        </triangles>
        <triangles material="tyl-material" count="228">
          <input semantic="VERTEX" source="#Plane_004-mesh-vertices" offset="0"/>
          <input semantic="NORMAL" source="#Plane_004-mesh-normals" offset="1"/>
          <input semantic="TEXCOORD" source="#Plane_004-mesh-map-0" offset="2" set="0"/>
          <p>367 90 1308 30 90 1309 33 90 1310 625 90 1314 290 90 1315 291 90 1316 624 90 1323 289 90 1324 290 90 1325 623 90 1329 235 90 1330 289 90 1331 521 90 1332 174 90 1333 187 90 1334 622 90 1335 281 90 1336 288 90 1337 450 90 1341 126 90 1342 116 90 1343 371 101 1362 50 101 1363 37 101 1364 526 90 1365 141 90 1366 192 90 1367 527 90 1371 192 90 1372 193 90 1373 455 90 1374 118 90 1375 121 90 1376 615 90 1377 291 90 1378 281 90 1379 528 90 1380 193 90 1381 194 90 1382 456 90 1383 121 90 1384 122 90 1385 614 90 1389 288 90 1390 280 90 1391 452 104 1392 280 104 1393 118 104 1394 457 90 1395 122 90 1396 123 90 1397 458 90 1401 123 90 1402 124 90 1403 569 90 1407 237 90 1408 235 90 1409 459 90 1410 124 90 1411 125 90 1412 364 90 1413 55 90 1414 30 90 1415 460 90 1416 125 90 1417 126 90 1418 389 90 1419 56 90 1420 55 90 1421 390 90 1425 57 90 1426 56 90 1427 472 90 1437 86 90 1438 138 90 1439 549 90 1449 199 90 1450 215 90 1451 377 90 1455 4 90 1456 43 90 1457 556 116 1473 202 116 1474 222 116 1475 394 90 1476 71 90 1477 60 90 1478 533 90 1482 203 90 1483 199 90 1484 396 90 1485 78 90 1486 62 90 1487 537 90 1488 204 90 1489 203 90 1490 538 90 1494 205 90 1495 204 90 1496 539 90 1500 206 90 1501 205 90 1502 540 90 1506 207 90 1507 206 90 1508 399 90 1512 85 90 1513 65 90 1514 541 90 1515 208 90 1516 207 90 1517 400 90 1527 62 90 1528 66 90 1529 401 90 1536 66 90 1537 67 90 1538 402 90 1542 67 90 1543 68 90 1544 403 90 1548 68 90 1549 69 90 1550 404 90 1554 69 90 1555 70 90 1556 405 90 1557 70 90 1558 71 90 1559 475 90 1563 142 90 1564 141 90 1565 493 90 1575 143 90 1576 159 90 1577 335 90 1581 0 90 1582 1 90 1583 536 90 1590 215 90 1591 202 90 1592 500 135 1602 146 135 1603 166 135 1604 338 90 1605 15 90 1606 4 90 1607 477 90 1617 147 90 1618 143 90 1619 340 139 1620 22 139 1621 6 139 1622 481 90 1626 148 90 1627 147 90 1628 530 90 1632 220 90 1633 196 90 1634 482 90 1635 149 90 1636 148 90 1637 554 90 1638 221 90 1639 220 90 1640 483 90 1641 150 90 1642 149 90 1643 412 90 1644 65 90 1645 78 90 1646 555 90 1650 222 90 1651 221 90 1652 484 90 1653 151 90 1654 150 90 1655 343 90 1659 29 90 1660 9 90 1661 485 90 1662 152 90 1663 151 90 1664 344 90 1668 6 90 1669 10 90 1670 345 90 1677 10 90 1678 11 90 1679 542 90 1680 169 90 1681 208 90 1682 346 90 1689 11 90 1690 12 90 1691 417 90 1698 32 90 1699 83 90 1700 347 90 1701 12 90 1702 13 90 1703 476 90 1704 139 90 1705 142 90 1706 418 90 1710 83 90 1711 84 90 1712 348 90 1713 13 90 1714 14 90 1715 419 90 1722 84 90 1723 85 90 1724 349 90 1725 14 90 1726 15 90 1727 334 147 1737 196 147 1738 0 147 1739 420 90 1749 87 90 1750 86 90 1751 480 152 1758 159 152 1759 146 152 1760 440 90 1770 90 90 1771 106 90 1772 473 90 1788 164 90 1789 139 90 1790 447 159 1791 93 159 1792 113 159 1793 356 160 1794 9 160 1795 22 160 1796 498 90 1797 165 90 1798 164 90 1799 499 90 1806 166 90 1807 165 90 1808 424 90 1809 94 90 1810 90 90 1811 428 90 1812 95 90 1813 94 90 1814 429 90 1818 96 90 1819 95 90 1820 430 90 1824 97 90 1825 96 90 1826 486 90 1830 116 90 1831 152 90 1832 431 90 1833 98 90 1834 97 90 1835 361 90 1836 1 90 1837 27 90 1838 432 90 1842 99 90 1843 98 90 1844 362 90 1845 27 90 1846 28 90 1847 363 90 1854 28 90 1855 29 90 1856 503 90 1860 180 90 1861 169 90 1862 505 90 1872 187 90 1873 171 90 1874 366 90 1884 33 90 1885 32 90 1886 508 90 1887 194 90 1888 174 90 1889 384 90 1893 34 90 1894 50 90 1895 509 90 1896 171 90 1897 175 90 1898 510 90 1902 175 90 1903 176 90 1904 427 90 1905 106 90 1906 93 90 1907 511 90 1908 176 90 1909 177 90 1910 512 90 1917 177 90 1918 178 90 1919 391 135 1920 37 135 1921 57 135 1922 513 90 1923 178 90 1924 179 90 1925 514 90 1929 179 90 1930 180 90 1931 368 90 1935 38 90 1936 34 90 1937 372 90 1944 39 90 1945 38 90 1946 421 90 1950 111 90 1951 87 90 1952 373 90 1953 40 90 1954 39 90 1955 445 90 1959 112 90 1960 111 90 1961 374 90 1962 41 90 1963 40 90 1964 446 170 1968 113 170 1969 112 170 1970 375 90 1971 42 90 1972 41 90 1973 376 90 1977 43 90 1978 42 90 1979 433 90 1986 60 90 1987 99 90 1988 367 90 3306 364 90 3307 30 90 3308 625 90 3312 624 90 3313 290 90 3314 624 90 3321 623 90 3322 289 90 3323 623 90 3327 569 90 3328 235 90 3329 521 90 3330 508 90 3331 174 90 3332 622 90 3333 615 90 3334 281 90 3335 450 90 3339 460 90 3340 126 90 3341 371 101 3360 384 101 3361 50 101 3362 526 90 3363 475 90 3364 141 90 3365 527 90 3369 526 90 3370 192 90 3371 455 90 3372 452 90 3373 118 90 3374 615 90 3375 625 90 3376 291 90 3377 528 90 3378 527 90 3379 193 90 3380 456 90 3381 455 90 3382 121 90 3383 614 90 3387 622 90 3388 288 90 3389 452 104 3390 614 104 3391 280 104 3392 457 90 3393 456 90 3394 122 90 3395 458 90 3399 457 90 3400 123 90 3401 569 90 3405 571 90 3406 237 90 3407 459 90 3408 458 90 3409 124 90 3410 364 90 3411 389 90 3412 55 90 3413 460 90 3414 459 90 3415 125 90 3416 389 90 3417 390 90 3418 56 90 3419 390 90 3423 391 90 3424 57 90 3425 472 90 3435 420 90 3436 86 90 3437 549 90 3447 533 90 3448 199 90 3449 377 90 3453 338 90 3454 4 90 3455 556 204 3471 536 204 3472 202 204 3473 394 90 3474 405 90 3475 71 90 3476 533 90 3480 537 90 3481 203 90 3482 396 90 3483 412 90 3484 78 90 3485 537 90 3486 538 90 3487 204 90 3488 538 90 3492 539 90 3493 205 90 3494 539 90 3498 540 90 3499 206 90 3500 540 90 3504 541 90 3505 207 90 3506 399 90 3510 419 90 3511 85 90 3512 541 90 3513 542 90 3514 208 90 3515 400 90 3525 396 90 3526 62 90 3527 401 90 3534 400 90 3535 66 90 3536 402 90 3540 401 90 3541 67 90 3542 403 90 3546 402 90 3547 68 90 3548 404 90 3552 403 90 3553 69 90 3554 405 90 3555 404 90 3556 70 90 3557 475 90 3561 476 90 3562 142 90 3563 493 90 3573 477 90 3574 143 90 3575 335 90 3579 334 90 3580 0 90 3581 536 90 3588 549 90 3589 215 90 3590 500 135 3600 480 135 3601 146 135 3602 338 90 3603 349 90 3604 15 90 3605 477 90 3615 481 90 3616 147 90 3617 340 160 3618 356 160 3619 22 160 3620 481 90 3624 482 90 3625 148 90 3626 530 90 3630 554 90 3631 220 90 3632 482 90 3633 483 90 3634 149 90 3635 554 90 3636 555 90 3637 221 90 3638 483 90 3639 484 90 3640 150 90 3641 412 90 3642 399 90 3643 65 90 3644 555 90 3648 556 90 3649 222 90 3650 484 90 3651 485 90 3652 151 90 3653 343 90 3657 363 90 3658 29 90 3659 485 90 3660 486 90 3661 152 90 3662 344 90 3666 340 90 3667 6 90 3668 345 90 3675 344 90 3676 10 90 3677 542 90 3678 503 90 3679 169 90 3680 346 90 3687 345 90 3688 11 90 3689 417 90 3696 366 90 3697 32 90 3698 347 90 3699 346 90 3700 12 90 3701 476 90 3702 473 90 3703 139 90 3704 418 90 3708 417 90 3709 83 90 3710 348 90 3711 347 90 3712 13 90 3713 419 90 3720 418 90 3721 84 90 3722 349 90 3723 348 90 3724 14 90 3725 334 147 3735 530 147 3736 196 147 3737 420 90 3747 421 90 3748 87 90 3749 480 152 3756 493 152 3757 159 152 3758 440 90 3768 424 90 3769 90 90 3770 473 90 3786 498 90 3787 164 90 3788 447 222 3789 427 222 3790 93 222 3791 356 223 3792 343 223 3793 9 223 3794 498 90 3795 499 90 3796 165 90 3797 499 90 3804 500 90 3805 166 90 3806 424 90 3807 428 90 3808 94 90 3809 428 90 3810 429 90 3811 95 90 3812 429 90 3816 430 90 3817 96 90 3818 430 90 3822 431 90 3823 97 90 3824 486 90 3828 450 90 3829 116 90 3830 431 90 3831 432 90 3832 98 90 3833 361 90 3834 335 90 3835 1 90 3836 432 90 3840 433 90 3841 99 90 3842 362 90 3843 361 90 3844 27 90 3845 363 90 3852 362 90 3853 28 90 3854 503 90 3858 514 90 3859 180 90 3860 505 90 3870 521 90 3871 187 90 3872 366 90 3882 367 90 3883 33 90 3884 508 90 3885 528 90 3886 194 90 3887 384 90 3891 368 90 3892 34 90 3893 509 90 3894 505 90 3895 171 90 3896 510 90 3900 509 90 3901 175 90 3902 427 90 3903 440 90 3904 106 90 3905 511 90 3906 510 90 3907 176 90 3908 512 90 3915 511 90 3916 177 90 3917 391 230 3918 371 230 3919 37 230 3920 513 90 3921 512 90 3922 178 90 3923 514 90 3927 513 90 3928 179 90 3929 368 90 3933 372 90 3934 38 90 3935 372 90 3942 373 90 3943 39 90 3944 421 90 3948 445 90 3949 111 90 3950 373 90 3951 374 90 3952 40 90 3953 445 90 3957 446 90 3958 112 90 3959 374 90 3960 375 90 3961 41 90 3962 446 235 3966 447 235 3967 113 235 3968 375 90 3969 376 90 3970 42 90 3971 376 90 3975 377 90 3976 43 90 3977 433 90 3984 394 90 3985 60 90 3986</p>
        </triangles>
        <triangles material="front-material" count="232">
          <input semantic="VERTEX" source="#Plane_004-mesh-vertices" offset="0"/>
          <input semantic="NORMAL" source="#Plane_004-mesh-normals" offset="1"/>
          <input semantic="TEXCOORD" source="#Plane_004-mesh-map-0" offset="2" set="0"/>
          <p>381 91 1311 48 91 1312 47 91 1313 365 92 1317 58 92 1318 31 92 1319 382 93 1320 49 93 1321 48 93 1322 448 92 1326 115 92 1327 114 92 1328 522 94 1338 172 94 1339 188 94 1340 449 95 1344 136 95 1345 115 95 1346 523 96 1347 173 96 1348 189 96 1349 453 97 1350 132 97 1351 119 97 1352 524 98 1353 189 98 1354 190 98 1355 525 99 1356 190 99 1357 191 99 1358 454 100 1359 133 100 1360 120 100 1361 369 102 1368 51 102 1369 35 102 1370 370 103 1386 52 103 1387 36 103 1388 386 105 1398 53 105 1399 52 105 1400 387 106 1404 54 106 1405 53 106 1406 461 92 1422 117 92 1423 127 92 1424 462 107 1428 127 107 1429 128 107 1430 532 92 1431 197 92 1432 198 92 1433 463 108 1434 128 108 1435 129 108 1436 553 109 1440 198 109 1441 219 109 1442 464 110 1443 129 110 1444 130 110 1445 471 111 1446 138 111 1447 137 111 1448 465 112 1452 130 112 1453 131 112 1454 548 113 1458 200 113 1459 214 113 1460 466 114 1461 131 114 1462 132 114 1463 339 92 1464 44 92 1465 5 92 1466 392 92 1467 59 92 1468 58 92 1469 550 115 1470 201 115 1471 216 115 1472 393 95 1479 82 95 1480 59 95 1481 397 117 1491 77 117 1492 63 117 1493 467 118 1497 119 118 1498 133 118 1499 398 119 1503 79 119 1504 64 119 1505 468 120 1509 120 120 1510 134 120 1511 469 121 1518 134 121 1519 135 121 1520 543 122 1521 210 122 1522 209 122 1523 470 123 1524 135 123 1525 136 123 1526 544 124 1530 211 124 1531 210 124 1532 599 92 1533 137 92 1534 265 92 1535 545 125 1539 212 125 1540 211 125 1541 546 91 1545 213 91 1546 212 91 1547 547 126 1551 214 126 1552 213 126 1553 406 92 1560 61 92 1561 72 92 1562 407 127 1566 72 127 1567 73 127 1568 497 128 1569 140 128 1570 163 128 1571 408 129 1572 73 129 1573 74 129 1574 409 130 1578 74 130 1579 75 130 1580 492 131 1584 144 131 1585 158 131 1586 410 132 1587 75 132 1588 76 132 1589 411 133 1593 76 133 1594 77 133 1595 534 102 1596 216 102 1597 200 102 1598 494 134 1599 145 134 1600 160 134 1601 535 136 1608 217 136 1609 201 136 1610 337 137 1611 26 137 1612 3 137 1613 551 138 1614 218 138 1615 217 138 1616 552 106 1623 219 106 1624 218 106 1625 341 140 1629 21 140 1630 7 140 1631 342 141 1647 23 141 1648 8 141 1649 413 94 1656 63 94 1657 79 94 1658 414 142 1665 64 142 1666 80 142 1667 487 143 1671 154 143 1672 153 143 1673 415 98 1674 80 98 1675 81 98 1676 488 144 1683 155 144 1684 154 144 1685 416 123 1686 81 123 1687 82 123 1688 504 92 1692 209 92 1693 170 92 1694 489 125 1695 156 125 1696 155 125 1697 490 145 1707 157 145 1708 156 145 1709 474 92 1716 167 92 1717 140 92 1718 491 126 1719 158 126 1720 157 126 1721 350 92 1728 5 92 1729 16 92 1730 531 92 1731 3 92 1732 197 92 1733 351 146 1734 16 146 1735 17 146 1736 352 148 1740 17 148 1741 18 148 1742 422 111 1743 265 111 1744 88 111 1745 353 149 1746 18 149 1747 19 149 1748 354 150 1752 19 150 1753 20 150 1754 355 151 1755 20 151 1756 21 151 1757 423 92 1761 88 92 1762 89 92 1763 478 153 1764 160 153 1765 144 153 1766 444 154 1767 89 154 1768 110 154 1769 479 155 1773 161 155 1774 145 155 1775 439 156 1776 91 156 1777 105 156 1778 495 157 1779 162 157 1780 161 157 1781 496 158 1782 163 158 1783 162 158 1784 441 134 1785 92 134 1786 107 134 1787 357 161 1800 7 161 1801 23 161 1802 571 104 1803 114 104 1804 237 104 1805 358 162 1815 8 162 1816 24 162 1817 359 163 1821 24 163 1822 25 163 1823 360 164 1827 25 164 1828 26 164 1829 451 92 1839 153 92 1840 117 92 1841 501 92 1848 168 92 1849 167 92 1850 434 122 1851 101 122 1852 100 122 1853 435 144 1857 102 144 1858 101 144 1859 436 125 1863 103 125 1864 102 125 1865 502 95 1866 191 95 1867 168 95 1868 437 165 1869 104 165 1870 103 165 1871 438 126 1875 105 126 1876 104 126 1877 506 117 1878 186 117 1879 172 117 1880 507 166 1881 188 166 1882 173 166 1883 388 109 1890 31 109 1891 54 109 1892 383 156 1899 35 156 1900 49 156 1901 425 153 1911 107 153 1912 91 153 1913 385 167 1914 36 167 1915 51 167 1916 426 103 1926 108 103 1927 92 103 1928 442 105 1932 109 105 1933 108 105 1934 515 92 1938 170 92 1939 181 92 1940 443 168 1941 110 168 1942 109 168 1943 516 146 1947 181 146 1948 182 146 1949 517 169 1956 182 169 1957 183 169 1958 518 130 1965 183 130 1966 184 130 1967 519 171 1974 184 171 1975 185 171 1976 520 172 1980 185 172 1981 186 172 1982 378 173 1983 45 173 1984 44 173 1985 379 174 1989 46 174 1990 45 174 1991 395 92 1992 100 92 1993 61 92 1994 380 175 1995 47 175 1996 46 175 1997 381 165 3309 382 165 3310 48 165 3311 365 92 3315 392 92 3316 58 92 3317 382 126 3318 383 126 3319 49 126 3320 448 92 3324 449 92 3325 115 92 3326 522 94 3336 506 94 3337 172 94 3338 449 95 3342 470 95 3343 136 95 3344 523 142 3345 507 142 3346 173 142 3347 453 191 3348 466 191 3349 132 191 3350 524 192 3351 523 192 3352 189 192 3353 525 123 3354 524 123 3355 190 123 3356 454 193 3357 467 193 3358 133 193 3359 369 194 3366 385 194 3367 51 194 3368 370 155 3384 386 155 3385 52 155 3386 386 195 3396 387 195 3397 53 195 3398 387 196 3402 388 196 3403 54 196 3404 461 92 3420 451 92 3421 117 92 3422 462 197 3426 461 197 3427 127 197 3428 532 92 3429 531 92 3430 197 92 3431 463 198 3432 462 198 3433 128 198 3434 553 199 3438 532 199 3439 198 199 3440 464 200 3441 463 200 3442 129 200 3443 471 111 3444 472 111 3445 138 111 3446 465 201 3450 464 201 3451 130 201 3452 548 202 3456 534 202 3457 200 202 3458 466 133 3459 465 133 3460 131 133 3461 339 92 3462 378 92 3463 44 92 3464 392 92 3465 393 92 3466 59 92 3467 550 203 3468 535 203 3469 201 203 3470 393 205 3477 416 205 3478 82 205 3479 397 117 3489 411 117 3490 77 117 3491 467 206 3495 453 206 3496 119 206 3497 398 207 3501 413 207 3502 79 207 3503 468 96 3507 454 96 3508 120 96 3509 469 192 3516 468 192 3517 134 192 3518 543 173 3519 544 173 3520 210 173 3521 470 123 3522 469 123 3523 135 123 3524 544 174 3528 545 174 3529 211 174 3530 599 92 3531 471 92 3532 137 92 3533 545 175 3537 546 175 3538 212 175 3539 546 91 3543 547 91 3544 213 91 3545 547 93 3549 548 93 3550 214 93 3551 406 92 3558 395 92 3559 61 92 3560 407 127 3564 406 127 3565 72 127 3566 497 128 3567 474 128 3568 140 128 3569 408 129 3570 407 129 3571 73 129 3572 409 130 3576 408 130 3577 74 130 3578 492 208 3582 478 208 3583 144 208 3584 410 201 3585 409 201 3586 75 201 3587 411 172 3591 410 172 3592 76 172 3593 534 209 3594 550 209 3595 216 209 3596 494 210 3597 479 210 3598 145 210 3599 535 211 3606 551 211 3607 217 211 3608 337 212 3609 360 212 3610 26 212 3611 551 138 3612 552 138 3613 218 138 3614 552 213 3621 553 213 3622 219 213 3623 341 140 3627 355 140 3628 21 140 3629 342 214 3645 357 214 3646 23 214 3647 413 94 3654 397 94 3655 63 94 3656 414 96 3663 398 96 3664 64 96 3665 487 143 3669 488 143 3670 154 143 3671 415 192 3672 414 192 3673 80 192 3674 488 144 3681 489 144 3682 155 144 3683 416 99 3684 415 99 3685 81 99 3686 504 92 3690 543 92 3691 209 92 3692 489 125 3693 490 125 3694 156 125 3695 490 215 3705 491 215 3706 157 215 3707 474 92 3714 501 92 3715 167 92 3716 491 216 3717 492 216 3718 158 216 3719 350 92 3726 339 92 3727 5 92 3728 531 92 3729 337 92 3730 3 92 3731 351 217 3732 350 217 3733 16 217 3734 352 169 3738 351 169 3739 17 169 3740 422 111 3741 599 111 3742 265 111 3743 353 149 3744 352 149 3745 18 149 3746 354 218 3750 353 218 3751 19 218 3752 355 219 3753 354 219 3754 20 219 3755 423 92 3759 422 92 3760 88 92 3761 478 220 3762 494 220 3763 160 220 3764 444 154 3765 423 154 3766 89 154 3767 479 155 3771 495 155 3772 161 155 3773 439 156 3774 425 156 3775 91 156 3776 495 157 3777 496 157 3778 162 157 3779 496 213 3780 497 213 3781 163 213 3782 441 221 3783 426 221 3784 92 221 3785 357 94 3798 341 94 3799 7 94 3800 571 104 3801 448 104 3802 114 104 3803 358 224 3813 342 224 3814 8 224 3815 359 225 3819 358 225 3820 24 225 3821 360 164 3825 359 164 3826 25 164 3827 451 92 3837 487 92 3838 153 92 3839 501 92 3846 502 92 3847 168 92 3848 434 143 3849 435 143 3850 101 143 3851 435 144 3855 436 144 3856 102 144 3857 436 226 3861 437 226 3862 103 226 3863 502 205 3864 525 205 3865 191 205 3866 437 215 3867 438 215 3868 104 215 3869 438 216 3873 439 216 3874 105 216 3875 506 227 3876 520 227 3877 186 227 3878 507 193 3879 522 193 3880 188 193 3881 388 154 3888 365 154 3889 31 154 3890 383 156 3897 369 156 3898 35 156 3899 425 228 3909 441 228 3910 107 228 3911 385 229 3912 370 229 3913 36 229 3914 426 231 3924 442 231 3925 108 231 3926 442 232 3930 443 232 3931 109 232 3932 515 92 3936 504 92 3937 170 92 3938 443 233 3939 444 233 3940 110 233 3941 516 197 3945 515 197 3946 181 197 3947 517 129 3954 516 129 3955 182 129 3956 518 234 3963 517 234 3964 183 234 3965 519 132 3972 518 132 3973 184 132 3974 520 236 3978 519 236 3979 185 236 3980 378 143 3981 379 143 3982 45 143 3983 379 174 3987 380 174 3988 46 174 3989 395 92 3990 434 92 3991 100 92 3992 380 125 3993 381 125 3994 47 125 3995</p>
        </triangles>
      </mesh>
    </geometry>
  </library_geometries>
  <library_visual_scenes>
    <visual_scene id="Scene" name="Scene">
      <node id="onda_main" name="onda_main" type="NODE">
        <matrix sid="transform">1 0 0 -8.5282e-4 0 1 0 -8.18294e-4 0 0 1 1.35 0 0 0 1</matrix>
        <instance_geometry url="#Plane_004-mesh" name="onda_main">
          <bind_material>
            <technique_common>
              <instance_material symbol="gora_dol-material" target="#gora_dol-material">
                <bind_vertex_input semantic="UVMap" input_semantic="TEXCOORD" input_set="0"/>
              </instance_material>
              <instance_material symbol="tyl-material" target="#tyl-material">
                <bind_vertex_input semantic="UVMap" input_semantic="TEXCOORD" input_set="0"/>
              </instance_material>
              <instance_material symbol="front-material" target="#front-material">
                <bind_vertex_input semantic="UVMap" input_semantic="TEXCOORD" input_set="0"/>
              </instance_material>
            </technique_common>
          </bind_material>
        </instance_geometry>
      </node>
    </visual_scene>
  </library_visual_scenes>
  <scene>
    <instance_visual_scene url="#Scene"/>
  </scene>
</COLLADA>