<?xml version="1.0" encoding="utf-8"?>
<COLLADA xmlns="http://www.collada.org/2005/11/COLLADASchema" version="1.4.1" xmlns:xsi="http://www.w3.org/2001/XMLSchema-instance">
  <asset>
    <contributor>
      <author>Blender User</author>
      <authoring_tool>Blender 3.2.0 commit date:2022-06-08, commit time:10:22, hash:e05e1e369187</authoring_tool>
    </contributor>
    <created>2023-03-08T13:24:21</created>
    <modified>2023-03-08T13:24:21</modified>
    <unit name="meter" meter="1"/>
    <up_axis>Z_UP</up_axis>
  </asset>
  <library_effects>
    <effect id="gora_dol-effect">
      <profile_COMMON>
        <technique sid="common">
          <lambert>
            <emission>
              <color sid="emission">0 0 0 1</color>
            </emission>
            <diffuse>
              <color sid="diffuse">0.8 0.8 0.8 1</color>
            </diffuse>
            <index_of_refraction>
              <float sid="ior">1.45</float>
            </index_of_refraction>
          </lambert>
        </technique>
      </profile_COMMON>
    </effect>
    <effect id="tyl-effect">
      <profile_COMMON>
        <technique sid="common">
          <lambert>
            <emission>
              <color sid="emission">0 0 0 1</color>
            </emission>
            <diffuse>
              <color sid="diffuse">0.8 0.8 0.8 1</color>
            </diffuse>
            <index_of_refraction>
              <float sid="ior">1.45</float>
            </index_of_refraction>
          </lambert>
        </technique>
      </profile_COMMON>
    </effect>
    <effect id="front-effect">
      <profile_COMMON>
        <technique sid="common">
          <lambert>
            <emission>
              <color sid="emission">0 0 0 1</color>
            </emission>
            <diffuse>
              <color sid="diffuse">0.8 0.8 0.8 1</color>
            </diffuse>
            <index_of_refraction>
              <float sid="ior">1.45</float>
            </index_of_refraction>
          </lambert>
        </technique>
      </profile_COMMON>
    </effect>
  </library_effects>
  <library_images/>
  <library_materials>
    <material id="gora_dol-material" name="gora_dol">
      <instance_effect url="#gora_dol-effect"/>
    </material>
    <material id="tyl-material" name="tyl">
      <instance_effect url="#tyl-effect"/>
    </material>
    <material id="front-material" name="front">
      <instance_effect url="#front-effect"/>
    </material>
  </library_materials>
  <library_geometries>
    <geometry id="Plane_016-mesh" name="Plane.016">
      <mesh>
        <source id="Plane_016-mesh-positions">
          <float_array id="Plane_016-mesh-positions-array" count="636">-0.004532217 0.002991974 -1.35 -0.004532217 -0.005174279 -1.35 0.0223543 -0.005612492 -1.35 0.01971071 0.005526661 -1.35 0.02304106 -0.005612492 -1.35 0.01971071 -0.005612492 -1.35 0.02304106 0.004806756 -1.35 0.0223543 0.005250453 -1.35 0.02393764 -0.005612492 -1.35 0.02393764 0.003172457 -1.35 -0.0241124 0.001923799 -1.35 -0.02442055 5.72605e-4 -1.35 -0.02466231 -4.09101e-4 -1.35 -0.02327549 0.004463672 -1.35 -0.02260291 0.00506097 -1.35 -0.02055507 0.005639255 -1.35 0.01843923 -0.005612492 -1.35 0.01992481 -0.005612492 -1.35 0.02166748 -0.005612492 -1.35 0.02372789 -0.005612492 -1.35 0.02372789 0.003902971 -1.35 0.02166748 0.005478799 -1.35 0.01992481 0.005478799 -1.35 0.01843923 0.006027817 -1.35 -0.008734226 -0.005612492 -1.35 -0.006287992 -0.005174279 -1.35 -0.003716349 -0.005174279 -1.35 -0.001395523 -0.005174279 -1.35 0.001050591 -0.005174279 -1.35 0.003496825 -0.005174279 -1.35 0.005943059 -0.005174279 -1.35 0.008389234 -0.005174279 -1.35 0.01083546 -0.005174279 -1.35 0.0132817 -0.005612492 -1.35 0.0132817 0.006987452 -1.35 0.01083546 0.006987452 -1.35 0.008389234 0.00686562 -1.35 0.005943059 0.006500124 -1.35 0.003496825 0.005850374 -1.35 0.001050591 0.004875719 -1.35 -0.001395523 0.003860473 -1.35 -0.003716349 0.003167033 -1.35 -0.006287992 0.002642214 -1.35 -0.008734226 0.002557635 -1.35 -0.01401591 0.003065228 -1.35 -0.01590067 0.003601074 -1.35 -0.01778548 0.004362463 -1.35 -0.01964145 0.005321323 -1.35 -0.02168929 0.005519628 -1.35 -0.02376586 0.003489434 -1.35 -0.02112221 0.005607783 -1.35 -0.01747405 -0.005612492 -1.35 -0.01590067 -0.005612492 -1.35 -0.01401591 -0.005612492 -1.35 -0.0111804 -0.005612492 -1.35 -0.0111804 0.002642214 -1.35 -0.01213109 0.0026986 -1.35 -0.01213109 -0.005612492 -1.35 0.01572793 0.00667411 -1.35 0.01572793 -0.005612492 -1.35 0.0166763 0.006497859 -1.35 0.0166763 -0.005612492 -1.35 -0.004532217 -0.001310229 -1.35 -0.023409 -4.09101e-4 -1.35 -0.02424454 -4.09101e-4 -1.35 -0.02382677 -4.09101e-4 -1.35 -0.02299124 -4.09101e-4 -1.35 0.0223543 -1.81031e-4 -1.35 0.01971071 -4.29315e-5 -1.35 0.02304106 -4.02873e-4 -1.35 0.02393764 -0.001240432 -1.35 -0.02257341 -4.09101e-4 -1.35 -0.02020114 -4.09101e-4 -1.35 0.01843923 2.07651e-4 -1.35 0.01992481 -6.68552e-5 -1.35 0.02166748 -6.68552e-5 -1.35 0.02372789 -7.32382e-4 -1.35 -0.008734226 -0.001527428 -1.35 -0.006287992 -0.001485109 -1.35 -0.003716349 -8.97871e-4 -1.35 -0.001395523 -5.51128e-4 -1.35 0.001050591 -4.35102e-5 -1.35 0.003496825 4.43804e-4 -1.35 0.005943059 7.68679e-4 -1.35 0.008389234 9.51422e-4 -1.35 0.01083546 0.001012325 -1.35 0.0132817 0.001012325 -1.35 -0.02087324 -4.09101e-4 -1.35 -0.02154535 -4.09101e-4 -1.35 -0.01843988 -4.09101e-4 -1.35 -0.01682519 -4.09101e-4 -1.35 -0.01590067 -0.001005709 -1.35 -0.01401591 -0.001273632 -1.35 -0.0111804 -0.001485109 -1.35 -0.01213109 -0.001456916 -1.35 0.01572793 8.55664e-4 -1.35 0.0166763 4.4266e-4 -1.35 -0.007903397 -0.005174279 -1.35 -0.007903397 0.002586364 -1.35 -0.007903397 -0.001513063 -1.35 0.01136624 -0.005174279 -1.35 0.01136624 0.006987452 -1.35 0.01136624 0.001012325 -1.35 0.0123707 -0.005612492 -1.35 0.0123707 0.006987452 -1.35 0.0123707 0.001012325 -1.35 -0.004532217 -0.001310229 1.35 -0.004532217 -0.005174279 1.35 -0.02257341 -4.09101e-4 1.35 -0.02299124 -4.09101e-4 1.35 -0.003716349 0.003167033 1.35 -0.004532217 0.002991974 1.35 -0.023409 -4.09101e-4 1.35 -0.02382677 -4.09101e-4 1.35 -0.006287992 -0.005174279 1.35 -0.02112221 0.005607783 1.35 -0.02087324 -4.09101e-4 1.35 0.0223543 -1.81031e-4 1.35 0.0223543 0.005250453 1.35 0.01971071 0.005526661 1.35 0.01843923 0.006027817 1.35 0.01971071 -4.29315e-5 1.35 0.02304106 -4.02873e-4 1.35 0.02304106 0.004806756 1.35 0.0223543 -0.005612492 1.35 0.02304106 -0.005612492 1.35 0.02372789 -0.005612492 1.35 0.02166748 0.005478799 1.35 0.02393764 -0.001240432 1.35 0.02393764 0.003172457 1.35 0.02372789 0.003902971 1.35 0.01971071 -0.005612492 1.35 0.01992481 -0.005612492 1.35 -0.02424454 -4.09101e-4 1.35 -0.02442055 5.72605e-4 1.35 -0.0241124 0.001923799 1.35 -0.02466231 -4.09101e-4 1.35 -0.02327549 0.004463672 1.35 -0.02376586 0.003489434 1.35 -0.02260291 0.00506097 1.35 -0.02020114 -4.09101e-4 1.35 -0.02055507 0.005639255 1.35 -0.02168929 0.005519628 1.35 0.01843923 2.07651e-4 1.35 0.01992481 -6.68552e-5 1.35 0.01992481 0.005478799 1.35 0.02166748 -6.68552e-5 1.35 0.02372789 -7.32382e-4 1.35 0.01843923 -0.005612492 1.35 0.02166748 -0.005612492 1.35 0.02393764 -0.005612492 1.35 0.0166763 0.006497859 1.35 -0.008734226 -0.001527428 1.35 -0.008734226 0.002557635 1.35 -0.006287992 -0.001485109 1.35 -0.006287992 0.002642214 1.35 -0.003716349 -8.97871e-4 1.35 -0.001395523 -5.51128e-4 1.35 -0.001395523 0.003860473 1.35 0.001050591 -4.35102e-5 1.35 0.001050591 0.004875719 1.35 0.003496825 4.43804e-4 1.35 0.003496825 0.005850374 1.35 0.005943059 7.68679e-4 1.35 0.005943059 0.006500124 1.35 0.008389234 9.51422e-4 1.35 0.008389234 0.00686562 1.35 0.01083546 0.001012325 1.35 0.01083546 0.006987452 1.35 0.0132817 0.001012325 1.35 0.0132817 0.006987452 1.35 -0.007903397 -0.005174279 1.35 -0.003716349 -0.005174279 1.35 -0.001395523 -0.005174279 1.35 0.001050591 -0.005174279 1.35 0.003496825 -0.005174279 1.35 0.005943059 -0.005174279 1.35 0.008389234 -0.005174279 1.35 0.01083546 -0.005174279 1.35 0.0123707 -0.005612492 1.35 0.0132817 -0.005612492 1.35 0.01572793 -0.005612492 1.35 0.01136624 0.006987452 1.35 -0.007903397 0.002586364 1.35 -0.0111804 0.002642214 1.35 -0.02154535 -4.09101e-4 1.35 -0.01843988 -4.09101e-4 1.35 -0.01964145 0.005321323 1.35 -0.01682519 -4.09101e-4 1.35 -0.01778548 0.004362463 1.35 -0.01590067 -0.001005709 1.35 -0.01590067 0.003601074 1.35 -0.01401591 -0.001273632 1.35 -0.01401591 0.003065228 1.35 -0.01747405 -0.005612492 1.35 -0.01590067 -0.005612492 1.35 -0.01401591 -0.005612492 1.35 -0.01213109 -0.005612492 1.35 -0.0111804 -0.001485109 1.35 -0.0111804 -0.005612492 1.35 -0.008734226 -0.005612492 1.35 -0.01213109 0.0026986 1.35 -0.01213109 -0.001456916 1.35 0.01572793 8.55664e-4 1.35 0.01572793 0.00667411 1.35 0.0166763 -0.005612492 1.35 0.0166763 4.4266e-4 1.35 0.01136624 0.001012325 1.35 -0.007903397 -0.001513063 1.35 0.01136624 -0.005174279 1.35 0.0123707 0.006987452 1.35 0.0123707 0.001012325 1.35</float_array>
          <technique_common>
            <accessor source="#Plane_016-mesh-positions-array" count="212" stride="3">
              <param name="X" type="float"/>
              <param name="Y" type="float"/>
              <param name="Z" type="float"/>
            </accessor>
          </technique_common>
        </source>
        <source id="Plane_016-mesh-normals">
          <float_array id="Plane_016-mesh-normals-array" count="573">0 0 -1 3.14922e-5 0 -1 -4.24666e-5 0 -1 4.82802e-5 0 -1 -4.98197e-5 0 -1 -1.76043e-5 0 -1 9.67422e-5 0 -1 6.82221e-5 0 -1 -6.93526e-5 0 -1 1.06818e-4 0 -1 2.33056e-4 0 -1 -2.18672e-4 0 -1 -2.49662e-4 0 -1 1.18906e-4 0 -1 9.31972e-5 0 -1 2.60294e-4 0 -1 2.37351e-4 0 -1 2.19028e-5 0 -1 7.89763e-5 0 -1 3.33646e-5 0 -1 4.13464e-5 0 -1 -2.46385e-4 0 -1 -6.43486e-5 0 -1 -3.79756e-5 0 -1 -3.71017e-5 0 -1 4.2354e-5 0 -1 -1.60156e-5 0 -1 -7.76887e-6 0 -1 1.30635e-4 0 -1 9.16651e-5 0 -1 -5.69904e-4 0 1 -5.48495e-5 0 1 0 0 1 -1.31512e-4 0 1 -7.73931e-5 0 1 -8.62989e-5 0 1 1.28518e-4 0 1 -2.18672e-4 0 1 6.28952e-4 0 0.9999999 1.40435e-4 0 1 4.2706e-5 0 1 -1.48633e-5 0 1 9.97501e-5 0 1 1.78952e-4 0 1 3.97113e-5 0 1 4.05434e-5 0 1 1.63179e-4 0 1 -1.43134e-5 0 1 -5.30625e-4 0 0.9999999 2.74416e-4 0 1 -2.81264e-4 0 1 3.499e-5 0 1 -0.04974079 0.9987622 0 0 -1 0 0.05922394 0.9982448 0 -0.1477681 0.9890221 0 -0.3999041 -0.9165571 0 0.7961967 0.6050379 0 -0.2567138 0.9664875 0 0 1 0 0.1909331 0.9816031 0 -0.3701258 0.9289817 0 0.2181004 0.9759264 0 -0.05539399 0.9984646 0 -0.3833234 0.9236143 0 0.2576166 0.9662473 0 0.5426369 0.8399674 0 -0.9923139 0.1237462 0 -0.2863061 0.9581382 0 0.3154932 0.9489279 0 0.1270549 0.9918957 0 -0.1953732 0.980729 0 1 0 0 -0.03456491 0.9994025 0 0.961174 0.2759433 0 0.03456467 0.9994025 0 0.1827179 0.9831655 0 -0.9749652 0.2223577 0 -0.9709892 0.2391238 0 -0.8932299 0.4496004 0 0.2734509 0.9618861 0 0.3745754 0.9271965 0 -0.6640125 0.7477216 0 0.4589784 0.8884474 0 0.4665703 -0.8844842 0 0.3286522 0.9444511 0 -0.03456461 0.9994025 0 -0.1535564 0.9881399 0 -0.4486879 0.8936886 0 -0.97637 0.2161054 0 -0.2097529 0.9777544 0 0.3667005 0.9303391 0 -1.34237e-4 0 -1 -6.50705e-5 0 -1 -7.52678e-5 0 -1 -1.10118e-4 0 -1 -7.73931e-5 0 -1 -8.62989e-5 0 -1 1.28518e-4 0 -1 7.3652e-5 0 -1 -2.818e-5 0 -1 -4.79015e-4 0 -0.9999999 3.0564e-5 0 -1 -1.34075e-5 0 -1 -4.2706e-5 0 -1 -2.88256e-6 0 -1 -6.24155e-5 0 -1 2.1624e-4 0 -1 -3.16775e-4 0 -1 -1.59292e-5 0 -1 -2.65313e-4 0 -1 2.15504e-5 0 -1 7.91938e-5 0 -1 -1.13864e-4 0 -1 7.08873e-5 0 -1 -1.09227e-4 0 -1 -9.51246e-5 0 -1 3.55884e-5 0 -1 -6.70374e-6 0 -1 1.37544e-4 0 -1 -1.13747e-4 0 -1 1.11987e-4 0 -1 -1.68071e-4 0 -1 2.74416e-4 0 -1 3.14624e-5 0 -1 -1.13873e-4 0 -1 -1.95254e-4 0 -1 -4.21462e-4 0 -1 3.49273e-4 0 -1 -2.81264e-4 0 -1 7.81014e-4 0 0.9999997 2.60282e-4 0 1 -9.44767e-5 0 1 4.24666e-5 0 1 8.0467e-6 0 1 5.8123e-5 0 1 -1.76043e-5 0 1 9.67422e-5 0 1 4.54814e-5 0 1 -2.31176e-5 0 1 1.13227e-4 0 1 2.5848e-4 0 1 9.82027e-5 0 1 -1.13883e-4 0 1 -2.49662e-4 0 1 3.37545e-4 0 1 2.98674e-5 0 1 1.31627e-4 0 1 1.33458e-4 0 1 4.51926e-5 0 1 -3.03637e-4 0 1 -2.49662e-4 0 1 -9.2242e-5 0 1 -2.44522e-4 0 1 1.79179e-4 0 1 6.33903e-5 0 1 -3.86092e-5 0 1 -9.22264e-5 0 1 7.62371e-5 0 1 -5.60545e-5 0 1 3.88443e-6 0 1 7.81014e-4 0 0.9999998 2.61954e-4 0 1 -2.43836e-4 0 1 -2.0755e-5 0 1 9.82126e-5 0 1 0.05922412 0.9982447 0 -0.147768 0.989022 0 -0.3999046 -0.9165569 0 0.7961955 0.6050395 0 -0.2567138 0.9664875 0 0.1909333 0.9816031 0 -0.3701258 0.9289817 0 0.2181031 0.9759258 0 0.2576169 0.9662472 0 0.5426369 0.8399674 0 -0.9923139 0.1237462 0 -0.286306 0.9581383 0 0.1270548 0.9918958 0 -0.1953731 0.980729 0 -0.03456491 0.9994025 0 0.961174 0.2759433 0 0.03456473 0.9994025 0 0.1827173 0.9831655 0 -0.9749661 0.2223539 0 -0.8932298 0.4496004 0 0.2734513 0.9618859 0 0.3745759 0.9271963 0 0.328653 0.9444508 0 -0.03456461 0.9994025 0 -0.9763709 0.2161021 0</float_array>
          <technique_common>
            <accessor source="#Plane_016-mesh-normals-array" count="191" stride="3">
              <param name="X" type="float"/>
              <param name="Y" type="float"/>
              <param name="Z" type="float"/>
            </accessor>
          </technique_common>
        </source>
        <source id="Plane_016-mesh-map-0">
          <float_array id="Plane_016-mesh-map-0-array" count="2520">0.1601408 0.5 0.1564563 1 0.1564563 0.5 0.1028295 0.5 0.09101051 1 0.09101051 0.5 0.8864799 0.5 0.8945885 1 0.8864799 1 0.8690319 0.5 0.8864799 1 0.8702627 1 0.8474925 0.5 0.8378283 1 0.8233774 0.5 0.1820211 0.5 0.1601408 1 0.1601408 0.5 0.3549656 0.5 0.3970613 1 0.3549656 1 0.3970613 0.5 0.439157 1 0.3970613 1 0.439157 0.5 0.4812527 1 0.439157 1 0.4812527 0.5 0.5233485 1 0.4812527 1 0.5233485 0.5 0.5632854 1 0.5233485 1 0.577326 0.5 0.6075398 1 0.577326 1 0.6353388 0.4999982 0.6496356 1 0.6353389 0.9998703 0.8582622 0.5 0.8702627 1 0.8621541 1 0.8233774 0.5 0.805394 1 0.8053941 0.5 0.3128699 0.5 0.3037359 1 0.3037359 0.5 0.8053941 0.5 0.7729597 1 0.7729597 0.5 0.09101051 0.5 0.08342629 1 0.08342629 0.5 0.1264674 0.5 0.1146485 1 0.1146485 0.5 0.7729597 0.5 0.7405254 1 0.7405254 0.5 0.1564563 0.5 0.1264674 1 0.1264674 0.5 0.7405254 0.5 0.708091 1 0.708091 0.5 0.6917312 0.5 0.6496356 1 0.6496356 0.5 0.1146485 0.5 0.1028295 1 0.1028295 0.5 0.2123579 0.5 0.1820211 1 0.1820211 0.5 0.2286785 0.5 0.2123579 1 0.2123579 0.5 0.708091 0.5 0.6917313 1 0.6917312 0.5 0.2707742 0.5 0.2286785 1 0.2286785 0.5 0.3128699 0.5 0.3549656 1 0.3128699 1 0.5632854 0.5 0.577326 1 0.5632854 1 0.5632854 0 0.577326 0.5 0.5632854 0.5 0.3128699 0 0.3549656 0.5 0.3128699 0.5 0.2707742 0 0.2286785 0.5 0.2286785 0 0.708091 0 0.6917312 0.5 0.6917312 0 0.2286785 0 0.2123579 0.5 0.2123579 0 0.2123579 0 0.1820211 0.5 0.1820211 0 0.1146485 0 0.1028295 0.5 0.1028295 0 0.6917312 0 0.6496356 0.5 0.6496355 0 0.7405254 0 0.708091 0.5 0.708091 0 0.1564563 0 0.1264674 0.5 0.1264674 0 0.7729597 0 0.7405254 0.5 0.7405254 0 0.1264674 0 0.1146485 0.5 0.1146485 0 0.09101051 0 0.08342629 0.5 0.08342629 0 0.8053941 0 0.7729597 0.5 0.7729597 0 0.3128699 0 0.3037359 0.5 0.3037359 0 0.8582622 0.5 0.8540455 1 0.8474925 0.5 0.6353388 1.2611e-4 0.6496356 0.5 0.6353388 0.4999982 0.577326 0 0.6075398 0.5 0.577326 0.5 0.5233485 0 0.5632854 0.5 0.5233485 0.5 0.4812527 0 0.5233485 0.5 0.4812527 0.5 0.439157 0 0.4812527 0.5 0.439157 0.5 0.3970613 0 0.439157 0.5 0.3970613 0.5 0.3549656 0 0.3970613 0.5 0.3549656 0.5 0.1820211 0 0.1601408 0.5 0.1601409 0 0.1028295 0 0.09101051 0.5 0.09101051 0 0.1601409 0 0.1564563 0.5 0.1564563 0 0.9189141 1 0.9108056 0.6903433 0.9189141 0.844121 0.902697 1 0.8945885 0.5269448 0.9026971 0.5889464 0.9270228 1 0.9189141 1 0.9189141 0.844121 0.9108056 1 0.9026971 0.5889464 0.9108056 0.6903433 0.6075398 0 0.6353388 0.4999982 0.6075398 0.5 0.6075398 0.5 0.6353389 0.9998703 0.6075398 1 0.3037359 0 0.2864511 0.5000001 0.2864511 0 0.3037359 0.5 0.2864511 1 0.2864511 0.5000001 0.2864511 0.5000001 0.2707742 1 0.2707742 0.5 0.2864511 0 0.2707742 0.5 0.2707742 0 0.1564563 1 0.1601408 0.5 0.1564563 0.5 0.09101051 1 0.1028295 0.5 0.09101051 0.5 0.8864799 0.5 0.8945885 1 0.8945885 0.5269448 0.8690319 0.5 0.8864799 1 0.8864799 0.5 0.8378283 1 0.8474925 0.5 0.8233774 0.5 0.1601408 1 0.1820211 0.5 0.1601408 0.5 0.3549656 0.5 0.3970613 1 0.3970613 0.5 0.3970613 0.5 0.439157 1 0.439157 0.5 0.439157 0.5 0.4812527 1 0.4812527 0.5 0.4812527 0.5 0.5233485 1 0.5233485 0.5 0.5233485 0.5 0.5632854 1 0.5632854 0.5 0.577326 0.5 0.6075398 1 0.6075398 0.5 0.6353388 0.4999982 0.6496356 1 0.6496356 0.5 0.8582622 0.5 0.8702627 1 0.8690319 0.5 0.805394 1 0.8233774 0.5 0.8053941 0.5 0.3037359 1 0.3128699 0.5 0.3037359 0.5 0.7729597 1 0.8053941 0.5 0.7729597 0.5 0.08342629 1 0.09101051 0.5 0.08342629 0.5 0.1146485 1 0.1264674 0.5 0.1146485 0.5 0.7405254 1 0.7729597 0.5 0.7405254 0.5 0.1264674 1 0.1564563 0.5 0.1264674 0.5 0.708091 1 0.7405254 0.5 0.708091 0.5 0.6496356 1 0.6917312 0.5 0.6496356 0.5 0.1028295 1 0.1146485 0.5 0.1028295 0.5 0.1820211 1 0.2123579 0.5 0.1820211 0.5 0.2123579 1 0.2286785 0.5 0.2123579 0.5 0.6917313 1 0.708091 0.5 0.6917312 0.5 0.2286785 1 0.2707742 0.5 0.2286785 0.5 0.3128699 0.5 0.3549656 1 0.3549656 0.5 0.5632854 0.5 0.577326 1 0.577326 0.5 0.5632854 0 0.577326 0.5 0.577326 0 0.3128699 0 0.3549656 0.5 0.3549656 0 0.2286785 0.5 0.2707742 0 0.2286785 0 0.6917312 0.5 0.708091 0 0.6917312 0 0.2123579 0.5 0.2286785 0 0.2123579 0 0.1820211 0.5 0.2123579 0 0.1820211 0 0.1028295 0.5 0.1146485 0 0.1028295 0 0.6496356 0.5 0.6917312 0 0.6496355 0 0.708091 0.5 0.7405254 0 0.708091 0 0.1264674 0.5 0.1564563 0 0.1264674 0 0.7405254 0.5 0.7729597 0 0.7405254 0 0.1146485 0.5 0.1264674 0 0.1146485 0 0.08342629 0.5 0.09101051 0 0.08342629 0 0.7729597 0.5 0.8053941 0 0.7729597 0 0.3037359 0.5 0.3128699 0 0.3037359 0 0.8540455 1 0.8582622 0.5 0.8474925 0.5 0.6353388 1.2611e-4 0.6496356 0.5 0.6496355 0 0.577326 0 0.6075398 0.5 0.6075398 0 0.5233485 0 0.5632854 0.5 0.5632854 0 0.4812527 0 0.5233485 0.5 0.5233485 0 0.439157 0 0.4812527 0.5 0.4812527 0 0.3970613 0 0.439157 0.5 0.439157 0 0.3549656 0 0.3970613 0.5 0.3970613 0 0.1601408 0.5 0.1820211 0 0.1601409 0 0.09101051 0.5 0.1028295 0 0.09101051 0 0.1564563 0.5 0.1601409 0 0.1564563 0 0.9108056 0.6903433 0.9189141 1 0.9189141 0.844121 0.8945885 0.5269448 0.902697 1 0.9026971 0.5889464 0.9270228 1 0.9189141 0.844121 0.9189141 1 0.9026971 0.5889464 0.9108056 1 0.9108056 0.6903433 0.6075398 0 0.6353388 0.4999982 0.6353388 1.2611e-4 0.6075398 0.5 0.6353389 0.9998703 0.6353388 0.4999982 0.2864511 0.5000001 0.3037359 0 0.2864511 0 0.2864511 1 0.3037359 0.5 0.2864511 0.5000001 0.2707742 1 0.2864511 0.5000001 0.2707742 0.5 0.2707742 0.5 0.2864511 0 0.2707742 0 0.3549656 1 0.3128699 1 0.3128699 1 0.08342629 0 0.09101051 0 0.09101051 0 0.8053941 0.5 0.8233774 0.5 0.8233774 0.5 0.708091 1 0.6917313 1 0.6917313 1 0.3970613 1 0.3549656 1 0.3549656 1 0.2864511 0 0.3037359 0 0.3037359 0 0.1028295 1 0.09101051 1 0.09101051 1 0.8582622 0.5 0.8690319 0.5 0.8690319 0.5 0.439157 1 0.3970613 1 0.3970613 1 0.2864511 1 0.2707742 1 0.2707742 1 0.1564563 1 0.1264674 1 0.1264674 1 0.1028295 0 0.1146485 0 0.1146485 0 0.7405254 1 0.708091 1 0.708091 1 0.4812527 1 0.439157 1 0.439157 1 0.1601408 1 0.1564563 1 0.1564563 1 0.09101051 0 0.1028295 0 0.1028295 0 0.8621541 1 0.8540455 1 0.8540455 1 0.6917312 0 0.708091 0 0.708091 0 0.5233485 1 0.4812527 1 0.4812527 1 0.2123579 1 0.1820211 1 0.1820211 1 0.1146485 1 0.1028295 1 0.1028295 1 0.8053941 0 0.8053941 0.5 0.8053941 0.5 0.5632854 1 0.5233485 1 0.5233485 1 0.1264674 1 0.1146485 1 0.1146485 1 0.2707742 1 0.2286785 1 0.2286785 1 0.6075398 1 0.577326 1 0.577326 1 0.08342629 1 0.08342629 0.5 0.08342629 0.5 0.2123579 0 0.2286785 0 0.2286785 0 0.6496356 1 0.6353389 0.9998703 0.6353389 0.9998703 0.09101051 1 0.08342629 1 0.08342629 1 0.6917313 1 0.6496356 1 0.6496356 1 0.1564563 0 0.1601409 0 0.1601409 0 0.2286785 1 0.2123579 1 0.2123579 1 0.1820211 0 0.2123579 0 0.2123579 0 0.8233774 0.5 0.8474925 0.5 0.8474925 0.5 0.8690319 0.5 0.8864799 0.5 0.8864799 0.5 0.9189141 1 0.9108056 1 0.9108056 1 0.9270228 1 0.9189141 1 0.9189141 1 0.9108056 0.6903433 0.9189141 0.844121 0.9189141 0.844121 0.902697 1 0.8945885 1 0.8945885 1 0.08342629 0.5 0.08342629 0 0.08342629 0 0.7729597 1 0.7405254 1 0.7405254 1 0.6075398 0 0.6353388 1.2611e-4 0.6353388 1.2611e-4 0.8945885 0.5269448 0.9026971 0.5889464 0.9026971 0.5889464 0.805394 1 0.7729597 1 0.7729597 1 0.5632854 0 0.577326 0 0.577326 0 0.9189141 0.844121 0.9270228 1 0.9270228 1 0.8945885 1 0.8864799 1 0.8864799 1 0.8378283 1 0.805394 1 0.805394 1 0.5233485 0 0.5632854 0 0.5632854 0 0.6353388 1.2611e-4 0.6496355 0 0.6496355 0 0.8540455 1 0.8378283 1 0.8378283 1 0.4812527 0 0.5233485 0 0.5233485 0 0.6353389 0.9998703 0.6075398 1 0.6075398 1 0.8702627 1 0.8621541 1 0.8621541 1 0.8864799 1 0.8702627 1 0.8702627 1 0.439157 0 0.4812527 0 0.4812527 0 0.8864799 0.5 0.8945885 0.5269448 0.8945885 0.5269448 0.9108056 1 0.902697 1 0.902697 1 0.3970613 0 0.439157 0 0.439157 0 0.577326 1 0.5632854 1 0.5632854 1 0.8474925 0.5 0.8582622 0.5 0.8582622 0.5 0.3549656 0 0.3970613 0 0.3970613 0 0.9026971 0.5889464 0.9108056 0.6903433 0.9108056 0.6903433 0.7729597 0 0.8053941 0 0.8053941 0 0.3128699 0 0.3549656 0 0.3549656 0 0.3037359 0 0.3128699 0 0.3128699 0 0.577326 0 0.6075398 0 0.6075398 0 0.7405254 0 0.7729597 0 0.7729597 0 0.2707742 0 0.2864511 0 0.2864511 0 0.3037359 1 0.2864511 1 0.2864511 1 0.1601409 0 0.1820211 0 0.1820211 0 0.708091 0 0.7405254 0 0.7405254 0 0.2286785 0 0.2707742 0 0.2707742 0 0.1264674 0 0.1564563 0 0.1564563 0 0.3128699 1 0.3037359 1 0.3037359 1 0.1146485 0 0.1264674 0 0.1264674 0 0.1820211 1 0.1601408 1 0.1601408 1 0.6496355 0 0.6917312 0 0.6917312 0 0.1601408 0.5 0.1601408 1 0.1564563 1 0.1028295 0.5 0.1028295 1 0.09101051 1 0.8864799 0.5 0.8945885 0.5269448 0.8945885 1 0.8690319 0.5 0.8864799 0.5 0.8864799 1 0.8474925 0.5 0.8540455 1 0.8378283 1 0.1820211 0.5 0.1820211 1 0.1601408 1 0.3549656 0.5 0.3970613 0.5 0.3970613 1 0.3970613 0.5 0.439157 0.5 0.439157 1 0.439157 0.5 0.4812527 0.5 0.4812527 1 0.4812527 0.5 0.5233485 0.5 0.5233485 1 0.5233485 0.5 0.5632854 0.5 0.5632854 1 0.577326 0.5 0.6075398 0.5 0.6075398 1 0.6353388 0.4999982 0.6496356 0.5 0.6496356 1 0.8582622 0.5 0.8690319 0.5 0.8702627 1 0.8233774 0.5 0.8378283 1 0.805394 1 0.3128699 0.5 0.3128699 1 0.3037359 1 0.8053941 0.5 0.805394 1 0.7729597 1 0.09101051 0.5 0.09101051 1 0.08342629 1 0.1264674 0.5 0.1264674 1 0.1146485 1 0.7729597 0.5 0.7729597 1 0.7405254 1 0.1564563 0.5 0.1564563 1 0.1264674 1 0.7405254 0.5 0.7405254 1 0.708091 1 0.6917312 0.5 0.6917313 1 0.6496356 1 0.1146485 0.5 0.1146485 1 0.1028295 1 0.2123579 0.5 0.2123579 1 0.1820211 1 0.2286785 0.5 0.2286785 1 0.2123579 1 0.708091 0.5 0.708091 1 0.6917313 1 0.2707742 0.5 0.2707742 1 0.2286785 1 0.3128699 0.5 0.3549656 0.5 0.3549656 1 0.5632854 0.5 0.577326 0.5 0.577326 1 0.5632854 0 0.577326 0 0.577326 0.5 0.3128699 0 0.3549656 0 0.3549656 0.5 0.2707742 0 0.2707742 0.5 0.2286785 0.5 0.708091 0 0.708091 0.5 0.6917312 0.5 0.2286785 0 0.2286785 0.5 0.2123579 0.5 0.2123579 0 0.2123579 0.5 0.1820211 0.5 0.1146485 0 0.1146485 0.5 0.1028295 0.5 0.6917312 0 0.6917312 0.5 0.6496356 0.5 0.7405254 0 0.7405254 0.5 0.708091 0.5 0.1564563 0 0.1564563 0.5 0.1264674 0.5 0.7729597 0 0.7729597 0.5 0.7405254 0.5 0.1264674 0 0.1264674 0.5 0.1146485 0.5 0.09101051 0 0.09101051 0.5 0.08342629 0.5 0.8053941 0 0.8053941 0.5 0.7729597 0.5 0.3128699 0 0.3128699 0.5 0.3037359 0.5 0.8582622 0.5 0.8621541 1 0.8540455 1 0.6353388 1.2611e-4 0.6496355 0 0.6496356 0.5 0.577326 0 0.6075398 0 0.6075398 0.5 0.5233485 0 0.5632854 0 0.5632854 0.5 0.4812527 0 0.5233485 0 0.5233485 0.5 0.439157 0 0.4812527 0 0.4812527 0.5 0.3970613 0 0.439157 0 0.439157 0.5 0.3549656 0 0.3970613 0 0.3970613 0.5 0.1820211 0 0.1820211 0.5 0.1601408 0.5 0.1028295 0 0.1028295 0.5 0.09101051 0.5 0.1601409 0 0.1601408 0.5 0.1564563 0.5 0.9189141 1 0.9108056 1 0.9108056 0.6903433 0.902697 1 0.8945885 1 0.8945885 0.5269448 0.9108056 1 0.902697 1 0.9026971 0.5889464 0.6075398 0 0.6353388 1.2611e-4 0.6353388 0.4999982 0.6075398 0.5 0.6353388 0.4999982 0.6353389 0.9998703 0.3037359 0 0.3037359 0.5 0.2864511 0.5000001 0.3037359 0.5 0.3037359 1 0.2864511 1 0.2864511 0.5000001 0.2864511 1 0.2707742 1 0.2864511 0 0.2864511 0.5000001 0.2707742 0.5 0.1564563 1 0.1601408 1 0.1601408 0.5 0.09101051 1 0.1028295 1 0.1028295 0.5 0.8864799 0.5 0.8864799 1 0.8945885 1 0.8690319 0.5 0.8702627 1 0.8864799 1 0.8378283 1 0.8540455 1 0.8474925 0.5 0.1601408 1 0.1820211 1 0.1820211 0.5 0.3549656 0.5 0.3549656 1 0.3970613 1 0.3970613 0.5 0.3970613 1 0.439157 1 0.439157 0.5 0.439157 1 0.4812527 1 0.4812527 0.5 0.4812527 1 0.5233485 1 0.5233485 0.5 0.5233485 1 0.5632854 1 0.577326 0.5 0.577326 1 0.6075398 1 0.6353388 0.4999982 0.6353389 0.9998703 0.6496356 1 0.8582622 0.5 0.8621541 1 0.8702627 1 0.805394 1 0.8378283 1 0.8233774 0.5 0.3037359 1 0.3128699 1 0.3128699 0.5 0.7729597 1 0.805394 1 0.8053941 0.5 0.08342629 1 0.09101051 1 0.09101051 0.5 0.1146485 1 0.1264674 1 0.1264674 0.5 0.7405254 1 0.7729597 1 0.7729597 0.5 0.1264674 1 0.1564563 1 0.1564563 0.5 0.708091 1 0.7405254 1 0.7405254 0.5 0.6496356 1 0.6917313 1 0.6917312 0.5 0.1028295 1 0.1146485 1 0.1146485 0.5 0.1820211 1 0.2123579 1 0.2123579 0.5 0.2123579 1 0.2286785 1 0.2286785 0.5 0.6917313 1 0.708091 1 0.708091 0.5 0.2286785 1 0.2707742 1 0.2707742 0.5 0.3128699 0.5 0.3128699 1 0.3549656 1 0.5632854 0.5 0.5632854 1 0.577326 1 0.5632854 0 0.5632854 0.5 0.577326 0.5 0.3128699 0 0.3128699 0.5 0.3549656 0.5 0.2286785 0.5 0.2707742 0.5 0.2707742 0 0.6917312 0.5 0.708091 0.5 0.708091 0 0.2123579 0.5 0.2286785 0.5 0.2286785 0 0.1820211 0.5 0.2123579 0.5 0.2123579 0 0.1028295 0.5 0.1146485 0.5 0.1146485 0 0.6496356 0.5 0.6917312 0.5 0.6917312 0 0.708091 0.5 0.7405254 0.5 0.7405254 0 0.1264674 0.5 0.1564563 0.5 0.1564563 0 0.7405254 0.5 0.7729597 0.5 0.7729597 0 0.1146485 0.5 0.1264674 0.5 0.1264674 0 0.08342629 0.5 0.09101051 0.5 0.09101051 0 0.7729597 0.5 0.8053941 0.5 0.8053941 0 0.3037359 0.5 0.3128699 0.5 0.3128699 0 0.8540455 1 0.8621541 1 0.8582622 0.5 0.6353388 1.2611e-4 0.6353388 0.4999982 0.6496356 0.5 0.577326 0 0.577326 0.5 0.6075398 0.5 0.5233485 0 0.5233485 0.5 0.5632854 0.5 0.4812527 0 0.4812527 0.5 0.5233485 0.5 0.439157 0 0.439157 0.5 0.4812527 0.5 0.3970613 0 0.3970613 0.5 0.439157 0.5 0.3549656 0 0.3549656 0.5 0.3970613 0.5 0.1601408 0.5 0.1820211 0.5 0.1820211 0 0.09101051 0.5 0.1028295 0.5 0.1028295 0 0.1564563 0.5 0.1601408 0.5 0.1601409 0 0.9108056 0.6903433 0.9108056 1 0.9189141 1 0.8945885 0.5269448 0.8945885 1 0.902697 1 0.9026971 0.5889464 0.902697 1 0.9108056 1 0.6075398 0 0.6075398 0.5 0.6353388 0.4999982 0.6075398 0.5 0.6075398 1 0.6353389 0.9998703 0.2864511 0.5000001 0.3037359 0.5 0.3037359 0 0.2864511 1 0.3037359 1 0.3037359 0.5 0.2707742 1 0.2864511 1 0.2864511 0.5000001 0.2707742 0.5 0.2864511 0.5000001 0.2864511 0 0.3549656 1 0.3549656 1 0.3128699 1 0.08342629 0 0.08342629 0 0.09101051 0 0.8053941 0.5 0.8053941 0.5 0.8233774 0.5 0.708091 1 0.708091 1 0.6917313 1 0.3970613 1 0.3970613 1 0.3549656 1 0.2864511 0 0.2864511 0 0.3037359 0 0.1028295 1 0.1028295 1 0.09101051 1 0.8582622 0.5 0.8582622 0.5 0.8690319 0.5 0.439157 1 0.439157 1 0.3970613 1 0.2864511 1 0.2864511 1 0.2707742 1 0.1564563 1 0.1564563 1 0.1264674 1 0.1028295 0 0.1028295 0 0.1146485 0 0.7405254 1 0.7405254 1 0.708091 1 0.4812527 1 0.4812527 1 0.439157 1 0.1601408 1 0.1601408 1 0.1564563 1 0.09101051 0 0.09101051 0 0.1028295 0 0.8621541 1 0.8621541 1 0.8540455 1 0.6917312 0 0.6917312 0 0.708091 0 0.5233485 1 0.5233485 1 0.4812527 1 0.2123579 1 0.2123579 1 0.1820211 1 0.1146485 1 0.1146485 1 0.1028295 1 0.8053941 0 0.8053941 0 0.8053941 0.5 0.5632854 1 0.5632854 1 0.5233485 1 0.1264674 1 0.1264674 1 0.1146485 1 0.2707742 1 0.2707742 1 0.2286785 1 0.6075398 1 0.6075398 1 0.577326 1 0.08342629 1 0.08342629 1 0.08342629 0.5 0.2123579 0 0.2123579 0 0.2286785 0 0.6496356 1 0.6496356 1 0.6353389 0.9998703 0.09101051 1 0.09101051 1 0.08342629 1 0.6917313 1 0.6917313 1 0.6496356 1 0.1564563 0 0.1564563 0 0.1601409 0 0.2286785 1 0.2286785 1 0.2123579 1 0.1820211 0 0.1820211 0 0.2123579 0 0.8233774 0.5 0.8233774 0.5 0.8474925 0.5 0.8690319 0.5 0.8690319 0.5 0.8864799 0.5 0.9189141 1 0.9189141 1 0.9108056 1 0.9270228 1 0.9270228 1 0.9189141 1 0.9108056 0.6903433 0.9108056 0.6903433 0.9189141 0.844121 0.902697 1 0.902697 1 0.8945885 1 0.08342629 0.5 0.08342629 0.5 0.08342629 0 0.7729597 1 0.7729597 1 0.7405254 1 0.6075398 0 0.6075398 0 0.6353388 1.2611e-4 0.8945885 0.5269448 0.8945885 0.5269448 0.9026971 0.5889464 0.805394 1 0.805394 1 0.7729597 1 0.5632854 0 0.5632854 0 0.577326 0 0.9189141 0.844121 0.9189141 0.844121 0.9270228 1 0.8945885 1 0.8945885 1 0.8864799 1 0.8378283 1 0.8378283 1 0.805394 1 0.5233485 0 0.5233485 0 0.5632854 0 0.6353388 1.2611e-4 0.6353388 1.2611e-4 0.6496355 0 0.8540455 1 0.8540455 1 0.8378283 1 0.4812527 0 0.4812527 0 0.5233485 0 0.6353389 0.9998703 0.6353389 0.9998703 0.6075398 1 0.8702627 1 0.8702627 1 0.8621541 1 0.8864799 1 0.8864799 1 0.8702627 1 0.439157 0 0.439157 0 0.4812527 0 0.8864799 0.5 0.8864799 0.5 0.8945885 0.5269448 0.9108056 1 0.9108056 1 0.902697 1 0.3970613 0 0.3970613 0 0.439157 0 0.577326 1 0.577326 1 0.5632854 1 0.8474925 0.5 0.8474925 0.5 0.8582622 0.5 0.3549656 0 0.3549656 0 0.3970613 0 0.9026971 0.5889464 0.9026971 0.5889464 0.9108056 0.6903433 0.7729597 0 0.7729597 0 0.8053941 0 0.3128699 0 0.3128699 0 0.3549656 0 0.3037359 0 0.3037359 0 0.3128699 0 0.577326 0 0.577326 0 0.6075398 0 0.7405254 0 0.7405254 0 0.7729597 0 0.2707742 0 0.2707742 0 0.2864511 0 0.3037359 1 0.3037359 1 0.2864511 1 0.1601409 0 0.1601409 0 0.1820211 0 0.708091 0 0.708091 0 0.7405254 0 0.2286785 0 0.2286785 0 0.2707742 0 0.1264674 0 0.1264674 0 0.1564563 0 0.3128699 1 0.3128699 1 0.3037359 1 0.1146485 0 0.1146485 0 0.1264674 0 0.1820211 1 0.1820211 1 0.1601408 1 0.6496355 0 0.6496355 0 0.6917312 0</float_array>
          <technique_common>
            <accessor source="#Plane_016-mesh-map-0-array" count="1260" stride="2">
              <param name="S" type="float"/>
              <param name="T" type="float"/>
            </accessor>
          </technique_common>
        </source>
        <vertices id="Plane_016-mesh-vertices">
          <input semantic="POSITION" source="#Plane_016-mesh-positions"/>
        </vertices>
        <triangles material="gora_dol-material" count="262">
          <input semantic="VERTEX" source="#Plane_016-mesh-vertices" offset="0"/>
          <input semantic="NORMAL" source="#Plane_016-mesh-normals" offset="1"/>
          <input semantic="TEXCOORD" source="#Plane_016-mesh-map-0" offset="2" set="0"/>
          <p>68 0 0 22 0 1 74 0 2 69 0 3 20 0 4 76 0 5 71 1 6 13 1 7 14 1 8 88 2 9 14 2 10 48 2 11 72 0 12 47 0 13 89 0 14 73 0 15 3 0 16 68 0 17 84 3 18 37 3 19 36 3 20 83 4 21 38 4 22 37 4 23 82 5 24 39 5 25 38 5 26 81 6 27 40 6 28 39 6 29 80 7 30 41 7 31 40 7 32 62 8 33 42 8 34 0 8 35 99 9 36 43 9 37 98 9 38 87 10 39 48 10 40 50 10 41 89 0 42 46 0 43 90 0 44 85 0 45 101 0 46 102 0 47 90 11 48 45 11 49 91 11 50 76 0 51 9 0 52 70 0 53 75 12 54 7 12 55 67 12 56 91 0 57 44 0 58 92 0 59 74 0 60 21 0 61 75 0 62 92 13 63 56 13 64 94 13 65 93 14 66 43 14 67 77 14 68 67 15 69 6 15 70 69 15 71 96 0 72 23 0 73 73 0 74 95 0 75 60 0 76 96 0 77 94 16 78 55 16 79 93 16 80 86 0 81 58 0 82 95 0 83 85 17 84 36 17 85 35 17 86 79 18 87 0 18 88 41 18 89 26 19 90 62 19 91 79 19 92 32 20 93 84 20 94 85 20 95 33 0 96 95 0 97 59 0 98 57 0 99 93 0 100 54 0 101 59 0 102 96 0 103 61 0 104 61 0 105 73 0 106 16 0 107 2 0 108 69 0 109 4 0 110 54 0 111 77 0 112 24 0 113 53 0 114 94 0 115 57 0 116 17 0 117 75 0 118 18 0 119 52 0 120 92 0 121 53 0 122 18 0 123 67 0 124 2 0 125 19 0 126 70 0 127 8 0 128 51 0 129 91 0 130 52 0 131 32 0 132 102 0 133 100 0 134 87 0 135 15 0 136 72 0 137 97 21 138 77 21 139 99 21 140 1 22 141 78 22 142 62 22 143 27 23 144 79 23 145 80 23 146 28 24 147 80 24 148 81 24 149 29 25 150 81 25 151 82 25 152 30 26 153 82 26 154 83 26 155 31 27 156 83 27 157 84 27 158 16 0 159 68 0 160 5 0 161 4 0 162 76 0 163 19 0 164 5 0 165 74 0 166 17 0 167 11 0 168 65 0 169 64 0 170 49 0 171 66 0 172 63 0 173 12 0 174 11 0 175 64 0 176 10 0 177 63 0 178 65 0 179 25 28 180 99 28 181 78 28 182 78 29 183 98 29 184 42 29 185 100 0 186 105 0 187 103 0 188 102 0 189 104 0 190 105 0 191 105 0 192 34 0 193 86 0 194 103 0 195 86 0 196 33 0 197 145 30 198 121 30 199 144 30 200 130 31 201 122 31 202 147 31 203 108 32 204 137 32 205 109 32 206 185 32 207 139 32 208 108 32 209 187 32 210 140 32 211 186 32 212 119 33 213 143 33 214 121 33 215 165 32 216 164 32 217 163 32 218 163 32 219 162 32 220 161 32 221 161 34 222 160 34 223 159 34 224 159 35 225 158 35 226 157 35 227 157 32 228 110 32 229 156 32 230 106 36 231 155 36 232 154 36 233 208 32 234 153 32 235 152 32 236 116 32 237 142 32 238 185 32 239 189 32 240 186 32 241 188 32 242 182 32 243 167 32 244 207 32 245 191 37 246 188 37 247 190 37 248 129 38 249 147 38 250 128 38 251 118 39 252 146 39 253 117 39 254 193 40 255 190 40 256 192 40 257 127 32 258 144 32 259 146 32 260 201 41 261 192 41 262 202 41 263 153 42 264 198 42 265 152 42 266 123 43 267 117 43 268 122 43 269 120 44 270 206 44 271 143 44 272 151 45 273 203 45 274 206 45 275 184 46 276 202 46 277 198 46 278 204 47 279 169 47 280 203 47 281 167 32 282 166 32 283 165 32 284 156 48 285 111 48 286 106 48 287 172 32 288 106 32 289 107 32 290 178 32 291 165 32 292 177 32 293 203 32 294 180 32 295 181 32 296 198 32 297 197 32 298 199 32 299 206 32 300 181 32 301 205 32 302 143 32 303 205 32 304 148 32 305 122 32 306 124 32 307 125 32 308 152 32 309 199 32 310 200 32 311 202 32 312 196 32 313 197 32 314 146 32 315 132 32 316 149 32 317 192 32 318 195 32 319 196 32 320 117 32 321 149 32 322 124 32 323 128 32 324 126 32 325 150 32 326 190 32 327 194 32 328 195 32 329 207 32 330 178 32 331 209 32 332 141 32 333 116 32 334 140 32 335 171 49 336 152 49 337 200 49 338 107 32 339 154 32 340 114 32 341 173 32 342 156 32 343 172 32 344 174 32 345 157 32 346 173 32 347 175 32 348 159 32 349 174 32 350 176 32 351 161 32 352 175 32 353 177 32 354 163 32 355 176 32 356 121 32 357 148 32 358 131 32 359 147 32 360 125 32 361 126 32 362 144 32 363 131 32 364 132 32 365 113 32 366 134 32 367 133 32 368 109 32 369 138 32 370 112 32 371 136 32 372 133 32 373 134 32 374 112 32 375 135 32 376 113 32 377 114 32 378 208 32 379 171 32 380 154 50 381 183 50 382 208 50 383 211 51 384 209 51 385 179 51 386 210 32 387 207 32 388 211 32 389 170 32 390 211 32 391 169 32 392 169 32 393 179 32 394 180 32 395 68 92 633 3 92 634 22 92 635 69 93 636 6 93 637 20 93 638 71 0 639 66 0 640 13 0 641 88 0 642 71 0 643 14 0 644 72 94 645 15 94 646 47 94 647 73 95 648 23 95 649 3 95 650 84 0 651 83 0 652 37 0 653 83 0 654 82 0 655 38 0 656 82 96 657 81 96 658 39 96 659 81 97 660 80 97 661 40 97 662 80 0 663 79 0 664 41 0 665 62 98 666 78 98 667 42 98 668 99 0 669 77 0 670 43 0 671 87 0 672 88 0 673 48 0 674 89 99 675 47 99 676 46 99 677 85 0 678 35 0 679 101 0 680 90 100 681 46 100 682 45 100 683 76 101 684 20 101 685 9 101 686 75 102 687 21 102 688 7 102 689 91 103 690 45 103 691 44 103 692 74 0 693 22 0 694 21 0 695 92 104 696 44 104 697 56 104 698 93 105 699 55 105 700 43 105 701 67 106 702 7 106 703 6 106 704 96 0 705 60 0 706 23 0 707 95 107 708 58 107 709 60 107 710 94 108 711 56 108 712 55 108 713 86 109 714 34 109 715 58 109 716 85 0 717 84 0 718 36 0 719 79 110 720 62 110 721 0 110 722 26 0 723 1 0 724 62 0 725 32 0 726 31 0 727 84 0 728 33 111 729 86 111 730 95 111 731 57 112 732 94 112 733 93 112 734 59 113 735 95 113 736 96 113 737 61 114 738 96 114 739 73 114 740 2 115 741 67 115 742 69 115 743 54 116 744 93 116 745 77 116 746 53 117 747 92 117 748 94 117 749 17 0 750 74 0 751 75 0 752 52 118 753 91 118 754 92 118 755 18 119 756 75 119 757 67 119 758 19 120 759 76 120 760 70 120 761 51 121 762 90 121 763 91 121 764 32 0 765 85 0 766 102 0 767 87 122 768 50 122 769 15 122 770 97 123 771 24 123 772 77 123 773 1 0 774 25 0 775 78 0 776 27 0 777 26 0 778 79 0 779 28 0 780 27 0 781 80 0 782 29 0 783 28 0 784 81 0 785 30 0 786 29 0 787 82 0 788 31 0 789 30 0 790 83 0 791 16 124 792 73 124 793 68 124 794 4 125 795 69 125 796 76 125 797 5 126 798 68 126 799 74 126 800 11 127 801 10 127 802 65 127 803 49 128 804 13 128 805 66 128 806 10 0 807 49 0 808 63 0 809 25 0 810 97 0 811 99 0 812 78 129 813 99 129 814 98 129 815 100 0 816 102 0 817 105 0 818 102 0 819 101 0 820 104 0 821 105 0 822 104 0 823 34 0 824 103 0 825 105 0 826 86 0 827 145 130 828 119 130 829 121 130 830 130 131 831 123 131 832 122 131 833 108 132 834 139 132 835 137 132 836 185 133 837 142 133 838 139 133 839 187 32 840 141 32 841 140 32 842 119 32 843 120 32 844 143 32 845 165 134 846 166 134 847 164 134 848 163 135 849 164 135 850 162 135 851 161 136 852 162 136 853 160 136 854 159 137 855 160 137 856 158 137 857 157 138 858 158 138 859 110 138 860 106 139 861 111 139 862 155 139 863 208 140 864 183 140 865 153 140 866 116 141 867 115 141 868 142 141 869 189 142 870 187 142 871 186 142 872 182 32 873 168 32 874 167 32 875 191 32 876 189 32 877 188 32 878 129 32 879 130 32 880 147 32 881 118 32 882 127 32 883 146 32 884 193 32 885 191 32 886 190 32 887 127 32 888 145 32 889 144 32 890 201 143 891 193 143 892 192 143 893 153 32 894 184 32 895 198 32 896 123 144 897 118 144 898 117 144 899 120 32 900 151 32 901 206 32 902 151 145 903 204 145 904 203 145 905 184 32 906 201 32 907 202 32 908 204 32 909 170 32 910 169 32 911 167 146 912 168 146 913 166 146 914 156 147 915 110 147 916 111 147 917 172 148 918 156 148 919 106 148 920 178 149 921 167 149 922 165 149 923 203 32 924 169 32 925 180 32 926 198 32 927 202 32 928 197 32 929 206 150 930 203 150 931 181 150 932 143 32 933 206 32 934 205 32 935 122 151 936 117 151 937 124 151 938 152 152 939 198 152 940 199 152 941 202 32 942 192 32 943 196 32 944 146 32 945 144 32 946 132 32 947 192 32 948 190 32 949 195 32 950 117 153 951 146 153 952 149 153 953 128 32 954 147 32 955 126 32 956 190 154 957 188 154 958 194 154 959 207 32 960 167 32 961 178 32 962 141 32 963 115 32 964 116 32 965 171 155 966 208 155 967 152 155 968 107 156 969 106 156 970 154 156 971 173 157 972 157 157 973 156 157 974 174 32 975 159 32 976 157 32 977 175 158 978 161 158 979 159 158 980 176 159 981 163 159 982 161 159 983 177 160 984 165 160 985 163 160 986 121 32 987 143 32 988 148 32 989 147 32 990 122 32 991 125 32 992 144 161 993 121 161 994 131 161 995 113 32 996 135 32 997 134 32 998 109 162 999 137 162 1000 138 162 1001 112 163 1002 138 163 1003 135 163 1004 114 164 1005 154 164 1006 208 164 1007 154 165 1008 155 165 1009 183 165 1010 211 32 1011 207 32 1012 209 32 1013 210 32 1014 182 32 1015 207 32 1016 170 32 1017 210 32 1018 211 32 1019 169 32 1020 211 32 1021 179 32 1022</p>
        </triangles>
        <triangles material="tyl-material" count="78">
          <input semantic="VERTEX" source="#Plane_016-mesh-vertices" offset="0"/>
          <input semantic="NORMAL" source="#Plane_016-mesh-normals" offset="1"/>
          <input semantic="TEXCOORD" source="#Plane_016-mesh-map-0" offset="2" set="0"/>
          <p>8 53 399 126 53 400 19 53 401 90 53 402 186 53 403 89 53 404 103 56 411 209 56 412 100 56 413 87 53 417 185 53 418 88 53 419 4 53 429 124 53 430 2 53 431 19 53 441 125 53 442 4 53 443 54 53 447 197 53 448 57 53 449 51 67 459 188 67 460 90 67 461 61 53 477 181 53 478 59 53 479 17 53 489 131 53 490 5 53 491 16 53 495 205 53 496 61 53 497 89 53 498 140 53 499 72 53 500 88 53 501 108 53 502 71 53 503 65 53 510 133 53 511 64 53 512 25 53 522 171 53 523 97 53 524 66 53 525 112 53 526 63 53 527 26 53 531 107 53 532 1 53 533 64 53 534 136 53 535 12 53 536 27 53 543 172 53 544 26 53 545 97 84 546 200 84 547 24 84 548 28 53 552 173 53 553 27 53 554 29 53 564 174 53 565 28 53 566 71 53 567 109 53 568 66 53 569 30 53 573 175 53 574 29 53 575 72 53 579 116 53 580 87 53 581 31 53 582 176 53 583 30 53 584 63 53 585 113 53 586 65 53 587 52 53 588 194 53 589 51 53 590 32 53 591 177 53 592 31 53 593 100 53 594 178 53 595 32 53 596 1 53 597 114 53 598 25 53 599 53 53 600 195 53 601 52 53 602 33 53 603 179 53 604 103 53 605 5 53 609 148 53 610 16 53 611 57 53 612 196 53 613 53 53 614 59 53 615 180 53 616 33 53 617 18 53 618 132 53 619 17 53 620 2 53 624 149 53 625 18 53 626 24 53 630 199 53 631 54 53 632 8 53 1026 150 53 1027 126 53 1028 90 53 1029 188 53 1030 186 53 1031 103 168 1038 179 168 1039 209 168 1040 87 53 1044 116 53 1045 185 53 1046 4 53 1056 125 53 1057 124 53 1058 19 53 1068 126 53 1069 125 53 1070 54 53 1074 199 53 1075 197 53 1076 51 176 1086 194 176 1087 188 176 1088 61 53 1104 205 53 1105 181 53 1106 17 53 1116 132 53 1117 131 53 1118 16 53 1122 148 53 1123 205 53 1124 89 53 1125 186 53 1126 140 53 1127 88 53 1128 185 53 1129 108 53 1130 65 53 1137 113 53 1138 133 53 1139 25 53 1149 114 53 1150 171 53 1151 66 53 1152 109 53 1153 112 53 1154 26 53 1158 172 53 1159 107 53 1160 64 53 1161 133 53 1162 136 53 1163 27 53 1170 173 53 1171 172 53 1172 97 84 1173 171 84 1174 200 84 1175 28 53 1179 174 53 1180 173 53 1181 29 53 1191 175 53 1192 174 53 1193 71 53 1194 108 53 1195 109 53 1196 30 53 1200 176 53 1201 175 53 1202 72 53 1206 140 53 1207 116 53 1208 31 53 1209 177 53 1210 176 53 1211 63 53 1212 112 53 1213 113 53 1214 52 53 1215 195 53 1216 194 53 1217 32 53 1218 178 53 1219 177 53 1220 100 53 1221 209 53 1222 178 53 1223 1 53 1224 107 53 1225 114 53 1226 53 53 1227 196 53 1228 195 53 1229 33 53 1230 180 53 1231 179 53 1232 5 53 1236 131 53 1237 148 53 1238 57 53 1239 197 53 1240 196 53 1241 59 53 1242 181 53 1243 180 53 1244 18 53 1245 149 53 1246 132 53 1247 2 53 1251 124 53 1252 149 53 1253 24 53 1257 200 53 1258 199 53 1259</p>
        </triangles>
        <triangles material="front-material" count="80">
          <input semantic="VERTEX" source="#Plane_016-mesh-vertices" offset="0"/>
          <input semantic="NORMAL" source="#Plane_016-mesh-normals" offset="1"/>
          <input semantic="TEXCOORD" source="#Plane_016-mesh-map-0" offset="2" set="0"/>
          <p>36 52 396 168 52 397 35 52 398 56 54 405 184 54 406 55 54 407 37 55 408 166 55 409 36 55 410 6 57 414 130 57 415 20 57 416 38 58 420 164 58 421 37 58 422 104 59 423 170 59 424 34 59 425 22 59 426 127 59 427 21 59 428 44 60 432 201 60 433 56 60 434 39 61 435 162 61 436 38 61 437 3 62 438 145 62 439 22 62 440 50 63 444 141 63 445 15 63 446 40 64 450 160 64 451 39 64 452 60 65 453 120 65 454 23 65 455 7 66 456 123 66 457 6 66 458 41 68 462 158 68 463 40 68 464 21 69 465 118 69 466 7 69 467 34 70 468 204 70 469 58 70 470 42 71 471 111 71 472 0 71 473 9 72 474 128 72 475 70 72 476 43 73 480 183 73 481 98 73 482 20 74 483 129 74 484 9 74 485 55 75 486 153 75 487 43 75 488 58 76 492 151 76 493 60 76 494 11 77 504 135 77 505 10 77 506 12 78 507 134 78 508 11 78 509 49 79 513 137 79 514 13 79 515 70 72 516 150 72 517 8 72 518 45 80 519 193 80 520 44 80 521 46 81 528 191 81 529 45 81 530 13 82 537 139 82 538 14 82 539 47 83 540 189 83 541 46 83 542 15 85 549 187 85 550 47 85 551 98 86 555 155 86 556 42 86 557 48 87 558 115 87 559 50 87 560 14 88 561 142 88 562 48 88 563 10 89 570 138 89 571 49 89 572 0 90 576 110 90 577 41 90 578 101 59 606 210 59 607 104 59 608 35 59 621 182 59 622 101 59 623 23 91 627 119 91 628 3 91 629 36 52 1023 166 52 1024 168 52 1025 56 166 1032 201 166 1033 184 166 1034 37 167 1035 164 167 1036 166 167 1037 6 169 1041 123 169 1042 130 169 1043 38 170 1047 162 170 1048 164 170 1049 104 59 1050 210 59 1051 170 59 1052 22 59 1053 145 59 1054 127 59 1055 44 171 1059 193 171 1060 201 171 1061 39 172 1062 160 172 1063 162 172 1064 3 173 1065 119 173 1066 145 173 1067 50 63 1071 115 63 1072 141 63 1073 40 64 1077 158 64 1078 160 64 1079 60 174 1080 151 174 1081 120 174 1082 7 175 1083 118 175 1084 123 175 1085 41 177 1089 110 177 1090 158 177 1091 21 69 1092 127 69 1093 118 69 1094 34 178 1095 170 178 1096 204 178 1097 42 179 1098 155 179 1099 111 179 1100 9 72 1101 129 72 1102 128 72 1103 43 180 1107 153 180 1108 183 180 1109 20 181 1110 130 181 1111 129 181 1112 55 182 1113 184 182 1114 153 182 1115 58 183 1119 204 183 1120 151 183 1121 11 184 1131 134 184 1132 135 184 1133 12 78 1134 136 78 1135 134 78 1136 49 185 1140 138 185 1141 137 185 1142 70 72 1143 128 72 1144 150 72 1145 45 186 1146 191 186 1147 193 186 1148 46 187 1155 189 187 1156 191 187 1157 13 82 1164 137 82 1165 139 82 1166 47 83 1167 187 83 1168 189 83 1169 15 188 1176 141 188 1177 187 188 1178 98 189 1182 183 189 1183 155 189 1184 48 87 1185 142 87 1186 115 87 1187 14 88 1188 139 88 1189 142 88 1190 10 190 1197 135 190 1198 138 190 1199 0 90 1203 111 90 1204 110 90 1205 101 59 1233 182 59 1234 210 59 1235 35 59 1248 168 59 1249 182 59 1250 23 91 1254 120 91 1255 119 91 1256</p>
        </triangles>
      </mesh>
    </geometry>
  </library_geometries>
  <library_visual_scenes>
    <visual_scene id="Scene" name="Scene">
      <node id="versal_end1" name="versal_end1" type="NODE">
        <matrix sid="transform">1 0 0 0.1160143 0 1 0 -6.87461e-4 0 0 1 1.35 0 0 0 1</matrix>
        <instance_geometry url="#Plane_016-mesh" name="versal_end1">
          <bind_material>
            <technique_common>
              <instance_material symbol="gora_dol-material" target="#gora_dol-material">
                <bind_vertex_input semantic="UVMap" input_semantic="TEXCOORD" input_set="0"/>
              </instance_material>
              <instance_material symbol="tyl-material" target="#tyl-material">
                <bind_vertex_input semantic="UVMap" input_semantic="TEXCOORD" input_set="0"/>
              </instance_material>
              <instance_material symbol="front-material" target="#front-material">
                <bind_vertex_input semantic="UVMap" input_semantic="TEXCOORD" input_set="0"/>
              </instance_material>
            </technique_common>
          </bind_material>
        </instance_geometry>
      </node>
    </visual_scene>
  </library_visual_scenes>
  <scene>
    <instance_visual_scene url="#Scene"/>
  </scene>
</COLLADA>