# Blender v3.2.0 OBJ File: 'panele.blend'
# www.blender.org
mtllib versal_end2.mtl
o versal_end1_Plane.016
v 0.111482 0.000000 -0.002305
v 0.111482 0.000000 0.005862
v 0.138369 0.000000 0.006300
v 0.135725 0.000000 -0.004839
v 0.139055 0.000000 0.006300
v 0.135725 0.000000 0.006300
v 0.139055 0.000000 -0.004119
v 0.138369 0.000000 -0.004563
v 0.139952 0.000000 0.006300
v 0.139952 0.000000 -0.002485
v 0.091902 0.000000 -0.001236
v 0.091594 0.000000 0.000115
v 0.091352 0.000000 0.001097
v 0.092739 0.000000 -0.003776
v 0.093411 0.000000 -0.004374
v 0.095459 0.000000 -0.004952
v 0.134454 0.000000 0.006300
v 0.135939 0.000000 0.006300
v 0.137682 0.000000 0.006300
v 0.139742 0.000000 0.006300
v 0.139742 0.000000 -0.003216
v 0.137682 0.000000 -0.004791
v 0.135939 0.000000 -0.004791
v 0.134454 0.000000 -0.005340
v 0.107280 0.000000 0.006300
v 0.109726 0.000000 0.005862
v 0.112298 0.000000 0.005862
v 0.114619 0.000000 0.005862
v 0.117065 0.000000 0.005862
v 0.119511 0.000000 0.005862
v 0.121957 0.000000 0.005862
v 0.124404 0.000000 0.005862
v 0.126850 0.000000 0.005862
v 0.129296 0.000000 0.006300
v 0.129296 0.000000 -0.006300
v 0.126850 0.000000 -0.006300
v 0.124404 0.000000 -0.006178
v 0.121957 0.000000 -0.005813
v 0.119511 0.000000 -0.005163
v 0.117065 0.000000 -0.004188
v 0.114619 0.000000 -0.003173
v 0.112298 0.000000 -0.002480
v 0.109726 0.000000 -0.001955
v 0.107280 0.000000 -0.001870
v 0.101998 0.000000 -0.002378
v 0.100114 0.000000 -0.002914
v 0.098229 0.000000 -0.003675
v 0.096373 0.000000 -0.004634
v 0.094325 0.000000 -0.004832
v 0.092248 0.000000 -0.002802
v 0.094892 0.000000 -0.004920
v 0.098540 0.000000 0.006300
v 0.100114 0.000000 0.006300
v 0.101998 0.000000 0.006300
v 0.104834 0.000000 0.006300
v 0.104834 0.000000 -0.001955
v 0.103883 0.000000 -0.002011
v 0.103883 0.000000 0.006300
v 0.131742 0.000000 -0.005987
v 0.131742 0.000000 0.006300
v 0.132691 0.000000 -0.005810
v 0.132691 0.000000 0.006300
v 0.111482 0.000000 0.001998
v 0.092605 0.000000 0.001097
v 0.091770 0.000000 0.001097
v 0.092187 0.000000 0.001097
v 0.093023 0.000000 0.001097
v 0.138369 0.000000 0.000868
v 0.135725 0.000000 0.000730
v 0.139055 0.000000 0.001090
v 0.139952 0.000000 0.001928
v 0.093441 0.000000 0.001097
v 0.095813 0.000000 0.001097
v 0.134454 0.000000 0.000480
v 0.135939 0.000000 0.000754
v 0.137682 0.000000 0.000754
v 0.139742 0.000000 0.001420
v 0.107280 0.000000 0.002215
v 0.109726 0.000000 0.002173
v 0.112298 0.000000 0.001585
v 0.114619 0.000000 0.001239
v 0.117065 0.000000 0.000731
v 0.119511 0.000000 0.000244
v 0.121957 0.000000 -0.000081
v 0.124404 0.000000 -0.000264
v 0.126850 0.000000 -0.000325
v 0.129296 0.000000 -0.000325
v 0.095141 0.000000 0.001097
v 0.094469 0.000000 0.001097
v 0.097574 0.000000 0.001097
v 0.099189 0.000000 0.001097
v 0.100114 0.000000 0.001693
v 0.101998 0.000000 0.001961
v 0.104834 0.000000 0.002173
v 0.103883 0.000000 0.002144
v 0.131742 0.000000 -0.000168
v 0.132691 0.000000 0.000245
v 0.108111 0.000000 0.005862
v 0.108111 0.000000 -0.001899
v 0.108111 0.000000 0.002201
v 0.127381 0.000000 0.005862
v 0.127381 0.000000 -0.006300
v 0.127381 0.000000 -0.000325
v 0.128385 0.000000 0.006300
v 0.128385 0.000000 -0.006300
v 0.128385 0.000000 -0.000325
v 0.111482 2.700000 0.001998
v 0.111482 2.700000 0.005862
v 0.093441 2.700000 0.001097
v 0.093023 2.700000 0.001097
v 0.112298 2.700000 -0.002480
v 0.111482 2.700000 -0.002305
v 0.092605 2.700000 0.001097
v 0.092187 2.700000 0.001097
v 0.109726 2.700000 0.005862
v 0.094892 2.700000 -0.004920
v 0.095141 2.700000 0.001097
v 0.138369 2.700000 0.000868
v 0.138369 2.700000 -0.004563
v 0.135725 2.700000 -0.004839
v 0.134454 2.700000 -0.005340
v 0.135725 2.700000 0.000730
v 0.139055 2.700000 0.001090
v 0.139055 2.700000 -0.004119
v 0.138369 2.700000 0.006300
v 0.139055 2.700000 0.006300
v 0.139742 2.700000 0.006300
v 0.137682 2.700000 -0.004791
v 0.139952 2.700000 0.001928
v 0.139952 2.700000 -0.002485
v 0.139742 2.700000 -0.003216
v 0.135725 2.700000 0.006300
v 0.135939 2.700000 0.006300
v 0.091770 2.700000 0.001097
v 0.091594 2.700000 0.000115
v 0.091902 2.700000 -0.001236
v 0.091352 2.700000 0.001097
v 0.092739 2.700000 -0.003776
v 0.092248 2.700000 -0.002802
v 0.093411 2.700000 -0.004374
v 0.095813 2.700000 0.001097
v 0.095459 2.700000 -0.004952
v 0.094325 2.700000 -0.004832
v 0.134454 2.700000 0.000480
v 0.135939 2.700000 0.000754
v 0.135939 2.700000 -0.004791
v 0.137682 2.700000 0.000754
v 0.139742 2.700000 0.001420
v 0.134454 2.700000 0.006300
v 0.137682 2.700000 0.006300
v 0.139952 2.700000 0.006300
v 0.132691 2.700000 -0.005810
v 0.107280 2.700000 0.002215
v 0.107280 2.700000 -0.001870
v 0.109726 2.700000 0.002173
v 0.109726 2.700000 -0.001955
v 0.112298 2.700000 0.001585
v 0.114619 2.700000 0.001239
v 0.114619 2.700000 -0.003173
v 0.117065 2.700000 0.000731
v 0.117065 2.700000 -0.004188
v 0.119511 2.700000 0.000244
v 0.119511 2.700000 -0.005163
v 0.121957 2.700000 -0.000081
v 0.121957 2.700000 -0.005813
v 0.124404 2.700000 -0.000264
v 0.124404 2.700000 -0.006178
v 0.126850 2.700000 -0.000325
v 0.126850 2.700000 -0.006300
v 0.129296 2.700000 -0.000325
v 0.129296 2.700000 -0.006300
v 0.108111 2.700000 0.005862
v 0.112298 2.700000 0.005862
v 0.114619 2.700000 0.005862
v 0.117065 2.700000 0.005862
v 0.119511 2.700000 0.005862
v 0.121957 2.700000 0.005862
v 0.124404 2.700000 0.005862
v 0.126850 2.700000 0.005862
v 0.128385 2.700000 0.006300
v 0.129296 2.700000 0.006300
v 0.131742 2.700000 0.006300
v 0.127381 2.700000 -0.006300
v 0.108111 2.700000 -0.001899
v 0.104834 2.700000 -0.001955
v 0.094469 2.700000 0.001097
v 0.097574 2.700000 0.001097
v 0.096373 2.700000 -0.004634
v 0.099189 2.700000 0.001097
v 0.098229 2.700000 -0.003675
v 0.100114 2.700000 0.001693
v 0.100114 2.700000 -0.002914
v 0.101998 2.700000 0.001961
v 0.101998 2.700000 -0.002378
v 0.098540 2.700000 0.006300
v 0.100114 2.700000 0.006300
v 0.101998 2.700000 0.006300
v 0.103883 2.700000 0.006300
v 0.104834 2.700000 0.002173
v 0.104834 2.700000 0.006300
v 0.107280 2.700000 0.006300
v 0.103883 2.700000 -0.002011
v 0.103883 2.700000 0.002144
v 0.131742 2.700000 -0.000168
v 0.131742 2.700000 -0.005987
v 0.132691 2.700000 0.006300
v 0.132691 2.700000 0.000245
v 0.127381 2.700000 -0.000325
v 0.108111 2.700000 0.002201
v 0.127381 2.700000 0.005862
v 0.128385 2.700000 -0.006300
v 0.128385 2.700000 -0.000325
vt 0.156456 0.500000
vt 0.160141 0.500000
vt 0.160141 1.000000
vt 0.156456 1.000000
vt 0.091011 0.500000
vt 0.102830 0.500000
vt 0.102830 1.000000
vt 0.091011 1.000000
vt 0.886480 0.500000
vt 0.894588 0.526945
vt 0.894588 1.000000
vt 0.886480 1.000000
vt 0.869032 0.500000
vt 0.870263 1.000000
vt 0.823377 0.500000
vt 0.847493 0.500000
vt 0.854046 1.000000
vt 0.837828 1.000000
vt 0.182021 0.500000
vt 0.182021 1.000000
vt 0.354966 0.500000
vt 0.397061 0.500000
vt 0.397061 1.000000
vt 0.354966 1.000000
vt 0.439157 0.500000
vt 0.439157 1.000000
vt 0.481253 0.500000
vt 0.481253 1.000000
vt 0.523348 0.500000
vt 0.523348 1.000000
vt 0.563285 0.500000
vt 0.563285 1.000000
vt 0.577326 0.500000
vt 0.607540 0.500000
vt 0.607540 1.000000
vt 0.577326 1.000000
vt 0.635339 0.499998
vt 0.649636 0.500000
vt 0.649636 1.000000
vt 0.635339 0.999870
vt 0.858262 0.500000
vt 0.862154 1.000000
vt 0.805394 0.500000
vt 0.805394 1.000000
vt 0.303736 0.500000
vt 0.312870 0.500000
vt 0.312870 1.000000
vt 0.303736 1.000000
vt 0.772960 0.500000
vt 0.772960 1.000000
vt 0.083426 0.500000
vt 0.083426 1.000000
vt 0.114648 0.500000
vt 0.126467 0.500000
vt 0.126467 1.000000
vt 0.114648 1.000000
vt 0.740525 0.500000
vt 0.740525 1.000000
vt 0.708091 0.500000
vt 0.708091 1.000000
vt 0.691731 0.500000
vt 0.691731 1.000000
vt 0.212358 0.500000
vt 0.212358 1.000000
vt 0.228678 0.500000
vt 0.228678 1.000000
vt 0.270774 0.500000
vt 0.270774 1.000000
vt 0.563285 0.000000
vt 0.577326 0.000000
vt 0.312870 0.000000
vt 0.354966 0.000000
vt 0.228679 0.000000
vt 0.270774 0.000000
vt 0.691731 0.000000
vt 0.708091 0.000000
vt 0.212358 0.000000
vt 0.182021 0.000000
vt 0.102830 0.000000
vt 0.114648 0.000000
vt 0.649635 0.000000
vt 0.740525 0.000000
vt 0.126467 0.000000
vt 0.156456 0.000000
vt 0.772960 0.000000
vt 0.083426 0.000000
vt 0.091011 0.000000
vt 0.805394 0.000000
vt 0.303736 0.000000
vt 0.635339 0.000126
vt 0.607540 0.000000
vt 0.523348 0.000000
vt 0.481253 0.000000
vt 0.439157 0.000000
vt 0.397061 0.000000
vt 0.160141 0.000000
vt 0.918914 0.844121
vt 0.918914 1.000000
vt 0.910806 1.000000
vt 0.910806 0.690343
vt 0.902697 0.588946
vt 0.902697 1.000000
vt 0.927023 1.000000
vt 0.286451 0.000000
vt 0.286451 0.500000
vt 0.286451 1.000000
vt 0.156456 0.500000
vt 0.156456 1.000000
vt 0.160141 1.000000
vt 0.160141 0.500000
vt 0.091011 0.500000
vt 0.091011 1.000000
vt 0.102830 1.000000
vt 0.102830 0.500000
vt 0.886480 0.500000
vt 0.886480 1.000000
vt 0.894588 1.000000
vt 0.894588 0.526945
vt 0.869032 0.500000
vt 0.870263 1.000000
vt 0.823377 0.500000
vt 0.837828 1.000000
vt 0.854046 1.000000
vt 0.847493 0.500000
vt 0.182021 1.000000
vt 0.182021 0.500000
vt 0.354966 0.500000
vt 0.354966 1.000000
vt 0.397061 1.000000
vt 0.397061 0.500000
vt 0.439157 1.000000
vt 0.439157 0.500000
vt 0.481253 1.000000
vt 0.481253 0.500000
vt 0.523348 1.000000
vt 0.523348 0.500000
vt 0.563285 1.000000
vt 0.563285 0.500000
vt 0.577326 0.500000
vt 0.577326 1.000000
vt 0.607540 1.000000
vt 0.607540 0.500000
vt 0.635339 0.499998
vt 0.635339 0.999870
vt 0.649636 1.000000
vt 0.649636 0.500000
vt 0.858262 0.500000
vt 0.862154 1.000000
vt 0.805394 0.500000
vt 0.805394 1.000000
vt 0.303736 0.500000
vt 0.303736 1.000000
vt 0.312870 1.000000
vt 0.312870 0.500000
vt 0.772960 0.500000
vt 0.772960 1.000000
vt 0.083426 0.500000
vt 0.083426 1.000000
vt 0.114648 0.500000
vt 0.114648 1.000000
vt 0.126467 1.000000
vt 0.126467 0.500000
vt 0.740525 0.500000
vt 0.740525 1.000000
vt 0.708091 0.500000
vt 0.708091 1.000000
vt 0.691731 1.000000
vt 0.691731 0.500000
vt 0.212358 1.000000
vt 0.212358 0.500000
vt 0.228678 1.000000
vt 0.228678 0.500000
vt 0.270774 1.000000
vt 0.270774 0.500000
vt 0.563285 0.000000
vt 0.577326 0.000000
vt 0.312870 0.000000
vt 0.354966 0.000000
vt 0.228679 0.000000
vt 0.270774 0.000000
vt 0.691731 0.000000
vt 0.708091 0.000000
vt 0.212358 0.000000
vt 0.182021 0.000000
vt 0.102830 0.000000
vt 0.114648 0.000000
vt 0.649635 0.000000
vt 0.740525 0.000000
vt 0.126467 0.000000
vt 0.156456 0.000000
vt 0.772960 0.000000
vt 0.083426 0.000000
vt 0.091011 0.000000
vt 0.805394 0.000000
vt 0.303736 0.000000
vt 0.635339 0.000126
vt 0.607540 0.000000
vt 0.523348 0.000000
vt 0.481253 0.000000
vt 0.439157 0.000000
vt 0.397061 0.000000
vt 0.160141 0.000000
vt 0.918914 0.844121
vt 0.910806 0.690343
vt 0.910806 1.000000
vt 0.918914 1.000000
vt 0.902697 0.588946
vt 0.902697 1.000000
vt 0.927023 1.000000
vt 0.286451 0.000000
vt 0.286451 0.500000
vt 0.286451 1.000000
vn 0.0000 -1.0000 0.0000
vn 0.0000 1.0000 0.0000
vn 0.0000 1.0000 -0.0001
vn 0.0000 1.0000 0.0001
vn 0.0000 1.0000 0.0003
vn 0.0000 0.0000 1.0000
vn -0.3999 0.0000 0.9166
vn -0.9923 0.0000 -0.1237
vn 0.4666 0.0000 0.8845
vn -0.0497 0.0000 -0.9988
vn 0.0592 0.0000 -0.9982
vn -0.1478 0.0000 -0.9890
vn 0.7962 0.0000 -0.6050
vn -0.2567 0.0000 -0.9665
vn 0.0000 0.0000 -1.0000
vn 0.1909 0.0000 -0.9816
vn -0.3701 0.0000 -0.9290
vn 0.2181 0.0000 -0.9759
vn -0.0554 0.0000 -0.9985
vn -0.3833 0.0000 -0.9236
vn 0.2576 0.0000 -0.9662
vn 0.5426 0.0000 -0.8400
vn -0.2863 0.0000 -0.9581
vn 0.3155 0.0000 -0.9489
vn 0.1271 0.0000 -0.9919
vn -0.1954 0.0000 -0.9807
vn 1.0000 0.0000 0.0000
vn -0.0346 0.0000 -0.9994
vn 0.9612 0.0000 -0.2759
vn 0.0346 0.0000 -0.9994
vn 0.1827 0.0000 -0.9832
vn -0.9750 0.0000 -0.2224
vn -0.9710 0.0000 -0.2391
vn -0.8932 0.0000 -0.4496
vn 0.2735 0.0000 -0.9619
vn 0.3746 0.0000 -0.9272
vn -0.6640 0.0000 -0.7477
vn 0.4590 0.0000 -0.8884
vn 0.3287 0.0000 -0.9445
vn -0.1536 0.0000 -0.9881
vn -0.4487 0.0000 -0.8937
vn -0.9764 0.0000 -0.2161
vn -0.2098 0.0000 -0.9778
vn 0.3667 0.0000 -0.9303
g versal_end1_Plane.016_gora_dol
usemtl gora_dol
s off
f 75/1/1 69/2/1 4/3/1 23/4/1
f 77/5/1 70/6/1 7/7/1 21/8/1
f 72/9/1 67/10/1 14/11/1 15/12/1
f 89/13/1 72/9/1 15/12/1 49/14/1
f 90/15/1 73/16/1 16/17/1 48/18/1
f 69/2/1 74/19/1 24/20/1 4/3/1
f 85/21/1 84/22/1 38/23/1 37/24/1
f 84/22/1 83/25/1 39/26/1 38/23/1
f 83/25/1 82/27/1 40/28/1 39/26/1
f 82/27/1 81/29/1 41/30/1 40/28/1
f 81/29/1 80/31/1 42/32/1 41/30/1
f 63/33/1 79/34/1 43/35/1 1/36/1
f 100/37/1 78/38/1 44/39/1 99/40/1
f 88/41/1 89/13/1 49/14/1 51/42/1
f 91/43/1 90/15/1 48/18/1 47/44/1
f 103/45/1 86/46/1 36/47/1 102/48/1
f 92/49/1 91/43/1 47/44/1 46/50/1
f 71/51/1 77/5/1 21/8/1 10/52/1
f 68/53/1 76/54/1 22/55/1 8/56/1
f 93/57/1 92/49/1 46/50/1 45/58/1
f 76/54/1 75/1/1 23/4/1 22/55/1
f 95/59/1 93/57/1 45/58/1 57/60/1
f 78/38/1 94/61/1 56/62/1 44/39/1
f 70/6/1 68/53/1 8/56/1 7/7/1
f 74/19/1 97/63/1 61/64/1 24/20/1
f 97/63/1 96/65/1 59/66/1 61/64/1
f 94/61/1 95/59/1 57/60/1 56/62/1
f 96/65/1 87/67/1 35/68/1 59/66/1
f 86/46/1 85/21/1 37/24/1 36/47/1
f 80/31/1 63/33/1 1/36/1 42/32/1
f 27/69/1 2/70/1 63/33/1 80/31/1
f 33/71/1 32/72/1 85/21/1 86/46/1
f 60/73/1 34/74/1 87/67/1 96/65/1
f 55/75/1 58/76/1 95/59/1 94/61/1
f 62/77/1 60/73/1 96/65/1 97/63/1
f 17/78/1 62/77/1 97/63/1 74/19/1
f 5/79/1 3/80/1 68/53/1 70/6/1
f 25/81/1 55/75/1 94/61/1 78/38/1
f 58/76/1 54/82/1 93/57/1 95/59/1
f 19/83/1 18/84/1 75/1/1 76/54/1
f 54/82/1 53/85/1 92/49/1 93/57/1
f 3/80/1 19/83/1 76/54/1 68/53/1
f 9/86/1 20/87/1 77/5/1 71/51/1
f 53/85/1 52/88/1 91/43/1 92/49/1
f 101/89/1 33/71/1 86/46/1 103/45/1
f 73/16/1 88/41/1 51/42/1 16/17/1
f 98/90/1 25/81/1 78/38/1 100/37/1
f 2/70/1 26/91/1 79/34/1 63/33/1
f 28/92/1 27/69/1 80/31/1 81/29/1
f 29/93/1 28/92/1 81/29/1 82/27/1
f 30/94/1 29/93/1 82/27/1 83/25/1
f 31/95/1 30/94/1 83/25/1 84/22/1
f 32/72/1 31/95/1 84/22/1 85/21/1
f 6/96/1 17/78/1 74/19/1 69/2/1
f 20/87/1 5/79/1 70/6/1 77/5/1
f 18/84/1 6/96/1 69/2/1 75/1/1
f 65/97/1 12/98/1 11/99/1 66/100/1
f 64/101/1 50/102/1 14/11/1 67/10/1
f 13/103/1 12/98/1 65/97/1
f 66/100/1 11/99/1 50/102/1 64/101/1
f 26/91/1 98/90/1 100/37/1 79/34/1
f 79/34/1 100/37/1 99/40/1 43/35/1
f 104/104/1 101/89/1 103/45/1 106/105/1
f 106/105/1 103/45/1 102/48/1 105/106/1
f 87/67/1 106/105/1 105/106/1 35/68/1
f 34/74/1 104/104/1 106/105/1 87/67/1
f 145/107/2 146/108/2 120/109/2 122/110/2
f 148/111/2 131/112/2 124/113/2 123/114/2
f 109/115/2 140/116/2 138/117/2 110/118/2
f 186/119/2 143/120/2 140/116/2 109/115/2
f 187/121/2 188/122/2 142/123/2 141/124/2
f 122/110/2 120/109/2 121/125/2 144/126/2
f 166/127/2 167/128/2 165/129/2 164/130/2
f 164/130/2 165/129/2 163/131/2 162/132/2
f 162/132/2 163/131/2 161/133/2 160/134/2
f 160/134/2 161/133/2 159/135/2 158/136/2
f 158/136/2 159/135/2 111/137/2 157/138/2
f 107/139/2 112/140/2 156/141/2 155/142/2
f 209/143/2 184/144/2 154/145/2 153/146/2
f 117/147/2 116/148/2 143/120/2 186/119/2
f 189/149/2 190/150/2 188/122/2 187/121/2
f 208/151/2 183/152/2 169/153/2 168/154/2
f 191/155/2 192/156/2 190/150/2 189/149/2
f 129/157/2 130/158/2 131/112/2 148/111/2
f 118/159/2 119/160/2 128/161/2 147/162/2
f 193/163/2 194/164/2 192/156/2 191/155/2
f 147/162/2 128/161/2 146/108/2 145/107/2
f 203/165/2 202/166/2 194/164/2 193/163/2
f 153/146/2 154/145/2 185/167/2 199/168/2
f 123/114/2 124/113/2 119/160/2 118/159/2
f 144/126/2 121/125/2 152/169/2 207/170/2
f 207/170/2 152/169/2 205/171/2 204/172/2
f 199/168/2 185/167/2 202/166/2 203/165/2
f 204/172/2 205/171/2 171/173/2 170/174/2
f 168/154/2 169/153/2 167/128/2 166/127/2
f 157/138/2 111/137/2 112/140/2 107/139/2
f 173/175/2 157/138/2 107/139/2 108/176/2
f 179/177/2 168/154/2 166/127/2 178/178/2
f 182/179/2 204/172/2 170/174/2 181/180/2
f 200/181/2 199/168/2 203/165/2 198/182/2
f 206/183/2 207/170/2 204/172/2 182/179/2
f 149/184/2 144/126/2 207/170/2 206/183/2
f 126/185/2 123/114/2 118/159/2 125/186/2
f 201/187/2 153/146/2 199/168/2 200/181/2
f 198/182/2 203/165/2 193/163/2 197/188/2
f 150/189/2 147/162/2 145/107/2 133/190/2
f 197/188/2 193/163/2 191/155/2 196/191/2
f 125/186/2 118/159/2 147/162/2 150/189/2
f 151/192/2 129/157/2 148/111/2 127/193/2
f 196/191/2 191/155/2 189/149/2 195/194/2
f 210/195/2 208/151/2 168/154/2 179/177/2
f 141/124/2 142/123/2 116/148/2 117/147/2
f 172/196/2 209/143/2 153/146/2 201/187/2
f 108/176/2 107/139/2 155/142/2 115/197/2
f 174/198/2 158/136/2 157/138/2 173/175/2
f 175/199/2 160/134/2 158/136/2 174/198/2
f 176/200/2 162/132/2 160/134/2 175/199/2
f 177/201/2 164/130/2 162/132/2 176/200/2
f 178/178/2 166/127/2 164/130/2 177/201/2
f 132/202/2 122/110/2 144/126/2 149/184/2
f 127/193/2 148/111/2 123/114/2 126/185/2
f 133/190/2 145/107/2 122/110/2 132/202/2
f 134/203/3 114/204/3 136/205/3 135/206/3
f 113/207/4 110/118/4 138/117/4 139/208/4
f 137/209/5 134/203/5 135/206/5
f 114/204/2 113/207/2 139/208/2 136/205/2
f 115/197/2 155/142/2 209/143/2 172/196/2
f 155/142/2 156/141/2 184/144/2 209/143/2
f 180/210/2 212/211/2 208/151/2 210/195/2
f 212/211/2 211/212/2 183/152/2 208/151/2
f 170/174/2 171/173/2 211/212/2 212/211/2
f 181/180/2 170/174/2 212/211/2 180/210/2
g versal_end1_Plane.016_tyl
usemtl tyl
f 20/87/6 9/86/6 151/192/6 127/193/6
f 90/15/6 91/43/6 189/149/6 187/121/6
f 101/89/7 104/104/7 180/210/7 210/195/7
f 89/13/6 88/41/6 117/147/6 186/119/6
f 3/80/6 5/79/6 126/185/6 125/186/6
f 5/79/6 20/87/6 127/193/6 126/185/6
f 58/76/6 55/75/6 200/181/6 198/182/6
f 91/43/8 52/88/8 195/194/8 189/149/8
f 60/73/6 62/77/6 206/183/6 182/179/6
f 6/96/6 18/84/6 133/190/6 132/202/6
f 62/77/6 17/78/6 149/184/6 206/183/6
f 73/16/6 90/15/6 187/121/6 141/124/6
f 72/9/6 89/13/6 186/119/6 109/115/6
f 65/97/6 66/100/6 114/204/6 134/203/6
f 98/90/6 26/91/6 115/197/6 172/196/6
f 64/101/6 67/10/6 110/118/6 113/207/6
f 2/70/6 27/69/6 173/175/6 108/176/6
f 13/103/6 65/97/6 134/203/6 137/209/6
f 27/69/6 28/92/6 174/198/6 173/175/6
f 25/81/9 98/90/9 172/196/9 201/187/9
f 28/92/6 29/93/6 175/199/6 174/198/6
f 29/93/6 30/94/6 176/200/6 175/199/6
f 67/10/6 72/9/6 109/115/6 110/118/6
f 30/94/6 31/95/6 177/201/6 176/200/6
f 88/41/6 73/16/6 141/124/6 117/147/6
f 31/95/6 32/72/6 178/178/6 177/201/6
f 66/100/6 64/101/6 113/207/6 114/204/6
f 52/88/6 53/85/6 196/191/6 195/194/6
f 32/72/6 33/71/6 179/177/6 178/178/6
f 33/71/6 101/89/6 210/195/6 179/177/6
f 26/91/6 2/70/6 108/176/6 115/197/6
f 53/85/6 54/82/6 197/188/6 196/191/6
f 104/104/6 34/74/6 181/180/6 180/210/6
f 17/78/6 6/96/6 132/202/6 149/184/6
f 54/82/6 58/76/6 198/182/6 197/188/6
f 34/74/6 60/73/6 182/179/6 181/180/6
f 18/84/6 19/83/6 150/189/6 133/190/6
f 19/83/6 3/80/6 125/186/6 150/189/6
f 55/75/6 25/81/6 201/187/6 200/181/6
g versal_end1_Plane.016_front
usemtl front
f 36/47/10 37/24/10 167/128/10 169/153/10
f 56/62/11 57/60/11 202/166/11 185/167/11
f 37/24/12 38/23/12 165/129/12 167/128/12
f 21/8/13 7/7/13 124/113/13 131/112/13
f 38/23/14 39/26/14 163/131/14 165/129/14
f 35/68/15 105/106/15 211/212/15 171/173/15
f 22/55/15 23/4/15 146/108/15 128/161/15
f 57/60/16 45/58/16 194/164/16 202/166/16
f 39/26/17 40/28/17 161/133/17 163/131/17
f 23/4/18 4/3/18 120/109/18 146/108/18
f 16/17/19 51/42/19 116/148/19 142/123/19
f 40/28/20 41/30/20 159/135/20 161/133/20
f 24/20/21 61/64/21 152/169/21 121/125/21
f 7/7/22 8/56/22 119/160/22 124/113/22
f 41/30/23 42/32/23 111/137/23 159/135/23
f 8/56/24 22/55/24 128/161/24 119/160/24
f 59/66/25 35/68/25 171/173/25 205/171/25
f 1/36/26 43/35/26 156/141/26 112/140/26
f 71/51/27 10/52/27 130/158/27 129/157/27
f 99/40/28 44/39/28 154/145/28 184/144/28
f 10/52/29 21/8/29 131/112/29 130/158/29
f 44/39/30 56/62/30 185/167/30 154/145/30
f 61/64/31 59/66/31 205/171/31 152/169/31
f 11/99/32 12/98/32 135/206/32 136/205/32
f 12/98/33 13/103/33 137/209/33 135/206/33
f 14/11/34 50/102/34 139/208/34 138/117/34
f 9/86/27 71/51/27 129/157/27 151/192/27
f 45/58/35 46/50/35 192/156/35 194/164/35
f 46/50/36 47/44/36 190/150/36 192/156/36
f 15/12/37 14/11/37 138/117/37 140/116/37
f 47/44/38 48/18/38 188/122/38 190/150/38
f 48/18/39 16/17/39 142/123/39 188/122/39
f 43/35/28 99/40/28 184/144/28 156/141/28
f 51/42/40 49/14/40 143/120/40 116/148/40
f 49/14/41 15/12/41 140/116/41 143/120/41
f 50/102/42 11/99/42 136/205/42 139/208/42
f 42/32/43 1/36/43 112/140/43 111/137/43
f 105/106/15 102/48/15 183/152/15 211/212/15
f 102/48/15 36/47/15 169/153/15 183/152/15
f 4/3/44 24/20/44 121/125/44 120/109/44
