<?xml version="1.0" encoding="utf-8"?>
<COLLADA xmlns="http://www.collada.org/2005/11/COLLADASchema" version="1.4.1" xmlns:xsi="http://www.w3.org/2001/XMLSchema-instance">
  <asset>
    <contributor>
      <author>Blender User</author>
      <authoring_tool>Blender 3.2.0 commit date:2022-06-08, commit time:10:22, hash:e05e1e369187</authoring_tool>
    </contributor>
    <created>2023-03-08T13:24:31</created>
    <modified>2023-03-08T13:24:31</modified>
    <unit name="meter" meter="1"/>
    <up_axis>Z_UP</up_axis>
  </asset>
  <library_effects>
    <effect id="gora_dol-effect">
      <profile_COMMON>
        <technique sid="common">
          <lambert>
            <emission>
              <color sid="emission">0 0 0 1</color>
            </emission>
            <diffuse>
              <color sid="diffuse">0.8 0.8 0.8 1</color>
            </diffuse>
            <index_of_refraction>
              <float sid="ior">1.45</float>
            </index_of_refraction>
          </lambert>
        </technique>
      </profile_COMMON>
    </effect>
    <effect id="tyl-effect">
      <profile_COMMON>
        <technique sid="common">
          <lambert>
            <emission>
              <color sid="emission">0 0 0 1</color>
            </emission>
            <diffuse>
              <color sid="diffuse">0.8 0.8 0.8 1</color>
            </diffuse>
            <index_of_refraction>
              <float sid="ior">1.45</float>
            </index_of_refraction>
          </lambert>
        </technique>
      </profile_COMMON>
    </effect>
    <effect id="front-effect">
      <profile_COMMON>
        <technique sid="common">
          <lambert>
            <emission>
              <color sid="emission">0 0 0 1</color>
            </emission>
            <diffuse>
              <color sid="diffuse">0.8 0.8 0.8 1</color>
            </diffuse>
            <index_of_refraction>
              <float sid="ior">1.45</float>
            </index_of_refraction>
          </lambert>
        </technique>
      </profile_COMMON>
    </effect>
  </library_effects>
  <library_images/>
  <library_materials>
    <material id="gora_dol-material" name="gora_dol">
      <instance_effect url="#gora_dol-effect"/>
    </material>
    <material id="tyl-material" name="tyl">
      <instance_effect url="#tyl-effect"/>
    </material>
    <material id="front-material" name="front">
      <instance_effect url="#front-effect"/>
    </material>
  </library_materials>
  <library_geometries>
    <geometry id="Plane_017-mesh" name="Plane.017">
      <mesh>
        <source id="Plane_017-mesh-positions">
          <float_array id="Plane_017-mesh-positions-array" count="774">0.02263814 -0.004766523 -1.35 0.02263814 -1.2096e-4 -1.35 -0.02345526 -0.004766523 -1.35 -0.02345526 0.007343828 -1.35 -0.02250021 -0.004766523 -1.35 -0.02250021 0.007520079 -1.35 0.005555391 -0.004766523 -1.35 0.005555391 0.003544628 -1.35 0.004598021 0.003488183 -1.35 0.004598021 -0.004116773 -1.35 0.007453501 -0.004766523 -1.35 0.009351551 -0.004766523 -1.35 0.01124966 -0.004766523 -1.35 0.01314777 -0.004766523 -1.35 0.01504582 -0.004766523 -1.35 0.01694393 -0.004766523 -1.35 0.01884198 -0.004766523 -1.35 0.02074009 -0.004766523 -1.35 0.02074009 -1.56603e-4 -1.35 0.01884198 4.92738e-5 -1.35 0.01694393 0.004080414 -1.35 0.01504582 0.006167292 -1.35 0.01314771 0.006167292 -1.35 0.01124966 0.005208492 -1.35 0.009351551 0.004447042 -1.35 0.007453501 0.003911197 -1.35 0.002134501 0.003403604 -1.35 -3.28921e-4 0.003488183 -1.35 -0.002792358 0.00397551 -1.35 -0.005255877 0.004706501 -1.35 -0.007719337 0.005721747 -1.35 -0.01018279 0.006696343 -1.35 -0.01264625 0.007346093 -1.35 -0.01510977 0.007711589 -1.35 -0.01757323 0.007833421 -1.35 -0.01954793 0.007833421 -1.35 -0.01954793 -0.004116773 -1.35 -0.01757323 -0.004116773 -1.35 -0.01510977 -0.004116773 -1.35 -0.01264625 -0.004116773 -1.35 -0.01018279 -0.004116773 -1.35 -0.007719337 -0.004116773 -1.35 -0.005255877 -0.004116773 -1.35 -0.002792358 -0.004116773 -1.35 -3.28921e-4 -0.004116773 -1.35 0.002134501 -0.004116773 -1.35 -0.02523064 0.006873786 -1.35 -0.02672672 0.006324768 -1.35 -0.02848166 0.006324768 -1.35 -0.03055661 0.004993736 -1.35 -0.03055661 -0.004766523 -1.35 -0.02848166 -0.004766523 -1.35 -0.02672672 -0.004766523 -1.35 -0.02523064 -0.004766523 -1.35 0.01409679 -0.004766523 -1.35 0.01409679 0.006343543 -1.35 0.01599484 -0.004766523 -1.35 0.01599484 0.005633056 -1.35 0.01646941 -0.004766523 -1.35 0.01646935 0.005111336 -1.35 0.01741844 -0.004766523 -1.35 0.01789295 -0.004766523 -1.35 0.01836746 -0.004766523 -1.35 0.01836746 4.20587e-4 -1.35 0.01789295 0.00141859 -1.35 0.01741844 0.002788662 -1.35 -0.03100049 0.003977656 -1.35 -0.03100049 -0.004766523 -1.35 -0.02917331 0.006096422 -1.35 -0.02986496 0.005652725 -1.35 -0.02986496 -0.004766523 -1.35 -0.02917331 -0.004766523 -1.35 -0.02651107 0.00637263 -1.35 -0.02651107 -0.004766523 -1.35 0.03299945 -4.59123e-4 -1.35 0.03299945 -1.85927e-6 -1.35 0.02474325 -0.004766523 -1.35 0.02684837 -0.004766523 -1.35 0.02895349 -0.004766523 -1.35 0.0310586 -0.004766523 -1.35 0.0310586 -1.85927e-6 -1.35 0.02895349 1.55563e-5 -1.35 0.02684837 1.55563e-5 -1.35 0.02474325 -2.63317e-5 -1.35 0.03147959 -0.004766523 -1.35 0.03190064 -0.004577636 -1.35 0.03232163 -0.003954291 -1.35 0.03274267 -0.002140939 -1.35 0.03274267 -1.85927e-6 -1.35 0.03232163 -1.85927e-6 -1.35 0.03190064 -1.85927e-6 -1.35 0.03147959 -1.85927e-6 -1.35 -0.02345526 0.001288592 -1.35 -0.02250021 0.001701593 -1.35 0.005555391 -6.1096e-4 -1.35 0.004598021 -3.14285e-4 -1.35 0.007453501 -4.27653e-4 -1.35 0.009351551 -1.59743e-4 -1.35 0.01124966 2.2097e-4 -1.35 0.01314777 7.00388e-4 -1.35 0.01504582 7.00388e-4 -1.35 -0.01954793 0.001858294 -1.35 -0.01757323 0.001858294 -1.35 -0.01510977 0.001797378 -1.35 -0.01264625 0.00161463 -1.35 -0.01018279 0.001289784 -1.35 -0.007719337 8.02475e-4 -1.35 -0.005255877 2.94857e-4 -1.35 -0.002792358 -7.06279e-5 -1.35 -3.28921e-4 -3.14285e-4 -1.35 0.002134501 -3.56587e-4 -1.35 -0.03055661 1.13603e-4 -1.35 -0.02848166 7.7913e-4 -1.35 -0.02672672 7.7913e-4 -1.35 -0.02523064 0.001053631 -1.35 0.01409679 7.88516e-4 -1.35 0.01599484 4.33262e-4 -1.35 0.01646941 1.72402e-4 -1.35 -0.03100049 -3.94449e-4 -1.35 -0.02986496 4.43112e-4 -1.35 -0.02917331 6.64955e-4 -1.35 -0.02651107 8.03054e-4 -1.35 0.01741844 4.4564e-5 -1.35 0.01694393 5.2434e-5 -1.35 0.01836746 1.47062e-4 -1.35 0.01789295 9.96555e-5 -1.35 -0.02048546 0.001808524 -1.35 -0.02048546 -0.004766523 -1.35 -0.02048546 0.007733881 -1.35 0.02074009 -0.004766523 1.35 0.02263814 -0.004766523 1.35 -0.02523064 -0.004766523 1.35 -0.02345526 -0.004766523 1.35 -0.02250021 0.007520079 1.35 -0.02345526 0.007343828 1.35 -0.02345526 0.001288592 1.35 -0.02250021 -0.004766523 1.35 -0.02048546 0.007733881 1.35 -0.02250021 0.001701593 1.35 0.004598021 -0.004116773 1.35 0.005555391 -0.004766523 1.35 0.007453501 0.003911197 1.35 0.005555391 0.003544628 1.35 0.005555391 -6.1096e-4 1.35 0.004598021 0.003488183 1.35 0.002134501 -0.004116773 1.35 0.004598021 -3.14285e-4 1.35 0.007453501 -0.004766523 1.35 0.009351551 -0.004766523 1.35 0.01124966 -0.004766523 1.35 0.01314777 -0.004766523 1.35 0.01409679 -0.004766523 1.35 0.01504582 -0.004766523 1.35 0.01646941 -0.004766523 1.35 0.01694393 -0.004766523 1.35 0.01836746 -0.004766523 1.35 0.01884198 -0.004766523 1.35 0.02263814 -1.2096e-4 1.35 0.02074009 -1.56603e-4 1.35 0.01884198 4.92738e-5 1.35 0.01741844 0.002788662 1.35 0.01694393 0.004080414 1.35 0.01599484 0.005633056 1.35 0.01504582 0.006167292 1.35 0.01409679 0.006343543 1.35 0.01314771 0.006167292 1.35 0.01124966 0.005208492 1.35 0.009351551 0.004447042 1.35 0.007453501 -4.27653e-4 1.35 0.009351551 -1.59743e-4 1.35 0.01124966 2.2097e-4 1.35 0.01314777 7.00388e-4 1.35 0.01504582 7.00388e-4 1.35 0.002134501 0.003403604 1.35 -3.28921e-4 0.003488183 1.35 -0.002792358 0.00397551 1.35 -0.005255877 0.004706501 1.35 -0.007719337 0.005721747 1.35 -0.01018279 0.006696343 1.35 -0.01264625 0.007346093 1.35 -0.01510977 0.007711589 1.35 -0.01757323 0.007833421 1.35 -0.01954793 0.007833421 1.35 -0.02048546 -0.004766523 1.35 -0.01954793 -0.004116773 1.35 -0.01757323 -0.004116773 1.35 -0.01510977 -0.004116773 1.35 -0.01264625 -0.004116773 1.35 -0.01018279 -0.004116773 1.35 -0.007719337 -0.004116773 1.35 -0.005255877 -0.004116773 1.35 -0.002792358 -0.004116773 1.35 -3.28921e-4 -0.004116773 1.35 -0.01954793 0.001858294 1.35 -0.01757323 0.001858294 1.35 -0.01510977 0.001797378 1.35 -0.01264625 0.00161463 1.35 -0.01018279 0.001289784 1.35 -0.007719337 8.02475e-4 1.35 -0.005255877 2.94857e-4 1.35 -0.002792358 -7.06279e-5 1.35 -3.28921e-4 -3.14285e-4 1.35 0.002134501 -3.56587e-4 1.35 -0.02523064 0.006873786 1.35 -0.02651107 0.00637263 1.35 -0.02672672 0.006324768 1.35 -0.02848166 0.006324768 1.35 -0.02986496 0.005652725 1.35 -0.03055661 0.004993736 1.35 -0.03100049 -0.004766523 1.35 -0.03055661 -0.004766523 1.35 -0.02917331 -0.004766523 1.35 -0.02848166 -0.004766523 1.35 -0.02672672 -0.004766523 1.35 -0.02651107 -0.004766523 1.35 -0.03055661 1.13603e-4 1.35 -0.02848166 7.7913e-4 1.35 -0.02672672 7.7913e-4 1.35 -0.02523064 0.001053631 1.35 0.01409679 7.88516e-4 1.35 0.01599484 -0.004766523 1.35 0.01646935 0.005111336 1.35 0.01599484 4.33262e-4 1.35 0.01646941 1.72402e-4 1.35 0.01741844 -0.004766523 1.35 0.01789295 -0.004766523 1.35 0.01836746 4.20587e-4 1.35 0.01789295 0.00141859 1.35 -0.03100049 0.003977656 1.35 -0.03100049 -3.94449e-4 1.35 -0.02917331 0.006096422 1.35 -0.02986496 -0.004766523 1.35 -0.02986496 4.43112e-4 1.35 -0.02917331 6.64955e-4 1.35 -0.02651107 8.03054e-4 1.35 0.01741844 4.4564e-5 1.35 0.03274267 -0.002140939 1.35 0.03299945 -4.59123e-4 1.35 0.02474325 -2.63317e-5 1.35 0.02474325 -0.004766523 1.35 0.02684837 -0.004766523 1.35 0.02895349 -0.004766523 1.35 0.0310586 -0.004766523 1.35 0.03147959 -1.85927e-6 1.35 0.0310586 -1.85927e-6 1.35 0.02895349 1.55563e-5 1.35 0.02684837 1.55563e-5 1.35 0.03147959 -0.004766523 1.35 0.03190064 -0.004577636 1.35 0.03232163 -0.003954291 1.35 0.03299945 -1.85927e-6 1.35 0.03274267 -1.85927e-6 1.35 0.03232163 -1.85927e-6 1.35 0.03190064 -1.85927e-6 1.35 0.01694393 5.2434e-5 1.35 0.01836746 1.47062e-4 1.35 0.01789295 9.96555e-5 1.35 -0.02048546 0.001808524 1.35</float_array>
          <technique_common>
            <accessor source="#Plane_017-mesh-positions-array" count="258" stride="3">
              <param name="X" type="float"/>
              <param name="Y" type="float"/>
              <param name="Z" type="float"/>
            </accessor>
          </technique_common>
        </source>
        <source id="Plane_017-mesh-normals">
          <float_array id="Plane_017-mesh-normals-array" count="678">-3.62575e-4 0 -1 -1.68998e-5 0 -1 4.02594e-5 0 -1 2.34089e-4 0 -1 6.5979e-5 0 -1 -8.11755e-5 0 -1 -7.06783e-6 0 -1 -1.46448e-4 0 -1 -6.14861e-5 0 -1 0 0 -1 -7.07256e-5 0 -1 1.27845e-4 0 -1 -6.59608e-5 0 -1 -8.56942e-5 0 -1 -1.0054e-4 0 -1 1.317e-4 0 -1 -9.79432e-5 0 -1 2.52426e-5 0 -1 -1.20714e-4 0 -1 1.45387e-4 0 -1 -1.88629e-4 0 -1 2.79837e-4 0 -1 3.77204e-4 0 -1 -8.47687e-4 0 -0.9999997 2.23445e-5 0 -1 -4.87252e-4 0 -0.9999999 1.88849e-5 0 -1 0 0 1 1.99863e-5 0 1 1.00539e-4 0 1 -1.06508e-4 0 1 7.17656e-5 0 1 -7.15916e-6 0 1 -1.49783e-4 0 1 -2.96583e-5 0 1 -7.99034e-6 0 1 8.2451e-6 0 1 5.24429e-5 0 1 5.76386e-5 0 1 -2.14235e-5 0 1 3.50378e-5 0 1 -9.32078e-6 0 1 -1.12188e-4 0 1 -6.36785e-6 0 1 2.58465e-4 0 1 9.25143e-5 0 1 3.03562e-5 0 1 -1.9869e-4 0 1 -2.59496e-4 0 1 -2.24377e-5 0 1 6.13618e-5 0 1 -2.91982e-5 0 1 -1.07117e-5 0 1 -6.11835e-5 0 1 -2.06128e-5 0 1 1.2385e-4 0 1 -7.90888e-5 0 1 8.28077e-6 0 1 3.19781e-5 0 1 -1.78804e-4 0 1 4.34639e-4 0 1 -0.3644737 0.9312137 0 0 -1 0 -0.0187751 0.9998238 0 0.107833 0.9941691 0 0.9386732 0.3448082 0 0.4905486 0.871414 0 0.9885427 -0.1509423 0 0.1825981 0.9831877 0 -0.1825991 0.9831875 0 -0.04490625 0.9989913 0 -0.4508919 0.8925786 0 -1 0 0 -0.372316 0.928106 0 0.7397819 0.6728468 0 -0.271678 0.9623882 0 -0.18148 0.9833946 0 0 1 0 0.9083863 0.418132 0 1 0 0 -0.1055442 0.9944147 0 0.008272767 0.9999658 0 -0.5615597 -0.8274363 0 -0.01989442 0.9998021 0 -0.03432238 0.9994109 0 -0.1896443 0.9818529 0 0.03432261 0.9994109 0 0.4093311 -0.9123859 0 0.6162444 0.787555 0 0.1940546 0.9809908 0 -0.05881088 0.9982692 0 0.828687 -0.5597125 0 0.9031164 0.429396 0 0.2844648 0.9586866 0 0.9740902 -0.2261602 0 0.9449302 0.3272719 0 -0.2559309 0.9666951 0 0.3810284 0.9245634 0 -0.9163911 0.4002844 0 -0.2166336 0.9762531 0 0.367884 0.9298717 0 -0.105544 0.9944147 0 0.2550323 0.9669326 0 -0.3135066 0.9495861 0 -0.6898219 0.7239791 0 0.1467555 0.9891728 0 -0.539938 0.8417049 0 0.04939341 0.9987794 0 0.5696154 -0.8219113 0 7.99452e-6 0 -1 9.83784e-5 0 -1 -7.17656e-5 0 -1 -3.97731e-6 0 -1 -1.12337e-4 0 -1 -2.17494e-5 0 -1 1.59807e-5 0 -1 -1.64902e-5 0 -1 -1.7481e-5 0 -1 5.76386e-5 0 -1 4.2847e-5 0 -1 -1.16793e-5 0 -1 -1.55346e-6 0 -1 4.29973e-4 0 -1 1.88727e-4 0 -1 1.27357e-5 0 -1 -2.58465e-4 0 -1 1.21815e-4 0 -1 2.98034e-4 0 -1 -2.47909e-4 0 -1 -1.41543e-4 0 -1 2.24377e-5 0 -1 1.76655e-4 0 -1 -2.49937e-4 0 -1 -2.42802e-4 0 -1 4.29974e-4 0 -1 6.52454e-5 0 -1 -5.83964e-6 0 -1 -6.42704e-5 0 -1 3.84257e-5 0 -1 -2.62215e-5 0 -1 4.12255e-6 0 -1 7.19131e-5 0 -1 -7.51344e-5 0 -1 -1.51814e-4 0 -1 -9.9421e-5 0 -1 9.59343e-5 0 -1 1.78804e-4 0 -1 4.84312e-4 0 -1 -1.81287e-4 0 1 -7.58051e-5 0 1 1.51879e-4 0 1 9.32072e-6 0 1 8.48139e-5 0 1 -2.66272e-5 0 1 9.83784e-5 0 1 4.15625e-5 0 1 1.27845e-4 0 1 -6.59608e-5 0 1 -6.99243e-5 0 1 -9.94213e-5 0 1 -1.0054e-4 0 1 3.2248e-4 0 1 3.03506e-5 0 1 -7.81049e-5 0 1 -7.17661e-5 0 1 3.97384e-4 0 1 -8.11361e-5 0 1 -6.93214e-5 0 1 -5.49239e-4 0 0.9999999 -1.54941e-4 0 1 4.11989e-4 0 1 -2.80552e-5 0 1 -2.0311e-4 0 1 -8.47687e-4 0 0.9999997 -1.31821e-5 0 1 -2.92551e-5 0 1 3.57611e-4 0 1 2.05995e-4 0 1 -7.74715e-5 0 1 -4.84623e-5 0 1 -8.28071e-6 0 1 -1.24968e-4 0 1 -1.06226e-4 0 1 6.44961e-4 0 0.9999999 7.79297e-5 0 1 1.12188e-5 0 1 8.60806e-5 0 1 -6.65679e-5 0 1 9.89496e-5 0 1 -6.13614e-5 0 1 1.88444e-4 0 1 3.79024e-5 0 1 3.72016e-4 0 1 -0.0187751 0.9998238 0 0.107833 0.9941691 0 0.9386726 0.34481 0 0.4905496 0.8714132 0 -0.04490637 0.9989912 0 -0.4508914 0.8925789 0 -0.3723158 0.9281061 0 0.7397838 0.6728446 0 -0.1814795 0.9833948 0 0.9083863 0.418132 0 -0.1055443 0.9944147 0 -0.01989448 0.9998021 0 -0.03432238 0.9994109 0 -0.1896443 0.981853 0 0.03432255 0.9994108 0 0.4093356 -0.9123839 0 0.6162443 0.7875552 0 0.1940546 0.9809907 0 -0.05881088 0.9982692 0 0.8286834 -0.5597175 0 0.9031153 0.429398 0 0.2844649 0.9586865 0 0.9740895 -0.226163 0 -0.2559302 0.9666953 0 0.3810282 0.9245634 0 -0.2166335 0.9762531 0 0.3678839 0.9298717 0 -0.1055443 0.9944146 0 0.2550323 0.9669326 0 -0.3135088 0.9495853 0 0.1467553 0.9891728 0 -0.5399349 0.8417068 0 0.5696144 -0.8219122 0</float_array>
          <technique_common>
            <accessor source="#Plane_017-mesh-normals-array" count="226" stride="3">
              <param name="X" type="float"/>
              <param name="Y" type="float"/>
              <param name="Z" type="float"/>
            </accessor>
          </technique_common>
        </source>
        <source id="Plane_017-mesh-map-0">
          <float_array id="Plane_017-mesh-map-0-array" count="3072">1 1 1 0 1 0 0.1820211 1 0.2123579 0.5 0.1820211 0.5 0.2123579 1 0.2286785 0.5 0.2123579 0.5 0.6917312 0.5 0.708091 1 0.708091 0.5 0.6496356 1 0.6917312 0.5 0.6496356 0.5 0.708091 1 0.7405254 0.5 0.708091 0.5 0.7405254 1 0.7729597 0.5 0.7405254 0.5 0.7729597 1 0.8053941 0.5 0.7729597 0.5 0.805394 1 0.8378284 0.5 0.8053941 0.5 0.8540455 0.5 0.8702627 1 0.8702628 0.5 0.9026971 0 0.9108056 0.6367918 0.9108057 0 1 1 1 0 1 1 0.9270228 0 0.9351313 1 0.9351313 0 0.2631058 0.9989185 0.2791265 0.4987196 0.2631059 0.4991112 0.2791265 0.9979387 0.3128699 0.5 0.2791265 0.4987196 0.3128699 0.5 0.3549656 1 0.3549656 0.5 0.3549656 0.5 0.3970613 1 0.3970613 0.5 0.3970613 0.5 0.439157 1 0.439157 0.5 0.439157 0.5 0.4812527 1 0.4812527 0.5 0.4812527 0.5 0.5233485 1 0.5233485 0.5 0.5233485 0.5 0.5654442 1 0.5654441 0.5 0.5654441 0.5 0.6075398 1 0.6075398 0.5 0.6075398 0.5 0.6496356 1 0.6496356 0.5 0.08342629 1 0.09101051 0.5 0.08342629 0.5 0.1146485 1 0.1264674 0.5 0.1146485 0.5 0.1264674 1 0.1564563 0.5 0.1264674 0.5 0.1601408 1 0.1820211 0.5 0.1601408 0.5 0.8378283 1 0.8540455 0.5 0.8378284 0.5 0.8702628 0.5 0.8864799 1 0.8864799 0.5 0.8864799 0.5 0.8945885 1 0.8945885 0.5 0.9189141 0.7867576 0.9270228 0 0.9189142 0 0.9351313 0 0.9675657 1 0.9675657 0 0.9108056 0.6367918 0.9189142 0 0.9108057 0 0.09101051 1 0.1028295 0.5 0.09101051 0.5 0.1028295 1 0.1146485 0.5 0.1028295 0.5 0.1564563 1 0.1601408 0.5 0.1564563 0.5 0.9675657 1 1 0 0.9675657 0 1 1 1 0 1 0 1 1 1 0 1 0 1 1 1 0 1 1 1 1 1 0 1 1 1 1 1 0 1 0 1 1 1 0 1 0 1 1 1 0 1 0 0.2286785 0.5 0.2631059 -6.84255e-4 0.2286785 0 0.2286785 1 0.2631059 0.4991112 0.2286785 0.5 0.9270228 0.9476639 0.9270228 1 0.9351313 1 0.902697 0.5447026 0.9108056 1 0.9108056 0.6367918 0.8945885 0.5 0.902697 1 0.902697 0.5447026 0.9189141 0.7867576 0.9270228 1 0.9270228 0.9476639 0.1564563 0.5 0.1601409 0 0.1564563 0 0.1028295 0.5 0.1146485 0 0.1028295 0 0.09101051 0.5 0.1028295 0 0.09101051 0 0.8864799 0 0.8945885 0.5 0.8945885 0 0.8702628 0 0.8864799 0.5 0.8864799 0 0.8378284 0.5 0.8540456 0 0.8378284 0 0.1601408 0.5 0.1820211 0 0.1601409 0 0.1264674 0.5 0.1564563 0 0.1264674 0 0.1146485 0.5 0.1264674 0 0.1146485 0 0.08342629 0.5 0.09101051 0 0.08342629 0 0.6075398 0 0.6496356 0.5 0.6496355 0 0.5654441 0 0.6075398 0.5 0.6075398 0 0.5233485 0 0.5654441 0.5 0.5654441 0 0.4812527 0 0.5233485 0.5 0.5233485 0 0.439157 0 0.4812527 0.5 0.4812527 0 0.3970613 0 0.439157 0.5 0.439157 0 0.3549656 0 0.3970613 0.5 0.3970613 0 0.3128699 0 0.3549656 0.5 0.3549656 0 0.2791265 0.4987196 0.3128699 0 0.2791265 -4.8423e-4 0.2631059 0.4991112 0.2791265 -4.8423e-4 0.2631059 -6.84255e-4 0.8540456 0 0.8702628 0.5 0.8702628 0 0.8053941 0.5 0.8378284 0 0.8053941 0 0.7729597 0.5 0.8053941 0 0.7729597 0 0.7405254 0.5 0.7729597 0 0.7405254 0 0.708091 0.5 0.7405254 0 0.708091 0 0.6496356 0.5 0.6917312 0 0.6496355 0 0.6917312 0 0.708091 0.5 0.708091 0 0.2123579 0.5 0.2286785 0 0.2123579 0 0.1820211 0.5 0.2123579 0 0.1820211 0 0.9108056 0.6367918 0.9189141 1 0.9189141 0.7867576 0.8945885 0 0.902697 0.5447026 0.9026971 0 1 1 1 0 1 1 0.2123579 0.5 0.1820211 1 0.1820211 0.5 0.2286785 0.5 0.2123579 1 0.2123579 0.5 0.6917312 0.5 0.708091 1 0.6917313 1 0.6917312 0.5 0.6496356 1 0.6496356 0.5 0.7405254 0.5 0.708091 1 0.708091 0.5 0.7729597 0.5 0.7405254 1 0.7405254 0.5 0.8053941 0.5 0.7729597 1 0.7729597 0.5 0.8378284 0.5 0.805394 1 0.8053941 0.5 0.8540455 0.5 0.8702627 1 0.8540455 1 0.9026971 0 0.9108056 0.6367918 0.902697 0.5447026 1 0 1 1 1 1 0.9270228 0 0.9351313 1 0.9270228 0.9476639 0.2791265 0.4987196 0.2631058 0.9989185 0.2631059 0.4991112 0.3128699 0.5 0.2791265 0.9979387 0.2791265 0.4987196 0.3128699 0.5 0.3549656 1 0.3128699 1 0.3549656 0.5 0.3970613 1 0.3549656 1 0.3970613 0.5 0.439157 1 0.3970613 1 0.439157 0.5 0.4812527 1 0.439157 1 0.4812527 0.5 0.5233485 1 0.4812527 1 0.5233485 0.5 0.5654442 1 0.5233485 1 0.5654441 0.5 0.6075398 1 0.5654442 1 0.6075398 0.5 0.6496356 1 0.6075398 1 0.09101051 0.5 0.08342629 1 0.08342629 0.5 0.1264674 0.5 0.1146485 1 0.1146485 0.5 0.1564563 0.5 0.1264674 1 0.1264674 0.5 0.1820211 0.5 0.1601408 1 0.1601408 0.5 0.8540455 0.5 0.8378283 1 0.8378284 0.5 0.8702628 0.5 0.8864799 1 0.8702627 1 0.8864799 0.5 0.8945885 1 0.8864799 1 0.9270228 0 0.9189141 0.7867576 0.9189142 0 0.9351313 0 0.9675657 1 0.9351313 1 0.9189142 0 0.9108056 0.6367918 0.9108057 0 0.1028295 0.5 0.09101051 1 0.09101051 0.5 0.1146485 0.5 0.1028295 1 0.1028295 0.5 0.1601408 0.5 0.1564563 1 0.1564563 0.5 1 0 0.9675657 1 0.9675657 0 1 1 1 0 1 1 1 1 1 0 1 1 1 0 1 1 1 1 1 0 1 1 1 1 1 1 1 0 1 1 1 1 1 0 1 1 1 1 1 0 1 1 0.2631059 -6.84255e-4 0.2286785 0.5 0.2286785 0 0.2631059 0.4991112 0.2286785 1 0.2286785 0.5 0.9270228 0.9476639 0.9351313 1 0.9270228 1 0.902697 0.5447026 0.9108056 1 0.902697 1 0.8945885 0.5 0.902697 1 0.8945885 1 0.9189141 0.7867576 0.9270228 1 0.9189141 1 0.1601409 0 0.1564563 0.5 0.1564563 0 0.1146485 0 0.1028295 0.5 0.1028295 0 0.1028295 0 0.09101051 0.5 0.09101051 0 0.8864799 0 0.8945885 0.5 0.8864799 0.5 0.8702628 0 0.8864799 0.5 0.8702628 0.5 0.8540456 0 0.8378284 0.5 0.8378284 0 0.1820211 0 0.1601408 0.5 0.1601409 0 0.1564563 0 0.1264674 0.5 0.1264674 0 0.1264674 0 0.1146485 0.5 0.1146485 0 0.09101051 0 0.08342629 0.5 0.08342629 0 0.6075398 0 0.6496356 0.5 0.6075398 0.5 0.5654441 0 0.6075398 0.5 0.5654441 0.5 0.5233485 0 0.5654441 0.5 0.5233485 0.5 0.4812527 0 0.5233485 0.5 0.4812527 0.5 0.439157 0 0.4812527 0.5 0.439157 0.5 0.3970613 0 0.439157 0.5 0.3970613 0.5 0.3549656 0 0.3970613 0.5 0.3549656 0.5 0.3128699 0 0.3549656 0.5 0.3128699 0.5 0.3128699 0 0.2791265 0.4987196 0.2791265 -4.8423e-4 0.2791265 -4.8423e-4 0.2631059 0.4991112 0.2631059 -6.84255e-4 0.8540456 0 0.8702628 0.5 0.8540455 0.5 0.8378284 0 0.8053941 0.5 0.8053941 0 0.8053941 0 0.7729597 0.5 0.7729597 0 0.7729597 0 0.7405254 0.5 0.7405254 0 0.7405254 0 0.708091 0.5 0.708091 0 0.6917312 0 0.6496356 0.5 0.6496355 0 0.6917312 0 0.708091 0.5 0.6917312 0.5 0.2286785 0 0.2123579 0.5 0.2123579 0 0.2123579 0 0.1820211 0.5 0.1820211 0 0.9108056 0.6367918 0.9189141 1 0.9108056 1 0.8945885 0 0.902697 0.5447026 0.8945885 0.5 0.1601408 1 0.1820211 1 0.1820211 1 0.3970613 0 0.3549656 0 0.3549656 0 0.9675657 1 1 1 1 1 0.1601409 0 0.1564563 0 0.1564563 0 0.439157 0 0.3970613 0 0.3970613 0 0.9351313 1 0.9675657 1 0.9675657 1 0.4812527 0 0.439157 0 0.439157 0 0.902697 1 0.9108056 1 0.9108056 1 0.8540456 0 0.8378284 0 0.8378284 0 0.5233485 0 0.4812527 0 0.4812527 0 0.8702627 1 0.8864799 1 0.8864799 1 1 0 1 0 1 0 0.8540455 1 0.8702627 1 0.8702627 1 0.5654441 0 0.5233485 0 0.5233485 0 0.8378283 1 0.8540455 1 0.8540455 1 1 1 1 1 1 1 0.6075398 0 0.5654441 0 0.5654441 0 0.805394 1 0.8378283 1 0.8378283 1 1 0 0.9675657 0 0.9675657 0 1 0 1 0 1 0 0.8864799 0 0.8702628 0 0.8702628 0 0.6496355 0 0.6075398 0 0.6075398 0 0.08342629 0 0.08342629 0.5 0.08342629 0.5 0.7729597 1 0.805394 1 0.805394 1 0.2123579 0 0.1820211 0 0.1820211 0 1 0 1 0 1 0 0.8864799 1 0.8945885 1 0.8945885 1 0.7405254 1 0.7729597 1 0.7729597 1 0.2123579 1 0.2286785 1 0.2286785 1 1 0 1 0 1 0 1 0 1 0 1 0 0.8945885 0 0.8864799 0 0.8864799 0 0.2286785 0 0.2123579 0 0.2123579 0 1 1 1 1 1 1 0.8945885 1 0.902697 1 0.902697 1 1 1 1 0 1 0 0.2286785 1 0.2631058 0.9989185 0.2631058 0.9989185 1 1 1 1 1 1 1 1 1 1 1 1 0.9108057 0 0.9026971 0 0.9026971 0 0.708091 0 0.6917312 0 0.6917312 0 1 1 1 1 1 1 0.9189142 0 0.9108057 0 0.9108057 0 0.6496356 1 0.6917313 1 0.6917313 1 0.708091 1 0.7405254 1 0.7405254 1 1 0 1 0 1 0 0.9270228 0 0.9189142 0 0.9189142 0 0.6075398 1 0.6496356 1 0.6496356 1 1 0 1 0 1 0 0.9270228 1 0.9351313 1 0.9351313 1 0.5654442 1 0.6075398 1 0.6075398 1 0.6917313 1 0.708091 1 0.708091 1 1 0 1 0 1 0 0.9189141 1 0.9270228 1 0.9270228 1 0.5233485 1 0.5654442 1 0.5654442 1 0.6917312 0 0.6496355 0 0.6496355 0 1 0 1 0 1 0 0.9108056 1 0.9189141 1 0.9189141 1 0.1820211 1 0.2123579 1 0.2123579 1 0.4812527 1 0.5233485 1 0.5233485 1 1 1 1 1 1 1 0.08342629 1 0.09101051 1 0.09101051 1 0.1564563 1 0.1601408 1 0.1601408 1 0.439157 1 0.4812527 1 0.4812527 1 0.7405254 0 0.708091 0 0.708091 0 1 1 1 1 1 1 0.08342629 0.5 0.08342629 1 0.08342629 1 0.1264674 1 0.1564563 1 0.1564563 1 0.2631058 0.9989185 0.2791265 0.9979387 0.2791265 0.9979387 0.3970613 1 0.439157 1 0.439157 1 0.7729597 0 0.7405254 0 0.7405254 0 1 1 1 1 1 1 0.1146485 1 0.1264674 1 0.1264674 1 0.09101051 1 0.1028295 1 0.1028295 1 0.2631059 -6.84255e-4 0.2286785 0 0.2286785 0 0.3549656 1 0.3970613 1 0.3970613 1 0.8053941 0 0.7729597 0 0.7729597 0 1 1 1 1 1 1 0.1028295 1 0.1146485 1 0.1146485 1 0.09101051 0 0.08342629 0 0.08342629 0 0.3128699 1 0.3549656 1 0.3549656 1 0.8378284 0 0.8053941 0 0.8053941 0 0.1028295 0 0.09101051 0 0.09101051 0 0.1264674 0 0.1146485 0 0.1146485 0 0.2791265 0.9979387 0.3128699 1 0.3128699 1 0.8702628 0 0.8540456 0 0.8540456 0 0.1146485 0 0.1028295 0 0.1028295 0 0.1564563 0 0.1264674 0 0.1264674 0 0.2791265 -4.8423e-4 0.2631059 -6.84255e-4 0.2631059 -6.84255e-4 0.9026971 0 0.8945885 0 0.8945885 0 0.1820211 0 0.1601409 0 0.1601409 0 0.3128699 0 0.2791265 -4.8423e-4 0.2791265 -4.8423e-4 0.9351313 0 0.9270228 0 0.9270228 0 0.3549656 0 0.3128699 0 0.3128699 0 0.9675657 0 0.9351313 0 0.9351313 0 1 1 1 1 1 0 0.1820211 1 0.2123579 1 0.2123579 0.5 0.2123579 1 0.2286785 1 0.2286785 0.5 0.6917312 0.5 0.6917313 1 0.708091 1 0.6496356 1 0.6917313 1 0.6917312 0.5 0.708091 1 0.7405254 1 0.7405254 0.5 0.7405254 1 0.7729597 1 0.7729597 0.5 0.7729597 1 0.805394 1 0.8053941 0.5 0.805394 1 0.8378283 1 0.8378284 0.5 0.8540455 0.5 0.8540455 1 0.8702627 1 0.9026971 0 0.902697 0.5447026 0.9108056 0.6367918 1 1 1 0 1 0 0.9270228 0 0.9270228 0.9476639 0.9351313 1 0.2631058 0.9989185 0.2791265 0.9979387 0.2791265 0.4987196 0.2791265 0.9979387 0.3128699 1 0.3128699 0.5 0.3128699 0.5 0.3128699 1 0.3549656 1 0.3549656 0.5 0.3549656 1 0.3970613 1 0.3970613 0.5 0.3970613 1 0.439157 1 0.439157 0.5 0.439157 1 0.4812527 1 0.4812527 0.5 0.4812527 1 0.5233485 1 0.5233485 0.5 0.5233485 1 0.5654442 1 0.5654441 0.5 0.5654442 1 0.6075398 1 0.6075398 0.5 0.6075398 1 0.6496356 1 0.08342629 1 0.09101051 1 0.09101051 0.5 0.1146485 1 0.1264674 1 0.1264674 0.5 0.1264674 1 0.1564563 1 0.1564563 0.5 0.1601408 1 0.1820211 1 0.1820211 0.5 0.8378283 1 0.8540455 1 0.8540455 0.5 0.8702628 0.5 0.8702627 1 0.8864799 1 0.8864799 0.5 0.8864799 1 0.8945885 1 0.9189141 0.7867576 0.9270228 0.9476639 0.9270228 0 0.9351313 0 0.9351313 1 0.9675657 1 0.9108056 0.6367918 0.9189141 0.7867576 0.9189142 0 0.09101051 1 0.1028295 1 0.1028295 0.5 0.1028295 1 0.1146485 1 0.1146485 0.5 0.1564563 1 0.1601408 1 0.1601408 0.5 0.9675657 1 1 1 1 0 1 1 1 1 1 0 1 1 1 1 1 0 1 1 1 0 1 0 1 1 1 0 1 0 1 1 1 1 1 0 1 1 1 1 1 0 1 1 1 1 1 0 0.2286785 0.5 0.2631059 0.4991112 0.2631059 -6.84255e-4 0.2286785 1 0.2631058 0.9989185 0.2631059 0.4991112 0.902697 0.5447026 0.902697 1 0.9108056 1 0.8945885 0.5 0.8945885 1 0.902697 1 0.9189141 0.7867576 0.9189141 1 0.9270228 1 0.1564563 0.5 0.1601408 0.5 0.1601409 0 0.1028295 0.5 0.1146485 0.5 0.1146485 0 0.09101051 0.5 0.1028295 0.5 0.1028295 0 0.8864799 0 0.8864799 0.5 0.8945885 0.5 0.8702628 0 0.8702628 0.5 0.8864799 0.5 0.8378284 0.5 0.8540455 0.5 0.8540456 0 0.1601408 0.5 0.1820211 0.5 0.1820211 0 0.1264674 0.5 0.1564563 0.5 0.1564563 0 0.1146485 0.5 0.1264674 0.5 0.1264674 0 0.08342629 0.5 0.09101051 0.5 0.09101051 0 0.6075398 0 0.6075398 0.5 0.6496356 0.5 0.5654441 0 0.5654441 0.5 0.6075398 0.5 0.5233485 0 0.5233485 0.5 0.5654441 0.5 0.4812527 0 0.4812527 0.5 0.5233485 0.5 0.439157 0 0.439157 0.5 0.4812527 0.5 0.3970613 0 0.3970613 0.5 0.439157 0.5 0.3549656 0 0.3549656 0.5 0.3970613 0.5 0.3128699 0 0.3128699 0.5 0.3549656 0.5 0.2791265 0.4987196 0.3128699 0.5 0.3128699 0 0.2631059 0.4991112 0.2791265 0.4987196 0.2791265 -4.8423e-4 0.8540456 0 0.8540455 0.5 0.8702628 0.5 0.8053941 0.5 0.8378284 0.5 0.8378284 0 0.7729597 0.5 0.8053941 0.5 0.8053941 0 0.7405254 0.5 0.7729597 0.5 0.7729597 0 0.708091 0.5 0.7405254 0.5 0.7405254 0 0.6496356 0.5 0.6917312 0.5 0.6917312 0 0.6917312 0 0.6917312 0.5 0.708091 0.5 0.2123579 0.5 0.2286785 0.5 0.2286785 0 0.1820211 0.5 0.2123579 0.5 0.2123579 0 0.9108056 0.6367918 0.9108056 1 0.9189141 1 0.8945885 0 0.8945885 0.5 0.902697 0.5447026 1 1 1 0 1 0 0.2123579 0.5 0.2123579 1 0.1820211 1 0.2286785 0.5 0.2286785 1 0.2123579 1 0.6917312 0.5 0.708091 0.5 0.708091 1 0.6917312 0.5 0.6917313 1 0.6496356 1 0.7405254 0.5 0.7405254 1 0.708091 1 0.7729597 0.5 0.7729597 1 0.7405254 1 0.8053941 0.5 0.805394 1 0.7729597 1 0.8378284 0.5 0.8378283 1 0.805394 1 0.8540455 0.5 0.8702628 0.5 0.8702627 1 0.9026971 0 0.9108057 0 0.9108056 0.6367918 1 0 1 0 1 1 0.9270228 0 0.9351313 0 0.9351313 1 0.2791265 0.4987196 0.2791265 0.9979387 0.2631058 0.9989185 0.3128699 0.5 0.3128699 1 0.2791265 0.9979387 0.3128699 0.5 0.3549656 0.5 0.3549656 1 0.3549656 0.5 0.3970613 0.5 0.3970613 1 0.3970613 0.5 0.439157 0.5 0.439157 1 0.439157 0.5 0.4812527 0.5 0.4812527 1 0.4812527 0.5 0.5233485 0.5 0.5233485 1 0.5233485 0.5 0.5654441 0.5 0.5654442 1 0.5654441 0.5 0.6075398 0.5 0.6075398 1 0.6075398 0.5 0.6496356 0.5 0.6496356 1 0.09101051 0.5 0.09101051 1 0.08342629 1 0.1264674 0.5 0.1264674 1 0.1146485 1 0.1564563 0.5 0.1564563 1 0.1264674 1 0.1820211 0.5 0.1820211 1 0.1601408 1 0.8540455 0.5 0.8540455 1 0.8378283 1 0.8702628 0.5 0.8864799 0.5 0.8864799 1 0.8864799 0.5 0.8945885 0.5 0.8945885 1 0.9270228 0 0.9270228 0.9476639 0.9189141 0.7867576 0.9351313 0 0.9675657 0 0.9675657 1 0.9189142 0 0.9189141 0.7867576 0.9108056 0.6367918 0.1028295 0.5 0.1028295 1 0.09101051 1 0.1146485 0.5 0.1146485 1 0.1028295 1 0.1601408 0.5 0.1601408 1 0.1564563 1 1 0 1 1 0.9675657 1 1 1 1 0 1 0 1 1 1 0 1 0 1 0 1 0 1 1 1 0 1 0 1 1 1 1 1 0 1 0 1 1 1 0 1 0 1 1 1 0 1 0 0.2631059 -6.84255e-4 0.2631059 0.4991112 0.2286785 0.5 0.2631059 0.4991112 0.2631058 0.9989185 0.2286785 1 0.902697 0.5447026 0.9108056 0.6367918 0.9108056 1 0.8945885 0.5 0.902697 0.5447026 0.902697 1 0.9189141 0.7867576 0.9270228 0.9476639 0.9270228 1 0.1601409 0 0.1601408 0.5 0.1564563 0.5 0.1146485 0 0.1146485 0.5 0.1028295 0.5 0.1028295 0 0.1028295 0.5 0.09101051 0.5 0.8864799 0 0.8945885 0 0.8945885 0.5 0.8702628 0 0.8864799 0 0.8864799 0.5 0.8540456 0 0.8540455 0.5 0.8378284 0.5 0.1820211 0 0.1820211 0.5 0.1601408 0.5 0.1564563 0 0.1564563 0.5 0.1264674 0.5 0.1264674 0 0.1264674 0.5 0.1146485 0.5 0.09101051 0 0.09101051 0.5 0.08342629 0.5 0.6075398 0 0.6496355 0 0.6496356 0.5 0.5654441 0 0.6075398 0 0.6075398 0.5 0.5233485 0 0.5654441 0 0.5654441 0.5 0.4812527 0 0.5233485 0 0.5233485 0.5 0.439157 0 0.4812527 0 0.4812527 0.5 0.3970613 0 0.439157 0 0.439157 0.5 0.3549656 0 0.3970613 0 0.3970613 0.5 0.3128699 0 0.3549656 0 0.3549656 0.5 0.3128699 0 0.3128699 0.5 0.2791265 0.4987196 0.2791265 -4.8423e-4 0.2791265 0.4987196 0.2631059 0.4991112 0.8540456 0 0.8702628 0 0.8702628 0.5 0.8378284 0 0.8378284 0.5 0.8053941 0.5 0.8053941 0 0.8053941 0.5 0.7729597 0.5 0.7729597 0 0.7729597 0.5 0.7405254 0.5 0.7405254 0 0.7405254 0.5 0.708091 0.5 0.6917312 0 0.6917312 0.5 0.6496356 0.5 0.6917312 0 0.708091 0 0.708091 0.5 0.2286785 0 0.2286785 0.5 0.2123579 0.5 0.2123579 0 0.2123579 0.5 0.1820211 0.5 0.9108056 0.6367918 0.9189141 0.7867576 0.9189141 1 0.8945885 0 0.9026971 0 0.902697 0.5447026 0.1601408 1 0.1601408 1 0.1820211 1 0.3970613 0 0.3970613 0 0.3549656 0 0.9675657 1 0.9675657 1 1 1 0.1601409 0 0.1601409 0 0.1564563 0 0.439157 0 0.439157 0 0.3970613 0 0.9351313 1 0.9351313 1 0.9675657 1 0.4812527 0 0.4812527 0 0.439157 0 0.902697 1 0.902697 1 0.9108056 1 0.8540456 0 0.8540456 0 0.8378284 0 0.5233485 0 0.5233485 0 0.4812527 0 0.8702627 1 0.8702627 1 0.8864799 1 1 0 1 0 1 0 0.8540455 1 0.8540455 1 0.8702627 1 0.5654441 0 0.5654441 0 0.5233485 0 0.8378283 1 0.8378283 1 0.8540455 1 1 1 1 1 1 1 0.6075398 0 0.6075398 0 0.5654441 0 0.805394 1 0.805394 1 0.8378283 1 1 0 1 0 0.9675657 0 1 0 1 0 1 0 0.8864799 0 0.8864799 0 0.8702628 0 0.6496355 0 0.6496355 0 0.6075398 0 0.08342629 0 0.08342629 0 0.08342629 0.5 0.7729597 1 0.7729597 1 0.805394 1 0.2123579 0 0.2123579 0 0.1820211 0 1 0 1 0 1 0 0.8864799 1 0.8864799 1 0.8945885 1 0.7405254 1 0.7405254 1 0.7729597 1 0.2123579 1 0.2123579 1 0.2286785 1 1 0 1 0 1 0 1 0 1 0 1 0 0.8945885 0 0.8945885 0 0.8864799 0 0.2286785 0 0.2286785 0 0.2123579 0 1 1 1 1 1 1 0.8945885 1 0.8945885 1 0.902697 1 1 1 1 1 1 0 0.2286785 1 0.2286785 1 0.2631058 0.9989185 1 1 1 1 1 1 1 1 1 1 1 1 0.9108057 0 0.9108057 0 0.9026971 0 0.708091 0 0.708091 0 0.6917312 0 1 1 1 1 1 1 0.9189142 0 0.9189142 0 0.9108057 0 0.6496356 1 0.6496356 1 0.6917313 1 0.708091 1 0.708091 1 0.7405254 1 1 0 1 0 1 0 0.9270228 0 0.9270228 0 0.9189142 0 0.6075398 1 0.6075398 1 0.6496356 1 1 0 1 0 1 0 0.9270228 1 0.9270228 1 0.9351313 1 0.5654442 1 0.5654442 1 0.6075398 1 0.6917313 1 0.6917313 1 0.708091 1 1 0 1 0 1 0 0.9189141 1 0.9189141 1 0.9270228 1 0.5233485 1 0.5233485 1 0.5654442 1 0.6917312 0 0.6917312 0 0.6496355 0 1 0 1 0 1 0 0.9108056 1 0.9108056 1 0.9189141 1 0.1820211 1 0.1820211 1 0.2123579 1 0.4812527 1 0.4812527 1 0.5233485 1 1 1 1 1 1 1 0.08342629 1 0.08342629 1 0.09101051 1 0.1564563 1 0.1564563 1 0.1601408 1 0.439157 1 0.439157 1 0.4812527 1 0.7405254 0 0.7405254 0 0.708091 0 1 1 1 1 1 1 0.08342629 0.5 0.08342629 0.5 0.08342629 1 0.1264674 1 0.1264674 1 0.1564563 1 0.2631058 0.9989185 0.2631058 0.9989185 0.2791265 0.9979387 0.3970613 1 0.3970613 1 0.439157 1 0.7729597 0 0.7729597 0 0.7405254 0 1 1 1 1 1 1 0.1146485 1 0.1146485 1 0.1264674 1 0.09101051 1 0.09101051 1 0.1028295 1 0.2631059 -6.84255e-4 0.2631059 -6.84255e-4 0.2286785 0 0.3549656 1 0.3549656 1 0.3970613 1 0.8053941 0 0.8053941 0 0.7729597 0 1 1 1 1 1 1 0.1028295 1 0.1028295 1 0.1146485 1 0.09101051 0 0.09101051 0 0.08342629 0 0.3128699 1 0.3128699 1 0.3549656 1 0.8378284 0 0.8378284 0 0.8053941 0 0.1028295 0 0.1028295 0 0.09101051 0 0.1264674 0 0.1264674 0 0.1146485 0 0.2791265 0.9979387 0.2791265 0.9979387 0.3128699 1 0.8702628 0 0.8702628 0 0.8540456 0 0.1146485 0 0.1146485 0 0.1028295 0 0.1564563 0 0.1564563 0 0.1264674 0 0.2791265 -4.8423e-4 0.2791265 -4.8423e-4 0.2631059 -6.84255e-4 0.9026971 0 0.9026971 0 0.8945885 0 0.1820211 0 0.1820211 0 0.1601409 0 0.3128699 0 0.3128699 0 0.2791265 -4.8423e-4 0.9351313 0 0.9351313 0 0.9270228 0 0.3549656 0 0.3549656 0 0.3128699 0 0.9675657 0 0.9675657 0 0.9351313 0</float_array>
          <technique_common>
            <accessor source="#Plane_017-mesh-map-0-array" count="1536" stride="2">
              <param name="S" type="float"/>
              <param name="T" type="float"/>
            </accessor>
          </technique_common>
        </source>
        <vertices id="Plane_017-mesh-vertices">
          <input semantic="POSITION" source="#Plane_017-mesh-positions"/>
        </vertices>
        <triangles material="gora_dol-material" count="322">
          <input semantic="VERTEX" source="#Plane_017-mesh-vertices" offset="0"/>
          <input semantic="NORMAL" source="#Plane_017-mesh-normals" offset="1"/>
          <input semantic="TEXCOORD" source="#Plane_017-mesh-map-0" offset="2" set="0"/>
          <p>90 0 0 86 0 1 85 0 2 46 1 3 92 1 4 114 1 5 3 2 6 93 2 7 92 2 8 95 3 9 7 3 10 94 3 11 26 4 12 95 4 13 110 4 14 7 5 15 96 5 16 94 5 17 25 6 18 97 6 19 96 6 20 24 7 21 98 7 22 97 7 23 23 8 24 99 8 25 98 8 26 115 9 27 21 9 28 100 9 29 15 9 30 122 9 31 60 9 32 91 9 33 79 9 34 80 9 35 62 9 36 19 9 37 16 9 38 128 10 39 101 10 40 126 10 41 35 9 42 102 9 43 101 9 44 102 11 45 33 11 46 103 11 47 103 12 48 32 12 49 104 12 50 104 9 51 31 9 52 105 9 53 105 9 54 30 9 55 106 9 56 106 13 57 29 13 58 107 13 59 107 9 60 28 9 61 108 9 62 108 9 63 27 9 64 109 9 65 109 14 66 26 14 67 110 14 68 66 9 69 111 9 70 118 9 71 68 15 72 112 15 73 120 15 74 48 9 75 113 9 76 112 9 77 72 16 78 114 16 79 121 16 80 22 17 81 115 17 82 99 17 83 100 9 84 57 9 85 116 9 86 116 9 87 59 9 88 117 9 89 125 9 90 62 9 91 61 9 92 16 9 93 18 9 94 17 9 95 122 9 96 61 9 97 60 9 98 49 18 99 119 18 100 111 18 101 69 19 102 120 19 103 119 19 104 47 20 105 121 20 106 113 20 107 18 9 108 0 9 109 17 9 110 1 9 111 76 9 112 0 9 113 83 9 114 77 9 115 76 9 116 81 9 117 77 9 118 82 9 119 80 9 120 78 9 121 81 9 122 89 21 123 87 21 124 86 21 125 91 22 126 85 22 127 84 22 128 88 23 129 74 23 130 87 23 131 93 9 132 127 9 133 4 9 134 5 24 135 126 24 136 93 24 137 124 9 138 63 9 139 19 9 140 123 9 141 65 9 142 122 9 143 117 25 144 20 25 145 123 25 146 125 9 147 63 9 148 124 9 149 113 9 150 73 9 151 52 9 152 119 9 153 71 9 154 70 9 155 111 9 156 70 9 157 50 9 158 56 9 159 117 9 160 58 9 161 14 9 162 116 9 163 56 9 164 99 9 165 54 9 166 13 9 167 121 9 168 53 9 169 73 9 170 112 9 171 52 9 172 51 9 173 120 9 174 51 9 175 71 9 176 118 9 177 50 9 178 67 9 179 44 9 180 110 9 181 45 9 182 43 9 183 109 9 184 44 9 185 42 9 186 108 9 187 43 9 188 41 9 189 107 9 190 42 9 191 40 9 192 106 9 193 41 9 194 39 9 195 105 9 196 40 9 197 38 9 198 104 9 199 39 9 200 37 9 201 103 9 202 38 9 203 101 9 204 37 9 205 36 9 206 126 26 207 36 26 208 127 26 209 54 9 210 100 9 211 14 9 212 98 9 213 13 9 214 12 9 215 97 9 216 12 9 217 11 9 218 96 9 219 11 9 220 10 9 221 94 9 222 10 9 223 6 9 224 110 9 225 9 9 226 45 9 227 9 9 228 94 9 229 6 9 230 92 9 231 4 9 232 2 9 233 114 9 234 2 9 235 53 9 236 122 9 237 64 9 238 125 9 239 58 9 240 123 9 241 15 9 242 253 27 243 249 27 244 252 27 245 135 27 246 203 27 247 218 27 248 138 27 249 134 27 250 135 27 251 146 28 252 142 28 253 144 28 254 146 29 255 173 29 256 202 29 257 168 27 258 142 27 259 143 27 260 169 27 261 141 27 262 168 27 263 170 30 264 167 30 265 169 30 266 171 27 267 166 27 268 170 27 269 219 31 270 163 31 271 164 31 272 154 32 273 235 32 274 254 32 275 242 27 276 243 27 277 244 27 278 155 33 279 159 33 280 255 33 281 193 27 282 137 27 283 257 27 284 194 27 285 182 27 286 193 27 287 194 34 288 180 34 289 181 34 290 195 35 291 179 35 292 180 35 293 196 36 294 178 36 295 179 36 296 197 37 297 177 37 298 178 37 299 198 38 300 176 38 301 177 38 302 199 39 303 175 39 304 176 39 305 200 40 306 174 40 307 175 40 308 201 41 309 173 41 310 174 41 311 215 27 312 228 27 313 229 27 314 216 27 315 230 27 316 233 27 317 217 27 318 206 27 319 216 27 320 218 27 321 204 27 322 234 27 323 219 27 324 165 27 325 171 27 326 172 42 327 162 42 328 163 42 329 222 27 330 221 27 331 162 27 332 155 27 333 256 27 334 225 27 335 156 43 336 158 43 337 159 43 338 225 27 339 235 27 340 224 27 341 232 27 342 208 27 343 215 27 344 233 44 345 207 44 346 232 44 347 234 27 348 205 27 349 217 27 350 130 27 351 158 27 352 129 27 353 157 27 354 239 27 355 238 27 356 238 45 357 240 45 358 246 45 359 240 27 360 245 27 361 246 27 362 241 46 363 244 46 364 245 46 365 252 27 366 236 27 367 251 27 368 243 27 369 248 27 370 253 27 371 251 27 372 237 27 373 250 27 374 183 27 375 138 27 376 136 27 377 257 27 378 133 27 379 138 27 380 255 27 381 159 27 382 226 27 383 254 27 384 160 27 385 161 27 386 223 47 387 161 47 388 221 47 389 256 27 390 226 27 391 227 27 392 214 27 393 217 27 394 213 27 395 211 27 396 232 27 397 231 27 398 231 27 399 215 27 400 210 27 401 220 48 402 223 48 403 222 48 404 152 49 405 222 49 406 172 49 407 151 27 408 171 27 409 150 27 410 131 27 411 234 27 412 214 27 413 213 27 414 216 27 415 212 27 416 212 27 417 233 27 418 211 27 419 210 27 420 229 27 421 209 27 422 192 50 423 202 50 424 201 50 425 191 51 426 201 51 427 200 51 428 190 52 429 200 52 430 199 52 431 189 27 432 199 27 433 198 27 434 188 53 435 198 53 436 197 53 437 187 54 438 197 54 439 196 54 440 186 55 441 196 55 442 195 55 443 185 56 444 195 56 445 194 56 446 185 27 447 193 27 448 184 27 449 184 27 450 257 27 451 183 27 452 151 57 453 172 57 454 219 57 455 150 27 456 170 27 457 149 27 458 149 27 459 169 27 460 148 27 461 148 27 462 168 27 463 147 27 464 147 27 465 143 27 466 140 27 467 139 27 468 202 27 469 145 27 470 139 58 471 143 58 472 146 58 473 136 27 474 135 27 475 132 27 476 132 27 477 218 27 478 131 27 479 235 59 480 227 59 481 160 59 482 153 60 483 254 60 484 223 60 485 90 9 771 89 9 772 86 9 773 46 9 774 3 9 775 92 9 776 3 9 777 5 9 778 93 9 779 95 109 780 8 109 781 7 109 782 26 9 783 8 9 784 95 9 785 7 9 786 25 9 787 96 9 788 25 9 789 24 9 790 97 9 791 24 110 792 23 110 793 98 110 794 23 9 795 22 9 796 99 9 797 115 111 798 55 111 799 21 111 800 15 112 801 123 112 802 122 112 803 91 9 804 84 9 805 79 9 806 62 113 807 124 113 808 19 113 809 128 9 810 35 9 811 101 9 812 35 9 813 34 9 814 102 9 815 102 114 816 34 114 817 33 114 818 103 115 819 33 115 820 32 115 821 104 116 822 32 116 823 31 116 824 105 117 825 31 117 826 30 117 827 106 118 828 30 118 829 29 118 830 107 119 831 29 119 832 28 119 833 108 120 834 28 120 835 27 120 836 109 121 837 27 121 838 26 121 839 66 122 840 49 122 841 111 122 842 68 9 843 48 9 844 112 9 845 48 9 846 47 9 847 113 9 848 72 9 849 46 9 850 114 9 851 22 9 852 55 9 853 115 9 854 100 9 855 21 9 856 57 9 857 116 123 858 57 123 859 59 123 860 125 9 861 124 9 862 62 9 863 16 124 864 19 124 865 18 124 866 122 9 867 125 9 868 61 9 869 49 125 870 69 125 871 119 125 872 69 9 873 68 9 874 120 9 875 47 9 876 72 9 877 121 9 878 18 9 879 1 9 880 0 9 881 1 9 882 83 9 883 76 9 884 83 9 885 82 9 886 77 9 887 81 9 888 78 9 889 77 9 890 80 9 891 79 9 892 78 9 893 89 9 894 88 9 895 87 9 896 91 9 897 90 9 898 85 9 899 88 9 900 75 9 901 74 9 902 93 9 903 126 9 904 127 9 905 5 9 906 128 9 907 126 9 908 123 126 909 20 126 910 65 126 911 117 127 912 59 127 913 20 127 914 125 9 915 64 9 916 63 9 917 113 9 918 121 9 919 73 9 920 119 128 921 120 128 922 71 128 923 111 9 924 119 9 925 70 9 926 56 129 927 116 129 928 117 129 929 14 130 930 100 130 931 116 130 932 99 131 933 115 131 934 54 131 935 121 132 936 114 132 937 53 132 938 112 9 939 113 9 940 52 9 941 120 133 942 112 133 943 51 133 944 118 134 945 111 134 946 50 134 947 44 135 948 109 135 949 110 135 950 43 136 951 108 136 952 109 136 953 42 137 954 107 137 955 108 137 956 41 138 957 106 138 958 107 138 959 40 139 960 105 139 961 106 139 962 39 140 963 104 140 964 105 140 965 38 141 966 103 141 967 104 141 968 37 142 969 102 142 970 103 142 971 101 9 972 102 9 973 37 9 974 126 9 975 101 9 976 36 9 977 54 143 978 115 143 979 100 143 980 98 9 981 99 9 982 13 9 983 97 9 984 98 9 985 12 9 986 96 9 987 97 9 988 11 9 989 94 9 990 96 9 991 10 9 992 110 144 993 95 144 994 9 144 995 9 145 996 95 145 997 94 145 998 92 9 999 93 9 1000 4 9 1001 114 9 1002 92 9 1003 2 9 1004 122 146 1005 65 146 1006 64 146 1007 58 147 1008 117 147 1009 123 147 1010 253 148 1011 248 148 1012 249 148 1013 135 149 1014 134 149 1015 203 149 1016 138 150 1017 133 150 1018 134 150 1019 146 27 1020 143 27 1021 142 27 1022 146 151 1023 144 151 1024 173 151 1025 168 152 1026 141 152 1027 142 152 1028 169 153 1029 167 153 1030 141 153 1031 170 154 1032 166 154 1033 167 154 1034 171 27 1035 165 27 1036 166 27 1037 219 27 1038 172 27 1039 163 27 1040 154 27 1041 224 27 1042 235 27 1043 242 27 1044 247 27 1045 243 27 1046 155 27 1047 156 27 1048 159 27 1049 193 155 1050 182 155 1051 137 155 1052 194 27 1053 181 27 1054 182 27 1055 194 156 1056 195 156 1057 180 156 1058 195 157 1059 196 157 1060 179 157 1061 196 158 1062 197 158 1063 178 158 1064 197 27 1065 198 27 1066 177 27 1067 198 27 1068 199 27 1069 176 27 1070 199 27 1071 200 27 1072 175 27 1073 200 159 1074 201 159 1075 174 159 1076 201 160 1077 202 160 1078 173 160 1079 215 161 1080 208 161 1081 228 161 1082 216 162 1083 206 162 1084 230 162 1085 217 27 1086 205 27 1087 206 27 1088 218 163 1089 203 163 1090 204 163 1091 219 164 1092 164 164 1093 165 164 1094 172 27 1095 222 27 1096 162 27 1097 222 165 1098 223 165 1099 221 165 1100 155 166 1101 255 166 1102 256 166 1103 156 27 1104 129 27 1105 158 27 1106 225 167 1107 256 167 1108 235 167 1109 232 168 1110 207 168 1111 208 168 1112 233 169 1113 230 169 1114 207 169 1115 234 170 1116 204 170 1117 205 170 1118 130 171 1119 157 171 1120 158 171 1121 157 27 1122 130 27 1123 239 27 1124 238 27 1125 239 27 1126 240 27 1127 240 27 1128 241 27 1129 245 27 1130 241 27 1131 242 27 1132 244 27 1133 252 27 1134 249 27 1135 236 27 1136 243 172 1137 247 172 1138 248 172 1139 251 173 1140 236 173 1141 237 173 1142 183 174 1143 257 174 1144 138 174 1145 257 175 1146 137 175 1147 133 175 1148 254 176 1149 235 176 1150 160 176 1151 223 27 1152 254 27 1153 161 27 1154 256 27 1155 255 27 1156 226 27 1157 214 177 1158 234 177 1159 217 177 1160 211 178 1161 233 178 1162 232 178 1163 231 179 1164 232 179 1165 215 179 1166 220 27 1167 153 27 1168 223 27 1169 152 27 1170 220 27 1171 222 27 1172 151 180 1173 219 180 1174 171 180 1175 131 181 1176 218 181 1177 234 181 1178 213 27 1179 217 27 1180 216 27 1181 212 182 1182 216 182 1183 233 182 1184 210 183 1185 215 183 1186 229 183 1187 192 27 1188 145 27 1189 202 27 1190 191 27 1191 192 27 1192 201 27 1193 190 27 1194 191 27 1195 200 27 1196 189 27 1197 190 27 1198 199 27 1199 188 27 1200 189 27 1201 198 27 1202 187 27 1203 188 27 1204 197 27 1205 186 27 1206 187 27 1207 196 27 1208 185 27 1209 186 27 1210 195 27 1211 185 27 1212 194 27 1213 193 27 1214 184 184 1215 193 184 1216 257 184 1217 151 27 1218 152 27 1219 172 27 1220 150 185 1221 171 185 1222 170 185 1223 149 186 1224 170 186 1225 169 186 1226 148 187 1227 169 187 1228 168 187 1229 147 188 1230 168 188 1231 143 188 1232 139 189 1233 146 189 1234 202 189 1235 139 27 1236 140 27 1237 143 27 1238 136 190 1239 138 190 1240 135 190 1241 132 191 1242 135 191 1243 218 191 1244 235 192 1245 256 192 1246 227 192 1247 153 27 1248 154 27 1249 254 27 1250</p>
        </triangles>
        <triangles material="tyl-material" count="94">
          <input semantic="VERTEX" source="#Plane_017-mesh-vertices" offset="0"/>
          <input semantic="NORMAL" source="#Plane_017-mesh-normals" offset="1"/>
          <input semantic="TEXCOORD" source="#Plane_017-mesh-map-0" offset="2" set="0"/>
          <p>39 62 489 186 62 490 38 62 491 73 62 495 213 62 496 52 62 497 40 62 498 187 62 499 39 62 500 41 62 504 188 62 505 40 62 506 54 62 510 150 62 511 13 62 512 42 62 513 189 62 514 41 62 515 74 67 519 236 67 520 87 67 521 43 62 525 190 62 526 42 62 527 44 62 534 191 62 535 43 62 536 0 62 540 129 62 541 17 62 542 76 62 543 130 62 544 0 62 545 56 62 546 152 62 547 14 62 548 45 62 549 192 62 550 44 62 551 2 62 558 131 62 559 53 62 560 77 62 561 239 62 562 76 62 563 78 62 573 240 62 574 77 62 575 79 62 576 241 62 577 78 62 578 58 62 579 220 62 580 56 62 581 4 62 582 132 62 583 2 62 584 75 79 591 237 79 592 74 79 593 60 62 603 154 62 604 15 62 605 6 82 606 139 82 607 9 82 608 61 62 612 224 62 613 60 62 614 84 62 621 242 62 622 79 62 623 62 62 624 225 62 625 61 62 626 85 87 630 247 87 631 84 87 632 86 91 642 248 91 643 85 91 644 9 62 651 145 62 652 45 62 653 87 94 654 249 94 655 86 94 656 10 62 678 140 62 679 6 62 680 11 62 696 147 62 697 10 62 698 127 62 708 136 62 709 4 62 710 12 62 714 148 62 715 11 62 716 50 62 723 209 62 724 67 62 725 13 62 729 149 62 730 12 62 731 70 62 732 210 62 733 50 62 734 51 62 735 211 62 736 71 62 737 14 62 741 151 62 742 54 62 743 71 62 744 231 62 745 70 62 746 52 62 747 212 62 748 51 62 749 36 108 750 183 108 751 127 108 752 15 62 753 153 62 754 58 62 755 53 62 756 214 62 757 73 62 758 37 62 759 184 62 760 36 62 761 16 62 762 155 62 763 62 62 764 38 62 765 185 62 766 37 62 767 17 62 768 156 62 769 16 62 770 39 62 1254 187 62 1255 186 62 1256 73 62 1260 214 62 1261 213 62 1262 40 62 1263 188 62 1264 187 62 1265 41 62 1269 189 62 1270 188 62 1271 54 62 1275 151 62 1276 150 62 1277 42 62 1278 190 62 1279 189 62 1280 74 67 1284 237 67 1285 236 67 1286 43 62 1290 191 62 1291 190 62 1292 44 62 1299 192 62 1300 191 62 1301 0 62 1305 130 62 1306 129 62 1307 76 62 1308 239 62 1309 130 62 1310 56 62 1311 220 62 1312 152 62 1313 45 62 1314 145 62 1315 192 62 1316 2 62 1323 132 62 1324 131 62 1325 77 62 1326 240 62 1327 239 62 1328 78 62 1338 241 62 1339 240 62 1340 79 62 1341 242 62 1342 241 62 1343 58 62 1344 153 62 1345 220 62 1346 4 62 1347 136 62 1348 132 62 1349 75 79 1356 250 79 1357 237 79 1358 60 62 1368 224 62 1369 154 62 1370 6 82 1371 140 82 1372 139 82 1373 61 62 1377 225 62 1378 224 62 1379 84 62 1386 247 62 1387 242 62 1388 62 62 1389 155 62 1390 225 62 1391 85 208 1395 248 208 1396 247 208 1397 86 212 1407 249 212 1408 248 212 1409 9 62 1416 139 62 1417 145 62 1418 87 215 1419 236 215 1420 249 215 1421 10 62 1443 147 62 1444 140 62 1445 11 62 1461 148 62 1462 147 62 1463 127 62 1473 183 62 1474 136 62 1475 12 62 1479 149 62 1480 148 62 1481 50 62 1488 210 62 1489 209 62 1490 13 62 1494 150 62 1495 149 62 1496 70 62 1497 231 62 1498 210 62 1499 51 62 1500 212 62 1501 211 62 1502 14 62 1506 152 62 1507 151 62 1508 71 62 1509 211 62 1510 231 62 1511 52 62 1512 213 62 1513 212 62 1514 36 225 1515 184 225 1516 183 225 1517 15 62 1518 154 62 1519 153 62 1520 53 62 1521 131 62 1522 214 62 1523 37 62 1524 185 62 1525 184 62 1526 16 62 1527 156 62 1528 155 62 1529 38 62 1530 186 62 1531 185 62 1532 17 62 1533 129 62 1534 156 62 1535</p>
        </triangles>
        <triangles material="front-material" count="96">
          <input semantic="VERTEX" source="#Plane_017-mesh-vertices" offset="0"/>
          <input semantic="NORMAL" source="#Plane_017-mesh-normals" offset="1"/>
          <input semantic="TEXCOORD" source="#Plane_017-mesh-map-0" offset="2" set="0"/>
          <p>72 61 486 203 61 487 46 61 488 18 63 492 157 63 493 1 63 494 19 64 501 158 64 502 18 64 503 20 65 507 160 65 508 65 65 509 21 66 516 162 66 517 57 66 518 55 68 522 163 68 523 21 68 524 22 69 528 164 69 529 55 69 530 1 70 531 238 70 532 83 70 533 23 71 537 165 71 538 22 71 539 67 72 552 229 72 553 118 72 554 24 73 555 166 73 556 23 73 557 57 74 564 221 74 565 59 74 566 25 75 567 167 75 568 24 75 569 3 76 570 133 76 571 5 76 572 80 77 585 243 77 586 91 77 587 59 78 588 161 78 589 20 78 590 5 80 594 137 80 595 128 80 596 81 81 597 244 81 598 80 81 599 82 77 600 245 77 601 81 77 602 83 83 609 246 83 610 82 83 611 26 84 615 144 84 616 8 84 617 7 85 618 141 85 619 25 85 620 27 86 627 173 86 628 26 86 629 63 88 633 159 88 634 19 88 635 28 89 636 174 89 637 27 89 638 8 90 639 142 90 640 7 90 641 64 92 645 226 92 646 63 92 647 29 93 648 175 93 649 28 93 650 65 95 657 227 95 658 64 95 659 46 96 660 134 96 661 3 96 662 30 97 663 176 97 664 29 97 665 88 77 666 250 77 667 75 77 668 66 98 669 208 98 670 49 98 671 47 99 672 204 99 673 72 99 674 31 100 675 177 100 676 30 100 677 89 77 681 251 77 682 88 77 683 118 72 684 228 72 685 66 72 686 48 77 687 205 77 688 47 77 689 128 101 690 182 101 691 35 101 692 32 102 693 178 102 694 31 102 695 90 77 699 252 77 700 89 77 701 68 103 702 206 103 703 48 103 704 49 104 705 207 104 706 69 104 707 33 105 711 179 105 712 32 105 713 91 77 717 253 77 718 90 77 719 69 106 720 230 106 721 68 106 722 34 107 726 180 107 727 33 107 728 35 77 738 181 77 739 34 77 740 72 61 1251 204 61 1252 203 61 1253 18 193 1257 158 193 1258 157 193 1259 19 194 1266 159 194 1267 158 194 1268 20 195 1272 161 195 1273 160 195 1274 21 196 1281 163 196 1282 162 196 1283 55 68 1287 164 68 1288 163 68 1289 22 69 1293 165 69 1294 164 69 1295 1 197 1296 157 197 1297 238 197 1298 23 198 1302 166 198 1303 165 198 1304 67 72 1317 209 72 1318 229 72 1319 24 199 1320 167 199 1321 166 199 1322 57 200 1329 162 200 1330 221 200 1331 25 75 1332 141 75 1333 167 75 1334 3 201 1335 134 201 1336 133 201 1337 80 77 1350 244 77 1351 243 77 1352 59 202 1353 221 202 1354 161 202 1355 5 203 1359 133 203 1360 137 203 1361 81 81 1362 245 81 1363 244 81 1364 82 77 1365 246 77 1366 245 77 1367 83 204 1374 238 204 1375 246 204 1376 26 205 1380 173 205 1381 144 205 1382 7 206 1383 142 206 1384 141 206 1385 27 207 1392 174 207 1393 173 207 1394 63 209 1398 226 209 1399 159 209 1400 28 210 1401 175 210 1402 174 210 1403 8 211 1404 144 211 1405 142 211 1406 64 213 1410 227 213 1411 226 213 1412 29 214 1413 176 214 1414 175 214 1415 65 95 1422 160 95 1423 227 95 1424 46 216 1425 203 216 1426 134 216 1427 30 217 1428 177 217 1429 176 217 1430 88 77 1431 251 77 1432 250 77 1433 66 98 1434 228 98 1435 208 98 1436 47 218 1437 205 218 1438 204 218 1439 31 219 1440 178 219 1441 177 219 1442 89 77 1446 252 77 1447 251 77 1448 118 72 1449 229 72 1450 228 72 1451 48 77 1452 206 77 1453 205 77 1454 128 220 1455 137 220 1456 182 220 1457 32 221 1458 179 221 1459 178 221 1460 90 77 1464 253 77 1465 252 77 1466 68 222 1467 230 222 1468 206 222 1469 49 104 1470 208 104 1471 207 104 1472 33 223 1476 180 223 1477 179 223 1478 91 77 1482 243 77 1483 253 77 1484 69 224 1485 207 224 1486 230 224 1487 34 107 1491 181 107 1492 180 107 1493 35 77 1503 182 77 1504 181 77 1505</p>
        </triangles>
      </mesh>
    </geometry>
  </library_geometries>
  <library_visual_scenes>
    <visual_scene id="Scene" name="Scene">
      <node id="versal_end2" name="versal_end2" type="NODE">
        <matrix sid="transform">1 0 0 -0.09109753 0 1 0 -0.001533446 0 0 1 1.35 0 0 0 1</matrix>
        <instance_geometry url="#Plane_017-mesh" name="versal_end2">
          <bind_material>
            <technique_common>
              <instance_material symbol="gora_dol-material" target="#gora_dol-material">
                <bind_vertex_input semantic="UVMap" input_semantic="TEXCOORD" input_set="0"/>
              </instance_material>
              <instance_material symbol="tyl-material" target="#tyl-material">
                <bind_vertex_input semantic="UVMap" input_semantic="TEXCOORD" input_set="0"/>
              </instance_material>
              <instance_material symbol="front-material" target="#front-material">
                <bind_vertex_input semantic="UVMap" input_semantic="TEXCOORD" input_set="0"/>
              </instance_material>
            </technique_common>
          </bind_material>
        </instance_geometry>
      </node>
    </visual_scene>
  </library_visual_scenes>
  <scene>
    <instance_visual_scene url="#Scene"/>
  </scene>
</COLLADA>