# Blender v3.2.0 OBJ File: 'panele.blend'
# www.blender.org
mtllib versal_end1.mtl
o versal_end2_Plane.017
v -0.068459 0.000000 0.006300
v -0.068459 0.000000 0.001654
v -0.114553 0.000000 0.006300
v -0.114553 0.000000 -0.005810
v -0.113598 0.000000 0.006300
v -0.113598 0.000000 -0.005987
v -0.085542 0.000000 0.006300
v -0.085542 0.000000 -0.002011
v -0.086499 0.000000 -0.001955
v -0.086499 0.000000 0.005650
v -0.083644 0.000000 0.006300
v -0.081746 0.000000 0.006300
v -0.079848 0.000000 0.006300
v -0.077950 0.000000 0.006300
v -0.076052 0.000000 0.006300
v -0.074154 0.000000 0.006300
v -0.072255 0.000000 0.006300
v -0.070357 0.000000 0.006300
v -0.070357 0.000000 0.001690
v -0.072255 0.000000 0.001484
v -0.074154 0.000000 -0.002547
v -0.076052 0.000000 -0.004634
v -0.077950 0.000000 -0.004634
v -0.079848 0.000000 -0.003675
v -0.081746 0.000000 -0.002914
v -0.083644 0.000000 -0.002378
v -0.088963 0.000000 -0.001870
v -0.091426 0.000000 -0.001955
v -0.093890 0.000000 -0.002442
v -0.096353 0.000000 -0.003173
v -0.098817 0.000000 -0.004188
v -0.101280 0.000000 -0.005163
v -0.103744 0.000000 -0.005813
v -0.106207 0.000000 -0.006178
v -0.108671 0.000000 -0.006300
v -0.110645 0.000000 -0.006300
v -0.110645 0.000000 0.005650
v -0.108671 0.000000 0.005650
v -0.106207 0.000000 0.005650
v -0.103744 0.000000 0.005650
v -0.101280 0.000000 0.005650
v -0.098817 0.000000 0.005650
v -0.096353 0.000000 0.005650
v -0.093890 0.000000 0.005650
v -0.091426 0.000000 0.005650
v -0.088963 0.000000 0.005650
v -0.116328 0.000000 -0.005340
v -0.117824 0.000000 -0.004791
v -0.119579 0.000000 -0.004791
v -0.121654 0.000000 -0.003460
v -0.121654 0.000000 0.006300
v -0.119579 0.000000 0.006300
v -0.117824 0.000000 0.006300
v -0.116328 0.000000 0.006300
v -0.077001 0.000000 0.006300
v -0.077001 0.000000 -0.004810
v -0.075103 0.000000 0.006300
v -0.075103 0.000000 -0.004100
v -0.074628 0.000000 0.006300
v -0.074628 0.000000 -0.003578
v -0.073679 0.000000 0.006300
v -0.073205 0.000000 0.006300
v -0.072730 0.000000 0.006300
v -0.072730 0.000000 0.001113
v -0.073205 0.000000 0.000115
v -0.073679 0.000000 -0.001255
v -0.122098 0.000000 -0.002444
v -0.122098 0.000000 0.006300
v -0.120271 0.000000 -0.004563
v -0.120963 0.000000 -0.004119
v -0.120963 0.000000 0.006300
v -0.120271 0.000000 0.006300
v -0.117609 0.000000 -0.004839
v -0.117609 0.000000 0.006300
v -0.058098 0.000000 0.001993
v -0.058098 0.000000 0.001535
v -0.066354 0.000000 0.006300
v -0.064249 0.000000 0.006300
v -0.062144 0.000000 0.006300
v -0.060039 0.000000 0.006300
v -0.060039 0.000000 0.001535
v -0.062144 0.000000 0.001518
v -0.064249 0.000000 0.001518
v -0.066354 0.000000 0.001560
v -0.059618 0.000000 0.006300
v -0.059197 0.000000 0.006111
v -0.058776 0.000000 0.005488
v -0.058355 0.000000 0.003674
v -0.058355 0.000000 0.001535
v -0.058776 0.000000 0.001535
v -0.059197 0.000000 0.001535
v -0.059618 0.000000 0.001535
v -0.114553 0.000000 0.000245
v -0.113598 0.000000 -0.000168
v -0.085542 0.000000 0.002144
v -0.086499 0.000000 0.001848
v -0.083644 0.000000 0.001961
v -0.081746 0.000000 0.001693
v -0.079848 0.000000 0.001312
v -0.077950 0.000000 0.000833
v -0.076052 0.000000 0.000833
v -0.110645 0.000000 -0.000325
v -0.108671 0.000000 -0.000325
v -0.106207 0.000000 -0.000264
v -0.103744 0.000000 -0.000081
v -0.101280 0.000000 0.000244
v -0.098817 0.000000 0.000731
v -0.096353 0.000000 0.001239
v -0.093890 0.000000 0.001604
v -0.091426 0.000000 0.001848
v -0.088963 0.000000 0.001890
v -0.121654 0.000000 0.001420
v -0.119579 0.000000 0.000754
v -0.117824 0.000000 0.000754
v -0.116328 0.000000 0.000480
v -0.077001 0.000000 0.000745
v -0.075103 0.000000 0.001100
v -0.074628 0.000000 0.001361
v -0.122098 0.000000 0.001928
v -0.120963 0.000000 0.001090
v -0.120271 0.000000 0.000868
v -0.117609 0.000000 0.000730
v -0.073679 0.000000 0.001489
v -0.074154 0.000000 0.001481
v -0.072730 0.000000 0.001386
v -0.073205 0.000000 0.001434
v -0.111583 0.000000 -0.000275
v -0.111583 0.000000 0.006300
v -0.111583 0.000000 -0.006200
v -0.070357 2.700000 0.006300
v -0.068459 2.700000 0.006300
v -0.116328 2.700000 0.006300
v -0.114553 2.700000 0.006300
v -0.113598 2.700000 -0.005987
v -0.114553 2.700000 -0.005810
v -0.114553 2.700000 0.000245
v -0.113598 2.700000 0.006300
v -0.111583 2.700000 -0.006200
v -0.113598 2.700000 -0.000168
v -0.086499 2.700000 0.005650
v -0.085542 2.700000 0.006300
v -0.083644 2.700000 -0.002378
v -0.085542 2.700000 -0.002011
v -0.085542 2.700000 0.002144
v -0.086499 2.700000 -0.001955
v -0.088963 2.700000 0.005650
v -0.086499 2.700000 0.001848
v -0.083644 2.700000 0.006300
v -0.081746 2.700000 0.006300
v -0.079848 2.700000 0.006300
v -0.077950 2.700000 0.006300
v -0.077001 2.700000 0.006300
v -0.076052 2.700000 0.006300
v -0.074628 2.700000 0.006300
v -0.074154 2.700000 0.006300
v -0.072730 2.700000 0.006300
v -0.072255 2.700000 0.006300
v -0.068459 2.700000 0.001654
v -0.070357 2.700000 0.001690
v -0.072255 2.700000 0.001484
v -0.073679 2.700000 -0.001255
v -0.074154 2.700000 -0.002547
v -0.075103 2.700000 -0.004100
v -0.076052 2.700000 -0.004634
v -0.077001 2.700000 -0.004810
v -0.077950 2.700000 -0.004634
v -0.079848 2.700000 -0.003675
v -0.081746 2.700000 -0.002914
v -0.083644 2.700000 0.001961
v -0.081746 2.700000 0.001693
v -0.079848 2.700000 0.001312
v -0.077950 2.700000 0.000833
v -0.076052 2.700000 0.000833
v -0.088963 2.700000 -0.001870
v -0.091426 2.700000 -0.001955
v -0.093890 2.700000 -0.002442
v -0.096353 2.700000 -0.003173
v -0.098817 2.700000 -0.004188
v -0.101280 2.700000 -0.005163
v -0.103744 2.700000 -0.005813
v -0.106207 2.700000 -0.006178
v -0.108671 2.700000 -0.006300
v -0.110645 2.700000 -0.006300
v -0.111583 2.700000 0.006300
v -0.110645 2.700000 0.005650
v -0.108671 2.700000 0.005650
v -0.106207 2.700000 0.005650
v -0.103744 2.700000 0.005650
v -0.101280 2.700000 0.005650
v -0.098817 2.700000 0.005650
v -0.096353 2.700000 0.005650
v -0.093890 2.700000 0.005650
v -0.091426 2.700000 0.005650
v -0.110645 2.700000 -0.000325
v -0.108671 2.700000 -0.000325
v -0.106207 2.700000 -0.000264
v -0.103744 2.700000 -0.000081
v -0.101280 2.700000 0.000244
v -0.098817 2.700000 0.000731
v -0.096353 2.700000 0.001239
v -0.093890 2.700000 0.001604
v -0.091426 2.700000 0.001848
v -0.088963 2.700000 0.001890
v -0.116328 2.700000 -0.005340
v -0.117609 2.700000 -0.004839
v -0.117824 2.700000 -0.004791
v -0.119579 2.700000 -0.004791
v -0.120963 2.700000 -0.004119
v -0.121654 2.700000 -0.003460
v -0.122098 2.700000 0.006300
v -0.121654 2.700000 0.006300
v -0.120271 2.700000 0.006300
v -0.119579 2.700000 0.006300
v -0.117824 2.700000 0.006300
v -0.117609 2.700000 0.006300
v -0.121654 2.700000 0.001420
v -0.119579 2.700000 0.000754
v -0.117824 2.700000 0.000754
v -0.116328 2.700000 0.000480
v -0.077001 2.700000 0.000745
v -0.075103 2.700000 0.006300
v -0.074628 2.700000 -0.003578
v -0.075103 2.700000 0.001100
v -0.074628 2.700000 0.001361
v -0.073679 2.700000 0.006300
v -0.073205 2.700000 0.006300
v -0.072730 2.700000 0.001113
v -0.073205 2.700000 0.000115
v -0.122098 2.700000 -0.002444
v -0.122098 2.700000 0.001928
v -0.120271 2.700000 -0.004563
v -0.120963 2.700000 0.006300
v -0.120963 2.700000 0.001090
v -0.120271 2.700000 0.000868
v -0.117609 2.700000 0.000730
v -0.073679 2.700000 0.001489
v -0.058355 2.700000 0.003674
v -0.058098 2.700000 0.001993
v -0.066354 2.700000 0.001560
v -0.066354 2.700000 0.006300
v -0.064249 2.700000 0.006300
v -0.062144 2.700000 0.006300
v -0.060039 2.700000 0.006300
v -0.059618 2.700000 0.001535
v -0.060039 2.700000 0.001535
v -0.062144 2.700000 0.001518
v -0.064249 2.700000 0.001518
v -0.059618 2.700000 0.006300
v -0.059197 2.700000 0.006111
v -0.058776 2.700000 0.005488
v -0.058098 2.700000 0.001535
v -0.058355 2.700000 0.001535
v -0.058776 2.700000 0.001535
v -0.059197 2.700000 0.001535
v -0.074154 2.700000 0.001481
v -0.072730 2.700000 0.001386
v -0.073205 2.700000 0.001434
v -0.111583 2.700000 -0.000275
vt 1.000000 1.000000
vt 1.000000 1.000000
vt 1.000000 0.000000
vt 1.000000 0.000000
vt 0.182021 0.500000
vt 0.182021 1.000000
vt 0.212358 1.000000
vt 0.212358 0.500000
vt 0.228678 1.000000
vt 0.228678 0.500000
vt 0.691731 0.500000
vt 0.691731 1.000000
vt 0.708091 1.000000
vt 0.708091 0.500000
vt 0.649636 0.500000
vt 0.649636 1.000000
vt 0.740525 1.000000
vt 0.740525 0.500000
vt 0.772960 1.000000
vt 0.772960 0.500000
vt 0.805394 1.000000
vt 0.805394 0.500000
vt 0.837828 1.000000
vt 0.837828 0.500000
vt 0.854046 0.500000
vt 0.854046 1.000000
vt 0.870263 1.000000
vt 0.870263 0.500000
vt 0.902697 0.000000
vt 0.902697 0.544703
vt 0.910806 0.636792
vt 0.910806 0.000000
vt 1.000000 1.000000
vt 1.000000 1.000000
vt 1.000000 0.000000
vt 1.000000 0.000000
vt 0.927023 0.000000
vt 0.927023 0.947664
vt 0.935131 1.000000
vt 0.935131 0.000000
vt 0.263106 0.499111
vt 0.263106 0.998919
vt 0.279127 0.997939
vt 0.279126 0.498720
vt 0.312870 1.000000
vt 0.312870 0.500000
vt 0.354966 1.000000
vt 0.354966 0.500000
vt 0.397061 1.000000
vt 0.397061 0.500000
vt 0.439157 1.000000
vt 0.439157 0.500000
vt 0.481253 1.000000
vt 0.481253 0.500000
vt 0.523348 1.000000
vt 0.523348 0.500000
vt 0.565444 1.000000
vt 0.565444 0.500000
vt 0.607540 1.000000
vt 0.607540 0.500000
vt 0.083426 0.500000
vt 0.083426 1.000000
vt 0.091011 1.000000
vt 0.091011 0.500000
vt 0.114648 0.500000
vt 0.114648 1.000000
vt 0.126467 1.000000
vt 0.126467 0.500000
vt 0.156456 1.000000
vt 0.156456 0.500000
vt 0.160141 0.500000
vt 0.160141 1.000000
vt 0.886480 1.000000
vt 0.886480 0.500000
vt 0.894588 1.000000
vt 0.894588 0.500000
vt 0.918914 0.000000
vt 0.918914 0.786758
vt 0.967566 1.000000
vt 0.967566 0.000000
vt 0.102830 1.000000
vt 0.102830 0.500000
vt 1.000000 1.000000
vt 1.000000 0.000000
vt 1.000000 1.000000
vt 1.000000 0.000000
vt 1.000000 1.000000
vt 1.000000 0.000000
vt 1.000000 1.000000
vt 1.000000 0.000000
vt 1.000000 1.000000
vt 1.000000 0.000000
vt 1.000000 1.000000
vt 1.000000 0.000000
vt 0.228679 0.000000
vt 0.263106 -0.000684
vt 0.927023 1.000000
vt 0.902697 1.000000
vt 0.910806 1.000000
vt 0.918914 1.000000
vt 0.156456 0.000000
vt 0.160141 0.000000
vt 0.102830 0.000000
vt 0.114648 0.000000
vt 0.091011 0.000000
vt 0.886480 0.000000
vt 0.894588 0.000000
vt 0.870263 0.000000
vt 0.837828 0.000000
vt 0.854046 0.000000
vt 0.182021 0.000000
vt 0.126467 0.000000
vt 0.083426 0.000000
vt 0.607540 0.000000
vt 0.649635 0.000000
vt 0.565444 0.000000
vt 0.523348 0.000000
vt 0.481253 0.000000
vt 0.439157 0.000000
vt 0.397061 0.000000
vt 0.354966 0.000000
vt 0.312870 0.000000
vt 0.279127 -0.000484
vt 0.805394 0.000000
vt 0.772960 0.000000
vt 0.740525 0.000000
vt 0.708091 0.000000
vt 0.691731 0.000000
vt 0.212358 0.000000
vt 1.000000 1.000000
vt 1.000000 0.000000
vt 1.000000 0.000000
vt 1.000000 1.000000
vt 0.182021 0.500000
vt 0.212358 0.500000
vt 0.212358 1.000000
vt 0.182021 1.000000
vt 0.228678 0.500000
vt 0.228678 1.000000
vt 0.691731 0.500000
vt 0.708091 0.500000
vt 0.708091 1.000000
vt 0.691731 1.000000
vt 0.649636 0.500000
vt 0.649636 1.000000
vt 0.740525 0.500000
vt 0.740525 1.000000
vt 0.772960 0.500000
vt 0.772960 1.000000
vt 0.805394 0.500000
vt 0.805394 1.000000
vt 0.837828 0.500000
vt 0.837828 1.000000
vt 0.854046 0.500000
vt 0.870263 0.500000
vt 0.870263 1.000000
vt 0.854046 1.000000
vt 0.902697 0.000000
vt 0.910806 0.000000
vt 0.910806 0.636792
vt 0.902697 0.544703
vt 1.000000 1.000000
vt 1.000000 0.000000
vt 1.000000 0.000000
vt 1.000000 1.000000
vt 0.927023 0.000000
vt 0.935131 0.000000
vt 0.935131 1.000000
vt 0.927023 0.947664
vt 0.263106 0.499111
vt 0.279126 0.498720
vt 0.279127 0.997939
vt 0.263106 0.998919
vt 0.312870 0.500000
vt 0.312870 1.000000
vt 0.354966 0.500000
vt 0.354966 1.000000
vt 0.397061 0.500000
vt 0.397061 1.000000
vt 0.439157 0.500000
vt 0.439157 1.000000
vt 0.481253 0.500000
vt 0.481253 1.000000
vt 0.523348 0.500000
vt 0.523348 1.000000
vt 0.565444 0.500000
vt 0.565444 1.000000
vt 0.607540 0.500000
vt 0.607540 1.000000
vt 0.083426 0.500000
vt 0.091011 0.500000
vt 0.091011 1.000000
vt 0.083426 1.000000
vt 0.114648 0.500000
vt 0.126467 0.500000
vt 0.126467 1.000000
vt 0.114648 1.000000
vt 0.156456 0.500000
vt 0.156456 1.000000
vt 0.160141 0.500000
vt 0.160141 1.000000
vt 0.886480 0.500000
vt 0.886480 1.000000
vt 0.894588 0.500000
vt 0.894588 1.000000
vt 0.918914 0.000000
vt 0.918914 0.786758
vt 0.967566 0.000000
vt 0.967566 1.000000
vt 0.102830 0.500000
vt 0.102830 1.000000
vt 1.000000 0.000000
vt 1.000000 1.000000
vt 1.000000 0.000000
vt 1.000000 1.000000
vt 1.000000 0.000000
vt 1.000000 1.000000
vt 1.000000 0.000000
vt 1.000000 1.000000
vt 1.000000 0.000000
vt 1.000000 1.000000
vt 1.000000 0.000000
vt 1.000000 1.000000
vt 0.228679 0.000000
vt 0.263106 -0.000684
vt 0.927023 1.000000
vt 0.910806 1.000000
vt 0.902697 1.000000
vt 0.918914 1.000000
vt 0.156456 0.000000
vt 0.160141 0.000000
vt 0.102830 0.000000
vt 0.114648 0.000000
vt 0.091011 0.000000
vt 0.886480 0.000000
vt 0.894588 0.000000
vt 0.870263 0.000000
vt 0.837828 0.000000
vt 0.854046 0.000000
vt 0.182021 0.000000
vt 0.126467 0.000000
vt 0.083426 0.000000
vt 0.607540 0.000000
vt 0.649635 0.000000
vt 0.565444 0.000000
vt 0.523348 0.000000
vt 0.481253 0.000000
vt 0.439157 0.000000
vt 0.397061 0.000000
vt 0.354966 0.000000
vt 0.312870 0.000000
vt 0.279127 -0.000484
vt 0.805394 0.000000
vt 0.772960 0.000000
vt 0.740525 0.000000
vt 0.708091 0.000000
vt 0.691731 0.000000
vt 0.212358 0.000000
vn 0.0000 -1.0000 0.0000
vn 0.0000 1.0000 0.0000
vn 0.0000 1.0000 -0.0001
vn 0.0000 1.0000 0.0001
vn 0.0000 0.0000 1.0000
vn 0.9885 0.0000 0.1509
vn 1.0000 0.0000 0.0000
vn -0.5616 0.0000 0.8274
vn 0.4093 0.0000 0.9124
vn 0.8287 0.0000 0.5597
vn 0.9741 0.0000 0.2262
vn 0.5696 0.0000 0.8219
vn -0.3645 0.0000 -0.9312
vn -0.0188 0.0000 -0.9998
vn 0.1078 0.0000 -0.9942
vn 0.9387 0.0000 -0.3448
vn 0.4905 0.0000 -0.8714
vn 0.1826 0.0000 -0.9832
vn -0.1826 0.0000 -0.9832
vn -0.0449 0.0000 -0.9990
vn -0.4509 0.0000 -0.8926
vn -1.0000 0.0000 0.0000
vn -0.3723 0.0000 -0.9281
vn 0.7398 0.0000 -0.6728
vn -0.2717 0.0000 -0.9624
vn -0.1815 0.0000 -0.9834
vn 0.0000 0.0000 -1.0000
vn 0.9084 0.0000 -0.4181
vn -0.1055 0.0000 -0.9944
vn 0.0083 0.0000 -1.0000
vn -0.0199 0.0000 -0.9998
vn -0.0343 0.0000 -0.9994
vn -0.1896 0.0000 -0.9819
vn 0.0343 0.0000 -0.9994
vn 0.6162 0.0000 -0.7876
vn 0.1941 0.0000 -0.9810
vn -0.0588 0.0000 -0.9983
vn 0.9031 0.0000 -0.4294
vn 0.2845 0.0000 -0.9587
vn 0.9449 0.0000 -0.3273
vn -0.2559 0.0000 -0.9667
vn 0.3810 0.0000 -0.9246
vn -0.9164 0.0000 -0.4003
vn -0.2166 0.0000 -0.9763
vn 0.3679 0.0000 -0.9299
vn 0.2550 0.0000 -0.9669
vn -0.3135 0.0000 -0.9496
vn -0.6898 0.0000 -0.7240
vn 0.1468 0.0000 -0.9892
vn -0.5399 0.0000 -0.8417
vn 0.0494 0.0000 -0.9988
g versal_end2_Plane.017_gora_dol
usemtl gora_dol
s off
f 91/1/1 90/2/1 87/3/1 86/4/1
f 115/5/1 47/6/1 4/7/1 93/8/1
f 93/8/1 4/7/1 6/9/1 94/10/1
f 96/11/1 9/12/1 8/13/1 95/14/1
f 111/15/1 27/16/1 9/12/1 96/11/1
f 95/14/1 8/13/1 26/17/1 97/18/1
f 97/18/1 26/17/1 25/19/1 98/20/1
f 98/20/1 25/19/1 24/21/1 99/22/1
f 99/22/1 24/21/1 23/23/1 100/24/1
f 116/25/1 56/26/1 22/27/1 101/28/1
f 16/29/1 124/30/1 123/31/1 61/32/1
f 81/33/1 92/34/1 85/35/1 80/36/1
f 63/37/1 125/38/1 20/39/1 17/40/1
f 127/41/1 129/42/1 36/43/1 102/44/1
f 102/44/1 36/43/1 35/45/1 103/46/1
f 103/46/1 35/45/1 34/47/1 104/48/1
f 104/48/1 34/47/1 33/49/1 105/50/1
f 105/50/1 33/49/1 32/51/1 106/52/1
f 106/52/1 32/51/1 31/53/1 107/54/1
f 107/54/1 31/53/1 30/55/1 108/56/1
f 108/56/1 30/55/1 29/57/1 109/58/1
f 109/58/1 29/57/1 28/59/1 110/60/1
f 110/60/1 28/59/1 27/16/1 111/15/1
f 119/61/1 67/62/1 50/63/1 112/64/1
f 121/65/1 69/66/1 49/67/1 113/68/1
f 113/68/1 49/67/1 48/69/1 114/70/1
f 122/71/1 73/72/1 47/6/1 115/5/1
f 100/24/1 23/23/1 56/26/1 116/25/1
f 101/28/1 22/27/1 58/73/1 117/74/1
f 117/74/1 58/73/1 60/75/1 118/76/1
f 62/77/1 126/78/1 125/38/1 63/37/1
f 17/40/1 20/39/1 19/79/1 18/80/1
f 61/32/1 123/31/1 126/78/1 62/77/1
f 112/64/1 50/63/1 70/81/1 120/82/1
f 120/82/1 70/81/1 69/66/1 121/65/1
f 114/70/1 48/69/1 73/72/1 122/71/1
f 18/80/1 19/79/1 2/83/1 1/84/1
f 2/83/1 84/85/1 77/86/1 1/84/1
f 84/85/1 83/87/1 78/88/1 77/86/1
f 83/87/1 82/89/1 79/90/1 78/88/1
f 82/89/1 81/33/1 80/36/1 79/90/1
f 90/2/1 89/91/1 88/92/1 87/3/1
f 92/34/1 91/1/1 86/4/1 85/35/1
f 89/91/1 76/93/1 75/94/1 88/92/1
f 5/95/1 94/10/1 127/41/1 128/96/1
f 94/10/1 6/9/1 129/42/1 127/41/1
f 125/38/1 64/97/1 20/39/1
f 124/30/1 21/98/1 66/99/1 123/31/1
f 118/76/1 60/75/1 21/98/1 124/30/1
f 126/78/1 65/100/1 64/97/1 125/38/1
f 53/101/1 114/70/1 122/71/1 74/102/1
f 71/103/1 120/82/1 121/65/1 72/104/1
f 51/105/1 112/64/1 120/82/1 71/103/1
f 57/106/1 117/74/1 118/76/1 59/107/1
f 15/108/1 101/28/1 117/74/1 57/106/1
f 14/109/1 100/24/1 116/25/1 55/110/1
f 74/102/1 122/71/1 115/5/1 54/111/1
f 52/112/1 113/68/1 114/70/1 53/101/1
f 72/104/1 121/65/1 113/68/1 52/112/1
f 68/113/1 119/61/1 112/64/1 51/105/1
f 45/114/1 110/60/1 111/15/1 46/115/1
f 44/116/1 109/58/1 110/60/1 45/114/1
f 43/117/1 108/56/1 109/58/1 44/116/1
f 42/118/1 107/54/1 108/56/1 43/117/1
f 41/119/1 106/52/1 107/54/1 42/118/1
f 40/120/1 105/50/1 106/52/1 41/119/1
f 39/121/1 104/48/1 105/50/1 40/120/1
f 38/122/1 103/46/1 104/48/1 39/121/1
f 37/123/1 102/44/1 103/46/1 38/122/1
f 128/96/1 127/41/1 102/44/1 37/123/1
f 55/110/1 116/25/1 101/28/1 15/108/1
f 13/124/1 99/22/1 100/24/1 14/109/1
f 12/125/1 98/20/1 99/22/1 13/124/1
f 11/126/1 97/18/1 98/20/1 12/125/1
f 7/127/1 95/14/1 97/18/1 11/126/1
f 46/115/1 111/15/1 96/11/1 10/128/1
f 10/128/1 96/11/1 95/14/1 7/127/1
f 3/129/1 93/8/1 94/10/1 5/95/1
f 54/111/1 115/5/1 93/8/1 3/129/1
f 123/31/1 66/99/1 65/100/1 126/78/1
f 59/107/1 118/76/1 124/30/1 16/29/1
f 254/130/2 249/131/2 250/132/2 253/133/2
f 219/134/2 136/135/2 135/136/2 204/137/2
f 136/135/2 139/138/2 134/139/2 135/136/2
f 147/140/2 144/141/2 143/142/2 145/143/2
f 203/144/2 147/140/2 145/143/2 174/145/2
f 144/141/2 169/146/2 142/147/2 143/142/2
f 169/146/2 170/148/2 168/149/2 142/147/2
f 170/148/3 171/150/3 167/151/3 168/149/3
f 171/150/2 172/152/2 166/153/2 167/151/2
f 220/154/2 173/155/2 164/156/2 165/157/2
f 155/158/2 225/159/2 236/160/2 255/161/2
f 245/162/2 243/163/2 248/164/2 244/165/2
f 156/166/2 157/167/2 160/168/2 256/169/2
f 258/170/2 194/171/2 183/172/2 138/173/2
f 194/171/2 195/174/2 182/175/2 183/172/2
f 195/174/2 196/176/2 181/177/2 182/175/2
f 196/176/2 197/178/2 180/179/2 181/177/2
f 197/178/2 198/180/2 179/181/2 180/179/2
f 198/180/2 199/182/2 178/183/2 179/181/2
f 199/182/2 200/184/2 177/185/2 178/183/2
f 200/184/2 201/186/2 176/187/2 177/185/2
f 201/186/2 202/188/2 175/189/2 176/187/2
f 202/188/2 203/144/2 174/145/2 175/189/2
f 230/190/2 216/191/2 209/192/2 229/193/2
f 234/194/2 217/195/2 207/196/2 231/197/2
f 217/195/2 218/198/2 206/199/2 207/196/2
f 235/200/2 219/134/2 204/137/2 205/201/2
f 172/152/2 220/154/2 165/157/2 166/153/2
f 173/155/2 223/202/2 163/203/2 164/156/2
f 223/202/2 224/204/2 222/205/2 163/203/2
f 226/206/2 156/166/2 256/169/2 257/207/2
f 157/167/4 130/208/4 159/209/4 160/168/4
f 225/159/2 226/206/2 257/207/2 236/160/2
f 216/191/2 233/210/2 208/211/2 209/192/2
f 233/210/2 234/194/2 231/197/2 208/211/2
f 218/198/2 235/200/2 205/201/2 206/199/2
f 130/208/2 131/212/2 158/213/2 159/209/2
f 158/213/2 131/212/2 240/214/2 239/215/2
f 239/215/2 240/214/2 241/216/2 247/217/2
f 247/217/2 241/216/2 242/218/2 246/219/2
f 246/219/2 242/218/2 243/163/2 245/162/2
f 253/133/2 250/132/2 237/220/2 252/221/2
f 244/165/2 248/164/2 249/131/2 254/130/2
f 252/221/2 237/220/2 238/222/2 251/223/2
f 137/224/2 184/225/2 258/170/2 139/138/2
f 139/138/2 258/170/2 138/173/2 134/139/2
f 256/169/2 160/168/2 227/226/2
f 255/161/4 236/160/4 161/227/4 162/228/4
f 224/204/2 255/161/2 162/228/2 222/205/2
f 257/207/2 256/169/2 227/226/2 228/229/2
f 214/230/2 215/231/2 235/200/2 218/198/2
f 232/232/2 212/233/2 234/194/2 233/210/2
f 211/234/2 232/232/2 233/210/2 216/191/2
f 221/235/2 154/236/2 224/204/2 223/202/2
f 153/237/2 221/235/2 223/202/2 173/155/2
f 151/238/2 152/239/2 220/154/2 172/152/2
f 215/231/2 132/240/2 219/134/2 235/200/2
f 213/241/2 214/230/2 218/198/2 217/195/2
f 212/233/2 213/241/2 217/195/2 234/194/2
f 210/242/2 211/234/2 216/191/2 230/190/2
f 193/243/2 146/244/2 203/144/2 202/188/2
f 192/245/2 193/243/2 202/188/2 201/186/2
f 191/246/2 192/245/2 201/186/2 200/184/2
f 190/247/2 191/246/2 200/184/2 199/182/2
f 189/248/2 190/247/2 199/182/2 198/180/2
f 188/249/2 189/248/2 198/180/2 197/178/2
f 187/250/2 188/249/2 197/178/2 196/176/2
f 186/251/2 187/250/2 196/176/2 195/174/2
f 185/252/2 186/251/2 195/174/2 194/171/2
f 184/225/2 185/252/2 194/171/2 258/170/2
f 152/239/2 153/237/2 173/155/2 220/154/2
f 150/253/2 151/238/2 172/152/2 171/150/2
f 149/254/4 150/253/4 171/150/4 170/148/4
f 148/255/3 149/254/3 170/148/3 169/146/3
f 141/256/2 148/255/2 169/146/2 144/141/2
f 146/244/2 140/257/2 147/140/2 203/144/2
f 140/257/2 141/256/2 144/141/2 147/140/2
f 133/258/2 137/224/2 139/138/2 136/135/2
f 132/240/2 133/258/2 136/135/2 219/134/2
f 236/160/2 257/207/2 228/229/2 161/227/2
f 154/236/2 155/158/2 255/161/2 224/204/2
g versal_end2_Plane.017_tyl
usemtl tyl
f 39/121/5 40/120/5 188/249/5 187/250/5
f 53/101/5 74/102/5 215/231/5 214/230/5
f 40/120/5 41/119/5 189/248/5 188/249/5
f 41/119/5 42/118/5 190/247/5 189/248/5
f 14/109/5 55/110/5 152/239/5 151/238/5
f 42/118/5 43/117/5 191/246/5 190/247/5
f 88/92/6 75/94/6 238/222/6 237/220/6
f 43/117/5 44/116/5 192/245/5 191/246/5
f 44/116/5 45/114/5 193/243/5 192/245/5
f 18/80/5 1/84/5 131/212/5 130/208/5
f 1/84/5 77/86/5 240/214/5 131/212/5
f 15/108/5 57/106/5 221/235/5 153/237/5
f 45/114/5 46/115/5 146/244/5 193/243/5
f 54/111/5 3/129/5 133/258/5 132/240/5
f 77/86/5 78/88/5 241/216/5 240/214/5
f 78/88/5 79/90/5 242/218/5 241/216/5
f 79/90/5 80/36/5 243/163/5 242/218/5
f 57/106/5 59/107/5 154/236/5 221/235/5
f 3/129/5 5/95/5 137/224/5 133/258/5
f 75/94/7 76/93/7 251/223/7 238/222/7
f 16/29/5 61/32/5 225/159/5 155/158/5
f 10/128/8 7/127/8 141/256/8 140/257/8
f 61/32/5 62/77/5 226/206/5 225/159/5
f 80/36/5 85/35/5 248/164/5 243/163/5
f 62/77/5 63/37/5 156/166/5 226/206/5
f 85/35/9 86/4/9 249/131/9 248/164/9
f 86/4/10 87/3/10 250/132/10 249/131/10
f 46/115/5 10/128/5 140/257/5 146/244/5
f 87/3/11 88/92/11 237/220/11 250/132/11
f 7/127/5 11/126/5 148/255/5 141/256/5
f 11/126/5 12/125/5 149/254/5 148/255/5
f 5/95/5 128/96/5 184/225/5 137/224/5
f 12/125/5 13/124/5 150/253/5 149/254/5
f 68/113/5 51/105/5 211/234/5 210/242/5
f 13/124/5 14/109/5 151/238/5 150/253/5
f 51/105/5 71/103/5 232/232/5 211/234/5
f 72/104/5 52/112/5 213/241/5 212/233/5
f 55/110/5 15/108/5 153/237/5 152/239/5
f 71/103/5 72/104/5 212/233/5 232/232/5
f 52/112/5 53/101/5 214/230/5 213/241/5
f 128/96/12 37/123/12 185/252/12 184/225/12
f 59/107/5 16/29/5 155/158/5 154/236/5
f 74/102/5 54/111/5 132/240/5 215/231/5
f 37/123/5 38/122/5 186/251/5 185/252/5
f 63/37/5 17/40/5 157/167/5 156/166/5
f 38/122/5 39/121/5 187/250/5 186/251/5
f 17/40/5 18/80/5 130/208/5 157/167/5
g versal_end2_Plane.017_front
usemtl front
f 47/6/13 73/72/13 205/201/13 204/137/13
f 2/83/14 19/79/14 159/209/14 158/213/14
f 19/79/15 20/39/15 160/168/15 159/209/15
f 66/99/16 21/98/16 162/228/16 161/227/16
f 58/73/17 22/27/17 164/156/17 163/203/17
f 22/27/18 56/26/18 165/157/18 164/156/18
f 56/26/19 23/23/19 166/153/19 165/157/19
f 84/85/20 2/83/20 158/213/20 239/215/20
f 23/23/21 24/21/21 167/151/21 166/153/21
f 119/61/22 68/113/22 210/242/22 230/190/22
f 24/21/23 25/19/23 168/149/23 167/151/23
f 60/75/24 58/73/24 163/203/24 222/205/24
f 25/19/25 26/17/25 142/147/25 168/149/25
f 6/9/26 4/7/26 135/136/26 134/139/26
f 92/34/27 81/33/27 245/162/27 244/165/27
f 21/98/28 60/75/28 222/205/28 162/228/28
f 129/42/29 6/9/29 134/139/29 138/173/29
f 81/33/30 82/89/30 246/219/30 245/162/30
f 82/89/27 83/87/27 247/217/27 246/219/27
f 83/87/31 84/85/31 239/215/31 247/217/31
f 9/12/32 27/16/32 174/145/32 145/143/32
f 26/17/33 8/13/33 143/142/33 142/147/33
f 27/16/34 28/59/34 175/189/34 174/145/34
f 20/39/35 64/97/35 227/226/35 160/168/35
f 28/59/36 29/57/36 176/187/36 175/189/36
f 8/13/37 9/12/37 145/143/37 143/142/37
f 64/97/38 65/100/38 228/229/38 227/226/38
f 29/57/39 30/55/39 177/185/39 176/187/39
f 65/100/40 66/99/40 161/227/40 228/229/40
f 4/7/41 47/6/41 204/137/41 135/136/41
f 30/55/42 31/53/42 178/183/42 177/185/42
f 76/93/27 89/91/27 252/221/27 251/223/27
f 50/63/43 67/62/43 229/193/43 209/192/43
f 73/72/44 48/69/44 206/199/44 205/201/44
f 31/53/45 32/51/45 179/181/45 178/183/45
f 89/91/27 90/2/27 253/133/27 252/221/27
f 67/62/22 119/61/22 230/190/22 229/193/22
f 48/69/27 49/67/27 207/196/27 206/199/27
f 36/43/29 129/42/29 138/173/29 183/172/29
f 32/51/46 33/49/46 180/179/46 179/181/46
f 90/2/27 91/1/27 254/130/27 253/133/27
f 49/67/47 69/66/47 231/197/47 207/196/47
f 70/81/48 50/63/48 209/192/48 208/211/48
f 33/49/49 34/47/49 181/177/49 180/179/49
f 91/1/27 92/34/27 244/165/27 254/130/27
f 69/66/50 70/81/50 208/211/50 231/197/50
f 34/47/51 35/45/51 182/175/51 181/177/51
f 35/45/27 36/43/27 183/172/27 182/175/27
