# Blender v3.2.0 OBJ File: 'panele.blend'
# www.blender.org
mtllib versal_main.mtl
o versal_main_Plane.015
v -0.018389 0.000000 -0.002305
v 0.073005 0.000000 0.006300
v -0.018389 0.000000 0.006300
v 0.073005 0.000000 0.001147
v 0.027198 0.000000 0.006300
v 0.027198 0.000000 -0.005810
v 0.028147 0.000000 0.005650
v 0.028147 0.000000 -0.005987
v 0.056029 0.000000 0.006300
v 0.056029 0.000000 -0.002011
v 0.055077 0.000000 -0.001955
v 0.055077 0.000000 0.005650
v 0.057915 0.000000 0.006300
v 0.059801 0.000000 0.006300
v 0.061687 0.000000 0.006300
v 0.063574 0.000000 0.006300
v 0.065460 0.000000 0.006300
v 0.067346 0.000000 0.006300
v 0.069232 0.000000 0.006300
v 0.071119 0.000000 0.006300
v 0.071119 0.000000 0.001232
v 0.069232 0.000000 0.001288
v 0.067346 0.000000 -0.002547
v 0.065460 0.000000 -0.004634
v 0.063574 0.000000 -0.004634
v 0.061687 0.000000 -0.003675
v 0.059801 0.000000 -0.002914
v 0.057915 0.000000 -0.002378
v 0.052629 0.000000 -0.001870
v 0.050181 0.000000 -0.001955
v 0.047733 0.000000 -0.002442
v 0.045284 0.000000 -0.003173
v 0.042836 0.000000 -0.004188
v 0.040388 0.000000 -0.005163
v 0.037940 0.000000 -0.005813
v 0.035492 0.000000 -0.006178
v 0.033044 0.000000 -0.006300
v 0.030596 0.000000 -0.006300
v 0.030596 0.000000 0.005650
v 0.033044 0.000000 0.005650
v 0.035492 0.000000 0.005650
v 0.037940 0.000000 0.005650
v 0.040388 0.000000 0.005650
v 0.042836 0.000000 0.005650
v 0.045284 0.000000 0.005650
v 0.047733 0.000000 0.005650
v 0.050181 0.000000 0.005650
v 0.052629 0.000000 0.005650
v 0.025434 0.000000 -0.005340
v 0.023947 0.000000 -0.004791
v 0.022203 0.000000 -0.004791
v 0.020141 0.000000 -0.003460
v 0.018377 0.000000 0.001103
v 0.016612 0.000000 0.001103
v 0.016612 0.000000 0.006300
v 0.018377 0.000000 0.006300
v 0.020141 0.000000 0.006300
v 0.022203 0.000000 0.006300
v 0.023947 0.000000 0.006300
v 0.025434 0.000000 0.006300
v 0.064517 0.000000 0.006300
v 0.064517 0.000000 -0.004810
v 0.066403 0.000000 0.006300
v 0.066403 0.000000 -0.004100
v 0.066875 0.000000 0.006300
v 0.066875 0.000000 -0.003578
v 0.067818 0.000000 0.006300
v 0.068289 0.000000 0.006300
v 0.068761 0.000000 0.006300
v 0.068761 0.000000 0.001074
v 0.068289 0.000000 0.000115
v 0.067818 0.000000 -0.001255
v 0.015730 0.000000 0.001024
v 0.015730 0.000000 0.006300
v 0.019700 0.000000 -0.002444
v 0.019259 0.000000 -0.000839
v 0.018818 0.000000 0.000563
v 0.018818 0.000000 0.006300
v 0.019259 0.000000 0.006300
v 0.019700 0.000000 0.006300
v 0.018597 0.000000 0.000935
v 0.018597 0.000000 0.006300
v 0.021516 0.000000 -0.004563
v 0.020828 0.000000 -0.004119
v 0.020828 0.000000 0.006300
v 0.021516 0.000000 0.006300
v 0.024161 0.000000 -0.004839
v 0.024161 0.000000 0.006300
v 0.083465 0.000000 0.001748
v 0.083465 0.000000 0.001243
v 0.075097 0.000000 0.006300
v 0.077189 0.000000 0.006300
v 0.079281 0.000000 0.006300
v 0.081373 0.000000 0.006300
v 0.081373 0.000000 0.001243
v 0.079281 0.000000 0.001243
v 0.077189 0.000000 0.001243
v 0.075097 0.000000 0.001147
v 0.081791 0.000000 0.006300
v 0.082210 0.000000 0.006111
v 0.082628 0.000000 0.005488
v 0.083047 0.000000 0.003674
v 0.083047 0.000000 0.001243
v 0.082628 0.000000 0.001243
v 0.082210 0.000000 0.001243
v 0.081791 0.000000 0.001243
v 0.008519 0.000000 0.006300
v 0.005873 0.000000 -0.004839
v 0.009206 0.000000 0.006300
v 0.005873 0.000000 0.006300
v 0.009206 0.000000 -0.004119
v 0.008519 0.000000 -0.004563
v 0.011437 0.000000 0.006300
v 0.011437 0.000000 0.000935
v 0.010335 0.000000 0.006300
v 0.010776 0.000000 0.006300
v 0.011217 0.000000 0.006300
v 0.011217 0.000000 0.000563
v 0.010776 0.000000 -0.000839
v 0.010335 0.000000 -0.002444
v 0.014304 0.000000 0.006300
v 0.014304 0.000000 0.001024
v -0.037985 0.000000 -0.001236
v -0.038293 0.000000 0.000115
v -0.038535 0.000000 0.001355
v -0.037147 0.000000 -0.003776
v -0.036474 0.000000 -0.004374
v -0.034424 0.000000 -0.004952
v 0.004601 0.000000 0.006300
v 0.006088 0.000000 0.006300
v 0.007832 0.000000 0.006300
v 0.009894 0.000000 0.006300
v 0.011658 0.000000 0.006300
v 0.013422 0.000000 0.006300
v 0.013422 0.000000 0.001103
v 0.011658 0.000000 0.001103
v 0.009894 0.000000 -0.003460
v 0.007832 0.000000 -0.004791
v 0.006088 0.000000 -0.004791
v 0.004601 0.000000 -0.005340
v -0.022594 0.000000 0.006300
v -0.020146 0.000000 0.006300
v -0.017572 0.000000 0.005650
v -0.015250 0.000000 0.005650
v -0.012802 0.000000 0.005650
v -0.010353 0.000000 0.005650
v -0.007905 0.000000 0.005650
v -0.005457 0.000000 0.005650
v -0.003009 0.000000 0.005650
v -0.000561 0.000000 0.005650
v -0.000561 0.000000 -0.006300
v -0.003009 0.000000 -0.006300
v -0.005457 0.000000 -0.006178
v -0.007905 0.000000 -0.005813
v -0.010353 0.000000 -0.005163
v -0.012802 0.000000 -0.004188
v -0.015250 0.000000 -0.003173
v -0.017572 0.000000 -0.002480
v -0.020146 0.000000 -0.001955
v -0.022594 0.000000 -0.001870
v -0.027880 0.000000 -0.002378
v -0.029766 0.000000 -0.002914
v -0.031653 0.000000 -0.003675
v -0.033510 0.000000 -0.004634
v -0.035560 0.000000 -0.004832
v -0.037638 0.000000 -0.002802
v -0.034992 0.000000 -0.004920
v -0.031341 0.000000 0.006300
v -0.029766 0.000000 0.006300
v -0.027880 0.000000 0.006300
v -0.025042 0.000000 0.006300
v -0.025042 0.000000 -0.001955
v -0.025994 0.000000 -0.002011
v -0.025994 0.000000 0.006300
v 0.001887 0.000000 -0.005987
v 0.001887 0.000000 0.005650
v 0.002836 0.000000 -0.005810
v 0.002836 0.000000 0.006300
v 0.015017 0.000000 0.001024
v 0.015017 0.000000 0.006300
v -0.018389 0.000000 0.001998
v 0.027198 0.000000 0.000245
v 0.028147 0.000000 -0.000168
v 0.056029 0.000000 0.002144
v 0.055077 0.000000 0.001848
v 0.057915 0.000000 0.001961
v 0.059801 0.000000 0.001693
v 0.061687 0.000000 0.001312
v 0.063574 0.000000 0.000833
v 0.065460 0.000000 0.000833
v 0.030596 0.000000 -0.000325
v 0.033044 0.000000 -0.000325
v 0.035492 0.000000 -0.000264
v 0.037940 0.000000 -0.000081
v 0.040388 0.000000 0.000244
v 0.042836 0.000000 0.000731
v 0.045284 0.000000 0.001239
v 0.047733 0.000000 0.001604
v 0.050181 0.000000 0.001848
v 0.052629 0.000000 0.001890
v 0.016612 0.000000 0.003701
v 0.018377 0.000000 0.003701
v 0.020141 0.000000 0.001420
v 0.022203 0.000000 0.000754
v 0.023947 0.000000 0.000754
v 0.025434 0.000000 0.000480
v 0.064517 0.000000 0.000745
v 0.066403 0.000000 0.001100
v 0.066875 0.000000 0.001361
v 0.015730 0.000000 0.003662
v 0.018818 0.000000 0.003431
v 0.019259 0.000000 0.002731
v 0.019700 0.000000 0.001928
v 0.018597 0.000000 0.003617
v 0.020828 0.000000 0.001090
v 0.021516 0.000000 0.000868
v 0.024161 0.000000 0.000730
v 0.067818 0.000000 0.001489
v -0.037281 0.000000 0.001355
v -0.038117 0.000000 0.001355
v -0.037699 0.000000 0.001355
v -0.036863 0.000000 0.001355
v 0.067346 0.000000 0.001481
v 0.068761 0.000000 0.001347
v 0.068289 0.000000 0.001434
v 0.008519 0.000000 0.000868
v 0.005873 0.000000 0.000730
v 0.009206 0.000000 0.001090
v 0.011437 0.000000 0.003617
v 0.010335 0.000000 0.001928
v 0.010776 0.000000 0.002731
v 0.011217 0.000000 0.003431
v 0.014304 0.000000 0.003662
v -0.036444 0.000000 0.001355
v -0.034070 0.000000 0.001355
v 0.004601 0.000000 0.000480
v 0.006088 0.000000 0.000754
v 0.007832 0.000000 0.000754
v 0.009894 0.000000 0.001420
v 0.011658 0.000000 0.003701
v 0.013422 0.000000 0.003701
v -0.022594 0.000000 0.002215
v -0.020146 0.000000 0.002173
v -0.017572 0.000000 0.001585
v -0.015250 0.000000 0.001239
v -0.012802 0.000000 0.000731
v -0.010353 0.000000 0.000244
v -0.007905 0.000000 -0.000081
v -0.005457 0.000000 -0.000264
v -0.003009 0.000000 -0.000325
v -0.000561 0.000000 -0.000325
v -0.034743 0.000000 0.001355
v -0.035416 0.000000 0.001355
v -0.032308 0.000000 0.001355
v -0.030692 0.000000 0.001355
v -0.029766 0.000000 0.001693
v -0.027880 0.000000 0.001961
v -0.025042 0.000000 0.002173
v -0.025994 0.000000 0.002144
v 0.001887 0.000000 -0.000168
v 0.002836 0.000000 0.000245
v 0.015017 0.000000 0.003662
v -0.018389 2.700000 0.001998
v -0.018389 2.700000 0.006300
v 0.071119 2.700000 0.006300
v 0.073005 2.700000 0.006300
v -0.036444 2.700000 0.001355
v -0.036863 2.700000 0.001355
v -0.017572 2.700000 -0.002480
v -0.018389 2.700000 -0.002305
v 0.025434 2.700000 0.006300
v 0.027198 2.700000 0.006300
v 0.028147 2.700000 -0.005987
v 0.027198 2.700000 -0.005810
v 0.027198 2.700000 0.000245
v 0.028147 2.700000 0.005650
v 0.030596 2.700000 -0.006300
v 0.028147 2.700000 -0.000168
v 0.055077 2.700000 0.005650
v 0.056029 2.700000 0.006300
v 0.057915 2.700000 -0.002378
v 0.056029 2.700000 -0.002011
v 0.056029 2.700000 0.002144
v 0.055077 2.700000 -0.001955
v 0.052629 2.700000 0.005650
v 0.055077 2.700000 0.001848
v 0.057915 2.700000 0.006300
v 0.059801 2.700000 0.006300
v 0.061687 2.700000 0.006300
v 0.063574 2.700000 0.006300
v 0.064517 2.700000 0.006300
v 0.065460 2.700000 0.006300
v 0.066875 2.700000 0.006300
v 0.067346 2.700000 0.006300
v 0.068761 2.700000 0.006300
v 0.069232 2.700000 0.006300
v 0.073005 2.700000 0.001147
v 0.071119 2.700000 0.001232
v 0.069232 2.700000 0.001288
v 0.067818 2.700000 -0.001255
v 0.067346 2.700000 -0.002547
v 0.066403 2.700000 -0.004100
v 0.065460 2.700000 -0.004634
v 0.064517 2.700000 -0.004810
v 0.063574 2.700000 -0.004634
v 0.061687 2.700000 -0.003675
v 0.059801 2.700000 -0.002914
v 0.057915 2.700000 0.001961
v 0.059801 2.700000 0.001693
v 0.061687 2.700000 0.001312
v 0.063574 2.700000 0.000833
v 0.065460 2.700000 0.000833
v -0.037281 2.700000 0.001355
v -0.037699 2.700000 0.001355
v 0.052629 2.700000 -0.001870
v 0.050181 2.700000 -0.001955
v 0.047733 2.700000 -0.002442
v 0.045284 2.700000 -0.003173
v 0.042836 2.700000 -0.004188
v 0.040388 2.700000 -0.005163
v 0.037940 2.700000 -0.005813
v 0.035492 2.700000 -0.006178
v 0.033044 2.700000 -0.006300
v 0.030596 2.700000 0.005650
v 0.033044 2.700000 0.005650
v 0.035492 2.700000 0.005650
v 0.037940 2.700000 0.005650
v 0.040388 2.700000 0.005650
v 0.042836 2.700000 0.005650
v 0.045284 2.700000 0.005650
v 0.047733 2.700000 0.005650
v 0.050181 2.700000 0.005650
v 0.030596 2.700000 -0.000325
v 0.033044 2.700000 -0.000325
v 0.035492 2.700000 -0.000264
v 0.037940 2.700000 -0.000081
v 0.040388 2.700000 0.000244
v 0.042836 2.700000 0.000731
v 0.045284 2.700000 0.001239
v 0.047733 2.700000 0.001604
v 0.050181 2.700000 0.001848
v 0.052629 2.700000 0.001890
v 0.025434 2.700000 -0.005340
v 0.024161 2.700000 -0.004839
v 0.023947 2.700000 -0.004791
v 0.022203 2.700000 -0.004791
v 0.020828 2.700000 -0.004119
v 0.020141 2.700000 -0.003460
v 0.018597 2.700000 0.000935
v 0.018377 2.700000 0.001103
v 0.016612 2.700000 0.001103
v 0.015730 2.700000 0.006300
v 0.016612 2.700000 0.006300
v 0.018377 2.700000 0.006300
v 0.019700 2.700000 0.006300
v 0.020141 2.700000 0.006300
v 0.021516 2.700000 0.006300
v 0.022203 2.700000 0.006300
v 0.023947 2.700000 0.006300
v 0.024161 2.700000 0.006300
v 0.016612 2.700000 0.003701
v 0.018377 2.700000 0.003701
v 0.020141 2.700000 0.001420
v 0.022203 2.700000 0.000754
v 0.023947 2.700000 0.000754
v 0.025434 2.700000 0.000480
v 0.064517 2.700000 0.000745
v 0.066403 2.700000 0.006300
v 0.066875 2.700000 -0.003578
v 0.066403 2.700000 0.001100
v 0.066875 2.700000 0.001361
v 0.067818 2.700000 0.006300
v 0.068289 2.700000 0.006300
v 0.068761 2.700000 0.001074
v 0.068289 2.700000 0.000115
v 0.015730 2.700000 0.001024
v -0.020146 2.700000 0.006300
v 0.015730 2.700000 0.003662
v 0.019700 2.700000 -0.002444
v 0.019259 2.700000 -0.000839
v 0.018818 2.700000 0.000563
v 0.018597 2.700000 0.006300
v 0.018818 2.700000 0.006300
v 0.019259 2.700000 0.006300
v 0.018818 2.700000 0.003431
v 0.019259 2.700000 0.002731
v 0.019700 2.700000 0.001928
v 0.018597 2.700000 0.003617
v 0.021516 2.700000 -0.004563
v 0.020828 2.700000 0.006300
v 0.020828 2.700000 0.001090
v 0.021516 2.700000 0.000868
v 0.024161 2.700000 0.000730
v 0.067818 2.700000 0.001489
v 0.083047 2.700000 0.003674
v 0.083465 2.700000 0.001748
v 0.075097 2.700000 0.001147
v 0.075097 2.700000 0.006300
v 0.077189 2.700000 0.006300
v 0.079281 2.700000 0.006300
v 0.081373 2.700000 0.006300
v 0.081791 2.700000 0.001243
v 0.081373 2.700000 0.001243
v 0.079281 2.700000 0.001243
v 0.077189 2.700000 0.001243
v -0.034992 2.700000 -0.004920
v -0.034743 2.700000 0.001355
v 0.081791 2.700000 0.006300
v 0.082210 2.700000 0.006111
v 0.082628 2.700000 0.005488
v 0.083465 2.700000 0.001243
v 0.083047 2.700000 0.001243
v 0.082628 2.700000 0.001243
v 0.082210 2.700000 0.001243
v 0.067346 2.700000 0.001481
v 0.068761 2.700000 0.001347
v 0.068289 2.700000 0.001434
v 0.008519 2.700000 0.000868
v 0.008519 2.700000 -0.004563
v 0.005873 2.700000 -0.004839
v 0.004601 2.700000 -0.005340
v 0.005873 2.700000 0.000730
v 0.009206 2.700000 0.001090
v 0.009206 2.700000 -0.004119
v 0.008519 2.700000 0.006300
v 0.009206 2.700000 0.006300
v 0.009894 2.700000 0.006300
v 0.007832 2.700000 -0.004791
v 0.011437 2.700000 0.003617
v 0.011437 2.700000 0.000935
v 0.011437 2.700000 0.006300
v 0.011658 2.700000 0.006300
v 0.011217 2.700000 0.000563
v 0.010335 2.700000 0.001928
v 0.010335 2.700000 -0.002444
v 0.010776 2.700000 0.002731
v 0.010776 2.700000 -0.000839
v 0.011217 2.700000 0.003431
v 0.010335 2.700000 0.006300
v 0.010776 2.700000 0.006300
v 0.011217 2.700000 0.006300
v 0.009894 2.700000 -0.003460
v 0.014304 2.700000 0.003662
v 0.014304 2.700000 0.001024
v 0.014304 2.700000 0.006300
v 0.015017 2.700000 0.006300
v 0.013422 2.700000 0.001103
v 0.005873 2.700000 0.006300
v 0.006088 2.700000 0.006300
v -0.038117 2.700000 0.001355
v -0.038293 2.700000 0.000115
v -0.037985 2.700000 -0.001236
v -0.038535 2.700000 0.001355
v -0.037147 2.700000 -0.003776
v -0.037638 2.700000 -0.002802
v -0.036474 2.700000 -0.004374
v -0.034070 2.700000 0.001355
v -0.034424 2.700000 -0.004952
v -0.035560 2.700000 -0.004832
v 0.004601 2.700000 0.000480
v 0.006088 2.700000 0.000754
v 0.006088 2.700000 -0.004791
v 0.007832 2.700000 0.000754
v 0.009894 2.700000 0.001420
v 0.011658 2.700000 0.003701
v 0.011658 2.700000 0.001103
v 0.013422 2.700000 0.003701
v 0.004601 2.700000 0.006300
v 0.007832 2.700000 0.006300
v 0.013422 2.700000 0.006300
v 0.002836 2.700000 -0.005810
v -0.022594 2.700000 0.002215
v -0.022594 2.700000 -0.001870
v -0.020146 2.700000 0.002173
v -0.020146 2.700000 -0.001955
v -0.017572 2.700000 0.001585
v -0.015250 2.700000 0.001239
v -0.015250 2.700000 -0.003173
v -0.012802 2.700000 0.000731
v -0.012802 2.700000 -0.004188
v -0.010353 2.700000 0.000244
v -0.010353 2.700000 -0.005163
v -0.007905 2.700000 -0.000081
v -0.007905 2.700000 -0.005813
v -0.005457 2.700000 -0.000264
v -0.005457 2.700000 -0.006178
v -0.003009 2.700000 -0.000325
v -0.003009 2.700000 -0.006300
v -0.000561 2.700000 -0.000325
v -0.000561 2.700000 -0.006300
v -0.022594 2.700000 0.006300
v -0.017572 2.700000 0.005650
v -0.015250 2.700000 0.005650
v -0.012802 2.700000 0.005650
v -0.010353 2.700000 0.005650
v -0.007905 2.700000 0.005650
v -0.005457 2.700000 0.005650
v -0.003009 2.700000 0.005650
v -0.000561 2.700000 0.005650
v 0.001887 2.700000 0.005650
v -0.025042 2.700000 -0.001955
v -0.035416 2.700000 0.001355
v -0.032308 2.700000 0.001355
v -0.033510 2.700000 -0.004634
v -0.030692 2.700000 0.001355
v -0.031653 2.700000 -0.003675
v -0.029766 2.700000 0.001693
v -0.029766 2.700000 -0.002914
v -0.027880 2.700000 0.001961
v -0.027880 2.700000 -0.002378
v -0.031341 2.700000 0.006300
v -0.029766 2.700000 0.006300
v -0.027880 2.700000 0.006300
v -0.025994 2.700000 0.006300
v -0.025042 2.700000 0.002173
v -0.025042 2.700000 0.006300
v -0.025994 2.700000 -0.002011
v -0.025994 2.700000 0.002144
v 0.001887 2.700000 -0.000168
v 0.001887 2.700000 -0.005987
v 0.002836 2.700000 0.006300
v 0.002836 2.700000 0.000245
v 0.015017 2.700000 0.001024
v 0.015017 2.700000 0.003662
vt 1.000000 1.000000
vt 1.000000 1.000000
vt 1.000000 0.000000
vt 1.000000 0.000000
vt 0.182021 0.500000
vt 0.182021 1.000000
vt 0.212358 1.000000
vt 0.212358 0.500000
vt 0.228678 1.000000
vt 0.228678 0.500000
vt 0.691731 0.500000
vt 0.691731 1.000000
vt 0.708091 1.000000
vt 0.708091 0.500000
vt 0.649636 0.500000
vt 0.649636 1.000000
vt 0.740525 1.000000
vt 0.740525 0.500000
vt 0.772960 1.000000
vt 0.772960 0.500000
vt 0.805394 1.000000
vt 0.805394 0.500000
vt 0.837828 1.000000
vt 0.837828 0.500000
vt 0.854046 0.500000
vt 0.854046 1.000000
vt 0.870263 1.000000
vt 0.870263 0.500000
vt 0.902697 0.000000
vt 0.902697 0.544703
vt 0.910806 0.636792
vt 0.910806 0.000000
vt 1.000000 1.000000
vt 1.000000 1.000000
vt 1.000000 0.000000
vt 1.000000 0.000000
vt 0.927023 0.000000
vt 0.927023 0.947664
vt 0.935131 1.000000
vt 0.935131 0.000000
vt 0.270774 1.000000
vt 0.270774 0.500000
vt 0.312870 1.000000
vt 0.312870 0.500000
vt 0.354966 1.000000
vt 0.354966 0.500000
vt 0.397061 1.000000
vt 0.397061 0.500000
vt 0.439157 1.000000
vt 0.439157 0.500000
vt 0.481253 1.000000
vt 0.481253 0.500000
vt 0.523348 1.000000
vt 0.523348 0.500000
vt 0.565444 1.000000
vt 0.565444 0.500000
vt 0.607540 1.000000
vt 0.607540 0.500000
vt 0.015168 0.500000
vt 0.015168 1.000000
vt 0.030337 1.000000
vt 0.030337 0.500000
vt 0.060674 1.000000
vt 0.060674 0.500000
vt 0.083426 0.500000
vt 0.083426 1.000000
vt 0.091011 1.000000
vt 0.091011 0.500000
vt 0.114648 0.500000
vt 0.114648 1.000000
vt 0.126467 1.000000
vt 0.126467 0.500000
vt 0.156456 1.000000
vt 0.156456 0.500000
vt 0.160141 0.500000
vt 0.160141 1.000000
vt 0.886480 1.000000
vt 0.886480 0.500000
vt 0.894588 1.000000
vt 0.894588 0.500000
vt 0.918914 0.000000
vt 0.918914 0.786758
vt 0.967566 1.000000
vt 0.967566 0.000000
vt 0.000000 0.500000
vt 0.000000 1.000000
vt 0.064466 0.500000
vt 0.064466 1.000000
vt 0.068258 1.000000
vt 0.068258 0.500000
vt 0.075842 1.000000
vt 0.075842 0.500000
vt 0.102830 1.000000
vt 0.102830 0.500000
vt 1.000000 1.000000
vt 1.000000 0.000000
vt 1.000000 1.000000
vt 1.000000 0.000000
vt 1.000000 1.000000
vt 1.000000 0.000000
vt 1.000000 1.000000
vt 1.000000 0.000000
vt 1.000000 1.000000
vt 1.000000 0.000000
vt 1.000000 1.000000
vt 1.000000 0.000000
vt 0.156456 0.500000
vt 0.160141 0.500000
vt 0.160141 1.000000
vt 0.156456 1.000000
vt 0.091011 0.500000
vt 0.102830 0.500000
vt 0.102830 1.000000
vt 0.091011 1.000000
vt 0.060674 0.500000
vt 0.064466 0.500000
vt 0.064466 1.000000
vt 0.060674 1.000000
vt 0.068258 0.500000
vt 0.075842 0.500000
vt 0.075842 1.000000
vt 0.068258 1.000000
vt 0.015168 0.500000
vt 0.015168 1.000000
vt 0.886480 0.500000
vt 0.894588 0.526945
vt 0.894588 1.000000
vt 0.886480 1.000000
vt 0.869032 0.500000
vt 0.870263 1.000000
vt 0.823377 0.500000
vt 0.847493 0.500000
vt 0.854046 1.000000
vt 0.837828 1.000000
vt 0.182021 0.500000
vt 0.182021 1.000000
vt 0.083426 0.500000
vt 0.083426 1.000000
vt 0.354966 0.500000
vt 0.397061 0.500000
vt 0.397061 1.000000
vt 0.354966 1.000000
vt 0.439157 0.500000
vt 0.439157 1.000000
vt 0.481253 0.500000
vt 0.481253 1.000000
vt 0.523348 0.500000
vt 0.523348 1.000000
vt 0.563285 0.500000
vt 0.563285 1.000000
vt 0.577326 0.500000
vt 0.607540 0.500000
vt 0.607540 1.000000
vt 0.577326 1.000000
vt 0.649636 0.500000
vt 0.649636 1.000000
vt 0.030337 0.500000
vt 0.030337 1.000000
vt 0.858262 0.500000
vt 0.862154 1.000000
vt 0.805394 0.500000
vt 0.805394 1.000000
vt 0.270774 0.500000
vt 0.312870 0.500000
vt 0.312870 1.000000
vt 0.270774 1.000000
vt 0.772960 0.500000
vt 0.772960 1.000000
vt 0.114648 0.500000
vt 0.126467 0.500000
vt 0.126467 1.000000
vt 0.114648 1.000000
vt 0.740525 0.500000
vt 0.740525 1.000000
vt 0.708091 0.500000
vt 0.708091 1.000000
vt 0.691731 0.500000
vt 0.691731 1.000000
vt 0.212358 0.500000
vt 0.212358 1.000000
vt 0.228678 0.500000
vt 0.228678 1.000000
vt 0.563285 0.000000
vt 0.577326 0.000000
vt 0.312870 0.000000
vt 0.354966 0.000000
vt 0.228679 0.000000
vt 0.270774 0.000000
vt 0.691731 0.000000
vt 0.708091 0.000000
vt 0.212358 0.000000
vt 0.182021 0.000000
vt 0.102830 0.000000
vt 0.114648 0.000000
vt 0.649635 0.000000
vt 0.740525 0.000000
vt 0.126467 0.000000
vt 0.156456 0.000000
vt 0.772960 0.000000
vt 0.083426 0.000000
vt 0.091011 0.000000
vt 0.805394 0.000000
vt 0.030337 0.000000
vt 0.060674 0.000000
vt 0.015168 0.000000
vt 0.607540 0.000000
vt 0.523348 0.000000
vt 0.481253 0.000000
vt 0.439157 0.000000
vt 0.397061 0.000000
vt 0.075842 0.000000
vt 0.160141 0.000000
vt 0.064466 0.000000
vt 0.068258 0.000000
vt 0.000000 0.000000
vt 0.927023 1.000000
vt 0.902697 1.000000
vt 0.910806 1.000000
vt 0.918914 0.844121
vt 0.918914 1.000000
vt 0.910806 1.000000
vt 0.910806 0.690343
vt 0.902697 0.588946
vt 0.902697 1.000000
vt 0.927023 1.000000
vt 0.918914 1.000000
vt 0.156456 0.000000
vt 0.160141 0.000000
vt 0.102830 0.000000
vt 0.114648 0.000000
vt 0.091011 0.000000
vt 0.060674 0.000000
vt 0.064466 0.000000
vt 0.075842 0.000000
vt 0.083426 0.000000
vt 0.068258 0.000000
vt 0.015168 0.000000
vt 0.886480 0.000000
vt 0.894588 0.000000
vt 0.870263 0.000000
vt 0.837828 0.000000
vt 0.854046 0.000000
vt 0.182021 0.000000
vt 0.126467 0.000000
vt 0.030337 0.000000
vt 0.607540 0.000000
vt 0.649635 0.000000
vt 0.565444 0.000000
vt 0.523348 0.000000
vt 0.481253 0.000000
vt 0.439157 0.000000
vt 0.397061 0.000000
vt 0.354966 0.000000
vt 0.312870 0.000000
vt 0.270774 0.000000
vt 0.228679 0.000000
vt 0.805394 0.000000
vt 0.772960 0.000000
vt 0.740525 0.000000
vt 0.708091 0.000000
vt 0.691731 0.000000
vt 0.212358 0.000000
vt 1.000000 1.000000
vt 1.000000 0.000000
vt 1.000000 0.000000
vt 1.000000 1.000000
vt 0.182021 0.500000
vt 0.212358 0.500000
vt 0.212358 1.000000
vt 0.182021 1.000000
vt 0.228678 0.500000
vt 0.228678 1.000000
vt 0.691731 0.500000
vt 0.708091 0.500000
vt 0.708091 1.000000
vt 0.691731 1.000000
vt 0.649636 0.500000
vt 0.649636 1.000000
vt 0.740525 0.500000
vt 0.740525 1.000000
vt 0.772960 0.500000
vt 0.772960 1.000000
vt 0.805394 0.500000
vt 0.805394 1.000000
vt 0.837828 0.500000
vt 0.837828 1.000000
vt 0.854046 0.500000
vt 0.870263 0.500000
vt 0.870263 1.000000
vt 0.854046 1.000000
vt 0.902697 0.000000
vt 0.910806 0.000000
vt 0.910806 0.636792
vt 0.902697 0.544703
vt 1.000000 1.000000
vt 1.000000 0.000000
vt 1.000000 0.000000
vt 1.000000 1.000000
vt 0.927023 0.000000
vt 0.935131 0.000000
vt 0.935131 1.000000
vt 0.927023 0.947664
vt 0.270774 0.500000
vt 0.270774 1.000000
vt 0.312870 0.500000
vt 0.312870 1.000000
vt 0.354966 0.500000
vt 0.354966 1.000000
vt 0.397061 0.500000
vt 0.397061 1.000000
vt 0.439157 0.500000
vt 0.439157 1.000000
vt 0.481253 0.500000
vt 0.481253 1.000000
vt 0.523348 0.500000
vt 0.523348 1.000000
vt 0.565444 0.500000
vt 0.565444 1.000000
vt 0.607540 0.500000
vt 0.607540 1.000000
vt 0.015168 0.500000
vt 0.030337 0.500000
vt 0.030337 1.000000
vt 0.015168 1.000000
vt 0.060674 0.500000
vt 0.060674 1.000000
vt 0.083426 0.500000
vt 0.091011 0.500000
vt 0.091011 1.000000
vt 0.083426 1.000000
vt 0.114648 0.500000
vt 0.126467 0.500000
vt 0.126467 1.000000
vt 0.114648 1.000000
vt 0.156456 0.500000
vt 0.156456 1.000000
vt 0.160141 0.500000
vt 0.160141 1.000000
vt 0.886480 0.500000
vt 0.886480 1.000000
vt 0.894588 0.500000
vt 0.894588 1.000000
vt 0.918914 0.000000
vt 0.918914 0.786758
vt 0.967566 0.000000
vt 0.967566 1.000000
vt 0.000000 0.500000
vt 0.000000 1.000000
vt 0.064466 0.500000
vt 0.068258 0.500000
vt 0.068258 1.000000
vt 0.064466 1.000000
vt 0.075842 0.500000
vt 0.075842 1.000000
vt 0.102830 0.500000
vt 0.102830 1.000000
vt 1.000000 0.000000
vt 1.000000 1.000000
vt 1.000000 0.000000
vt 1.000000 1.000000
vt 1.000000 0.000000
vt 1.000000 1.000000
vt 1.000000 0.000000
vt 1.000000 1.000000
vt 1.000000 0.000000
vt 1.000000 1.000000
vt 1.000000 0.000000
vt 1.000000 1.000000
vt 0.156456 0.500000
vt 0.156456 1.000000
vt 0.160141 1.000000
vt 0.160141 0.500000
vt 0.091011 0.500000
vt 0.091011 1.000000
vt 0.102830 1.000000
vt 0.102830 0.500000
vt 0.060674 0.500000
vt 0.060674 1.000000
vt 0.064466 1.000000
vt 0.064466 0.500000
vt 0.068258 0.500000
vt 0.068258 1.000000
vt 0.075842 1.000000
vt 0.075842 0.500000
vt 0.015168 1.000000
vt 0.015168 0.500000
vt 0.886480 0.500000
vt 0.886480 1.000000
vt 0.894588 1.000000
vt 0.894588 0.526945
vt 0.869032 0.500000
vt 0.870263 1.000000
vt 0.823377 0.500000
vt 0.837828 1.000000
vt 0.854046 1.000000
vt 0.847493 0.500000
vt 0.182021 1.000000
vt 0.182021 0.500000
vt 0.083426 1.000000
vt 0.083426 0.500000
vt 0.354966 0.500000
vt 0.354966 1.000000
vt 0.397061 1.000000
vt 0.397061 0.500000
vt 0.439157 1.000000
vt 0.439157 0.500000
vt 0.481253 1.000000
vt 0.481253 0.500000
vt 0.523348 1.000000
vt 0.523348 0.500000
vt 0.563285 1.000000
vt 0.563285 0.500000
vt 0.577326 0.500000
vt 0.577326 1.000000
vt 0.607540 1.000000
vt 0.607540 0.500000
vt 0.649636 1.000000
vt 0.649636 0.500000
vt 0.030337 1.000000
vt 0.030337 0.500000
vt 0.858262 0.500000
vt 0.862154 1.000000
vt 0.805394 0.500000
vt 0.805394 1.000000
vt 0.270774 0.500000
vt 0.270774 1.000000
vt 0.312870 1.000000
vt 0.312870 0.500000
vt 0.772960 0.500000
vt 0.772960 1.000000
vt 0.114648 0.500000
vt 0.114648 1.000000
vt 0.126467 1.000000
vt 0.126467 0.500000
vt 0.740525 0.500000
vt 0.740525 1.000000
vt 0.708091 0.500000
vt 0.708091 1.000000
vt 0.691731 1.000000
vt 0.691731 0.500000
vt 0.212358 1.000000
vt 0.212358 0.500000
vt 0.228678 1.000000
vt 0.228678 0.500000
vt 0.563285 0.000000
vt 0.577326 0.000000
vt 0.312870 0.000000
vt 0.354966 0.000000
vt 0.228679 0.000000
vt 0.270774 0.000000
vt 0.691731 0.000000
vt 0.708091 0.000000
vt 0.212358 0.000000
vt 0.182021 0.000000
vt 0.102830 0.000000
vt 0.114648 0.000000
vt 0.649635 0.000000
vt 0.740525 0.000000
vt 0.126467 0.000000
vt 0.156456 0.000000
vt 0.772960 0.000000
vt 0.083426 0.000000
vt 0.091011 0.000000
vt 0.805394 0.000000
vt 0.030337 0.000000
vt 0.060674 0.000000
vt 0.015168 0.000000
vt 0.607540 0.000000
vt 0.523348 0.000000
vt 0.481253 0.000000
vt 0.439157 0.000000
vt 0.397061 0.000000
vt 0.075842 0.000000
vt 0.160141 0.000000
vt 0.064466 0.000000
vt 0.068258 0.000000
vt 0.000000 0.000000
vt 0.927023 1.000000
vt 0.910806 1.000000
vt 0.902697 1.000000
vt 0.918914 0.844121
vt 0.910806 0.690343
vt 0.910806 1.000000
vt 0.918914 1.000000
vt 0.902697 0.588946
vt 0.902697 1.000000
vt 0.927023 1.000000
vt 0.918914 1.000000
vt 0.156456 0.000000
vt 0.160141 0.000000
vt 0.102830 0.000000
vt 0.114648 0.000000
vt 0.091011 0.000000
vt 0.060674 0.000000
vt 0.064466 0.000000
vt 0.075842 0.000000
vt 0.083426 0.000000
vt 0.068258 0.000000
vt 0.015168 0.000000
vt 0.886480 0.000000
vt 0.894588 0.000000
vt 0.870263 0.000000
vt 0.837828 0.000000
vt 0.854046 0.000000
vt 0.182021 0.000000
vt 0.126467 0.000000
vt 0.030337 0.000000
vt 0.607540 0.000000
vt 0.649635 0.000000
vt 0.565444 0.000000
vt 0.523348 0.000000
vt 0.481253 0.000000
vt 0.439157 0.000000
vt 0.397061 0.000000
vt 0.354966 0.000000
vt 0.312870 0.000000
vt 0.270774 0.000000
vt 0.228679 0.000000
vt 0.805394 0.000000
vt 0.772960 0.000000
vt 0.740525 0.000000
vt 0.708091 0.000000
vt 0.691731 0.000000
vt 0.212358 0.000000
vn 0.0000 -1.0000 0.0000
vn 0.0000 1.0000 0.0000
vn 0.0000 1.0000 -0.0001
vn 0.0000 1.0000 0.0001
vn 0.0000 0.0000 1.0000
vn 0.6227 0.0000 0.7825
vn 0.5649 0.0000 0.8252
vn -0.5640 0.0000 0.8258
vn 0.9772 0.0000 0.2122
vn -0.9915 0.0000 -0.1302
vn 0.4115 0.0000 0.9114
vn 0.8303 0.0000 0.5573
vn 0.9744 0.0000 0.2248
vn -0.5649 0.0000 0.8252
vn 1.0000 0.0000 0.0000
vn 0.8602 0.0000 -0.5099
vn -0.1826 0.0000 -0.9832
vn -0.1270 0.0000 -0.9919
vn -0.8602 0.0000 -0.5099
vn -0.1908 0.0000 -0.9816
vn 0.9539 0.0000 -0.3002
vn 0.9643 0.0000 -0.2649
vn -0.0592 0.0000 -0.9982
vn -0.3153 0.0000 -0.9490
vn 0.9173 0.0000 -0.3982
vn -0.5423 0.0000 -0.8402
vn 0.0000 0.0000 -1.0000
vn -0.0497 0.0000 -0.9988
vn -0.2574 0.0000 -0.9663
vn -0.0885 0.0000 -0.9961
vn -0.1477 0.0000 -0.9890
vn -0.2179 0.0000 -0.9760
vn -0.2565 0.0000 -0.9665
vn -0.3665 0.0000 -0.9304
vn -0.3699 0.0000 -0.9291
vn -0.6921 0.0000 -0.7218
vn -0.3831 0.0000 -0.9237
vn -0.6061 0.0000 -0.7954
vn -0.9749 0.0000 -0.2225
vn -0.2861 0.0000 -0.9582
vn -0.9815 0.0000 -0.1915
vn -0.1952 0.0000 -0.9808
vn -0.0345 0.0000 -0.9994
vn -0.8931 0.0000 -0.4499
vn -0.0448 0.0000 -0.9990
vn 0.0345 0.0000 -0.9994
vn -0.0299 0.0000 -0.9996
vn -0.6637 0.0000 -0.7480
vn 0.9394 0.0000 -0.3429
vn 0.4929 0.0000 -0.8701
vn -0.1534 0.0000 -0.9882
vn -0.1837 0.0000 -0.9830
vn -0.4531 0.0000 -0.8914
vn -0.3743 0.0000 -0.9273
vn -0.2733 0.0000 -0.9619
vn 0.2733 0.0000 -0.9619
vn -0.0553 0.0000 -0.9985
vn 0.0455 0.0000 -0.9990
vn 0.3743 0.0000 -0.9273
vn 0.4587 0.0000 -0.8886
vn 0.3284 0.0000 -0.9445
vn -0.4484 0.0000 -0.8938
vn 0.1837 0.0000 -0.9830
vn -0.9763 0.0000 -0.2163
vn 0.7419 0.0000 -0.6705
vn 0.1952 0.0000 -0.9808
vn 0.2861 0.0000 -0.9582
vn 0.9094 0.0000 -0.4160
vn 0.6061 0.0000 -0.7954
vn 0.3831 0.0000 -0.9237
vn 0.6921 0.0000 -0.7218
vn 0.3699 0.0000 -0.9291
vn 0.0592 0.0000 -0.9982
vn 0.2565 0.0000 -0.9665
vn 0.2179 0.0000 -0.9760
vn 0.1477 0.0000 -0.9890
vn 0.1908 0.0000 -0.9816
vn 0.2574 0.0000 -0.9663
vn 0.0497 0.0000 -0.9988
vn 0.4143 0.0000 -0.9102
vn 0.3665 0.0000 -0.9304
vn 0.8973 0.0000 -0.4413
vn 0.1270 0.0000 -0.9919
vn 0.9456 0.0000 -0.3254
vn 0.0885 0.0000 -0.9961
vn 0.1826 0.0000 -0.9832
vn 0.5423 0.0000 -0.8402
vn -0.9173 0.0000 -0.3982
vn 0.3153 0.0000 -0.9490
vn -0.9643 0.0000 -0.2649
vn -0.2096 0.0000 -0.9778
vn -0.9539 0.0000 -0.3002
g versal_main_Plane.015_gora_dol
usemtl gora_dol
s off
f 105/1/1 104/2/1 101/3/1 100/4/1
f 206/5/1 49/6/1 6/7/1 182/8/1
f 182/8/1 6/7/1 8/9/1 183/10/1
f 185/11/1 11/12/1 10/13/1 184/14/1
f 200/15/1 29/16/1 11/12/1 185/11/1
f 184/14/1 10/13/1 28/17/1 186/18/1
f 186/18/1 28/17/1 27/19/1 187/20/1
f 187/20/1 27/19/1 26/21/1 188/22/1
f 188/22/1 26/21/1 25/23/1 189/24/1
f 207/25/1 62/26/1 24/27/1 190/28/1
f 18/29/1 223/30/1 218/31/1 67/32/1
f 95/33/1 106/34/1 99/35/1 94/36/1
f 69/37/1 224/38/1 22/39/1 19/40/1
f 183/10/1 8/9/1 38/41/1 191/42/1
f 191/42/1 38/41/1 37/43/1 192/44/1
f 192/44/1 37/43/1 36/45/1 193/46/1
f 193/46/1 36/45/1 35/47/1 194/48/1
f 194/48/1 35/47/1 34/49/1 195/50/1
f 195/50/1 34/49/1 33/51/1 196/52/1
f 196/52/1 33/51/1 32/53/1 197/54/1
f 197/54/1 32/53/1 31/55/1 198/56/1
f 198/56/1 31/55/1 30/57/1 199/58/1
f 199/58/1 30/57/1 29/16/1 200/15/1
f 210/59/1 73/60/1 54/61/1 201/62/1
f 201/62/1 54/61/1 53/63/1 202/64/1
f 213/65/1 75/66/1 52/67/1 203/68/1
f 216/69/1 83/70/1 51/71/1 204/72/1
f 204/72/1 51/71/1 50/73/1 205/74/1
f 217/75/1 87/76/1 49/6/1 206/5/1
f 189/24/1 25/23/1 62/26/1 207/25/1
f 190/28/1 24/27/1 64/77/1 208/78/1
f 208/78/1 64/77/1 66/79/1 209/80/1
f 68/81/1 225/82/1 224/38/1 69/37/1
f 19/40/1 22/39/1 21/83/1 20/84/1
f 67/32/1 218/31/1 225/82/1 68/81/1
f 262/85/1 179/86/1 73/60/1 210/59/1
f 214/87/1 81/88/1 77/89/1 211/90/1
f 211/90/1 77/89/1 76/91/1 212/92/1
f 212/92/1 76/91/1 75/66/1 213/65/1
f 202/64/1 53/63/1 81/88/1 214/87/1
f 203/68/1 52/67/1 84/93/1 215/94/1
f 215/94/1 84/93/1 83/70/1 216/69/1
f 205/74/1 50/73/1 87/76/1 217/75/1
f 20/84/1 21/83/1 4/95/1 2/96/1
f 4/95/1 98/97/1 91/98/1 2/96/1
f 98/97/1 97/99/1 92/100/1 91/98/1
f 97/99/1 96/101/1 93/102/1 92/100/1
f 96/101/1 95/33/1 94/36/1 93/102/1
f 104/2/1 103/103/1 102/104/1 101/3/1
f 106/34/1 105/1/1 100/4/1 99/35/1
f 103/103/1 90/105/1 89/106/1 102/104/1
f 237/107/1 227/108/1 108/109/1 139/110/1
f 239/111/1 228/112/1 111/113/1 137/114/1
f 240/115/1 229/116/1 114/117/1 136/118/1
f 232/119/1 231/120/1 119/121/1 118/122/1
f 262/85/1 233/123/1 122/124/1 179/86/1
f 229/116/1 232/119/1 118/122/1 114/117/1
f 234/125/1 222/126/1 126/127/1 127/128/1
f 253/129/1 234/125/1 127/128/1 165/130/1
f 254/131/1 235/132/1 128/133/1 164/134/1
f 227/108/1 236/135/1 140/136/1 108/109/1
f 231/120/1 230/137/1 120/138/1 119/121/1
f 249/139/1 248/140/1 154/141/1 153/142/1
f 248/140/1 247/143/1 155/144/1 154/141/1
f 247/143/1 246/145/1 156/146/1 155/144/1
f 246/145/1 245/147/1 157/148/1 156/146/1
f 245/147/1 244/149/1 158/150/1 157/148/1
f 181/151/1 243/152/1 159/153/1 1/154/1
f 243/152/1 242/155/1 160/156/1 159/153/1
f 233/123/1 241/157/1 135/158/1 122/124/1
f 241/157/1 240/115/1 136/118/1 135/158/1
f 252/159/1 253/129/1 165/130/1 167/160/1
f 255/161/1 254/131/1 164/134/1 163/162/1
f 251/163/1 250/164/1 152/165/1 151/166/1
f 256/167/1 255/161/1 163/162/1 162/168/1
f 230/137/1 239/111/1 137/114/1 120/138/1
f 226/169/1 238/170/1 138/171/1 112/172/1
f 257/173/1 256/167/1 162/168/1 161/174/1
f 238/170/1 237/107/1 139/110/1 138/171/1
f 259/175/1 257/173/1 161/174/1 173/176/1
f 242/155/1 258/177/1 172/178/1 160/156/1
f 228/112/1 226/169/1 112/172/1 111/113/1
f 236/135/1 261/179/1 177/180/1 140/136/1
f 261/179/1 260/181/1 175/182/1 177/180/1
f 258/177/1 259/175/1 173/176/1 172/178/1
f 260/181/1 251/163/1 151/166/1 175/182/1
f 250/164/1 249/139/1 153/142/1 152/165/1
f 244/149/1 181/151/1 1/154/1 158/150/1
f 143/183/1 3/184/1 181/151/1 244/149/1
f 149/185/1 148/186/1 249/139/1 250/164/1
f 176/187/1 150/188/1 251/163/1 260/181/1
f 171/189/1 174/190/1 259/175/1 258/177/1
f 178/191/1 176/187/1 260/181/1 261/179/1
f 129/192/1 178/191/1 261/179/1 236/135/1
f 109/193/1 107/194/1 226/169/1 228/112/1
f 141/195/1 171/189/1 258/177/1 242/155/1
f 174/190/1 170/196/1 257/173/1 259/175/1
f 131/197/1 130/198/1 237/107/1 238/170/1
f 170/196/1 169/199/1 256/167/1 257/173/1
f 107/194/1 131/197/1 238/170/1 226/169/1
f 115/200/1 132/201/1 239/111/1 230/137/1
f 169/199/1 168/202/1 255/161/1 256/167/1
f 150/188/1 149/185/1 250/164/1 251/163/1
f 235/132/1 252/159/1 167/160/1 128/133/1
f 134/203/1 133/204/1 240/115/1 241/157/1
f 121/205/1 134/203/1 241/157/1 233/123/1
f 142/206/1 141/195/1 242/155/1 243/152/1
f 3/184/1 142/206/1 243/152/1 181/151/1
f 144/207/1 143/183/1 244/149/1 245/147/1
f 145/208/1 144/207/1 245/147/1 246/145/1
f 146/209/1 145/208/1 246/145/1 247/143/1
f 147/210/1 146/209/1 247/143/1 248/140/1
f 148/186/1 147/210/1 248/140/1 249/139/1
f 116/211/1 115/200/1 230/137/1 231/120/1
f 110/212/1 129/192/1 236/135/1 227/108/1
f 113/213/1 117/214/1 232/119/1 229/116/1
f 180/215/1 121/205/1 233/123/1 262/85/1
f 117/214/1 116/211/1 231/120/1 232/119/1
f 133/204/1 113/213/1 229/116/1 240/115/1
f 132/201/1 109/193/1 228/112/1 239/111/1
f 130/198/1 110/212/1 227/108/1 237/107/1
f 224/38/1 70/216/1 22/39/1
f 223/30/1 23/217/1 72/218/1 218/31/1
f 209/80/1 66/79/1 23/217/1 223/30/1
f 220/219/1 124/220/1 123/221/1 221/222/1
f 219/223/1 166/224/1 126/127/1 222/126/1
f 125/225/1 124/220/1 220/219/1
f 221/222/1 123/221/1 166/224/1 219/223/1
f 225/82/1 71/226/1 70/216/1 224/38/1
f 59/227/1 205/74/1 217/75/1 88/228/1
f 85/229/1 215/94/1 216/69/1 86/230/1
f 57/231/1 203/68/1 215/94/1 85/229/1
f 56/232/1 202/64/1 214/87/1 82/233/1
f 79/234/1 212/92/1 213/65/1 80/235/1
f 78/236/1 211/90/1 212/92/1 79/234/1
f 82/233/1 214/87/1 211/90/1 78/236/1
f 180/215/1 262/85/1 210/59/1 74/237/1
f 63/238/1 208/78/1 209/80/1 65/239/1
f 17/240/1 190/28/1 208/78/1 63/238/1
f 16/241/1 189/24/1 207/25/1 61/242/1
f 88/228/1 217/75/1 206/5/1 60/243/1
f 58/244/1 204/72/1 205/74/1 59/227/1
f 86/230/1 216/69/1 204/72/1 58/244/1
f 80/235/1 213/65/1 203/68/1 57/231/1
f 55/245/1 201/62/1 202/64/1 56/232/1
f 74/237/1 210/59/1 201/62/1 55/245/1
f 47/246/1 199/58/1 200/15/1 48/247/1
f 46/248/1 198/56/1 199/58/1 47/246/1
f 45/249/1 197/54/1 198/56/1 46/248/1
f 44/250/1 196/52/1 197/54/1 45/249/1
f 43/251/1 195/50/1 196/52/1 44/250/1
f 42/252/1 194/48/1 195/50/1 43/251/1
f 41/253/1 193/46/1 194/48/1 42/252/1
f 40/254/1 192/44/1 193/46/1 41/253/1
f 39/255/1 191/42/1 192/44/1 40/254/1
f 7/256/1 183/10/1 191/42/1 39/255/1
f 61/242/1 207/25/1 190/28/1 17/240/1
f 15/257/1 188/22/1 189/24/1 16/241/1
f 14/258/1 187/20/1 188/22/1 15/257/1
f 13/259/1 186/18/1 187/20/1 14/258/1
f 9/260/1 184/14/1 186/18/1 13/259/1
f 48/247/1 200/15/1 185/11/1 12/261/1
f 12/261/1 185/11/1 184/14/1 9/260/1
f 5/262/1 182/8/1 183/10/1 7/256/1
f 60/243/1 206/5/1 182/8/1 5/262/1
f 218/31/1 72/218/1 71/226/1 225/82/1
f 65/239/1 209/80/1 223/30/1 18/29/1
f 414/263/2 409/264/2 410/265/2 413/266/2
f 366/267/2 275/268/2 274/269/2 343/270/2
f 275/268/2 278/271/2 273/272/2 274/269/2
f 286/273/2 283/274/2 282/275/2 284/276/2
f 342/277/2 286/273/2 284/276/2 315/278/2
f 283/274/2 308/279/2 281/280/2 282/275/2
f 308/279/2 309/281/2 307/282/2 281/280/2
f 309/281/3 310/283/3 306/284/3 307/282/3
f 310/283/2 311/285/2 305/286/2 306/284/2
f 367/287/2 312/288/2 303/289/2 304/290/2
f 294/291/2 372/292/2 394/293/2 415/294/2
f 403/295/2 401/296/2 408/297/2 402/298/2
f 295/299/2 296/300/2 299/301/2 416/302/2
f 278/271/2 333/303/2 277/304/2 273/272/2
f 333/303/2 334/305/2 323/306/2 277/304/2
f 334/305/2 335/307/2 322/308/2 323/306/2
f 335/307/2 336/309/2 321/310/2 322/308/2
f 336/309/2 337/311/2 320/312/2 321/310/2
f 337/311/2 338/313/2 319/314/2 320/312/2
f 338/313/2 339/315/2 318/316/2 319/314/2
f 339/315/2 340/317/2 317/318/2 318/316/2
f 340/317/2 341/319/2 316/320/2 317/318/2
f 341/319/2 342/277/2 315/278/2 316/320/2
f 378/321/4 361/322/4 351/323/4 376/324/4
f 361/322/3 362/325/3 350/326/3 351/323/3
f 387/327/2 363/328/2 348/329/2 379/330/2
f 392/331/2 364/332/2 346/333/2 389/334/2
f 364/332/2 365/335/2 345/336/2 346/333/2
f 393/337/2 366/267/2 343/270/2 344/338/2
f 311/285/2 367/287/2 304/290/2 305/286/2
f 312/288/2 370/339/2 302/340/2 303/289/2
f 370/339/2 371/341/2 369/342/2 302/340/2
f 373/343/2 295/299/2 416/302/2 417/344/2
f 296/300/2 265/345/2 298/346/2 299/301/2
f 372/292/2 373/343/2 417/344/2 394/293/2
f 524/347/2 378/321/2 376/324/2 523/348/2
f 388/349/2 385/350/2 381/351/2 349/352/2
f 385/350/2 386/353/2 380/354/2 381/351/2
f 386/353/2 387/327/2 379/330/2 380/354/2
f 362/325/3 388/349/3 349/352/3 350/326/3
f 363/328/2 391/355/2 347/356/2 348/329/2
f 391/355/2 392/331/2 389/334/2 347/356/2
f 365/335/2 393/337/2 344/338/2 345/336/2
f 265/345/2 266/357/2 297/358/2 298/346/2
f 297/358/2 266/357/2 398/359/2 397/360/2
f 397/360/2 398/359/2 399/361/2 405/362/2
f 405/362/2 399/361/2 400/363/2 404/364/2
f 404/364/2 400/363/2 401/296/2 403/295/2
f 413/266/2 410/265/2 395/365/2 412/366/2
f 402/298/2 408/297/2 409/264/2 414/263/2
f 412/366/2 395/365/2 396/367/2 411/368/2
f 461/369/2 462/370/2 420/371/2 422/372/2
f 464/373/2 442/374/2 424/375/2 423/376/2
f 465/377/2 466/378/2 430/379/2 429/380/2
f 438/381/2 433/382/2 437/383/2 436/384/2
f 524/347/2 523/348/2 444/385/2 443/386/2
f 429/380/2 430/379/2 433/382/2 438/381/2
f 267/387/2 456/388/2 454/389/2 268/390/2
f 502/391/2 459/392/2 456/388/2 267/387/2
f 503/393/2 504/394/2 458/395/2 457/396/2
f 422/372/2 420/371/2 421/397/2 460/398/2
f 436/384/2 437/383/2 435/399/2 434/400/2
f 485/401/2 486/402/2 484/403/2 483/404/2
f 483/404/2 484/403/2 482/405/2 481/406/2
f 481/406/2 482/405/2 480/407/2 479/408/2
f 479/408/2 480/407/2 478/409/2 477/410/2
f 477/410/2 478/409/2 269/411/2 476/412/2
f 263/413/2 270/414/2 475/415/2 474/416/2
f 474/416/2 475/415/2 473/417/2 472/418/2
f 443/386/2 444/385/2 447/419/2 467/420/2
f 467/420/2 447/419/2 466/378/2 465/377/2
f 407/421/2 406/422/2 459/392/2 502/391/2
f 505/423/2 506/424/2 504/394/2 503/393/2
f 489/425/2 490/426/2 488/427/2 487/428/2
f 507/429/2 508/430/2 506/424/2 505/423/2
f 434/400/2 435/399/2 442/374/2 464/373/2
f 418/431/2 419/432/2 428/433/2 463/434/2
f 509/435/2 510/436/2 508/430/2 507/429/2
f 463/434/2 428/433/2 462/370/2 461/369/2
f 518/437/2 517/438/2 510/436/2 509/435/2
f 472/418/2 473/417/2 501/439/2 515/440/2
f 423/376/2 424/375/2 419/432/2 418/431/2
f 460/398/2 421/397/2 471/441/2 522/442/2
f 522/442/2 471/441/2 520/443/2 519/444/2
f 515/440/2 501/439/2 517/438/2 518/437/2
f 519/444/2 520/443/2 490/426/2 489/425/2
f 487/428/2 488/427/2 486/402/2 485/401/2
f 476/412/2 269/411/2 270/414/2 263/413/2
f 492/445/2 476/412/2 263/413/2 264/446/2
f 498/447/2 487/428/2 485/401/2 497/448/2
f 500/449/2 519/444/2 489/425/2 499/450/2
f 516/451/2 515/440/2 518/437/2 514/452/2
f 521/453/2 522/442/2 519/444/2 500/449/2
f 468/454/2 460/398/2 522/442/2 521/453/2
f 426/455/2 423/376/2 418/431/2 425/456/2
f 491/457/2 472/418/2 515/440/2 516/451/2
f 514/452/2 518/437/2 509/435/2 513/458/2
f 469/459/2 463/434/2 461/369/2 449/460/2
f 513/458/2 509/435/2 507/429/2 512/461/2
f 425/456/2 418/431/2 463/434/2 469/459/2
f 439/462/2 434/400/2 464/373/2 427/463/2
f 512/461/2 507/429/2 505/423/2 511/464/2
f 499/450/2 489/425/2 487/428/2 498/447/2
f 457/396/2 458/395/2 406/422/2 407/421/2
f 470/465/2 467/420/2 465/377/2 432/466/2
f 445/467/2 443/386/2 467/420/2 470/465/2
f 377/468/2 474/416/2 472/418/2 491/457/2
f 264/446/2 263/413/2 474/416/2 377/468/2
f 493/469/2 477/410/2 476/412/2 492/445/2
f 494/470/2 479/408/2 477/410/2 493/469/2
f 495/471/2 481/406/2 479/408/2 494/470/2
f 496/472/2 483/404/2 481/406/2 495/471/2
f 497/448/2 485/401/2 483/404/2 496/472/2
f 440/473/2 436/384/2 434/400/2 439/462/2
f 448/474/2 422/372/2 460/398/2 468/454/2
f 431/475/2 429/380/2 438/381/2 441/476/2
f 446/477/2 524/347/2 443/386/2 445/467/2
f 441/476/2 438/381/2 436/384/2 440/473/2
f 432/466/2 465/377/2 429/380/2 431/475/2
f 427/463/2 464/373/2 423/376/2 426/455/2
f 449/460/2 461/369/2 422/372/2 448/474/2
f 416/302/2 299/301/2 374/478/2
f 415/294/2 394/293/2 300/479/2 301/480/2
f 371/341/3 415/294/3 301/480/3 369/342/3
f 450/481/2 314/482/2 452/483/2 451/484/2
f 313/485/2 268/390/2 454/389/2 455/486/2
f 453/487/3 450/481/3 451/484/3
f 314/482/2 313/485/2 455/486/2 452/483/2
f 417/344/2 416/302/2 374/478/2 375/488/2
f 359/489/2 360/490/2 393/337/2 365/335/2
f 390/491/2 357/492/2 392/331/2 391/355/2
f 356/493/2 390/491/2 391/355/2 363/328/2
f 354/494/2 382/495/2 388/349/2 362/325/2
f 384/496/2 355/497/2 387/327/2 386/353/2
f 383/498/2 384/496/2 386/353/2 385/350/2
f 382/495/4 383/498/4 385/350/4 388/349/4
f 446/477/2 352/499/2 378/321/2 524/347/2
f 368/500/2 293/501/2 371/341/2 370/339/2
f 292/502/2 368/500/2 370/339/2 312/288/2
f 290/503/2 291/504/2 367/287/2 311/285/2
f 360/490/2 271/505/2 366/267/2 393/337/2
f 358/506/2 359/489/2 365/335/2 364/332/2
f 357/492/2 358/506/2 364/332/2 392/331/2
f 355/497/2 356/493/2 363/328/2 387/327/2
f 353/507/4 354/494/4 362/325/4 361/322/4
f 352/499/3 353/507/3 361/322/3 378/321/3
f 332/508/2 285/509/2 342/277/2 341/319/2
f 331/510/2 332/508/2 341/319/2 340/317/2
f 330/511/2 331/510/2 340/317/2 339/315/2
f 329/512/2 330/511/2 339/315/2 338/313/2
f 328/513/2 329/512/2 338/313/2 337/311/2
f 327/514/2 328/513/2 337/311/2 336/309/2
f 326/515/2 327/514/2 336/309/2 335/307/2
f 325/516/2 326/515/2 335/307/2 334/305/2
f 324/517/2 325/516/2 334/305/2 333/303/2
f 276/518/2 324/517/2 333/303/2 278/271/2
f 291/504/2 292/502/2 312/288/2 367/287/2
f 289/519/2 290/503/2 311/285/2 310/283/2
f 288/520/2 289/519/2 310/283/2 309/281/2
f 287/521/3 288/520/3 309/281/3 308/279/3
f 280/522/2 287/521/2 308/279/2 283/274/2
f 285/509/2 279/523/2 286/273/2 342/277/2
f 279/523/2 280/522/2 283/274/2 286/273/2
f 272/524/2 276/518/2 278/271/2 275/268/2
f 271/505/2 272/524/2 275/268/2 366/267/2
f 394/293/2 417/344/2 375/488/2 300/479/2
f 293/501/2 294/291/2 415/294/2 371/341/2
g versal_main_Plane.015_tyl
usemtl tyl
f 46/248/5 47/246/5 332/508/5 331/510/5
f 180/215/5 74/237/5 352/499/5 446/477/5
f 253/129/5 252/159/5 407/421/5 502/391/5
f 78/236/5 79/234/5 384/496/5 383/498/5
f 141/195/5 142/206/5 377/468/5 491/457/5
f 47/246/5 48/247/5 285/509/5 332/508/5
f 79/234/5 80/235/5 355/497/5 384/496/5
f 3/184/6 143/183/6 492/445/6 264/446/6
f 5/262/7 7/256/7 276/518/7 272/524/7
f 143/183/5 144/207/5 493/469/5 492/445/5
f 144/207/5 145/208/5 494/470/5 493/469/5
f 115/200/5 116/211/5 440/473/5 439/462/5
f 145/208/5 146/209/5 495/471/5 494/470/5
f 116/211/5 117/214/5 441/476/5 440/473/5
f 12/261/8 9/260/8 280/522/8 279/523/8
f 146/209/5 147/210/5 496/472/5 495/471/5
f 117/214/5 113/213/5 431/475/5 441/476/5
f 56/232/5 82/233/5 382/495/5 354/494/5
f 147/210/5 148/186/5 497/448/5 496/472/5
f 148/186/5 149/185/5 498/447/5 497/448/5
f 149/185/5 150/188/5 499/450/5 498/447/5
f 48/247/5 12/261/5 279/523/5 285/509/5
f 150/188/5 176/187/5 500/449/5 499/450/5
f 57/231/5 85/229/5 390/491/5 356/493/5
f 125/225/5 220/219/5 450/481/5 453/487/5
f 121/205/5 180/215/5 446/477/5 445/467/5
f 9/260/5 13/259/5 287/521/5 280/522/5
f 85/229/5 86/230/5 357/492/5 390/491/5
f 13/259/5 14/258/5 288/520/5 287/521/5
f 235/132/5 254/131/5 503/393/5 457/396/5
f 110/212/5 130/198/5 449/460/5 448/474/5
f 14/258/5 15/257/5 289/519/5 288/520/5
f 234/125/5 253/129/5 502/391/5 267/387/5
f 15/257/5 16/241/5 290/503/5 289/519/5
f 61/242/5 17/240/5 292/502/5 291/504/5
f 59/227/5 88/228/5 360/490/5 359/489/5
f 65/239/5 18/29/5 294/291/5 293/501/5
f 69/37/5 19/40/5 296/300/5 295/299/5
f 74/237/5 55/245/5 353/507/5 352/499/5
f 19/40/5 20/84/5 265/345/5 296/300/5
f 102/104/9 89/106/9 396/367/9 395/365/9
f 55/245/5 56/232/5 354/494/5 353/507/5
f 80/235/5 57/231/5 356/493/5 355/497/5
f 2/96/5 91/98/5 398/359/5 266/357/5
f 86/230/5 58/244/5 358/506/5 357/492/5
f 91/98/5 92/100/5 399/361/5 398/359/5
f 58/244/5 59/227/5 359/489/5 358/506/5
f 92/100/5 93/102/5 400/363/5 399/361/5
f 88/228/5 60/243/5 271/505/5 360/490/5
f 220/219/5 221/222/5 314/482/5 450/481/5
f 93/102/5 94/36/5 401/296/5 400/363/5
f 219/223/5 222/126/5 268/390/5 313/485/5
f 255/161/10 168/202/10 511/464/10 505/423/10
f 94/36/5 99/35/5 408/297/5 401/296/5
f 16/241/5 61/242/5 291/504/5 290/503/5
f 129/192/5 110/212/5 448/474/5 468/454/5
f 99/35/11 100/4/11 409/264/11 408/297/11
f 130/198/5 131/197/5 469/459/5 449/460/5
f 100/4/12 101/3/12 410/265/12 409/264/12
f 131/197/5 107/194/5 425/456/5 469/459/5
f 221/222/5 219/223/5 313/485/5 314/482/5
f 101/3/13 102/104/13 395/365/13 410/265/13
f 252/159/5 235/132/5 457/396/5 407/421/5
f 17/240/5 63/238/5 368/500/5 292/502/5
f 132/201/5 115/200/5 439/462/5 427/463/5
f 168/202/5 169/199/5 512/461/5 511/464/5
f 133/204/5 134/203/5 470/465/5 432/466/5
f 169/199/5 170/196/5 513/458/5 512/461/5
f 134/203/5 121/205/5 445/467/5 470/465/5
f 170/196/5 174/190/5 514/452/5 513/458/5
f 63/238/5 65/239/5 293/501/5 368/500/5
f 171/189/5 141/195/5 491/457/5 516/451/5
f 18/29/5 67/32/5 372/292/5 294/291/5
f 67/32/5 68/81/5 373/343/5 372/292/5
f 68/81/5 69/37/5 295/299/5 373/343/5
f 174/190/5 171/189/5 516/451/5 514/452/5
f 7/256/5 39/255/5 324/517/5 276/518/5
f 39/255/5 40/254/5 325/516/5 324/517/5
f 176/187/14 178/191/14 521/453/14 500/449/14
f 89/106/15 90/105/15 411/368/15 396/367/15
f 40/254/5 41/253/5 326/515/5 325/516/5
f 107/194/5 109/193/5 426/455/5 425/456/5
f 142/206/5 3/184/5 264/446/5 377/468/5
f 41/253/5 42/252/5 327/514/5 326/515/5
f 109/193/5 132/201/5 427/463/5 426/455/5
f 42/252/5 43/251/5 328/513/5 327/514/5
f 178/191/5 129/192/5 468/454/5 521/453/5
f 20/84/5 2/96/5 266/357/5 265/345/5
f 43/251/5 44/250/5 329/512/5 328/513/5
f 222/126/5 234/125/5 267/387/5 268/390/5
f 44/250/5 45/249/5 330/511/5 329/512/5
f 45/249/5 46/248/5 331/510/5 330/511/5
f 113/213/5 133/204/5 432/466/5 431/475/5
f 60/243/5 5/262/5 272/524/5 271/505/5
f 254/131/5 255/161/5 505/423/5 503/393/5
f 82/233/5 78/236/5 383/498/5 382/495/5
g versal_main_Plane.015_front
usemtl front
f 114/117/16 118/122/16 433/382/16 430/379/16
f 8/9/17 6/7/17 274/269/17 273/272/17
f 38/41/18 8/9/18 273/272/18 277/304/18
f 77/89/19 81/88/19 349/352/19 381/351/19
f 28/17/20 10/13/20 282/275/20 281/280/20
f 118/122/21 119/121/21 437/383/21 433/382/21
f 119/121/22 120/138/22 435/399/22 437/383/22
f 10/13/23 11/12/23 284/276/23 282/275/23
f 51/71/24 83/70/24 389/334/24 346/333/24
f 120/138/25 137/114/25 442/374/25 435/399/25
f 83/70/26 84/93/26 347/356/26 389/334/26
f 151/166/27 152/165/27 488/427/27 490/426/27
f 152/165/28 153/142/28 486/402/28 488/427/28
f 6/7/29 49/6/29 343/270/29 274/269/29
f 122/124/30 135/158/30 447/419/30 444/385/30
f 153/142/31 154/141/31 484/403/31 486/402/31
f 87/76/32 50/73/32 345/336/32 344/338/32
f 154/141/33 155/144/33 482/405/33 484/403/33
f 50/73/27 51/71/27 346/333/27 345/336/27
f 49/6/34 87/76/34 344/338/34 343/270/34
f 155/144/35 156/146/35 480/407/35 482/405/35
f 84/93/36 52/67/36 348/329/36 347/356/36
f 156/146/37 157/148/37 478/409/37 480/407/37
f 81/88/38 53/63/38 350/326/38 349/352/38
f 123/221/39 124/220/39 451/484/39 452/483/39
f 157/148/40 158/150/40 269/411/40 478/409/40
f 53/63/27 54/61/27 351/323/27 350/326/27
f 124/220/41 125/225/41 453/487/41 451/484/41
f 1/154/42 159/153/42 475/415/42 270/414/42
f 159/153/43 160/156/43 473/417/43 475/415/43
f 126/127/44 166/224/44 455/486/44 454/389/44
f 4/95/45 21/83/45 298/346/45 297/358/45
f 98/97/27 4/95/27 297/358/27 397/360/27
f 160/156/46 172/178/46 501/439/46 473/417/46
f 21/83/47 22/39/47 299/301/47 298/346/47
f 127/128/48 126/127/48 454/389/48 456/388/48
f 72/218/49 23/217/49 301/480/49 300/479/49
f 64/77/50 24/27/50 303/289/50 302/340/50
f 167/160/51 165/130/51 459/392/51 406/422/51
f 62/26/52 25/23/52 305/286/52 304/290/52
f 25/23/53 26/21/53 306/284/53 305/286/53
f 106/34/27 95/33/27 403/295/27 402/298/27
f 26/21/54 27/19/54 307/282/54 306/284/54
f 95/33/27 96/101/27 404/364/27 403/295/27
f 27/19/55 28/17/55 281/280/55 307/282/55
f 96/101/27 97/99/27 405/362/27 404/364/27
f 161/174/56 162/168/56 508/430/56 510/436/56
f 128/133/57 167/160/57 406/422/57 458/395/57
f 97/99/58 98/97/58 397/360/58 405/362/58
f 162/168/59 163/162/59 506/424/59 508/430/59
f 163/162/60 164/134/60 504/394/60 506/424/60
f 164/134/61 128/133/61 458/395/61 504/394/61
f 165/130/62 127/128/62 456/388/62 459/392/62
f 24/27/63 62/26/63 304/290/63 303/289/63
f 166/224/64 123/221/64 452/483/64 455/486/64
f 11/12/43 29/16/43 315/278/43 284/276/43
f 90/105/27 103/103/27 412/366/27 411/368/27
f 66/79/65 64/77/65 302/340/65 369/342/65
f 29/16/46 30/57/46 316/320/46 315/278/46
f 103/103/27 104/2/27 413/266/27 412/366/27
f 30/57/66 31/55/66 317/318/66 316/320/66
f 104/2/27 105/1/27 414/263/27 413/266/27
f 135/158/27 136/118/27 466/378/27 447/419/27
f 31/55/67 32/53/67 318/316/67 317/318/67
f 105/1/27 106/34/27 402/298/27 414/263/27
f 23/217/68 66/79/68 369/342/68 301/480/68
f 136/118/69 114/117/69 430/379/69 466/378/69
f 32/53/70 33/51/70 319/314/70 318/316/70
f 137/114/71 111/113/71 424/375/71 442/374/71
f 33/51/72 34/49/72 320/312/72 319/314/72
f 172/178/73 173/176/73 517/438/73 501/439/73
f 138/171/27 139/110/27 462/370/27 428/433/27
f 34/49/74 35/47/74 321/310/74 320/312/74
f 139/110/75 108/109/75 420/371/75 462/370/75
f 35/47/76 36/45/76 322/308/76 321/310/76
f 173/176/77 161/174/77 510/436/77 517/438/77
f 140/136/78 177/180/78 471/441/78 421/397/78
f 36/45/79 37/43/79 323/306/79 322/308/79
f 22/39/80 70/216/80 374/478/80 299/301/80
f 37/43/27 38/41/27 277/304/27 323/306/27
f 108/109/81 140/136/81 421/397/81 420/371/81
f 70/216/82 71/226/82 375/488/82 374/478/82
f 175/182/83 151/166/83 490/426/83 520/443/83
f 71/226/84 72/218/84 300/479/84 375/488/84
f 54/61/85 73/60/85 376/324/85 351/323/85
f 177/180/86 175/182/86 520/443/86 471/441/86
f 111/113/87 112/172/87 419/432/87 424/375/87
f 52/67/88 75/66/88 379/330/88 348/329/88
f 112/172/89 138/171/89 428/433/89 419/432/89
f 179/86/27 122/124/27 444/385/27 523/348/27
f 75/66/90 76/91/90 380/354/90 379/330/90
f 158/150/91 1/154/91 270/414/91 269/411/91
f 76/91/92 77/89/92 381/351/92 380/354/92
f 73/60/27 179/86/27 523/348/27 376/324/27
