{
  "accessors": [
    {
      "bufferView": 3,
      "componentType": 5126,
      "count": 160,
      "max": [
        1.0,
        8.928929328918457,
        1.0000001192092896
      ],
      "min": [
        -1.0,
        -1.0000001192092896,
        -1.0000014305114746
      ],
      "type": "VEC3"
    },
    {
      "bufferView": 3,
      "byteOffset": 1920,
      "componentType": 5126,
      "count": 160,
      "max": [
        1.0,
        1.0,
        1.0
      ],
      "min": [
        -1.0,
        -1.0,
        -1.0
      ],
      "type": "VEC3"
    },
    {
      "bufferView": 4,
      "componentType": 5126,
      "count": 160,
      "max": [
        1.0,
        0.7071067094802856,
        1.0,
        -1.0
      ],
      "min": [
        -1.0,
        -0.7071115970611572,
        -1.0,
        -1.0
      ],
      "type": "VEC4"
    },
    {
      "bufferView": 2,
      "componentType": 5126,
      "count": 160,
      "max": [
        0.9998061656951904,
        0.9998061656951904
      ],
      "min": [
        0.00019379807054065168,
        0.23111575841903687
      ],
      "type": "VEC2"
    },
    {
      "bufferView": 1,
      "componentType": 5125,
      "count": 324,
      "type": "SCALAR"
    },
    {
      "bufferView": 3,
      "byteOffset": 3840,
      "componentType": 5126,
      "count": 2923,
      "max": [
        0.7892910838127136,
        8.46024227142334,
        1.1893049478530884
      ],
      "min": [
        -0.7892910838127136,
        0.5307831764221191,
        0.7415870428085327
      ],
      "type": "VEC3"
    },
    {
      "bufferView": 3,
      "byteOffset": 38916,
      "componentType": 5126,
      "count": 2923,
      "max": [
        0.9915009140968323,
        0.9915009140968323,
        0.9910479784011841
      ],
      "min": [
        -0.9915009140968323,
        -0.9915009140968323,
        -1.0
      ],
      "type": "VEC3"
    },
    {
      "bufferView": 4,
      "byteOffset": 2560,
      "componentType": 5126,
      "count": 2923,
      "max": [
        0.872280478477478,
        1.0,
        0.9907689094543457,
        1.0
      ],
      "min": [
        -0.8342671990394592,
        -1.0,
        -0.9913327097892761,
        -1.0
      ],
      "type": "VEC4"
    },
    {
      "bufferView": 2,
      "byteOffset": 1280,
      "componentType": 5126,
      "count": 2923,
      "max": [
        0.9998995661735535,
        0.9999003410339355
      ],
      "min": [
        9.969391248887405e-05,
        9.971857070922852e-05
      ],
      "type": "VEC2"
    },
    {
      "bufferView": 1,
      "byteOffset": 1296,
      "componentType": 5125,
      "count": 13824,
      "type": "SCALAR"
    },
    {
      "bufferView": 3,
      "byteOffset": 73992,
      "componentType": 5126,
      "count": 644,
      "max": [
        0.6073328256607056,
        8.278285026550293,
        1.1141868829727173
      ],
      "min": [
        -0.6073328256607056,
        0.7127413153648376,
        1.0493640899658203
      ],
      "type": "VEC3"
    },
    {
      "bufferView": 3,
      "byteOffset": 81720,
      "componentType": 5126,
      "count": 644,
      "max": [
        0.7959983944892883,
        0.7959985136985779,
        1.0
      ],
      "min": [
        -0.7959983944892883,
        -0.7959982752799988,
        0.6052693724632263
      ],
      "type": "VEC3"
    },
    {
      "bufferView": 4,
      "byteOffset": 49328,
      "componentType": 5126,
      "count": 644,
      "max": [
        0.8189100027084351,
        0.8613663911819458,
        0.7897834777832031,
        -1.0
      ],
      "min": [
        0.24238522350788116,
        0.37574926018714905,
        -0.789783775806427,
        -1.0
      ],
      "type": "VEC4"
    },
    {
      "bufferView": 2,
      "byteOffset": 24664,
      "componentType": 5126,
      "count": 644,
      "max": [
        0.9998929500579834,
        0.9998999834060669
      ],
      "min": [
        9.996129665523767e-05,
        9.995698928833008e-05
      ],
      "type": "VEC2"
    },
    {
      "bufferView": 2,
      "byteOffset": 29816,
      "componentType": 5126,
      "count": 644,
      "max": [
        0.9998929500579834,
        0.9998999834060669
      ],
      "min": [
        9.996129665523767e-05,
        9.995698928833008e-05
      ],
      "type": "VEC2"
    },
    {
      "bufferView": 1,
      "byteOffset": 56592,
      "componentType": 5125,
      "count": 3066,
      "type": "SCALAR"
    },
    {
      "bufferView": 3,
      "byteOffset": 89448,
      "componentType": 5126,
      "count": 2372,
      "max": [
        0.8849319219589233,
        8.60334300994873,
        1.064916729927063
      ],
      "min": [
        -0.8849319219589233,
        0.4826016128063202,
        0.9536727070808411
      ],
      "type": "VEC3"
    },
    {
      "bufferView": 3,
      "byteOffset": 117912,
      "componentType": 5126,
      "count": 2372,
      "max": [
        1.0,
        1.0,
        1.0
      ],
      "min": [
        -1.0,
        -1.0,
        -1.0
      ],
      "type": "VEC3"
    },
    {
      "bufferView": 4,
      "byteOffset": 59632,
      "componentType": 5126,
      "count": 2372,
      "max": [
        1.0,
        1.0,
        1.0,
        1.0
      ],
      "min": [
        -1.0,
        -1.0,
        -1.0,
        -1.0
      ],
      "type": "VEC4"
    },
    {
      "bufferView": 2,
      "byteOffset": 34968,
      "componentType": 5126,
      "count": 2372,
      "max": [
        0.9999000430107117,
        0.9998999834060669
      ],
      "min": [
        9.999659232562408e-05,
        9.995698928833008e-05
      ],
      "type": "VEC2"
    },
    {
      "bufferView": 1,
      "byteOffset": 68856,
      "componentType": 5125,
      "count": 8904,
      "type": "SCALAR"
    },
    {
      "bufferView": 3,
      "byteOffset": 146376,
      "componentType": 5126,
      "count": 2020,
      "max": [
        0.4490640163421631,
        0.49248820543289185,
        -0.9976840019226074
      ],
      "min": [
        -0.4490640163421631,
        -0.4056399464607239,
        -1.2416036128997803
      ],
      "type": "VEC3"
    },
    {
      "bufferView": 3,
      "byteOffset": 170616,
      "componentType": 5126,
      "count": 2020,
      "max": [
        1.0,
        1.0,
        1.0
      ],
      "min": [
        -1.0,
        -1.0,
        -1.0
      ],
      "type": "VEC3"
    },
    {
      "bufferView": 4,
      "byteOffset": 97584,
      "componentType": 5126,
      "count": 2020,
      "max": [
        0.9979557394981384,
        1.0,
        1.0,
        1.0
      ],
      "min": [
        -0.9835535883903503,
        -1.0,
        -1.0,
        -1.0
      ],
      "type": "VEC4"
    },
    {
      "bufferView": 2,
      "byteOffset": 53944,
      "componentType": 5126,
      "count": 2020,
      "max": [
        0.9999000430107117,
        0.9999001026153564
      ],
      "min": [
        9.9955614132341e-05,
        0.00010001659393310547
      ],
      "type": "VEC2"
    },
    {
      "bufferView": 2,
      "byteOffset": 70104,
      "componentType": 5126,
      "count": 2020,
      "max": [
        0.9999000430107117,
        0.9999001026153564
      ],
      "min": [
        9.9955614132341e-05,
        0.00010001659393310547
      ],
      "type": "VEC2"
    },
    {
      "bufferView": 1,
      "byteOffset": 104472,
      "componentType": 5125,
      "count": 5952,
      "type": "SCALAR"
    },
    {
      "bufferView": 3,
      "byteOffset": 194856,
      "componentType": 5126,
      "count": 946,
      "max": [
        0.28066501021385193,
        0.09955715388059616,
        -1.1134294271469116
      ],
      "min": [
        -0.28066501021385193,
        -0.01270887441933155,
        -1.291016697883606
      ],
      "type": "VEC3"
    },
    {
      "bufferView": 3,
      "byteOffset": 206208,
      "componentType": 5126,
      "count": 946,
      "max": [
        0.9981744289398193,
        0.9981744289398193,
        1.0
      ],
      "min": [
        -0.9981744289398193,
        -0.9981744289398193,
        -1.6262325175375736e-07
      ],
      "type": "VEC3"
    },
    {
      "bufferView": 4,
      "byteOffset": 129904,
      "componentType": 5126,
      "count": 946,
      "max": [
        0.6166991591453552,
        1.0,
        1.0,
        1.0
      ],
      "min": [
        -0.8295571208000183,
        -0.9981744289398193,
        -1.0,
        -1.0
      ],
      "type": "VEC4"
    },
    {
      "bufferView": 2,
      "byteOffset": 86264,
      "componentType": 5126,
      "count": 946,
      "max": [
        0.5624874830245972,
        0.8124375343322754
      ],
      "min": [
        0.43751248717308044,
        0.18756252527236938
      ],
      "type": "VEC2"
    },
    {
      "bufferView": 2,
      "byteOffset": 93832,
      "componentType": 5126,
      "count": 946,
      "max": [
        0.5624874830245972,
        0.8124375343322754
      ],
      "min": [
        0.43751248717308044,
        0.18756252527236938
      ],
      "type": "VEC2"
    },
    {
      "bufferView": 1,
      "byteOffset": 128280,
      "componentType": 5125,
      "count": 1560,
      "type": "SCALAR"
    },
    {
      "bufferView": 3,
      "byteOffset": 217560,
      "componentType": 5126,
      "count": 208,
      "max": [
        -0.16839900612831116,
        0.09955714643001556,
        -1.2045438289642334
      ],
      "min": [
        -0.28066501021385193,
        -0.012708870694041252,
        -1.2416036128997803
      ],
      "type": "VEC3"
    },
    {
      "bufferView": 3,
      "byteOffset": 220056,
      "componentType": 5126,
      "count": 208,
      "max": [
        0.9981744289398193,
        0.9981744289398193,
        1.6262325175375736e-07
      ],
      "min": [
        -0.9981744289398193,
        -0.9981744289398193,
        -1.6262325175375736e-07
      ],
      "type": "VEC3"
    },
    {
      "bufferView": 4,
      "byteOffset": 145040,
      "componentType": 5126,
      "count": 208,
      "max": [
        0.6166991591453552,
        0.9981744289398193,
        1.0,
        1.0
      ],
      "min": [
        -0.6166991591453552,
        -0.9981744289398193,
        -1.0,
        1.0
      ],
      "type": "VEC4"
    },
    {
      "bufferView": 2,
      "byteOffset": 101400,
      "componentType": 5126,
      "count": 208,
      "max": [
        0.5624874830245972,
        0.3125374913215637
      ],
      "min": [
        0.43751251697540283,
        0.18756252527236938
      ],
      "type": "VEC2"
    },
    {
      "bufferView": 1,
      "byteOffset": 134520,
      "componentType": 5125,
      "count": 312,
      "type": "SCALAR"
    },
    {
      "bufferView": 5,
      "componentType": 5126,
      "count": 2,
      "max": [
        1.0,
        0.0,
        0.0,
        0.0,
        0.0,
        1.0,
        1.0,
        0.0,
        0.0,
        0.0,
        1.0,
        0.0,
        0.0,
        0.0,
        0.0,
        1.0
      ],
      "min": [
        1.0,
        0.0,
        0.0,
        0.0,
        0.0,
        -1.6292067073209182e-07,
        0.0,
        0.0,
        0.0,
        -1.0,
        -1.6292067073209182e-07,
        0.0,
        0.0,
        0.0,
        0.0,
        1.0
      ],
      "type": "MAT4"
    },
    {
      "bufferView": 0,
      "componentType": 5123,
      "count": 160,
      "type": "VEC4"
    },
    {
      "bufferView": 4,
      "byteOffset": 148368,
      "componentType": 5126,
      "count": 160,
      "max": [
        1.0,
        0.0,
        0.0,
        0.0
      ],
      "min": [
        1.0,
        0.0,
        0.0,
        0.0
      ],
      "type": "VEC4"
    },
    {
      "bufferView": 0,
      "byteOffset": 1280,
      "componentType": 5123,
      "count": 2923,
      "type": "VEC4"
    },
    {
      "bufferView": 4,
      "byteOffset": 150928,
      "componentType": 5126,
      "count": 2923,
      "max": [
        1.0,
        0.0,
        0.0,
        0.0
      ],
      "min": [
        1.0,
        0.0,
        0.0,
        0.0
      ],
      "type": "VEC4"
    },
    {
      "bufferView": 0,
      "byteOffset": 24664,
      "componentType": 5123,
      "count": 644,
      "type": "VEC4"
    },
    {
      "bufferView": 4,
      "byteOffset": 197696,
      "componentType": 5126,
      "count": 644,
      "max": [
        1.0,
        0.0,
        0.0,
        0.0
      ],
      "min": [
        1.0,
        0.0,
        0.0,
        0.0
      ],
      "type": "VEC4"
    },
    {
      "bufferView": 0,
      "byteOffset": 29816,
      "componentType": 5123,
      "count": 2372,
      "type": "VEC4"
    },
    {
      "bufferView": 4,
      "byteOffset": 208000,
      "componentType": 5126,
      "count": 2372,
      "max": [
        1.0,
        0.0,
        0.0,
        0.0
      ],
      "min": [
        1.0,
        0.0,
        0.0,
        0.0
      ],
      "type": "VEC4"
    },
    {
      "bufferView": 0,
      "byteOffset": 48792,
      "componentType": 5123,
      "count": 2020,
      "type": "VEC4"
    },
    {
      "bufferView": 4,
      "byteOffset": 245952,
      "componentType": 5126,
      "count": 2020,
      "max": [
        1.0,
        0.0,
        0.0,
        0.0
      ],
      "min": [
        1.0,
        0.0,
        0.0,
        0.0
      ],
      "type": "VEC4"
    },
    {
      "bufferView": 0,
      "byteOffset": 64952,
      "componentType": 5123,
      "count": 946,
      "type": "VEC4"
    },
    {
      "bufferView": 4,
      "byteOffset": 278272,
      "componentType": 5126,
      "count": 946,
      "max": [
        1.0,
        0.0,
        0.0,
        0.0
      ],
      "min": [
        1.0,
        0.0,
        0.0,
        0.0
      ],
      "type": "VEC4"
    },
    {
      "bufferView": 0,
      "byteOffset": 72520,
      "componentType": 5123,
      "count": 208,
      "type": "VEC4"
    },
    {
      "bufferView": 4,
      "byteOffset": 293408,
      "componentType": 5126,
      "count": 208,
      "max": [
        1.0,
        0.0,
        0.0,
        0.0
      ],
      "min": [
        1.0,
        0.0,
        0.0,
        0.0
      ],
      "type": "VEC4"
    }
  ],
  "asset": {
    "extras": {
      "author": "photon (that one larry) (https://sketchfab.com/Professor_E12)",
      "license": "CC-BY-4.0 (http://creativecommons.org/licenses/by/4.0/)",
      "source": "https://sketchfab.com/3d-models/tall-speaker-1-c3d77b3807ae4158b0cb07ebdd1f8c77",
      "title": "Tall Speaker 1"
    },
    "generator": "Sketchfab-16.99.0",
    "version": "2.0"
  },
  "bufferViews": [
    {
      "buffer": 0,
      "byteLength": 74184,
      "byteStride": 8,
      "name": "shortBufferViews",
      "target": 34962
    },
    {
      "buffer": 0,
      "byteLength": 135768,
      "byteOffset": 74184,
      "name": "floatBufferViews",
      "target": 34963
    },
    {
      "buffer": 0,
      "byteLength": 103064,
      "byteOffset": 209952,
      "byteStride": 8,
      "name": "floatBufferViews",
      "target": 34962
    },
    {
      "buffer": 0,
      "byteLength": 222552,
      "byteOffset": 313016,
      "byteStride": 12,
      "name": "floatBufferViews",
      "target": 34962
    },
    {
      "buffer": 0,
      "byteLength": 296736,
      "byteOffset": 535568,
      "byteStride": 16,
      "name": "floatBufferViews",
      "target": 34962
    },
    {
      "buffer": 0,
      "byteLength": 128,
      "byteOffset": 832304,
      "name": "floatBufferViews"
    }
  ],
  "buffers": [
    {
      "byteLength": 832432,
      "uri": "scene.bin"
    }
  ],
  "images": [
    {
      "uri": "textures/speaker1_baseColor.png"
    },
    {
      "uri": "textures/speaker1_normal.png"
    },
    {
      "uri": "textures/guma_baseColor.png"
    },
    {
      "uri": "textures/membrane_cooper_baseColor.png"
    },
    {
      "uri": "textures/membrane_cooper_normal.png"
    },
    {
      "uri": "textures/darkgraymetal_baseColor.png"
    },
    {
      "uri": "textures/darkgraymetal_normal.png"
    },
    {
      "uri": "textures/cinchhl_baseColor.png"
    },
    {
      "uri": "textures/cinchhl_normal.png"
    },
    {
      "uri": "textures/material_baseColor.png"
    }
  ],
  "materials": [
    {
      "doubleSided": true,
      "name": "speaker1",
      "normalTexture": {
        "index": 1
      },
      "pbrMetallicRoughness": {
        "baseColorTexture": {
          "index": 0
        },
        "metallicFactor": 0.114896,
        "roughnessFactor": 0.551291
      }
    },
    {
      "doubleSided": true,
      "name": "guma",
      "normalTexture": {
        "index": 1
      },
      "pbrMetallicRoughness": {
        "baseColorTexture": {
          "index": 2
        },
        "metallicFactor": 0.114896,
        "roughnessFactor": 0.551291
      }
    },
    {
      "doubleSided": true,
      "name": "membrane_cooper",
      "normalTexture": {
        "index": 4,
        "texCoord": 1
      },
      "pbrMetallicRoughness": {
        "baseColorTexture": {
          "index": 3
        },
        "metallicFactor": 0.114896,
        "roughnessFactor": 0.551291
      }
    },
    {
      "doubleSided": true,
      "name": "darkgraymetal",
      "normalTexture": {
        "index": 6
      },
      "pbrMetallicRoughness": {
        "baseColorTexture": {
          "index": 5
        },
        "metallicFactor": 0.114896,
        "roughnessFactor": 0.551291
      }
    },
    {
      "doubleSided": true,
      "name": "black",
      "normalTexture": {
        "index": 1,
        "texCoord": 1
      },
      "pbrMetallicRoughness": {
        "baseColorTexture": {
          "index": 0
        },
        "metallicFactor": 0.114896,
        "roughnessFactor": 0.551291
      }
    },
    {
      "doubleSided": true,
      "name": "cinchhl",
      "normalTexture": {
        "index": 8,
        "texCoord": 1
      },
      "pbrMetallicRoughness": {
        "baseColorTexture": {
          "index": 7
        },
        "metallicFactor": 0.114896,
        "roughnessFactor": 0.551291
      }
    },
    {
      "doubleSided": true,
      "name": "material",
      "normalTexture": {
        "index": 1
      },
      "pbrMetallicRoughness": {
        "baseColorTexture": {
          "index": 9
        },
        "metallicFactor": 0.114896,
        "roughnessFactor": 0.551291
      }
    }
  ],
  "meshes": [
    {
      "name": "Object_0",
      "primitives": [
        {
          "attributes": {
            "JOINTS_0": 39,
            "NORMAL": 1,
            "POSITION": 0,
            "TANGENT": 2,
            "TEXCOORD_0": 3,
            "TEXCOORD_1": 3,
            "WEIGHTS_0": 40
          },
          "indices": 4,
          "material": 0,
          "mode": 4
        }
      ]
    },
    {
      "name": "Object_1",
      "primitives": [
        {
          "attributes": {
            "JOINTS_0": 41,
            "NORMAL": 6,
            "POSITION": 5,
            "TANGENT": 7,
            "TEXCOORD_0": 8,
            "TEXCOORD_1": 8,
            "WEIGHTS_0": 42
          },
          "indices": 9,
          "material": 1,
          "mode": 4
        }
      ]
    },
    {
      "name": "Object_2",
      "primitives": [
        {
          "attributes": {
            "JOINTS_0": 43,
            "NORMAL": 11,
            "POSITION": 10,
            "TANGENT": 12,
            "TEXCOORD_0": 13,
            "TEXCOORD_1": 14,
            "WEIGHTS_0": 44
          },
          "indices": 15,
          "material": 2,
          "mode": 4
        }
      ]
    },
    {
      "name": "Object_3",
      "primitives": [
        {
          "attributes": {
            "JOINTS_0": 45,
            "NORMAL": 17,
            "POSITION": 16,
            "TANGENT": 18,
            "TEXCOORD_0": 19,
            "TEXCOORD_1": 19,
            "WEIGHTS_0": 46
          },
          "indices": 20,
          "material": 3,
          "mode": 4
        }
      ]
    },
    {
      "name": "Object_4",
      "primitives": [
        {
          "attributes": {
            "JOINTS_0": 47,
            "NORMAL": 22,
            "POSITION": 21,
            "TANGENT": 23,
            "TEXCOORD_0": 24,
            "TEXCOORD_1": 25,
            "WEIGHTS_0": 48
          },
          "indices": 26,
          "material": 4,
          "mode": 4
        }
      ]
    },
    {
      "name": "Object_5",
      "primitives": [
        {
          "attributes": {
            "JOINTS_0": 49,
            "NORMAL": 28,
            "POSITION": 27,
            "TANGENT": 29,
            "TEXCOORD_0": 30,
            "TEXCOORD_1": 31,
            "WEIGHTS_0": 50
          },
          "indices": 32,
          "material": 5,
          "mode": 4
        }
      ]
    },
    {
      "name": "Object_6",
      "primitives": [
        {
          "attributes": {
            "JOINTS_0": 51,
            "NORMAL": 34,
            "POSITION": 33,
            "TANGENT": 35,
            "TEXCOORD_0": 36,
            "TEXCOORD_1": 36,
            "WEIGHTS_0": 52
          },
          "indices": 37,
          "material": 6,
          "mode": 4
        }
      ]
    }
  ],
  "nodes": [
    {
      "children": [
        1
      ],
      "matrix": [
        1.0,
        0.0,
        0.0,
        0.0,
        0.0,
        2.220446049250313e-16,
        -1.0,
        0.0,
        0.0,
        1.0,
        2.220446049250313e-16,
        0.0,
        0.0,
        0.0,
        0.0,
        1.0
      ],
      "name": "Sketchfab_model"
    },
    {
      "children": [
        2
      ],
      "name": "root"
    },
    {
      "children": [
        3
      ],
      "matrix": [
        1.0,
        0.0,
        0.0,
        0.0,
        0.0,
        2.220446049250313e-16,
        1.0,
        0.0,
        0.0,
        -1.0,
        2.220446049250313e-16,
        0.0,
        0.0,
        0.0,
        0.0,
        1.0
      ],
      "name": "GLTF_SceneRootNode"
    },
    {
      "children": [
        4
      ],
      "name": "Tallspeaker_3"
    },
    {
      "children": [
        5
      ],
      "name": "Tallspeaker_arm_2"
    },
    {
      "children": [
        6,
        8,
        9,
        10,
        11,
        12,
        13,
        14,
        7
      ],
      "name": "GLTF_created_0"
    },
    {
      "children": [
        15
      ],
      "name": "GLTF_created_0_rootJoint"
    },
    {
      "name": "Tallspeaker_mesh_1"
    },
    {
      "mesh": 0,
      "name": "Object_8",
      "skin": 0
    },
    {
      "mesh": 1,
      "name": "Object_9",
      "skin": 0
    },
    {
      "mesh": 2,
      "name": "Object_10",
      "skin": 0
    },
    {
      "mesh": 3,
      "name": "Object_11",
      "skin": 0
    },
    {
      "mesh": 4,
      "name": "Object_12",
      "skin": 0
    },
    {
      "mesh": 5,
      "name": "Object_13",
      "skin": 0
    },
    {
      "mesh": 6,
      "name": "Object_14",
      "skin": 0
    },
    {
      "name": "root_0",
      "rotation": [
        -0.7071068286895752,
        0.0,
        0.0,
        0.7071068286895752
      ]
    }
  ],
  "samplers": [
    {
      "magFilter": 9729,
      "minFilter": 9987,
      "wrapS": 10497,
      "wrapT": 10497
    }
  ],
  "scene": 0,
  "scenes": [
    {
      "name": "Sketchfab_Scene",
      "nodes": [
        0
      ]
    }
  ],
  "skins": [
    {
      "inverseBindMatrices": 38,
      "joints": [
        6,
        15
      ],
      "skeleton": 6
    }
  ],
  "textures": [
    {
      "sampler": 0,
      "source": 0
    },
    {
      "sampler": 0,
      "source": 1
    },
    {
      "sampler": 0,
      "source": 2
    },
    {
      "sampler": 0,
      "source": 3
    },
    {
      "sampler": 0,
      "source": 4
    },
    {
      "sampler": 0,
      "source": 5
    },
    {
      "sampler": 0,
      "source": 6
    },
    {
      "sampler": 0,
      "source": 7
    },
    {
      "sampler": 0,
      "source": 8
    },
    {
      "sampler": 0,
      "source": 9
    }
  ]
}
