# Blender v3.2.0 OBJ File: 'panele.blend'
# www.blender.org
mtllib amber_end2.mtl
o amber_end_1_Plane
v 0.060680 2.700000 0.005998
v 0.078403 2.700000 -0.005629
v 0.091208 2.700000 -0.003751
v 0.093296 2.700000 -0.003522
v 0.080697 2.700000 -0.005696
v 0.080697 2.700000 0.005998
v 0.082857 2.700000 0.004970
v 0.082857 2.700000 -0.005175
v 0.095384 2.700000 -0.003308
v 0.097472 2.700000 -0.003156
v 0.060680 2.700000 0.001012
v 0.099559 2.700000 -0.003056
v 0.080697 2.700000 0.001012
v 0.082857 2.700000 0.000411
v 0.101647 2.700000 -0.002990
v 0.078403 2.700000 0.005998
v 0.075873 2.700000 0.005998
v 0.075873 2.700000 0.001012
v 0.078933 2.700000 0.005998
v 0.078933 2.700000 -0.005998
v 0.078933 2.700000 0.001012
v 0.079558 2.700000 0.005998
v 0.079558 2.700000 -0.005986
v 0.079558 2.700000 0.001012
v 0.076601 2.700000 0.000551
v 0.076601 2.700000 0.001012
v 0.076601 2.700000 0.005998
v 0.078403 2.700000 0.001012
v 0.077502 2.700000 0.005998
v 0.077502 2.700000 -0.002539
v 0.077502 2.700000 0.001012
v 0.076806 2.700000 0.000227
v 0.076806 2.700000 0.001012
v 0.076806 2.700000 0.005998
v 0.076237 2.700000 0.001012
v 0.076237 2.700000 0.005998
v 0.076237 2.700000 0.000843
v 0.077952 2.700000 0.005998
v 0.077952 2.700000 -0.004205
v 0.077952 2.700000 0.001012
v 0.078177 2.700000 0.005998
v 0.078177 2.700000 -0.005069
v 0.078177 2.700000 0.001012
v 0.078290 2.700000 0.005998
v 0.078290 2.700000 -0.005403
v 0.078290 2.700000 0.001012
v 0.077154 2.700000 0.005998
v 0.077154 2.700000 -0.001093
v 0.077154 2.700000 0.001012
v 0.076875 2.700000 0.000026
v 0.076875 2.700000 0.001012
v 0.076875 2.700000 0.005998
v 0.078668 2.700000 0.001012
v 0.078668 2.700000 -0.005867
v 0.078668 2.700000 0.005998
v 0.078535 2.700000 0.001012
v 0.078535 2.700000 -0.005774
v 0.078535 2.700000 0.005998
v 0.078800 2.700000 0.005998
v 0.078800 2.700000 0.001012
v 0.078800 2.700000 -0.005939
v 0.079245 2.700000 -0.006002
v 0.079245 2.700000 0.001012
v 0.079245 2.700000 0.005998
v 0.079402 2.700000 0.005998
v 0.079402 2.700000 -0.006000
v 0.079402 2.700000 0.001012
v 0.089121 2.700000 -0.004042
v 0.087033 2.700000 -0.004385
v 0.084945 2.700000 -0.004763
v 0.101647 2.700000 0.000411
v 0.099559 2.700000 0.000411
v 0.097472 2.700000 0.000411
v 0.095384 2.700000 0.000411
v 0.093296 2.700000 0.000411
v 0.091208 2.700000 0.000411
v 0.089121 2.700000 0.000411
v 0.087033 2.700000 0.000411
v 0.084945 2.700000 0.000411
v 0.084945 2.700000 0.004970
v 0.087033 2.700000 0.004970
v 0.089121 2.700000 0.004970
v 0.091208 2.700000 0.004970
v 0.093296 2.700000 0.004970
v 0.095384 2.700000 0.004970
v 0.097472 2.700000 0.004970
v 0.099559 2.700000 0.004970
v 0.101647 2.700000 0.004970
v 0.129067 2.700000 -0.005629
v 0.116262 2.700000 -0.003751
v 0.114174 2.700000 -0.003522
v 0.126773 2.700000 -0.005696
v 0.126773 2.700000 0.005998
v 0.124613 2.700000 0.005998
v 0.124613 2.700000 -0.005175
v 0.112086 2.700000 -0.003308
v 0.109998 2.700000 -0.003156
v 0.107910 2.700000 -0.003056
v 0.126773 2.700000 0.001012
v 0.124613 2.700000 0.000411
v 0.105823 2.700000 -0.002990
v 0.129067 2.700000 0.005998
v 0.128537 2.700000 0.005998
v 0.128537 2.700000 -0.005998
v 0.128537 2.700000 0.001012
v 0.127912 2.700000 0.005998
v 0.127912 2.700000 -0.005986
v 0.127912 2.700000 0.001012
v 0.129067 2.700000 0.001012
v 0.129180 2.700000 0.005998
v 0.129180 2.700000 -0.005403
v 0.129180 2.700000 0.001012
v 0.128802 2.700000 0.001012
v 0.128802 2.700000 -0.005867
v 0.128802 2.700000 0.005998
v 0.128935 2.700000 0.001012
v 0.128935 2.700000 -0.005774
v 0.128935 2.700000 0.005998
v 0.128669 2.700000 0.005998
v 0.128669 2.700000 0.001012
v 0.128669 2.700000 -0.005939
v 0.128224 2.700000 -0.006002
v 0.128224 2.700000 0.001012
v 0.128224 2.700000 0.005998
v 0.128068 2.700000 0.005998
v 0.128068 2.700000 -0.006000
v 0.128068 2.700000 0.001012
v 0.103735 2.700000 -0.002959
v 0.103735 2.700000 0.004970
v 0.103735 2.700000 0.000411
v 0.118608 2.700000 -0.004085
v 0.120733 2.700000 -0.004439
v 0.122525 2.700000 -0.004763
v 0.105823 2.700000 0.000411
v 0.107910 2.700000 0.000411
v 0.109998 2.700000 0.000411
v 0.112086 2.700000 0.000411
v 0.114174 2.700000 0.000411
v 0.116262 2.700000 0.000411
v 0.118608 2.700000 0.000411
v 0.120733 2.700000 0.000411
v 0.122525 2.700000 0.000411
v 0.122525 2.700000 0.005998
v 0.120733 2.700000 0.005998
v 0.118608 2.700000 0.004970
v 0.116262 2.700000 0.004970
v 0.114174 2.700000 0.004970
v 0.112086 2.700000 0.004970
v 0.109998 2.700000 0.004970
v 0.107910 2.700000 0.004970
v 0.105823 2.700000 0.004970
v 0.060680 0.000000 0.005998
v 0.078403 0.000000 -0.005629
v 0.091208 0.000000 -0.003751
v 0.093296 0.000000 -0.003522
v 0.080697 0.000000 -0.005696
v 0.080697 0.000000 0.005998
v 0.082857 0.000000 0.004970
v 0.082857 0.000000 -0.005175
v 0.095384 0.000000 -0.003308
v 0.097472 0.000000 -0.003156
v 0.060680 0.000000 0.001012
v 0.099559 0.000000 -0.003056
v 0.080697 0.000000 0.001012
v 0.082857 0.000000 0.000411
v 0.101647 0.000000 -0.002990
v 0.078403 0.000000 0.005998
v 0.075873 0.000000 0.005998
v 0.075873 0.000000 0.001012
v 0.078933 0.000000 0.005998
v 0.078933 0.000000 -0.005998
v 0.078933 0.000000 0.001012
v 0.079558 0.000000 0.005998
v 0.079558 0.000000 -0.005986
v 0.079558 0.000000 0.001012
v 0.076601 0.000000 0.000551
v 0.076601 0.000000 0.001012
v 0.076601 0.000000 0.005998
v 0.078403 0.000000 0.001012
v 0.077502 0.000000 0.005998
v 0.077502 0.000000 -0.002539
v 0.077502 0.000000 0.001012
v 0.076806 0.000000 0.000227
v 0.076806 0.000000 0.001012
v 0.076806 0.000000 0.005998
v 0.076237 0.000000 0.001012
v 0.076237 0.000000 0.005998
v 0.076237 0.000000 0.000843
v 0.077952 0.000000 0.005998
v 0.077952 0.000000 -0.004205
v 0.077952 0.000000 0.001012
v 0.078177 0.000000 0.005998
v 0.078177 0.000000 -0.005069
v 0.078177 0.000000 0.001012
v 0.078290 0.000000 0.005998
v 0.078290 0.000000 -0.005403
v 0.078290 0.000000 0.001012
v 0.077154 0.000000 0.005998
v 0.077154 0.000000 -0.001093
v 0.077154 0.000000 0.001012
v 0.076875 0.000000 0.000026
v 0.076875 0.000000 0.001012
v 0.076875 0.000000 0.005998
v 0.078668 0.000000 0.001012
v 0.078668 0.000000 -0.005867
v 0.078668 0.000000 0.005998
v 0.078535 0.000000 0.001012
v 0.078535 0.000000 -0.005774
v 0.078535 0.000000 0.005998
v 0.078800 0.000000 0.005998
v 0.078800 0.000000 0.001012
v 0.078800 0.000000 -0.005939
v 0.079245 0.000000 -0.006002
v 0.079245 0.000000 0.001012
v 0.079245 0.000000 0.005998
v 0.079402 0.000000 0.005998
v 0.079402 0.000000 -0.006000
v 0.079402 0.000000 0.001012
v 0.089121 0.000000 -0.004042
v 0.087033 0.000000 -0.004385
v 0.084945 0.000000 -0.004763
v 0.101647 0.000000 0.000411
v 0.099559 0.000000 0.000411
v 0.097472 0.000000 0.000411
v 0.095384 0.000000 0.000411
v 0.093296 0.000000 0.000411
v 0.091208 0.000000 0.000411
v 0.089121 0.000000 0.000411
v 0.087033 0.000000 0.000411
v 0.084945 0.000000 0.000411
v 0.084945 0.000000 0.004970
v 0.087033 0.000000 0.004970
v 0.089121 0.000000 0.004970
v 0.091208 0.000000 0.004970
v 0.093296 0.000000 0.004970
v 0.095384 0.000000 0.004970
v 0.097472 0.000000 0.004970
v 0.099559 0.000000 0.004970
v 0.101647 0.000000 0.004970
v 0.129067 0.000000 -0.005629
v 0.116262 0.000000 -0.003751
v 0.114174 0.000000 -0.003522
v 0.126773 0.000000 -0.005696
v 0.126773 0.000000 0.005998
v 0.124613 0.000000 0.005998
v 0.124613 0.000000 -0.005175
v 0.112086 0.000000 -0.003308
v 0.109998 0.000000 -0.003156
v 0.107910 0.000000 -0.003056
v 0.126773 0.000000 0.001012
v 0.124613 0.000000 0.000411
v 0.105823 0.000000 -0.002990
v 0.129067 0.000000 0.005998
v 0.128537 0.000000 0.005998
v 0.128537 0.000000 -0.005998
v 0.128537 0.000000 0.001012
v 0.127912 0.000000 0.005998
v 0.127912 0.000000 -0.005986
v 0.127912 0.000000 0.001012
v 0.129067 0.000000 0.001012
v 0.129180 0.000000 0.005998
v 0.129180 0.000000 -0.005403
v 0.129180 0.000000 0.001012
v 0.128802 0.000000 0.001012
v 0.128802 0.000000 -0.005867
v 0.128802 0.000000 0.005998
v 0.128935 0.000000 0.001012
v 0.128935 0.000000 -0.005774
v 0.128935 0.000000 0.005998
v 0.128669 0.000000 0.005998
v 0.128669 0.000000 0.001012
v 0.128669 0.000000 -0.005939
v 0.128224 0.000000 -0.006002
v 0.128224 0.000000 0.001012
v 0.128224 0.000000 0.005998
v 0.128068 0.000000 0.005998
v 0.128068 0.000000 -0.006000
v 0.128068 0.000000 0.001012
v 0.103735 0.000000 -0.002959
v 0.103735 0.000000 0.004970
v 0.103735 0.000000 0.000411
v 0.118608 0.000000 -0.004085
v 0.120733 0.000000 -0.004439
v 0.122525 0.000000 -0.004763
v 0.105823 0.000000 0.000411
v 0.107910 0.000000 0.000411
v 0.109998 0.000000 0.000411
v 0.112086 0.000000 0.000411
v 0.114174 0.000000 0.000411
v 0.116262 0.000000 0.000411
v 0.118608 0.000000 0.000411
v 0.120733 0.000000 0.000411
v 0.122525 0.000000 0.000411
v 0.122525 0.000000 0.005998
v 0.120733 0.000000 0.005998
v 0.118608 0.000000 0.004970
v 0.116262 0.000000 0.004970
v 0.114174 0.000000 0.004970
v 0.112086 0.000000 0.004970
v 0.109998 0.000000 0.004970
v 0.107910 0.000000 0.004970
v 0.105823 0.000000 0.004970
vt 0.252124 1.000000
vt 0.252124 1.000000
vt 0.245552 1.000000
vt 0.245552 1.000000
vt 0.236402 1.000000
vt 0.236402 1.000000
vt 0.235385 1.000000
vt 0.235385 1.000000
vt 0.232407 1.000000
vt 0.232407 1.000000
vt 0.227089 0.707832
vt 0.227089 0.707832
vt 0.255411 1.000000
vt 0.255411 1.000000
vt 0.221772 0.415663
vt 0.221772 0.415663
vt 0.257054 1.000000
vt 0.257054 1.000000
vt 0.258697 1.000000
vt 0.258697 1.000000
vt 0.000000 0.415663
vt 0.000000 0.415663
vt 0.240469 1.000000
vt 0.240469 1.000000
vt 0.257054 1.000000
vt 0.257054 1.000000
vt 0.258697 1.000000
vt 0.258697 1.000000
vt 0.257054 0.000000
vt 0.257054 0.000000
vt 0.257054 0.415663
vt 0.257054 0.415663
vt 0.262569 1.000000
vt 0.262569 1.000000
vt 0.260633 1.000000
vt 0.260633 1.000000
vt 0.264505 1.000000
vt 0.264505 1.000000
vt 0.266441 1.000000
vt 0.266441 1.000000
vt 0.628474 0.968761
vt 0.628474 0.968761
vt 0.597999 0.964386
vt 0.597999 0.964386
vt 0.354198 0.929389
vt 0.354198 0.929389
vt 0.380358 0.933145
vt 0.380358 0.933145
vt 0.271001 1.000000
vt 0.271001 1.000000
vt 0.273281 1.000000
vt 0.273281 1.000000
vt 0.292192 0.974885
vt 0.292192 0.974885
vt 0.323723 0.925015
vt 0.323723 0.925015
vt 0.266441 1.000000
vt 0.266441 1.000000
vt 0.264505 1.000000
vt 0.264505 1.000000
vt 0.273281 1.000000
vt 0.273281 1.000000
vt 0.271001 1.000000
vt 0.271001 1.000000
vt 0.275561 1.000000
vt 0.275561 1.000000
vt 0.411371 0.937596
vt 0.411371 0.937596
vt 0.445624 0.942513
vt 0.445624 0.942513
vt 0.476099 0.946888
vt 0.476099 0.946888
vt 0.506574 0.951262
vt 0.506574 0.951262
vt 0.537049 0.955637
vt 0.537049 0.955637
vt 0.384673 0.933764
vt 0.384673 0.933764
vt 0.354198 0.929389
vt 0.354198 0.929389
vt 0.275561 1.000000
vt 0.275561 1.000000
vt 0.323723 0.925015
vt 0.323723 0.925015
vt 0.292192 0.974885
vt 0.292192 0.974885
vt 0.597999 0.964386
vt 0.597999 0.964386
vt 0.537049 0.955637
vt 0.537049 0.955637
vt 0.506574 0.951262
vt 0.506574 0.951262
vt 0.567524 0.960012
vt 0.567524 0.960012
vt 0.445624 0.942513
vt 0.445624 0.942513
vt 0.415148 0.938139
vt 0.415148 0.938139
vt 0.260633 1.000000
vt 0.260633 1.000000
vt 0.476099 0.946888
vt 0.476099 0.946888
vt 0.567524 0.960012
vt 0.567524 0.960012
vt 0.262569 1.000000
vt 0.262569 1.000000
vt 0.264505 0.000000
vt 0.264505 0.000000
vt 0.262569 0.000000
vt 0.262569 0.000000
vt 0.227089 0.000000
vt 0.227089 0.000000
vt 0.232407 0.000000
vt 0.232407 0.000000
vt 0.597999 0.000000
vt 0.597999 0.000000
vt 0.628474 0.000000
vt 0.628474 0.000000
vt 0.258697 0.000000
vt 0.258697 0.000000
vt 0.260633 0.000000
vt 0.260633 0.000000
vt 0.262569 0.000000
vt 0.262569 0.000000
vt 0.264505 0.000000
vt 0.264505 0.000000
vt 0.240469 0.000000
vt 0.240469 0.000000
vt 0.245552 0.000000
vt 0.245552 0.000000
vt 0.271001 0.000000
vt 0.271001 0.000000
vt 0.266441 0.000000
vt 0.266441 0.000000
vt 0.292192 0.000000
vt 0.292192 0.000000
vt 0.275561 0.000000
vt 0.275561 0.000000
vt 0.323723 0.000000
vt 0.323723 0.000000
vt 0.273281 0.000000
vt 0.273281 0.000000
vt 0.000000 0.000000
vt 0.000000 0.000000
vt 0.266441 0.000000
vt 0.266441 0.000000
vt 0.271001 0.000000
vt 0.271001 0.000000
vt 0.235385 0.000000
vt 0.235385 0.000000
vt 0.273281 0.000000
vt 0.273281 0.000000
vt 0.597999 0.000000
vt 0.597999 0.000000
vt 0.221772 0.000000
vt 0.221772 0.000000
vt 0.275561 0.000000
vt 0.275561 0.000000
vt 0.292192 0.000000
vt 0.292192 0.000000
vt 0.323723 0.000000
vt 0.323723 0.000000
vt 0.252124 0.000000
vt 0.252124 0.000000
vt 0.258697 0.000000
vt 0.258697 0.000000
vt 0.354198 0.000000
vt 0.354198 0.000000
vt 0.354198 0.000000
vt 0.354198 0.000000
vt 0.380358 0.000000
vt 0.380358 0.000000
vt 0.255411 0.000000
vt 0.255411 0.000000
vt 0.384673 0.000000
vt 0.384673 0.000000
vt 0.411371 0.000000
vt 0.411371 0.000000
vt 0.415148 0.000000
vt 0.415148 0.000000
vt 0.445623 0.000000
vt 0.445623 0.000000
vt 0.445623 0.000000
vt 0.445623 0.000000
vt 0.476098 0.000000
vt 0.476098 0.000000
vt 0.476098 0.000000
vt 0.476098 0.000000
vt 0.506573 0.000000
vt 0.506573 0.000000
vt 0.506573 0.000000
vt 0.506573 0.000000
vt 0.537049 0.000000
vt 0.537049 0.000000
vt 0.257054 0.000000
vt 0.257054 0.000000
vt 0.537049 0.000000
vt 0.537049 0.000000
vt 0.567524 0.000000
vt 0.567524 0.000000
vt 0.567524 0.000000
vt 0.567524 0.000000
vt 0.236402 0.000000
vt 0.236402 0.000000
vt 0.260633 0.000000
vt 0.260633 0.000000
vt 0.415148 0.415663
vt 0.445623 0.415663
vt 0.384673 0.415663
vt 0.275561 0.415663
vt 0.292192 0.415663
vt 0.323723 0.415663
vt 0.354198 0.415663
vt 0.476099 0.415663
vt 0.506574 0.415663
vt 0.257054 0.415663
vt 0.258697 0.415663
vt 0.266441 0.415663
vt 0.264505 0.415663
vt 0.273281 0.415663
vt 0.227089 0.415663
vt 0.232407 0.415663
vt 0.245552 0.415663
vt 0.240469 0.415663
vt 0.235385 0.415663
vt 0.252124 0.415663
vt 0.255411 0.415663
vt 0.236402 0.415663
vt 0.260633 0.415663
vt 0.262569 0.415663
vt 0.271001 0.415663
vt 0.628474 0.415663
vt 0.597999 0.415663
vt 0.537049 0.415663
vt 0.567524 0.415663
vt 0.411371 0.415663
vt 0.445623 0.415663
vt 0.380358 0.415663
vt 0.275561 0.415663
vt 0.292192 0.415663
vt 0.323723 0.415663
vt 0.354198 0.415663
vt 0.476099 0.415663
vt 0.506574 0.415663
vt 0.258697 0.415663
vt 0.264505 0.415663
vt 0.266441 0.415663
vt 0.273281 0.415663
vt 0.260633 0.415663
vt 0.262569 0.415663
vt 0.271001 0.415663
vt 0.597999 0.415663
vt 0.537049 0.415663
vt 0.567524 0.415663
vt 0.415148 0.415663
vt 0.445623 0.415663
vt 0.384673 0.415663
vt 0.275561 0.415663
vt 0.292192 0.415663
vt 0.323723 0.415663
vt 0.354198 0.415663
vt 0.476099 0.415663
vt 0.506574 0.415663
vt 0.257054 0.415663
vt 0.258697 0.415663
vt 0.264505 0.415663
vt 0.266441 0.415663
vt 0.273281 0.415663
vt 0.227089 0.415663
vt 0.232407 0.415663
vt 0.240469 0.415663
vt 0.245552 0.415663
vt 0.235385 0.415663
vt 0.252124 0.415663
vt 0.255411 0.415663
vt 0.236402 0.415663
vt 0.260633 0.415663
vt 0.262569 0.415663
vt 0.271001 0.415663
vt 0.597999 0.415663
vt 0.628474 0.415663
vt 0.537049 0.415663
vt 0.567524 0.415663
vt 0.411371 0.415663
vt 0.445623 0.415663
vt 0.380358 0.415663
vt 0.275561 0.415663
vt 0.292192 0.415663
vt 0.323723 0.415663
vt 0.354198 0.415663
vt 0.476099 0.415663
vt 0.506574 0.415663
vt 0.258697 0.415663
vt 0.266441 0.415663
vt 0.264505 0.415663
vt 0.273281 0.415663
vt 0.260633 0.415663
vt 0.262569 0.415663
vt 0.271001 0.415663
vt 0.597999 0.415663
vt 0.537049 0.415663
vt 0.567524 0.415663
vn -0.9654 0.0000 -0.2609
vn -0.9450 0.0000 -0.3272
vn -0.6251 0.0000 -0.7806
vn -0.9677 0.0000 -0.2520
vn -0.4200 0.0000 -0.9075
vn -0.9474 0.0000 -0.3202
vn -0.8956 0.0000 -0.4448
vn 0.0000 0.0000 -1.0000
vn -0.9722 0.0000 -0.2341
vn 0.8956 0.0000 -0.4448
vn 1.0000 0.0000 0.0000
vn -0.9704 0.0000 -0.2416
vn -0.8461 0.0000 -0.5330
vn -0.5754 0.0000 -0.8179
vn 0.4024 0.0000 -0.9155
vn 0.0148 0.0000 -0.9999
vn -0.1780 0.0000 -0.9840
vn -0.0149 0.0000 -0.9999
vn -0.2345 0.0000 -0.9721
vn -0.4024 0.0000 -0.9155
vn 0.0149 0.0000 -0.9999
vn -0.1938 0.0000 -0.9811
vn -0.0893 0.0000 -0.9960
vn -0.1407 0.0000 -0.9901
vn -0.1643 0.0000 -0.9864
vn -0.1020 0.0000 -0.9948
vn -0.0727 0.0000 -0.9974
vn 0.1780 0.0000 -0.9840
vn 0.0893 0.0000 -0.9960
vn 0.2345 0.0000 -0.9721
vn -0.0148 0.0000 -0.9999
vn -0.1091 0.0000 -0.9940
vn 0.0727 0.0000 -0.9974
vn 0.1938 0.0000 -0.9811
vn -0.0314 0.0000 -0.9995
vn -0.0480 0.0000 -0.9988
vn 0.1380 0.0000 -0.9904
vn 0.7370 0.0000 -0.6759
vn 0.1621 0.0000 -0.9868
vn 0.1020 0.0000 -0.9948
vn 0.1091 0.0000 -0.9940
vn -0.2463 0.0000 -0.9692
vn 0.0314 0.0000 -0.9995
vn 0.0480 0.0000 -0.9988
vn -0.7370 0.0000 -0.6759
vn 0.4786 0.0000 -0.8780
vn 0.2463 0.0000 -0.9692
vn -0.4786 0.0000 -0.8780
vn 0.5754 0.0000 -0.8179
vn 0.0000 0.0000 1.0000
vn -1.0000 0.0000 0.0000
vn 0.4297 0.0000 0.9029
vn -0.4356 0.0000 0.9001
vn 0.0000 1.0000 0.0000
vn 0.0000 -1.0000 0.0000
g amber_end_1_Plane_front_shine
usemtl front_shine
s off
f 39/1/1 190/2/1 181/3/1 30/4/1
f 50/5/2 201/6/2 183/7/2 32/8/2
f 25/9/3 176/10/3 188/11/3 37/12/3
f 42/13/4 193/14/4 190/2/4 39/1/4
f 37/12/5 188/11/5 169/15/5 18/16/5
f 45/17/6 196/18/6 193/14/6 42/13/6
f 2/19/7 153/20/7 196/18/7 45/17/7
f 18/16/8 169/15/8 162/21/8 11/22/8
f 30/4/9 181/3/9 199/23/9 48/24/9
f 111/25/10 262/26/10 240/27/10 89/28/10
f 110/29/11 261/30/11 263/31/11 112/32/11
f 112/32/11 263/31/11 262/26/11 111/25/11
f 48/24/12 199/23/12 201/6/12 50/5/12
f 32/8/13 183/7/13 176/10/13 25/9/13
g amber_end_1_Plane_front
usemtl front
f 54/33/14 205/34/14 208/35/14 57/36/14
f 121/37/15 272/38/15 255/39/15 104/40/15
f 128/41/16 279/42/16 166/43/16 15/44/16
f 133/45/17 284/46/17 283/47/17 132/48/17
f 122/49/18 273/50/18 277/51/18 126/52/18
f 92/53/19 243/54/19 246/55/19 95/56/19
f 20/57/20 171/58/20 212/59/20 61/60/20
f 66/61/21 217/62/21 213/63/21 62/64/21
f 95/56/22 246/55/22 284/46/22 133/45/22
f 126/52/23 277/51/23 258/65/23 107/66/23
f 131/67/24 282/68/24 241/69/24 90/70/24
f 132/48/25 283/47/25 282/68/25 131/67/25
f 91/71/26 242/72/26 247/73/26 96/74/26
f 96/74/27 247/73/27 248/75/27 97/76/27
f 69/77/28 220/78/28 221/79/28 70/80/28
f 23/81/29 174/82/29 217/62/29 66/61/29
f 8/83/30 159/84/30 156/85/30 5/86/30
f 101/87/31 252/88/31 279/42/31 128/41/31
f 90/70/32 241/69/32 242/72/32 91/71/32
f 10/89/33 161/90/33 160/91/33 9/92/33
f 70/80/34 221/79/34 159/84/34 8/83/34
f 98/93/35 249/94/35 252/88/35 101/87/35
f 97/76/36 248/75/36 249/94/36 98/93/36
f 3/95/37 154/96/37 219/97/37 68/98/37
f 89/28/38 240/27/38 268/99/38 117/100/38
f 68/98/39 219/97/39 220/78/39 69/77/39
f 9/92/40 160/91/40 155/101/40 4/102/40
f 104/40/21 255/39/21 273/50/21 122/49/21
f 4/102/41 155/101/41 154/96/41 3/95/41
f 107/66/42 258/65/42 243/54/42 92/53/42
f 15/44/43 166/43/43 163/103/43 12/104/43
f 12/104/44 163/103/44 161/90/44 10/89/44
f 57/36/45 208/35/45 153/20/45 2/19/45
f 62/64/18 213/63/18 171/58/18 20/57/18
f 114/105/46 265/106/46 272/38/46 121/37/46
f 5/86/47 156/85/47 174/82/47 23/81/47
f 61/60/48 212/59/48 205/34/48 54/33/48
f 117/100/49 268/99/49 265/106/49 114/105/49
g amber_end_1_Plane_tyl
usemtl tyl
f 119/107/50 270/108/50 266/109/50 115/110/50
f 36/111/50 187/112/50 178/113/50 27/114/50
f 88/115/50 239/116/50 280/117/50 129/118/50
f 16/119/50 167/120/50 209/121/50 58/122/50
f 55/123/50 206/124/50 210/125/50 59/126/50
f 47/127/50 198/128/50 180/129/50 29/130/50
f 124/131/50 275/132/50 254/133/50 103/134/50
f 93/135/50 244/136/50 257/137/50 106/138/50
f 94/139/50 245/140/50 244/136/50 93/135/50
f 125/141/50 276/142/50 275/132/50 124/131/50
f 11/22/51 162/21/51 152/143/51 1/144/51
f 19/145/50 170/146/50 215/147/50 64/148/50
f 27/114/50 178/113/50 185/149/50 34/150/50
f 64/148/50 215/147/50 216/151/50 65/152/50
f 129/118/50 280/117/50 302/153/50 151/154/50
f 17/155/50 168/156/50 187/112/50 36/111/50
f 22/157/50 173/158/50 157/159/50 6/160/50
f 6/160/52 157/159/52 158/161/52 7/162/52
f 29/130/50 180/129/50 189/163/50 38/164/50
f 102/165/50 253/166/50 261/30/50 110/29/50
f 143/167/50 294/168/50 245/140/50 94/139/50
f 103/134/50 254/133/50 270/108/50 119/107/50
f 7/162/50 158/161/50 231/169/50 80/170/50
f 144/171/50 295/172/50 294/168/50 143/167/50
f 38/164/50 189/163/50 192/173/50 41/174/50
f 80/170/50 231/169/50 232/175/50 81/176/50
f 145/177/53 296/178/53 295/172/53 144/171/53
f 81/176/50 232/175/50 233/179/50 82/180/50
f 146/181/50 297/182/50 296/178/50 145/177/50
f 82/180/50 233/179/50 234/183/50 83/184/50
f 147/185/50 298/186/50 297/182/50 146/181/50
f 83/184/50 234/183/50 235/187/50 84/188/50
f 148/189/50 299/190/50 298/186/50 147/185/50
f 106/138/50 257/137/50 276/142/50 125/141/50
f 84/188/50 235/187/50 236/191/50 85/192/50
f 149/193/50 300/194/50 299/190/50 148/189/50
f 41/174/50 192/173/50 195/195/50 44/196/50
f 85/192/50 236/191/50 237/197/50 86/198/50
f 150/199/50 301/200/50 300/194/50 149/193/50
f 86/198/50 237/197/50 238/201/50 87/202/50
f 151/154/50 302/153/50 301/200/50 150/199/50
f 87/202/50 238/201/50 239/116/50 88/115/50
f 52/203/50 203/204/50 198/128/50 47/127/50
f 1/144/50 152/143/50 168/156/50 17/155/50
f 44/196/50 195/195/50 167/120/50 16/119/50
f 59/126/50 210/125/50 170/146/50 19/145/50
f 34/150/50 185/149/50 203/204/50 52/203/50
f 115/110/50 266/109/50 269/205/50 118/206/50
f 65/152/50 216/151/50 173/158/50 22/157/50
f 58/122/50 209/121/50 206/124/50 55/123/50
f 118/206/50 269/205/50 253/166/50 102/165/50
g amber_end_1_Plane_gora_dol
usemtl gora_dol
f 77/207/54 76/208/54 3/95/54 68/98/54
f 78/209/54 77/207/54 68/98/54 69/77/54
f 24/210/54 13/211/54 5/86/54 23/81/54
f 13/211/54 14/212/54 8/83/54 5/86/54
f 14/212/54 79/213/54 70/80/54 8/83/54
f 79/213/54 78/209/54 69/77/54 70/80/54
f 6/160/54 7/162/54 14/212/54 13/211/54
f 22/157/54 6/160/54 13/211/54 24/210/54
f 76/208/54 75/214/54 4/102/54 3/95/54
f 75/214/54 74/215/54 9/92/54 4/102/54
f 1/144/54 17/155/54 18/16/54 11/22/54
f 46/216/54 28/217/54 2/19/54 45/17/54
f 59/126/54 19/145/54 21/218/54 60/219/54
f 60/219/54 21/218/54 20/57/54 61/60/54
f 65/152/54 22/157/54 24/210/54 67/220/54
f 67/220/54 24/210/54 23/81/54 66/61/54
f 18/16/54 35/221/54 37/12/54
f 36/111/54 27/114/54 26/222/54 35/221/54
f 44/196/54 16/119/54 28/217/54 46/216/54
f 47/127/54 29/130/54 31/223/54 49/224/54
f 49/224/54 31/223/54 30/4/54 48/24/54
f 26/222/54 33/225/54 32/8/54 25/9/54
f 27/114/54 34/150/54 33/225/54 26/222/54
f 17/155/54 36/111/54 35/221/54 18/16/54
f 29/130/54 38/164/54 40/226/54 31/223/54
f 37/12/54 35/221/54 26/222/54 25/9/54
f 31/223/54 40/226/54 39/1/54 30/4/54
f 38/164/54 41/174/54 43/227/54 40/226/54
f 40/226/54 43/227/54 42/13/54 39/1/54
f 41/174/54 44/196/54 46/216/54 43/227/54
f 43/227/54 46/216/54 45/17/54 42/13/54
f 51/228/54 49/224/54 48/24/54 50/5/54
f 52/203/54 47/127/54 49/224/54 51/228/54
f 34/150/54 52/203/54 51/228/54 33/225/54
f 33/225/54 51/228/54 50/5/54 32/8/54
f 56/229/54 53/230/54 54/33/54 57/36/54
f 58/122/54 55/123/54 53/230/54 56/229/54
f 16/119/54 58/122/54 56/229/54 28/217/54
f 28/217/54 56/229/54 57/36/54 2/19/54
f 53/230/54 60/219/54 61/60/54 54/33/54
f 55/123/54 59/126/54 60/219/54 53/230/54
f 21/218/54 63/231/54 62/64/54 20/57/54
f 19/145/54 64/148/54 63/231/54 21/218/54
f 63/231/54 67/220/54 66/61/54 62/64/54
f 64/148/54 65/152/54 67/220/54 63/231/54
f 88/115/54 129/118/54 130/232/54 71/233/54
f 71/233/54 130/232/54 128/41/54 15/44/54
f 74/215/54 73/234/54 10/89/54 9/92/54
f 73/234/54 72/235/54 12/104/54 10/89/54
f 72/235/54 71/233/54 15/44/54 12/104/54
f 7/162/54 80/170/54 79/213/54 14/212/54
f 80/170/54 81/176/54 78/209/54 79/213/54
f 81/176/54 82/180/54 77/207/54 78/209/54
f 82/180/54 83/184/54 76/208/54 77/207/54
f 83/184/54 84/188/54 75/214/54 76/208/54
f 84/188/54 85/192/54 74/215/54 75/214/54
f 85/192/54 86/198/54 73/234/54 74/215/54
f 86/198/54 87/202/54 72/235/54 73/234/54
f 87/202/54 88/115/54 71/233/54 72/235/54
f 140/236/54 131/67/54 90/70/54 139/237/54
f 141/238/54 132/48/54 131/67/54 140/236/54
f 108/239/54 107/66/54 92/53/54 99/240/54
f 99/240/54 92/53/54 95/56/54 100/241/54
f 100/241/54 95/56/54 133/45/54 142/242/54
f 142/242/54 133/45/54 132/48/54 141/238/54
f 93/135/54 99/240/54 100/241/54 94/139/54
f 106/138/54 108/239/54 99/240/54 93/135/54
f 139/237/54 90/70/54 91/71/54 138/243/54
f 138/243/54 91/71/54 96/74/54 137/244/54
f 112/32/54 111/25/54 89/28/54 109/245/54
f 119/107/54 120/246/54 105/247/54 103/134/54
f 120/246/54 121/37/54 104/40/54 105/247/54
f 125/141/54 127/248/54 108/239/54 106/138/54
f 127/248/54 126/52/54 107/66/54 108/239/54
f 110/29/54 112/32/54 109/245/54 102/165/54
f 116/249/54 117/100/54 114/105/54 113/250/54
f 118/206/54 116/249/54 113/250/54 115/110/54
f 102/165/54 109/245/54 116/249/54 118/206/54
f 109/245/54 89/28/54 117/100/54 116/249/54
f 113/250/54 114/105/54 121/37/54 120/246/54
f 115/110/54 113/250/54 120/246/54 119/107/54
f 105/247/54 104/40/54 122/49/54 123/251/54
f 103/134/54 105/247/54 123/251/54 124/131/54
f 123/251/54 122/49/54 126/52/54 127/248/54
f 124/131/54 123/251/54 127/248/54 125/141/54
f 151/154/54 134/252/54 130/232/54 129/118/54
f 134/252/54 101/87/54 128/41/54 130/232/54
f 137/244/54 96/74/54 97/76/54 136/253/54
f 136/253/54 97/76/54 98/93/54 135/254/54
f 135/254/54 98/93/54 101/87/54 134/252/54
f 94/139/54 100/241/54 142/242/54 143/167/54
f 143/167/54 142/242/54 141/238/54 144/171/54
f 144/171/54 141/238/54 140/236/54 145/177/54
f 145/177/54 140/236/54 139/237/54 146/181/54
f 146/181/54 139/237/54 138/243/54 147/185/54
f 147/185/54 138/243/54 137/244/54 148/189/54
f 148/189/54 137/244/54 136/253/54 149/193/54
f 149/193/54 136/253/54 135/254/54 150/199/54
f 150/199/54 135/254/54 134/252/54 151/154/54
f 228/255/55 219/97/55 154/96/55 227/256/55
f 229/257/55 220/78/55 219/97/55 228/255/55
f 175/258/55 174/82/55 156/85/55 164/259/55
f 164/259/55 156/85/55 159/84/55 165/260/55
f 165/260/55 159/84/55 221/79/55 230/261/55
f 230/261/55 221/79/55 220/78/55 229/257/55
f 157/159/55 164/259/55 165/260/55 158/161/55
f 173/158/55 175/258/55 164/259/55 157/159/55
f 227/256/55 154/96/55 155/101/55 226/262/55
f 226/262/55 155/101/55 160/91/55 225/263/55
f 152/143/55 162/21/55 169/15/55 168/156/55
f 197/264/55 196/18/55 153/20/55 179/265/55
f 210/125/55 211/266/55 172/267/55 170/146/55
f 211/266/55 212/59/55 171/58/55 172/267/55
f 216/151/55 218/268/55 175/258/55 173/158/55
f 218/268/55 217/62/55 174/82/55 175/258/55
f 169/15/55 188/11/55 186/269/55
f 187/112/55 186/269/55 177/270/55 178/113/55
f 195/195/55 197/264/55 179/265/55 167/120/55
f 198/128/55 200/271/55 182/272/55 180/129/55
f 200/271/55 199/23/55 181/3/55 182/272/55
f 177/270/55 176/10/55 183/7/55 184/273/55
f 178/113/55 177/270/55 184/273/55 185/149/55
f 168/156/55 169/15/55 186/269/55 187/112/55
f 180/129/55 182/272/55 191/274/55 189/163/55
f 188/11/55 176/10/55 177/270/55 186/269/55
f 182/272/55 181/3/55 190/2/55 191/274/55
f 189/163/55 191/274/55 194/275/55 192/173/55
f 191/274/55 190/2/55 193/14/55 194/275/55
f 192/173/55 194/275/55 197/264/55 195/195/55
f 194/275/55 193/14/55 196/18/55 197/264/55
f 202/276/55 201/6/55 199/23/55 200/271/55
f 203/204/55 202/276/55 200/271/55 198/128/55
f 185/149/55 184/273/55 202/276/55 203/204/55
f 184/273/55 183/7/55 201/6/55 202/276/55
f 207/277/55 208/35/55 205/34/55 204/278/55
f 209/121/55 207/277/55 204/278/55 206/124/55
f 167/120/55 179/265/55 207/277/55 209/121/55
f 179/265/55 153/20/55 208/35/55 207/277/55
f 204/278/55 205/34/55 212/59/55 211/266/55
f 206/124/55 204/278/55 211/266/55 210/125/55
f 172/267/55 171/58/55 213/63/55 214/279/55
f 170/146/55 172/267/55 214/279/55 215/147/55
f 214/279/55 213/63/55 217/62/55 218/268/55
f 215/147/55 214/279/55 218/268/55 216/151/55
f 239/116/55 222/280/55 281/281/55 280/117/55
f 222/280/55 166/43/55 279/42/55 281/281/55
f 225/263/55 160/91/55 161/90/55 224/282/55
f 224/282/55 161/90/55 163/103/55 223/283/55
f 223/283/55 163/103/55 166/43/55 222/280/55
f 158/161/55 165/260/55 230/261/55 231/169/55
f 231/169/55 230/261/55 229/257/55 232/175/55
f 232/175/55 229/257/55 228/255/55 233/179/55
f 233/179/55 228/255/55 227/256/55 234/183/55
f 234/183/55 227/256/55 226/262/55 235/187/55
f 235/187/55 226/262/55 225/263/55 236/191/55
f 236/191/55 225/263/55 224/282/55 237/197/55
f 237/197/55 224/282/55 223/283/55 238/201/55
f 238/201/55 223/283/55 222/280/55 239/116/55
f 291/284/55 290/285/55 241/69/55 282/68/55
f 292/286/55 291/284/55 282/68/55 283/47/55
f 259/287/55 250/288/55 243/54/55 258/65/55
f 250/288/55 251/289/55 246/55/55 243/54/55
f 251/289/55 293/290/55 284/46/55 246/55/55
f 293/290/55 292/286/55 283/47/55 284/46/55
f 244/136/55 245/140/55 251/289/55 250/288/55
f 257/137/55 244/136/55 250/288/55 259/287/55
f 290/285/55 289/291/55 242/72/55 241/69/55
f 289/291/55 288/292/55 247/73/55 242/72/55
f 263/31/55 260/293/55 240/27/55 262/26/55
f 270/108/55 254/133/55 256/294/55 271/295/55
f 271/295/55 256/294/55 255/39/55 272/38/55
f 276/142/55 257/137/55 259/287/55 278/296/55
f 278/296/55 259/287/55 258/65/55 277/51/55
f 261/30/55 253/166/55 260/293/55 263/31/55
f 267/297/55 264/298/55 265/106/55 268/99/55
f 269/205/55 266/109/55 264/298/55 267/297/55
f 253/166/55 269/205/55 267/297/55 260/293/55
f 260/293/55 267/297/55 268/99/55 240/27/55
f 264/298/55 271/295/55 272/38/55 265/106/55
f 266/109/55 270/108/55 271/295/55 264/298/55
f 256/294/55 274/299/55 273/50/55 255/39/55
f 254/133/55 275/132/55 274/299/55 256/294/55
f 274/299/55 278/296/55 277/51/55 273/50/55
f 275/132/55 276/142/55 278/296/55 274/299/55
f 302/153/55 280/117/55 281/281/55 285/300/55
f 285/300/55 281/281/55 279/42/55 252/88/55
f 288/292/55 287/301/55 248/75/55 247/73/55
f 287/301/55 286/302/55 249/94/55 248/75/55
f 286/302/55 285/300/55 252/88/55 249/94/55
f 245/140/55 294/168/55 293/290/55 251/289/55
f 294/168/55 295/172/55 292/286/55 293/290/55
f 295/172/55 296/178/55 291/284/55 292/286/55
f 296/178/55 297/182/55 290/285/55 291/284/55
f 297/182/55 298/186/55 289/291/55 290/285/55
f 298/186/55 299/190/55 288/292/55 289/291/55
f 299/190/55 300/194/55 287/301/55 288/292/55
f 300/194/55 301/200/55 286/302/55 287/301/55
f 301/200/55 302/153/55 285/300/55 286/302/55
