# Blender v3.2.0 OBJ File: 'panele.blend'
# www.blender.org
mtllib amber_main.mtl
o amber_main_Plane.002
v 0.050757 -0.000001 0.000503
v 0.050757 -0.000001 -0.006109
v 0.037997 -0.000001 -0.004231
v 0.035916 -0.000001 -0.004002
v 0.048470 -0.000001 -0.006176
v 0.046318 -0.000001 -0.005655
v 0.034214 -0.000001 -0.003827
v 0.032252 -0.000001 -0.003672
v 0.051654 -0.000001 0.000503
v 0.030154 -0.000001 -0.003558
v 0.046318 -0.000001 0.000503
v 0.027595 -0.000001 -0.003470
v 0.050360 -0.000001 0.000503
v 0.049917 -0.000001 0.000503
v 0.050228 -0.000001 -0.006477
v 0.049605 -0.000001 -0.006466
v 0.051654 -0.000001 -0.003018
v 0.052348 -0.000001 -0.000094
v 0.052001 -0.000001 0.000503
v -0.047064 -0.000001 -0.004231
v 0.052348 -0.000001 0.000503
v 0.051205 -0.000001 -0.004685
v 0.050981 -0.000001 -0.005549
v 0.050869 -0.000001 -0.005882
v 0.052001 -0.000001 -0.001572
v 0.052278 -0.000001 -0.000453
v 0.050492 -0.000001 -0.006347
v 0.050624 -0.000001 -0.006253
v 0.050360 -0.000001 -0.006419
v 0.049917 -0.000001 -0.006482
v 0.049761 -0.000001 -0.006480
v 0.040077 -0.000001 -0.004522
v 0.042425 -0.000001 -0.004913
v 0.044238 -0.000001 -0.005243
v 0.027595 -0.000001 0.000398
v 0.030154 -0.000001 0.000398
v 0.032252 -0.000001 0.000503
v 0.034214 -0.000001 0.000503
v 0.035916 -0.000001 0.000503
v 0.037997 -0.000001 0.000503
v 0.040077 -0.000001 0.000503
v 0.042425 -0.000001 0.000503
v 0.044238 -0.000001 0.000503
v 0.042425 -0.000001 0.005518
v 0.040077 -0.000001 0.005518
v 0.037997 -0.000001 0.005518
v 0.035916 -0.000001 0.005518
v 0.034214 -0.000001 0.005518
v 0.032252 -0.000001 0.005518
v 0.030154 -0.000001 0.004490
v 0.027595 -0.000001 0.004490
v 0.025326 -0.000001 -0.003442
v 0.025326 -0.000001 0.004490
v 0.025326 -0.000001 0.000165
v 0.050869 -0.000001 0.000503
v 0.048470 -0.000001 0.000503
v 0.049605 -0.000001 0.000503
v 0.052485 -0.000001 0.000503
v 0.050228 -0.000001 0.000503
v 0.050624 -0.000001 0.000503
v 0.050981 -0.000001 0.000503
v 0.050492 -0.000001 0.000503
v 0.051205 -0.000001 0.000503
v 0.049761 -0.000001 0.000503
v -0.004589 -0.000001 0.005518
v -0.000073 -0.000001 -0.006109
v 0.012767 -0.000001 -0.004231
v 0.014860 -0.000001 -0.004002
v 0.002228 -0.000001 -0.006176
v 0.002228 -0.000001 0.005518
v 0.003454 -0.000001 0.005518
v 0.003454 -0.000001 -0.005881
v 0.016953 -0.000001 -0.003788
v 0.019047 -0.000001 -0.003635
v 0.021140 -0.000001 -0.003535
v 0.002228 -0.000001 0.000532
v 0.003454 -0.000001 0.000192
v 0.023233 -0.000001 -0.003470
v -0.000073 -0.000001 0.005518
v -0.002609 -0.000001 0.005518
v -0.002609 -0.000001 0.000532
v 0.000459 -0.000001 0.005518
v 0.000459 -0.000001 -0.006477
v 0.000459 -0.000001 0.000532
v 0.001086 -0.000001 0.005518
v 0.001086 -0.000001 -0.006466
v 0.001086 -0.000001 0.000532
v -0.001879 -0.000001 0.000072
v -0.001879 -0.000001 0.000532
v -0.001879 -0.000001 0.005518
v -0.000073 -0.000001 0.000532
v -0.000976 -0.000001 0.005518
v -0.000976 -0.000001 -0.003018
v -0.000976 -0.000001 0.000532
v -0.001674 -0.000001 -0.000252
v -0.001674 -0.000001 0.000532
v -0.059903 -0.000001 -0.006109
v -0.002244 -0.000001 0.000532
v -0.002244 -0.000001 0.005518
v -0.002244 -0.000001 0.000363
v -0.000524 -0.000001 0.005518
v -0.000524 -0.000001 -0.004685
v -0.000524 -0.000001 0.000532
v -0.000299 -0.000001 0.005518
v -0.000299 -0.000001 -0.005549
v -0.000299 -0.000001 0.000532
v -0.000186 -0.000001 0.005518
v -0.000186 -0.000001 -0.005882
v -0.000186 -0.000001 0.000532
v -0.001325 -0.000001 0.005518
v -0.001325 -0.000001 -0.001572
v -0.001325 -0.000001 0.000532
v -0.001604 -0.000001 -0.000453
v -0.077515 -0.000001 0.005518
v -0.001604 -0.000001 0.005518
v 0.000193 -0.000001 0.000532
v 0.000193 -0.000001 -0.006347
v 0.000193 -0.000001 0.005518
v 0.000060 -0.000001 0.000532
v 0.000060 -0.000001 -0.006253
v 0.000060 -0.000001 0.005518
v 0.000326 -0.000001 0.005518
v 0.000326 -0.000001 0.000532
v 0.000326 -0.000001 -0.006419
v 0.000772 -0.000001 -0.006482
v 0.000772 -0.000001 0.000532
v 0.000772 -0.000001 0.005518
v 0.000929 -0.000001 0.005518
v 0.000929 -0.000001 -0.006480
v 0.000929 -0.000001 0.000532
v 0.010674 -0.000001 -0.004522
v 0.008580 -0.000001 -0.004865
v 0.005730 -0.000001 -0.005392
v 0.023233 -0.000001 -0.000069
v 0.021140 -0.000001 -0.000069
v 0.019047 -0.000001 -0.000069
v 0.016953 -0.000001 -0.000069
v 0.014860 -0.000001 -0.000069
v 0.012767 -0.000001 -0.000069
v 0.010674 -0.000001 -0.000069
v 0.008580 -0.000001 -0.000069
v 0.005730 -0.000001 -0.000069
v 0.005730 -0.000001 0.004490
v 0.008580 -0.000001 0.004490
v 0.010674 -0.000001 0.004490
v 0.012767 -0.000001 0.004490
v 0.014860 -0.000001 0.004490
v 0.016953 -0.000001 0.004490
v 0.019047 -0.000001 0.004490
v 0.021140 -0.000001 0.004490
v 0.023233 -0.000001 0.004490
v -0.058902 -0.000001 0.005518
v -0.059058 -0.000001 0.005518
v -0.059058 -0.000001 0.000532
v -0.059058 -0.000001 -0.006482
v -0.059504 -0.000001 -0.006419
v -0.059504 -0.000001 0.000532
v -0.059504 -0.000001 0.005518
v -0.059770 -0.000001 0.005518
v -0.059770 -0.000001 -0.006253
v -0.059770 -0.000001 0.000532
v -0.059637 -0.000001 0.005518
v -0.059637 -0.000001 -0.006347
v -0.059637 -0.000001 0.000532
v -0.061435 -0.000001 0.005518
v -0.061435 -0.000001 -0.000453
v -0.061155 -0.000001 0.000532
v -0.061155 -0.000001 -0.001572
v -0.061155 -0.000001 0.005518
v -0.060016 -0.000001 0.000532
v -0.060016 -0.000001 -0.005882
v -0.060016 -0.000001 0.005518
v -0.060129 -0.000001 0.000532
v -0.060129 -0.000001 -0.005549
v -0.060129 -0.000001 0.005518
v -0.060355 -0.000001 0.000532
v -0.060355 -0.000001 -0.004685
v -0.060355 -0.000001 0.005518
v -0.062074 -0.000001 0.000363
v -0.062074 -0.000001 0.005518
v -0.062074 -0.000001 0.000532
v -0.061505 -0.000001 0.000532
v -0.061505 -0.000001 -0.000252
v -0.060806 -0.000001 0.000532
v -0.060806 -0.000001 -0.003018
v -0.060806 -0.000001 0.005518
v -0.059903 -0.000001 0.000532
v -0.061709 -0.000001 0.005518
v -0.061709 -0.000001 0.000532
v -0.061709 -0.000001 0.000072
v -0.034504 -0.000001 -0.003442
v -0.058745 -0.000001 0.000532
v -0.058745 -0.000001 -0.006466
v -0.058745 -0.000001 0.005518
v -0.059371 -0.000001 0.000532
v -0.059371 -0.000001 -0.006477
v -0.059371 -0.000001 0.005518
v -0.062440 -0.000001 0.000532
v -0.062440 -0.000001 0.005518
v -0.059903 -0.000001 0.005518
v -0.036597 -0.000001 -0.003470
v -0.055360 -0.000001 0.000076
v -0.057603 -0.000001 0.000532
v -0.038691 -0.000001 -0.003535
v -0.077515 -0.000001 0.000532
v -0.040784 -0.000001 -0.003635
v -0.042877 -0.000001 -0.003788
v -0.055360 -0.000001 -0.005662
v -0.055360 -0.000001 0.004490
v -0.057603 -0.000001 0.005518
v -0.057603 -0.000001 -0.006176
v -0.044970 -0.000001 -0.004002
v -0.058902 -0.000001 -0.006480
v -0.058902 -0.000001 0.000532
v -0.049157 -0.000001 -0.004522
v -0.051250 -0.000001 -0.004865
v -0.053280 -0.000001 -0.005240
v -0.036597 -0.000001 -0.000069
v -0.038691 -0.000001 -0.000069
v -0.040784 -0.000001 -0.000069
v -0.042877 -0.000001 -0.000069
v -0.044970 -0.000001 -0.000069
v -0.047064 -0.000001 -0.000069
v -0.049157 -0.000001 -0.000069
v -0.051250 -0.000001 -0.000069
v -0.053280 -0.000001 -0.000069
v -0.053280 -0.000001 0.004490
v -0.051250 -0.000001 0.004490
v -0.049157 -0.000001 0.004490
v -0.047064 -0.000001 0.004490
v -0.044970 -0.000001 0.004490
v -0.042877 -0.000001 0.004490
v -0.040784 -0.000001 0.004490
v -0.038691 -0.000001 0.004490
v -0.036597 -0.000001 0.004490
v -0.021944 -0.000001 -0.004231
v -0.009105 -0.000001 -0.006109
v -0.010106 -0.000001 0.005518
v -0.009950 -0.000001 0.005518
v -0.009950 -0.000001 0.000532
v -0.009950 -0.000001 -0.006482
v -0.009504 -0.000001 -0.006419
v -0.009504 -0.000001 0.000532
v -0.009504 -0.000001 0.005518
v -0.009238 -0.000001 0.005518
v -0.009238 -0.000001 -0.006253
v -0.009238 -0.000001 0.000532
v -0.009371 -0.000001 0.005518
v -0.009371 -0.000001 -0.006347
v -0.009371 -0.000001 0.000532
v -0.007573 -0.000001 0.005518
v -0.007573 -0.000001 -0.000453
v -0.007853 -0.000001 0.000532
v -0.007853 -0.000001 -0.001572
v -0.007853 -0.000001 0.005518
v -0.008992 -0.000001 0.000532
v -0.008992 -0.000001 -0.005882
v -0.008992 -0.000001 0.005518
v -0.008879 -0.000001 0.000532
v -0.008879 -0.000001 -0.005549
v -0.008879 -0.000001 0.005518
v -0.008653 -0.000001 0.000532
v -0.008653 -0.000001 -0.004685
v -0.008653 -0.000001 0.005518
v -0.006934 -0.000001 0.000363
v -0.006934 -0.000001 0.005518
v -0.006934 -0.000001 0.000532
v -0.007503 -0.000001 0.000532
v -0.007503 -0.000001 -0.000252
v -0.008202 -0.000001 0.000532
v -0.008202 -0.000001 -0.003018
v -0.008202 -0.000001 0.005518
v -0.009105 -0.000001 0.000532
v -0.007299 -0.000001 0.005518
v -0.007299 -0.000001 0.000532
v -0.007299 -0.000001 0.000072
v -0.034504 -0.000001 -0.000069
v -0.034504 -0.000001 0.004490
v -0.010263 -0.000001 0.000532
v -0.010263 -0.000001 -0.006466
v -0.010263 -0.000001 0.005518
v -0.009637 -0.000001 0.000532
v -0.009637 -0.000001 -0.006477
v -0.009637 -0.000001 0.005518
v -0.006568 -0.000001 0.000532
v -0.006568 -0.000001 0.005518
v -0.009105 -0.000001 0.005518
v -0.032411 -0.000001 -0.003470
v -0.012632 -0.000001 0.000192
v -0.011405 -0.000001 0.000532
v -0.030317 -0.000001 -0.003535
v -0.004589 -0.000001 0.000532
v -0.028224 -0.000001 -0.003635
v -0.026131 -0.000001 -0.003788
v -0.012632 -0.000001 -0.005881
v -0.012632 -0.000001 0.005518
v -0.011405 -0.000001 0.005518
v -0.011405 -0.000001 -0.006176
v -0.024038 -0.000001 -0.004002
v -0.010106 -0.000001 -0.006480
v -0.010106 -0.000001 0.000532
v -0.019851 -0.000001 -0.004522
v -0.017758 -0.000001 -0.004865
v -0.014908 -0.000001 -0.005392
v -0.032411 -0.000001 -0.000069
v -0.030317 -0.000001 -0.000069
v -0.028224 -0.000001 -0.000069
v -0.026131 -0.000001 -0.000069
v -0.024038 -0.000001 -0.000069
v -0.021944 -0.000001 -0.000069
v -0.019851 -0.000001 -0.000069
v -0.017758 -0.000001 -0.000069
v -0.014908 -0.000001 -0.000069
v -0.014908 -0.000001 0.004490
v -0.017758 -0.000001 0.004490
v -0.019851 -0.000001 0.004490
v -0.021944 -0.000001 0.004490
v -0.024038 -0.000001 0.004490
v -0.026131 -0.000001 0.004490
v -0.028224 -0.000001 0.004490
v -0.030317 -0.000001 0.004490
v -0.032411 -0.000001 0.004490
v 0.050757 2.699999 0.000503
v 0.050757 2.699999 -0.006109
v 0.037998 2.699999 -0.004231
v 0.035917 2.699999 -0.004002
v 0.048471 2.699999 -0.006176
v 0.046319 2.699999 -0.005655
v 0.034215 2.699999 -0.003827
v 0.032253 2.699999 -0.003672
v 0.051655 2.699999 0.000503
v 0.030155 2.699999 -0.003558
v 0.046319 2.699999 0.000503
v 0.027596 2.699999 -0.003470
v 0.050361 2.699999 0.000503
v 0.049918 2.699999 0.000503
v 0.050229 2.699999 -0.006477
v 0.049606 2.699999 -0.006466
v 0.051655 2.699999 -0.003018
v 0.052349 2.699999 -0.000094
v 0.052002 2.699999 0.000503
v -0.047063 2.699999 -0.004231
v 0.052349 2.699999 0.000503
v 0.051206 2.699999 -0.004685
v 0.050982 2.699999 -0.005549
v 0.050870 2.699999 -0.005882
v 0.052002 2.699999 -0.001572
v 0.052279 2.699999 -0.000453
v 0.050493 2.699999 -0.006347
v 0.050625 2.699999 -0.006253
v 0.050361 2.699999 -0.006419
v 0.049918 2.699999 -0.006482
v 0.049762 2.699999 -0.006480
v 0.040078 2.699999 -0.004522
v 0.042426 2.699999 -0.004913
v 0.044238 2.699999 -0.005243
v 0.027596 2.699999 0.000398
v 0.030155 2.699999 0.000398
v 0.032253 2.699999 0.000503
v 0.034215 2.699999 0.000503
v 0.035917 2.699999 0.000503
v 0.037998 2.699999 0.000503
v 0.040078 2.699999 0.000503
v 0.042426 2.699999 0.000503
v 0.044238 2.699999 0.000503
v 0.042426 2.699999 0.005518
v 0.040078 2.699999 0.005518
v 0.037998 2.699999 0.005518
v 0.035917 2.699999 0.005518
v 0.034215 2.699999 0.005518
v 0.032253 2.699999 0.005518
v 0.030155 2.699999 0.004490
v 0.027596 2.699999 0.004490
v 0.025327 2.699999 -0.003442
v 0.025327 2.699999 0.004490
v 0.025327 2.699999 0.000165
v 0.050870 2.699999 0.000503
v 0.048471 2.699999 0.000503
v 0.049606 2.699999 0.000503
v 0.052485 2.699999 0.000503
v 0.050229 2.699999 0.000503
v 0.050625 2.699999 0.000503
v 0.050982 2.699999 0.000503
v 0.050493 2.699999 0.000503
v 0.051206 2.699999 0.000503
v 0.049762 2.699999 0.000503
v -0.004588 2.699999 0.005518
v -0.000072 2.699999 -0.006109
v 0.012768 2.699999 -0.004231
v 0.014861 2.699999 -0.004002
v 0.002229 2.699999 -0.006176
v 0.002229 2.699999 0.005518
v 0.003455 2.699999 0.005518
v 0.003455 2.699999 -0.005881
v 0.016954 2.699999 -0.003788
v 0.019048 2.699999 -0.003635
v 0.021141 2.699999 -0.003535
v 0.002229 2.699999 0.000532
v 0.003455 2.699999 0.000192
v 0.023234 2.699999 -0.003470
v -0.000072 2.699999 0.005518
v -0.002608 2.699999 0.005518
v -0.002608 2.699999 0.000532
v 0.000460 2.699999 0.005518
v 0.000460 2.699999 -0.006477
v 0.000460 2.699999 0.000532
v 0.001086 2.699999 0.005518
v 0.001086 2.699999 -0.006466
v 0.001086 2.699999 0.000532
v -0.001878 2.699999 0.000072
v -0.001878 2.699999 0.000532
v -0.001878 2.699999 0.005518
v -0.000072 2.699999 0.000532
v -0.000975 2.699999 0.005518
v -0.000975 2.699999 -0.003018
v -0.000975 2.699999 0.000532
v -0.001673 2.699999 -0.000252
v -0.001673 2.699999 0.000532
v -0.059902 2.699999 -0.006109
v -0.002243 2.699999 0.000532
v -0.002243 2.699999 0.005518
v -0.002243 2.699999 0.000363
v -0.000523 2.699999 0.005518
v -0.000523 2.699999 -0.004685
v -0.000523 2.699999 0.000532
v -0.000298 2.699999 0.005518
v -0.000298 2.699999 -0.005549
v -0.000298 2.699999 0.000532
v -0.000185 2.699999 0.005518
v -0.000185 2.699999 -0.005882
v -0.000185 2.699999 0.000532
v -0.001324 2.699999 0.005518
v -0.001324 2.699999 -0.001572
v -0.001324 2.699999 0.000532
v -0.001603 2.699999 -0.000453
v -0.077515 2.699999 0.005518
v -0.001603 2.699999 0.005518
v 0.000194 2.699999 0.000532
v 0.000194 2.699999 -0.006347
v 0.000194 2.699999 0.005518
v 0.000061 2.699999 0.000532
v 0.000061 2.699999 -0.006253
v 0.000061 2.699999 0.005518
v 0.000327 2.699999 0.005518
v 0.000327 2.699999 0.000532
v 0.000327 2.699999 -0.006419
v 0.000773 2.699999 -0.006482
v 0.000773 2.699999 0.000532
v 0.000773 2.699999 0.005518
v 0.000930 2.699999 0.005518
v 0.000930 2.699999 -0.006480
v 0.000930 2.699999 0.000532
v 0.010674 2.699999 -0.004522
v 0.008581 2.699999 -0.004865
v 0.005731 2.699999 -0.005392
v 0.023234 2.699999 -0.000069
v 0.021141 2.699999 -0.000069
v 0.019048 2.699999 -0.000069
v 0.016954 2.699999 -0.000069
v 0.014861 2.699999 -0.000069
v 0.012768 2.699999 -0.000069
v 0.010674 2.699999 -0.000069
v 0.008581 2.699999 -0.000069
v 0.005731 2.699999 -0.000069
v 0.005731 2.699999 0.004490
v 0.008581 2.699999 0.004490
v 0.010674 2.699999 0.004490
v 0.012768 2.699999 0.004490
v 0.014861 2.699999 0.004490
v 0.016954 2.699999 0.004490
v 0.019048 2.699999 0.004490
v 0.021141 2.699999 0.004490
v 0.023234 2.699999 0.004490
v -0.058901 2.699999 0.005518
v -0.059057 2.699999 0.005518
v -0.059057 2.699999 0.000532
v -0.059057 2.699999 -0.006482
v -0.059503 2.699999 -0.006419
v -0.059503 2.699999 0.000532
v -0.059503 2.699999 0.005518
v -0.059769 2.699999 0.005518
v -0.059769 2.699999 -0.006253
v -0.059769 2.699999 0.000532
v -0.059636 2.699999 0.005518
v -0.059636 2.699999 -0.006347
v -0.059636 2.699999 0.000532
v -0.061434 2.699999 0.005518
v -0.061434 2.699999 -0.000453
v -0.061154 2.699999 0.000532
v -0.061154 2.699999 -0.001572
v -0.061154 2.699999 0.005518
v -0.060015 2.699999 0.000532
v -0.060015 2.699999 -0.005882
v -0.060015 2.699999 0.005518
v -0.060128 2.699999 0.000532
v -0.060128 2.699999 -0.005549
v -0.060128 2.699999 0.005518
v -0.060354 2.699999 0.000532
v -0.060354 2.699999 -0.004685
v -0.060354 2.699999 0.005518
v -0.062073 2.699999 0.000363
v -0.062073 2.699999 0.005518
v -0.062073 2.699999 0.000532
v -0.061504 2.699999 0.000532
v -0.061504 2.699999 -0.000252
v -0.060805 2.699999 0.000532
v -0.060805 2.699999 -0.003018
v -0.060805 2.699999 0.005518
v -0.059902 2.699999 0.000532
v -0.061708 2.699999 0.005518
v -0.061708 2.699999 0.000532
v -0.061708 2.699999 0.000072
v -0.034503 2.699999 -0.003442
v -0.058744 2.699999 0.000532
v -0.058744 2.699999 -0.006466
v -0.058744 2.699999 0.005518
v -0.059370 2.699999 0.000532
v -0.059370 2.699999 -0.006477
v -0.059370 2.699999 0.005518
v -0.062439 2.699999 0.000532
v -0.062439 2.699999 0.005518
v -0.059902 2.699999 0.005518
v -0.036596 2.699999 -0.003470
v -0.055359 2.699999 0.000076
v -0.057602 2.699999 0.000532
v -0.038690 2.699999 -0.003535
v -0.077515 2.699999 0.000532
v -0.040783 2.699999 -0.003635
v -0.042876 2.699999 -0.003788
v -0.055359 2.699999 -0.005662
v -0.055359 2.699999 0.004490
v -0.057602 2.699999 0.005518
v -0.057602 2.699999 -0.006176
v -0.044969 2.699999 -0.004002
v -0.058901 2.699999 -0.006480
v -0.058901 2.699999 0.000532
v -0.049156 2.699999 -0.004522
v -0.051249 2.699999 -0.004865
v -0.053279 2.699999 -0.005240
v -0.036596 2.699999 -0.000069
v -0.038690 2.699999 -0.000069
v -0.040783 2.699999 -0.000069
v -0.042876 2.699999 -0.000069
v -0.044969 2.699999 -0.000069
v -0.047063 2.699999 -0.000069
v -0.049156 2.699999 -0.000069
v -0.051249 2.699999 -0.000069
v -0.053279 2.699999 -0.000069
v -0.053279 2.699999 0.004490
v -0.051249 2.699999 0.004490
v -0.049156 2.699999 0.004490
v -0.047063 2.699999 0.004490
v -0.044969 2.699999 0.004490
v -0.042876 2.699999 0.004490
v -0.040783 2.699999 0.004490
v -0.038690 2.699999 0.004490
v -0.036596 2.699999 0.004490
v -0.021943 2.699999 -0.004231
v -0.009104 2.699999 -0.006109
v -0.010106 2.699999 0.005518
v -0.009949 2.699999 0.005518
v -0.009949 2.699999 0.000532
v -0.009949 2.699999 -0.006482
v -0.009503 2.699999 -0.006419
v -0.009503 2.699999 0.000532
v -0.009503 2.699999 0.005518
v -0.009237 2.699999 0.005518
v -0.009237 2.699999 -0.006253
v -0.009237 2.699999 0.000532
v -0.009370 2.699999 0.005518
v -0.009370 2.699999 -0.006347
v -0.009370 2.699999 0.000532
v -0.007572 2.699999 0.005518
v -0.007572 2.699999 -0.000453
v -0.007852 2.699999 0.000532
v -0.007852 2.699999 -0.001572
v -0.007852 2.699999 0.005518
v -0.008991 2.699999 0.000532
v -0.008991 2.699999 -0.005882
v -0.008991 2.699999 0.005518
v -0.008878 2.699999 0.000532
v -0.008878 2.699999 -0.005549
v -0.008878 2.699999 0.005518
v -0.008652 2.699999 0.000532
v -0.008652 2.699999 -0.004685
v -0.008652 2.699999 0.005518
v -0.006933 2.699999 0.000363
v -0.006933 2.699999 0.005518
v -0.006933 2.699999 0.000532
v -0.007502 2.699999 0.000532
v -0.007502 2.699999 -0.000252
v -0.008201 2.699999 0.000532
v -0.008201 2.699999 -0.003018
v -0.008201 2.699999 0.005518
v -0.009104 2.699999 0.000532
v -0.007298 2.699999 0.005518
v -0.007298 2.699999 0.000532
v -0.007298 2.699999 0.000072
v -0.034503 2.699999 -0.000069
v -0.034503 2.699999 0.004490
v -0.010262 2.699999 0.000532
v -0.010262 2.699999 -0.006466
v -0.010262 2.699999 0.005518
v -0.009636 2.699999 0.000532
v -0.009636 2.699999 -0.006477
v -0.009636 2.699999 0.005518
v -0.006567 2.699999 0.000532
v -0.006567 2.699999 0.005518
v -0.009104 2.699999 0.005518
v -0.032410 2.699999 -0.003470
v -0.012631 2.699999 0.000192
v -0.011404 2.699999 0.000532
v -0.030317 2.699999 -0.003535
v -0.004588 2.699999 0.000532
v -0.028223 2.699999 -0.003635
v -0.026130 2.699999 -0.003788
v -0.012631 2.699999 -0.005881
v -0.012631 2.699999 0.005518
v -0.011404 2.699999 0.005518
v -0.011404 2.699999 -0.006176
v -0.024037 2.699999 -0.004002
v -0.010106 2.699999 -0.006480
v -0.010106 2.699999 0.000532
v -0.019850 2.699999 -0.004522
v -0.017757 2.699999 -0.004865
v -0.014907 2.699999 -0.005392
v -0.032410 2.699999 -0.000069
v -0.030317 2.699999 -0.000069
v -0.028223 2.699999 -0.000069
v -0.026130 2.699999 -0.000069
v -0.024037 2.699999 -0.000069
v -0.021943 2.699999 -0.000069
v -0.019850 2.699999 -0.000069
v -0.017757 2.699999 -0.000069
v -0.014907 2.699999 -0.000069
v -0.014907 2.699999 0.004490
v -0.017757 2.699999 0.004490
v -0.019850 2.699999 0.004490
v -0.021943 2.699999 0.004490
v -0.024037 2.699999 0.004490
v -0.026130 2.699999 0.004490
v -0.028223 2.699999 0.004490
v -0.030317 2.699999 0.004490
v -0.032410 2.699999 0.004490
vt 0.415148 0.373113
vt 0.445623 0.373113
vt 0.445624 0.942513
vt 0.415148 0.938139
vt 0.380751 0.373112
vt 0.380751 0.933201
vt 0.323723 0.373113
vt 0.354198 0.373113
vt 0.354198 0.929389
vt 0.323723 0.925015
vt 0.260633 0.419447
vt 0.262569 0.418862
vt 0.262569 1.000000
vt 0.260633 1.000000
vt 0.476098 0.373113
vt 0.476099 0.946888
vt 0.501033 0.373113
vt 0.501033 0.950467
vt 0.264505 0.418419
vt 0.264505 1.000000
vt 0.266441 0.418068
vt 0.271001 0.418040
vt 0.271001 1.000000
vt 0.266441 1.000000
vt 0.273281 0.418054
vt 0.273281 1.000000
vt 0.275561 0.418138
vt 0.292192 0.418068
vt 0.292192 0.974885
vt 0.275561 1.000000
vt 0.597999 0.000000
vt 0.629771 0.000000
vt 0.629771 0.373425
vt 0.597999 0.373113
vt 0.629679 0.969539
vt 0.597999 0.964386
vt 0.529776 0.373113
vt 0.529776 0.954593
vt 0.560514 0.373113
vt 0.560514 0.959006
vt 0.380751 0.000000
vt 0.415148 0.000000
vt 0.445623 0.000000
vt 0.476098 0.000000
vt 0.501033 0.000000
vt 0.529776 0.000000
vt 0.560514 0.000000
vt 0.240469 0.502392
vt 0.245552 0.456357
vt 0.245552 1.000000
vt 0.240469 1.000000
vt 0.252124 0.432140
vt 0.252124 1.000000
vt 0.255411 0.424399
vt 0.255411 1.000000
vt 0.257054 0.421932
vt 0.257054 1.000000
vt 0.236402 0.599113
vt 0.236402 1.000000
vt 0.235385 0.894842
vt 0.258697 0.420385
vt 0.258697 1.000000
vt 0.232487 0.715642
vt 0.235385 0.620776
vt 0.415148 0.415663
vt 0.415148 0.938139
vt 0.445624 0.942513
vt 0.445623 0.415663
vt 0.384673 0.415663
vt 0.384673 0.933764
vt 0.275561 0.415663
vt 0.275561 1.000000
vt 0.292192 0.974885
vt 0.292192 0.415663
vt 0.310049 0.940742
vt 0.310049 0.407984
vt 0.343183 0.930988
vt 0.343183 0.414123
vt 0.292192 0.000000
vt 0.310049 0.000000
vt 0.275561 0.000000
vt 0.476099 0.946888
vt 0.476099 0.415663
vt 0.506574 0.951262
vt 0.506574 0.415663
vt 0.000000 0.000000
vt 0.000000 0.415663
vt 0.221772 0.415663
vt 0.221772 0.000000
vt 0.257054 0.415663
vt 0.257054 1.000000
vt 0.258697 1.000000
vt 0.258697 0.415663
vt 0.264505 0.000000
vt 0.264505 0.415663
vt 0.266441 0.415663
vt 0.266441 0.000000
vt 0.264505 1.000000
vt 0.266441 1.000000
vt 0.273281 0.000000
vt 0.273281 0.415663
vt 0.273281 1.000000
vt 0.227089 0.707832
vt 0.227089 0.415663
vt 0.227089 0.000000
vt 0.232407 0.415663
vt 0.232407 0.000000
vt 0.257054 0.000000
vt 0.258697 0.000000
vt 0.240469 0.000000
vt 0.240469 0.415663
vt 0.245552 0.415663
vt 0.245552 0.000000
vt 0.240469 1.000000
vt 0.245552 1.000000
vt 0.232407 1.000000
vt 0.235385 1.000000
vt 0.235385 0.415663
vt 0.235385 0.000000
vt 0.252124 0.415663
vt 0.252124 0.000000
vt 0.252124 1.000000
vt 0.255411 0.415663
vt 0.255411 0.000000
vt 0.255411 1.000000
vt 0.236402 0.415663
vt 0.236402 1.000000
vt 0.236402 0.000000
vt 0.415148 0.415663
vt 0.415148 0.938139
vt 0.445624 0.942513
vt 0.445623 0.415663
vt 0.260633 0.415663
vt 0.260633 1.000000
vt 0.262569 1.000000
vt 0.262569 0.415663
vt 0.260633 0.000000
vt 0.262569 0.000000
vt 0.271001 1.000000
vt 0.271001 0.415663
vt 0.271001 0.000000
vt 0.597999 0.000000
vt 0.597999 0.415663
vt 0.628474 0.415663
vt 0.628474 0.000000
vt 0.597999 0.964386
vt 0.628474 0.968761
vt 0.537049 0.955637
vt 0.537049 0.415663
vt 0.567524 0.960012
vt 0.567524 0.415663
vt 0.343183 0.000000
vt 0.384673 0.000000
vt 0.415148 0.000000
vt 0.445623 0.000000
vt 0.476098 0.000000
vt 0.506573 0.000000
vt 0.537049 0.000000
vt 0.567524 0.000000
vt 0.262569 0.415663
vt 0.262569 1.000000
vt 0.264505 1.000000
vt 0.264505 0.415663
vt 0.257054 0.415663
vt 0.257054 1.000000
vt 0.258697 1.000000
vt 0.258697 0.415663
vt 0.260633 0.415663
vt 0.260633 1.000000
vt 0.260633 0.000000
vt 0.262569 0.000000
vt 0.255411 0.415663
vt 0.255411 1.000000
vt 0.000000 0.000000
vt 0.000000 0.415663
vt 0.221772 0.415663
vt 0.221772 0.000000
vt 0.236402 0.000000
vt 0.236402 0.415663
vt 0.240469 0.415663
vt 0.240469 0.000000
vt 0.235385 1.000000
vt 0.236402 1.000000
vt 0.258697 0.000000
vt 0.264505 0.000000
vt 0.227089 0.415663
vt 0.227089 0.000000
vt 0.240469 1.000000
vt 0.245552 1.000000
vt 0.245552 0.415663
vt 0.245552 0.000000
vt 0.257054 0.000000
vt 0.227089 0.707832
vt 0.232407 1.000000
vt 0.232407 0.415663
vt 0.273281 0.415663
vt 0.273281 1.000000
vt 0.275561 1.000000
vt 0.275561 0.415663
vt 0.273281 0.000000
vt 0.275561 0.000000
vt 0.252124 0.415663
vt 0.252124 0.000000
vt 0.266441 0.415663
vt 0.266441 1.000000
vt 0.271001 1.000000
vt 0.271001 0.415663
vt 0.232407 0.000000
vt 0.235385 0.415663
vt 0.235385 0.000000
vt 0.266441 0.000000
vt 0.476099 0.415663
vt 0.476099 0.946888
vt 0.506574 0.951262
vt 0.506574 0.415663
vt 0.252124 1.000000
vt 0.255411 0.000000
vt 0.384673 0.415663
vt 0.384673 0.933764
vt 0.292192 0.974885
vt 0.292192 0.415663
vt 0.324837 0.920645
vt 0.324837 0.406803
vt 0.355128 0.931760
vt 0.355128 0.409915
vt 0.292192 0.000000
vt 0.324837 0.015236
vt 0.271001 0.000000
vt 0.597999 0.000000
vt 0.597999 0.415663
vt 0.628474 0.450269
vt 0.628474 0.000000
vt 0.597999 0.964386
vt 0.628474 0.968761
vt 0.537049 0.955637
vt 0.537049 0.415663
vt 0.567524 0.960012
vt 0.567524 0.415663
vt 0.355128 0.000000
vt 0.384673 0.000000
vt 0.415148 0.000000
vt 0.445623 0.000000
vt 0.476098 0.000000
vt 0.506573 0.000000
vt 0.537049 0.000000
vt 0.567524 0.000000
vt 0.415148 0.415663
vt 0.445623 0.415663
vt 0.445624 0.942513
vt 0.415148 0.938139
vt 0.262569 0.415663
vt 0.264505 0.415663
vt 0.264505 1.000000
vt 0.262569 1.000000
vt 0.257054 0.415663
vt 0.258697 0.415663
vt 0.258697 1.000000
vt 0.257054 1.000000
vt 0.260633 0.415663
vt 0.260633 1.000000
vt 0.260633 0.000000
vt 0.262569 0.000000
vt 0.255411 0.415663
vt 0.255411 1.000000
vt 0.221772 0.000000
vt 0.221772 0.415663
vt 0.236402 0.000000
vt 0.240469 0.000000
vt 0.240469 0.415663
vt 0.236402 0.415663
vt 0.236402 1.000000
vt 0.235385 1.000000
vt 0.258697 0.000000
vt 0.264505 0.000000
vt 0.227089 0.000000
vt 0.227089 0.415663
vt 0.245552 0.415663
vt 0.245552 1.000000
vt 0.240469 1.000000
vt 0.245552 0.000000
vt 0.257054 0.000000
vt 0.227089 0.707832
vt 0.232407 0.415663
vt 0.232407 1.000000
vt 0.273281 0.415663
vt 0.275561 0.415663
vt 0.275561 1.000000
vt 0.273281 1.000000
vt 0.273281 0.000000
vt 0.275561 0.000000
vt 0.252124 0.000000
vt 0.252124 0.415663
vt 0.266441 0.415663
vt 0.271001 0.415663
vt 0.271001 1.000000
vt 0.266441 1.000000
vt 0.232407 0.000000
vt 0.235385 0.415663
vt 0.235385 0.000000
vt 0.266441 0.000000
vt 0.476099 0.415663
vt 0.506574 0.415663
vt 0.506574 0.951262
vt 0.476099 0.946888
vt 0.252124 1.000000
vt 0.255411 0.000000
vt 0.384673 0.415663
vt 0.384673 0.933764
vt 0.292192 0.415663
vt 0.292192 0.974885
vt 0.310049 0.407984
vt 0.310049 0.940742
vt 0.343183 0.414123
vt 0.343183 0.930988
vt 0.292192 0.000000
vt 0.310049 0.000000
vt 0.271001 0.000000
vt 0.597999 0.000000
vt 0.597999 0.415663
vt 0.597999 0.964386
vt 0.537049 0.415663
vt 0.537049 0.955637
vt 0.567524 0.415663
vt 0.567524 0.960012
vt 0.343183 0.000000
vt 0.384673 0.000000
vt 0.415148 0.000000
vt 0.445623 0.000000
vt 0.476098 0.000000
vt 0.506573 0.000000
vt 0.537049 0.000000
vt 0.567524 0.000000
vt 0.415148 0.373113
vt 0.415148 0.938139
vt 0.445624 0.942513
vt 0.445623 0.373113
vt 0.380751 0.373112
vt 0.380751 0.933201
vt 0.323723 0.373113
vt 0.323723 0.925015
vt 0.354198 0.929389
vt 0.354198 0.373113
vt 0.260633 0.419447
vt 0.260633 1.000000
vt 0.262569 1.000000
vt 0.262569 0.418862
vt 0.476099 0.946888
vt 0.476098 0.373113
vt 0.501033 0.950467
vt 0.501033 0.373113
vt 0.264505 1.000000
vt 0.264505 0.418419
vt 0.266441 0.418068
vt 0.266441 1.000000
vt 0.271001 1.000000
vt 0.271001 0.418040
vt 0.273281 1.000000
vt 0.273281 0.418054
vt 0.275561 0.418138
vt 0.275561 1.000000
vt 0.292192 0.974885
vt 0.292192 0.418068
vt 0.597999 0.000000
vt 0.597999 0.373113
vt 0.629771 0.373425
vt 0.629771 0.000000
vt 0.597999 0.964386
vt 0.629679 0.969539
vt 0.529776 0.954593
vt 0.529776 0.373113
vt 0.560514 0.959006
vt 0.560514 0.373113
vt 0.380751 0.000000
vt 0.415148 0.000000
vt 0.445623 0.000000
vt 0.476098 0.000000
vt 0.501033 0.000000
vt 0.529776 0.000000
vt 0.560514 0.000000
vt 0.240469 0.502392
vt 0.240469 1.000000
vt 0.245552 1.000000
vt 0.245552 0.456357
vt 0.252124 1.000000
vt 0.252124 0.432140
vt 0.255411 1.000000
vt 0.255411 0.424399
vt 0.257054 1.000000
vt 0.257054 0.421932
vt 0.236402 0.599113
vt 0.235385 0.894842
vt 0.236402 1.000000
vt 0.258697 0.420385
vt 0.258697 1.000000
vt 0.232487 0.715642
vt 0.235385 0.620776
vt 0.415148 0.415663
vt 0.445623 0.415663
vt 0.445624 0.942513
vt 0.415148 0.938139
vt 0.384673 0.415663
vt 0.384673 0.933764
vt 0.275561 0.415663
vt 0.292192 0.415663
vt 0.292192 0.974885
vt 0.275561 1.000000
vt 0.310049 0.407984
vt 0.310049 0.940742
vt 0.343183 0.414123
vt 0.343183 0.930988
vt 0.292192 0.000000
vt 0.310049 0.000000
vt 0.275561 0.000000
vt 0.476099 0.415663
vt 0.476099 0.946888
vt 0.506574 0.415663
vt 0.506574 0.951262
vt 0.000000 0.000000
vt 0.221772 0.000000
vt 0.221772 0.415663
vt 0.000000 0.415663
vt 0.257054 0.415663
vt 0.258697 0.415663
vt 0.258697 1.000000
vt 0.257054 1.000000
vt 0.264505 0.000000
vt 0.266441 0.000000
vt 0.266441 0.415663
vt 0.264505 0.415663
vt 0.266441 1.000000
vt 0.264505 1.000000
vt 0.273281 0.000000
vt 0.273281 0.415663
vt 0.273281 1.000000
vt 0.227089 0.415663
vt 0.227089 0.707832
vt 0.227089 0.000000
vt 0.232407 0.000000
vt 0.232407 0.415663
vt 0.257054 0.000000
vt 0.258697 0.000000
vt 0.240469 0.000000
vt 0.245552 0.000000
vt 0.245552 0.415663
vt 0.240469 0.415663
vt 0.245552 1.000000
vt 0.240469 1.000000
vt 0.235385 0.415663
vt 0.235385 1.000000
vt 0.232407 1.000000
vt 0.235385 0.000000
vt 0.252124 0.000000
vt 0.252124 0.415663
vt 0.252124 1.000000
vt 0.255411 0.000000
vt 0.255411 0.415663
vt 0.255411 1.000000
vt 0.236402 0.415663
vt 0.236402 1.000000
vt 0.236402 0.000000
vt 0.415148 0.415663
vt 0.445623 0.415663
vt 0.445624 0.942513
vt 0.415148 0.938139
vt 0.260633 0.415663
vt 0.262569 0.415663
vt 0.262569 1.000000
vt 0.260633 1.000000
vt 0.260633 0.000000
vt 0.262569 0.000000
vt 0.271001 0.415663
vt 0.271001 1.000000
vt 0.271001 0.000000
vt 0.597999 0.000000
vt 0.628474 0.000000
vt 0.628474 0.415663
vt 0.597999 0.415663
vt 0.628474 0.968761
vt 0.597999 0.964386
vt 0.537049 0.415663
vt 0.537049 0.955637
vt 0.567524 0.415663
vt 0.567524 0.960012
vt 0.343183 0.000000
vt 0.384673 0.000000
vt 0.415148 0.000000
vt 0.445623 0.000000
vt 0.476098 0.000000
vt 0.506573 0.000000
vt 0.537049 0.000000
vt 0.567524 0.000000
vt 0.262569 0.415663
vt 0.264505 0.415663
vt 0.264505 1.000000
vt 0.262569 1.000000
vt 0.257054 0.415663
vt 0.258697 0.415663
vt 0.258697 1.000000
vt 0.257054 1.000000
vt 0.260633 0.415663
vt 0.260633 1.000000
vt 0.260633 0.000000
vt 0.262569 0.000000
vt 0.255411 0.415663
vt 0.255411 1.000000
vt 0.000000 0.000000
vt 0.221772 0.000000
vt 0.221772 0.415663
vt 0.000000 0.415663
vt 0.236402 0.000000
vt 0.240469 0.000000
vt 0.240469 0.415663
vt 0.236402 0.415663
vt 0.236402 1.000000
vt 0.235385 1.000000
vt 0.258697 0.000000
vt 0.264505 0.000000
vt 0.227089 0.000000
vt 0.227089 0.415663
vt 0.245552 0.415663
vt 0.245552 1.000000
vt 0.240469 1.000000
vt 0.245552 0.000000
vt 0.257054 0.000000
vt 0.227089 0.707832
vt 0.232407 0.415663
vt 0.232407 1.000000
vt 0.273281 0.415663
vt 0.275561 0.415663
vt 0.275561 1.000000
vt 0.273281 1.000000
vt 0.273281 0.000000
vt 0.275561 0.000000
vt 0.252124 0.000000
vt 0.252124 0.415663
vt 0.266441 0.415663
vt 0.271001 0.415663
vt 0.271001 1.000000
vt 0.266441 1.000000
vt 0.232407 0.000000
vt 0.235385 0.415663
vt 0.235385 0.000000
vt 0.266441 0.000000
vt 0.476099 0.415663
vt 0.506574 0.415663
vt 0.506574 0.951262
vt 0.476099 0.946888
vt 0.252124 1.000000
vt 0.255411 0.000000
vt 0.384673 0.415663
vt 0.384673 0.933764
vt 0.292192 0.415663
vt 0.292192 0.974885
vt 0.324837 0.406803
vt 0.324837 0.920645
vt 0.355128 0.409915
vt 0.355128 0.931760
vt 0.292192 0.000000
vt 0.324837 0.015236
vt 0.271001 0.000000
vt 0.597999 0.000000
vt 0.628474 0.000000
vt 0.628474 0.450269
vt 0.597999 0.415663
vt 0.628474 0.968761
vt 0.597999 0.964386
vt 0.537049 0.415663
vt 0.537049 0.955637
vt 0.567524 0.415663
vt 0.567524 0.960012
vt 0.355128 0.000000
vt 0.384673 0.000000
vt 0.415148 0.000000
vt 0.445623 0.000000
vt 0.476098 0.000000
vt 0.506573 0.000000
vt 0.537049 0.000000
vt 0.567524 0.000000
vt 0.415148 0.415663
vt 0.415148 0.938139
vt 0.445624 0.942513
vt 0.445623 0.415663
vt 0.262569 0.415663
vt 0.262569 1.000000
vt 0.264505 1.000000
vt 0.264505 0.415663
vt 0.257054 0.415663
vt 0.257054 1.000000
vt 0.258697 1.000000
vt 0.258697 0.415663
vt 0.260633 0.415663
vt 0.260633 1.000000
vt 0.260633 0.000000
vt 0.262569 0.000000
vt 0.255411 0.415663
vt 0.255411 1.000000
vt 0.221772 0.415663
vt 0.221772 0.000000
vt 0.236402 0.000000
vt 0.236402 0.415663
vt 0.240469 0.415663
vt 0.240469 0.000000
vt 0.235385 1.000000
vt 0.236402 1.000000
vt 0.258697 0.000000
vt 0.264505 0.000000
vt 0.227089 0.415663
vt 0.227089 0.000000
vt 0.240469 1.000000
vt 0.245552 1.000000
vt 0.245552 0.415663
vt 0.245552 0.000000
vt 0.257054 0.000000
vt 0.227089 0.707832
vt 0.232407 1.000000
vt 0.232407 0.415663
vt 0.273281 0.415663
vt 0.273281 1.000000
vt 0.275561 1.000000
vt 0.275561 0.415663
vt 0.273281 0.000000
vt 0.275561 0.000000
vt 0.252124 0.415663
vt 0.252124 0.000000
vt 0.266441 0.415663
vt 0.266441 1.000000
vt 0.271001 1.000000
vt 0.271001 0.415663
vt 0.232407 0.000000
vt 0.235385 0.415663
vt 0.235385 0.000000
vt 0.266441 0.000000
vt 0.476099 0.415663
vt 0.476099 0.946888
vt 0.506574 0.951262
vt 0.506574 0.415663
vt 0.252124 1.000000
vt 0.255411 0.000000
vt 0.384673 0.415663
vt 0.384673 0.933764
vt 0.292192 0.974885
vt 0.292192 0.415663
vt 0.310049 0.940742
vt 0.310049 0.407984
vt 0.343183 0.930988
vt 0.343183 0.414123
vt 0.292192 0.000000
vt 0.310049 0.000000
vt 0.271001 0.000000
vt 0.597999 0.000000
vt 0.597999 0.415663
vt 0.597999 0.964386
vt 0.537049 0.955637
vt 0.537049 0.415663
vt 0.567524 0.960012
vt 0.567524 0.415663
vt 0.343183 0.000000
vt 0.384673 0.000000
vt 0.415148 0.000000
vt 0.445623 0.000000
vt 0.476098 0.000000
vt 0.506573 0.000000
vt 0.537049 0.000000
vt 0.567524 0.000000
vn 0.0000 -1.0000 0.0000
vn 0.0000 1.0000 0.0000
vn 0.0000 1.0000 0.0001
vn 0.0000 0.0000 1.0000
vn 0.4117 -0.0000 0.9113
vn -1.0000 0.0000 0.0000
vn 0.4168 -0.0000 0.9090
vn -0.4400 0.0000 0.8980
vn 1.0000 -0.0000 0.0000
vn -0.4117 0.0000 0.9113
vn 0.9702 -0.0000 -0.2422
vn -0.4191 0.0000 -0.9080
vn 0.6240 -0.0000 -0.7814
vn 0.9748 -0.0000 -0.2232
vn -0.7361 0.0000 -0.6768
vn 0.9447 -0.0000 -0.3280
vn 0.9656 -0.0000 -0.2600
vn 0.9819 -0.0000 -0.1894
vn 0.9652 -0.0000 -0.2615
vn 0.9471 -0.0000 -0.3209
vn 0.9679 -0.0000 -0.2512
vn -0.7361 0.0000 -0.6769
vn 0.9477 -0.0000 -0.3191
vn 0.8962 -0.0000 -0.4436
vn -0.8455 0.0000 -0.5339
vn 0.8951 -0.0000 -0.4458
vn 0.9724 -0.0000 -0.2333
vn 0.8455 -0.0000 -0.5339
vn 0.9706 -0.0000 -0.2408
vn 0.9676 -0.0000 -0.2526
vn -0.9652 0.0000 -0.2615
vn -0.9447 0.0000 -0.3280
vn 0.0000 0.0000 -1.0000
vn -0.6241 0.0000 -0.7814
vn -0.9676 0.0000 -0.2526
vn -0.9721 0.0000 -0.2347
vn -0.9471 0.0000 -0.3209
vn 0.4191 -0.0000 -0.9080
vn -0.9702 0.0000 -0.2422
vn -0.8951 0.0000 -0.4458
vn 0.7361 -0.0000 -0.6769
vn -0.6240 0.0000 -0.7814
vn 0.9721 -0.0000 -0.2347
vn 0.1377 -0.0000 -0.9905
vn 0.1617 -0.0000 -0.9868
vn -0.1944 0.0000 -0.9809
vn 0.1018 -0.0000 -0.9948
vn -0.1385 0.0000 -0.9904
vn -0.0132 0.0000 -0.9999
vn -0.1645 0.0000 -0.9864
vn -0.1024 0.0000 -0.9947
vn 0.1088 -0.0000 -0.9941
vn -0.1095 0.0000 -0.9940
vn 0.0313 -0.0000 -0.9995
vn -0.0346 0.0000 -0.9994
vn 0.0478 -0.0000 -0.9989
vn -0.0540 0.0000 -0.9985
vn 0.7382 -0.0000 -0.6746
vn 0.0150 -0.0000 -0.9999
vn -0.4776 0.0000 -0.8786
vn -0.2472 0.0000 -0.9690
vn -0.0149 0.0000 -0.9999
vn 0.2457 -0.0000 -0.9693
vn 0.0726 -0.0000 -0.9974
vn 0.4800 -0.0000 -0.8773
vn 0.5767 -0.0000 -0.8169
vn 0.0149 -0.0000 -0.9999
vn 0.5743 -0.0000 -0.8186
vn -0.4015 0.0000 -0.9158
vn 0.4036 -0.0000 -0.9149
vn -0.0150 0.0000 -0.9999
vn 0.0890 -0.0000 -0.9960
vn -0.0478 0.0000 -0.9989
vn 0.1990 -0.0000 -0.9800
vn -0.0896 0.0000 -0.9960
vn -0.0787 0.0000 -0.9969
vn 0.4776 -0.0000 -0.8786
vn -0.1018 0.0000 -0.9948
vn -0.1088 0.0000 -0.9941
vn -0.0313 0.0000 -0.9995
vn 0.0132 -0.0000 -0.9999
vn -0.0726 0.0000 -0.9974
vn -0.1617 0.0000 -0.9868
vn -0.1377 0.0000 -0.9905
vn -0.2102 0.0000 -0.9777
vn 0.2232 -0.0000 -0.9748
vn 0.1817 -0.0000 -0.9833
vn -0.2339 0.0000 -0.9723
vn -0.1817 0.0000 -0.9833
vn -0.4777 0.0000 -0.8785
vn -0.0122 0.0000 -0.9999
vn -0.5743 0.0000 -0.8186
vn 0.4015 -0.0000 -0.9158
vn -0.0890 0.0000 -0.9960
vn -0.4015 0.0000 -0.9159
vn -0.2457 0.0000 -0.9693
vn 0.2339 -0.0000 -0.9723
vn 0.2102 -0.0000 -0.9777
vn -0.1786 0.0000 -0.9839
vn -0.2353 0.0000 -0.9719
g amber_main_Plane.002_gora_dol
usemtl gora_dol
s off
f 41/1/1 40/2/1 3/3/1 32/4/1
f 42/5/1 41/1/1 32/4/1 33/6/1
f 11/7/1 43/8/1 34/9/1 6/10/1
f 43/8/1 42/5/1 33/6/1 34/9/1
f 60/11/1 62/12/1 27/13/1 28/14/1
f 40/2/1 39/15/1 4/16/1 3/3/1
f 39/15/1 38/17/1 7/18/1 4/16/1
f 62/12/1 13/19/1 29/20/1 27/13/1
f 59/21/1 14/22/1 30/23/1 15/24/1
f 14/22/1 64/25/1 31/26/1 30/23/1
f 57/27/1 56/28/1 5/29/1 16/30/1
f 51/31/1 53/32/1 54/33/1 35/34/1
f 35/34/1 54/33/1 52/35/1 12/36/1
f 38/17/1 37/37/1 8/38/1 7/18/1
f 37/37/1 36/39/1 10/40/1 8/38/1
f 36/39/1 35/34/1 12/36/1 10/40/1
f 44/41/1 45/42/1 41/1/1 42/5/1
f 45/42/1 46/43/1 40/2/1 41/1/1
f 46/43/1 47/44/1 39/15/1 40/2/1
f 47/44/1 48/45/1 38/17/1 39/15/1
f 48/45/1 49/46/1 37/37/1 38/17/1
f 49/46/1 50/47/1 36/39/1 37/37/1
f 50/47/1 51/31/1 35/34/1 36/39/1
f 19/48/1 9/49/1 17/50/1 25/51/1
f 9/49/1 63/52/1 22/53/1 17/50/1
f 63/52/1 61/54/1 23/55/1 22/53/1
f 61/54/1 55/56/1 24/57/1 23/55/1
f 21/58/1 26/59/1 18/60/1
f 1/61/1 60/11/1 28/14/1 2/62/1
f 55/56/1 1/61/1 2/62/1 24/57/1
f 13/19/1 59/21/1 15/24/1 29/20/1
f 64/25/1 57/27/1 16/30/1 31/26/1
f 56/28/1 11/7/1 6/10/1 5/29/1
f 58/63/1 21/64/1 18/60/1
f 21/58/1 19/48/1 25/51/1 26/59/1
f 140/65/1 131/66/1 67/67/1 139/68/1
f 141/69/1 132/70/1 131/66/1 140/65/1
f 87/71/1 86/72/1 69/73/1 76/74/1
f 76/74/1 69/73/1 72/75/1 77/76/1
f 77/76/1 72/75/1 133/77/1 142/78/1
f 142/78/1 133/77/1 132/70/1 141/69/1
f 70/79/1 76/74/1 77/76/1 71/80/1
f 85/81/1 87/71/1 76/74/1 70/79/1
f 139/68/1 67/67/1 68/82/1 138/83/1
f 138/83/1 68/82/1 73/84/1 137/85/1
f 65/86/1 292/87/1 81/88/1 80/89/1
f 109/90/1 108/91/1 66/92/1 91/93/1
f 122/94/1 123/95/1 84/96/1 82/97/1
f 123/95/1 124/98/1 83/99/1 84/96/1
f 128/100/1 130/101/1 87/71/1 85/81/1
f 130/101/1 129/102/1 86/72/1 87/71/1
f 81/88/1 100/103/1 98/104/1
f 99/105/1 98/104/1 89/106/1 90/107/1
f 107/108/1 109/90/1 91/93/1 79/109/1
f 110/110/1 112/111/1 94/112/1 92/113/1
f 112/111/1 111/114/1 93/115/1 94/112/1
f 89/106/1 88/116/1 95/117/1 96/118/1
f 90/107/1 89/106/1 96/118/1 115/119/1
f 80/89/1 81/88/1 98/104/1 99/105/1
f 92/113/1 94/112/1 103/120/1 101/121/1
f 100/103/1 88/116/1 89/106/1 98/104/1
f 94/112/1 93/115/1 102/122/1 103/120/1
f 101/121/1 103/120/1 106/123/1 104/124/1
f 103/120/1 102/122/1 105/125/1 106/123/1
f 104/124/1 106/123/1 109/90/1 107/108/1
f 106/123/1 105/125/1 108/91/1 109/90/1
f 96/126/1 113/127/1 111/114/1 112/111/1
f 115/128/1 96/126/1 112/111/1 110/110/1
f 224/129/1 215/130/1 20/131/1 223/132/1
f 96/126/1 95/117/1 113/127/1
f 119/133/1 120/134/1 117/135/1 116/136/1
f 121/137/1 119/133/1 116/136/1 118/138/1
f 79/109/1 91/93/1 119/133/1 121/137/1
f 91/93/1 66/92/1 120/134/1 119/133/1
f 116/136/1 117/135/1 124/98/1 123/95/1
f 118/138/1 116/136/1 123/95/1 122/94/1
f 84/96/1 83/99/1 125/139/1 126/140/1
f 82/97/1 84/96/1 126/140/1 127/141/1
f 126/140/1 125/139/1 129/102/1 130/101/1
f 127/141/1 126/140/1 130/101/1 128/100/1
f 151/142/1 134/143/1 54/144/1 53/145/1
f 134/143/1 78/146/1 52/147/1 54/144/1
f 137/85/1 73/84/1 74/148/1 136/149/1
f 136/149/1 74/148/1 75/150/1 135/151/1
f 135/151/1 75/150/1 78/146/1 134/143/1
f 71/80/1 77/76/1 142/78/1 143/152/1
f 143/152/1 142/78/1 141/69/1 144/153/1
f 144/153/1 141/69/1 140/65/1 145/154/1
f 145/154/1 140/65/1 139/68/1 146/155/1
f 146/155/1 139/68/1 138/83/1 147/156/1
f 147/156/1 138/83/1 137/85/1 148/157/1
f 148/157/1 137/85/1 136/149/1 149/158/1
f 149/158/1 136/149/1 135/151/1 150/159/1
f 150/159/1 135/151/1 134/143/1 151/142/1
f 164/160/1 163/161/1 156/162/1 157/163/1
f 170/164/1 171/165/1 97/166/1 187/167/1
f 161/168/1 160/169/1 163/161/1 164/160/1
f 159/170/1 161/168/1 164/160/1 162/171/1
f 173/172/1 174/173/1 171/165/1 170/164/1
f 114/174/1 205/175/1 198/176/1 199/177/1
f 165/178/1 182/179/1 167/180/1 169/181/1
f 182/179/1 183/182/1 166/183/1
f 187/167/1 97/166/1 160/169/1 161/168/1
f 200/184/1 187/167/1 161/168/1 159/170/1
f 162/171/1 164/160/1 157/163/1 158/185/1
f 199/177/1 198/176/1 181/186/1 180/187/1
f 167/180/1 168/188/1 185/189/1 184/190/1
f 169/181/1 167/180/1 184/190/1 186/191/1
f 172/192/1 170/164/1 187/167/1 200/184/1
f 179/193/1 190/194/1 189/195/1 181/186/1
f 214/196/1 213/197/1 193/198/1 192/199/1
f 152/200/1 214/196/1 192/199/1 194/201/1
f 186/191/1 184/190/1 176/202/1 178/203/1
f 195/204/1 196/205/1 155/206/1 154/207/1
f 198/176/1 179/193/1 181/186/1
f 180/187/1 181/186/1 189/195/1 188/208/1
f 189/195/1 190/194/1 183/182/1 182/209/1
f 188/208/1 189/195/1 182/209/1 165/210/1
f 157/163/1 156/162/1 196/205/1 195/204/1
f 158/185/1 157/163/1 195/204/1 197/211/1
f 222/212/1 212/213/1 207/214/1 221/215/1
f 184/190/1 185/189/1 177/216/1 176/202/1
f 175/217/1 173/172/1 170/164/1 172/192/1
f 176/202/1 177/216/1 174/173/1 173/172/1
f 178/203/1 176/202/1 173/172/1 175/217/1
f 182/179/1 166/183/1 168/188/1 167/180/1
f 225/218/1 216/219/1 215/130/1 224/129/1
f 192/199/1 193/198/1 211/220/1 203/221/1
f 203/221/1 211/220/1 208/222/1 202/223/1
f 202/223/1 208/222/1 217/224/1 226/225/1
f 226/225/1 217/224/1 216/219/1 225/218/1
f 210/226/1 203/221/1 202/223/1 209/227/1
f 194/201/1 192/199/1 203/221/1 210/226/1
f 223/132/1 20/131/1 212/213/1 222/212/1
f 197/211/1 195/204/1 154/207/1 153/228/1
f 154/207/1 155/206/1 213/197/1 214/196/1
f 153/228/1 154/207/1 214/196/1 152/200/1
f 235/229/1 218/230/1 277/231/1 278/232/1
f 218/230/1 201/233/1 191/234/1 277/231/1
f 221/215/1 207/214/1 206/235/1 220/236/1
f 220/236/1 206/235/1 204/237/1 219/238/1
f 219/238/1 204/237/1 201/233/1 218/230/1
f 209/227/1 202/223/1 226/225/1 227/239/1
f 227/239/1 226/225/1 225/218/1 228/240/1
f 228/240/1 225/218/1 224/129/1 229/241/1
f 229/241/1 224/129/1 223/132/1 230/242/1
f 230/242/1 223/132/1 222/212/1 231/243/1
f 231/243/1 222/212/1 221/215/1 232/244/1
f 232/244/1 221/215/1 220/236/1 233/245/1
f 233/245/1 220/236/1 219/238/1 234/246/1
f 234/246/1 219/238/1 218/230/1 235/229/1
f 311/247/1 310/248/1 236/249/1 302/250/1
f 250/251/1 243/252/1 242/253/1 249/254/1
f 256/255/1 273/256/1 237/257/1 257/258/1
f 247/259/1 250/251/1 249/254/1 246/260/1
f 245/261/1 248/262/1 250/251/1 247/259/1
f 259/263/1 256/255/1 257/258/1 260/264/1
f 65/86/1 286/265/1 285/266/1 292/87/1
f 251/267/1 255/268/1 253/269/1 268/270/1
f 268/270/1 252/271/1 269/272/1
f 273/256/1 247/259/1 246/260/1 237/257/1
f 287/273/1 245/261/1 247/259/1 273/256/1
f 248/262/1 244/274/1 243/252/1 250/251/1
f 286/265/1 266/275/1 267/276/1 285/266/1
f 253/269/1 270/277/1 271/278/1 254/279/1
f 255/268/1 272/280/1 270/277/1 253/269/1
f 258/281/1 287/273/1 273/256/1 256/255/1
f 265/282/1 267/276/1 275/283/1 276/284/1
f 301/285/1 279/286/1 280/287/1 300/288/1
f 238/289/1 281/290/1 279/286/1 301/285/1
f 272/280/1 264/291/1 262/292/1 270/277/1
f 282/293/1 240/294/1 241/295/1 283/296/1
f 285/266/1 267/276/1 265/282/1
f 266/275/1 274/297/1 275/283/1 267/276/1
f 275/283/1 268/298/1 269/272/1 276/284/1
f 274/297/1 251/299/1 268/298/1 275/283/1
f 243/252/1 282/293/1 283/296/1 242/253/1
f 244/274/1 284/300/1 282/293/1 243/252/1
f 309/301/1 308/302/1 294/303/1 299/304/1
f 270/277/1 262/292/1 263/305/1 271/278/1
f 261/306/1 258/281/1 256/255/1 259/263/1
f 262/292/1 259/263/1 260/264/1 263/305/1
f 264/291/1 261/306/1 259/263/1 262/292/1
f 268/270/1 253/269/1 254/279/1 252/271/1
f 312/307/1 311/247/1 302/250/1 303/308/1
f 279/286/1 290/309/1 298/310/1 280/287/1
f 290/309/1 289/311/1 295/312/1 298/310/1
f 289/311/1 313/313/1 304/314/1 295/312/1
f 313/313/1 312/307/1 303/308/1 304/314/1
f 297/315/1 296/316/1 289/311/1 290/309/1
f 281/290/1 297/315/1 290/309/1 279/286/1
f 310/248/1 309/301/1 299/304/1 236/249/1
f 284/300/1 239/317/1 240/294/1 282/293/1
f 240/294/1 301/285/1 300/288/1 241/295/1
f 239/317/1 238/289/1 301/285/1 240/294/1
f 322/318/1 278/232/1 277/231/1 305/319/1
f 305/319/1 277/231/1 191/234/1 288/320/1
f 308/302/1 307/321/1 293/322/1 294/303/1
f 307/321/1 306/323/1 291/324/1 293/322/1
f 306/323/1 305/319/1 288/320/1 291/324/1
f 296/316/1 314/325/1 313/313/1 289/311/1
f 314/325/1 315/326/1 312/307/1 313/313/1
f 315/326/1 316/327/1 311/247/1 312/307/1
f 316/327/1 317/328/1 310/248/1 311/247/1
f 317/328/1 318/329/1 309/301/1 310/248/1
f 318/329/1 319/330/1 308/302/1 309/301/1
f 319/330/1 320/331/1 307/321/1 308/302/1
f 320/331/1 321/332/1 306/323/1 307/321/1
f 321/332/1 322/318/1 305/319/1 306/323/1
f 363/333/2 354/334/2 325/335/2 362/336/2
f 364/337/2 355/338/2 354/334/2 363/333/2
f 333/339/2 328/340/2 356/341/2 365/342/2
f 365/342/2 356/341/2 355/338/2 364/337/2
f 382/343/2 350/344/2 349/345/2 384/346/2
f 362/336/2 325/335/2 326/347/2 361/348/2
f 361/348/2 326/347/2 329/349/2 360/350/2
f 384/346/2 349/345/2 351/351/2 335/352/2
f 381/353/2 337/354/2 352/355/2 336/356/2
f 336/356/2 352/355/2 353/357/2 386/358/2
f 379/359/2 338/360/2 327/361/2 378/362/2
f 373/363/2 357/364/2 376/365/2 375/366/2
f 357/364/2 334/367/2 374/368/2 376/365/2
f 360/350/2 329/349/2 330/369/2 359/370/2
f 359/370/2 330/369/2 332/371/2 358/372/2
f 358/372/2 332/371/2 334/367/2 357/364/2
f 366/373/2 364/337/2 363/333/2 367/374/2
f 367/374/2 363/333/2 362/336/2 368/375/2
f 368/375/2 362/336/2 361/348/2 369/376/2
f 369/376/2 361/348/2 360/350/2 370/377/2
f 370/377/2 360/350/2 359/370/2 371/378/2
f 371/378/2 359/370/2 358/372/2 372/379/2
f 372/379/2 358/372/2 357/364/2 373/363/2
f 341/380/2 347/381/2 339/382/2 331/383/2
f 331/383/2 339/382/2 344/384/2 385/385/2
f 385/385/2 344/384/2 345/386/2 383/387/2
f 383/387/2 345/386/2 346/388/2 377/389/2
f 343/390/2 340/391/2 348/392/2
f 323/393/2 324/394/2 350/344/2 382/343/2
f 377/389/2 346/388/2 324/394/2 323/393/2
f 335/352/2 351/351/2 337/354/2 381/353/2
f 386/358/2 353/357/2 338/360/2 379/359/2
f 378/362/2 327/361/2 328/340/2 333/339/2
f 380/395/2 340/391/2 343/396/2
f 343/390/2 348/392/2 347/381/2 341/380/2
f 462/397/2 461/398/2 389/399/2 453/400/2
f 463/401/2 462/397/2 453/400/2 454/402/2
f 409/403/2 398/404/2 391/405/2 408/406/2
f 398/404/2 399/407/2 394/408/2 391/405/2
f 399/407/2 464/409/2 455/410/2 394/408/2
f 464/409/2 463/401/2 454/402/2 455/410/2
f 392/411/2 393/412/2 399/407/2 398/404/2
f 407/413/2 392/411/2 398/404/2 409/403/2
f 461/398/2 460/414/2 390/415/2 389/399/2
f 460/414/2 459/416/2 395/417/2 390/415/2
f 387/418/2 402/419/2 403/420/2 614/421/2
f 431/422/2 413/423/2 388/424/2 430/425/2
f 444/426/2 404/427/2 406/428/2 445/429/2
f 445/429/2 406/428/2 405/430/2 446/431/2
f 450/432/2 407/413/2 409/403/2 452/433/2
f 452/433/2 409/403/2 408/406/2 451/434/2
f 403/420/2 420/435/2 422/436/2
f 421/437/2 412/438/2 411/439/2 420/435/2
f 429/440/2 401/441/2 413/423/2 431/422/2
f 432/442/2 414/443/2 416/444/2 434/445/2
f 434/445/2 416/444/2 415/446/2 433/447/2
f 411/439/2 418/448/2 417/449/2 410/450/2
f 412/438/2 437/451/2 418/448/2 411/439/2
f 402/419/2 421/437/2 420/435/2 403/420/2
f 414/443/2 423/452/2 425/453/2 416/444/2
f 422/436/2 420/435/2 411/439/2 410/450/2
f 416/444/2 425/453/2 424/454/2 415/446/2
f 423/452/2 426/455/2 428/456/2 425/453/2
f 425/453/2 428/456/2 427/457/2 424/454/2
f 426/455/2 429/440/2 431/422/2 428/456/2
f 428/456/2 431/422/2 430/425/2 427/457/2
f 418/458/2 434/445/2 433/447/2 435/459/2
f 437/460/2 432/442/2 434/445/2 418/458/2
f 546/461/2 545/462/2 342/463/2 537/464/2
f 418/458/2 435/459/2 417/449/2
f 441/465/2 438/466/2 439/467/2 442/468/2
f 443/469/2 440/470/2 438/466/2 441/465/2
f 401/441/2 443/469/2 441/465/2 413/423/2
f 413/423/2 441/465/2 442/468/2 388/424/2
f 438/466/2 445/429/2 446/431/2 439/467/2
f 440/470/2 444/426/2 445/429/2 438/466/2
f 406/428/2 448/471/2 447/472/2 405/430/2
f 404/427/2 449/473/2 448/471/2 406/428/2
f 448/471/2 452/433/2 451/434/2 447/472/2
f 449/473/2 450/432/2 452/433/2 448/471/2
f 473/474/2 375/475/2 376/476/2 456/477/2
f 456/477/2 376/476/2 374/478/2 400/479/2
f 459/416/2 458/480/2 396/481/2 395/417/2
f 458/480/2 457/482/2 397/483/2 396/481/2
f 457/482/2 456/477/2 400/479/2 397/483/2
f 393/412/2 465/484/2 464/409/2 399/407/2
f 465/484/2 466/485/2 463/401/2 464/409/2
f 466/485/2 467/486/2 462/397/2 463/401/2
f 467/486/2 468/487/2 461/398/2 462/397/2
f 468/487/2 469/488/2 460/414/2 461/398/2
f 469/488/2 470/489/2 459/416/2 460/414/2
f 470/489/2 471/490/2 458/480/2 459/416/2
f 471/490/2 472/491/2 457/482/2 458/480/2
f 472/491/2 473/474/2 456/477/2 457/482/2
f 486/492/2 479/493/2 478/494/2 485/495/2
f 492/496/2 509/497/2 419/498/2 493/499/2
f 483/500/2 486/492/2 485/495/2 482/501/2
f 481/502/2 484/503/2 486/492/2 483/500/2
f 495/504/2 492/496/2 493/499/2 496/505/2
f 436/506/2 521/507/2 520/508/2 527/509/2
f 487/510/2 491/511/2 489/512/2 504/513/2
f 504/513/2 488/514/2 505/515/2
f 509/497/2 483/500/2 482/501/2 419/498/2
f 522/516/2 481/502/2 483/500/2 509/497/2
f 484/503/2 480/517/2 479/493/2 486/492/2
f 521/507/2 502/518/2 503/519/2 520/508/2
f 489/512/2 506/520/2 507/521/2 490/522/2
f 491/511/2 508/523/2 506/520/2 489/512/2
f 494/524/2 522/516/2 509/497/2 492/496/2
f 501/525/2 503/519/2 511/526/2 512/527/2
f 536/528/2 514/529/2 515/530/2 535/531/2
f 474/532/2 516/533/2 514/529/2 536/528/2
f 508/523/2 500/534/2 498/535/2 506/520/2
f 517/536/2 476/537/2 477/538/2 518/539/2
f 520/508/2 503/519/2 501/525/2
f 502/518/2 510/540/2 511/526/2 503/519/2
f 511/526/2 504/541/2 505/515/2 512/527/2
f 510/540/2 487/542/2 504/541/2 511/526/2
f 479/493/2 517/536/2 518/539/2 478/494/2
f 480/517/2 519/543/2 517/536/2 479/493/2
f 544/544/2 543/545/2 529/546/2 534/547/2
f 506/520/2 498/535/2 499/548/2 507/521/2
f 497/549/2 494/524/2 492/496/2 495/504/2
f 498/535/2 495/504/2 496/505/2 499/548/2
f 500/534/2 497/549/2 495/504/2 498/535/2
f 504/513/3 489/512/3 490/522/3 488/514/3
f 547/550/2 546/461/2 537/464/2 538/551/2
f 514/529/2 525/552/2 533/553/2 515/530/2
f 525/552/2 524/554/2 530/555/2 533/553/2
f 524/554/2 548/556/2 539/557/2 530/555/2
f 548/556/2 547/550/2 538/551/2 539/557/2
f 532/558/2 531/559/2 524/554/2 525/552/2
f 516/533/2 532/558/2 525/552/2 514/529/2
f 545/462/2 544/544/2 534/547/2 342/463/2
f 519/543/2 475/560/2 476/537/2 517/536/2
f 476/537/2 536/528/2 535/531/2 477/538/2
f 475/560/2 474/532/2 536/528/2 476/537/2
f 557/561/2 600/562/2 599/563/2 540/564/2
f 540/564/2 599/563/2 513/565/2 523/566/2
f 543/545/2 542/567/2 528/568/2 529/546/2
f 542/567/2 541/569/2 526/570/2 528/568/2
f 541/569/2 540/564/2 523/566/2 526/570/2
f 531/559/2 549/571/2 548/556/2 524/554/2
f 549/571/2 550/572/2 547/550/2 548/556/2
f 550/572/2 551/573/2 546/461/2 547/550/2
f 551/573/2 552/574/2 545/462/2 546/461/2
f 552/574/2 553/575/2 544/544/2 545/462/2
f 553/575/2 554/576/2 543/545/2 544/544/2
f 554/576/2 555/577/2 542/567/2 543/545/2
f 555/577/2 556/578/2 541/569/2 542/567/2
f 556/578/2 557/561/2 540/564/2 541/569/2
f 633/579/2 624/580/2 558/581/2 632/582/2
f 572/583/2 571/584/2 564/585/2 565/586/2
f 578/587/2 579/588/2 559/589/2 595/590/2
f 569/591/2 568/592/2 571/584/2 572/583/2
f 567/593/2 569/591/2 572/583/2 570/594/2
f 581/595/2 582/596/2 579/588/2 578/587/2
f 387/418/2 614/421/2 607/597/2 608/598/2
f 573/599/2 590/600/2 575/601/2 577/602/2
f 590/600/2 591/603/2 574/604/2
f 595/590/2 559/589/2 568/592/2 569/591/2
f 609/605/2 595/590/2 569/591/2 567/593/2
f 570/594/2 572/583/2 565/586/2 566/606/2
f 608/598/2 607/597/2 589/607/2 588/608/2
f 575/601/2 576/609/2 593/610/2 592/611/2
f 577/602/2 575/601/2 592/611/2 594/612/2
f 580/613/2 578/587/2 595/590/2 609/605/2
f 587/614/2 598/615/2 597/616/2 589/607/2
f 623/617/2 622/618/2 602/619/2 601/620/2
f 560/621/2 623/617/2 601/620/2 603/622/2
f 594/612/2 592/611/2 584/623/2 586/624/2
f 604/625/2 605/626/2 563/627/2 562/628/2
f 607/597/2 587/614/2 589/607/2
f 588/608/2 589/607/2 597/616/2 596/629/2
f 597/616/2 598/615/2 591/603/2 590/630/2
f 596/629/2 597/616/2 590/630/2 573/631/2
f 565/586/2 564/585/2 605/626/2 604/625/2
f 566/606/2 565/586/2 604/625/2 606/632/2
f 631/633/2 621/634/2 616/635/2 630/636/2
f 592/611/2 593/610/2 585/637/2 584/623/2
f 583/638/2 581/595/2 578/587/2 580/613/2
f 584/623/2 585/637/2 582/596/2 581/595/2
f 586/624/2 584/623/2 581/595/2 583/638/2
f 590/600/2 574/604/2 576/609/2 575/601/2
f 634/639/2 625/640/2 624/580/2 633/579/2
f 601/620/2 602/619/2 620/641/2 612/642/2
f 612/642/2 620/641/2 617/643/2 611/644/2
f 611/644/2 617/643/2 626/645/2 635/646/2
f 635/646/2 626/645/2 625/640/2 634/639/2
f 619/647/2 612/642/2 611/644/2 618/648/2
f 603/622/2 601/620/2 612/642/2 619/647/2
f 632/582/2 558/581/2 621/634/2 631/633/2
f 606/632/2 604/625/2 562/628/2 561/649/2
f 562/628/2 563/627/2 622/618/2 623/617/2
f 561/649/2 562/628/2 623/617/2 560/621/2
f 644/650/2 627/651/2 599/563/2 600/562/2
f 627/651/2 610/652/2 513/565/2 599/563/2
f 630/636/2 616/635/2 615/653/2 629/654/2
f 629/654/2 615/653/2 613/655/2 628/656/2
f 628/656/2 613/655/2 610/652/2 627/651/2
f 618/648/2 611/644/2 635/646/2 636/657/2
f 636/657/2 635/646/2 634/639/2 637/658/2
f 637/658/2 634/639/2 633/579/2 638/659/2
f 638/659/2 633/579/2 632/582/2 639/660/2
f 639/660/2 632/582/2 631/633/2 640/661/2
f 640/661/2 631/633/2 630/636/2 641/662/2
f 641/662/2 630/636/2 629/654/2 642/663/2
f 642/663/2 629/654/2 628/656/2 643/664/2
f 643/664/2 628/656/2 627/651/2 644/650/2
g amber_main_Plane.002_tyl
usemtl tyl
f 251/299/4 274/297/4 596/629/4 573/631/4
f 151/142/4 53/145/4 375/475/4 473/474/4
f 71/80/5 143/152/5 465/484/5 393/412/5
f 143/152/4 144/153/4 466/485/4 465/484/4
f 235/229/4 278/232/4 600/562/4 557/561/4
f 144/153/4 145/154/4 467/486/4 466/485/4
f 145/154/4 146/155/4 468/487/4 467/486/4
f 146/155/4 147/156/4 469/488/4 468/487/4
f 255/268/4 251/267/4 573/599/4 577/602/4
f 90/107/4 115/119/4 437/451/4 412/438/4
f 147/156/4 148/157/4 470/489/4 469/488/4
f 19/48/4 21/58/4 343/390/4 341/380/4
f 148/157/4 149/158/4 471/490/4 470/489/4
f 149/158/4 150/159/4 472/491/4 471/490/4
f 43/8/4 11/7/4 333/339/4 365/342/4
f 150/159/4 151/142/4 473/474/4 472/491/4
f 152/200/4 194/201/4 516/533/4 474/532/4
f 266/275/4 286/265/4 608/598/4 588/608/4
f 197/211/4 153/228/4 475/560/4 519/543/4
f 65/86/4 80/89/4 402/419/4 387/418/4
f 107/108/4 79/109/4 401/441/4 429/440/4
f 122/94/4 82/97/4 404/427/4 444/426/4
f 272/280/4 255/268/4 577/602/4 594/612/4
f 128/100/4 85/81/4 407/413/4 450/432/4
f 172/192/4 200/184/4 522/516/4 494/524/4
f 205/175/6 114/174/6 436/506/6 527/509/6
f 114/174/4 199/177/4 521/507/4 436/506/4
f 274/297/4 266/275/4 588/608/4 596/629/4
f 186/191/4 178/203/4 500/534/4 508/523/4
f 99/105/4 90/107/4 412/438/4 421/437/4
f 209/227/4 227/239/4 549/571/4 531/559/4
f 227/239/4 228/240/4 550/572/4 549/571/4
f 110/110/4 92/113/4 414/443/4 432/442/4
f 228/240/4 229/241/4 551/573/4 550/572/4
f 229/241/4 230/242/4 552/574/4 551/573/4
f 230/242/4 231/243/4 553/575/4 552/574/4
f 231/243/4 232/244/4 554/576/4 553/575/4
f 200/184/4 159/170/4 481/502/4 522/516/4
f 232/244/4 233/245/4 555/577/4 554/576/4
f 233/245/4 234/246/4 556/578/4 555/577/4
f 234/246/4 235/229/4 557/561/4 556/578/4
f 210/226/7 209/227/7 531/559/7 532/558/7
f 158/185/4 197/211/4 519/543/4 480/517/4
f 162/171/4 158/185/4 480/517/4 484/503/4
f 153/228/4 152/200/4 474/532/4 475/560/4
f 80/89/4 99/105/4 421/437/4 402/419/4
f 42/5/4 43/8/4 365/342/4 364/337/4
f 281/290/4 238/289/4 560/621/4 603/622/4
f 159/170/4 162/171/4 484/503/4 481/502/4
f 45/42/4 44/41/4 366/373/4 367/374/4
f 92/113/4 101/121/4 423/452/4 414/443/4
f 46/43/4 45/42/4 367/374/4 368/375/4
f 239/317/4 284/300/4 606/632/4 561/649/4
f 47/44/4 46/43/4 368/375/4 369/376/4
f 48/45/4 47/44/4 369/376/4 370/377/4
f 49/46/4 48/45/4 370/377/4 371/378/4
f 175/217/4 172/192/4 494/524/4 497/549/4
f 50/47/8 49/46/8 371/378/8 372/379/8
f 101/121/4 104/124/4 426/455/4 423/452/4
f 51/31/4 50/47/4 372/379/4 373/363/4
f 178/203/4 175/217/4 497/549/4 500/534/4
f 104/124/4 107/108/4 429/440/4 426/455/4
f 286/265/4 65/86/4 387/418/4 608/598/4
f 287/273/4 258/281/4 580/613/4 609/605/4
f 165/178/4 169/181/4 491/511/4 487/510/4
f 115/128/4 110/110/4 432/442/4 437/460/4
f 44/41/9 42/5/9 364/337/9 366/373/9
f 188/208/4 165/210/4 487/542/4 510/540/4
f 199/177/4 180/187/4 502/518/4 521/507/4
f 296/316/4 297/315/4 619/647/4 618/648/4
f 194/201/4 210/226/4 532/558/4 516/533/4
f 314/325/10 296/316/10 618/648/10 636/657/10
f 297/315/4 281/290/4 603/622/4 619/647/4
f 315/326/4 314/325/4 636/657/4 637/658/4
f 316/327/4 315/326/4 637/658/4 638/659/4
f 317/328/4 316/327/4 638/659/4 639/660/4
f 53/32/4 51/31/4 373/363/4 375/366/4
f 318/329/4 317/328/4 639/660/4 640/661/4
f 264/291/4 272/280/4 594/612/4 586/624/4
f 169/181/4 186/191/4 508/523/4 491/511/4
f 121/137/4 118/138/4 440/470/4 443/469/4
f 319/330/4 318/329/4 640/661/4 641/662/4
f 62/12/4 60/11/4 382/343/4 384/346/4
f 320/331/4 319/330/4 641/662/4 642/663/4
f 56/28/4 57/27/4 379/359/4 378/362/4
f 321/332/4 320/331/4 642/663/4 643/664/4
f 14/22/4 59/21/4 381/353/4 336/356/4
f 322/318/4 321/332/4 643/664/4 644/650/4
f 64/25/4 14/22/4 336/356/4 386/358/4
f 79/109/4 121/137/4 443/469/4 401/441/4
f 13/19/4 62/12/4 384/346/4 335/352/4
f 9/49/4 19/48/4 341/380/4 331/383/4
f 63/52/4 9/49/4 331/383/4 385/385/4
f 118/138/4 122/94/4 444/426/4 440/470/4
f 61/54/4 63/52/4 385/385/4 383/387/4
f 245/261/4 287/273/4 609/605/4 567/593/4
f 55/56/4 61/54/4 383/387/4 377/389/4
f 180/187/4 188/208/4 510/540/4 502/518/4
f 60/11/4 1/61/4 323/393/4 382/343/4
f 1/61/4 55/56/4 377/389/4 323/393/4
f 284/300/4 244/274/4 566/606/4 606/632/4
f 59/21/4 13/19/4 335/352/4 381/353/4
f 57/27/4 64/25/4 386/358/4 379/359/4
f 244/274/4 248/262/4 570/594/4 566/606/4
f 82/97/4 127/141/4 449/473/4 404/427/4
f 11/7/4 56/28/4 378/362/4 333/339/4
f 238/289/4 239/317/4 561/649/4 560/621/4
f 21/64/4 58/63/4 380/395/4 343/396/4
f 127/141/4 128/100/4 450/432/4 449/473/4
f 248/262/4 245/261/4 567/593/4 570/594/4
f 85/81/4 70/79/4 392/411/4 407/413/4
f 278/232/4 322/318/4 644/650/4 600/562/4
f 258/281/4 261/306/4 583/638/4 580/613/4
f 70/79/4 71/80/4 393/412/4 392/411/4
f 261/306/4 264/291/4 586/624/4 583/638/4
g amber_main_Plane.002_front_shine
usemtl front_shine
f 252/271/11 254/279/11 576/609/11 574/604/11
f 100/103/12 81/88/12 403/420/12 422/436/12
f 265/282/13 276/284/13 598/615/13 587/614/13
f 58/63/14 18/60/14 340/391/14 380/395/14
f 120/134/15 66/92/15 388/424/15 442/468/15
f 269/272/16 252/271/16 574/604/16 591/603/16
f 179/193/12 198/176/12 520/508/12 501/525/12
f 17/50/17 22/53/17 344/384/17 339/382/17
f 18/60/18 26/59/18 348/392/18 340/391/18
f 271/278/19 263/305/19 585/637/19 593/610/19
f 260/264/20 257/258/20 579/588/20 582/596/20
f 22/53/21 23/55/21 345/386/21 344/384/21
f 160/169/22 97/166/22 419/498/22 482/501/22
f 23/55/23 24/57/23 346/388/23 345/386/23
f 24/57/24 2/62/24 324/394/24 346/388/24
f 95/117/25 88/116/25 410/450/25 417/449/25
f 257/258/26 237/257/26 559/589/26 579/588/26
f 25/51/27 17/50/27 339/382/27 347/381/27
f 276/284/28 269/272/28 591/603/28 598/615/28
f 26/59/29 25/51/29 347/381/29 348/392/29
f 263/305/30 260/264/30 582/596/30 585/637/30
f 102/122/31 93/115/31 415/446/31 424/454/31
f 113/127/32 95/117/32 417/449/32 435/459/32
f 292/87/33 285/266/33 607/597/33 614/421/33
f 88/116/34 100/103/34 422/436/34 410/450/34
f 105/125/35 102/122/35 424/454/35 427/457/35
f 185/189/36 168/188/36 490/522/36 507/521/36
f 108/91/37 105/125/37 427/457/37 430/425/37
f 285/266/38 265/282/38 587/614/38 607/597/38
f 168/188/39 166/183/39 488/514/39 490/522/39
f 66/92/40 108/91/40 430/425/40 388/424/40
f 237/257/41 246/260/41 568/592/41 559/589/41
f 81/88/33 292/87/33 614/421/33 403/420/33
f 93/115/36 111/114/36 433/447/36 415/446/36
f 190/194/42 179/193/42 501/525/42 512/527/42
f 111/114/39 113/127/39 435/459/39 433/447/39
f 166/183/32 183/182/32 505/515/32 488/514/32
f 177/216/31 185/189/31 507/521/31 499/548/31
f 171/165/37 174/173/37 496/505/37 493/499/37
f 97/166/40 171/165/40 493/499/40 419/498/40
f 183/182/25 190/194/25 512/527/25 505/515/25
f 174/173/35 177/216/35 499/548/35 496/505/35
f 254/279/43 271/278/43 593/610/43 576/609/43
f 198/176/33 205/175/33 527/509/33 520/508/33
g amber_main_Plane.002_front
usemtl front
f 67/67/44 131/66/44 453/400/44 389/399/44
f 131/66/45 132/70/45 454/402/45 453/400/45
f 6/10/46 34/9/46 356/341/46 328/340/46
f 73/84/47 68/82/47 390/415/47 395/417/47
f 32/4/48 3/3/48 325/335/48 354/334/48
f 288/320/49 191/234/49 513/565/49 610/652/49
f 33/6/50 32/4/50 354/334/50 355/338/50
f 4/16/51 7/18/51 329/349/51 326/347/51
f 68/82/52 67/67/52 389/399/52 390/415/52
f 3/3/53 4/16/53 326/347/53 325/335/53
f 78/146/54 75/150/54 397/483/54 400/479/54
f 10/40/55 12/36/55 334/367/55 332/371/55
f 75/150/56 74/148/56 396/481/56 397/483/56
f 8/38/57 10/40/57 332/371/57 330/369/57
f 2/62/58 28/14/58 350/344/58 324/394/58
f 15/24/59 30/23/59 352/355/59 337/354/59
f 156/162/60 163/161/60 485/495/60 478/494/60
f 16/30/61 5/29/61 327/361/61 338/360/61
f 207/214/47 212/213/47 534/547/47 529/546/47
f 125/139/62 83/99/62 405/430/62 447/472/62
f 212/213/52 20/131/52 342/463/52 534/547/52
f 201/233/54 204/237/54 526/570/54 523/566/54
f 69/73/63 86/72/63 408/406/63 391/405/63
f 206/235/64 207/214/64 529/546/64 528/568/64
f 215/130/45 216/219/45 538/551/45 537/464/45
f 155/206/62 196/205/62 518/539/62 477/538/62
f 27/13/65 29/20/65 351/351/65 349/345/65
f 28/14/66 27/13/66 349/345/66 350/344/66
f 213/197/67 155/206/67 477/538/67 535/531/67
f 246/260/68 249/254/68 571/584/68 568/592/68
f 196/205/69 156/162/69 478/494/69 518/539/69
f 29/20/70 15/24/70 337/354/70 351/351/70
f 30/23/71 31/26/71 353/357/71 352/355/71
f 193/198/72 213/197/72 535/531/72 515/530/72
f 293/322/73 291/324/73 613/655/73 615/653/73
f 211/220/63 193/198/63 515/530/63 533/553/63
f 217/224/74 208/222/74 530/555/74 539/557/74
f 31/26/75 16/30/75 338/360/75 353/357/75
f 7/18/76 8/38/76 330/369/76 329/349/76
f 249/254/77 242/253/77 564/585/77 571/584/77
f 299/304/78 294/303/78 616/635/78 621/634/78
f 236/249/79 299/304/79 621/634/79 558/581/79
f 291/324/80 288/320/80 610/652/80 613/655/80
f 191/234/81 201/233/81 523/566/81 513/565/81
f 294/303/82 293/322/82 615/653/82 616/635/82
f 303/308/83 302/250/83 624/580/83 625/640/83
f 302/250/84 236/249/84 558/581/84 624/580/84
f 295/312/85 304/314/85 626/645/85 617/643/85
f 208/222/86 211/220/86 533/553/86 530/555/86
f 216/219/87 217/224/87 539/557/87 538/551/87
f 298/310/88 295/312/88 617/643/88 620/641/88
f 304/314/89 303/308/89 625/640/89 626/645/89
f 124/98/90 117/135/90 439/467/90 446/431/90
f 12/36/91 52/35/91 374/368/91 334/367/91
f 283/296/67 241/295/67 563/627/67 605/626/67
f 117/135/92 120/134/92 442/468/92 439/467/92
f 241/295/62 300/288/62 622/618/62 563/627/62
f 242/253/93 283/296/93 605/626/93 564/585/93
f 300/288/94 280/287/94 602/619/94 622/618/94
f 83/99/95 124/98/95 446/431/95 405/430/95
f 20/131/44 215/130/44 537/464/44 342/463/44
f 280/287/96 298/310/96 620/641/96 602/619/96
f 129/102/67 125/139/67 447/472/67 451/434/67
f 163/161/92 160/169/92 482/501/92 485/495/92
f 86/72/72 129/102/72 451/434/72 408/406/72
f 132/70/87 133/77/87 455/410/87 454/402/87
f 204/237/56 206/235/56 528/568/56 526/570/56
f 72/75/97 69/73/97 391/405/97 394/408/97
f 74/148/64 73/84/64 395/417/64 396/481/64
f 133/77/98 72/75/98 394/408/98 455/410/98
f 34/9/99 33/6/99 355/338/99 356/341/99
f 5/29/100 6/10/100 328/340/100 327/361/100
f 52/147/81 78/146/81 400/479/81 374/478/81
