<?xml version="1.0" encoding="utf-8"?>
<COLLADA xmlns="http://www.collada.org/2005/11/COLLADASchema" version="1.4.1" xmlns:xsi="http://www.w3.org/2001/XMLSchema-instance">
  <asset>
    <contributor>
      <author>Blender User</author>
      <authoring_tool>Blender 3.2.0 commit date:2022-06-08, commit time:10:22, hash:e05e1e369187</authoring_tool>
    </contributor>
    <created>2023-03-08T13:26:28</created>
    <modified>2023-03-08T13:26:28</modified>
    <unit name="meter" meter="1"/>
    <up_axis>Z_UP</up_axis>
  </asset>
  <library_effects>
    <effect id="gora_dol-effect">
      <profile_COMMON>
        <technique sid="common">
          <lambert>
            <emission>
              <color sid="emission">0 0 0 1</color>
            </emission>
            <diffuse>
              <color sid="diffuse">0.8 0.8 0.8 1</color>
            </diffuse>
            <index_of_refraction>
              <float sid="ior">1.45</float>
            </index_of_refraction>
          </lambert>
        </technique>
      </profile_COMMON>
    </effect>
    <effect id="tyl-effect">
      <profile_COMMON>
        <technique sid="common">
          <lambert>
            <emission>
              <color sid="emission">0 0 0 1</color>
            </emission>
            <diffuse>
              <color sid="diffuse">0.8 0.8 0.8 1</color>
            </diffuse>
            <index_of_refraction>
              <float sid="ior">1.45</float>
            </index_of_refraction>
          </lambert>
        </technique>
      </profile_COMMON>
    </effect>
    <effect id="front_shine-effect">
      <profile_COMMON>
        <technique sid="common">
          <lambert>
            <emission>
              <color sid="emission">0 0 0 1</color>
            </emission>
            <diffuse>
              <color sid="diffuse">0.8 0.8 0.8 1</color>
            </diffuse>
            <index_of_refraction>
              <float sid="ior">1.45</float>
            </index_of_refraction>
          </lambert>
        </technique>
      </profile_COMMON>
    </effect>
    <effect id="front-effect">
      <profile_COMMON>
        <technique sid="common">
          <lambert>
            <emission>
              <color sid="emission">0 0 0 1</color>
            </emission>
            <diffuse>
              <color sid="diffuse">0.8 0.8 0.8 1</color>
            </diffuse>
            <index_of_refraction>
              <float sid="ior">1.45</float>
            </index_of_refraction>
          </lambert>
        </technique>
      </profile_COMMON>
    </effect>
  </library_effects>
  <library_images/>
  <library_materials>
    <material id="gora_dol-material" name="gora_dol">
      <instance_effect url="#gora_dol-effect"/>
    </material>
    <material id="tyl-material" name="tyl">
      <instance_effect url="#tyl-effect"/>
    </material>
    <material id="front_shine-material" name="front_shine">
      <instance_effect url="#front_shine-effect"/>
    </material>
    <material id="front-material" name="front">
      <instance_effect url="#front-effect"/>
    </material>
  </library_materials>
  <library_geometries>
    <geometry id="Plane_001-mesh" name="Plane.001">
      <mesh>
        <source id="Plane_001-mesh-positions">
          <float_array id="Plane_001-mesh-positions-array" count="744">0.02551794 -6.6851e-4 1.349999 0.02551794 0.005943417 1.349999 0.01279169 0.004065632 1.349999 0.01071691 0.003836512 1.349999 0.02323752 0.006010651 1.349999 0.0210908 0.005489528 1.349999 0.009019315 0.003661334 1.349999 0.007062435 0.003506422 1.349999 0.02641284 -6.68508e-4 1.349999 0.004969716 0.003392875 1.349999 0.0210908 -6.6851e-4 1.349999 0.002417743 0.003304243 1.349999 0.02512252 -6.6851e-4 1.349999 0.02468025 -6.6851e-4 1.349999 0.02499067 0.006311953 1.349999 0.02436977 0.00630027 1.349999 0.02641284 0.002853155 1.349999 0.02710503 -7.1767e-5 1.349999 0.0267589 -6.68508e-4 1.349999 0.02703577 -6.68508e-4 1.349999 0.02710503 -6.68508e-4 1.349999 0.02596539 0.004519224 1.349999 0.02574163 0.005383729 1.349999 0.02562981 0.005716741 1.349999 0.0267589 0.001407086 1.349999 0.02703577 2.88036e-4 1.349999 0.0252543 0.006181299 1.349999 0.02538609 0.006088018 1.349999 0.02512252 0.0062536 1.349999 0.02468025 0.006316602 1.349999 0.02452498 0.006314277 1.349999 0.01486647 0.004356622 1.349999 0.01720827 0.004748165 1.349999 0.01901602 0.005077242 1.349999 0.002417743 -5.63269e-4 1.349999 0.004969716 -5.63269e-4 1.349999 0.007062435 -6.6851e-4 1.349999 0.009019315 -6.6851e-4 1.349999 0.01071691 -6.6851e-4 1.349999 0.01279169 -6.6851e-4 1.349999 0.01486647 -6.6851e-4 1.349999 0.01720827 -6.6851e-4 1.349999 0.01901602 -6.6851e-4 1.349999 0.01720827 -0.005683362 1.349999 0.01486647 -0.005683362 1.349999 0.01279169 -0.005683362 1.349999 0.01071691 -0.005683362 1.349999 0.009019315 -0.005683362 1.349999 0.007062435 -0.005683362 1.349999 0.004969716 -0.004655241 1.349999 0.002417743 -0.004655241 1.349999 -0.0256468 0.005943417 1.349999 -0.01292055 0.004065632 1.349999 -0.01084578 0.003836512 1.349999 -0.02336639 0.006010651 1.349999 -0.02336639 -0.005683362 1.349999 -0.02121967 -0.005683362 1.349999 -0.02121967 0.005489528 1.349999 -0.008770942 0.003622412 1.349999 -0.006696164 0.003470122 1.349999 -0.004621386 0.003369808 1.349999 -0.02336639 -0.001207709 1.349999 -0.02121967 -6.6851e-4 1.349999 -0.002546608 0.003304243 1.349999 -0.0256468 -0.005683362 1.349999 -0.02511954 -0.005683362 1.349999 -0.02511954 0.006311953 1.349999 -0.02511954 -0.001207709 1.349999 -0.02449864 -0.005683362 1.349999 -0.02449864 0.00630027 1.349999 -0.02449864 -0.001207709 1.349999 -0.0256468 -0.001207709 1.349999 -0.02575868 -0.005683362 1.349999 -0.02575868 0.005716741 1.349999 -0.02575868 -0.001207709 1.349999 -0.02538317 -0.001207709 1.349999 -0.02538317 0.006181299 1.349999 -0.02538317 -0.005683362 1.349999 -0.02551496 -0.001207709 1.349999 -0.02551496 0.006088018 1.349999 -0.02551496 -0.005683362 1.349999 -0.02525138 -0.005683362 1.349999 -0.02525138 -0.001207709 1.349999 -0.02525138 0.0062536 1.349999 -0.02480912 0.006316602 1.349999 -0.02480912 -0.001207709 1.349999 -0.02480912 -0.005683362 1.349999 -0.02465385 -0.005683362 1.349999 -0.02465385 0.006314277 1.349999 -0.02465385 -0.001207709 1.349999 -4.71845e-4 0.003273308 1.349999 -4.71845e-4 -0.004655241 1.349999 -4.71845e-4 -5.63269e-4 1.349999 -0.01525253 0.00439912 1.349999 -0.0173639 0.004753053 1.349999 -0.01914489 0.005077242 1.349999 -0.002546608 -5.63269e-4 1.349999 -0.004621386 -5.63269e-4 1.349999 -0.006696164 -5.63269e-4 1.349999 -0.008770942 -5.63269e-4 1.349999 -0.01084578 -5.63269e-4 1.349999 -0.01292055 -5.63269e-4 1.349999 -0.01525253 -5.63269e-4 1.349999 -0.0173639 -6.6851e-4 1.349999 -0.01914489 -6.6851e-4 1.349999 -0.01914489 -0.005683362 1.349999 -0.0173639 -0.005683362 1.349999 -0.01525253 -0.004655241 1.349999 -0.01292055 -0.004655241 1.349999 -0.01084578 -0.004655241 1.349999 -0.008770942 -0.004655241 1.349999 -0.006696164 -0.004655241 1.349999 -0.004621386 -0.004655241 1.349999 -0.002546608 -0.004655241 1.349999 0.02562981 -6.6851e-4 1.349999 0.02323752 -6.6851e-4 1.349999 0.02436977 -6.6851e-4 1.349999 0.02724128 -6.68508e-4 1.349999 0.02499067 -6.6851e-4 1.349999 0.02538609 -6.6851e-4 1.349999 0.02574163 -6.68508e-4 1.349999 0.0252543 -6.6851e-4 1.349999 0.02596539 -6.68508e-4 1.349999 0.02452498 -6.6851e-4 1.349999 0.02551794 -6.6851e-4 -1.35 0.02551794 0.005943417 -1.35 0.01279169 0.004065632 -1.35 0.01071691 0.003836512 -1.35 0.02323752 0.006010651 -1.35 0.0210908 0.005489528 -1.35 0.009019315 0.003661334 -1.35 0.007062435 0.003506422 -1.35 0.02641284 -6.68508e-4 -1.35 0.004969716 0.003392875 -1.35 0.0210908 -6.6851e-4 -1.35 0.002417743 0.003304243 -1.35 0.02512252 -6.6851e-4 -1.35 0.02468025 -6.6851e-4 -1.35 0.02499067 0.006311953 -1.35 0.02436977 0.00630027 -1.35 0.02641284 0.002853155 -1.35 0.02710503 -7.1767e-5 -1.35 0.0267589 -6.68508e-4 -1.35 0.02703577 -6.68508e-4 -1.35 0.02710503 -6.68508e-4 -1.35 0.02596539 0.004519224 -1.35 0.02574163 0.005383729 -1.35 0.02562981 0.005716741 -1.35 0.0267589 0.001407086 -1.35 0.02703577 2.88036e-4 -1.35 0.0252543 0.006181299 -1.35 0.02538609 0.006088018 -1.35 0.02512252 0.0062536 -1.35 0.02468025 0.006316602 -1.35 0.02452498 0.006314277 -1.35 0.01486647 0.004356622 -1.35 0.01720827 0.004748165 -1.35 0.01901602 0.005077242 -1.35 0.002417743 -5.63269e-4 -1.35 0.004969716 -5.63269e-4 -1.35 0.007062435 -6.6851e-4 -1.35 0.009019315 -6.6851e-4 -1.35 0.01071691 -6.6851e-4 -1.35 0.01279169 -6.6851e-4 -1.35 0.01486647 -6.6851e-4 -1.35 0.01720827 -6.6851e-4 -1.35 0.01901602 -6.6851e-4 -1.35 0.01720827 -0.005683362 -1.35 0.01486647 -0.005683362 -1.35 0.01279169 -0.005683362 -1.35 0.01071691 -0.005683362 -1.35 0.009019315 -0.005683362 -1.35 0.007062435 -0.005683362 -1.35 0.004969716 -0.004655241 -1.35 0.002417743 -0.004655241 -1.35 -0.0256468 0.005943417 -1.35 -0.01292055 0.004065632 -1.35 -0.01084578 0.003836512 -1.35 -0.02336639 0.006010651 -1.35 -0.02336639 -0.005683362 -1.35 -0.02121967 -0.005683362 -1.35 -0.02121967 0.005489528 -1.35 -0.008770942 0.003622412 -1.35 -0.006696164 0.003470122 -1.35 -0.004621386 0.003369808 -1.35 -0.02336639 -0.001207709 -1.35 -0.02121967 -6.6851e-4 -1.35 -0.002546608 0.003304243 -1.35 -0.0256468 -0.005683362 -1.35 -0.02511954 -0.005683362 -1.35 -0.02511954 0.006311953 -1.35 -0.02511954 -0.001207709 -1.35 -0.02449864 -0.005683362 -1.35 -0.02449864 0.00630027 -1.35 -0.02449864 -0.001207709 -1.35 -0.0256468 -0.001207709 -1.35 -0.02575868 -0.005683362 -1.35 -0.02575868 0.005716741 -1.35 -0.02575868 -0.001207709 -1.35 -0.02538317 -0.001207709 -1.35 -0.02538317 0.006181299 -1.35 -0.02538317 -0.005683362 -1.35 -0.02551496 -0.001207709 -1.35 -0.02551496 0.006088018 -1.35 -0.02551496 -0.005683362 -1.35 -0.02525138 -0.005683362 -1.35 -0.02525138 -0.001207709 -1.35 -0.02525138 0.0062536 -1.35 -0.02480912 0.006316602 -1.35 -0.02480912 -0.001207709 -1.35 -0.02480912 -0.005683362 -1.35 -0.02465385 -0.005683362 -1.35 -0.02465385 0.006314277 -1.35 -0.02465385 -0.001207709 -1.35 -4.71845e-4 0.003273308 -1.35 -4.71845e-4 -0.004655241 -1.35 -4.71845e-4 -5.63269e-4 -1.35 -0.01525253 0.00439912 -1.35 -0.0173639 0.004753053 -1.35 -0.01914489 0.005077242 -1.35 -0.002546608 -5.63269e-4 -1.35 -0.004621386 -5.63269e-4 -1.35 -0.006696164 -5.63269e-4 -1.35 -0.008770942 -5.63269e-4 -1.35 -0.01084578 -5.63269e-4 -1.35 -0.01292055 -5.63269e-4 -1.35 -0.01525253 -5.63269e-4 -1.35 -0.0173639 -6.6851e-4 -1.35 -0.01914489 -6.6851e-4 -1.35 -0.01914489 -0.005683362 -1.35 -0.0173639 -0.005683362 -1.35 -0.01525253 -0.004655241 -1.35 -0.01292055 -0.004655241 -1.35 -0.01084578 -0.004655241 -1.35 -0.008770942 -0.004655241 -1.35 -0.006696164 -0.004655241 -1.35 -0.004621386 -0.004655241 -1.35 -0.002546608 -0.004655241 -1.35 0.02562981 -6.6851e-4 -1.35 0.02323752 -6.6851e-4 -1.35 0.02436977 -6.6851e-4 -1.35 0.02724128 -6.68508e-4 -1.35 0.02499067 -6.6851e-4 -1.35 0.02538609 -6.6851e-4 -1.35 0.02574163 -6.68508e-4 -1.35 0.0252543 -6.6851e-4 -1.35 0.02596539 -6.68508e-4 -1.35 0.02452498 -6.6851e-4 -1.35</float_array>
          <technique_common>
            <accessor source="#Plane_001-mesh-positions-array" count="248" stride="3">
              <param name="X" type="float"/>
              <param name="Y" type="float"/>
              <param name="Z" type="float"/>
            </accessor>
          </technique_common>
        </source>
        <source id="Plane_001-mesh-normals">
          <float_array id="Plane_001-mesh-normals-array" count="525">0 0 1 -4.43714e-5 0 1 -1.50896e-5 0 1 3.5595e-5 0 1 1.50637e-4 0 1 -1.8223e-5 0 1 -1.70643e-5 0 1 -7.65165e-5 0 1 -7.85166e-4 0 0.9999998 3.21211e-4 0 1 -8.88609e-5 0 1 8.37817e-5 0 1 -3.13003e-5 0 1 3.20983e-5 0 1 8.25317e-4 0 0.9999998 3.908e-5 0 -1 -9.17733e-6 0 -1 8.20038e-5 0 -1 -2.802e-5 0 -1 0 0 -1 4.14821e-5 0 -1 1.90283e-5 0 -1 1.73633e-4 0 -1 -8.85246e-5 0 -1 6.9012e-5 0 -1 -5.15225e-5 0 -1 7.32842e-5 0 -1 -3.0268e-5 0 -1 4.50759e-5 0 -1 6.5969e-5 0 -1 3.52417e-4 0 -1 -4.05958e-5 0 -1 0 -1 0 0.8967081 0.4426223 0 -0.440937 -0.8975381 0 -0.1949167 0.9808199 0 1.66502e-5 -1 0 0.9725351 0.2327563 0 0.08981233 0.9959588 0 0.194916 0.98082 0 -0.1388813 0.9903091 0 -0.8967154 0.4426077 0 0.970734 0.2401577 0 -0.1649218 0.9863067 0 0.141564 0.9899291 0 -0.1026464 0.994718 0 -1 0 0 0.1653248 0.9862392 0 0.480944 0.8767514 0 0.07319951 0.9973173 0 0.1026468 0.994718 0 -0.1097778 0.9939562 0 0.5777338 0.8162253 0 0.0149073 0.9998889 0 -0.4809499 0.8767482 0 0.9749025 0.2226321 0 0.4045314 0.9145243 0 -0.03472423 0.9993969 0 0.1097782 0.9939562 0 -0.05418223 0.9985311 0 1 0 0 -0.01503372 0.999887 0 0.739113 0.6735814 0 0.01502746 0.9998871 0 -0.5777415 0.8162199 0 0.03160482 0.9995005 0 -0.08982419 0.9959577 0 0.04827505 0.9988341 0 -0.2477947 0.9688127 0 -0.739085 0.6736122 0 -0.07889413 0.9968831 0 0.4377893 -0.8990777 0 0.9657744 0.2593836 0 -0.01502799 0.9998872 0 -0.01070421 0.9999427 0 -0.4045172 0.9145305 0 0.9819935 0.188915 0 0.968105 0.2505448 0 0.01504576 0.9998868 0 0.1790748 0.9838355 0 0.2477924 0.9688133 0 0.9479552 0.318404 0 -0.1790746 0.9838356 0 0.2359024 0.9717767 0 -0.2359019 0.971777 0 -1.67486e-5 0 1 9.17733e-6 0 1 1.82231e-5 0 1 -0.002062857 0 0.999998 9.48162e-5 0 1 -2.66397e-5 0 1 8.58919e-4 0 0.9999997 1.69439e-4 0 1 -1.62295e-4 0 1 6.38035e-5 0 1 2.40439e-5 0 1 -5.66287e-5 0 1 -4.7564e-5 0 1 1.08756e-4 0 1 -2.64188e-5 0 1 9.73242e-5 0 1 0.001746296 0 0.9999985 6.9e-4 0 0.9999998 0.001225054 0 0.9999993 -0.001513123 0 0.9999989 -2.6635e-4 0 1 -4.01027e-4 0 1 -7.7478e-5 0 1 -4.01198e-4 0 1 0.002091467 0 0.9999979 3.28923e-4 0 1 2.43575e-5 0 1 0.001998424 0 -0.9999981 -0.001291871 0 -0.9999992 -4.31137e-4 0 -1 5.43782e-5 0 -1 1.00598e-5 0 -1 -2.5425e-5 0 -1 -1.36943e-4 0 -1 -8.20034e-5 0 -1 1.13762e-5 0 -1 -4.24253e-5 0 -1 -1.91291e-5 0 -1 7.88282e-4 0 -0.9999998 3.17317e-4 0 -1 -9.61149e-5 0 -1 -5.69715e-5 0 -1 5.91227e-5 0 -1 1.60491e-5 0 -1 -1.07795e-4 0 -1 -3.8207e-4 0 -1 -5.15856e-4 0 -1 -0.001140773 0 -0.9999994 -7.5164e-4 0 -0.9999998 7.86983e-4 0 -0.9999997 0.001170337 0 -0.9999994 4.05155e-4 0 -1 0.8967081 0.4426224 0 -0.4409369 -0.8975381 0 -0.1949168 0.9808199 0 0.972536 0.2327527 0 0.08981233 0.9959588 0 0.1949163 0.98082 0 -0.1388811 0.9903091 0 -0.8967067 0.4426252 0 0.970734 0.2401577 0 -0.1026464 0.994718 0 0.1653246 0.9862393 0 0.07319957 0.9973174 0 0.1026468 0.994718 0 -0.1097776 0.9939563 0 0.0149073 0.9998889 0 -0.4809654 0.8767396 0 0.9749045 0.2226235 0 0.4045313 0.9145243 0 -0.03472423 0.9993969 0 0.1097781 0.9939562 0 -0.05418229 0.9985311 0 0.739113 0.6735815 0 0.03160482 0.9995005 0 -0.08982419 0.9959577 0 0.04827505 0.9988341 0 -0.739099 0.6735969 0 -0.07889419 0.9968831 0 0.4377897 -0.8990774 0 -0.01502776 0.9998871 0 -0.01070421 0.9999427 0 -0.404503 0.9145368 0 0.9819963 0.1889005 0 0.179075 0.9838354 0 0.2477935 0.968813 0 0.9479551 0.3184039 0 -0.1790747 0.9838356 0 0.2359027 0.9717767 0 -0.2359016 0.971777 0</float_array>
          <technique_common>
            <accessor source="#Plane_001-mesh-normals-array" count="175" stride="3">
              <param name="X" type="float"/>
              <param name="Y" type="float"/>
              <param name="Z" type="float"/>
            </accessor>
          </technique_common>
        </source>
        <source id="Plane_001-mesh-map-0">
          <float_array id="Plane_001-mesh-map-0-array" count="2952">0.4151484 0.3731126 0.4456235 0.9425132 0.4456235 0.3731126 0.3807509 0.3731125 0.4151485 0.9381386 0.4151484 0.3731126 0.3237233 0.3731126 0.3541984 0.9293892 0.3541984 0.3731126 0.3541984 0.3731126 0.3807509 0.9332009 0.3807509 0.3731125 0.2606329 1 0.262569 0.4188624 0.2606329 0.4194475 0.4456235 0.3731126 0.4760985 0.9468879 0.4760985 0.3731126 0.4760985 0.3731126 0.5010327 0.9504671 0.5010326 0.3731126 0.262569 1 0.264505 0.4184191 0.262569 0.4188624 0.2664411 1 0.2710011 0.4180399 0.2664411 0.4180678 0.2710011 0.4180399 0.2732812 1 0.2732812 0.4180539 0.2755612 0.4181377 0.2921918 0.9748852 0.2921918 0.4180678 0.5979986 0.3731126 0.6284736 0 0.5979986 0 0.5979986 0.3731126 0.6284738 0.9687609 0.6284736 0.3731126 0.5010326 0.3731126 0.5297762 0.9545931 0.5297761 0.3731126 0.5297761 0.3731126 0.5605145 0.9590055 0.5605143 0.3731126 0.5605143 0.3731126 0.5979987 0.9643863 0.5979986 0.3731126 0.3807509 0.3731125 0.4151484 0 0.3807509 0 0.4151484 0.3731126 0.4456235 0 0.4151484 0 0.4456235 0.3731126 0.4760985 0 0.4456235 0 0.4760985 0.3731126 0.5010326 0 0.4760985 0 0.5010326 0.3731126 0.5297761 0 0.5010326 0 0.5297761 0.3731126 0.5605143 0 0.5297761 0 0.5605143 0.3731126 0.5979986 0 0.5605143 0 0.4113705 0.3731126 0.4456235 0.9425132 0.4113706 0.9375963 0.3803583 0.3731125 0.4113706 0.9375963 0.3803583 0.9331445 0.2755612 0.3731126 0.2921918 0.9748852 0.2755612 1 0.3237233 0.3731126 0.2921918 0.9748852 0.2921918 0.3731126 0.3237233 0.3731126 0.3541984 0.9293892 0.3237233 0.9250146 0.3541984 0.3731126 0.3803583 0.9331445 0.3541984 0.9293892 0.3237233 0 0.2921918 0.3731126 0.2921918 0 0.2921918 0 0.2755612 0.3731126 0.2755612 0 0.4456235 0.3731126 0.4760985 0.9468879 0.4456235 0.9425132 0.4760985 0.3731126 0.5065736 0.9512625 0.4760985 0.9468879 0.2586968 0.3731126 0.2570537 1 0.2570537 0.3731126 0.2664411 0 0.264505 0.3731126 0.264505 0 0.2664411 0.3731126 0.264505 1 0.264505 0.3731126 0.2755612 0 0.2732812 0.3731126 0.2732812 0 0.2732812 0.3731126 0.2755612 1 0.2732812 1 0.2586968 0 0.2570537 0.3731126 0.2570537 0 0.262569 0.3731126 0.2606329 1 0.2606329 0.3731126 0.262569 0 0.2606329 0.3731126 0.2606329 0 0.2606329 0 0.2586968 0.3731126 0.2586968 0 0.2606329 0.3731126 0.2586968 1 0.2586968 0.3731126 0.264505 0.3731126 0.262569 1 0.262569 0.3731126 0.264505 0 0.262569 0.3731126 0.262569 0 0.2710011 0.3731126 0.2664411 1 0.2664411 0.3731126 0.2710011 0 0.2664411 0.3731126 0.2664411 0 0.2710011 0.3731126 0.2732812 1 0.2710011 1 0.2732812 0 0.2710011 0.3731126 0.2710011 0 0.6284736 0 0.5979986 0.3731126 0.5979986 0 0.5979986 0.3731126 0.6284738 0.9687609 0.5979987 0.9643863 0.5065736 0.3731126 0.5370487 0.955637 0.5065736 0.9512625 0.5370486 0.3731126 0.5675237 0.9600117 0.5370487 0.955637 0.5675236 0.3731126 0.5979987 0.9643863 0.5675237 0.9600117 0.3541983 0 0.3237233 0.3731126 0.3237233 0 0.3803583 0 0.3541984 0.3731126 0.3541983 0 0.4113705 0 0.3803583 0.3731125 0.3803583 0 0.4456235 0 0.4113705 0.3731126 0.4113705 0 0.4760985 0 0.4456235 0.3731126 0.4456235 0 0.5065735 0 0.4760985 0.3731126 0.4760985 0 0.5370486 0 0.5065736 0.3731126 0.5065735 0 0.5675236 0 0.5370486 0.3731126 0.5370486 0 0.5979986 0 0.5675236 0.3731126 0.5675236 0 0.2404686 1 0.245552 0.4563571 0.2404686 0.5023917 0.245552 1 0.2521244 0.4321401 0.245552 0.4563571 0.2521244 1 0.2554106 0.4243987 0.2521244 0.4321401 0.2554106 1 0.2570537 0.4219317 0.2554106 0.4243987 0.2353853 0.8948419 0.2364019 0.5991135 0.2353852 0.6207762 0.2586968 1 0.2606329 0.4194475 0.2586968 0.4203846 0.2570537 1 0.2586968 0.4203846 0.2570537 0.4219317 0.264505 1 0.2664411 0.4180678 0.264505 0.4184191 0.2732812 0.4180539 0.2755612 1 0.2755612 0.4181377 0.2921918 0.4180678 0.3237233 0.9250146 0.3237233 0.3731126 0.2324874 0.7156416 0.2353853 0.8948419 0.2353852 0.6207762 0.2364019 1 0.2404686 0.5023917 0.2364019 0.5991135 0.4151484 0.3731126 0.4456235 0.9425132 0.4151485 0.9381386 0.3807509 0.3731125 0.4151485 0.9381386 0.3807509 0.9332009 0.3237233 0.3731126 0.3541984 0.9293892 0.3237233 0.9250146 0.3541984 0.3731126 0.3807509 0.9332009 0.3541984 0.9293892 0.262569 0.4188624 0.2606329 1 0.2606329 0.4194475 0.4456235 0.3731126 0.4760985 0.9468879 0.4456235 0.9425132 0.4760985 0.3731126 0.5010327 0.9504671 0.4760985 0.9468879 0.264505 0.4184191 0.262569 1 0.262569 0.4188624 0.2710011 0.4180399 0.2664411 1 0.2664411 0.4180678 0.2710011 0.4180399 0.2732812 1 0.2710011 1 0.2755612 0.4181377 0.2921918 0.9748852 0.2755612 1 0.6284736 0 0.5979986 0.3731126 0.5979986 0 0.5979986 0.3731126 0.6284738 0.9687609 0.5979987 0.9643863 0.5010326 0.3731126 0.5297762 0.9545931 0.5010327 0.9504671 0.5297761 0.3731126 0.5605145 0.9590055 0.5297762 0.9545931 0.5605143 0.3731126 0.5979987 0.9643863 0.5605145 0.9590055 0.4151484 0 0.3807509 0.3731125 0.3807509 0 0.4456235 0 0.4151484 0.3731126 0.4151484 0 0.4760985 0 0.4456235 0.3731126 0.4456235 0 0.5010326 0 0.4760985 0.3731126 0.4760985 0 0.5297761 0 0.5010326 0.3731126 0.5010326 0 0.5605143 0 0.5297761 0.3731126 0.5297761 0 0.5979986 0 0.5605143 0.3731126 0.5605143 0 0.4113705 0.3731126 0.4456235 0.9425132 0.4456235 0.3731126 0.3803583 0.3731125 0.4113706 0.9375963 0.4113705 0.3731126 0.2755612 0.3731126 0.2921918 0.9748852 0.2921918 0.3731126 0.2921918 0.9748852 0.3237233 0.3731126 0.2921918 0.3731126 0.3237233 0.3731126 0.3541984 0.9293892 0.3541984 0.3731126 0.3541984 0.3731126 0.3803583 0.9331445 0.3803583 0.3731125 0.2921918 0.3731126 0.3237233 0 0.2921918 0 0.2755612 0.3731126 0.2921918 0 0.2755612 0 0.4456235 0.3731126 0.4760985 0.9468879 0.4760985 0.3731126 0.4760985 0.3731126 0.5065736 0.9512625 0.5065736 0.3731126 0.2570537 1 0.2586968 0.3731126 0.2570537 0.3731126 0.264505 0.3731126 0.2664411 0 0.264505 0 0.264505 1 0.2664411 0.3731126 0.264505 0.3731126 0.2732812 0.3731126 0.2755612 0 0.2732812 0 0.2732812 0.3731126 0.2755612 1 0.2755612 0.3731126 0.2570537 0.3731126 0.2586968 0 0.2570537 0 0.2606329 1 0.262569 0.3731126 0.2606329 0.3731126 0.2606329 0.3731126 0.262569 0 0.2606329 0 0.2586968 0.3731126 0.2606329 0 0.2586968 0 0.2586968 1 0.2606329 0.3731126 0.2586968 0.3731126 0.262569 1 0.264505 0.3731126 0.262569 0.3731126 0.262569 0.3731126 0.264505 0 0.262569 0 0.2664411 1 0.2710011 0.3731126 0.2664411 0.3731126 0.2664411 0.3731126 0.2710011 0 0.2664411 0 0.2710011 0.3731126 0.2732812 1 0.2732812 0.3731126 0.2710011 0.3731126 0.2732812 0 0.2710011 0 0.5979986 0.3731126 0.6284736 0 0.5979986 0 0.5979986 0.3731126 0.6284738 0.9687609 0.6284736 0.3731126 0.5065736 0.3731126 0.5370487 0.955637 0.5370486 0.3731126 0.5370486 0.3731126 0.5675237 0.9600117 0.5675236 0.3731126 0.5675236 0.3731126 0.5979987 0.9643863 0.5979986 0.3731126 0.3237233 0.3731126 0.3541983 0 0.3237233 0 0.3541984 0.3731126 0.3803583 0 0.3541983 0 0.3803583 0.3731125 0.4113705 0 0.3803583 0 0.4113705 0.3731126 0.4456235 0 0.4113705 0 0.4456235 0.3731126 0.4760985 0 0.4456235 0 0.4760985 0.3731126 0.5065735 0 0.4760985 0 0.5065736 0.3731126 0.5370486 0 0.5065735 0 0.5370486 0.3731126 0.5675236 0 0.5370486 0 0.5675236 0.3731126 0.5979986 0 0.5675236 0 0.245552 0.4563571 0.2404686 1 0.2404686 0.5023917 0.2521244 0.4321401 0.245552 1 0.245552 0.4563571 0.2554106 0.4243987 0.2521244 1 0.2521244 0.4321401 0.2570537 0.4219317 0.2554106 1 0.2554106 0.4243987 0.2364019 0.5991135 0.2353853 0.8948419 0.2353852 0.6207762 0.2606329 0.4194475 0.2586968 1 0.2586968 0.4203846 0.2586968 0.4203846 0.2570537 1 0.2570537 0.4219317 0.2664411 0.4180678 0.264505 1 0.264505 0.4184191 0.2732812 0.4180539 0.2755612 1 0.2732812 1 0.2921918 0.4180678 0.3237233 0.9250146 0.2921918 0.9748852 0.2324874 0.7156416 0.2353852 0.6207762 0.2353853 0.8948419 0.2404686 0.5023917 0.2364019 1 0.2364019 0.5991135 0.2755612 0 0.2921918 0 0.2921918 0 0.2521244 0.4321401 0.245552 0.4563571 0.245552 0.4563571 0.5297761 0 0.5010326 0 0.5010326 0 0.2570537 1 0.2586968 1 0.2586968 1 0.2554106 0.4243987 0.2521244 0.4321401 0.2521244 0.4321401 0.5605143 0 0.5297761 0 0.5297761 0 0.2710011 0 0.2732812 0 0.2732812 0 0.3237233 0.9250146 0.3541984 0.9293892 0.3541984 0.9293892 0.2921918 0 0.3237233 0 0.3237233 0 0.2570537 0.4219317 0.2554106 0.4243987 0.2554106 0.4243987 0.5979986 0 0.5605143 0 0.5605143 0 0.2404686 1 0.245552 1 0.245552 1 0.2755612 1 0.2732812 1 0.2732812 1 0.3541984 0.9293892 0.3237233 0.9250146 0.3237233 0.9250146 0.2364019 0.5991135 0.2353852 0.6207762 0.2353852 0.6207762 0.4151485 0.9381386 0.4456235 0.9425132 0.4456235 0.9425132 0.2586968 1 0.2570537 1 0.2570537 1 0.2606329 0.4194475 0.2586968 0.4203846 0.2586968 0.4203846 0.2364019 1 0.2404686 1 0.2404686 1 0.3807509 0.9332009 0.4151485 0.9381386 0.4151485 0.9381386 0.4456235 0.9425132 0.4113706 0.9375963 0.4113706 0.9375963 0.2586968 0.4203846 0.2570537 0.4219317 0.2570537 0.4219317 0.4760985 0.9468879 0.5010327 0.9504671 0.5010327 0.9504671 0.2570537 0.3731126 0.2570537 0 0.2570537 0 0.4113706 0.9375963 0.3803583 0.9331445 0.3803583 0.9331445 0.2664411 0.4180678 0.264505 0.4184191 0.264505 0.4184191 0.262569 1 0.264505 1 0.264505 1 0.5370487 0.955637 0.5065736 0.9512625 0.5065736 0.9512625 0.2570537 1 0.2570537 0.3731126 0.2570537 0.3731126 0.5065736 0.9512625 0.4760985 0.9468879 0.4760985 0.9468879 0.2755612 0.4181377 0.2732812 0.4180539 0.2732812 0.4180539 0.5979986 0 0.6284736 0 0.6284736 0 0.4456235 0.9425132 0.4760985 0.9468879 0.4760985 0.9468879 0.3237233 0.3731126 0.2921918 0.4180678 0.2921918 0.4180678 0.2606329 1 0.262569 1 0.262569 1 0.6284738 0.9687609 0.5979987 0.9643863 0.5979987 0.9643863 0.3541984 0.3731126 0.3237233 0.3731126 0.3237233 0.3731126 0.264505 1 0.262569 1 0.262569 1 0.2353852 0.6207762 0.2324874 0.7156416 0.2324874 0.7156416 0.2324874 0.7156416 0.2353853 0.8948419 0.2353853 0.8948419 0.2606329 0 0.262569 0 0.262569 0 0.2404686 0.5023917 0.2364019 0.5991135 0.2364019 0.5991135 0.264505 1 0.2664411 1 0.2664411 1 0.5605145 0.9590055 0.5979987 0.9643863 0.5979987 0.9643863 0.4760985 0.9468879 0.4456235 0.9425132 0.4456235 0.9425132 0.5297762 0.9545931 0.5605145 0.9590055 0.5605145 0.9590055 0.3807509 0 0.3807509 0.3731125 0.3807509 0.3731125 0.2710011 1 0.2732812 1 0.2732812 1 0.2586968 1 0.2606329 1 0.2606329 1 0.2664411 1 0.2710011 1 0.2710011 1 0.262569 1 0.2606329 1 0.2606329 1 0.5979987 0.9643863 0.5675237 0.9600117 0.5675237 0.9600117 0.2732812 1 0.2755612 1 0.2755612 1 0.2586968 0 0.2606329 0 0.2606329 0 0.5675237 0.9600117 0.5370487 0.955637 0.5370487 0.955637 0.2755612 1 0.2921918 0.9748852 0.2921918 0.9748852 0.2606329 1 0.2586968 1 0.2586968 1 0.5010327 0.9504671 0.5297762 0.9545931 0.5297762 0.9545931 0.3237233 0 0.3541983 0 0.3541983 0 0.2570537 0 0.2586968 0 0.2586968 0 0.3541983 0 0.3803583 0 0.3803583 0 0.262569 0 0.264505 0 0.264505 0 0.264505 0 0.2664411 0 0.2664411 0 0.6284736 0 0.5979986 0 0.5979986 0 0.3803583 0 0.4113705 0 0.4113705 0 0.245552 1 0.2521244 1 0.2521244 1 0.2710011 1 0.2664411 1 0.2664411 1 0.5979987 0.9643863 0.6284738 0.9687609 0.6284738 0.9687609 0.4113705 0 0.4456235 0 0.4456235 0 0.2664411 1 0.264505 1 0.264505 1 0.262569 0.4188624 0.2606329 0.4194475 0.2606329 0.4194475 0.4456235 0 0.4760985 0 0.4760985 0 0.2353853 0.8948419 0.2364019 1 0.2364019 1 0.2921918 0.4180678 0.2755612 0.4181377 0.2755612 0.4181377 0.3807509 0.3731125 0.3541984 0.3731126 0.3541984 0.3731126 0.4760985 0 0.5065735 0 0.5065735 0 0.2710011 0.4180399 0.2664411 0.4180678 0.2664411 0.4180678 0.4151484 0 0.3807509 0 0.3807509 0 0.5065735 0 0.5370486 0 0.5370486 0 0.2521244 1 0.2554106 1 0.2554106 1 0.2732812 1 0.2710011 1 0.2710011 1 0.2732812 0 0.2755612 0 0.2755612 0 0.3803583 0.9331445 0.3541984 0.9293892 0.3541984 0.9293892 0.2732812 0.4180539 0.2710011 0.4180399 0.2710011 0.4180399 0.4456235 0 0.4151484 0 0.4151484 0 0.5370486 0 0.5675236 0 0.5675236 0 0.2921918 0.9748852 0.2755612 1 0.2755612 1 0.264505 0.4184191 0.262569 0.4188624 0.262569 0.4188624 0.4760985 0 0.4456235 0 0.4456235 0 0.5675236 0 0.5979986 0 0.5979986 0 0.2554106 1 0.2570537 1 0.2570537 1 0.2664411 0 0.2710011 0 0.2710011 0 0.3541984 0.9293892 0.3807509 0.9332009 0.3807509 0.9332009 0.3237233 0.9250146 0.2921918 0.9748852 0.2921918 0.9748852 0.245552 0.4563571 0.2404686 0.5023917 0.2404686 0.5023917 0.5010326 0 0.4760985 0 0.4760985 0 0.2921918 0.9748852 0.3237233 0.9250146 0.3237233 0.9250146 0.4151484 0.3731126 0.4151485 0.9381386 0.4456235 0.9425132 0.3807509 0.3731125 0.3807509 0.9332009 0.4151485 0.9381386 0.3237233 0.3731126 0.3237233 0.9250146 0.3541984 0.9293892 0.3541984 0.3731126 0.3541984 0.9293892 0.3807509 0.9332009 0.2606329 1 0.262569 1 0.262569 0.4188624 0.4456235 0.3731126 0.4456235 0.9425132 0.4760985 0.9468879 0.4760985 0.3731126 0.4760985 0.9468879 0.5010327 0.9504671 0.262569 1 0.264505 1 0.264505 0.4184191 0.2664411 1 0.2710011 1 0.2710011 0.4180399 0.2710011 0.4180399 0.2710011 1 0.2732812 1 0.2755612 0.4181377 0.2755612 1 0.2921918 0.9748852 0.5979986 0.3731126 0.6284736 0.3731126 0.6284736 0 0.5979986 0.3731126 0.5979987 0.9643863 0.6284738 0.9687609 0.5010326 0.3731126 0.5010327 0.9504671 0.5297762 0.9545931 0.5297761 0.3731126 0.5297762 0.9545931 0.5605145 0.9590055 0.5605143 0.3731126 0.5605145 0.9590055 0.5979987 0.9643863 0.3807509 0.3731125 0.4151484 0.3731126 0.4151484 0 0.4151484 0.3731126 0.4456235 0.3731126 0.4456235 0 0.4456235 0.3731126 0.4760985 0.3731126 0.4760985 0 0.4760985 0.3731126 0.5010326 0.3731126 0.5010326 0 0.5010326 0.3731126 0.5297761 0.3731126 0.5297761 0 0.5297761 0.3731126 0.5605143 0.3731126 0.5605143 0 0.5605143 0.3731126 0.5979986 0.3731126 0.5979986 0 0.4113705 0.3731126 0.4456235 0.3731126 0.4456235 0.9425132 0.3803583 0.3731125 0.4113705 0.3731126 0.4113706 0.9375963 0.2755612 0.3731126 0.2921918 0.3731126 0.2921918 0.9748852 0.3237233 0.3731126 0.3237233 0.9250146 0.2921918 0.9748852 0.3237233 0.3731126 0.3541984 0.3731126 0.3541984 0.9293892 0.3541984 0.3731126 0.3803583 0.3731125 0.3803583 0.9331445 0.3237233 0 0.3237233 0.3731126 0.2921918 0.3731126 0.2921918 0 0.2921918 0.3731126 0.2755612 0.3731126 0.4456235 0.3731126 0.4760985 0.3731126 0.4760985 0.9468879 0.4760985 0.3731126 0.5065736 0.3731126 0.5065736 0.9512625 0.2586968 0.3731126 0.2586968 1 0.2570537 1 0.2664411 0 0.2664411 0.3731126 0.264505 0.3731126 0.2664411 0.3731126 0.2664411 1 0.264505 1 0.2755612 0 0.2755612 0.3731126 0.2732812 0.3731126 0.2732812 0.3731126 0.2755612 0.3731126 0.2755612 1 0.2586968 0 0.2586968 0.3731126 0.2570537 0.3731126 0.262569 0.3731126 0.262569 1 0.2606329 1 0.262569 0 0.262569 0.3731126 0.2606329 0.3731126 0.2606329 0 0.2606329 0.3731126 0.2586968 0.3731126 0.2606329 0.3731126 0.2606329 1 0.2586968 1 0.264505 0.3731126 0.264505 1 0.262569 1 0.264505 0 0.264505 0.3731126 0.262569 0.3731126 0.2710011 0.3731126 0.2710011 1 0.2664411 1 0.2710011 0 0.2710011 0.3731126 0.2664411 0.3731126 0.2710011 0.3731126 0.2732812 0.3731126 0.2732812 1 0.2732812 0 0.2732812 0.3731126 0.2710011 0.3731126 0.6284736 0 0.6284736 0.3731126 0.5979986 0.3731126 0.5979986 0.3731126 0.6284736 0.3731126 0.6284738 0.9687609 0.5065736 0.3731126 0.5370486 0.3731126 0.5370487 0.955637 0.5370486 0.3731126 0.5675236 0.3731126 0.5675237 0.9600117 0.5675236 0.3731126 0.5979986 0.3731126 0.5979987 0.9643863 0.3541983 0 0.3541984 0.3731126 0.3237233 0.3731126 0.3803583 0 0.3803583 0.3731125 0.3541984 0.3731126 0.4113705 0 0.4113705 0.3731126 0.3803583 0.3731125 0.4456235 0 0.4456235 0.3731126 0.4113705 0.3731126 0.4760985 0 0.4760985 0.3731126 0.4456235 0.3731126 0.5065735 0 0.5065736 0.3731126 0.4760985 0.3731126 0.5370486 0 0.5370486 0.3731126 0.5065736 0.3731126 0.5675236 0 0.5675236 0.3731126 0.5370486 0.3731126 0.5979986 0 0.5979986 0.3731126 0.5675236 0.3731126 0.2404686 1 0.245552 1 0.245552 0.4563571 0.245552 1 0.2521244 1 0.2521244 0.4321401 0.2521244 1 0.2554106 1 0.2554106 0.4243987 0.2554106 1 0.2570537 1 0.2570537 0.4219317 0.2353853 0.8948419 0.2364019 1 0.2364019 0.5991135 0.2586968 1 0.2606329 1 0.2606329 0.4194475 0.2570537 1 0.2586968 1 0.2586968 0.4203846 0.264505 1 0.2664411 1 0.2664411 0.4180678 0.2732812 0.4180539 0.2732812 1 0.2755612 1 0.2921918 0.4180678 0.2921918 0.9748852 0.3237233 0.9250146 0.2364019 1 0.2404686 1 0.2404686 0.5023917 0.4151484 0.3731126 0.4456235 0.3731126 0.4456235 0.9425132 0.3807509 0.3731125 0.4151484 0.3731126 0.4151485 0.9381386 0.3237233 0.3731126 0.3541984 0.3731126 0.3541984 0.9293892 0.3541984 0.3731126 0.3807509 0.3731125 0.3807509 0.9332009 0.262569 0.4188624 0.262569 1 0.2606329 1 0.4456235 0.3731126 0.4760985 0.3731126 0.4760985 0.9468879 0.4760985 0.3731126 0.5010326 0.3731126 0.5010327 0.9504671 0.264505 0.4184191 0.264505 1 0.262569 1 0.2710011 0.4180399 0.2710011 1 0.2664411 1 0.2710011 0.4180399 0.2732812 0.4180539 0.2732812 1 0.2755612 0.4181377 0.2921918 0.4180678 0.2921918 0.9748852 0.6284736 0 0.6284736 0.3731126 0.5979986 0.3731126 0.5979986 0.3731126 0.6284736 0.3731126 0.6284738 0.9687609 0.5010326 0.3731126 0.5297761 0.3731126 0.5297762 0.9545931 0.5297761 0.3731126 0.5605143 0.3731126 0.5605145 0.9590055 0.5605143 0.3731126 0.5979986 0.3731126 0.5979987 0.9643863 0.4151484 0 0.4151484 0.3731126 0.3807509 0.3731125 0.4456235 0 0.4456235 0.3731126 0.4151484 0.3731126 0.4760985 0 0.4760985 0.3731126 0.4456235 0.3731126 0.5010326 0 0.5010326 0.3731126 0.4760985 0.3731126 0.5297761 0 0.5297761 0.3731126 0.5010326 0.3731126 0.5605143 0 0.5605143 0.3731126 0.5297761 0.3731126 0.5979986 0 0.5979986 0.3731126 0.5605143 0.3731126 0.4113705 0.3731126 0.4113706 0.9375963 0.4456235 0.9425132 0.3803583 0.3731125 0.3803583 0.9331445 0.4113706 0.9375963 0.2755612 0.3731126 0.2755612 1 0.2921918 0.9748852 0.2921918 0.9748852 0.3237233 0.9250146 0.3237233 0.3731126 0.3237233 0.3731126 0.3237233 0.9250146 0.3541984 0.9293892 0.3541984 0.3731126 0.3541984 0.9293892 0.3803583 0.9331445 0.2921918 0.3731126 0.3237233 0.3731126 0.3237233 0 0.2755612 0.3731126 0.2921918 0.3731126 0.2921918 0 0.4456235 0.3731126 0.4456235 0.9425132 0.4760985 0.9468879 0.4760985 0.3731126 0.4760985 0.9468879 0.5065736 0.9512625 0.2570537 1 0.2586968 1 0.2586968 0.3731126 0.264505 0.3731126 0.2664411 0.3731126 0.2664411 0 0.264505 1 0.2664411 1 0.2664411 0.3731126 0.2732812 0.3731126 0.2755612 0.3731126 0.2755612 0 0.2732812 0.3731126 0.2732812 1 0.2755612 1 0.2570537 0.3731126 0.2586968 0.3731126 0.2586968 0 0.2606329 1 0.262569 1 0.262569 0.3731126 0.2606329 0.3731126 0.262569 0.3731126 0.262569 0 0.2586968 0.3731126 0.2606329 0.3731126 0.2606329 0 0.2586968 1 0.2606329 1 0.2606329 0.3731126 0.262569 1 0.264505 1 0.264505 0.3731126 0.262569 0.3731126 0.264505 0.3731126 0.264505 0 0.2664411 1 0.2710011 1 0.2710011 0.3731126 0.2664411 0.3731126 0.2710011 0.3731126 0.2710011 0 0.2710011 0.3731126 0.2710011 1 0.2732812 1 0.2710011 0.3731126 0.2732812 0.3731126 0.2732812 0 0.5979986 0.3731126 0.6284736 0.3731126 0.6284736 0 0.5979986 0.3731126 0.5979987 0.9643863 0.6284738 0.9687609 0.5065736 0.3731126 0.5065736 0.9512625 0.5370487 0.955637 0.5370486 0.3731126 0.5370487 0.955637 0.5675237 0.9600117 0.5675236 0.3731126 0.5675237 0.9600117 0.5979987 0.9643863 0.3237233 0.3731126 0.3541984 0.3731126 0.3541983 0 0.3541984 0.3731126 0.3803583 0.3731125 0.3803583 0 0.3803583 0.3731125 0.4113705 0.3731126 0.4113705 0 0.4113705 0.3731126 0.4456235 0.3731126 0.4456235 0 0.4456235 0.3731126 0.4760985 0.3731126 0.4760985 0 0.4760985 0.3731126 0.5065736 0.3731126 0.5065735 0 0.5065736 0.3731126 0.5370486 0.3731126 0.5370486 0 0.5370486 0.3731126 0.5675236 0.3731126 0.5675236 0 0.5675236 0.3731126 0.5979986 0.3731126 0.5979986 0 0.245552 0.4563571 0.245552 1 0.2404686 1 0.2521244 0.4321401 0.2521244 1 0.245552 1 0.2554106 0.4243987 0.2554106 1 0.2521244 1 0.2570537 0.4219317 0.2570537 1 0.2554106 1 0.2364019 0.5991135 0.2364019 1 0.2353853 0.8948419 0.2606329 0.4194475 0.2606329 1 0.2586968 1 0.2586968 0.4203846 0.2586968 1 0.2570537 1 0.2664411 0.4180678 0.2664411 1 0.264505 1 0.2732812 0.4180539 0.2755612 0.4181377 0.2755612 1 0.2921918 0.4180678 0.3237233 0.3731126 0.3237233 0.9250146 0.2404686 0.5023917 0.2404686 1 0.2364019 1 0.2755612 0 0.2755612 0 0.2921918 0 0.2521244 0.4321401 0.2521244 0.4321401 0.245552 0.4563571 0.5297761 0 0.5297761 0 0.5010326 0 0.2570537 1 0.2570537 1 0.2586968 1 0.2554106 0.4243987 0.2554106 0.4243987 0.2521244 0.4321401 0.5605143 0 0.5605143 0 0.5297761 0 0.2710011 0 0.2710011 0 0.2732812 0 0.3237233 0.9250146 0.3237233 0.9250146 0.3541984 0.9293892 0.2921918 0 0.2921918 0 0.3237233 0 0.2570537 0.4219317 0.2570537 0.4219317 0.2554106 0.4243987 0.5979986 0 0.5979986 0 0.5605143 0 0.2404686 1 0.2404686 1 0.245552 1 0.2755612 1 0.2755612 1 0.2732812 1 0.3541984 0.9293892 0.3541984 0.9293892 0.3237233 0.9250146 0.2364019 0.5991135 0.2364019 0.5991135 0.2353852 0.6207762 0.4151485 0.9381386 0.4151485 0.9381386 0.4456235 0.9425132 0.2586968 1 0.2586968 1 0.2570537 1 0.2606329 0.4194475 0.2606329 0.4194475 0.2586968 0.4203846 0.2364019 1 0.2364019 1 0.2404686 1 0.3807509 0.9332009 0.3807509 0.9332009 0.4151485 0.9381386 0.4456235 0.9425132 0.4456235 0.9425132 0.4113706 0.9375963 0.2586968 0.4203846 0.2586968 0.4203846 0.2570537 0.4219317 0.4760985 0.9468879 0.4760985 0.9468879 0.5010327 0.9504671 0.2570537 0.3731126 0.2570537 0.3731126 0.2570537 0 0.4113706 0.9375963 0.4113706 0.9375963 0.3803583 0.9331445 0.2664411 0.4180678 0.2664411 0.4180678 0.264505 0.4184191 0.262569 1 0.262569 1 0.264505 1 0.5370487 0.955637 0.5370487 0.955637 0.5065736 0.9512625 0.2570537 1 0.2570537 1 0.2570537 0.3731126 0.5065736 0.9512625 0.5065736 0.9512625 0.4760985 0.9468879 0.2755612 0.4181377 0.2755612 0.4181377 0.2732812 0.4180539 0.5979986 0 0.5979986 0 0.6284736 0 0.4456235 0.9425132 0.4456235 0.9425132 0.4760985 0.9468879 0.3237233 0.3731126 0.3237233 0.3731126 0.2921918 0.4180678 0.2606329 1 0.2606329 1 0.262569 1 0.6284738 0.9687609 0.6284738 0.9687609 0.5979987 0.9643863 0.3541984 0.3731126 0.3541984 0.3731126 0.3237233 0.3731126 0.264505 1 0.264505 1 0.262569 1 0.2353852 0.6207762 0.2353852 0.6207762 0.2324874 0.7156416 0.2324874 0.7156416 0.2324874 0.7156416 0.2353853 0.8948419 0.2606329 0 0.2606329 0 0.262569 0 0.2404686 0.5023917 0.2404686 0.5023917 0.2364019 0.5991135 0.264505 1 0.264505 1 0.2664411 1 0.5605145 0.9590055 0.5605145 0.9590055 0.5979987 0.9643863 0.4760985 0.9468879 0.4760985 0.9468879 0.4456235 0.9425132 0.5297762 0.9545931 0.5297762 0.9545931 0.5605145 0.9590055 0.3807509 0 0.3807509 0 0.3807509 0.3731125 0.2710011 1 0.2710011 1 0.2732812 1 0.2586968 1 0.2586968 1 0.2606329 1 0.2664411 1 0.2664411 1 0.2710011 1 0.262569 1 0.262569 1 0.2606329 1 0.5979987 0.9643863 0.5979987 0.9643863 0.5675237 0.9600117 0.2732812 1 0.2732812 1 0.2755612 1 0.2586968 0 0.2586968 0 0.2606329 0 0.5675237 0.9600117 0.5675237 0.9600117 0.5370487 0.955637 0.2755612 1 0.2755612 1 0.2921918 0.9748852 0.2606329 1 0.2606329 1 0.2586968 1 0.5010327 0.9504671 0.5010327 0.9504671 0.5297762 0.9545931 0.3237233 0 0.3237233 0 0.3541983 0 0.2570537 0 0.2570537 0 0.2586968 0 0.3541983 0 0.3541983 0 0.3803583 0 0.262569 0 0.262569 0 0.264505 0 0.264505 0 0.264505 0 0.2664411 0 0.6284736 0 0.6284736 0 0.5979986 0 0.3803583 0 0.3803583 0 0.4113705 0 0.245552 1 0.245552 1 0.2521244 1 0.2710011 1 0.2710011 1 0.2664411 1 0.5979987 0.9643863 0.5979987 0.9643863 0.6284738 0.9687609 0.4113705 0 0.4113705 0 0.4456235 0 0.2664411 1 0.2664411 1 0.264505 1 0.262569 0.4188624 0.262569 0.4188624 0.2606329 0.4194475 0.4456235 0 0.4456235 0 0.4760985 0 0.2353853 0.8948419 0.2353853 0.8948419 0.2364019 1 0.2921918 0.4180678 0.2921918 0.4180678 0.2755612 0.4181377 0.3807509 0.3731125 0.3807509 0.3731125 0.3541984 0.3731126 0.4760985 0 0.4760985 0 0.5065735 0 0.2710011 0.4180399 0.2710011 0.4180399 0.2664411 0.4180678 0.4151484 0 0.4151484 0 0.3807509 0 0.5065735 0 0.5065735 0 0.5370486 0 0.2521244 1 0.2521244 1 0.2554106 1 0.2732812 1 0.2732812 1 0.2710011 1 0.2732812 0 0.2732812 0 0.2755612 0 0.3803583 0.9331445 0.3803583 0.9331445 0.3541984 0.9293892 0.2732812 0.4180539 0.2732812 0.4180539 0.2710011 0.4180399 0.4456235 0 0.4456235 0 0.4151484 0 0.5370486 0 0.5370486 0 0.5675236 0 0.2921918 0.9748852 0.2921918 0.9748852 0.2755612 1 0.264505 0.4184191 0.264505 0.4184191 0.262569 0.4188624 0.4760985 0 0.4760985 0 0.4456235 0 0.5675236 0 0.5675236 0 0.5979986 0 0.2554106 1 0.2554106 1 0.2570537 1 0.2664411 0 0.2664411 0 0.2710011 0 0.3541984 0.9293892 0.3541984 0.9293892 0.3807509 0.9332009 0.3237233 0.9250146 0.3237233 0.9250146 0.2921918 0.9748852 0.245552 0.4563571 0.245552 0.4563571 0.2404686 0.5023917 0.5010326 0 0.5010326 0 0.4760985 0 0.2921918 0.9748852 0.2921918 0.9748852 0.3237233 0.9250146</float_array>
          <technique_common>
            <accessor source="#Plane_001-mesh-map-0-array" count="1476" stride="2">
              <param name="S" type="float"/>
              <param name="T" type="float"/>
            </accessor>
          </technique_common>
        </source>
        <vertices id="Plane_001-mesh-vertices">
          <input semantic="POSITION" source="#Plane_001-mesh-positions"/>
        </vertices>
        <triangles material="gora_dol-material" count="298">
          <input semantic="VERTEX" source="#Plane_001-mesh-vertices" offset="0"/>
          <input semantic="NORMAL" source="#Plane_001-mesh-normals" offset="1"/>
          <input semantic="TEXCOORD" source="#Plane_001-mesh-map-0" offset="2" set="0"/>
          <p>40 0 0 2 0 1 39 0 2 41 0 3 31 0 4 40 0 5 10 0 6 33 0 7 42 0 8 42 0 9 32 0 10 41 0 11 27 0 12 121 0 13 119 0 14 39 0 15 3 0 16 38 0 17 38 0 18 6 0 19 37 0 20 26 0 21 12 0 22 121 0 23 14 0 24 13 0 25 118 0 26 13 0 27 30 0 28 123 0 29 116 0 30 4 0 31 115 0 32 34 0 33 91 0 34 50 0 35 34 0 36 90 0 37 92 0 38 37 0 39 7 0 40 36 0 41 36 0 42 9 0 43 35 0 44 35 0 45 11 0 46 34 0 47 41 0 48 44 0 49 43 0 50 40 0 51 45 0 52 44 0 53 39 0 54 46 0 55 45 0 56 38 0 57 47 0 58 46 0 59 37 0 60 48 0 61 47 0 62 36 1 63 49 1 64 48 1 65 35 0 66 50 0 67 49 0 68 102 2 69 52 2 70 93 2 71 103 3 72 93 3 73 94 3 74 70 4 75 54 4 76 69 4 77 62 0 78 54 0 79 61 0 80 62 5 81 95 5 82 57 5 83 104 6 84 94 6 85 95 6 86 56 0 87 61 0 88 55 0 89 55 0 90 70 0 91 68 0 92 101 0 93 53 0 94 52 0 95 100 7 96 58 7 97 53 7 98 71 0 99 73 0 100 74 0 101 65 0 102 82 0 103 81 0 104 67 0 105 83 0 106 82 0 107 68 0 108 89 0 109 87 0 110 89 8 111 69 8 112 88 8 113 64 0 114 74 0 115 72 0 116 75 0 117 79 0 118 78 0 119 77 0 120 78 0 121 80 0 122 80 0 123 71 0 124 64 0 125 78 0 126 51 0 127 71 0 128 82 0 129 76 0 130 75 0 131 81 0 132 75 0 133 77 0 134 85 0 135 66 0 136 67 0 137 86 0 138 67 0 139 65 0 140 85 9 141 88 9 142 84 9 143 87 0 144 85 0 145 86 0 146 91 0 147 96 0 148 113 0 149 96 10 150 90 10 151 63 10 152 99 11 153 59 11 154 58 11 155 98 12 156 60 12 157 59 12 158 97 13 159 63 13 160 60 13 161 105 0 162 62 0 163 56 0 164 106 0 165 104 0 166 105 0 167 107 0 168 103 0 169 106 0 170 108 0 171 102 0 172 107 0 173 109 0 174 101 0 175 108 0 176 110 0 177 100 0 178 109 0 179 111 0 180 99 0 181 110 0 182 112 0 183 98 0 184 111 0 185 113 0 186 97 0 187 112 0 188 24 0 189 8 0 190 18 0 191 16 0 192 122 0 193 8 0 194 21 0 195 120 0 196 122 0 197 22 14 198 114 14 199 120 14 200 17 0 201 19 0 202 20 0 203 1 0 204 119 0 205 0 0 206 23 0 207 0 0 208 114 0 209 28 0 210 118 0 211 12 0 212 123 0 213 15 0 214 116 0 215 115 0 216 5 0 217 10 0 218 117 0 219 17 0 220 20 0 221 25 0 222 18 0 223 19 0 224 164 15 225 126 15 226 155 15 227 165 16 228 155 16 229 156 16 230 134 17 231 157 17 232 129 17 233 166 18 234 156 18 235 157 18 236 245 19 237 151 19 238 243 19 239 163 20 240 127 20 241 126 20 242 162 21 243 130 21 244 127 21 245 136 19 246 150 19 247 245 19 248 137 19 249 138 19 250 242 19 251 137 22 252 154 22 253 153 22 254 240 23 255 128 23 256 139 23 257 215 19 258 158 19 259 174 19 260 158 24 261 214 24 262 135 24 263 161 25 264 131 25 265 130 25 266 160 26 267 133 26 268 131 26 269 159 27 270 135 27 271 133 27 272 168 19 273 165 19 274 167 19 275 169 19 276 164 19 277 168 19 278 170 19 279 163 19 280 169 19 281 171 19 282 162 19 283 170 19 284 172 19 285 161 19 286 171 19 287 173 19 288 160 19 289 172 19 290 174 19 291 159 19 292 173 19 293 226 19 294 176 19 295 225 19 296 227 19 297 217 19 298 226 19 299 194 19 300 178 19 301 185 19 302 178 28 303 186 28 304 185 28 305 186 19 306 219 19 307 228 19 308 228 19 309 218 19 310 227 19 311 185 19 312 180 19 313 179 19 314 194 19 315 179 19 316 192 19 317 225 19 318 177 19 319 224 19 320 224 19 321 182 19 322 223 19 323 197 19 324 195 19 325 198 19 326 206 19 327 189 19 328 205 19 329 207 19 330 191 19 331 206 19 332 213 19 333 192 19 334 211 19 335 213 19 336 193 19 337 194 19 338 198 19 339 188 19 340 196 19 341 203 19 342 199 19 343 202 19 344 202 19 345 201 19 346 204 19 347 195 19 348 204 19 349 188 19 350 175 19 351 202 19 352 195 19 353 200 19 354 206 19 355 199 19 356 199 19 357 205 19 358 201 19 359 190 19 360 209 19 361 191 19 362 191 19 363 210 19 364 189 19 365 209 19 366 212 19 367 213 19 368 209 19 369 211 19 370 210 19 371 220 19 372 215 19 373 237 19 374 220 19 375 214 19 376 216 19 377 223 19 378 183 19 379 222 19 380 222 19 381 184 19 382 221 19 383 221 19 384 187 19 385 220 19 386 186 19 387 229 19 388 180 19 389 228 19 390 230 19 391 229 19 392 227 29 393 231 29 394 230 29 395 226 19 396 232 19 397 231 19 398 225 19 399 233 19 400 232 19 401 224 19 402 234 19 403 233 19 404 223 19 405 235 19 406 234 19 407 222 19 408 236 19 409 235 19 410 221 19 411 237 19 412 236 19 413 132 19 414 148 19 415 142 19 416 246 19 417 140 19 418 132 19 419 244 19 420 145 19 421 246 19 422 238 19 423 146 19 424 244 19 425 143 19 426 141 19 427 144 19 428 243 19 429 125 19 430 124 19 431 124 19 432 147 19 433 238 19 434 242 19 435 152 19 436 136 19 437 247 30 438 139 30 439 154 30 440 239 31 441 129 31 442 128 31 443 241 19 444 144 19 445 141 19 446 142 19 447 149 19 448 143 19 449 40 85 741 31 85 742 2 85 743 41 86 744 32 86 745 31 86 746 10 87 747 5 87 748 33 87 749 42 0 750 33 0 751 32 0 752 27 88 753 26 88 754 121 88 755 39 89 756 2 89 757 3 89 758 38 90 759 3 90 760 6 90 761 26 0 762 28 0 763 12 0 764 14 91 765 29 91 766 13 91 767 13 92 768 29 92 769 30 92 770 116 93 771 15 93 772 4 93 773 34 0 774 92 0 775 91 0 776 34 94 777 11 94 778 90 94 779 37 95 780 6 95 781 7 95 782 36 96 783 7 96 784 9 96 785 35 97 786 9 97 787 11 97 788 41 0 789 40 0 790 44 0 791 40 0 792 39 0 793 45 0 794 39 0 795 38 0 796 46 0 797 38 0 798 37 0 799 47 0 800 37 0 801 36 0 802 48 0 803 36 98 804 35 98 805 49 98 806 35 0 807 34 0 808 50 0 809 102 0 810 101 0 811 52 0 812 103 0 813 102 0 814 93 0 815 70 0 816 61 0 817 54 0 818 62 99 819 57 99 820 54 99 821 62 0 822 104 0 823 95 0 824 104 0 825 103 0 826 94 0 827 56 100 828 62 100 829 61 100 830 55 0 831 61 0 832 70 0 833 101 0 834 100 0 835 53 0 836 100 0 837 99 0 838 58 0 839 71 101 840 51 101 841 73 101 842 65 0 843 67 0 844 82 0 845 67 102 846 66 102 847 83 102 848 68 0 849 70 0 850 89 0 851 89 0 852 70 0 853 69 0 854 64 0 855 71 0 856 74 0 857 75 103 858 76 103 859 79 103 860 77 0 861 75 0 862 78 0 863 80 0 864 78 0 865 71 0 866 78 104 867 79 104 868 51 104 869 82 105 870 83 105 871 76 105 872 81 0 873 82 0 874 75 0 875 85 106 876 84 106 877 66 106 878 86 0 879 85 0 880 67 0 881 85 0 882 89 0 883 88 0 884 87 0 885 89 0 886 85 0 887 91 0 888 92 0 889 96 0 890 96 0 891 92 0 892 90 0 893 99 0 894 98 0 895 59 0 896 98 0 897 97 0 898 60 0 899 97 0 900 96 0 901 63 0 902 105 0 903 104 0 904 62 0 905 106 0 906 103 0 907 104 0 908 107 107 909 102 107 910 103 107 911 108 0 912 101 0 913 102 0 914 109 0 915 100 0 916 101 0 917 110 0 918 99 0 919 100 0 920 111 0 921 98 0 922 99 0 923 112 0 924 97 0 925 98 0 926 113 0 927 96 0 928 97 0 929 24 0 930 16 0 931 8 0 932 16 108 933 21 108 934 122 108 935 21 0 936 22 0 937 120 0 938 22 0 939 23 0 940 114 0 941 17 0 942 25 0 943 19 0 944 1 109 945 27 109 946 119 109 947 23 0 948 1 0 949 0 0 950 28 0 951 14 0 952 118 0 953 123 110 954 30 110 955 15 110 956 115 111 957 4 111 958 5 111 959 25 0 960 24 0 961 18 0 962 164 19 963 163 19 964 126 19 965 165 19 966 164 19 967 155 19 968 134 19 969 166 19 970 157 19 971 166 19 972 165 19 973 156 19 974 245 112 975 150 112 976 151 112 977 163 19 978 162 19 979 127 19 980 162 19 981 161 19 982 130 19 983 136 113 984 152 113 985 150 113 986 137 114 987 153 114 988 138 114 989 137 19 990 247 19 991 154 19 992 240 19 993 239 19 994 128 19 995 215 19 996 216 19 997 158 19 998 158 19 999 216 19 1000 214 19 1001 161 19 1002 160 19 1003 131 19 1004 160 19 1005 159 19 1006 133 19 1007 159 19 1008 158 19 1009 135 19 1010 168 19 1011 164 19 1012 165 19 1013 169 19 1014 163 19 1015 164 19 1016 170 19 1017 162 19 1018 163 19 1019 171 19 1020 161 19 1021 162 19 1022 172 19 1023 160 19 1024 161 19 1025 173 115 1026 159 115 1027 160 115 1028 174 19 1029 158 19 1030 159 19 1031 226 116 1032 217 116 1033 176 116 1034 227 117 1035 218 117 1036 217 117 1037 194 118 1038 193 118 1039 178 118 1040 178 19 1041 181 19 1042 186 19 1043 186 119 1044 181 119 1045 219 119 1046 228 120 1047 219 120 1048 218 120 1049 185 19 1050 186 19 1051 180 19 1052 194 19 1053 185 19 1054 179 19 1055 225 121 1056 176 121 1057 177 121 1058 224 122 1059 177 122 1060 182 122 1061 197 19 1062 175 19 1063 195 19 1064 206 19 1065 191 19 1066 189 19 1067 207 19 1068 190 19 1069 191 19 1070 213 19 1071 194 19 1072 192 19 1073 213 123 1074 212 123 1075 193 123 1076 198 19 1077 195 19 1078 188 19 1079 203 19 1080 200 19 1081 199 19 1082 202 19 1083 199 19 1084 201 19 1085 195 19 1086 202 19 1087 204 19 1088 175 19 1089 203 19 1090 202 19 1091 200 19 1092 207 19 1093 206 19 1094 199 19 1095 206 19 1096 205 19 1097 190 19 1098 208 19 1099 209 19 1100 191 19 1101 209 19 1102 210 19 1103 209 124 1104 208 124 1105 212 124 1106 209 19 1107 213 19 1108 211 19 1109 220 19 1110 216 19 1111 215 19 1112 220 125 1113 187 125 1114 214 125 1115 223 126 1116 182 126 1117 183 126 1118 222 127 1119 183 127 1120 184 127 1121 221 128 1122 184 128 1123 187 128 1124 186 19 1125 228 19 1126 229 19 1127 228 19 1128 227 19 1129 230 19 1130 227 129 1131 226 129 1132 231 129 1133 226 19 1134 225 19 1135 232 19 1136 225 19 1137 224 19 1138 233 19 1139 224 19 1140 223 19 1141 234 19 1142 223 19 1143 222 19 1144 235 19 1145 222 19 1146 221 19 1147 236 19 1148 221 19 1149 220 19 1150 237 19 1151 132 130 1152 140 130 1153 148 130 1154 246 19 1155 145 19 1156 140 19 1157 244 131 1158 146 131 1159 145 131 1160 238 132 1161 147 132 1162 146 132 1163 143 19 1164 149 19 1165 141 19 1166 243 133 1167 151 133 1168 125 133 1169 124 134 1170 125 134 1171 147 134 1172 242 135 1173 138 135 1174 152 135 1175 247 19 1176 240 19 1177 139 19 1178 239 19 1179 134 19 1180 129 19 1181 142 136 1182 148 136 1183 149 136 1184</p>
        </triangles>
        <triangles material="tyl-material" count="96">
          <input semantic="VERTEX" source="#Plane_001-mesh-vertices" offset="0"/>
          <input semantic="NORMAL" source="#Plane_001-mesh-normals" offset="1"/>
          <input semantic="TEXCOORD" source="#Plane_001-mesh-map-0" offset="2" set="0"/>
          <p>68 32 450 179 32 451 55 32 452 122 32 453 132 32 454 8 32 455 48 32 456 171 32 457 47 32 458 120 32 462 246 32 463 122 32 464 49 34 465 172 34 466 48 34 467 86 32 468 211 32 469 87 32 470 55 32 474 180 32 475 56 32 476 114 36 477 244 36 478 120 36 479 50 32 480 173 32 481 49 32 482 19 32 492 144 32 493 20 32 494 119 32 501 124 32 502 0 32 503 0 32 513 238 32 514 114 32 515 118 32 525 136 32 526 12 32 527 116 32 540 247 32 541 123 32 542 113 32 543 215 32 544 91 32 545 10 32 549 239 32 550 115 32 551 42 32 558 134 32 559 10 32 560 20 32 564 241 32 565 117 32 566 80 32 570 201 32 571 77 32 572 18 32 573 143 32 574 19 32 575 43 60 588 165 60 589 41 60 590 64 32 609 204 32 610 80 32 611 56 32 624 229 32 625 105 32 626 72 32 627 188 32 628 64 32 629 105 32 630 230 32 631 106 32 632 77 32 633 205 32 634 81 32 635 81 32 636 189 32 637 65 32 638 91 32 639 174 32 640 50 32 641 106 71 642 231 71 643 107 71 644 107 32 654 232 32 655 108 32 656 121 32 660 243 32 661 119 32 662 108 32 663 233 32 664 109 32 665 115 32 669 240 32 670 116 32 671 41 32 672 166 32 673 42 32 674 109 32 675 234 32 676 110 32 677 13 32 678 242 32 679 118 32 680 44 32 681 167 32 682 43 32 683 110 32 684 235 32 685 111 32 686 87 32 693 192 32 694 68 32 695 123 32 699 137 32 700 13 32 701 45 32 702 168 32 703 44 32 704 111 32 705 236 32 706 112 32 707 12 32 711 245 32 712 121 32 713 46 32 714 169 32 715 45 32 716 112 32 717 237 32 718 113 32 719 65 32 723 210 32 724 86 32 725 8 32 732 142 32 733 18 32 734 47 32 735 170 32 736 46 32 737 68 32 1185 192 32 1186 179 32 1187 122 32 1188 246 32 1189 132 32 1190 48 32 1191 172 32 1192 171 32 1193 120 32 1197 244 32 1198 246 32 1199 49 138 1200 173 138 1201 172 138 1202 86 32 1203 210 32 1204 211 32 1205 55 32 1209 179 32 1210 180 32 1211 114 36 1212 238 36 1213 244 36 1214 50 32 1215 174 32 1216 173 32 1217 19 32 1227 143 32 1228 144 32 1229 119 32 1236 243 32 1237 124 32 1238 0 32 1248 124 32 1249 238 32 1250 118 32 1260 242 32 1261 136 32 1262 116 32 1275 240 32 1276 247 32 1277 113 32 1278 237 32 1279 215 32 1280 10 32 1284 134 32 1285 239 32 1286 42 32 1293 166 32 1294 134 32 1295 20 32 1299 144 32 1300 241 32 1301 80 32 1305 204 32 1306 201 32 1307 18 32 1308 142 32 1309 143 32 1310 43 60 1323 167 60 1324 165 60 1325 64 32 1344 188 32 1345 204 32 1346 56 32 1359 180 32 1360 229 32 1361 72 32 1362 196 32 1363 188 32 1364 105 32 1365 229 32 1366 230 32 1367 77 32 1368 201 32 1369 205 32 1370 81 32 1371 205 32 1372 189 32 1373 91 32 1374 215 32 1375 174 32 1376 106 164 1377 230 164 1378 231 164 1379 107 32 1389 231 32 1390 232 32 1391 121 32 1395 245 32 1396 243 32 1397 108 32 1398 232 32 1399 233 32 1400 115 32 1404 239 32 1405 240 32 1406 41 32 1407 165 32 1408 166 32 1409 109 32 1410 233 32 1411 234 32 1412 13 32 1413 137 32 1414 242 32 1415 44 32 1416 168 32 1417 167 32 1418 110 32 1419 234 32 1420 235 32 1421 87 32 1428 211 32 1429 192 32 1430 123 32 1434 247 32 1435 137 32 1436 45 32 1437 169 32 1438 168 32 1439 111 32 1440 235 32 1441 236 32 1442 12 32 1446 136 32 1447 245 32 1448 46 32 1449 170 32 1450 169 32 1451 112 32 1452 236 32 1453 237 32 1454 65 32 1458 189 32 1459 210 32 1460 8 32 1467 132 32 1468 142 32 1469 47 32 1470 171 32 1471 170 32 1472</p>
        </triangles>
        <triangles material="front_shine-material" count="28">
          <input semantic="VERTEX" source="#Plane_001-mesh-vertices" offset="0"/>
          <input semantic="NORMAL" source="#Plane_001-mesh-normals" offset="1"/>
          <input semantic="TEXCOORD" source="#Plane_001-mesh-map-0" offset="2" set="0"/>
          <p>23 33 459 125 33 460 1 33 461 24 37 483 140 37 484 16 37 485 51 41 498 197 41 499 73 41 500 25 42 504 148 42 505 24 42 506 74 46 519 196 46 520 72 46 521 73 46 534 198 46 535 74 46 536 27 52 552 150 52 553 26 52 554 117 55 567 141 55 568 17 55 569 1 62 594 151 62 595 27 62 596 79 69 618 175 69 619 51 69 620 16 72 645 145 72 646 21 72 647 17 76 666 149 76 667 25 76 668 21 77 687 146 77 688 22 77 689 22 81 720 147 81 721 23 81 722 23 137 1194 147 137 1195 125 137 1196 24 140 1218 148 140 1219 140 140 1220 51 144 1233 175 144 1234 197 144 1235 25 145 1239 149 145 1240 148 145 1241 74 46 1254 198 46 1255 196 46 1256 73 46 1269 197 46 1270 198 46 1271 27 52 1287 151 52 1288 150 52 1289 117 153 1302 241 153 1303 141 153 1304 1 158 1329 125 158 1330 151 158 1331 79 162 1353 203 162 1354 175 162 1355 16 72 1380 140 72 1381 145 72 1382 17 168 1401 141 168 1402 149 168 1403 21 77 1422 145 77 1423 146 77 1424 22 171 1455 146 171 1456 147 171 1457</p>
        </triangles>
        <triangles material="front-material" count="70">
          <input semantic="VERTEX" source="#Plane_001-mesh-vertices" offset="0"/>
          <input semantic="NORMAL" source="#Plane_001-mesh-normals" offset="1"/>
          <input semantic="TEXCOORD" source="#Plane_001-mesh-map-0" offset="2" set="0"/>
          <p>5 35 471 157 35 472 33 35 473 69 38 486 212 38 487 88 38 488 95 39 489 181 39 490 57 39 491 31 40 495 126 40 496 2 40 497 32 43 507 155 43 508 31 43 509 52 44 510 217 44 511 93 44 512 3 45 516 130 45 517 6 45 518 93 47 522 218 47 523 94 47 524 26 48 528 152 48 529 28 48 530 59 49 531 182 49 532 58 49 533 58 50 537 177 50 538 53 50 539 2 51 546 127 51 547 3 51 548 90 53 555 187 53 556 63 53 557 83 54 561 200 54 562 76 54 563 28 56 576 138 56 577 14 56 578 9 57 579 135 57 580 11 57 581 53 58 582 176 58 583 52 58 584 7 59 585 133 59 586 9 59 587 29 61 591 154 61 592 30 61 593 14 63 597 153 63 598 29 63 599 76 64 600 203 64 601 79 64 602 63 65 603 184 65 604 60 65 605 30 66 606 139 66 607 15 66 608 60 67 612 183 67 613 59 67 614 15 68 615 128 68 616 4 68 617 6 70 621 131 70 622 7 70 623 84 73 648 190 73 649 66 73 650 11 74 651 214 74 652 90 74 653 66 75 657 207 75 658 83 75 659 88 78 690 208 78 691 84 78 692 94 79 696 219 79 697 95 79 698 54 80 708 193 80 709 69 80 710 33 82 726 156 82 727 32 82 728 57 83 729 178 83 730 54 83 731 4 84 738 129 84 739 5 84 740 5 139 1206 129 139 1207 157 139 1208 69 141 1221 193 141 1222 212 141 1223 95 142 1224 219 142 1225 181 142 1226 31 143 1230 155 143 1231 126 143 1232 32 43 1242 156 43 1243 155 43 1244 52 44 1245 176 44 1246 217 44 1247 3 146 1251 127 146 1252 130 146 1253 93 147 1257 217 147 1258 218 147 1259 26 48 1263 150 48 1264 152 48 1265 59 148 1266 183 148 1267 182 148 1268 58 149 1272 182 149 1273 177 149 1274 2 150 1281 126 150 1282 127 150 1283 90 151 1290 214 151 1291 187 151 1292 83 152 1296 207 152 1297 200 152 1298 28 154 1311 152 154 1312 138 154 1313 9 155 1314 133 155 1315 135 155 1316 53 156 1317 177 156 1318 176 156 1319 7 157 1320 131 157 1321 133 157 1322 29 61 1326 153 61 1327 154 61 1328 14 63 1332 138 63 1333 153 63 1334 76 64 1335 200 64 1336 203 64 1337 63 159 1338 187 159 1339 184 159 1340 30 160 1341 154 160 1342 139 160 1343 60 161 1347 184 161 1348 183 161 1349 15 68 1350 139 68 1351 128 68 1352 6 163 1356 130 163 1357 131 163 1358 84 165 1383 208 165 1384 190 165 1385 11 166 1386 135 166 1387 214 166 1388 66 167 1392 190 167 1393 207 167 1394 88 78 1425 212 78 1426 208 78 1427 94 169 1431 218 169 1432 219 169 1433 54 170 1443 178 170 1444 193 170 1445 33 172 1461 157 172 1462 156 172 1463 57 173 1464 181 173 1465 178 173 1466 4 174 1473 128 174 1474 129 174 1475</p>
        </triangles>
      </mesh>
    </geometry>
  </library_geometries>
  <library_visual_scenes>
    <visual_scene id="Scene" name="Scene">
      <node id="amber_end_2" name="amber_end_2" type="NODE">
        <matrix sid="transform">1 0 0 -0.1183762 0 1 0 2.14285e-4 0 0 1 1.350001 0 0 0 1</matrix>
        <instance_geometry url="#Plane_001-mesh" name="amber_end_2">
          <bind_material>
            <technique_common>
              <instance_material symbol="gora_dol-material" target="#gora_dol-material">
                <bind_vertex_input semantic="UVMap" input_semantic="TEXCOORD" input_set="0"/>
              </instance_material>
              <instance_material symbol="tyl-material" target="#tyl-material">
                <bind_vertex_input semantic="UVMap" input_semantic="TEXCOORD" input_set="0"/>
              </instance_material>
              <instance_material symbol="front_shine-material" target="#front_shine-material">
                <bind_vertex_input semantic="UVMap" input_semantic="TEXCOORD" input_set="0"/>
              </instance_material>
              <instance_material symbol="front-material" target="#front-material">
                <bind_vertex_input semantic="UVMap" input_semantic="TEXCOORD" input_set="0"/>
              </instance_material>
            </technique_common>
          </bind_material>
        </instance_geometry>
      </node>
    </visual_scene>
  </library_visual_scenes>
  <scene>
    <instance_visual_scene url="#Scene"/>
  </scene>
</COLLADA>