# Blender v3.2.0 OBJ File: 'panele.blend'
# www.blender.org
mtllib amber_end1.mtl
o amber_end_2_Plane.001
v -0.092858 2.700000 0.000454
v -0.092858 2.700000 -0.006158
v -0.105584 2.700000 -0.004280
v -0.107659 2.700000 -0.004051
v -0.095139 2.700000 -0.006225
v -0.097285 2.700000 -0.005704
v -0.109357 2.700000 -0.003876
v -0.111314 2.700000 -0.003721
v -0.091963 2.700000 0.000454
v -0.113406 2.700000 -0.003607
v -0.097285 2.700000 0.000454
v -0.115958 2.700000 -0.003519
v -0.093254 2.700000 0.000454
v -0.093696 2.700000 0.000454
v -0.093385 2.700000 -0.006526
v -0.094006 2.700000 -0.006515
v -0.091963 2.700000 -0.003067
v -0.091271 2.700000 -0.000143
v -0.091617 2.700000 0.000454
v -0.091340 2.700000 0.000454
v -0.091271 2.700000 0.000454
v -0.092411 2.700000 -0.004734
v -0.092634 2.700000 -0.005598
v -0.092746 2.700000 -0.005931
v -0.091617 2.700000 -0.001621
v -0.091340 2.700000 -0.000502
v -0.093122 2.700000 -0.006396
v -0.092990 2.700000 -0.006302
v -0.093254 2.700000 -0.006468
v -0.093696 2.700000 -0.006531
v -0.093851 2.700000 -0.006529
v -0.103510 2.700000 -0.004571
v -0.101168 2.700000 -0.004963
v -0.099360 2.700000 -0.005292
v -0.115958 2.700000 0.000349
v -0.113406 2.700000 0.000349
v -0.111314 2.700000 0.000454
v -0.109357 2.700000 0.000454
v -0.107659 2.700000 0.000454
v -0.105584 2.700000 0.000454
v -0.103510 2.700000 0.000454
v -0.101168 2.700000 0.000454
v -0.099360 2.700000 0.000454
v -0.101168 2.700000 0.005469
v -0.103510 2.700000 0.005469
v -0.105584 2.700000 0.005469
v -0.107659 2.700000 0.005469
v -0.109357 2.700000 0.005469
v -0.111314 2.700000 0.005469
v -0.113406 2.700000 0.004441
v -0.115958 2.700000 0.004441
v -0.144023 2.700000 -0.006158
v -0.131297 2.700000 -0.004280
v -0.129222 2.700000 -0.004051
v -0.141743 2.700000 -0.006225
v -0.141743 2.700000 0.005469
v -0.139596 2.700000 0.005469
v -0.139596 2.700000 -0.005704
v -0.127147 2.700000 -0.003837
v -0.125072 2.700000 -0.003684
v -0.122998 2.700000 -0.003584
v -0.141743 2.700000 0.000993
v -0.139596 2.700000 0.000454
v -0.120923 2.700000 -0.003519
v -0.144023 2.700000 0.005469
v -0.143496 2.700000 0.005469
v -0.143496 2.700000 -0.006526
v -0.143496 2.700000 0.000993
v -0.142875 2.700000 0.005469
v -0.142875 2.700000 -0.006515
v -0.142875 2.700000 0.000993
v -0.144023 2.700000 0.000993
v -0.144135 2.700000 0.005469
v -0.144135 2.700000 -0.005931
v -0.144135 2.700000 0.000993
v -0.143759 2.700000 0.000993
v -0.143759 2.700000 -0.006396
v -0.143759 2.700000 0.005469
v -0.143891 2.700000 0.000993
v -0.143891 2.700000 -0.006302
v -0.143891 2.700000 0.005469
v -0.143628 2.700000 0.005469
v -0.143628 2.700000 0.000993
v -0.143628 2.700000 -0.006468
v -0.143185 2.700000 -0.006531
v -0.143185 2.700000 0.000993
v -0.143185 2.700000 0.005469
v -0.143030 2.700000 0.005469
v -0.143030 2.700000 -0.006529
v -0.143030 2.700000 0.000993
v -0.118848 2.700000 -0.003488
v -0.118848 2.700000 0.004441
v -0.118848 2.700000 0.000349
v -0.133629 2.700000 -0.004613
v -0.135740 2.700000 -0.004967
v -0.137521 2.700000 -0.005292
v -0.120923 2.700000 0.000349
v -0.122998 2.700000 0.000349
v -0.125072 2.700000 0.000349
v -0.127147 2.700000 0.000349
v -0.129222 2.700000 0.000349
v -0.131297 2.700000 0.000349
v -0.133629 2.700000 0.000349
v -0.135740 2.700000 0.000454
v -0.137521 2.700000 0.000454
v -0.137521 2.700000 0.005469
v -0.135740 2.700000 0.005469
v -0.133629 2.700000 0.004441
v -0.131297 2.700000 0.004441
v -0.129222 2.700000 0.004441
v -0.127147 2.700000 0.004441
v -0.125072 2.700000 0.004441
v -0.122998 2.700000 0.004441
v -0.120923 2.700000 0.004441
v -0.092746 2.700000 0.000454
v -0.095139 2.700000 0.000454
v -0.094006 2.700000 0.000454
v -0.091135 2.700000 0.000454
v -0.093385 2.700000 0.000454
v -0.092990 2.700000 0.000454
v -0.092634 2.700000 0.000454
v -0.093122 2.700000 0.000454
v -0.092411 2.700000 0.000454
v -0.093851 2.700000 0.000454
v -0.092858 0.000000 0.000454
v -0.092858 0.000000 -0.006158
v -0.105584 0.000000 -0.004280
v -0.107659 0.000000 -0.004051
v -0.095139 0.000000 -0.006225
v -0.097285 0.000000 -0.005704
v -0.109357 0.000000 -0.003876
v -0.111314 0.000000 -0.003721
v -0.091963 0.000000 0.000454
v -0.113406 0.000000 -0.003607
v -0.097285 0.000000 0.000454
v -0.115958 0.000000 -0.003519
v -0.093254 0.000000 0.000454
v -0.093696 0.000000 0.000454
v -0.093385 0.000000 -0.006526
v -0.094006 0.000000 -0.006515
v -0.091963 0.000000 -0.003067
v -0.091271 0.000000 -0.000143
v -0.091617 0.000000 0.000454
v -0.091340 0.000000 0.000454
v -0.091271 0.000000 0.000454
v -0.092411 0.000000 -0.004734
v -0.092634 0.000000 -0.005598
v -0.092746 0.000000 -0.005931
v -0.091617 0.000000 -0.001621
v -0.091340 0.000000 -0.000502
v -0.093122 0.000000 -0.006396
v -0.092990 0.000000 -0.006302
v -0.093254 0.000000 -0.006468
v -0.093696 0.000000 -0.006531
v -0.093851 0.000000 -0.006529
v -0.103510 0.000000 -0.004571
v -0.101168 0.000000 -0.004963
v -0.099360 0.000000 -0.005292
v -0.115958 0.000000 0.000349
v -0.113406 0.000000 0.000349
v -0.111314 0.000000 0.000454
v -0.109357 0.000000 0.000454
v -0.107659 0.000000 0.000454
v -0.105584 0.000000 0.000454
v -0.103510 0.000000 0.000454
v -0.101168 0.000000 0.000454
v -0.099360 0.000000 0.000454
v -0.101168 0.000000 0.005469
v -0.103510 0.000000 0.005469
v -0.105584 0.000000 0.005469
v -0.107659 0.000000 0.005469
v -0.109357 0.000000 0.005469
v -0.111314 0.000000 0.005469
v -0.113406 0.000000 0.004441
v -0.115958 0.000000 0.004441
v -0.144023 0.000000 -0.006158
v -0.131297 0.000000 -0.004280
v -0.129222 0.000000 -0.004051
v -0.141743 0.000000 -0.006225
v -0.141743 0.000000 0.005469
v -0.139596 0.000000 0.005469
v -0.139596 0.000000 -0.005704
v -0.127147 0.000000 -0.003837
v -0.125072 0.000000 -0.003684
v -0.122998 0.000000 -0.003584
v -0.141743 0.000000 0.000993
v -0.139596 0.000000 0.000454
v -0.120923 0.000000 -0.003519
v -0.144023 0.000000 0.005469
v -0.143496 0.000000 0.005469
v -0.143496 0.000000 -0.006526
v -0.143496 0.000000 0.000993
v -0.142875 0.000000 0.005469
v -0.142875 0.000000 -0.006515
v -0.142875 0.000000 0.000993
v -0.144023 0.000000 0.000993
v -0.144135 0.000000 0.005469
v -0.144135 0.000000 -0.005931
v -0.144135 0.000000 0.000993
v -0.143759 0.000000 0.000993
v -0.143759 0.000000 -0.006396
v -0.143759 0.000000 0.005469
v -0.143891 0.000000 0.000993
v -0.143891 0.000000 -0.006302
v -0.143891 0.000000 0.005469
v -0.143628 0.000000 0.005469
v -0.143628 0.000000 0.000993
v -0.143628 0.000000 -0.006468
v -0.143185 0.000000 -0.006531
v -0.143185 0.000000 0.000993
v -0.143185 0.000000 0.005469
v -0.143030 0.000000 0.005469
v -0.143030 0.000000 -0.006529
v -0.143030 0.000000 0.000993
v -0.118848 0.000000 -0.003488
v -0.118848 0.000000 0.004441
v -0.118848 0.000000 0.000349
v -0.133629 0.000000 -0.004613
v -0.135740 0.000000 -0.004967
v -0.137521 0.000000 -0.005292
v -0.120923 0.000000 0.000349
v -0.122998 0.000000 0.000349
v -0.125072 0.000000 0.000349
v -0.127147 0.000000 0.000349
v -0.129222 0.000000 0.000349
v -0.131297 0.000000 0.000349
v -0.133629 0.000000 0.000349
v -0.135740 0.000000 0.000454
v -0.137521 0.000000 0.000454
v -0.137521 0.000000 0.005469
v -0.135740 0.000000 0.005469
v -0.133629 0.000000 0.004441
v -0.131297 0.000000 0.004441
v -0.129222 0.000000 0.004441
v -0.127147 0.000000 0.004441
v -0.125072 0.000000 0.004441
v -0.122998 0.000000 0.004441
v -0.120923 0.000000 0.004441
v -0.092746 0.000000 0.000454
v -0.095139 0.000000 0.000454
v -0.094006 0.000000 0.000454
v -0.091135 0.000000 0.000454
v -0.093385 0.000000 0.000454
v -0.092990 0.000000 0.000454
v -0.092634 0.000000 0.000454
v -0.093122 0.000000 0.000454
v -0.092411 0.000000 0.000454
v -0.093851 0.000000 0.000454
vt 0.415148 0.373113
vt 0.415148 0.938139
vt 0.445624 0.942513
vt 0.445623 0.373113
vt 0.380751 0.373112
vt 0.380751 0.933201
vt 0.323723 0.373113
vt 0.323723 0.925015
vt 0.354198 0.929389
vt 0.354198 0.373113
vt 0.260633 0.419447
vt 0.260633 1.000000
vt 0.262569 1.000000
vt 0.262569 0.418862
vt 0.476099 0.946888
vt 0.476098 0.373113
vt 0.501033 0.950467
vt 0.501033 0.373113
vt 0.264505 1.000000
vt 0.264505 0.418419
vt 0.266441 0.418068
vt 0.266441 1.000000
vt 0.271001 1.000000
vt 0.271001 0.418040
vt 0.273281 1.000000
vt 0.273281 0.418054
vt 0.275561 0.418138
vt 0.275561 1.000000
vt 0.292192 0.974885
vt 0.292192 0.418068
vt 0.597999 0.000000
vt 0.597999 0.373113
vt 0.628474 0.373113
vt 0.628474 0.000000
vt 0.597999 0.964386
vt 0.628474 0.968761
vt 0.529776 0.954593
vt 0.529776 0.373113
vt 0.560514 0.959006
vt 0.560514 0.373113
vt 0.380751 0.000000
vt 0.415148 0.000000
vt 0.445623 0.000000
vt 0.476098 0.000000
vt 0.501033 0.000000
vt 0.529776 0.000000
vt 0.560514 0.000000
vt 0.411371 0.373113
vt 0.445623 0.373113
vt 0.445624 0.942513
vt 0.411371 0.937596
vt 0.380358 0.373112
vt 0.380358 0.933145
vt 0.275561 0.373113
vt 0.292192 0.373113
vt 0.292192 0.974885
vt 0.275561 1.000000
vt 0.323723 0.373113
vt 0.323723 0.925015
vt 0.354198 0.373113
vt 0.354198 0.929389
vt 0.292192 0.000000
vt 0.323723 0.000000
vt 0.275561 0.000000
vt 0.476099 0.373113
vt 0.476099 0.946888
vt 0.506574 0.373113
vt 0.506574 0.951262
vt 0.257054 0.373113
vt 0.258697 0.373113
vt 0.258697 1.000000
vt 0.257054 1.000000
vt 0.264505 0.000000
vt 0.266441 0.000000
vt 0.266441 0.373113
vt 0.264505 0.373113
vt 0.266441 1.000000
vt 0.264505 1.000000
vt 0.273281 0.000000
vt 0.273281 0.373113
vt 0.273281 1.000000
vt 0.257054 0.000000
vt 0.258697 0.000000
vt 0.260633 0.373113
vt 0.262569 0.373113
vt 0.262569 1.000000
vt 0.260633 1.000000
vt 0.260633 0.000000
vt 0.262569 0.000000
vt 0.271001 0.373113
vt 0.271001 1.000000
vt 0.271001 0.000000
vt 0.597999 0.000000
vt 0.597999 0.373113
vt 0.597999 0.964386
vt 0.537049 0.373113
vt 0.537049 0.955637
vt 0.567524 0.373113
vt 0.567524 0.960012
vt 0.354198 0.000000
vt 0.380358 0.000000
vt 0.411371 0.000000
vt 0.445623 0.000000
vt 0.476098 0.000000
vt 0.506573 0.000000
vt 0.537049 0.000000
vt 0.567524 0.000000
vt 0.240469 0.502392
vt 0.240469 1.000000
vt 0.245552 1.000000
vt 0.245552 0.456357
vt 0.252124 1.000000
vt 0.252124 0.432140
vt 0.255411 1.000000
vt 0.255411 0.424399
vt 0.257054 1.000000
vt 0.257054 0.421932
vt 0.235385 0.620776
vt 0.235385 0.894842
vt 0.236402 1.000000
vt 0.236402 0.599113
vt 0.258697 0.420385
vt 0.258697 1.000000
vt 0.232487 0.715642
vt 0.415148 0.373113
vt 0.445623 0.373113
vt 0.445624 0.942513
vt 0.415148 0.938139
vt 0.380751 0.373112
vt 0.380751 0.933201
vt 0.323723 0.373113
vt 0.354198 0.373113
vt 0.354198 0.929389
vt 0.323723 0.925015
vt 0.260633 0.419447
vt 0.262569 0.418862
vt 0.262569 1.000000
vt 0.260633 1.000000
vt 0.476098 0.373113
vt 0.476099 0.946888
vt 0.501033 0.373113
vt 0.501033 0.950467
vt 0.264505 0.418419
vt 0.264505 1.000000
vt 0.266441 0.418068
vt 0.271001 0.418040
vt 0.271001 1.000000
vt 0.266441 1.000000
vt 0.273281 0.418054
vt 0.273281 1.000000
vt 0.275561 0.418138
vt 0.292192 0.418068
vt 0.292192 0.974885
vt 0.275561 1.000000
vt 0.597999 0.000000
vt 0.628474 0.000000
vt 0.628474 0.373113
vt 0.597999 0.373113
vt 0.628474 0.968761
vt 0.597999 0.964386
vt 0.529776 0.373113
vt 0.529776 0.954593
vt 0.560514 0.373113
vt 0.560514 0.959006
vt 0.380751 0.000000
vt 0.415148 0.000000
vt 0.445623 0.000000
vt 0.476098 0.000000
vt 0.501033 0.000000
vt 0.529776 0.000000
vt 0.560514 0.000000
vt 0.411371 0.373113
vt 0.411371 0.937596
vt 0.445624 0.942513
vt 0.445623 0.373113
vt 0.380358 0.373112
vt 0.380358 0.933145
vt 0.275561 0.373113
vt 0.275561 1.000000
vt 0.292192 0.974885
vt 0.292192 0.373113
vt 0.323723 0.925015
vt 0.323723 0.373113
vt 0.354198 0.929389
vt 0.354198 0.373113
vt 0.292192 0.000000
vt 0.323723 0.000000
vt 0.275561 0.000000
vt 0.476099 0.946888
vt 0.476099 0.373113
vt 0.506574 0.951262
vt 0.506574 0.373113
vt 0.257054 0.373113
vt 0.257054 1.000000
vt 0.258697 1.000000
vt 0.258697 0.373113
vt 0.264505 0.000000
vt 0.264505 0.373113
vt 0.266441 0.373113
vt 0.266441 0.000000
vt 0.264505 1.000000
vt 0.266441 1.000000
vt 0.273281 0.000000
vt 0.273281 0.373113
vt 0.273281 1.000000
vt 0.257054 0.000000
vt 0.258697 0.000000
vt 0.260633 0.373113
vt 0.260633 1.000000
vt 0.262569 1.000000
vt 0.262569 0.373113
vt 0.260633 0.000000
vt 0.262569 0.000000
vt 0.271001 1.000000
vt 0.271001 0.373113
vt 0.271001 0.000000
vt 0.597999 0.000000
vt 0.597999 0.373113
vt 0.597999 0.964386
vt 0.537049 0.955637
vt 0.537049 0.373113
vt 0.567524 0.960012
vt 0.567524 0.373113
vt 0.354198 0.000000
vt 0.380358 0.000000
vt 0.411371 0.000000
vt 0.445623 0.000000
vt 0.476098 0.000000
vt 0.506573 0.000000
vt 0.537049 0.000000
vt 0.567524 0.000000
vt 0.240469 0.502392
vt 0.245552 0.456357
vt 0.245552 1.000000
vt 0.240469 1.000000
vt 0.252124 0.432140
vt 0.252124 1.000000
vt 0.255411 0.424399
vt 0.255411 1.000000
vt 0.257054 0.421932
vt 0.257054 1.000000
vt 0.235385 0.620776
vt 0.236402 0.599113
vt 0.236402 1.000000
vt 0.235385 0.894842
vt 0.258697 0.420385
vt 0.258697 1.000000
vt 0.232487 0.715642
vn 0.0000 1.0000 0.0000
vn 0.0000 1.0000 -0.0003
vn 0.0000 1.0000 -0.0001
vn 0.0000 -1.0000 0.0000
vn 0.0000 0.0000 1.0000
vn -0.4409 0.0000 0.8975
vn 1.0000 0.0000 0.0000
vn 0.4378 0.0000 0.8991
vn 0.8967 0.0000 -0.4426
vn 0.9725 0.0000 -0.2328
vn -0.8967 0.0000 -0.4426
vn 0.9707 0.0000 -0.2402
vn -1.0000 0.0000 0.0000
vn 0.5777 0.0000 -0.8162
vn 0.9749 0.0000 -0.2226
vn 0.7391 0.0000 -0.6736
vn -0.7391 0.0000 -0.6736
vn 0.9658 0.0000 -0.2594
vn 0.9820 0.0000 -0.1889
vn 0.9681 0.0000 -0.2505
vn 0.9480 0.0000 -0.3184
vn -0.1949 0.0000 -0.9808
vn 0.0898 0.0000 -0.9960
vn 0.1949 0.0000 -0.9808
vn -0.1389 0.0000 -0.9903
vn -0.1649 0.0000 -0.9863
vn 0.1416 0.0000 -0.9899
vn -0.1026 0.0000 -0.9947
vn 0.1653 0.0000 -0.9862
vn 0.4809 0.0000 -0.8767
vn 0.0732 0.0000 -0.9973
vn 0.1026 0.0000 -0.9947
vn -0.1098 0.0000 -0.9940
vn 0.0149 0.0000 -0.9999
vn -0.4810 0.0000 -0.8767
vn 0.4045 0.0000 -0.9145
vn -0.0347 0.0000 -0.9994
vn 0.1098 0.0000 -0.9940
vn -0.0542 0.0000 -0.9985
vn -0.0150 0.0000 -0.9999
vn 0.0150 0.0000 -0.9999
vn -0.5777 0.0000 -0.8162
vn 0.0316 0.0000 -0.9995
vn -0.0898 0.0000 -0.9960
vn 0.0483 0.0000 -0.9988
vn -0.2478 0.0000 -0.9688
vn -0.0789 0.0000 -0.9969
vn -0.0107 0.0000 -0.9999
vn -0.4045 0.0000 -0.9145
vn 0.1791 0.0000 -0.9838
vn 0.2478 0.0000 -0.9688
vn -0.1791 0.0000 -0.9838
vn 0.2359 0.0000 -0.9718
vn -0.2359 0.0000 -0.9718
g amber_end_2_Plane.001_gora_dol
usemtl gora_dol
s off
f 41/1/1 32/2/1 3/3/1 40/4/1
f 42/5/1 33/6/1 32/2/1 41/1/1
f 11/7/1 6/8/1 34/9/1 43/10/1
f 43/10/1 34/9/1 33/6/1 42/5/1
f 120/11/1 28/12/1 27/13/1 122/14/1
f 40/4/1 3/3/1 4/15/1 39/16/1
f 39/16/1 4/15/1 7/17/1 38/18/1
f 122/14/1 27/13/1 29/19/1 13/20/1
f 119/21/1 15/22/1 30/23/1 14/24/1
f 14/24/1 30/23/1 31/25/1 124/26/1
f 117/27/1 16/28/1 5/29/1 116/30/1
f 51/31/1 35/32/1 93/33/1 92/34/1
f 35/32/1 12/35/1 91/36/1 93/33/1
f 38/18/1 7/17/1 8/37/1 37/38/1
f 37/38/1 8/37/1 10/39/1 36/40/1
f 36/40/1 10/39/1 12/35/1 35/32/1
f 44/41/1 42/5/1 41/1/1 45/42/1
f 45/42/1 41/1/1 40/4/1 46/43/1
f 46/43/1 40/4/1 39/16/1 47/44/1
f 47/44/1 39/16/1 38/18/1 48/45/1
f 48/45/1 38/18/1 37/38/1 49/46/1
f 49/46/1 37/38/1 36/40/1 50/47/1
f 50/47/1 36/40/1 35/32/1 51/31/1
f 103/48/1 102/49/1 53/50/1 94/51/1
f 104/52/1 103/48/1 94/51/1 95/53/1
f 71/54/1 62/55/1 55/56/1 70/57/1
f 62/55/1 63/58/1 58/59/1 55/56/1
f 63/58/1 105/60/1 96/61/1 58/59/1
f 105/60/1 104/52/1 95/53/1 96/61/1
f 56/62/1 57/63/1 63/58/1 62/55/1
f 69/64/1 56/62/1 62/55/1 71/54/1
f 102/49/1 101/65/1 54/66/1 53/50/1
f 101/65/1 100/67/1 59/68/1 54/66/1
f 75/69/1 72/70/1 52/71/1 74/72/1
f 82/73/1 66/74/1 68/75/1 83/76/1
f 83/76/1 68/75/1 67/77/1 84/78/1
f 88/79/1 69/64/1 71/54/1 90/80/1
f 90/80/1 71/54/1 70/57/1 89/81/1
f 73/82/1 65/83/1 72/70/1 75/69/1
f 79/84/1 76/85/1 77/86/1 80/87/1
f 81/88/1 78/89/1 76/85/1 79/84/1
f 65/83/1 81/88/1 79/84/1 72/70/1
f 72/70/1 79/84/1 80/87/1 52/71/1
f 76/85/1 83/76/1 84/78/1 77/86/1
f 78/89/1 82/73/1 83/76/1 76/85/1
f 68/75/1 86/90/1 85/91/1 67/77/1
f 66/74/1 87/92/1 86/90/1 68/75/1
f 86/90/1 90/80/1 89/81/1 85/91/1
f 87/92/1 88/79/1 90/80/1 86/90/1
f 114/93/1 92/34/1 93/33/1 97/94/1
f 97/94/1 93/33/1 91/36/1 64/95/1
f 100/67/1 99/96/1 60/97/1 59/68/1
f 99/96/1 98/98/1 61/99/1 60/97/1
f 98/98/1 97/94/1 64/95/1 61/99/1
f 57/63/1 106/100/1 105/60/1 63/58/1
f 106/100/1 107/101/1 104/52/1 105/60/1
f 107/101/1 108/102/1 103/48/1 104/52/1
f 108/102/1 109/103/1 102/49/1 103/48/1
f 109/103/1 110/104/1 101/65/1 102/49/1
f 110/104/1 111/105/1 100/67/1 101/65/1
f 111/105/1 112/106/1 99/96/1 100/67/1
f 112/106/1 113/107/1 98/98/1 99/96/1
f 113/107/1 114/93/1 97/94/1 98/98/1
f 19/108/1 25/109/1 17/110/1 9/111/1
f 9/111/1 17/110/1 22/112/1 123/113/1
f 123/113/1 22/112/1 23/114/1 121/115/1
f 121/115/1 23/114/1 24/116/1 115/117/1
f 21/118/2 18/119/2 26/120/2 20/121/2
f 1/122/1 2/123/1 28/12/1 120/11/1
f 115/117/1 24/116/1 2/123/1 1/122/1
f 13/20/1 29/19/1 15/22/1 119/21/1
f 124/26/1 31/25/1 16/28/1 117/27/1
f 116/30/1 5/29/1 6/8/1 11/7/1
f 118/124/3 18/119/3 21/118/3
f 20/121/1 26/120/1 25/109/1 19/108/1
f 165/125/4 164/126/4 127/127/4 156/128/4
f 166/129/4 165/125/4 156/128/4 157/130/4
f 135/131/4 167/132/4 158/133/4 130/134/4
f 167/132/4 166/129/4 157/130/4 158/133/4
f 244/135/4 246/136/4 151/137/4 152/138/4
f 164/126/4 163/139/4 128/140/4 127/127/4
f 163/139/4 162/141/4 131/142/4 128/140/4
f 246/136/4 137/143/4 153/144/4 151/137/4
f 243/145/4 138/146/4 154/147/4 139/148/4
f 138/146/4 248/149/4 155/150/4 154/147/4
f 241/151/4 240/152/4 129/153/4 140/154/4
f 175/155/4 216/156/4 217/157/4 159/158/4
f 159/158/4 217/157/4 215/159/4 136/160/4
f 162/141/4 161/161/4 132/162/4 131/142/4
f 161/161/4 160/163/4 134/164/4 132/162/4
f 160/163/4 159/158/4 136/160/4 134/164/4
f 168/165/4 169/166/4 165/125/4 166/129/4
f 169/166/4 170/167/4 164/126/4 165/125/4
f 170/167/4 171/168/4 163/139/4 164/126/4
f 171/168/4 172/169/4 162/141/4 163/139/4
f 172/169/4 173/170/4 161/161/4 162/141/4
f 173/170/4 174/171/4 160/163/4 161/161/4
f 174/171/4 175/155/4 159/158/4 160/163/4
f 227/172/4 218/173/4 177/174/4 226/175/4
f 228/176/4 219/177/4 218/173/4 227/172/4
f 195/178/4 194/179/4 179/180/4 186/181/4
f 186/181/4 179/180/4 182/182/4 187/183/4
f 187/183/4 182/182/4 220/184/4 229/185/4
f 229/185/4 220/184/4 219/177/4 228/176/4
f 180/186/4 186/181/4 187/183/4 181/187/4
f 193/188/4 195/178/4 186/181/4 180/186/4
f 226/175/4 177/174/4 178/189/4 225/190/4
f 225/190/4 178/189/4 183/191/4 224/192/4
f 199/193/4 198/194/4 176/195/4 196/196/4
f 206/197/4 207/198/4 192/199/4 190/200/4
f 207/198/4 208/201/4 191/202/4 192/199/4
f 212/203/4 214/204/4 195/178/4 193/188/4
f 214/204/4 213/205/4 194/179/4 195/178/4
f 197/206/4 199/193/4 196/196/4 189/207/4
f 203/208/4 204/209/4 201/210/4 200/211/4
f 205/212/4 203/208/4 200/211/4 202/213/4
f 189/207/4 196/196/4 203/208/4 205/212/4
f 196/196/4 176/195/4 204/209/4 203/208/4
f 200/211/4 201/210/4 208/201/4 207/198/4
f 202/213/4 200/211/4 207/198/4 206/197/4
f 192/199/4 191/202/4 209/214/4 210/215/4
f 190/200/4 192/199/4 210/215/4 211/216/4
f 210/215/4 209/214/4 213/205/4 214/204/4
f 211/216/4 210/215/4 214/204/4 212/203/4
f 238/217/4 221/218/4 217/157/4 216/156/4
f 221/218/4 188/219/4 215/159/4 217/157/4
f 224/192/4 183/191/4 184/220/4 223/221/4
f 223/221/4 184/220/4 185/222/4 222/223/4
f 222/223/4 185/222/4 188/219/4 221/218/4
f 181/187/4 187/183/4 229/185/4 230/224/4
f 230/224/4 229/185/4 228/176/4 231/225/4
f 231/225/4 228/176/4 227/172/4 232/226/4
f 232/226/4 227/172/4 226/175/4 233/227/4
f 233/227/4 226/175/4 225/190/4 234/228/4
f 234/228/4 225/190/4 224/192/4 235/229/4
f 235/229/4 224/192/4 223/221/4 236/230/4
f 236/230/4 223/221/4 222/223/4 237/231/4
f 237/231/4 222/223/4 221/218/4 238/217/4
f 143/232/4 133/233/4 141/234/4 149/235/4
f 133/233/4 247/236/4 146/237/4 141/234/4
f 247/236/4 245/238/4 147/239/4 146/237/4
f 245/238/4 239/240/4 148/241/4 147/239/4
f 145/242/4 144/243/4 150/244/4 142/245/4
f 125/246/4 244/135/4 152/138/4 126/247/4
f 239/240/4 125/246/4 126/247/4 148/241/4
f 137/143/4 243/145/4 139/148/4 153/144/4
f 248/149/4 241/151/4 140/154/4 155/150/4
f 240/152/4 135/131/4 130/134/4 129/153/4
f 242/248/4 145/242/4 142/245/4
f 144/243/4 143/232/4 149/235/4 150/244/4
g amber_end_2_Plane.001_tyl
usemtl tyl
f 56/62/5 69/64/5 193/188/5 180/186/5
f 9/111/5 123/113/5 247/236/5 133/233/5
f 48/45/5 49/46/5 173/170/5 172/169/5
f 123/113/5 121/115/5 245/238/5 247/236/5
f 49/46/6 50/47/6 174/171/6 173/170/6
f 88/79/5 87/92/5 211/216/5 212/203/5
f 57/63/5 56/62/5 180/186/5 181/187/5
f 121/115/5 115/117/5 239/240/5 245/238/5
f 50/47/5 51/31/5 175/155/5 174/171/5
f 21/118/5 20/121/5 144/243/5 145/242/5
f 1/122/5 120/11/5 244/135/5 125/246/5
f 115/117/5 1/122/5 125/246/5 239/240/5
f 13/20/5 119/21/5 243/145/5 137/143/5
f 124/26/5 117/27/5 241/151/5 248/149/5
f 92/34/5 114/93/5 238/217/5 216/156/5
f 116/30/5 11/7/5 135/131/5 240/152/5
f 11/7/5 43/10/5 167/132/5 135/131/5
f 118/124/5 21/118/5 145/242/5 242/248/5
f 78/89/5 81/88/5 205/212/5 202/213/5
f 20/121/5 19/108/5 143/232/5 144/243/5
f 42/5/7 44/41/7 168/165/7 166/129/7
f 81/88/5 65/83/5 189/207/5 205/212/5
f 106/100/5 57/63/5 181/187/5 230/224/5
f 65/83/5 73/82/5 197/206/5 189/207/5
f 107/101/5 106/100/5 230/224/5 231/225/5
f 82/73/5 78/89/5 202/213/5 206/197/5
f 66/74/5 82/73/5 206/197/5 190/200/5
f 51/31/5 92/34/5 216/156/5 175/155/5
f 108/102/8 107/101/8 231/225/8 232/226/8
f 109/103/5 108/102/5 232/226/5 233/227/5
f 120/11/5 122/14/5 246/136/5 244/135/5
f 110/104/5 109/103/5 233/227/5 234/228/5
f 117/27/5 116/30/5 240/152/5 241/151/5
f 43/10/5 42/5/5 166/129/5 167/132/5
f 111/105/5 110/104/5 234/228/5 235/229/5
f 119/21/5 14/24/5 138/146/5 243/145/5
f 44/41/5 45/42/5 169/166/5 168/165/5
f 112/106/5 111/105/5 235/229/5 236/230/5
f 69/64/5 88/79/5 212/203/5 193/188/5
f 14/24/5 124/26/5 248/149/5 138/146/5
f 45/42/5 46/43/5 170/167/5 169/166/5
f 113/107/5 112/106/5 236/230/5 237/231/5
f 122/14/5 13/20/5 137/143/5 246/136/5
f 46/43/5 47/44/5 171/168/5 170/167/5
f 114/93/5 113/107/5 237/231/5 238/217/5
f 87/92/5 66/74/5 190/200/5 211/216/5
f 19/108/5 9/111/5 133/233/5 143/232/5
f 47/44/5 48/45/5 172/169/5 171/168/5
g amber_end_2_Plane.001_front_shine
usemtl front_shine
f 2/123/9 24/116/9 148/241/9 126/247/9
f 17/110/10 25/109/10 149/235/10 141/234/10
f 74/72/11 52/71/11 176/195/11 198/194/11
f 25/109/12 26/120/12 150/244/12 149/235/12
f 73/82/13 75/69/13 199/193/13 197/206/13
f 75/69/13 74/72/13 198/194/13 199/193/13
f 27/13/14 28/12/14 152/138/14 151/137/14
f 18/119/15 118/124/15 242/248/15 142/245/15
f 28/12/16 2/123/16 126/247/16 152/138/16
f 52/71/17 80/87/17 204/209/17 176/195/17
f 22/112/18 17/110/18 141/234/18 146/237/18
f 26/120/19 18/119/19 142/245/19 150/244/19
f 23/114/20 22/112/20 146/237/20 147/239/20
f 24/116/21 23/114/21 147/239/21 148/241/21
g amber_end_2_Plane.001_front
usemtl front
f 34/9/22 6/8/22 130/134/22 158/133/22
f 89/81/23 70/57/23 194/179/23 213/205/23
f 58/59/24 96/61/24 220/184/24 182/182/24
f 3/3/25 32/2/25 156/128/25 127/127/25
f 32/2/26 33/6/26 157/130/26 156/128/26
f 94/51/27 53/50/27 177/174/27 218/173/27
f 7/17/28 4/15/28 128/140/28 131/142/28
f 95/53/29 94/51/29 218/173/29 219/177/29
f 29/19/30 27/13/30 151/137/30 153/144/30
f 59/68/31 60/97/31 184/220/31 183/191/31
f 54/66/32 59/68/32 183/191/32 178/189/32
f 4/15/33 3/3/33 127/127/33 128/140/33
f 64/95/34 91/36/34 215/159/34 188/219/34
f 77/86/35 84/78/35 208/201/35 201/210/35
f 15/22/36 29/19/36 153/144/36 139/148/36
f 12/35/37 10/39/37 134/164/37 136/160/37
f 53/50/38 54/66/38 178/189/38 177/174/38
f 10/39/39 8/37/39 132/162/39 134/164/39
f 31/25/40 30/23/40 154/147/40 155/150/40
f 30/23/41 15/22/41 139/148/41 154/147/41
f 80/87/42 77/86/42 201/210/42 204/209/42
f 61/99/43 64/95/43 188/219/43 185/222/43
f 16/28/44 31/25/44 155/150/44 140/154/44
f 60/97/45 61/99/45 185/222/45 184/220/45
f 5/29/46 16/28/46 140/154/46 129/153/46
f 8/37/47 7/17/47 131/142/47 132/162/47
f 67/77/40 85/91/40 209/214/40 191/202/40
f 91/36/48 12/35/48 136/160/48 215/159/48
f 84/78/49 67/77/49 191/202/49 208/201/49
f 85/91/41 89/81/41 213/205/41 209/214/41
f 96/61/50 95/53/50 219/177/50 220/184/50
f 70/57/51 55/56/51 179/180/51 194/179/51
f 33/6/52 34/9/52 158/133/52 157/130/52
f 55/56/53 58/59/53 182/182/53 179/180/53
f 6/8/54 5/29/54 129/153/54 130/134/54
