<?xml version="1.0" encoding="utf-8"?>
<COLLADA xmlns="http://www.collada.org/2005/11/COLLADASchema" version="1.4.1" xmlns:xsi="http://www.w3.org/2001/XMLSchema-instance">
  <asset>
    <contributor>
      <author>Blender User</author>
      <authoring_tool>Blender 3.2.0 commit date:2022-06-08, commit time:10:22, hash:e05e1e369187</authoring_tool>
    </contributor>
    <created>2023-03-08T13:26:19</created>
    <modified>2023-03-08T13:26:19</modified>
    <unit name="meter" meter="1"/>
    <up_axis>Z_UP</up_axis>
  </asset>
  <library_effects>
    <effect id="front_shine-effect">
      <profile_COMMON>
        <technique sid="common">
          <lambert>
            <emission>
              <color sid="emission">0 0 0 1</color>
            </emission>
            <diffuse>
              <color sid="diffuse">0.8 0.8 0.8 1</color>
            </diffuse>
            <index_of_refraction>
              <float sid="ior">1.45</float>
            </index_of_refraction>
          </lambert>
        </technique>
      </profile_COMMON>
    </effect>
    <effect id="front-effect">
      <profile_COMMON>
        <technique sid="common">
          <lambert>
            <emission>
              <color sid="emission">0 0 0 1</color>
            </emission>
            <diffuse>
              <color sid="diffuse">0.8 0.8 0.8 1</color>
            </diffuse>
            <index_of_refraction>
              <float sid="ior">1.45</float>
            </index_of_refraction>
          </lambert>
        </technique>
      </profile_COMMON>
    </effect>
    <effect id="tyl-effect">
      <profile_COMMON>
        <technique sid="common">
          <lambert>
            <emission>
              <color sid="emission">0 0 0 1</color>
            </emission>
            <diffuse>
              <color sid="diffuse">0.8 0.8 0.8 1</color>
            </diffuse>
            <index_of_refraction>
              <float sid="ior">1.45</float>
            </index_of_refraction>
          </lambert>
        </technique>
      </profile_COMMON>
    </effect>
    <effect id="gora_dol-effect">
      <profile_COMMON>
        <technique sid="common">
          <lambert>
            <emission>
              <color sid="emission">0 0 0 1</color>
            </emission>
            <diffuse>
              <color sid="diffuse">0.8 0.8 0.8 1</color>
            </diffuse>
            <index_of_refraction>
              <float sid="ior">1.45</float>
            </index_of_refraction>
          </lambert>
        </technique>
      </profile_COMMON>
    </effect>
  </library_effects>
  <library_images/>
  <library_materials>
    <material id="front_shine-material" name="front_shine">
      <instance_effect url="#front_shine-effect"/>
    </material>
    <material id="front-material" name="front">
      <instance_effect url="#front-effect"/>
    </material>
    <material id="tyl-material" name="tyl">
      <instance_effect url="#tyl-effect"/>
    </material>
    <material id="gora_dol-material" name="gora_dol">
      <instance_effect url="#gora_dol-effect"/>
    </material>
  </library_materials>
  <library_geometries>
    <geometry id="Plane-mesh" name="Plane">
      <mesh>
        <source id="Plane-mesh-positions">
          <float_array id="Plane-mesh-positions-array" count="906">-0.03519803 -0.00484097 1.35 -0.01747542 0.00678575 1.35 -0.004669547 0.004907965 1.35 -0.002581775 0.004678845 1.35 -0.01518076 0.006853044 1.35 -0.01518076 -0.00484097 1.35 -0.01302063 -0.003812909 1.35 -0.01302063 0.00633192 1.35 -4.94063e-4 0.004464745 1.35 0.001593649 0.004312455 1.35 -0.03519803 1.44992e-4 1.35 0.003681421 0.0042122 1.35 -0.01518076 1.44992e-4 1.35 -0.01302063 7.45742e-4 1.35 0.005769193 0.004146575 1.35 -0.01747542 -0.00484097 1.35 -0.02000504 -0.00484097 1.35 -0.02000504 1.44992e-4 1.35 -0.01694488 -0.00484097 1.35 -0.01694488 0.007154285 1.35 -0.01694488 1.44992e-4 1.35 -0.01632004 -0.00484097 1.35 -0.01632004 0.007142603 1.35 -0.01632004 1.44992e-4 1.35 -0.01927644 6.05309e-4 1.35 -0.01927644 1.44992e-4 1.35 -0.01927644 -0.00484097 1.35 -0.01747542 1.44992e-4 1.35 -0.01837593 -0.00484097 1.35 -0.01837593 0.003695487 1.35 -0.01837593 1.44992e-4 1.35 -0.01907241 9.29233e-4 1.35 -0.01907241 1.44992e-4 1.35 -0.01907241 -0.00484097 1.35 -0.01964074 1.44992e-4 1.35 -0.01964074 -0.00484097 1.35 -0.01964074 3.13582e-4 1.35 -0.01792567 -0.00484097 1.35 -0.01792567 0.005361557 1.35 -0.01792567 1.44992e-4 1.35 -0.01770055 -0.00484097 1.35 -0.01770055 0.006226062 1.35 -0.01770055 1.44992e-4 1.35 -0.01758795 -0.00484097 1.35 -0.01758795 0.006559133 1.35 -0.01758795 1.44992e-4 1.35 -0.01872414 -0.00484097 1.35 -0.01872414 0.002249479 1.35 -0.01872414 1.44992e-4 1.35 -0.01900273 0.001130342 1.35 -0.01900273 1.44992e-4 1.35 -0.01900273 -0.00484097 1.35 -0.01721012 1.44992e-4 1.35 -0.01721012 0.007023692 1.35 -0.01721012 -0.00484097 1.35 -0.01734274 1.44992e-4 1.35 -0.01734274 0.006930351 1.35 -0.01734274 -0.00484097 1.35 -0.0170775 -0.00484097 1.35 -0.0170775 1.44992e-4 1.35 -0.0170775 0.007095992 1.35 -0.01663243 0.007158935 1.35 -0.01663243 1.44992e-4 1.35 -0.01663243 -0.00484097 1.35 -0.01647627 -0.00484097 1.35 -0.01647627 0.00715661 1.35 -0.01647627 1.44992e-4 1.35 -0.006757318 0.005198955 1.35 -0.00884509 0.00554192 1.35 -0.01093286 0.005919575 1.35 0.005769193 7.45742e-4 1.35 0.003681421 7.45742e-4 1.35 0.001593649 7.45742e-4 1.35 -4.94063e-4 7.45742e-4 1.35 -0.002581775 7.45742e-4 1.35 -0.004669547 7.45742e-4 1.35 -0.006757318 7.45742e-4 1.35 -0.00884509 7.45742e-4 1.35 -0.01093286 7.45742e-4 1.35 -0.01093286 -0.003812909 1.35 -0.00884509 -0.003812909 1.35 -0.006757318 -0.003812909 1.35 -0.004669547 -0.003812909 1.35 -0.002581775 -0.003812909 1.35 -4.94063e-4 -0.003812909 1.35 0.001593649 -0.003812909 1.35 0.003681421 -0.003812909 1.35 0.005769193 -0.003812909 1.35 0.03318935 0.00678575 1.35 0.02038353 0.004907965 1.35 0.01829576 0.004678845 1.35 0.03089469 0.006853044 1.35 0.03089469 -0.00484097 1.35 0.02873456 -0.00484097 1.35 0.02873456 0.00633192 1.35 0.01620799 0.004464745 1.35 0.01412022 0.004312455 1.35 0.0120325 0.0042122 1.35 0.03089469 1.44992e-4 1.35 0.02873456 7.45742e-4 1.35 0.009944736 0.004146575 1.35 0.03318935 -0.00484097 1.35 0.03265881 -0.00484097 1.35 0.03265881 0.007154285 1.35 0.03265881 1.44992e-4 1.35 0.03203403 -0.00484097 1.35 0.03203403 0.007142603 1.35 0.03203403 1.44992e-4 1.35 0.03318935 1.44992e-4 1.35 0.03330194 -0.00484097 1.35 0.03330194 0.006559133 1.35 0.03330194 1.44992e-4 1.35 0.03292411 1.44992e-4 1.35 0.03292411 0.007023692 1.35 0.03292411 -0.00484097 1.35 0.03305673 1.44992e-4 1.35 0.03305673 0.006930351 1.35 0.03305673 -0.00484097 1.35 0.03279149 -0.00484097 1.35 0.03279149 1.44992e-4 1.35 0.03279149 0.007095992 1.35 0.03234642 0.007158935 1.35 0.03234642 1.44992e-4 1.35 0.03234642 -0.00484097 1.35 0.03219026 -0.00484097 1.35 0.03219026 0.00715661 1.35 0.03219026 1.44992e-4 1.35 0.007856965 0.004115641 1.35 0.007856965 -0.003812909 1.35 0.007856965 7.45742e-4 1.35 0.02273011 0.005241453 1.35 0.02485466 0.005595386 1.35 0.02664679 0.005919575 1.35 0.009944736 7.45742e-4 1.35 0.0120325 7.45742e-4 1.35 0.01412022 7.45742e-4 1.35 0.01620799 7.45742e-4 1.35 0.01829576 7.45742e-4 1.35 0.02038353 7.45742e-4 1.35 0.02273011 7.45742e-4 1.35 0.02485466 7.45742e-4 1.35 0.02664679 7.45742e-4 1.35 0.02664679 -0.00484097 1.35 0.02485466 -0.00484097 1.35 0.02273011 -0.003812909 1.35 0.02038353 -0.003812909 1.35 0.01829576 -0.003812909 1.35 0.01620799 -0.003812909 1.35 0.01412022 -0.003812909 1.35 0.0120325 -0.003812909 1.35 0.009944736 -0.003812909 1.35 -0.03519803 -0.00484097 -1.35 -0.01747542 0.00678575 -1.35 -0.004669547 0.004907965 -1.35 -0.002581775 0.004678845 -1.35 -0.01518076 0.006853044 -1.35 -0.01518076 -0.00484097 -1.35 -0.01302063 -0.003812909 -1.35 -0.01302063 0.00633192 -1.35 -4.94063e-4 0.004464745 -1.35 0.001593649 0.004312455 -1.35 -0.03519803 1.44992e-4 -1.35 0.003681421 0.0042122 -1.35 -0.01518076 1.44992e-4 -1.35 -0.01302063 7.45742e-4 -1.35 0.005769193 0.004146575 -1.35 -0.01747542 -0.00484097 -1.35 -0.02000504 -0.00484097 -1.35 -0.02000504 1.44992e-4 -1.35 -0.01694488 -0.00484097 -1.35 -0.01694488 0.007154285 -1.35 -0.01694488 1.44992e-4 -1.35 -0.01632004 -0.00484097 -1.35 -0.01632004 0.007142603 -1.35 -0.01632004 1.44992e-4 -1.35 -0.01927644 6.05309e-4 -1.35 -0.01927644 1.44992e-4 -1.35 -0.01927644 -0.00484097 -1.35 -0.01747542 1.44992e-4 -1.35 -0.01837593 -0.00484097 -1.35 -0.01837593 0.003695487 -1.35 -0.01837593 1.44992e-4 -1.35 -0.01907241 9.29233e-4 -1.35 -0.01907241 1.44992e-4 -1.35 -0.01907241 -0.00484097 -1.35 -0.01964074 1.44992e-4 -1.35 -0.01964074 -0.00484097 -1.35 -0.01964074 3.13582e-4 -1.35 -0.01792567 -0.00484097 -1.35 -0.01792567 0.005361557 -1.35 -0.01792567 1.44992e-4 -1.35 -0.01770055 -0.00484097 -1.35 -0.01770055 0.006226062 -1.35 -0.01770055 1.44992e-4 -1.35 -0.01758795 -0.00484097 -1.35 -0.01758795 0.006559133 -1.35 -0.01758795 1.44992e-4 -1.35 -0.01872414 -0.00484097 -1.35 -0.01872414 0.002249479 -1.35 -0.01872414 1.44992e-4 -1.35 -0.01900273 0.001130342 -1.35 -0.01900273 1.44992e-4 -1.35 -0.01900273 -0.00484097 -1.35 -0.01721012 1.44992e-4 -1.35 -0.01721012 0.007023692 -1.35 -0.01721012 -0.00484097 -1.35 -0.01734274 1.44992e-4 -1.35 -0.01734274 0.006930351 -1.35 -0.01734274 -0.00484097 -1.35 -0.0170775 -0.00484097 -1.35 -0.0170775 1.44992e-4 -1.35 -0.0170775 0.007095992 -1.35 -0.01663243 0.007158935 -1.35 -0.01663243 1.44992e-4 -1.35 -0.01663243 -0.00484097 -1.35 -0.01647627 -0.00484097 -1.35 -0.01647627 0.00715661 -1.35 -0.01647627 1.44992e-4 -1.35 -0.006757318 0.005198955 -1.35 -0.00884509 0.00554192 -1.35 -0.01093286 0.005919575 -1.35 0.005769193 7.45742e-4 -1.35 0.003681421 7.45742e-4 -1.35 0.001593649 7.45742e-4 -1.35 -4.94063e-4 7.45742e-4 -1.35 -0.002581775 7.45742e-4 -1.35 -0.004669547 7.45742e-4 -1.35 -0.006757318 7.45742e-4 -1.35 -0.00884509 7.45742e-4 -1.35 -0.01093286 7.45742e-4 -1.35 -0.01093286 -0.003812909 -1.35 -0.00884509 -0.003812909 -1.35 -0.006757318 -0.003812909 -1.35 -0.004669547 -0.003812909 -1.35 -0.002581775 -0.003812909 -1.35 -4.94063e-4 -0.003812909 -1.35 0.001593649 -0.003812909 -1.35 0.003681421 -0.003812909 -1.35 0.005769193 -0.003812909 -1.35 0.03318935 0.00678575 -1.35 0.02038353 0.004907965 -1.35 0.01829576 0.004678845 -1.35 0.03089469 0.006853044 -1.35 0.03089469 -0.00484097 -1.35 0.02873456 -0.00484097 -1.35 0.02873456 0.00633192 -1.35 0.01620799 0.004464745 -1.35 0.01412022 0.004312455 -1.35 0.0120325 0.0042122 -1.35 0.03089469 1.44992e-4 -1.35 0.02873456 7.45742e-4 -1.35 0.009944736 0.004146575 -1.35 0.03318935 -0.00484097 -1.35 0.03265881 -0.00484097 -1.35 0.03265881 0.007154285 -1.35 0.03265881 1.44992e-4 -1.35 0.03203403 -0.00484097 -1.35 0.03203403 0.007142603 -1.35 0.03203403 1.44992e-4 -1.35 0.03318935 1.44992e-4 -1.35 0.03330194 -0.00484097 -1.35 0.03330194 0.006559133 -1.35 0.03330194 1.44992e-4 -1.35 0.03292411 1.44992e-4 -1.35 0.03292411 0.007023692 -1.35 0.03292411 -0.00484097 -1.35 0.03305673 1.44992e-4 -1.35 0.03305673 0.006930351 -1.35 0.03305673 -0.00484097 -1.35 0.03279149 -0.00484097 -1.35 0.03279149 1.44992e-4 -1.35 0.03279149 0.007095992 -1.35 0.03234642 0.007158935 -1.35 0.03234642 1.44992e-4 -1.35 0.03234642 -0.00484097 -1.35 0.03219026 -0.00484097 -1.35 0.03219026 0.00715661 -1.35 0.03219026 1.44992e-4 -1.35 0.007856965 0.004115641 -1.35 0.007856965 -0.003812909 -1.35 0.007856965 7.45742e-4 -1.35 0.02273011 0.005241453 -1.35 0.02485466 0.005595386 -1.35 0.02664679 0.005919575 -1.35 0.009944736 7.45742e-4 -1.35 0.0120325 7.45742e-4 -1.35 0.01412022 7.45742e-4 -1.35 0.01620799 7.45742e-4 -1.35 0.01829576 7.45742e-4 -1.35 0.02038353 7.45742e-4 -1.35 0.02273011 7.45742e-4 -1.35 0.02485466 7.45742e-4 -1.35 0.02664679 7.45742e-4 -1.35 0.02664679 -0.00484097 -1.35 0.02485466 -0.00484097 -1.35 0.02273011 -0.003812909 -1.35 0.02038353 -0.003812909 -1.35 0.01829576 -0.003812909 -1.35 0.01620799 -0.003812909 -1.35 0.01412022 -0.003812909 -1.35 0.0120325 -0.003812909 -1.35 0.009944736 -0.003812909 -1.35</float_array>
          <technique_common>
            <accessor source="#Plane-mesh-positions-array" count="302" stride="3">
              <param name="X" type="float"/>
              <param name="Y" type="float"/>
              <param name="Z" type="float"/>
            </accessor>
          </technique_common>
        </source>
        <source id="Plane-mesh-normals">
          <float_array id="Plane-mesh-normals-array" count="534">-5.00855e-5 0 1 5.81298e-6 0 1 -1.16816e-4 0 1 1.28544e-4 0 1 -9.9819e-6 0 1 -9.69967e-5 0 1 -8.64699e-5 0 1 0 0 1 2.21046e-4 0 1 -7.79746e-5 0 1 2.12596e-4 0 1 -1.27426e-4 0 1 -6.55842e-5 0 1 -1.12451e-5 0 1 -7.81673e-6 0 1 -1.40751e-5 0 1 -1.68714e-4 0 1 5.8848e-5 0 1 0 0 -1 6.42719e-5 0 -1 6.48524e-5 0 -1 -7.72449e-5 0 -1 1.35584e-4 0 -1 2.19028e-5 0 -1 -1.39747e-4 0 -1 -1.25551e-5 0 -1 -5.35869e-5 0 -1 9.92404e-5 0 -1 -2.59102e-4 0 -1 -4.25881e-4 0 -1 1.74208e-5 0 -1 4.49801e-5 0 -1 -8.59843e-5 0 -1 5.42896e-5 0 -1 0 -1 0 -0.5753458 0.8179103 0 0.4024164 0.9154568 0 0.01481509 0.9998903 0 -0.1779972 0.9840311 0 -0.0149343 0.9998885 0 -0.2345174 0.9721119 0 -0.4024208 0.9154549 0 -0.9653675 0.2608941 0 0.01493078 0.9998885 0 -0.1937506 0.9810509 0 -0.08926731 0.9960078 0 -0.9449603 0.3271851 0 -1 0 0 -0.140702 0.9900521 0 -0.1643249 0.9864063 0 -0.1020157 0.9947829 0 -0.07274776 0.9973504 0 0.1779975 0.984031 0 0.08927613 0.996007 0 0.2345168 0.9721121 0 -0.01481485 0.9998903 0 -0.1091037 0.9940304 0 -0.6250672 0.7805709 0 0.4297463 -0.9029497 0 0.07274782 0.9973505 0 0.1937502 0.9810509 0 -0.03140842 0.9995067 0 -0.9677241 0.2520124 0 -0.04797494 0.9988486 0 0.1380344 0.9904275 0 0.7370211 0.6758698 0 0.1621059 0.9867734 0 0.1020154 0.9947828 0 -0.419976 0.9075352 0 0.01493376 0.9998885 0 -0.4355866 -0.9001469 0 -0.9473572 0.3201788 0 0.1091039 0.9940304 0 -0.2463476 0.9691815 0 -0.8956056 0.444849 0 0 1 0 0.03140825 0.9995067 0 0.04797524 0.9988486 0 -0.7370071 0.675885 0 -0.9722045 0.2341336 0 0.8956053 0.4448497 0 1 0 0 -0.970382 0.2415755 0 -0.01493579 0.9998885 0 0.4786196 0.8780224 0 0.2463483 0.9691814 0 -0.478632 0.8780156 0 0.5753478 0.817909 0 -0.8461478 0.5329484 0 -5.78847e-5 0 1 3.54659e-5 0 1 -1.55738e-4 0 1 -5.47839e-4 0 0.9999999 -1.88303e-4 0 1 -3.63784e-4 0 1 1.98252e-4 0 1 -8.06201e-4 0 0.9999997 -3.9711e-4 0 1 -8.48124e-4 0 0.9999997 6.3799e-5 0 1 -9.70144e-5 0 1 0.001167953 0 0.9999994 1.49013e-4 0 1 -1.5449e-4 0 1 1.52532e-4 0 1 4.38056e-5 0 1 1.5436e-4 0 1 -1.19783e-4 0 1 -4.01902e-5 0 1 1.13418e-4 0 1 0.002491772 0 0.9999969 0.00200349 0 0.999998 -2.5578e-4 0 1 -0.002041518 0 0.9999979 0.001275122 0 0.9999993 1.94703e-5 0 1 5.62251e-5 0 1 -8.2076e-5 0 1 5.83111e-5 0 1 -3.75641e-5 0 -1 2.32519e-5 0 -1 -1.02214e-4 0 -1 9.9819e-6 0 -1 -1.72439e-4 0 -1 2.27744e-4 0 -1 -1.77215e-4 0 -1 2.1924e-4 0 -1 -7.94219e-4 0 -0.9999997 -0.003392457 0 -0.9999943 0.002020299 0 -0.999998 -1.26596e-4 0 -1 -6.35347e-5 0 -1 1.16199e-4 0 -1 -8.04291e-6 0 -1 8.68274e-5 0 -1 -7.7172e-5 0 -1 -4.67213e-4 0 -0.9999999 -7.66975e-4 0 -0.9999998 -0.001371622 0 -0.9999991 1.61691e-4 0 -1 0.001594126 0 -0.9999988 4.25861e-4 0 -1 -0.5753538 0.8179047 0 0.4024304 0.9154506 0 -0.1779977 0.984031 0 -0.01493483 0.9998885 0 -0.4024137 0.9154579 0 0.01493108 0.9998885 0 -0.08926421 0.996008 0 -0.1407022 0.9900521 0 -0.1643251 0.9864062 0 -0.07274782 0.9973505 0 0.1779974 0.984031 0 0.08927458 0.9960072 0 0.234517 0.9721121 0 -0.6250643 0.7805733 0 0.4297459 -0.9029499 0 0.1937503 0.981051 0 -0.03140842 0.9995067 0 -0.9677233 0.2520152 0 -0.047975 0.9988486 0 0.1380343 0.9904276 0 0.7370071 0.675885 0 0.1020154 0.9947828 0 -0.4199734 0.9075364 0 0.01493406 0.9998885 0 -0.4355861 -0.9001471 0 -0.9473595 0.3201717 0 0.109104 0.9940304 0 -0.2463476 0.9691815 0 -0.89561 0.4448403 0 0.03140825 0.9995067 0 -0.7370141 0.6758774 0 -0.9722049 0.2341319 0 -0.01493567 0.9998885 0 -0.4786321 0.8780157 0 0.5753638 0.8178977 0 -0.8461445 0.5329536 0</float_array>
          <technique_common>
            <accessor source="#Plane-mesh-normals-array" count="178" stride="3">
              <param name="X" type="float"/>
              <param name="Y" type="float"/>
              <param name="Z" type="float"/>
            </accessor>
          </technique_common>
        </source>
        <source id="Plane-mesh-map-0">
          <float_array id="Plane-mesh-map-0-array" count="3600">0.4151484 0.4156627 0.4456235 0.9425132 0.4151485 0.9381386 0.3846734 0.4156626 0.4151485 0.9381386 0.3846734 0.9337639 0.2755612 0.4156627 0.2921918 0.9748852 0.2755612 1 0.3237233 0.4156627 0.2921918 0.9748852 0.2921918 0.4156627 0.3237233 0.4156627 0.3541984 0.9293892 0.3237233 0.9250146 0.3541984 0.4156627 0.3846734 0.9337639 0.3541984 0.9293892 0.3237233 0 0.2921918 0.4156627 0.2921918 0 0.2921918 0 0.2755612 0.4156627 0.2755612 0 0.4456235 0.4156627 0.4760985 0.9468879 0.4456235 0.9425132 0.4760985 0.4156627 0.5065736 0.9512625 0.4760985 0.9468879 0.2217715 0 0 0.4156627 0 0 0.2586968 0.4156627 0.2570537 1 0.2570537 0.4156627 0.2664411 0 0.264505 0.4156627 0.264505 0 0.2664411 0.4156627 0.264505 1 0.264505 0.4156627 0.2755612 0 0.2732812 0.4156627 0.2732812 0 0.2732812 0.4156627 0.2755612 1 0.2732812 1 0.2217715 0.4156627 0.2270893 0.4156627 0.2270893 0.7078321 0.2324071 0 0.2270893 0.4156627 0.2270893 0 0.2586968 0 0.2570537 0.4156627 0.2570537 0 0.245552 0 0.2404686 0.4156627 0.2404686 0 0.245552 0.4156627 0.2404686 1 0.2404686 0.4156627 0.2353852 0.4156627 0.2324071 1 0.2324071 0.4156627 0.2353852 0 0.2324071 0.4156627 0.2324071 0 0.2270893 0 0.2217715 0.4156627 0.2217715 0 0.2521244 0 0.245552 0.4156627 0.245552 0 0.2270893 0.7078321 0.2324071 0.4156627 0.2324071 1 0.2521244 0.4156627 0.245552 1 0.245552 0.4156627 0.2554106 0 0.2521244 0.4156627 0.2521244 0 0.2554106 0.4156627 0.2521244 1 0.2521244 0.4156627 0.2570537 0 0.2554106 0.4156627 0.2554106 0 0.2570537 0.4156627 0.2554106 1 0.2554106 0.4156627 0.2404686 0.4156627 0.2364019 1 0.2364019 0.4156627 0.2404686 0 0.2364019 0.4156627 0.2364019 0 0.2364019 0 0.2353852 0.4156627 0.2353852 0 0.2364019 0.4156627 0.2353852 1 0.2353852 0.4156627 0.262569 0.4156627 0.2606329 1 0.2606329 0.4156627 0.262569 0 0.2606329 0.4156627 0.2606329 0 0.2606329 0 0.2586968 0.4156627 0.2586968 0 0.2606329 0.4156627 0.2586968 1 0.2586968 0.4156627 0.264505 0.4156627 0.262569 1 0.262569 0.4156627 0.264505 0 0.262569 0.4156627 0.262569 0 0.2710011 0.4156627 0.2664411 1 0.2664411 0.4156627 0.2710011 0 0.2664411 0.4156627 0.2664411 0 0.2710011 0.4156627 0.2732812 1 0.2710011 1 0.2732812 0 0.2710011 0.4156627 0.2710011 0 0.6284736 0 0.5979986 0.4156627 0.5979986 0 0.5979986 0.4156627 0.6284738 0.9687609 0.5979987 0.9643863 0.5065736 0.4156627 0.5370487 0.955637 0.5065736 0.9512625 0.5370486 0.4156627 0.5675237 0.9600117 0.5370487 0.955637 0.5675236 0.4156627 0.5979987 0.9643863 0.5675237 0.9600117 0.3541983 0 0.3237233 0.4156627 0.3237233 0 0.3846734 0 0.3541984 0.4156627 0.3541983 0 0.4151484 0 0.3846734 0.4156626 0.3846734 0 0.4456235 0 0.4151484 0.4156627 0.4151484 0 0.4760985 0 0.4456235 0.4156627 0.4456235 0 0.5065735 0 0.4760985 0.4156627 0.4760985 0 0.5370486 0 0.5065736 0.4156627 0.5065735 0 0.5675236 0 0.5370486 0.4156627 0.5370486 0 0.5979986 0 0.5675236 0.4156627 0.5675236 0 0.4113705 0.4156627 0.4456235 0.9425132 0.4456235 0.4156627 0.3803583 0.4156626 0.4113706 0.9375963 0.4113705 0.4156627 0.2755612 0.4156627 0.2921918 0.9748852 0.2921918 0.4156627 0.2921918 0.9748852 0.3237233 0.4156627 0.2921918 0.4156627 0.3237233 0.4156627 0.3541984 0.9293892 0.3541984 0.4156627 0.3541984 0.4156627 0.3803583 0.9331445 0.3803583 0.4156626 0.2921918 0.4156627 0.3237233 0 0.2921918 0 0.2755612 0.4156627 0.2921918 0 0.2755612 0 0.4456235 0.4156627 0.4760985 0.9468879 0.4760985 0.4156627 0.4760985 0.4156627 0.5065736 0.9512625 0.5065736 0.4156627 0.2570537 1 0.2586968 0.4156627 0.2570537 0.4156627 0.264505 0.4156627 0.2664411 0 0.264505 0 0.264505 1 0.2664411 0.4156627 0.264505 0.4156627 0.2732812 0.4156627 0.2755612 0 0.2732812 0 0.2732812 0.4156627 0.2755612 1 0.2755612 0.4156627 0.2570537 0.4156627 0.2586968 0 0.2570537 0 0.2606329 1 0.262569 0.4156627 0.2606329 0.4156627 0.2606329 0.4156627 0.262569 0 0.2606329 0 0.2586968 0.4156627 0.2606329 0 0.2586968 0 0.2586968 1 0.2606329 0.4156627 0.2586968 0.4156627 0.262569 1 0.264505 0.4156627 0.262569 0.4156627 0.262569 0.4156627 0.264505 0 0.262569 0 0.2664411 1 0.2710011 0.4156627 0.2664411 0.4156627 0.2664411 0.4156627 0.2710011 0 0.2664411 0 0.2710011 0.4156627 0.2732812 1 0.2732812 0.4156627 0.2710011 0.4156627 0.2732812 0 0.2710011 0 0.5979986 0.4156627 0.6284736 0 0.5979986 0 0.5979986 0.4156627 0.6284738 0.9687609 0.6284736 0.4156627 0.5065736 0.4156627 0.5370487 0.955637 0.5370486 0.4156627 0.5370486 0.4156627 0.5675237 0.9600117 0.5675236 0.4156627 0.5675236 0.4156627 0.5979987 0.9643863 0.5979986 0.4156627 0.3237233 0.4156627 0.3541983 0 0.3237233 0 0.3541984 0.4156627 0.3803583 0 0.3541983 0 0.3803583 0.4156626 0.4113705 0 0.3803583 0 0.4113705 0.4156627 0.4456235 0 0.4113705 0 0.4456235 0.4156627 0.4760985 0 0.4456235 0 0.4760985 0.4156627 0.5065735 0 0.4760985 0 0.5065736 0.4156627 0.5370486 0 0.5065735 0 0.5370486 0.4156627 0.5675236 0 0.5370486 0 0.5675236 0.4156627 0.5979986 0 0.5675236 0 0.4151484 0.4156627 0.4456235 0.9425132 0.4456235 0.4156627 0.3846734 0.4156626 0.4151485 0.9381386 0.4151484 0.4156627 0.2755612 0.4156627 0.2921918 0.9748852 0.2921918 0.4156627 0.2921918 0.9748852 0.3237233 0.4156627 0.2921918 0.4156627 0.3237233 0.4156627 0.3541984 0.9293892 0.3541984 0.4156627 0.3541984 0.4156627 0.3846734 0.9337639 0.3846734 0.4156626 0.2921918 0.4156627 0.3237233 0 0.2921918 0 0.2755612 0.4156627 0.2921918 0 0.2755612 0 0.4456235 0.4156627 0.4760985 0.9468879 0.4760985 0.4156627 0.4760985 0.4156627 0.5065736 0.9512625 0.5065736 0.4156627 0 0.4156627 0.2217715 0 0 0 0.2570537 1 0.2586968 0.4156627 0.2570537 0.4156627 0.264505 0.4156627 0.2664411 0 0.264505 0 0.264505 1 0.2664411 0.4156627 0.264505 0.4156627 0.2732812 0.4156627 0.2755612 0 0.2732812 0 0.2732812 0.4156627 0.2755612 1 0.2755612 0.4156627 0.2217715 0.4156627 0.2270893 0.7078321 0.2270893 0.4156627 0.2270893 0.4156627 0.2324071 0 0.2270893 0 0.2570537 0.4156627 0.2586968 0 0.2570537 0 0.2404686 0.4156627 0.245552 0 0.2404686 0 0.2404686 1 0.245552 0.4156627 0.2404686 0.4156627 0.2324071 1 0.2353852 0.4156627 0.2324071 0.4156627 0.2324071 0.4156627 0.2353852 0 0.2324071 0 0.2217715 0.4156627 0.2270893 0 0.2217715 0 0.245552 0.4156627 0.2521244 0 0.245552 0 0.2270893 0.7078321 0.2324071 0.4156627 0.2270893 0.4156627 0.245552 1 0.2521244 0.4156627 0.245552 0.4156627 0.2521244 0.4156627 0.2554106 0 0.2521244 0 0.2521244 1 0.2554106 0.4156627 0.2521244 0.4156627 0.2554106 0.4156627 0.2570537 0 0.2554106 0 0.2554106 1 0.2570537 0.4156627 0.2554106 0.4156627 0.2364019 1 0.2404686 0.4156627 0.2364019 0.4156627 0.2364019 0.4156627 0.2404686 0 0.2364019 0 0.2353852 0.4156627 0.2364019 0 0.2353852 0 0.2353852 1 0.2364019 0.4156627 0.2353852 0.4156627 0.2606329 1 0.262569 0.4156627 0.2606329 0.4156627 0.2606329 0.4156627 0.262569 0 0.2606329 0 0.2586968 0.4156627 0.2606329 0 0.2586968 0 0.2586968 1 0.2606329 0.4156627 0.2586968 0.4156627 0.262569 1 0.264505 0.4156627 0.262569 0.4156627 0.262569 0.4156627 0.264505 0 0.262569 0 0.2664411 1 0.2710011 0.4156627 0.2664411 0.4156627 0.2664411 0.4156627 0.2710011 0 0.2664411 0 0.2710011 0.4156627 0.2732812 1 0.2732812 0.4156627 0.2710011 0.4156627 0.2732812 0 0.2710011 0 0.5979986 0.4156627 0.6284736 0 0.5979986 0 0.5979986 0.4156627 0.6284738 0.9687609 0.6284736 0.4156627 0.5065736 0.4156627 0.5370487 0.955637 0.5370486 0.4156627 0.5370486 0.4156627 0.5675237 0.9600117 0.5675236 0.4156627 0.5675236 0.4156627 0.5979987 0.9643863 0.5979986 0.4156627 0.3237233 0.4156627 0.3541983 0 0.3237233 0 0.3541984 0.4156627 0.3846734 0 0.3541983 0 0.3846734 0.4156626 0.4151484 0 0.3846734 0 0.4151484 0.4156627 0.4456235 0 0.4151484 0 0.4456235 0.4156627 0.4760985 0 0.4456235 0 0.4760985 0.4156627 0.5065735 0 0.4760985 0 0.5065736 0.4156627 0.5370486 0 0.5065735 0 0.5370486 0.4156627 0.5675236 0 0.5370486 0 0.5675236 0.4156627 0.5979986 0 0.5675236 0 0.4113705 0.4156627 0.4456235 0.9425132 0.4113706 0.9375963 0.3803583 0.4156626 0.4113706 0.9375963 0.3803583 0.9331445 0.2755612 0.4156627 0.2921918 0.9748852 0.2755612 1 0.3237233 0.4156627 0.2921918 0.9748852 0.2921918 0.4156627 0.3237233 0.4156627 0.3541984 0.9293892 0.3237233 0.9250146 0.3541984 0.4156627 0.3803583 0.9331445 0.3541984 0.9293892 0.3237233 0 0.2921918 0.4156627 0.2921918 0 0.2921918 0 0.2755612 0.4156627 0.2755612 0 0.4456235 0.4156627 0.4760985 0.9468879 0.4456235 0.9425132 0.4760985 0.4156627 0.5065736 0.9512625 0.4760985 0.9468879 0.2586968 0.4156627 0.2570537 1 0.2570537 0.4156627 0.2664411 0 0.264505 0.4156627 0.264505 0 0.2664411 0.4156627 0.264505 1 0.264505 0.4156627 0.2755612 0 0.2732812 0.4156627 0.2732812 0 0.2732812 0.4156627 0.2755612 1 0.2732812 1 0.2586968 0 0.2570537 0.4156627 0.2570537 0 0.262569 0.4156627 0.2606329 1 0.2606329 0.4156627 0.262569 0 0.2606329 0.4156627 0.2606329 0 0.2606329 0 0.2586968 0.4156627 0.2586968 0 0.2606329 0.4156627 0.2586968 1 0.2586968 0.4156627 0.264505 0.4156627 0.262569 1 0.262569 0.4156627 0.264505 0 0.262569 0.4156627 0.262569 0 0.2710011 0.4156627 0.2664411 1 0.2664411 0.4156627 0.2710011 0 0.2664411 0.4156627 0.2664411 0 0.2710011 0.4156627 0.2732812 1 0.2710011 1 0.2732812 0 0.2710011 0.4156627 0.2710011 0 0.6284736 0 0.5979986 0.4156627 0.5979986 0 0.5979986 0.4156627 0.6284738 0.9687609 0.5979987 0.9643863 0.5065736 0.4156627 0.5370487 0.955637 0.5065736 0.9512625 0.5370486 0.4156627 0.5675237 0.9600117 0.5370487 0.955637 0.5675236 0.4156627 0.5979987 0.9643863 0.5675237 0.9600117 0.3541983 0 0.3237233 0.4156627 0.3237233 0 0.3803583 0 0.3541984 0.4156627 0.3541983 0 0.4113705 0 0.3803583 0.4156626 0.3803583 0 0.4456235 0 0.4113705 0.4156627 0.4113705 0 0.4760985 0 0.4456235 0.4156627 0.4456235 0 0.5065735 0 0.4760985 0.4156627 0.4760985 0 0.5370486 0 0.5065736 0.4156627 0.5065735 0 0.5675236 0 0.5370486 0.4156627 0.5370486 0 0.5979986 0 0.5675236 0.4156627 0.5675236 0 0.264505 0 0.262569 0 0.264505 0 0.262569 1 0.2606329 1 0.262569 1 0.2270893 0 0.2324071 0 0.2270893 0 0.5979986 0 0.6284736 0 0.5979986 0 0.2586968 0 0.2606329 0 0.2586968 0 0.264505 1 0.2664411 1 0.264505 1 0.6284738 0.9687609 0.5979987 0.9643863 0.6284738 0.9687609 0.3541984 0.9293892 0.3803583 0.9331445 0.3541984 0.9293892 0.262569 0 0.264505 0 0.262569 0 0.2710011 1 0.2732812 1 0.2710011 1 0.2404686 0 0.245552 0 0.2404686 0 0.2921918 0.9748852 0.3237233 0.9250146 0.2921918 0.9748852 0.2664411 1 0.264505 1 0.2664411 1 0.2710011 0 0.2664411 0 0.2710011 0 0.2521244 1 0.245552 1 0.2521244 1 0.2921918 0 0.2755612 0 0.2921918 0 0.3237233 0 0.2921918 0 0.3237233 0 0.2732812 1 0.2710011 1 0.2732812 1 0.2732812 0 0.2710011 0 0.2732812 0 0.3237233 0.9250146 0.3541984 0.9293892 0.3237233 0.9250146 0.2732812 1 0.2755612 1 0.2732812 1 0.2364019 1 0.2353852 1 0.2364019 1 0 0.4156627 0 0 0 0.4156627 0.2664411 0 0.2710011 0 0.2664411 0 0.4113706 0.9375963 0.4456235 0.9425132 0.4113706 0.9375963 0.2324071 0 0.2353852 0 0.2324071 0 0.3803583 0.9331445 0.4113706 0.9375963 0.3803583 0.9331445 0.4760985 0.9468879 0.5065736 0.9512625 0.4760985 0.9468879 0.2710011 0 0.2732812 0 0.2710011 0 0.5065736 0.9512625 0.5370487 0.955637 0.5065736 0.9512625 0.3846734 0.9337639 0.3541984 0.9293892 0.3846734 0.9337639 0.2755612 1 0.2732812 1 0.2755612 1 0.6284736 0 0.5979986 0 0.6284736 0 0.3237233 0.9250146 0.2921918 0.9748852 0.3237233 0.9250146 0.5979987 0.9643863 0.6284738 0.9687609 0.5979987 0.9643863 0.2217715 0 0.2270893 0 0.2217715 0 0.2755612 0 0.2921918 0 0.2755612 0 0.4456235 0.9425132 0.4760985 0.9468879 0.4456235 0.9425132 0.2324071 1 0.2270893 0.7078321 0.2324071 1 0.2921918 0 0.3237233 0 0.2921918 0 0.5370487 0.955637 0.5065736 0.9512625 0.5370487 0.955637 0.3541984 0.9293892 0.3237233 0.9250146 0.3541984 0.9293892 0.245552 0 0.2521244 0 0.245552 0 0.5675237 0.9600117 0.5979987 0.9643863 0.5675237 0.9600117 0.2554106 1 0.2521244 1 0.2554106 1 0.5370487 0.955637 0.5675237 0.9600117 0.5370487 0.955637 0.4456235 0.9425132 0.4151485 0.9381386 0.4456235 0.9425132 0.2586968 1 0.2606329 1 0.2586968 1 0.4151485 0.9381386 0.3846734 0.9337639 0.4151485 0.9381386 0.2586968 0 0.2570537 0 0.2586968 0 0.5065736 0.9512625 0.4760985 0.9468879 0.5065736 0.9512625 0.3541983 0 0.3237233 0 0.3541983 0 0.2664411 0 0.264505 0 0.2664411 0 0.2270893 0.7078321 0.2217715 0.4156627 0.2270893 0.7078321 0.3237233 0 0.3541983 0 0.3237233 0 0.3803583 0 0.3541983 0 0.3803583 0 0.2521244 0 0.2554106 0 0.2521244 0 0.2664411 1 0.2710011 1 0.2664411 1 0.3541983 0 0.3846734 0 0.3541983 0 0.4113705 0 0.3803583 0 0.4113705 0 0.2570537 1 0.2554106 1 0.2570537 1 0.3846734 0 0.4151484 0 0.3846734 0 0.4456235 0 0.4113705 0 0.4456235 0 0.4151484 0 0.4456235 0 0.4151484 0 0.4760985 0 0.4456235 0 0.4760985 0 0.4760985 0.9468879 0.4456235 0.9425132 0.4760985 0.9468879 0.4456235 0 0.4760985 0 0.4456235 0 0.5065735 0 0.4760985 0 0.5065735 0 0.2755612 0 0.2732812 0 0.2755612 0 0.4760985 0 0.5065735 0 0.4760985 0 0.5370486 0 0.5065735 0 0.5370486 0 0.2554106 0 0.2570537 0 0.2554106 0 0.2755612 1 0.2921918 0.9748852 0.2755612 1 0.5065735 0 0.5370486 0 0.5065735 0 0.5675236 0 0.5370486 0 0.5675236 0 0.2586968 1 0.2570537 1 0.2586968 1 0.2217715 0.4156627 0 0.4156627 0.2217715 0.4156627 0.5370486 0 0.5675236 0 0.5370486 0 0.5979986 0 0.5675236 0 0.5979986 0 0.5979987 0.9643863 0.5675237 0.9600117 0.5979987 0.9643863 0.5675236 0 0.5979986 0 0.5675236 0 0.5675237 0.9600117 0.5370487 0.955637 0.5675237 0.9600117 0.2606329 1 0.2586968 1 0.2606329 1 0.2364019 0 0.2404686 0 0.2364019 0 0 0 0.2217715 0 0 0 0.245552 1 0.2404686 1 0.245552 1 0.2570537 1 0.2586968 1 0.2570537 1 0.2570537 0 0.2570537 0.4156627 0.2570537 0 0.2570537 0 0.2586968 0 0.2570537 0 0.2570537 0.4156627 0.2570537 1 0.2570537 0.4156627 0.264505 0 0.2664411 0 0.264505 0 0.2404686 1 0.2364019 1 0.2404686 1 0.2710011 1 0.2664411 1 0.2710011 1 0.262569 1 0.264505 1 0.262569 1 0.2353852 0 0.2364019 0 0.2353852 0 0.262569 0 0.2606329 0 0.262569 0 0.2732812 0 0.2755612 0 0.2732812 0 0.2921918 0.9748852 0.2755612 1 0.2921918 0.9748852 0.264505 1 0.262569 1 0.264505 1 0.2606329 1 0.262569 1 0.2606329 1 0.2606329 0 0.262569 0 0.2606329 0 0.2606329 0 0.2586968 0 0.2606329 0 0.2353852 1 0.2324071 1 0.2353852 1 0.4151484 0.4156627 0.4456235 0.4156627 0.4456235 0.9425132 0.3846734 0.4156626 0.4151484 0.4156627 0.4151485 0.9381386 0.2755612 0.4156627 0.2921918 0.4156627 0.2921918 0.9748852 0.3237233 0.4156627 0.3237233 0.9250146 0.2921918 0.9748852 0.3237233 0.4156627 0.3541984 0.4156627 0.3541984 0.9293892 0.3541984 0.4156627 0.3846734 0.4156626 0.3846734 0.9337639 0.3237233 0 0.3237233 0.4156627 0.2921918 0.4156627 0.2921918 0 0.2921918 0.4156627 0.2755612 0.4156627 0.4456235 0.4156627 0.4760985 0.4156627 0.4760985 0.9468879 0.4760985 0.4156627 0.5065736 0.4156627 0.5065736 0.9512625 0.2217715 0 0.2217715 0.4156627 0 0.4156627 0.2586968 0.4156627 0.2586968 1 0.2570537 1 0.2664411 0 0.2664411 0.4156627 0.264505 0.4156627 0.2664411 0.4156627 0.2664411 1 0.264505 1 0.2755612 0 0.2755612 0.4156627 0.2732812 0.4156627 0.2732812 0.4156627 0.2755612 0.4156627 0.2755612 1 0.2324071 0 0.2324071 0.4156627 0.2270893 0.4156627 0.2586968 0 0.2586968 0.4156627 0.2570537 0.4156627 0.245552 0 0.245552 0.4156627 0.2404686 0.4156627 0.245552 0.4156627 0.245552 1 0.2404686 1 0.2353852 0.4156627 0.2353852 1 0.2324071 1 0.2353852 0 0.2353852 0.4156627 0.2324071 0.4156627 0.2270893 0 0.2270893 0.4156627 0.2217715 0.4156627 0.2521244 0 0.2521244 0.4156627 0.245552 0.4156627 0.2270893 0.7078321 0.2270893 0.4156627 0.2324071 0.4156627 0.2521244 0.4156627 0.2521244 1 0.245552 1 0.2554106 0 0.2554106 0.4156627 0.2521244 0.4156627 0.2554106 0.4156627 0.2554106 1 0.2521244 1 0.2570537 0 0.2570537 0.4156627 0.2554106 0.4156627 0.2570537 0.4156627 0.2570537 1 0.2554106 1 0.2404686 0.4156627 0.2404686 1 0.2364019 1 0.2404686 0 0.2404686 0.4156627 0.2364019 0.4156627 0.2364019 0 0.2364019 0.4156627 0.2353852 0.4156627 0.2364019 0.4156627 0.2364019 1 0.2353852 1 0.262569 0.4156627 0.262569 1 0.2606329 1 0.262569 0 0.262569 0.4156627 0.2606329 0.4156627 0.2606329 0 0.2606329 0.4156627 0.2586968 0.4156627 0.2606329 0.4156627 0.2606329 1 0.2586968 1 0.264505 0.4156627 0.264505 1 0.262569 1 0.264505 0 0.264505 0.4156627 0.262569 0.4156627 0.2710011 0.4156627 0.2710011 1 0.2664411 1 0.2710011 0 0.2710011 0.4156627 0.2664411 0.4156627 0.2710011 0.4156627 0.2732812 0.4156627 0.2732812 1 0.2732812 0 0.2732812 0.4156627 0.2710011 0.4156627 0.6284736 0 0.6284736 0.4156627 0.5979986 0.4156627 0.5979986 0.4156627 0.6284736 0.4156627 0.6284738 0.9687609 0.5065736 0.4156627 0.5370486 0.4156627 0.5370487 0.955637 0.5370486 0.4156627 0.5675236 0.4156627 0.5675237 0.9600117 0.5675236 0.4156627 0.5979986 0.4156627 0.5979987 0.9643863 0.3541983 0 0.3541984 0.4156627 0.3237233 0.4156627 0.3846734 0 0.3846734 0.4156626 0.3541984 0.4156627 0.4151484 0 0.4151484 0.4156627 0.3846734 0.4156626 0.4456235 0 0.4456235 0.4156627 0.4151484 0.4156627 0.4760985 0 0.4760985 0.4156627 0.4456235 0.4156627 0.5065735 0 0.5065736 0.4156627 0.4760985 0.4156627 0.5370486 0 0.5370486 0.4156627 0.5065736 0.4156627 0.5675236 0 0.5675236 0.4156627 0.5370486 0.4156627 0.5979986 0 0.5979986 0.4156627 0.5675236 0.4156627 0.4113705 0.4156627 0.4113706 0.9375963 0.4456235 0.9425132 0.3803583 0.4156626 0.3803583 0.9331445 0.4113706 0.9375963 0.2755612 0.4156627 0.2755612 1 0.2921918 0.9748852 0.2921918 0.9748852 0.3237233 0.9250146 0.3237233 0.4156627 0.3237233 0.4156627 0.3237233 0.9250146 0.3541984 0.9293892 0.3541984 0.4156627 0.3541984 0.9293892 0.3803583 0.9331445 0.2921918 0.4156627 0.3237233 0.4156627 0.3237233 0 0.2755612 0.4156627 0.2921918 0.4156627 0.2921918 0 0.4456235 0.4156627 0.4456235 0.9425132 0.4760985 0.9468879 0.4760985 0.4156627 0.4760985 0.9468879 0.5065736 0.9512625 0.2570537 1 0.2586968 1 0.2586968 0.4156627 0.264505 0.4156627 0.2664411 0.4156627 0.2664411 0 0.264505 1 0.2664411 1 0.2664411 0.4156627 0.2732812 0.4156627 0.2755612 0.4156627 0.2755612 0 0.2732812 0.4156627 0.2732812 1 0.2755612 1 0.2570537 0.4156627 0.2586968 0.4156627 0.2586968 0 0.2606329 1 0.262569 1 0.262569 0.4156627 0.2606329 0.4156627 0.262569 0.4156627 0.262569 0 0.2586968 0.4156627 0.2606329 0.4156627 0.2606329 0 0.2586968 1 0.2606329 1 0.2606329 0.4156627 0.262569 1 0.264505 1 0.264505 0.4156627 0.262569 0.4156627 0.264505 0.4156627 0.264505 0 0.2664411 1 0.2710011 1 0.2710011 0.4156627 0.2664411 0.4156627 0.2710011 0.4156627 0.2710011 0 0.2710011 0.4156627 0.2710011 1 0.2732812 1 0.2710011 0.4156627 0.2732812 0.4156627 0.2732812 0 0.5979986 0.4156627 0.6284736 0.4156627 0.6284736 0 0.5979986 0.4156627 0.5979987 0.9643863 0.6284738 0.9687609 0.5065736 0.4156627 0.5065736 0.9512625 0.5370487 0.955637 0.5370486 0.4156627 0.5370487 0.955637 0.5675237 0.9600117 0.5675236 0.4156627 0.5675237 0.9600117 0.5979987 0.9643863 0.3237233 0.4156627 0.3541984 0.4156627 0.3541983 0 0.3541984 0.4156627 0.3803583 0.4156626 0.3803583 0 0.3803583 0.4156626 0.4113705 0.4156627 0.4113705 0 0.4113705 0.4156627 0.4456235 0.4156627 0.4456235 0 0.4456235 0.4156627 0.4760985 0.4156627 0.4760985 0 0.4760985 0.4156627 0.5065736 0.4156627 0.5065735 0 0.5065736 0.4156627 0.5370486 0.4156627 0.5370486 0 0.5370486 0.4156627 0.5675236 0.4156627 0.5675236 0 0.5675236 0.4156627 0.5979986 0.4156627 0.5979986 0 0.4151484 0.4156627 0.4151485 0.9381386 0.4456235 0.9425132 0.3846734 0.4156626 0.3846734 0.9337639 0.4151485 0.9381386 0.2755612 0.4156627 0.2755612 1 0.2921918 0.9748852 0.2921918 0.9748852 0.3237233 0.9250146 0.3237233 0.4156627 0.3237233 0.4156627 0.3237233 0.9250146 0.3541984 0.9293892 0.3541984 0.4156627 0.3541984 0.9293892 0.3846734 0.9337639 0.2921918 0.4156627 0.3237233 0.4156627 0.3237233 0 0.2755612 0.4156627 0.2921918 0.4156627 0.2921918 0 0.4456235 0.4156627 0.4456235 0.9425132 0.4760985 0.9468879 0.4760985 0.4156627 0.4760985 0.9468879 0.5065736 0.9512625 0 0.4156627 0.2217715 0.4156627 0.2217715 0 0.2570537 1 0.2586968 1 0.2586968 0.4156627 0.264505 0.4156627 0.2664411 0.4156627 0.2664411 0 0.264505 1 0.2664411 1 0.2664411 0.4156627 0.2732812 0.4156627 0.2755612 0.4156627 0.2755612 0 0.2732812 0.4156627 0.2732812 1 0.2755612 1 0.2270893 0.4156627 0.2324071 0.4156627 0.2324071 0 0.2570537 0.4156627 0.2586968 0.4156627 0.2586968 0 0.2404686 0.4156627 0.245552 0.4156627 0.245552 0 0.2404686 1 0.245552 1 0.245552 0.4156627 0.2324071 1 0.2353852 1 0.2353852 0.4156627 0.2324071 0.4156627 0.2353852 0.4156627 0.2353852 0 0.2217715 0.4156627 0.2270893 0.4156627 0.2270893 0 0.245552 0.4156627 0.2521244 0.4156627 0.2521244 0 0.2270893 0.7078321 0.2324071 1 0.2324071 0.4156627 0.245552 1 0.2521244 1 0.2521244 0.4156627 0.2521244 0.4156627 0.2554106 0.4156627 0.2554106 0 0.2521244 1 0.2554106 1 0.2554106 0.4156627 0.2554106 0.4156627 0.2570537 0.4156627 0.2570537 0 0.2554106 1 0.2570537 1 0.2570537 0.4156627 0.2364019 1 0.2404686 1 0.2404686 0.4156627 0.2364019 0.4156627 0.2404686 0.4156627 0.2404686 0 0.2353852 0.4156627 0.2364019 0.4156627 0.2364019 0 0.2353852 1 0.2364019 1 0.2364019 0.4156627 0.2606329 1 0.262569 1 0.262569 0.4156627 0.2606329 0.4156627 0.262569 0.4156627 0.262569 0 0.2586968 0.4156627 0.2606329 0.4156627 0.2606329 0 0.2586968 1 0.2606329 1 0.2606329 0.4156627 0.262569 1 0.264505 1 0.264505 0.4156627 0.262569 0.4156627 0.264505 0.4156627 0.264505 0 0.2664411 1 0.2710011 1 0.2710011 0.4156627 0.2664411 0.4156627 0.2710011 0.4156627 0.2710011 0 0.2710011 0.4156627 0.2710011 1 0.2732812 1 0.2710011 0.4156627 0.2732812 0.4156627 0.2732812 0 0.5979986 0.4156627 0.6284736 0.4156627 0.6284736 0 0.5979986 0.4156627 0.5979987 0.9643863 0.6284738 0.9687609 0.5065736 0.4156627 0.5065736 0.9512625 0.5370487 0.955637 0.5370486 0.4156627 0.5370487 0.955637 0.5675237 0.9600117 0.5675236 0.4156627 0.5675237 0.9600117 0.5979987 0.9643863 0.3237233 0.4156627 0.3541984 0.4156627 0.3541983 0 0.3541984 0.4156627 0.3846734 0.4156626 0.3846734 0 0.3846734 0.4156626 0.4151484 0.4156627 0.4151484 0 0.4151484 0.4156627 0.4456235 0.4156627 0.4456235 0 0.4456235 0.4156627 0.4760985 0.4156627 0.4760985 0 0.4760985 0.4156627 0.5065736 0.4156627 0.5065735 0 0.5065736 0.4156627 0.5370486 0.4156627 0.5370486 0 0.5370486 0.4156627 0.5675236 0.4156627 0.5675236 0 0.5675236 0.4156627 0.5979986 0.4156627 0.5979986 0 0.4113705 0.4156627 0.4456235 0.4156627 0.4456235 0.9425132 0.3803583 0.4156626 0.4113705 0.4156627 0.4113706 0.9375963 0.2755612 0.4156627 0.2921918 0.4156627 0.2921918 0.9748852 0.3237233 0.4156627 0.3237233 0.9250146 0.2921918 0.9748852 0.3237233 0.4156627 0.3541984 0.4156627 0.3541984 0.9293892 0.3541984 0.4156627 0.3803583 0.4156626 0.3803583 0.9331445 0.3237233 0 0.3237233 0.4156627 0.2921918 0.4156627 0.2921918 0 0.2921918 0.4156627 0.2755612 0.4156627 0.4456235 0.4156627 0.4760985 0.4156627 0.4760985 0.9468879 0.4760985 0.4156627 0.5065736 0.4156627 0.5065736 0.9512625 0.2586968 0.4156627 0.2586968 1 0.2570537 1 0.2664411 0 0.2664411 0.4156627 0.264505 0.4156627 0.2664411 0.4156627 0.2664411 1 0.264505 1 0.2755612 0 0.2755612 0.4156627 0.2732812 0.4156627 0.2732812 0.4156627 0.2755612 0.4156627 0.2755612 1 0.2586968 0 0.2586968 0.4156627 0.2570537 0.4156627 0.262569 0.4156627 0.262569 1 0.2606329 1 0.262569 0 0.262569 0.4156627 0.2606329 0.4156627 0.2606329 0 0.2606329 0.4156627 0.2586968 0.4156627 0.2606329 0.4156627 0.2606329 1 0.2586968 1 0.264505 0.4156627 0.264505 1 0.262569 1 0.264505 0 0.264505 0.4156627 0.262569 0.4156627 0.2710011 0.4156627 0.2710011 1 0.2664411 1 0.2710011 0 0.2710011 0.4156627 0.2664411 0.4156627 0.2710011 0.4156627 0.2732812 0.4156627 0.2732812 1 0.2732812 0 0.2732812 0.4156627 0.2710011 0.4156627 0.6284736 0 0.6284736 0.4156627 0.5979986 0.4156627 0.5979986 0.4156627 0.6284736 0.4156627 0.6284738 0.9687609 0.5065736 0.4156627 0.5370486 0.4156627 0.5370487 0.955637 0.5370486 0.4156627 0.5675236 0.4156627 0.5675237 0.9600117 0.5675236 0.4156627 0.5979986 0.4156627 0.5979987 0.9643863 0.3541983 0 0.3541984 0.4156627 0.3237233 0.4156627 0.3803583 0 0.3803583 0.4156626 0.3541984 0.4156627 0.4113705 0 0.4113705 0.4156627 0.3803583 0.4156626 0.4456235 0 0.4456235 0.4156627 0.4113705 0.4156627 0.4760985 0 0.4760985 0.4156627 0.4456235 0.4156627 0.5065735 0 0.5065736 0.4156627 0.4760985 0.4156627 0.5370486 0 0.5370486 0.4156627 0.5065736 0.4156627 0.5675236 0 0.5675236 0.4156627 0.5370486 0.4156627 0.5979986 0 0.5979986 0.4156627 0.5675236 0.4156627 0.264505 0 0.262569 0 0.262569 0 0.262569 1 0.2606329 1 0.2606329 1 0.2270893 0 0.2324071 0 0.2324071 0 0.5979986 0 0.6284736 0 0.6284736 0 0.2586968 0 0.2606329 0 0.2606329 0 0.264505 1 0.2664411 1 0.2664411 1 0.6284738 0.9687609 0.5979987 0.9643863 0.5979987 0.9643863 0.3541984 0.9293892 0.3803583 0.9331445 0.3803583 0.9331445 0.262569 0 0.264505 0 0.264505 0 0.2710011 1 0.2732812 1 0.2732812 1 0.2404686 0 0.245552 0 0.245552 0 0.2921918 0.9748852 0.3237233 0.9250146 0.3237233 0.9250146 0.2664411 1 0.264505 1 0.264505 1 0.2710011 0 0.2664411 0 0.2664411 0 0.2521244 1 0.245552 1 0.245552 1 0.2921918 0 0.2755612 0 0.2755612 0 0.3237233 0 0.2921918 0 0.2921918 0 0.2732812 1 0.2710011 1 0.2710011 1 0.2732812 0 0.2710011 0 0.2710011 0 0.3237233 0.9250146 0.3541984 0.9293892 0.3541984 0.9293892 0.2732812 1 0.2755612 1 0.2755612 1 0.2364019 1 0.2353852 1 0.2353852 1 0 0.4156627 0 0 0 0 0.2664411 0 0.2710011 0 0.2710011 0 0.4113706 0.9375963 0.4456235 0.9425132 0.4456235 0.9425132 0.2324071 0 0.2353852 0 0.2353852 0 0.3803583 0.9331445 0.4113706 0.9375963 0.4113706 0.9375963 0.4760985 0.9468879 0.5065736 0.9512625 0.5065736 0.9512625 0.2710011 0 0.2732812 0 0.2732812 0 0.5065736 0.9512625 0.5370487 0.955637 0.5370487 0.955637 0.3846734 0.9337639 0.3541984 0.9293892 0.3541984 0.9293892 0.2755612 1 0.2732812 1 0.2732812 1 0.6284736 0 0.5979986 0 0.5979986 0 0.3237233 0.9250146 0.2921918 0.9748852 0.2921918 0.9748852 0.5979987 0.9643863 0.6284738 0.9687609 0.6284738 0.9687609 0.2217715 0 0.2270893 0 0.2270893 0 0.2755612 0 0.2921918 0 0.2921918 0 0.4456235 0.9425132 0.4760985 0.9468879 0.4760985 0.9468879 0.2324071 1 0.2270893 0.7078321 0.2270893 0.7078321 0.2921918 0 0.3237233 0 0.3237233 0 0.5370487 0.955637 0.5065736 0.9512625 0.5065736 0.9512625 0.3541984 0.9293892 0.3237233 0.9250146 0.3237233 0.9250146 0.245552 0 0.2521244 0 0.2521244 0 0.5675237 0.9600117 0.5979987 0.9643863 0.5979987 0.9643863 0.2554106 1 0.2521244 1 0.2521244 1 0.5370487 0.955637 0.5675237 0.9600117 0.5675237 0.9600117 0.4456235 0.9425132 0.4151485 0.9381386 0.4151485 0.9381386 0.2586968 1 0.2606329 1 0.2606329 1 0.4151485 0.9381386 0.3846734 0.9337639 0.3846734 0.9337639 0.2586968 0 0.2570537 0 0.2570537 0 0.5065736 0.9512625 0.4760985 0.9468879 0.4760985 0.9468879 0.3541983 0 0.3237233 0 0.3237233 0 0.2664411 0 0.264505 0 0.264505 0 0.2270893 0.7078321 0.2217715 0.4156627 0.2217715 0.4156627 0.3237233 0 0.3541983 0 0.3541983 0 0.3803583 0 0.3541983 0 0.3541983 0 0.2521244 0 0.2554106 0 0.2554106 0 0.2664411 1 0.2710011 1 0.2710011 1 0.3541983 0 0.3846734 0 0.3846734 0 0.4113705 0 0.3803583 0 0.3803583 0 0.2570537 1 0.2554106 1 0.2554106 1 0.3846734 0 0.4151484 0 0.4151484 0 0.4456235 0 0.4113705 0 0.4113705 0 0.4151484 0 0.4456235 0 0.4456235 0 0.4760985 0 0.4456235 0 0.4456235 0 0.4760985 0.9468879 0.4456235 0.9425132 0.4456235 0.9425132 0.4456235 0 0.4760985 0 0.4760985 0 0.5065735 0 0.4760985 0 0.4760985 0 0.2755612 0 0.2732812 0 0.2732812 0 0.4760985 0 0.5065735 0 0.5065735 0 0.5370486 0 0.5065735 0 0.5065735 0 0.2554106 0 0.2570537 0 0.2570537 0 0.2755612 1 0.2921918 0.9748852 0.2921918 0.9748852 0.5065735 0 0.5370486 0 0.5370486 0 0.5675236 0 0.5370486 0 0.5370486 0 0.2586968 1 0.2570537 1 0.2570537 1 0.2217715 0.4156627 0 0.4156627 0 0.4156627 0.5370486 0 0.5675236 0 0.5675236 0 0.5979986 0 0.5675236 0 0.5675236 0 0.5979987 0.9643863 0.5675237 0.9600117 0.5675237 0.9600117 0.5675236 0 0.5979986 0 0.5979986 0 0.5675237 0.9600117 0.5370487 0.955637 0.5370487 0.955637 0.2606329 1 0.2586968 1 0.2586968 1 0.2364019 0 0.2404686 0 0.2404686 0 0 0 0.2217715 0 0.2217715 0 0.245552 1 0.2404686 1 0.2404686 1 0.2570537 1 0.2586968 1 0.2586968 1 0.2570537 0 0.2570537 0.4156627 0.2570537 0.4156627 0.2570537 0 0.2586968 0 0.2586968 0 0.2570537 0.4156627 0.2570537 1 0.2570537 1 0.264505 0 0.2664411 0 0.2664411 0 0.2404686 1 0.2364019 1 0.2364019 1 0.2710011 1 0.2664411 1 0.2664411 1 0.262569 1 0.264505 1 0.264505 1 0.2353852 0 0.2364019 0 0.2364019 0 0.262569 0 0.2606329 0 0.2606329 0 0.2732812 0 0.2755612 0 0.2755612 0 0.2921918 0.9748852 0.2755612 1 0.2755612 1 0.264505 1 0.262569 1 0.262569 1 0.2606329 1 0.262569 1 0.262569 1 0.2606329 0 0.262569 0 0.262569 0 0.2606329 0 0.2586968 0 0.2586968 0 0.2353852 1 0.2324071 1 0.2324071 1</float_array>
          <technique_common>
            <accessor source="#Plane-mesh-map-0-array" count="1800" stride="2">
              <param name="S" type="float"/>
              <param name="T" type="float"/>
            </accessor>
          </technique_common>
        </source>
        <vertices id="Plane-mesh-vertices">
          <input semantic="POSITION" source="#Plane-mesh-positions"/>
        </vertices>
        <triangles material="front_shine-material" count="28">
          <input semantic="VERTEX" source="#Plane-mesh-vertices" offset="0"/>
          <input semantic="NORMAL" source="#Plane-mesh-normals" offset="1"/>
          <input semantic="TEXCOORD" source="#Plane-mesh-map-0" offset="2" set="0"/>
          <p>189 42 636 29 42 637 38 42 638 200 46 657 31 46 658 49 46 659 175 57 708 36 57 709 24 57 710 192 62 726 38 62 727 41 62 728 187 68 753 17 68 754 36 68 755 195 71 774 41 71 775 44 71 776 152 74 819 44 74 820 1 74 821 168 75 822 10 75 823 17 75 824 180 79 849 47 79 850 29 79 851 261 80 852 88 80 853 110 80 854 260 81 855 111 81 856 109 81 857 262 81 861 110 81 862 111 81 863 198 82 867 49 82 868 47 82 869 182 88 900 24 88 901 31 88 902 189 42 1533 180 42 1534 29 42 1535 200 46 1554 182 46 1555 31 46 1556 175 155 1605 187 155 1606 36 155 1607 192 159 1623 189 159 1624 38 159 1625 187 164 1650 168 164 1651 17 164 1652 195 167 1671 192 167 1672 41 167 1673 152 170 1716 195 170 1717 44 170 1718 168 75 1719 161 75 1720 10 75 1721 180 173 1746 198 173 1747 47 173 1748 261 80 1749 239 80 1750 88 80 1751 260 81 1752 262 81 1753 111 81 1754 262 81 1758 261 81 1759 110 81 1760 198 82 1764 200 82 1765 49 82 1766 182 177 1797 175 177 1798 24 177 1799</p>
        </triangles>
        <triangles material="front-material" count="76">
          <input semantic="VERTEX" source="#Plane-mesh-vertices" offset="0"/>
          <input semantic="NORMAL" source="#Plane-mesh-normals" offset="1"/>
          <input semantic="TEXCOORD" source="#Plane-mesh-map-0" offset="2" set="0"/>
          <p>204 35 597 56 35 598 53 35 599 271 36 609 103 36 610 120 36 611 278 37 612 14 37 613 127 37 614 283 38 615 131 38 616 132 38 617 272 39 621 125 39 622 121 39 623 242 40 627 94 40 628 91 40 629 170 41 630 60 41 631 19 41 632 216 43 645 61 43 646 65 43 647 245 44 651 132 44 652 94 44 653 276 45 654 106 45 655 125 45 656 281 48 666 89 48 667 130 48 668 282 49 672 130 49 673 131 49 674 241 50 675 95 50 676 90 50 677 246 51 681 96 51 682 95 51 683 219 52 684 69 52 685 68 52 686 173 53 687 65 53 688 22 53 689 158 54 693 4 54 694 7 54 695 251 55 696 127 55 697 100 55 698 240 56 705 90 56 706 89 56 707 160 59 714 8 59 715 9 59 716 220 60 717 7 60 718 69 60 719 248 61 723 100 61 724 97 61 725 247 63 729 97 63 730 96 63 731 153 64 732 67 64 733 2 64 734 239 65 735 116 65 736 88 65 737 218 66 738 68 66 739 67 66 740 159 67 744 3 67 745 8 67 746 254 69 765 121 69 766 103 69 767 154 72 789 2 72 790 3 72 791 257 73 810 91 73 811 106 73 812 165 76 831 11 76 832 14 76 833 162 77 837 9 77 838 11 77 839 207 78 840 1 78 841 56 78 842 212 83 870 19 83 871 61 83 872 264 84 873 120 84 874 113 84 875 155 85 885 22 85 886 4 85 887 211 86 888 53 86 889 60 86 890 267 87 891 113 87 892 116 87 893 204 142 1494 207 142 1495 56 142 1496 271 143 1506 254 143 1507 103 143 1508 278 37 1509 165 37 1510 14 37 1511 283 144 1512 282 144 1513 131 144 1514 272 145 1518 276 145 1519 125 145 1520 242 40 1524 245 40 1525 94 40 1526 170 146 1527 211 146 1528 60 146 1529 216 147 1542 212 147 1543 61 147 1544 245 44 1548 283 44 1549 132 44 1550 276 148 1551 257 148 1552 106 148 1553 281 149 1563 240 149 1564 89 149 1565 282 150 1569 281 150 1570 130 150 1571 241 50 1572 246 50 1573 95 50 1574 246 151 1578 247 151 1579 96 151 1580 219 152 1581 220 152 1582 69 152 1583 173 153 1584 216 153 1585 65 153 1586 158 154 1590 155 154 1591 4 154 1592 251 55 1593 278 55 1594 127 55 1595 240 56 1602 241 56 1603 90 56 1604 160 59 1611 159 59 1612 8 59 1613 220 157 1614 158 157 1615 7 157 1616 248 158 1620 251 158 1621 100 158 1622 247 160 1626 248 160 1627 97 160 1628 153 161 1629 218 161 1630 67 161 1631 239 162 1632 267 162 1633 116 162 1634 218 66 1635 219 66 1636 68 66 1637 159 163 1641 154 163 1642 3 163 1643 254 165 1662 272 165 1663 121 165 1664 154 168 1686 153 168 1687 2 168 1688 257 169 1707 242 169 1708 91 169 1709 165 171 1728 162 171 1729 11 171 1730 162 77 1734 160 77 1735 9 77 1736 207 172 1737 152 172 1738 1 172 1739 212 174 1767 170 174 1768 19 174 1769 264 84 1770 271 84 1771 120 84 1772 155 85 1782 173 85 1783 22 85 1784 211 175 1785 204 175 1786 53 175 1787 267 176 1788 264 176 1789 113 176 1790</p>
        </triangles>
        <triangles material="tyl-material" count="102">
          <input semantic="VERTEX" source="#Plane-mesh-vertices" offset="0"/>
          <input semantic="NORMAL" source="#Plane-mesh-normals" offset="1"/>
          <input semantic="TEXCOORD" source="#Plane-mesh-map-0" offset="2" set="0"/>
          <p>269 34 594 114 34 595 118 34 596 186 34 600 26 34 601 35 34 602 238 34 603 128 34 604 87 34 605 166 34 606 57 34 607 15 34 608 205 34 618 58 34 619 54 34 620 197 34 624 28 34 625 46 34 626 274 34 633 102 34 634 123 34 635 243 34 639 105 34 640 92 34 641 244 34 642 92 34 643 93 34 644 275 34 648 123 34 649 124 34 650 161 47 660 0 47 661 10 47 662 169 34 663 63 34 664 18 34 665 177 34 669 33 34 670 26 34 671 214 34 678 64 34 679 63 34 680 279 34 690 150 34 691 128 34 692 167 34 699 35 34 700 16 34 701 172 34 702 5 34 703 21 34 704 156 58 711 6 58 712 5 58 713 179 34 720 37 34 721 28 34 722 252 34 741 109 34 742 101 34 743 293 34 747 93 34 748 142 34 749 253 34 750 118 34 751 102 34 752 157 34 756 79 34 757 6 34 758 294 34 759 142 34 760 143 34 761 188 34 762 40 34 763 37 34 764 230 34 768 80 34 769 79 34 770 295 70 771 143 70 772 144 70 773 231 34 777 81 34 778 80 34 779 296 34 780 144 34 781 145 34 782 232 34 783 82 34 784 81 34 785 297 34 786 145 34 787 146 34 788 233 34 792 83 34 793 82 34 794 298 34 795 146 34 796 147 34 797 256 34 798 124 34 799 105 34 800 234 34 801 84 34 802 83 34 803 299 34 804 147 34 805 148 34 806 191 34 807 43 34 808 40 34 809 235 34 813 85 34 814 84 34 815 300 34 816 148 34 817 149 34 818 236 34 825 86 34 826 85 34 827 301 34 828 149 34 829 150 34 830 237 34 834 87 34 835 86 34 836 202 34 843 46 34 844 51 34 845 151 34 846 16 34 847 0 34 848 194 34 858 15 34 859 43 34 860 209 34 864 18 34 865 58 34 866 184 34 876 51 34 877 33 34 878 265 34 879 117 34 880 114 34 881 215 34 882 21 34 883 64 34 884 208 34 894 54 34 895 57 34 896 268 34 897 101 34 898 117 34 899 269 34 1491 265 34 1492 114 34 1493 186 34 1497 177 34 1498 26 34 1499 238 34 1500 279 34 1501 128 34 1502 166 34 1503 208 34 1504 57 34 1505 205 34 1515 209 34 1516 58 34 1517 197 34 1521 179 34 1522 28 34 1523 274 34 1530 253 34 1531 102 34 1532 243 34 1536 256 34 1537 105 34 1538 244 34 1539 243 34 1540 92 34 1541 275 34 1545 274 34 1546 123 34 1547 161 47 1557 151 47 1558 0 47 1559 169 34 1560 214 34 1561 63 34 1562 177 34 1566 184 34 1567 33 34 1568 214 34 1575 215 34 1576 64 34 1577 279 34 1587 301 34 1588 150 34 1589 167 34 1596 186 34 1597 35 34 1598 172 34 1599 156 34 1600 5 34 1601 156 156 1608 157 156 1609 6 156 1610 179 34 1617 188 34 1618 37 34 1619 252 34 1638 260 34 1639 109 34 1640 293 34 1644 244 34 1645 93 34 1646 253 34 1647 269 34 1648 118 34 1649 157 34 1653 230 34 1654 79 34 1655 294 34 1656 293 34 1657 142 34 1658 188 34 1659 191 34 1660 40 34 1661 230 34 1665 231 34 1666 80 34 1667 295 166 1668 294 166 1669 143 166 1670 231 34 1674 232 34 1675 81 34 1676 296 34 1677 295 34 1678 144 34 1679 232 34 1680 233 34 1681 82 34 1682 297 34 1683 296 34 1684 145 34 1685 233 34 1689 234 34 1690 83 34 1691 298 34 1692 297 34 1693 146 34 1694 256 34 1695 275 34 1696 124 34 1697 234 34 1698 235 34 1699 84 34 1700 299 34 1701 298 34 1702 147 34 1703 191 34 1704 194 34 1705 43 34 1706 235 34 1710 236 34 1711 85 34 1712 300 34 1713 299 34 1714 148 34 1715 236 34 1722 237 34 1723 86 34 1724 301 34 1725 300 34 1726 149 34 1727 237 34 1731 238 34 1732 87 34 1733 202 34 1740 197 34 1741 46 34 1742 151 34 1743 167 34 1744 16 34 1745 194 34 1755 166 34 1756 15 34 1757 209 34 1761 169 34 1762 18 34 1763 184 34 1773 202 34 1774 51 34 1775 265 34 1776 268 34 1777 117 34 1778 215 34 1779 172 34 1780 21 34 1781 208 34 1791 205 34 1792 54 34 1793 268 34 1794 252 34 1795 101 34 1796</p>
        </triangles>
        <triangles material="gora_dol-material" count="394">
          <input semantic="VERTEX" source="#Plane-mesh-vertices" offset="0"/>
          <input semantic="NORMAL" source="#Plane-mesh-normals" offset="1"/>
          <input semantic="TEXCOORD" source="#Plane-mesh-map-0" offset="2" set="0"/>
          <p>76 0 0 2 0 1 67 0 2 77 1 3 67 1 4 68 1 5 23 2 6 4 2 7 22 2 8 13 3 9 4 3 10 12 3 11 13 4 12 69 4 13 7 4 14 78 5 15 68 5 16 69 5 17 6 6 18 12 6 19 5 6 20 5 7 21 23 7 22 21 7 23 75 8 24 3 8 25 2 8 26 74 9 27 8 9 28 3 9 29 16 7 30 10 7 31 0 7 32 27 7 33 44 7 34 45 7 35 18 7 36 59 7 37 58 7 38 20 7 39 60 7 40 59 7 41 21 7 42 66 7 43 64 7 44 66 10 45 22 10 46 65 10 47 17 7 48 34 7 49 36 7 50 26 7 51 34 7 52 35 7 53 15 7 54 45 7 55 43 7 56 28 7 57 48 7 58 46 7 59 30 7 60 47 7 61 48 7 62 32 7 63 24 7 64 25 7 65 33 7 66 25 7 67 26 7 68 35 7 69 17 7 70 16 7 71 37 7 72 30 7 73 28 7 74 36 7 75 25 7 76 24 7 77 39 7 78 29 7 79 30 7 80 40 7 81 39 7 82 37 7 83 42 7 84 38 7 85 39 7 86 43 7 87 42 7 88 40 7 89 45 7 90 41 7 91 42 7 92 48 7 93 49 7 94 50 7 95 46 7 96 50 7 97 51 7 98 51 7 99 32 7 100 33 7 101 50 7 102 31 7 103 32 7 104 52 7 105 56 7 106 55 7 107 54 7 108 55 7 109 57 7 110 57 7 111 27 7 112 15 7 113 55 7 114 1 7 115 27 7 116 59 7 117 53 7 118 52 7 119 58 7 120 52 7 121 54 7 122 62 7 123 19 7 124 20 7 125 63 7 126 20 7 127 18 7 128 62 11 129 65 11 130 61 11 131 64 7 132 62 7 133 63 7 134 128 7 135 70 7 136 87 7 137 70 12 138 127 12 139 14 12 140 73 13 141 9 13 142 8 13 143 72 14 144 11 14 145 9 14 146 71 15 147 14 15 148 11 15 149 79 7 150 13 7 151 6 7 152 80 7 153 78 7 154 79 7 155 81 7 156 77 7 157 80 7 158 82 7 159 76 7 160 81 7 161 83 7 162 75 7 163 82 7 164 84 7 165 74 7 166 83 7 167 85 7 168 73 7 169 84 7 170 86 7 171 72 7 172 85 7 173 87 7 174 71 7 175 86 7 176 139 7 177 89 7 178 138 7 179 140 7 180 130 7 181 139 7 182 107 7 183 91 7 184 98 7 185 91 16 186 99 16 187 98 16 188 99 7 189 132 7 190 141 7 191 141 7 192 131 7 193 140 7 194 98 7 195 93 7 196 92 7 197 107 7 198 92 7 199 105 7 200 138 7 201 90 7 202 137 7 203 137 7 204 95 7 205 136 7 206 110 7 207 108 7 208 111 7 209 119 7 210 102 7 211 118 7 212 120 7 213 104 7 214 119 7 215 126 7 216 105 7 217 124 7 218 126 7 219 106 7 220 107 7 221 111 7 222 101 7 223 109 7 224 116 7 225 112 7 226 115 7 227 115 7 228 114 7 229 117 7 230 108 7 231 117 7 232 101 7 233 88 7 234 115 7 235 108 7 236 113 7 237 119 7 238 112 7 239 112 7 240 118 7 241 114 7 242 103 7 243 122 7 244 104 7 245 104 7 246 123 7 247 102 7 248 122 7 249 125 7 250 126 7 251 122 7 252 124 7 253 123 7 254 133 7 255 128 7 256 150 7 257 133 7 258 127 7 259 129 7 260 136 7 261 96 7 262 135 7 263 135 7 264 97 7 265 134 7 266 134 7 267 100 7 268 133 7 269 99 7 270 142 7 271 93 7 272 141 7 273 143 7 274 142 7 275 140 17 276 144 17 277 143 17 278 139 7 279 145 7 280 144 7 281 138 7 282 146 7 283 145 7 284 137 7 285 147 7 286 146 7 287 136 7 288 148 7 289 147 7 290 135 7 291 149 7 292 148 7 293 134 7 294 150 7 295 149 7 296 227 18 297 153 18 298 226 18 299 228 18 300 218 18 301 227 18 302 174 18 303 155 18 304 163 18 305 155 19 306 164 19 307 163 19 308 164 18 309 220 18 310 229 18 311 229 18 312 219 18 313 228 18 314 163 20 315 157 20 316 156 20 317 174 18 318 156 18 319 172 18 320 226 18 321 154 18 322 225 18 323 225 18 324 159 18 325 224 18 326 161 18 327 167 18 328 151 18 329 195 18 330 178 18 331 196 18 332 210 18 333 169 18 334 209 18 335 211 18 336 171 18 337 210 18 338 217 18 339 172 18 340 215 18 341 217 18 342 173 18 343 174 18 344 168 18 345 187 18 346 185 18 347 185 18 348 177 18 349 186 18 350 196 18 351 166 18 352 194 18 353 199 18 354 179 18 355 197 18 356 198 18 357 181 18 358 199 18 359 175 18 360 183 18 361 176 18 362 176 18 363 184 18 364 177 18 365 168 18 366 186 18 367 167 18 368 181 18 369 188 18 370 179 18 371 187 18 372 176 18 373 185 18 374 180 18 375 190 18 376 181 18 377 190 18 378 191 18 379 188 18 380 189 18 381 193 18 382 190 18 383 193 18 384 194 18 385 191 18 386 192 18 387 196 18 388 193 18 389 200 18 390 199 18 391 201 18 392 201 18 393 197 18 394 202 18 395 183 18 396 202 18 397 184 18 398 182 18 399 201 18 400 183 18 401 207 18 402 203 18 403 206 18 404 206 18 405 205 18 406 208 18 407 178 18 408 208 18 409 166 18 410 152 18 411 206 18 412 178 18 413 204 18 414 210 18 415 203 18 416 203 18 417 209 18 418 205 18 419 170 18 420 213 18 421 171 18 422 171 18 423 214 18 424 169 18 425 213 18 426 216 18 427 217 18 428 213 18 429 215 18 430 214 18 431 221 18 432 279 18 433 238 18 434 221 18 435 278 18 436 280 18 437 224 18 438 160 18 439 223 18 440 223 18 441 162 18 442 222 18 443 222 18 444 165 18 445 221 18 446 164 18 447 230 18 448 157 18 449 229 18 450 231 18 451 230 18 452 228 18 453 232 18 454 231 18 455 227 18 456 233 18 457 232 18 458 226 18 459 234 18 460 233 18 461 225 18 462 235 18 463 234 18 464 224 18 465 236 18 466 235 18 467 223 18 468 237 18 469 236 18 470 222 18 471 238 18 472 237 18 473 290 21 474 240 21 475 281 21 476 291 22 477 281 22 478 282 22 479 258 23 480 242 23 481 257 23 482 250 18 483 242 18 484 249 18 485 250 24 486 283 24 487 245 24 488 292 25 489 282 25 490 283 25 491 244 18 492 249 18 493 243 18 494 243 18 495 258 18 496 256 18 497 289 26 498 241 26 499 240 26 500 288 27 501 246 27 502 241 27 503 259 18 504 261 18 505 262 18 506 253 18 507 270 18 508 269 18 509 255 18 510 271 18 511 270 18 512 256 18 513 277 18 514 275 18 515 277 28 516 257 28 517 276 28 518 252 18 519 262 18 520 260 18 521 263 18 522 267 18 523 266 18 524 265 18 525 266 18 526 268 18 527 268 18 528 259 18 529 252 18 530 266 18 531 239 18 532 259 18 533 270 18 534 264 18 535 263 18 536 269 18 537 263 18 538 265 18 539 273 18 540 254 18 541 255 18 542 274 18 543 255 18 544 253 18 545 273 29 546 276 29 547 272 29 548 275 18 549 273 18 550 274 18 551 279 18 552 284 18 553 301 18 554 284 30 555 278 30 556 251 30 557 287 31 558 247 31 559 246 31 560 286 32 561 248 32 562 247 32 563 285 33 564 251 33 565 248 33 566 293 18 567 250 18 568 244 18 569 294 18 570 292 18 571 293 18 572 295 18 573 291 18 574 294 18 575 296 18 576 290 18 577 295 18 578 297 18 579 289 18 580 296 18 581 298 18 582 288 18 583 297 18 584 299 18 585 287 18 586 298 18 587 300 18 588 286 18 589 299 18 590 301 18 591 285 18 592 300 18 593 76 7 903 75 7 904 2 7 905 77 7 906 76 7 907 67 7 908 23 7 909 12 7 910 4 7 911 13 89 912 7 89 913 4 89 914 13 7 915 78 7 916 69 7 917 78 7 918 77 7 919 68 7 920 6 90 921 13 90 922 12 90 923 5 7 924 12 7 925 23 7 926 75 7 927 74 7 928 3 7 929 74 7 930 73 7 931 8 7 932 16 7 933 17 7 934 10 7 935 27 91 936 1 91 937 44 91 938 18 7 939 20 7 940 59 7 941 20 92 942 19 92 943 60 92 944 21 7 945 23 7 946 66 7 947 66 7 948 23 7 949 22 7 950 26 7 951 25 7 952 34 7 953 15 7 954 27 7 955 45 7 956 28 7 957 30 7 958 48 7 959 30 93 960 29 93 961 47 93 962 32 94 963 31 94 964 24 94 965 33 7 966 32 7 967 25 7 968 35 7 969 34 7 970 17 7 971 37 7 972 39 7 973 30 7 974 36 7 975 34 7 976 25 7 977 39 95 978 38 95 979 29 95 980 40 7 981 42 7 982 39 7 983 42 7 984 41 7 985 38 7 986 43 7 987 45 7 988 42 7 989 45 96 990 44 96 991 41 96 992 48 97 993 47 97 994 49 97 995 46 7 996 48 7 997 50 7 998 51 7 999 50 7 1000 32 7 1001 50 98 1002 49 98 1003 31 98 1004 52 99 1005 53 99 1006 56 99 1007 54 7 1008 52 7 1009 55 7 1010 57 7 1011 55 7 1012 27 7 1013 55 100 1014 56 100 1015 1 100 1016 59 101 1017 60 101 1018 53 101 1019 58 7 1020 59 7 1021 52 7 1022 62 102 1023 61 102 1024 19 102 1025 63 7 1026 62 7 1027 20 7 1028 62 7 1029 66 7 1030 65 7 1031 64 7 1032 66 7 1033 62 7 1034 128 7 1035 129 7 1036 70 7 1037 70 7 1038 129 7 1039 127 7 1040 73 7 1041 72 7 1042 9 7 1043 72 7 1044 71 7 1045 11 7 1046 71 7 1047 70 7 1048 14 7 1049 79 7 1050 78 7 1051 13 7 1052 80 7 1053 77 7 1054 78 7 1055 81 7 1056 76 7 1057 77 7 1058 82 7 1059 75 7 1060 76 7 1061 83 7 1062 74 7 1063 75 7 1064 84 7 1065 73 7 1066 74 7 1067 85 7 1068 72 7 1069 73 7 1070 86 7 1071 71 7 1072 72 7 1073 87 7 1074 70 7 1075 71 7 1076 139 103 1077 130 103 1078 89 103 1079 140 104 1080 131 104 1081 130 104 1082 107 105 1083 106 105 1084 91 105 1085 91 106 1086 94 106 1087 99 106 1088 99 107 1089 94 107 1090 132 107 1091 141 7 1092 132 7 1093 131 7 1094 98 7 1095 99 7 1096 93 7 1097 107 7 1098 98 7 1099 92 7 1100 138 108 1101 89 108 1102 90 108 1103 137 109 1104 90 109 1105 95 109 1106 110 110 1107 88 110 1108 108 110 1109 119 7 1110 104 7 1111 102 7 1112 120 111 1113 103 111 1114 104 111 1115 126 7 1116 107 7 1117 105 7 1118 126 112 1119 125 112 1120 106 112 1121 111 7 1122 108 7 1123 101 7 1124 116 113 1125 113 113 1126 112 113 1127 115 7 1128 112 7 1129 114 7 1130 108 7 1131 115 7 1132 117 7 1133 88 7 1134 116 7 1135 115 7 1136 113 7 1137 120 7 1138 119 7 1139 112 7 1140 119 7 1141 118 7 1142 103 7 1143 121 7 1144 122 7 1145 104 7 1146 122 7 1147 123 7 1148 122 114 1149 121 114 1150 125 114 1151 122 7 1152 126 7 1153 124 7 1154 133 7 1155 129 7 1156 128 7 1157 133 115 1158 100 115 1159 127 115 1160 136 116 1161 95 116 1162 96 116 1163 135 117 1164 96 117 1165 97 117 1166 134 118 1167 97 118 1168 100 118 1169 99 7 1170 141 7 1171 142 7 1172 141 7 1173 140 7 1174 143 7 1175 140 7 1176 139 7 1177 144 7 1178 139 7 1179 138 7 1180 145 7 1181 138 7 1182 137 7 1183 146 7 1184 137 7 1185 136 7 1186 147 7 1187 136 7 1188 135 7 1189 148 7 1190 135 7 1191 134 7 1192 149 7 1193 134 7 1194 133 7 1195 150 7 1196 227 119 1197 218 119 1198 153 119 1199 228 120 1200 219 120 1201 218 120 1202 174 121 1203 173 121 1204 155 121 1205 155 18 1206 158 18 1207 164 18 1208 164 122 1209 158 122 1210 220 122 1211 229 123 1212 220 123 1213 219 123 1214 163 18 1215 164 18 1216 157 18 1217 174 18 1218 163 18 1219 156 18 1220 226 124 1221 153 124 1222 154 124 1223 225 125 1224 154 125 1225 159 125 1226 161 18 1227 168 18 1228 167 18 1229 195 18 1230 152 18 1231 178 18 1232 210 18 1233 171 18 1234 169 18 1235 211 18 1236 170 18 1237 171 18 1238 217 18 1239 174 18 1240 172 18 1241 217 126 1242 216 126 1243 173 126 1244 185 18 1245 176 18 1246 177 18 1247 196 18 1248 178 18 1249 166 18 1250 199 18 1251 181 18 1252 179 18 1253 198 18 1254 180 18 1255 181 18 1256 175 18 1257 182 18 1258 183 18 1259 176 18 1260 183 18 1261 184 18 1262 168 18 1263 185 18 1264 186 18 1265 181 18 1266 190 18 1267 188 18 1268 187 18 1269 175 18 1270 176 18 1271 180 18 1272 189 18 1273 190 18 1274 190 18 1275 193 18 1276 191 18 1277 189 18 1278 192 18 1279 193 18 1280 193 18 1281 196 18 1282 194 18 1283 192 18 1284 195 18 1285 196 18 1286 200 127 1287 198 127 1288 199 127 1289 201 18 1290 199 18 1291 197 18 1292 183 18 1293 201 18 1294 202 18 1295 182 128 1296 200 128 1297 201 128 1298 207 18 1299 204 18 1300 203 18 1301 206 18 1302 203 18 1303 205 18 1304 178 18 1305 206 18 1306 208 18 1307 152 18 1308 207 18 1309 206 18 1310 204 129 1311 211 129 1312 210 129 1313 203 18 1314 210 18 1315 209 18 1316 170 18 1317 212 18 1318 213 18 1319 171 18 1320 213 18 1321 214 18 1322 213 130 1323 212 130 1324 216 130 1325 213 18 1326 217 18 1327 215 18 1328 221 18 1329 280 18 1330 279 18 1331 221 131 1332 165 131 1333 278 131 1334 224 132 1335 159 132 1336 160 132 1337 223 18 1338 160 18 1339 162 18 1340 222 133 1341 162 133 1342 165 133 1343 164 18 1344 229 18 1345 230 18 1346 229 18 1347 228 18 1348 231 18 1349 228 18 1350 227 18 1351 232 18 1352 227 18 1353 226 18 1354 233 18 1355 226 18 1356 225 18 1357 234 18 1358 225 18 1359 224 18 1360 235 18 1361 224 18 1362 223 18 1363 236 18 1364 223 18 1365 222 18 1366 237 18 1367 222 18 1368 221 18 1369 238 18 1370 290 18 1371 289 18 1372 240 18 1373 291 18 1374 290 18 1375 281 18 1376 258 18 1377 249 18 1378 242 18 1379 250 134 1380 245 134 1381 242 134 1382 250 18 1383 292 18 1384 283 18 1385 292 18 1386 291 18 1387 282 18 1388 244 135 1389 250 135 1390 249 135 1391 243 18 1392 249 18 1393 258 18 1394 289 18 1395 288 18 1396 241 18 1397 288 18 1398 287 18 1399 246 18 1400 259 136 1401 239 136 1402 261 136 1403 253 18 1404 255 18 1405 270 18 1406 255 137 1407 254 137 1408 271 137 1409 256 18 1410 258 18 1411 277 18 1412 277 18 1413 258 18 1414 257 18 1415 252 18 1416 259 18 1417 262 18 1418 263 138 1419 264 138 1420 267 138 1421 265 18 1422 263 18 1423 266 18 1424 268 18 1425 266 18 1426 259 18 1427 266 139 1428 267 139 1429 239 139 1430 270 140 1431 271 140 1432 264 140 1433 269 18 1434 270 18 1435 263 18 1436 273 141 1437 272 141 1438 254 141 1439 274 18 1440 273 18 1441 255 18 1442 273 18 1443 277 18 1444 276 18 1445 275 18 1446 277 18 1447 273 18 1448 279 18 1449 280 18 1450 284 18 1451 284 18 1452 280 18 1453 278 18 1454 287 18 1455 286 18 1456 247 18 1457 286 18 1458 285 18 1459 248 18 1460 285 18 1461 284 18 1462 251 18 1463 293 18 1464 292 18 1465 250 18 1466 294 18 1467 291 18 1468 292 18 1469 295 18 1470 290 18 1471 291 18 1472 296 18 1473 289 18 1474 290 18 1475 297 18 1476 288 18 1477 289 18 1478 298 18 1479 287 18 1480 288 18 1481 299 18 1482 286 18 1483 287 18 1484 300 18 1485 285 18 1486 286 18 1487 301 18 1488 284 18 1489 285 18 1490</p>
        </triangles>
      </mesh>
    </geometry>
  </library_geometries>
  <library_visual_scenes>
    <visual_scene id="Scene" name="Scene">
      <node id="amber_end_1" name="amber_end_1" type="NODE">
        <matrix sid="transform">1 0 0 0.09587795 0 1 0 -0.001156647 0 0 1 1.35 0 0 0 1</matrix>
        <instance_geometry url="#Plane-mesh" name="amber_end_1">
          <bind_material>
            <technique_common>
              <instance_material symbol="front_shine-material" target="#front_shine-material">
                <bind_vertex_input semantic="UVMap" input_semantic="TEXCOORD" input_set="0"/>
              </instance_material>
              <instance_material symbol="front-material" target="#front-material">
                <bind_vertex_input semantic="UVMap" input_semantic="TEXCOORD" input_set="0"/>
              </instance_material>
              <instance_material symbol="tyl-material" target="#tyl-material">
                <bind_vertex_input semantic="UVMap" input_semantic="TEXCOORD" input_set="0"/>
              </instance_material>
              <instance_material symbol="gora_dol-material" target="#gora_dol-material">
                <bind_vertex_input semantic="UVMap" input_semantic="TEXCOORD" input_set="0"/>
              </instance_material>
            </technique_common>
          </bind_material>
        </instance_geometry>
      </node>
    </visual_scene>
  </library_visual_scenes>
  <scene>
    <instance_visual_scene url="#Scene"/>
  </scene>
</COLLADA>