# Blender 3.5.0
# www.blender.org
mtllib ALN0074.mtl
o bok
v -0.973840 0.000000 -0.002310
v -0.973840 0.000000 0.008690
v -0.973840 2.700000 -0.002310
v -0.973840 2.700000 0.008690
v -0.973840 0.000000 -0.011310
v -0.973840 2.700000 -0.011310
v -0.990840 0.000000 -0.002310
v -0.990840 2.700000 -0.002310
v -0.990840 0.000000 0.008690
v -0.990840 2.700000 0.008690
v -0.990840 0.000000 -0.011310
v -0.990840 2.700000 -0.011310
v -0.969340 0.000000 -0.002310
v -0.968840 0.000000 -0.001810
v -0.969149 0.000000 -0.002272
v -0.968987 0.000000 -0.002164
v -0.968878 0.000000 -0.002001
v -0.995840 0.000000 -0.001810
v -0.995840 0.000000 -0.002810
v -0.995340 0.000000 -0.002310
v -0.995840 0.000000 -0.002060
v -0.995840 0.000000 -0.002310
v -0.995840 0.000000 -0.002560
v -0.968840 0.000000 0.008190
v -0.969340 0.000000 0.008690
v -0.968878 0.000000 0.008381
v -0.968987 0.000000 0.008543
v -0.969149 0.000000 0.008652
v -0.995340 0.000000 0.008690
v -0.995840 0.000000 0.008190
v -0.995531 0.000000 0.008652
v -0.995694 0.000000 0.008543
v -0.995802 0.000000 0.008381
v -0.968840 2.700000 -0.001810
v -0.969340 2.700000 -0.002310
v -0.968878 2.700000 -0.002001
v -0.968987 2.700000 -0.002164
v -0.969149 2.700000 -0.002272
v -0.995840 2.700000 -0.002810
v -0.995840 2.700000 -0.001810
v -0.995340 2.700000 -0.002310
v -0.995840 2.700000 -0.002560
v -0.995840 2.700000 -0.002310
v -0.995840 2.700000 -0.002060
v -0.969340 2.700000 0.008690
v -0.968840 2.700000 0.008190
v -0.969149 2.700000 0.008652
v -0.968987 2.700000 0.008543
v -0.968878 2.700000 0.008381
v -0.995840 2.700000 0.008190
v -0.995340 2.700000 0.008690
v -0.995802 2.700000 0.008381
v -0.995694 2.700000 0.008543
v -0.995531 2.700000 0.008652
v -0.995840 0.000000 -0.010810
v -0.995340 0.000000 -0.011310
v -0.995802 0.000000 -0.011001
v -0.995694 0.000000 -0.011164
v -0.995531 0.000000 -0.011272
v -0.995340 2.700000 -0.011310
v -0.995840 2.700000 -0.010810
v -0.995531 2.700000 -0.011272
v -0.995694 2.700000 -0.011164
v -0.995802 2.700000 -0.011001
vn -1.0000 -0.0000 -0.0000
vn -0.0000 -0.0000 -1.0000
vn -0.0000 -0.0000 1.0000
vn -0.0000 1.0000 -0.0000
vn -0.0000 -1.0000 -0.0000
vn 1.0000 -0.0000 -0.0000
vn -0.0005 1.0000 -0.0000
vn -0.0009 1.0000 -0.0000
vn 0.9809 -0.0000 0.1946
vn 0.8311 -0.0000 0.5561
vn 0.5558 -0.0000 0.8313
vn 0.1950 -0.0000 0.9808
vn -0.9807 -0.0000 0.1955
vn -0.8316 -0.0000 0.5554
vn -0.5556 -0.0000 0.8315
vn -0.1951 -0.0000 0.9808
vn 0.9809 -0.0000 -0.1946
vn 0.8311 -0.0000 -0.5561
vn 0.5558 -0.0000 -0.8313
vn 0.1950 -0.0000 -0.9808
vn -0.9807 -0.0000 -0.1955
vn -0.8316 -0.0000 -0.5554
vn -0.5556 -0.0000 -0.8315
vn -0.1951 -0.0000 -0.9808
vt 0.346191 0.001985
vt -0.324362 -60.101269
vt 0.120903 0.001989
vt -0.728168 -60.806034
vt 0.346191 0.998002
vt -0.005677 61.581745
vt 0.120903 0.998005
vt -0.306431 62.110878
vt 0.037955 -59.809292
vt 0.265518 61.361095
vt 0.391270 -61.007206
vt 0.531569 62.256542
vt 0.026571 0.001989
vt -0.002221 -61.742363
vt 0.026571 0.998005
vt 0.238579 62.808235
vt -0.303031 0.001995
vt 0.714072 -60.342552
vt -0.303031 0.998011
vt 0.771763 61.758080
vt 0.321221 0.001985
vt -0.516525 -59.853405
vt 0.261292 0.001987
vt -0.556231 -59.857899
vt 0.306239 0.001986
vt -0.526093 -59.845318
vt 0.291256 0.001986
vt -0.536998 -59.843327
vt 0.276274 0.001987
vt -0.547581 -59.847752
vt 0.608037 -61.310356
vt -0.113818 0.001991
vt 0.644277 -61.240181
vt -0.173740 0.001993
vt 0.602560 -61.248524
vt -0.143794 0.000000
vt -0.128799 0.001991
vt -0.143780 0.001992
vt -0.158760 0.001992
vt 0.205802 0.001987
vt -0.923327 -60.498604
vt 0.145874 0.001989
vt -0.920330 -60.558170
vt 0.190820 0.001988
vt -0.928726 -60.512974
vt 0.175838 0.001988
vt -0.930052 -60.529327
vt 0.160856 0.001989
vt -0.927104 -60.545204
vt 0.199891 -61.990356
vt 0.001601 0.001989
vt 0.240714 -61.984226
vt -0.058328 0.001991
vt 0.209882 -61.998348
vt -0.013382 0.001989
vt 0.221149 -61.999996
vt -0.028364 0.001990
vt 0.231976 -61.995026
vt -0.043346 0.001990
vt -0.179645 61.400707
vt 0.261292 0.998003
vt -0.149945 61.397152
vt 0.321221 0.998002
vt -0.173194 61.393047
vt 0.276274 0.998003
vt -0.165284 61.389702
vt 0.291256 0.998003
vt -0.157120 61.391140
vt 0.306239 0.998002
vt 0.721267 62.429756
vt -0.173740 0.998009
vt 0.694291 62.482388
vt -0.113818 0.998007
vt 0.690078 62.436161
vt -0.143764 1.000000
vt -0.158758 0.998009
vt -0.143778 0.998008
vt -0.128798 0.998008
vt -0.450698 61.926266
vt 0.145874 0.998005
vt -0.453057 61.881710
vt 0.205802 0.998003
vt -0.455792 61.916592
vt 0.160856 0.998005
vt -0.458029 61.904713
vt 0.175838 0.998004
vt -0.457069 61.892460
vt 0.190820 0.998004
vt 0.420791 62.988113
vt -0.058328 0.998007
vt 0.390262 62.992897
vt 0.001601 0.998005
vt 0.414275 62.996250
vt -0.043346 0.998007
vt 0.406185 63.000000
vt -0.028364 0.998006
vt 0.397753 62.998814
vt -0.013382 0.998006
vt 0.939153 -60.655609
vt -0.218132 0.001993
vt 0.933232 -60.591423
vt -0.278060 0.001995
vt 0.944352 -60.639523
vt -0.233114 0.001993
vt 0.945053 -60.621670
vt -0.248096 0.001994
vt 0.941148 -60.604794
vt -0.263078 0.001994
vt 0.936154 61.943279
vt -0.278060 0.998011
vt 0.940705 61.991257
vt -0.218132 0.998009
vt 0.942100 61.953224
vt -0.263078 0.998011
vt 0.945053 61.965851
vt -0.248096 0.998010
vt 0.944563 61.979210
vt -0.233114 0.998010
s 0
g bok_MDF-GREY
usemtl MDF-GREY
f 8/12/4 3/6/4 6/10/4 12/20/4
f 7/11/5 20/35/5 19/33/5 55/99/5 57/103/5 58/105/5 59/107/5 56/101/5 11/18/5
f 39/70/4 41/74/4 8/12/4 12/20/4 60/109/4 62/113/4 63/115/4 64/117/4 61/111/4
f 3/6/6 1/2/6 5/9/6 6/10/6
f 7/11/5 9/14/5 29/50/5 31/54/5 32/56/5 33/58/5 30/52/5 18/31/5 20/35/5
f 1/2/5 7/11/5 11/18/5 5/9/5
f 5/9/2 11/18/2 12/20/2 6/10/2
f 34/60/4 36/64/4 37/66/4 38/68/4 35/62/4 3/6/4 4/8/4 45/79/4 47/83/4 48/85/4 49/87/4 46/81/4
f 8/12/4 41/74/4 40/72/4 50/89/4 52/93/4 53/95/4 54/97/4 51/91/4 10/16/4
f 3/6/4 8/12/4 10/16/4 4/8/4
f 1/2/5 2/4/5 9/14/5 7/11/5
f 13/22/5 15/26/5 16/28/5 17/30/5 14/24/5 24/41/5 26/45/5 27/47/5 28/49/5 25/43/5 2/4/5 1/2/5
g bok_KOLOR
usemtl KOLOR
f 18/32/1 30/53/1 50/90/1 40/73/1
f 11/17/2 56/102/2 60/110/2 12/19/2
f 29/51/3 9/13/3 10/15/3 51/92/3
f 19/34/1 39/71/1 61/112/1 55/100/1
f 13/21/2 1/1/2 3/5/2 35/63/2
f 9/13/3 2/3/3 4/7/3 10/15/3
f 24/40/6 14/23/6 34/61/6 46/82/6
f 2/3/3 25/42/3 45/80/3 4/7/3
f 18/32/5 21/37/5 20/36/5
f 21/37/5 22/38/5 20/36/5
f 22/38/5 23/39/5 20/36/5
f 23/39/5 19/34/5 20/36/5
f 39/71/7 42/76/7 41/75/7
f 42/76/4 43/77/4 41/75/4
f 43/77/4 44/78/4 41/75/4
f 44/78/8 40/73/8 41/75/8
f 24/40/9 46/82/9 49/88/9 26/44/9
f 26/44/10 49/88/10 48/86/10 27/46/10
f 27/46/11 48/86/11 47/84/11 28/48/11
f 28/48/12 47/84/12 45/80/12 25/42/12
f 50/90/13 30/53/13 33/59/13 52/94/13
f 52/94/14 33/59/14 32/57/14 53/96/14
f 53/96/15 32/57/15 31/55/15 54/98/15
f 54/98/16 31/55/16 29/51/16 51/92/16
f 18/32/1 40/73/1 44/78/1 21/37/1
f 21/37/1 44/78/1 43/77/1 22/38/1
f 22/38/1 43/77/1 42/76/1 23/39/1
f 23/39/1 42/76/1 39/71/1 19/34/1
f 34/61/17 14/23/17 17/29/17 36/65/17
f 36/65/18 17/29/18 16/27/18 37/67/18
f 37/67/19 16/27/19 15/25/19 38/69/19
f 38/69/20 15/25/20 13/21/20 35/63/20
f 55/100/21 61/112/21 64/118/21 57/104/21
f 57/104/22 64/118/22 63/116/22 58/106/22
f 58/106/23 63/116/23 62/114/23 59/108/23
f 59/108/24 62/114/24 60/110/24 56/102/24
