# Blender 3.5.0
# www.blender.org
mtllib ALN0073.mtl
o glowna
v -0.693761 0.000100 -0.011210
v -0.693861 0.000000 -0.011210
v -0.693861 0.000100 -0.011310
v -0.973661 0.000100 -0.011310
v -0.973661 0.000000 -0.011210
v -0.973761 0.000100 -0.011210
v -0.693761 0.000100 -0.002410
v -0.693861 0.000100 -0.002310
v -0.693861 0.000000 -0.002410
v -0.973761 0.000100 -0.002410
v -0.973661 0.000000 -0.002410
v -0.973661 0.000100 -0.002310
v -0.693761 2.699900 -0.011210
v -0.693861 2.699900 -0.011310
v -0.693861 2.700000 -0.011210
v -0.973661 2.699900 -0.011310
v -0.973761 2.699900 -0.011210
v -0.973661 2.700000 -0.011210
v -0.693761 2.699900 -0.002410
v -0.693861 2.700000 -0.002410
v -0.693861 2.699900 -0.002310
v -0.973761 2.699900 -0.002410
v -0.973661 2.699900 -0.002310
v -0.973661 2.700000 -0.002410
v -0.689261 0.000000 -0.002310
v -0.688761 0.000000 -0.001810
v -0.689070 0.000000 -0.002272
v -0.688908 0.000000 -0.002164
v -0.688799 0.000000 -0.002001
v -0.715761 0.000000 -0.001810
v -0.715261 0.000000 -0.002310
v -0.715723 0.000000 -0.002001
v -0.715615 0.000000 -0.002164
v -0.715452 0.000000 -0.002272
v -0.688761 0.000000 0.009190
v -0.689261 0.000000 0.009690
v -0.688799 0.000000 0.009381
v -0.688908 0.000000 0.009543
v -0.689070 0.000000 0.009652
v -0.715261 0.000000 0.009690
v -0.715761 0.000000 0.009190
v -0.715452 0.000000 0.009652
v -0.715615 0.000000 0.009543
v -0.715723 0.000000 0.009381
v -0.688761 2.700000 -0.001810
v -0.689261 2.700000 -0.002310
v -0.688799 2.700000 -0.002001
v -0.688908 2.700000 -0.002164
v -0.689070 2.700000 -0.002272
v -0.715261 2.700000 -0.002310
v -0.715761 2.700000 -0.001810
v -0.715452 2.700000 -0.002272
v -0.715615 2.700000 -0.002164
v -0.715723 2.700000 -0.002001
v -0.689261 2.700000 0.009690
v -0.688761 2.700000 0.009190
v -0.689070 2.700000 0.009652
v -0.688908 2.700000 0.009543
v -0.688799 2.700000 0.009381
v -0.715761 2.700000 0.009190
v -0.715261 2.700000 0.009690
v -0.715723 2.700000 0.009381
v -0.715615 2.700000 0.009543
v -0.715452 2.700000 0.009652
v -0.729261 0.000000 -0.002310
v -0.728761 0.000000 -0.001810
v -0.729070 0.000000 -0.002272
v -0.728908 0.000000 -0.002164
v -0.728799 0.000000 -0.002001
v -0.755761 0.000000 -0.001810
v -0.755261 0.000000 -0.002310
v -0.755723 0.000000 -0.002001
v -0.755615 0.000000 -0.002164
v -0.755452 0.000000 -0.002272
v -0.728761 0.000000 0.009190
v -0.729261 0.000000 0.009690
v -0.728799 0.000000 0.009381
v -0.728908 0.000000 0.009543
v -0.729070 0.000000 0.009652
v -0.755261 0.000000 0.009690
v -0.755761 0.000000 0.009190
v -0.755452 0.000000 0.009652
v -0.755615 0.000000 0.009543
v -0.755723 0.000000 0.009381
v -0.728761 2.700000 -0.001810
v -0.729261 2.700000 -0.002310
v -0.728799 2.700000 -0.002001
v -0.728908 2.700000 -0.002164
v -0.729070 2.700000 -0.002272
v -0.755261 2.700000 -0.002310
v -0.755761 2.700000 -0.001810
v -0.755452 2.700000 -0.002272
v -0.755615 2.700000 -0.002164
v -0.755723 2.700000 -0.002001
v -0.729261 2.700000 0.009690
v -0.728761 2.700000 0.009190
v -0.729070 2.700000 0.009652
v -0.728908 2.700000 0.009543
v -0.728799 2.700000 0.009381
v -0.755761 2.700000 0.009190
v -0.755261 2.700000 0.009690
v -0.755723 2.700000 0.009381
v -0.755615 2.700000 0.009543
v -0.755452 2.700000 0.009652
v -0.769261 0.000000 -0.002310
v -0.768761 0.000000 -0.001810
v -0.769070 0.000000 -0.002272
v -0.768908 0.000000 -0.002164
v -0.768799 0.000000 -0.002001
v -0.795761 0.000000 -0.001810
v -0.795261 0.000000 -0.002310
v -0.795723 0.000000 -0.002001
v -0.795615 0.000000 -0.002164
v -0.795452 0.000000 -0.002272
v -0.768761 0.000000 0.009190
v -0.769261 0.000000 0.009690
v -0.768799 0.000000 0.009381
v -0.768908 0.000000 0.009543
v -0.769070 0.000000 0.009652
v -0.795261 0.000000 0.009690
v -0.795761 0.000000 0.009190
v -0.795452 0.000000 0.009652
v -0.795615 0.000000 0.009543
v -0.795723 0.000000 0.009381
v -0.768761 2.700000 -0.001810
v -0.769261 2.700000 -0.002310
v -0.768799 2.700000 -0.002001
v -0.768908 2.700000 -0.002164
v -0.769070 2.700000 -0.002272
v -0.795261 2.700000 -0.002310
v -0.795761 2.700000 -0.001810
v -0.795452 2.700000 -0.002272
v -0.795615 2.700000 -0.002164
v -0.795723 2.700000 -0.002001
v -0.769261 2.700000 0.009690
v -0.768761 2.700000 0.009190
v -0.769070 2.700000 0.009652
v -0.768908 2.700000 0.009543
v -0.768799 2.700000 0.009381
v -0.795761 2.700000 0.009190
v -0.795261 2.700000 0.009690
v -0.795723 2.700000 0.009381
v -0.795615 2.700000 0.009543
v -0.795452 2.700000 0.009652
v -0.809261 0.000000 -0.002310
v -0.808761 0.000000 -0.001810
v -0.809070 0.000000 -0.002272
v -0.808908 0.000000 -0.002164
v -0.808799 0.000000 -0.002001
v -0.835761 0.000000 -0.001810
v -0.835261 0.000000 -0.002310
v -0.835723 0.000000 -0.002001
v -0.835615 0.000000 -0.002164
v -0.835452 0.000000 -0.002272
v -0.808761 0.000000 0.009190
v -0.809261 0.000000 0.009690
v -0.808799 0.000000 0.009381
v -0.808908 0.000000 0.009543
v -0.809070 0.000000 0.009652
v -0.835261 0.000000 0.009690
v -0.835761 0.000000 0.009190
v -0.835452 0.000000 0.009652
v -0.835615 0.000000 0.009543
v -0.835723 0.000000 0.009381
v -0.808761 2.700000 -0.001810
v -0.809261 2.700000 -0.002310
v -0.808799 2.700000 -0.002001
v -0.808908 2.700000 -0.002164
v -0.809070 2.700000 -0.002272
v -0.835261 2.700000 -0.002310
v -0.835761 2.700000 -0.001810
v -0.835452 2.700000 -0.002272
v -0.835615 2.700000 -0.002164
v -0.835723 2.700000 -0.002001
v -0.809261 2.700000 0.009690
v -0.808761 2.700000 0.009190
v -0.809070 2.700000 0.009652
v -0.808908 2.700000 0.009543
v -0.808799 2.700000 0.009381
v -0.835761 2.700000 0.009190
v -0.835261 2.700000 0.009690
v -0.835723 2.700000 0.009381
v -0.835615 2.700000 0.009543
v -0.835452 2.700000 0.009652
v -0.849261 0.000000 -0.002310
v -0.848761 0.000000 -0.001810
v -0.849070 0.000000 -0.002272
v -0.848908 0.000000 -0.002164
v -0.848799 0.000000 -0.002001
v -0.875761 0.000000 -0.001810
v -0.875261 0.000000 -0.002310
v -0.875723 0.000000 -0.002001
v -0.875615 0.000000 -0.002164
v -0.875452 0.000000 -0.002272
v -0.848761 0.000000 0.009190
v -0.849261 0.000000 0.009690
v -0.848799 0.000000 0.009381
v -0.848908 0.000000 0.009543
v -0.849070 0.000000 0.009652
v -0.875261 0.000000 0.009690
v -0.875761 0.000000 0.009190
v -0.875452 0.000000 0.009652
v -0.875615 0.000000 0.009543
v -0.875723 0.000000 0.009381
v -0.848761 2.700000 -0.001810
v -0.849261 2.700000 -0.002310
v -0.848799 2.700000 -0.002001
v -0.848908 2.700000 -0.002164
v -0.849070 2.700000 -0.002272
v -0.875261 2.700000 -0.002310
v -0.875761 2.700000 -0.001810
v -0.875452 2.700000 -0.002272
v -0.875615 2.700000 -0.002164
v -0.875723 2.700000 -0.002001
v -0.849261 2.700000 0.009690
v -0.848761 2.700000 0.009190
v -0.849070 2.700000 0.009652
v -0.848908 2.700000 0.009543
v -0.848799 2.700000 0.009381
v -0.875761 2.700000 0.009190
v -0.875261 2.700000 0.009690
v -0.875723 2.700000 0.009381
v -0.875615 2.700000 0.009543
v -0.875452 2.700000 0.009652
v -0.889261 0.000000 -0.002310
v -0.888761 0.000000 -0.001810
v -0.889070 0.000000 -0.002272
v -0.888908 0.000000 -0.002164
v -0.888799 0.000000 -0.002001
v -0.915761 0.000000 -0.001810
v -0.915261 0.000000 -0.002310
v -0.915723 0.000000 -0.002001
v -0.915615 0.000000 -0.002164
v -0.915452 0.000000 -0.002272
v -0.888761 0.000000 0.009190
v -0.889261 0.000000 0.009690
v -0.888799 0.000000 0.009381
v -0.888908 0.000000 0.009543
v -0.889070 0.000000 0.009652
v -0.915261 0.000000 0.009690
v -0.915761 0.000000 0.009190
v -0.915452 0.000000 0.009652
v -0.915615 0.000000 0.009543
v -0.915723 0.000000 0.009381
v -0.888761 2.700000 -0.001810
v -0.889261 2.700000 -0.002310
v -0.888799 2.700000 -0.002001
v -0.888908 2.700000 -0.002164
v -0.889070 2.700000 -0.002272
v -0.915261 2.700000 -0.002310
v -0.915761 2.700000 -0.001810
v -0.915452 2.700000 -0.002272
v -0.915615 2.700000 -0.002164
v -0.915723 2.700000 -0.002001
v -0.889261 2.700000 0.009690
v -0.888761 2.700000 0.009190
v -0.889070 2.700000 0.009652
v -0.888908 2.700000 0.009543
v -0.888799 2.700000 0.009381
v -0.915761 2.700000 0.009190
v -0.915261 2.700000 0.009690
v -0.915723 2.700000 0.009381
v -0.915615 2.700000 0.009543
v -0.915452 2.700000 0.009652
v -0.929261 0.000000 -0.002310
v -0.928761 0.000000 -0.001810
v -0.929070 0.000000 -0.002272
v -0.928908 0.000000 -0.002164
v -0.928799 0.000000 -0.002001
v -0.955761 0.000000 -0.001810
v -0.955261 0.000000 -0.002310
v -0.955723 0.000000 -0.002001
v -0.955615 0.000000 -0.002164
v -0.955453 0.000000 -0.002272
v -0.928761 0.000000 0.009190
v -0.929261 0.000000 0.009690
v -0.928799 0.000000 0.009381
v -0.928908 0.000000 0.009543
v -0.929070 0.000000 0.009652
v -0.955261 0.000000 0.009690
v -0.955761 0.000000 0.009190
v -0.955452 0.000000 0.009652
v -0.955615 0.000000 0.009543
v -0.955723 0.000000 0.009381
v -0.928761 2.700000 -0.001810
v -0.929261 2.700000 -0.002310
v -0.928799 2.700000 -0.002001
v -0.928908 2.700000 -0.002164
v -0.929070 2.700000 -0.002272
v -0.955261 2.700000 -0.002310
v -0.955761 2.700000 -0.001810
v -0.955453 2.700000 -0.002272
v -0.955615 2.700000 -0.002164
v -0.955723 2.700000 -0.002001
v -0.929261 2.700000 0.009690
v -0.928761 2.700000 0.009190
v -0.929070 2.700000 0.009652
v -0.928908 2.700000 0.009543
v -0.928799 2.700000 0.009381
v -0.955761 2.700000 0.009190
v -0.955261 2.700000 0.009690
v -0.955723 2.700000 0.009381
v -0.955615 2.700000 0.009543
v -0.955452 2.700000 0.009652
vn -0.0000 -0.0000 -1.0000
vn -0.0000 1.0000 -0.0000
vn -1.0000 -0.0000 -0.0000
vn -0.0000 -0.0000 1.0000
vn -0.0000 -1.0000 -0.0000
vn 0.5778 -0.5772 -0.5770
vn -0.5775 -0.5770 -0.5775
vn 0.5778 -0.5772 0.5770
vn -0.5775 -0.5770 0.5775
vn 0.5778 0.5772 -0.5770
vn -0.5778 0.5772 -0.5770
vn 0.5778 0.5772 0.5770
vn -0.5778 0.5772 0.5770
vn 0.7071 -0.7071 -0.0000
vn -0.0000 -0.7070 -0.7072
vn -0.7071 -0.7071 -0.0000
vn -0.0000 -0.7070 0.7072
vn 0.7067 0.7075 -0.0000
vn -0.0000 0.7075 -0.7067
vn -0.7067 0.7075 -0.0000
vn -0.0000 0.7075 0.7067
vn 0.7071 -0.0000 0.7071
vn -0.7072 -0.0000 0.7070
vn -0.7072 -0.0000 -0.7070
vn 0.7071 -0.0000 -0.7071
vn 1.0000 -0.0000 -0.0000
vn 0.9808 -0.0000 0.1949
vn 0.8314 -0.0000 0.5557
vn 0.5557 -0.0000 0.8314
vn 0.1951 -0.0000 0.9808
vn -0.9808 -0.0000 0.1951
vn -0.8315 -0.0000 0.5556
vn -0.5556 -0.0000 0.8315
vn -0.1951 -0.0000 0.9808
vn -0.9808 -0.0000 -0.1951
vn -0.8316 -0.0000 -0.5554
vn -0.5555 -0.0000 -0.8315
vn -0.1951 -0.0000 -0.9808
vn 0.9808 -0.0000 -0.1949
vn 0.8314 -0.0000 -0.5557
vn 0.5557 -0.0000 -0.8314
vn 0.1951 -0.0000 -0.9808
vn 0.9807 -0.0000 0.1953
vn 0.8316 -0.0000 0.5554
vn 0.5555 -0.0000 0.8315
vn -0.8314 -0.0000 0.5557
vn -0.5558 -0.0000 0.8313
vn -0.1950 -0.0000 0.9808
vn -0.8314 -0.0000 -0.5557
vn -0.5558 -0.0000 -0.8313
vn 0.9807 -0.0000 -0.1953
vn 0.8316 -0.0000 -0.5554
vn 0.5555 -0.0000 -0.8315
vn 0.9808 -0.0000 0.1951
vn 0.5556 -0.0000 0.8315
vn -0.5556 -0.0000 -0.8315
vn 0.9808 -0.0000 -0.1951
vn 0.5556 -0.0000 -0.8315
vn 0.5558 -0.0000 0.8313
vn -0.9809 -0.0000 0.1946
vn -0.8316 -0.0000 0.5554
vn -0.5554 -0.0000 0.8316
vn -0.9809 -0.0000 -0.1946
vn -0.5554 -0.0000 -0.8316
vn 0.5558 -0.0000 -0.8313
vn -0.1952 -0.0000 -0.9808
vn -0.1952 -0.0000 0.9808
vn 0.9809 -0.0000 0.1946
vn 0.9809 -0.0000 -0.1946
vt -0.282517 -39.497028
vt 8.535274 -39.497028
vt 8.535274 -39.499996
vt -0.279554 -39.499996
vt -0.279554 -39.497028
vt 8.010817 -39.497028
vt 8.535274 -31.209625
vt 8.010817 -39.499996
vt 8.013786 -39.499996
vt 8.013780 -39.497028
vt -0.282525 -39.497028
vt 8.274533 -39.497028
vt -0.285488 -39.497028
vt 8.796014 -39.499996
vt 8.274533 -39.499996
vt -0.285488 -39.499996
vt 8.274527 -39.497028
vt -8.578821 -39.497028
vt 8.796014 -31.209625
vt 8.274527 -39.499996
vt -8.575857 -39.499996
vt -8.575857 -39.497028
vt -0.282524 40.497028
vt 8.535268 40.497028
vt -0.279561 40.497028
vt 8.535274 -22.919256
vt 8.535268 40.499992
vt -0.279561 40.499992
vt 8.010810 40.497028
vt 8.013772 40.497028
vt 8.535274 -31.209625
vt 8.010810 40.499992
vt 8.013780 40.499992
vt -0.282532 40.497028
vt 8.274526 40.497028
vt 8.796014 -22.919256
vt 8.274526 40.499992
vt -0.285495 40.499992
vt -0.285495 40.497028
vt 8.274520 40.497028
vt -8.578828 40.497028
vt -8.575865 40.497028
vt 8.796014 -31.209625
vt 8.274520 40.499992
vt -8.575865 40.499992
vt 1.571429 2.848926
vt 1.113097 0.004246
vt 1.541667 2.893581
vt 1.587996 0.004246
vt 1.569163 2.866014
vt 1.112433 0.004246
vt 1.562711 2.880501
vt 1.589223 0.004246
vt 1.111871 0.004246
vt 1.553056 2.890181
vt 1.588660 0.004246
vt 1.709842 0.004246
vt 1.541667 0.482263
vt 1.955991 0.004246
vt 1.203296 0.004246
vt 1.571429 0.526918
vt 1.948627 0.004246
vt 1.553056 0.485663
vt 1.955328 0.004246
vt 1.562711 0.495342
vt 1.954765 0.004246
vt 1.949854 0.004246
vt 1.569163 0.509829
vt 1.949291 0.004246
vt 0.886905 2.893580
vt 1.549835 0.004246
vt 0.857143 2.848926
vt 0.466981 0.004246
vt 0.875516 2.890181
vt 1.549172 0.004246
vt 0.865860 2.880501
vt 1.548609 0.004246
vt 0.468207 0.004246
vt 0.859409 2.866014
vt 0.467644 0.004246
vt 0.857143 0.526918
vt 0.376782 0.004246
vt 0.886905 0.482264
vt 1.748003 0.004246
vt 0.859409 0.509830
vt 0.376118 0.004246
vt 0.865860 0.495343
vt 1.749230 0.004246
vt 0.375555 0.004246
vt 0.875516 0.485663
vt 1.748667 0.004246
vt 0.886905 0.482263
vt 1.587996 0.995754
vt 0.857143 0.437609
vt 1.113096 0.995754
vt 0.875516 0.478864
vt 1.588659 0.995754
vt 0.865860 0.469184
vt 1.589222 0.995754
vt 1.111870 0.995754
vt 0.859409 0.454697
vt 1.112433 0.995754
vt 1.203295 0.995754
vt 0.857143 -1.884400
vt 1.948627 0.995754
vt 0.886905 -1.929054
vt 1.709841 0.995754
vt 1.955991 0.995754
vt 0.859408 -1.901488
vt 1.949291 0.995754
vt 0.865860 -1.915975
vt 1.954764 0.995754
vt 1.949853 0.995754
vt 0.875515 -1.925655
vt 1.955327 0.995754
vt 1.571429 0.437609
vt 0.466980 0.995754
vt 1.541667 0.482263
vt 1.549835 0.995754
vt 1.569163 0.454697
vt 0.467644 0.995754
vt 1.562711 0.469184
vt 1.548608 0.995754
vt 0.468206 0.995754
vt 1.553056 0.478864
vt 1.549171 0.995754
vt 1.541667 -1.929053
vt 1.748002 0.995754
vt 1.571429 -1.884399
vt 0.376781 0.995754
vt 1.553056 -1.925654
vt 1.748666 0.995754
vt 1.562711 -1.915974
vt 1.749229 0.995754
vt 0.375554 0.995754
vt 1.569163 -1.901487
vt 0.376117 0.995754
vt 1.571429 -1.884400
vt 1.204523 0.004246
vt 1.601191 -1.929054
vt 1.547382 0.004246
vt 1.573694 -1.901488
vt 1.203860 0.004246
vt 1.580146 -1.915975
vt 1.548608 0.004246
vt 1.203297 0.004246
vt 1.589801 -1.925655
vt 1.548045 0.004246
vt 1.867396 0.004246
vt 1.601190 0.482263
vt 1.951082 0.004246
vt 1.294722 0.004246
vt 1.571429 0.437609
vt 1.947400 0.004246
vt 1.589801 0.478864
vt 1.950418 0.004246
vt 1.580146 0.469184
vt 1.949855 0.004246
vt 1.948627 0.004246
vt 1.573694 0.454698
vt 1.948064 0.004246
vt 2.255952 -1.929053
vt 1.509220 0.004246
vt 2.285714 -1.884399
vt 0.374328 0.004246
vt 2.267342 -1.925654
vt 1.508557 0.004246
vt 2.276997 -1.915974
vt 1.507994 0.004246
vt 0.375554 0.004246
vt 2.283449 -1.901487
vt 0.374992 0.004246
vt 2.285714 0.437609
vt 0.284129 0.004246
vt 2.255953 0.482263
vt 1.905557 0.004246
vt 2.283449 0.454697
vt 0.283465 0.004246
vt 2.276997 0.469184
vt 1.906783 0.004246
vt 0.282903 0.004246
vt 2.267342 0.478864
vt 1.906220 0.004246
vt -1.970238 2.893581
vt 1.547381 0.995754
vt -2.000000 2.848927
vt 1.204523 0.995754
vt -1.981627 2.890181
vt 1.548045 0.995754
vt -1.991283 2.880501
vt 1.548607 0.995754
vt 1.203296 0.995754
vt -1.997735 2.866015
vt 1.203859 0.995754
vt 1.294721 0.995754
vt -2.000000 0.526918
vt 1.947399 0.995754
vt -1.970238 0.482263
vt 1.867395 0.995754
vt 1.951081 0.995754
vt -1.997735 0.509829
vt 1.948063 0.995754
vt -1.991283 0.495343
vt 1.949854 0.995754
vt 1.948626 0.995754
vt -1.981627 0.485663
vt 1.950417 0.995754
vt -1.285714 2.848926
vt 0.374327 0.995754
vt -1.315476 2.893580
vt 1.509220 0.995754
vt -1.287980 2.866014
vt 0.374991 0.995754
vt -1.294431 2.880501
vt 1.507993 0.995754
vt 0.375554 0.995754
vt -1.304087 2.890181
vt 1.508556 0.995754
vt -1.315476 0.482264
vt 1.905556 0.995754
vt -1.285714 0.526918
vt 0.284128 0.995754
vt -1.304087 0.485663
vt 1.906220 0.995754
vt -1.294431 0.495343
vt 1.906782 0.995754
vt 0.282902 0.995754
vt -1.287980 0.509830
vt 0.283464 0.995754
vt -0.571428 0.526917
vt 1.295950 0.004246
vt -0.541666 0.482263
vt 1.628611 0.004246
vt -0.569163 0.509829
vt 1.295286 0.004246
vt -0.562711 0.495343
vt 1.629838 0.004246
vt 1.294723 0.004246
vt -0.553056 0.485662
vt 1.629275 0.004246
vt 1.828007 0.004246
vt -0.541666 2.893581
vt 1.952309 0.004246
vt 1.386148 0.004246
vt -0.571428 2.848926
vt 1.960902 0.004246
vt -0.553056 2.890181
vt 1.951645 0.004246
vt -0.562711 2.880500
vt 1.951082 0.004246
vt 1.962129 0.004246
vt -0.569163 2.866014
vt 1.961566 0.004246
vt 0.113096 0.482263
vt 1.590450 0.004246
vt 0.142857 0.526918
vt 0.559633 0.004246
vt 0.124485 0.485663
vt 1.589787 0.004246
vt 0.134140 0.495342
vt 1.589224 0.004246
vt 0.560860 0.004246
vt 0.140592 0.509829
vt 0.560297 0.004246
vt 0.142857 2.848925
vt 0.469434 0.004246
vt 0.113096 2.893580
vt 1.866168 0.004246
vt 0.140592 2.866015
vt 0.468771 0.004246
vt 0.134140 2.880501
vt 1.867395 0.004246
vt 0.468208 0.004246
vt 0.124485 2.890182
vt 1.866832 0.004246
vt 2.315476 2.893579
vt 1.628611 0.995754
vt 2.285714 2.848925
vt 1.295949 0.995754
vt 2.304087 2.890180
vt 1.629274 0.995754
vt 2.294431 2.880500
vt 1.629837 0.995754
vt 1.294722 0.995754
vt 2.287980 2.866014
vt 1.295285 0.995754
vt 1.386148 0.995754
vt 2.285714 0.526916
vt 1.960901 0.995754
vt 2.315476 0.482263
vt 1.828007 0.995754
vt 1.952308 0.995754
vt 2.287980 0.509829
vt 1.961565 0.995754
vt 2.294431 0.495342
vt 1.951082 0.995754
vt 1.962128 0.995754
vt 2.304087 0.485662
vt 1.951644 0.995754
vt 3.000000 2.848925
vt 0.559632 0.995754
vt 2.970238 2.893579
vt 1.590449 0.995754
vt 2.997735 2.866014
vt 0.560296 0.995754
vt 2.991283 2.880500
vt 1.589223 0.995754
vt 0.560859 0.995754
vt 2.981627 2.890180
vt 1.589786 0.995754
vt 2.970238 0.482263
vt 1.866168 0.995754
vt 3.000000 0.526917
vt 0.469434 0.995754
vt 2.981627 0.485662
vt 1.866831 0.995754
vt 2.991283 0.495341
vt 1.867394 0.995754
vt 0.468207 0.995754
vt 2.997735 0.509828
vt 0.468770 0.995754
vt -0.571428 2.848926
vt 0.838819 0.004246
vt -0.601190 2.893580
vt 1.425537 0.004246
vt -0.573694 2.866015
vt 0.838155 0.004246
vt -0.580145 2.880502
vt 1.426763 0.004246
vt 0.837592 0.004246
vt -0.589801 2.890182
vt 1.426201 0.004246
vt 1.788619 0.004246
vt -0.601190 0.482263
vt 1.954764 0.004246
vt 0.929018 0.004246
vt -0.571428 0.526916
vt 1.958447 0.004246
vt -0.589801 0.485662
vt 1.954100 0.004246
vt -0.580145 0.495343
vt 1.953537 0.004246
vt 1.959673 0.004246
vt -0.573694 0.509829
vt 1.959111 0.004246
vt -1.255952 2.893580
vt 1.387376 0.004246
vt -1.285714 2.848926
vt 0.189022 0.004246
vt -1.267341 2.890183
vt 1.386712 0.004246
vt -1.276997 2.880502
vt 1.386149 0.004246
vt 0.190249 0.004246
vt -1.283448 2.866015
vt 0.189686 0.004246
vt -1.285714 0.526916
vt 0.098823 0.004246
vt -1.255952 0.482263
vt 1.826780 0.004246
vt -1.283448 0.509829
vt 0.098160 0.004246
vt -1.276997 0.495343
vt 1.828007 0.004246
vt 0.097597 0.004246
vt -1.267341 0.485662
vt 1.827444 0.004246
vt 0.172619 2.893581
vt 1.425536 0.995754
vt 0.142857 2.848927
vt 0.838818 0.995754
vt 0.161230 2.890184
vt 1.426200 0.995754
vt 0.151574 2.880503
vt 1.426762 0.995754
vt 0.837591 0.995754
vt 0.145123 2.866017
vt 0.838154 0.995754
vt 0.929017 0.995754
vt 0.142857 0.526917
vt 1.958446 0.995754
vt 0.172619 0.482264
vt 1.788618 0.995754
vt 1.954763 0.995754
vt 0.145123 0.509829
vt 1.959110 0.995754
vt 0.151574 0.495344
vt 1.953537 0.995754
vt 1.959673 0.995754
vt 0.161230 0.485662
vt 1.954099 0.995754
vt 0.857143 2.848927
vt 0.189022 0.995754
vt 0.827381 2.893581
vt 1.387375 0.995754
vt 0.854877 2.866017
vt 0.189685 0.995754
vt 0.848426 2.880504
vt 1.386148 0.995754
vt 0.190248 0.995754
vt 0.838770 2.890184
vt 1.386711 0.995754
vt 0.827381 0.482264
vt 1.826779 0.995754
vt 0.857143 0.526917
vt 0.098823 0.995754
vt 0.838770 0.485662
vt 1.827443 0.995754
vt 0.848426 0.495343
vt 1.828006 0.995754
vt 0.097596 0.995754
vt 0.854877 0.509829
vt 0.098159 0.995754
vt 0.857143 0.437610
vt 1.021671 0.004246
vt 0.827381 0.482263
vt 1.506767 0.004246
vt 0.854877 0.454698
vt 1.021007 0.004246
vt 0.848426 0.469184
vt 1.507993 0.004246
vt 1.020445 0.004246
vt 0.838770 0.478865
vt 1.507430 0.004246
vt 1.670454 0.004246
vt 0.827381 -1.929054
vt 1.953537 0.004246
vt 1.111870 0.004246
vt 0.857143 -1.884400
vt 1.959674 0.004246
vt 0.838770 -1.925655
vt 1.952873 0.004246
vt 0.848426 -1.915974
vt 1.952310 0.004246
vt 1.960901 0.004246
vt 0.854877 -1.901488
vt 1.960338 0.004246
vt 0.172619 0.482263
vt 1.468606 0.004246
vt 0.142857 0.437610
vt 0.652286 0.004246
vt 0.161230 0.478865
vt 1.467942 0.004246
vt 0.151574 0.469184
vt 1.467379 0.004246
vt 0.653513 0.004246
vt 0.145123 0.454699
vt 0.652950 0.004246
vt 0.142857 -1.884398
vt 0.562087 0.004246
vt 0.172619 -1.929052
vt 1.708615 0.004246
vt 0.145123 -1.901487
vt 0.561423 0.004246
vt 0.151574 -1.915974
vt 1.709841 0.004246
vt 0.560861 0.004246
vt 0.161230 -1.925655
vt 1.709279 0.004246
vt 2.315476 0.482263
vt 1.506766 0.995754
vt 2.285714 0.437610
vt 1.021670 0.995754
vt 2.304087 0.478865
vt 1.507430 0.995754
vt 2.294431 0.469184
vt 1.507992 0.995754
vt 1.020444 0.995754
vt 2.287980 0.454698
vt 1.021006 0.995754
vt 1.111869 0.995754
vt 2.285714 -1.884400
vt 1.959674 0.995754
vt 2.315476 -1.929054
vt 1.670453 0.995754
vt 1.953536 0.995754
vt 2.287980 -1.901488
vt 1.960337 0.995754
vt 2.294431 -1.915974
vt 1.952309 0.995754
vt 1.960900 0.995754
vt 2.304087 -1.925655
vt 1.952872 0.995754
vt 3.000000 0.437610
vt 0.652285 0.995754
vt 2.970238 0.482263
vt 1.468605 0.995754
vt 2.997735 0.454698
vt 0.652949 0.995754
vt 2.991283 0.469183
vt 1.467378 0.995754
vt 0.653512 0.995754
vt 2.981627 0.478865
vt 1.467941 0.995754
vt 2.970238 -1.929052
vt 1.708614 0.995754
vt 3.000000 -1.884398
vt 0.562086 0.995754
vt 2.981627 -1.925653
vt 1.709278 0.995754
vt 2.991283 -1.915972
vt 1.709841 0.995754
vt 0.560860 0.995754
vt 2.997735 -1.901488
vt 0.561422 0.995754
vt -1.285714 0.437611
vt 0.930245 0.004246
vt -1.315476 0.482263
vt 1.466152 0.004246
vt -1.287979 0.454699
vt 0.929581 0.004246
vt -1.294430 0.469186
vt 1.467378 0.004246
vt 0.929018 0.004246
vt -1.304086 0.478865
vt 1.466816 0.004246
vt 1.749230 0.004246
vt -1.315476 -1.929054
vt 1.957219 0.004246
vt 1.020444 0.004246
vt -1.285714 -1.884398
vt 1.962129 0.004246
vt -1.304086 -1.925652
vt 1.956555 0.004246
vt -1.294430 -1.915972
vt 1.955992 0.004246
vt 1.963356 0.004246
vt -1.287979 -1.901487
vt 1.962793 0.004246
vt -1.970237 0.482263
vt 1.427991 0.004246
vt -2.000000 0.437611
vt 0.281675 0.004246
vt -1.981627 0.478865
vt 1.427327 0.004246
vt -1.991282 0.469185
vt 1.426764 0.004246
vt 0.282902 0.004246
vt -1.997735 0.454698
vt 0.282339 0.004246
vt -2.000000 -1.884399
vt 0.191476 0.004246
vt -1.970239 -1.929054
vt 1.787392 0.004246
vt -1.997735 -1.901487
vt 0.190813 0.004246
vt -1.991283 -1.915976
vt 1.788618 0.004246
vt 0.190250 0.004246
vt -1.981627 -1.925654
vt 1.788055 0.004246
vt -1.255952 0.482264
vt 1.466151 0.995754
vt -1.285714 0.437611
vt 0.930244 0.995754
vt -1.267341 0.478865
vt 1.466815 0.995754
vt -1.276997 0.469185
vt 1.467378 0.995754
vt 0.929018 0.995754
vt -1.283448 0.454701
vt 0.929580 0.995754
vt 1.020443 0.995754
vt -1.285714 -1.884400
vt 1.962129 0.995754
vt -1.255952 -1.929052
vt 1.749230 0.995754
vt 1.957218 0.995754
vt -1.283448 -1.901488
vt 1.962792 0.995754
vt -1.276997 -1.915974
vt 1.955991 0.995754
vt 1.963355 0.995754
vt -1.267341 -1.925655
vt 1.956554 0.995754
vt -0.571429 0.437609
vt 0.281674 0.995754
vt -0.601190 0.482264
vt 1.427990 0.995754
vt -0.573694 0.454699
vt 0.282338 0.995754
vt -0.580145 0.469185
vt 1.426763 0.995754
vt 0.282901 0.995754
vt -0.589801 0.478864
vt 1.427326 0.995754
vt -0.601190 -1.929054
vt 1.787391 0.995754
vt -0.571429 -1.884400
vt 0.191476 0.995754
vt -0.589801 -1.925655
vt 1.788055 0.995754
vt -0.580145 -1.915974
vt 1.788617 0.995754
vt 0.190249 0.995754
vt -0.573694 -1.901488
vt 0.190812 0.995754
vt 0.142857 0.437611
vt 0.747393 0.004246
vt 0.113096 0.482263
vt 1.669226 0.004246
vt 0.140592 0.454699
vt 0.746729 0.004246
vt 0.134140 0.469185
vt 1.670453 0.004246
vt 0.746166 0.004246
vt 0.124485 0.478865
vt 1.669890 0.004246
vt 1.906784 0.004246
vt 0.113095 -1.929054
vt 1.958446 0.004246
vt 0.837591 0.004246
vt 0.142857 -1.884402
vt 1.946173 0.004246
vt 0.124485 -1.925660
vt 1.957782 0.004246
vt 0.134140 -1.915978
vt 1.957220 0.004246
vt 1.947399 0.004246
vt 0.140592 -1.901492
vt 1.946836 0.004246
vt -0.541666 0.482264
vt 1.631065 0.004246
vt -0.571429 0.437611
vt 0.744939 0.004246
vt -0.553056 0.478865
vt 1.630402 0.004246
vt -0.562711 0.469185
vt 1.629839 0.004246
vt 0.746165 0.004246
vt -0.569163 0.454699
vt 0.745602 0.004246
vt -0.571429 -1.884400
vt 0.654740 0.004246
vt -0.541667 -1.929050
vt 1.944945 0.004246
vt -0.569163 -1.901483
vt 0.654076 0.004246
vt -0.562711 -1.915969
vt 1.946172 0.004246
vt 0.653513 0.004246
vt -0.553056 -1.925651
vt 1.945609 0.004246
vt 1.601191 2.893579
vt 1.669226 0.995754
vt 1.571429 2.848925
vt 0.747392 0.995754
vt 1.589802 2.890180
vt 1.669889 0.995754
vt 1.580146 2.880500
vt 1.670452 0.995754
vt 0.746165 0.995754
vt 1.573694 2.866015
vt 0.746728 0.995754
vt 0.837591 0.995754
vt 1.571429 0.526915
vt 1.946172 0.995754
vt 1.601191 0.482263
vt 1.906783 0.995754
vt 1.958445 0.995754
vt 1.573694 0.509825
vt 1.946836 0.995754
vt 1.580146 0.495339
vt 1.957219 0.995754
vt 1.947398 0.995754
vt 1.589802 0.485656
vt 1.957782 0.995754
vt 2.285715 2.848925
vt 0.744938 0.995754
vt 2.255953 2.893579
vt 1.631065 0.995754
vt 2.283449 2.866014
vt 0.745602 0.995754
vt 2.276998 2.880500
vt 1.629838 0.995754
vt 0.746164 0.995754
vt 2.267342 2.890180
vt 1.630401 0.995754
vt 2.255953 0.482264
vt 1.944944 0.995754
vt 2.285715 0.526916
vt 0.654739 0.995754
vt 2.267342 0.485665
vt 1.945608 0.995754
vt 2.276998 0.495347
vt 1.946171 0.995754
vt 0.653513 0.995754
vt 2.283449 0.509832
vt 0.654075 0.995754
s 0
g glowna_MDF-GREY
usemtl MDF-GREY
f 45/92/2 47/96/2 48/98/2 49/101/2 46/94/2 50/104/2 52/109/2 53/111/2 54/114/2 51/106/2 60/127/2 62/131/2 63/133/2 64/136/2 61/129/2 55/116/2 57/120/2 58/122/2 59/125/2 56/118/2
f 25/46/5 27/50/5 28/52/5 29/55/5 26/48/5 35/70/5 37/74/5 38/76/5 39/79/5 36/72/5 40/81/5 42/85/5 43/87/5 44/90/5 41/83/5 30/58/5 32/63/5 33/65/5 34/68/5 31/61/5
f 85/184/2 87/188/2 88/190/2 89/193/2 86/186/2 90/196/2 92/201/2 93/203/2 94/206/2 91/198/2 100/219/2 102/223/2 103/225/2 104/228/2 101/221/2 95/208/2 97/212/2 98/214/2 99/217/2 96/210/2
f 65/138/5 67/142/5 68/144/5 69/147/5 66/140/5 75/162/5 77/166/5 78/168/5 79/171/5 76/164/5 80/173/5 82/177/5 83/179/5 84/182/5 81/175/5 70/150/5 72/155/5 73/157/5 74/160/5 71/153/5
f 125/276/2 127/280/2 128/282/2 129/285/2 126/278/2 130/288/2 132/293/2 133/295/2 134/298/2 131/290/2 140/311/2 142/315/2 143/317/2 144/320/2 141/313/2 135/300/2 137/304/2 138/306/2 139/309/2 136/302/2
f 105/230/5 107/234/5 108/236/5 109/239/5 106/232/5 115/254/5 117/258/5 118/260/5 119/263/5 116/256/5 120/265/5 122/269/5 123/271/5 124/274/5 121/267/5 110/242/5 112/247/5 113/249/5 114/252/5 111/245/5
f 165/368/2 167/372/2 168/374/2 169/377/2 166/370/2 170/380/2 172/385/2 173/387/2 174/390/2 171/382/2 180/403/2 182/407/2 183/409/2 184/412/2 181/405/2 175/392/2 177/396/2 178/398/2 179/401/2 176/394/2
f 145/322/5 147/326/5 148/328/5 149/331/5 146/324/5 155/346/5 157/350/5 158/352/5 159/355/5 156/348/5 160/357/5 162/361/5 163/363/5 164/366/5 161/359/5 150/334/5 152/339/5 153/341/5 154/344/5 151/337/5
f 205/460/2 207/464/2 208/466/2 209/469/2 206/462/2 210/472/2 212/477/2 213/479/2 214/482/2 211/474/2 220/495/2 222/499/2 223/501/2 224/504/2 221/497/2 215/484/2 217/488/2 218/490/2 219/493/2 216/486/2
f 185/414/5 187/418/5 188/420/5 189/423/5 186/416/5 195/438/5 197/442/5 198/444/5 199/447/5 196/440/5 200/449/5 202/453/5 203/455/5 204/458/5 201/451/5 190/426/5 192/431/5 193/433/5 194/436/5 191/429/5
f 245/552/2 247/556/2 248/558/2 249/561/2 246/554/2 250/564/2 252/569/2 253/571/2 254/574/2 251/566/2 260/587/2 262/591/2 263/593/2 264/596/2 261/589/2 255/576/2 257/580/2 258/582/2 259/585/2 256/578/2
f 225/506/5 227/510/5 228/512/5 229/515/5 226/508/5 235/530/5 237/534/5 238/536/5 239/539/5 236/532/5 240/541/5 242/545/5 243/547/5 244/550/5 241/543/5 230/518/5 232/523/5 233/525/5 234/528/5 231/521/5
f 285/644/2 287/648/2 288/650/2 289/653/2 286/646/2 290/656/2 292/661/2 293/663/2 294/666/2 291/658/2 300/679/2 302/683/2 303/685/2 304/688/2 301/681/2 295/668/2 297/672/2 298/674/2 299/677/2 296/670/2
f 265/598/5 267/602/5 268/604/5 269/607/5 266/600/5 275/622/5 277/626/5 278/628/5 279/631/5 276/624/5 280/633/5 282/637/5 283/639/5 284/642/5 281/635/5 270/610/5 272/615/5 273/617/5 274/620/5 271/613/5
g glowna_FILC_CZARNY
usemtl FILC_CZARNY
f 3/5/1 4/6/1 16/29/1 14/25/1
f 15/26/2 18/31/2 24/43/2 20/36/2
f 6/10/3 10/17/3 22/40/3 17/30/3
f 12/22/4 8/13/4 21/39/4 23/42/4
f 2/3/5 9/14/5 11/19/5 5/7/5
f 1/1/6 2/4/6 3/5/6
f 4/6/7 5/8/7 6/10/7
f 7/11/8 8/13/8 9/16/8
f 10/18/9 11/21/9 12/22/9
f 13/23/10 14/25/10 15/28/10
f 16/29/11 17/30/11 18/32/11
f 19/34/12 20/38/12 21/39/12
f 22/41/13 23/42/13 24/45/13
f 9/15/14 2/3/14 1/2/14 7/12/14
f 2/4/15 5/8/15 4/6/15 3/5/15
f 5/9/16 11/20/16 10/17/16 6/10/16
f 11/21/17 9/16/17 8/13/17 12/22/17
f 19/35/18 13/24/18 15/27/18 20/37/18
f 14/25/19 16/29/19 18/32/19 15/28/19
f 17/30/20 22/40/20 24/44/20 18/33/20
f 23/42/21 21/39/21 20/38/21 24/45/21
f 7/11/22 19/34/22 21/39/22 8/13/22
f 22/41/23 10/18/23 12/22/23 23/42/23
f 6/10/24 17/30/24 16/29/24 4/6/24
f 13/23/25 1/1/25 3/5/25 14/25/25
f 7/12/26 1/2/26 13/24/26 19/35/26
g glowna_KOLOR
usemtl KOLOR
f 25/47/1 31/60/1 50/103/1 46/95/1
f 75/163/26 66/141/26 85/185/26 96/211/26
f 30/57/3 41/84/3 60/128/3 51/107/3
f 40/82/4 36/73/4 55/117/4 61/130/4
f 65/139/1 71/152/1 90/195/1 86/187/1
f 115/255/26 106/233/26 125/277/26 136/303/26
f 70/149/3 81/176/3 100/220/3 91/199/3
f 80/174/4 76/165/4 95/209/4 101/222/4
f 105/231/1 111/244/1 130/287/1 126/279/1
f 155/347/26 146/325/26 165/369/26 176/395/26
f 110/241/3 121/268/3 140/312/3 131/291/3
f 120/266/4 116/257/4 135/301/4 141/314/4
f 145/323/1 151/336/1 170/379/1 166/371/1
f 195/439/26 186/417/26 205/461/26 216/487/26
f 150/333/3 161/360/3 180/404/3 171/383/3
f 160/358/4 156/349/4 175/393/4 181/406/4
f 185/415/1 191/428/1 210/471/1 206/463/1
f 235/531/26 226/509/26 245/553/26 256/579/26
f 190/425/3 201/452/3 220/496/3 211/475/3
f 200/450/4 196/441/4 215/485/4 221/498/4
f 225/507/1 231/520/1 250/563/1 246/555/1
f 275/623/26 266/601/26 285/645/26 296/671/26
f 230/517/3 241/544/3 260/588/3 251/567/3
f 240/542/4 236/533/4 255/577/4 261/590/4
f 265/599/1 271/612/1 290/655/1 286/647/1
f 270/609/3 281/636/3 300/680/3 291/659/3
f 280/634/4 276/625/4 295/669/4 301/682/4
f 35/71/27 56/119/27 59/126/27 37/75/27
f 37/75/28 59/126/28 58/123/28 38/77/28
f 38/78/29 58/124/29 57/121/29 39/80/29
f 39/80/30 57/121/30 55/117/30 36/73/30
f 60/128/31 41/84/31 44/91/31 62/132/31
f 62/132/32 44/91/32 43/88/32 63/134/32
f 63/135/33 43/89/33 42/86/33 64/137/33
f 64/137/34 42/86/34 40/82/34 61/130/34
f 30/59/35 51/108/35 54/115/35 32/64/35
f 32/64/36 54/115/36 53/112/36 33/66/36
f 33/67/37 53/113/37 52/110/37 34/69/37
f 34/69/38 52/110/38 50/105/38 31/62/38
f 45/93/39 26/49/39 29/56/39 47/97/39
f 47/97/40 29/56/40 28/53/40 48/99/40
f 48/100/41 28/54/41 27/51/41 49/102/41
f 49/102/42 27/51/42 25/47/42 46/95/42
f 75/163/43 96/211/43 99/218/43 77/167/43
f 77/167/44 99/218/44 98/215/44 78/169/44
f 78/170/45 98/216/45 97/213/45 79/172/45
f 79/172/30 97/213/30 95/209/30 76/165/30
f 100/220/31 81/176/31 84/183/31 102/224/31
f 102/224/46 84/183/46 83/180/46 103/226/46
f 103/227/47 83/181/47 82/178/47 104/229/47
f 104/229/48 82/178/48 80/174/48 101/222/48
f 70/151/35 91/200/35 94/207/35 72/156/35
f 72/156/49 94/207/49 93/204/49 73/158/49
f 73/159/50 93/205/50 92/202/50 74/161/50
f 74/161/38 92/202/38 90/197/38 71/154/38
f 85/185/51 66/141/51 69/148/51 87/189/51
f 87/189/52 69/148/52 68/145/52 88/191/52
f 88/192/53 68/146/53 67/143/53 89/194/53
f 89/194/42 67/143/42 65/139/42 86/187/42
f 115/255/54 136/303/54 139/310/54 117/259/54
f 117/259/28 139/310/28 138/307/28 118/261/28
f 118/262/55 138/308/55 137/305/55 119/264/55
f 119/264/30 137/305/30 135/301/30 116/257/30
f 140/312/31 121/268/31 124/275/31 142/316/31
f 142/316/46 124/275/46 123/272/46 143/318/46
f 143/319/47 123/273/47 122/270/47 144/321/47
f 144/321/48 122/270/48 120/266/48 141/314/48
f 110/243/35 131/292/35 134/299/35 112/248/35
f 112/248/49 134/299/49 133/296/49 113/250/49
f 113/251/56 133/297/56 132/294/56 114/253/56
f 114/253/38 132/294/38 130/289/38 111/246/38
f 125/277/57 106/233/57 109/240/57 127/281/57
f 127/281/40 109/240/40 108/237/40 128/283/40
f 128/284/58 108/238/58 107/235/58 129/286/58
f 129/286/42 107/235/42 105/231/42 126/279/42
f 155/347/54 176/395/54 179/402/54 157/351/54
f 157/351/28 179/402/28 178/399/28 158/353/28
f 158/354/59 178/400/59 177/397/59 159/356/59
f 159/356/30 177/397/30 175/393/30 156/349/30
f 180/404/60 161/360/60 164/367/60 182/408/60
f 182/408/61 164/367/61 163/364/61 183/410/61
f 183/411/62 163/365/62 162/362/62 184/413/62
f 184/413/34 162/362/34 160/358/34 181/406/34
f 150/335/63 171/384/63 174/391/63 152/340/63
f 152/340/36 174/391/36 173/388/36 153/342/36
f 153/343/64 173/389/64 172/386/64 154/345/64
f 154/345/38 172/386/38 170/381/38 151/338/38
f 165/369/57 146/325/57 149/332/57 167/373/57
f 167/373/40 149/332/40 148/329/40 168/375/40
f 168/376/65 148/330/65 147/327/65 169/378/65
f 169/378/42 147/327/42 145/323/42 166/371/42
f 195/439/54 216/487/54 219/494/54 197/443/54
f 197/443/28 219/494/28 218/491/28 198/445/28
f 198/446/59 218/492/59 217/489/59 199/448/59
f 199/448/30 217/489/30 215/485/30 196/441/30
f 220/496/31 201/452/31 204/459/31 222/500/31
f 222/500/61 204/459/61 203/456/61 223/502/61
f 223/503/33 203/457/33 202/454/33 224/505/33
f 224/505/34 202/454/34 200/450/34 221/498/34
f 190/427/63 211/476/63 214/483/63 192/432/63
f 192/432/49 214/483/49 213/480/49 193/434/49
f 193/435/56 213/481/56 212/478/56 194/437/56
f 194/437/66 212/478/66 210/473/66 191/430/66
f 205/461/57 186/417/57 189/424/57 207/465/57
f 207/465/40 189/424/40 188/421/40 208/467/40
f 208/468/65 188/422/65 187/419/65 209/470/65
f 209/470/42 187/419/42 185/415/42 206/463/42
f 235/531/54 256/579/54 259/586/54 237/535/54
f 237/535/44 259/586/44 258/583/44 238/537/44
f 238/538/55 258/584/55 257/581/55 239/540/55
f 239/540/30 257/581/30 255/577/30 236/533/30
f 260/588/31 241/544/31 244/551/31 262/592/31
f 262/592/46 244/551/46 243/548/46 263/594/46
f 263/595/33 243/549/33 242/546/33 264/597/33
f 264/597/67 242/546/67 240/542/67 261/590/67
f 230/519/35 251/568/35 254/575/35 232/524/35
f 232/524/49 254/575/49 253/572/49 233/526/49
f 233/527/56 253/573/56 252/570/56 234/529/56
f 234/529/66 252/570/66 250/565/66 231/522/66
f 245/553/57 226/509/57 229/516/57 247/557/57
f 247/557/52 229/516/52 228/513/52 248/559/52
f 248/560/58 228/514/58 227/511/58 249/562/58
f 249/562/42 227/511/42 225/507/42 246/555/42
f 275/623/68 296/671/68 299/678/68 277/627/68
f 277/627/28 299/678/28 298/675/28 278/629/28
f 278/630/55 298/676/55 297/673/55 279/632/55
f 279/632/30 297/673/30 295/669/30 276/625/30
f 300/680/31 281/636/31 284/643/31 302/684/31
f 302/684/46 284/643/46 283/640/46 303/686/46
f 303/687/47 283/641/47 282/638/47 304/689/47
f 304/689/34 282/638/34 280/634/34 301/682/34
f 270/611/35 291/660/35 294/667/35 272/616/35
f 272/616/49 294/667/49 293/664/49 273/618/49
f 273/619/56 293/665/56 292/662/56 274/621/56
f 274/621/38 292/662/38 290/657/38 271/614/38
f 285/645/69 266/601/69 269/608/69 287/649/69
f 287/649/40 269/608/40 268/605/40 288/651/40
f 288/652/58 268/606/58 267/603/58 289/654/58
f 289/654/42 267/603/42 265/599/42 286/647/42
f 35/71/26 26/49/26 45/93/26 56/119/26
