<?xml version="1.0" encoding="utf-8"?>
<COLLADA xmlns="http://www.collada.org/2005/11/COLLADASchema" version="1.4.1" xmlns:xsi="http://www.w3.org/2001/XMLSchema-instance">
  <asset>
    <contributor>
      <author>Blender User</author>
      <authoring_tool>Blender 3.2.0 commit date:2022-06-08, commit time:10:22, hash:e05e1e369187</authoring_tool>
    </contributor>
    <created>2023-03-08T13:23:36</created>
    <modified>2023-03-08T13:23:36</modified>
    <unit name="meter" meter="1"/>
    <up_axis>Z_UP</up_axis>
  </asset>
  <library_effects>
    <effect id="gora_dol-effect">
      <profile_COMMON>
        <technique sid="common">
          <lambert>
            <emission>
              <color sid="emission">0 0 0 1</color>
            </emission>
            <diffuse>
              <color sid="diffuse">0.8 0.8 0.8 1</color>
            </diffuse>
            <index_of_refraction>
              <float sid="ior">1.45</float>
            </index_of_refraction>
          </lambert>
        </technique>
      </profile_COMMON>
    </effect>
    <effect id="tyl-effect">
      <profile_COMMON>
        <technique sid="common">
          <lambert>
            <emission>
              <color sid="emission">0 0 0 1</color>
            </emission>
            <diffuse>
              <color sid="diffuse">0.8 0.8 0.8 1</color>
            </diffuse>
            <index_of_refraction>
              <float sid="ior">1.45</float>
            </index_of_refraction>
          </lambert>
        </technique>
      </profile_COMMON>
    </effect>
    <effect id="front-effect">
      <profile_COMMON>
        <technique sid="common">
          <lambert>
            <emission>
              <color sid="emission">0 0 0 1</color>
            </emission>
            <diffuse>
              <color sid="diffuse">0.8 0.8 0.8 1</color>
            </diffuse>
            <index_of_refraction>
              <float sid="ior">1.45</float>
            </index_of_refraction>
          </lambert>
        </technique>
      </profile_COMMON>
    </effect>
  </library_effects>
  <library_images/>
  <library_materials>
    <material id="gora_dol-material" name="gora_dol">
      <instance_effect url="#gora_dol-effect"/>
    </material>
    <material id="tyl-material" name="tyl">
      <instance_effect url="#tyl-effect"/>
    </material>
    <material id="front-material" name="front">
      <instance_effect url="#front-effect"/>
    </material>
  </library_materials>
  <library_geometries>
    <geometry id="Plane_021-mesh" name="Plane.021">
      <mesh>
        <source id="Plane_021-mesh-positions">
          <float_array id="Plane_021-mesh-positions-array" count="246">0.02309852 -0.005291163 0 0.02309852 -1.77959e-4 0 0.007254004 -0.005291163 0 0.007254004 0.006708741 0 0.01007705 -0.005291163 0 0.01007705 -1.77959e-4 0 0.009673774 2.42755e-4 0 0.009270489 0.001486599 0 0.008867204 0.002923727 0 0.008463919 0.004440546 0 0.008060574 0.00575155 0 0.007657289 0.006570994 0 0.007657289 -0.005291163 0 0.008060574 -0.005291163 0 0.008463919 -0.005291163 0 0.008867204 -0.005291163 0 0.009270489 -0.005291163 0 0.009673774 -0.005291163 0 -0.005167722 -0.005291163 0 -0.0171287 -0.005291163 0 -0.0171287 0.006708741 0 -0.005167722 0.006708741 0 0.007254004 7.0878e-4 0 0.007657289 6.39907e-4 0 -0.0171287 7.0878e-4 0 -0.005167722 7.0878e-4 0 0.008060574 4.45161e-4 0 0.009270489 5.49266e-5 0 0.008867204 1.21349e-4 0 0.008463919 2.37589e-4 0 0.009673774 -1.67059e-4 0 0.02487128 -3.49983e-4 0 0.02487128 -1.77959e-4 0 0.0236839 -0.004464805 0 0.02412796 -0.003018558 0 0.02451133 -0.00157237 0 0.02451133 -1.77959e-4 0 0.02412796 -1.77959e-4 0 0.0236839 -1.77959e-4 0 0.02339124 -1.77959e-4 0 0.02339118 -0.005050182 0 0.02309852 -0.005291163 2.7 0.02309852 -1.77959e-4 2.7 0.007254004 -0.005291163 2.7 0.007254004 0.006708741 2.7 0.01007705 -0.005291163 2.7 0.01007705 -1.77959e-4 2.7 0.009673774 2.42755e-4 2.7 0.009270489 0.001486599 2.7 0.008867204 0.002923727 2.7 0.008463919 0.004440546 2.7 0.008060574 0.00575155 2.7 0.007657289 0.006570994 2.7 0.007657289 -0.005291163 2.7 0.008060574 -0.005291163 2.7 0.008463919 -0.005291163 2.7 0.008867204 -0.005291163 2.7 0.009270489 -0.005291163 2.7 0.009673774 -0.005291163 2.7 -0.005167722 -0.005291163 2.7 -0.0171287 -0.005291163 2.7 -0.0171287 0.006708741 2.7 -0.005167722 0.006708741 2.7 0.007254004 7.0878e-4 2.7 0.007657289 6.39907e-4 2.7 -0.0171287 7.0878e-4 2.7 -0.005167722 7.0878e-4 2.7 0.008060574 4.45161e-4 2.7 0.009270489 5.49266e-5 2.7 0.008867204 1.21349e-4 2.7 0.008463919 2.37589e-4 2.7 0.009673774 -1.67059e-4 2.7 0.02487128 -3.49983e-4 2.7 0.02487128 -1.77959e-4 2.7 0.0236839 -0.004464805 2.7 0.02412796 -0.003018558 2.7 0.02451133 -0.00157237 2.7 0.02451133 -1.77959e-4 2.7 0.02412796 -1.77959e-4 2.7 0.0236839 -1.77959e-4 2.7 0.02339124 -1.77959e-4 2.7 0.02339118 -0.005050182 2.7</float_array>
          <technique_common>
            <accessor source="#Plane_021-mesh-positions-array" count="82" stride="3">
              <param name="X" type="float"/>
              <param name="Y" type="float"/>
              <param name="Z" type="float"/>
            </accessor>
          </technique_common>
        </source>
        <source id="Plane_021-mesh-normals">
          <float_array id="Plane_021-mesh-normals-array" count="108">0 0 -1 -1.74942e-5 0 1 0 0 1 4.08946e-4 0 1 1.07991e-4 0 1 1.7956e-4 0 1 -6.26515e-4 0 0.9999998 0.001226782 0 0.9999994 -4.35183e-4 0 1 -0.001408696 0 0.9999991 5.4943e-4 0 0.9999999 4.1203e-4 0 1 1.632e-4 0 1 0 1 0 0.7218893 0.6920086 0 -1 0 0 0.951254 0.3084089 0 0.9628078 0.2701874 0 0.6356747 -0.7719572 0 1 0 0 0.9664241 0.2569523 0 0.9592838 -0.2824438 0 0.9557945 0.2940356 0 0.8972339 0.4415557 0 0.8944073 -0.4472537 0 0 -1 0 0.9559618 -0.2934914 0 0 1 0 0.9666057 -0.2562681 0 0.3232256 0.946322 0 8.05126e-4 0 0.9999998 0.001408755 0 0.9999991 -0.001557409 0 0.9999989 0.6356783 -0.7719541 0 0.8972345 0.4415545 0 0.9559628 -0.293488 0</float_array>
          <technique_common>
            <accessor source="#Plane_021-mesh-normals-array" count="36" stride="3">
              <param name="X" type="float"/>
              <param name="Y" type="float"/>
              <param name="Z" type="float"/>
            </accessor>
          </technique_common>
        </source>
        <source id="Plane_021-mesh-map-0">
          <float_array id="Plane_021-mesh-map-0-array" count="960">0.4139021 0.5 0.8278041 1 0.8278041 0.5 0.9123224 1 1 0 0.9123224 0 0.8278041 0.5 0.8398781 1 0.8398781 0.5 0.8881743 0 0.9002483 0.9281802 0.9002483 0 0.9002483 0 0.9123224 1 0.9123224 0 0.8640262 0 0.8761003 0.6588672 0.8761003 0 0.8761003 0 0.8881742 0.7887658 0.8881743 0 0.8278041 0.5 0.4139021 1 0.4139021 0.5 0.8278041 0 0.4139021 0.5 0.4139021 0 0.8519521 0 0.8640262 0.5681171 0.8640262 0 0.8278041 0 0.8398781 0.5 0.8398782 0 0.4139021 0.5 0.8278041 0 0.4139021 0 0.8519521 0.5194689 0.8640262 1 0.8640262 0.5681171 0.9002483 0.9281802 0.9002483 1 0.9123224 1 0.8640262 0.5681171 0.8761003 1 0.8761003 0.6588672 0.8761003 0.6588672 0.8881742 1 0.8881742 0.7887658 0.8398781 0.5 0.8519521 1 0.8519521 0.5194689 0.8881742 0.7887658 0.9002483 1 0.9002483 0.9281802 0.8398782 0 0.8519521 0.5194689 0.8519521 0 1 1 1 0 1 0 1 1 1 0 1 0 1 1 1 0 1 0 1 1 1 0 1 0 1 1 1 0 1 0 0.4139021 0.5 0.8278041 1 0.4139021 1 1 0 0.9123224 1 0.9123224 0 0.8278041 0.5 0.8398781 1 0.8278041 1 0.8881743 0 0.9002483 0.9281802 0.8881742 0.7887658 0.9002483 0 0.9123224 1 0.9002483 0.9281802 0.8640262 0 0.8761003 0.6588672 0.8640262 0.5681171 0.8761003 0 0.8881742 0.7887658 0.8761003 0.6588672 0.4139021 1 0.8278041 0.5 0.4139021 0.5 0.4139021 0.5 0.8278041 0 0.4139021 0 0.8640262 0.5681171 0.8519521 0 0.8640262 0 0.8278041 0 0.8398781 0.5 0.8278041 0.5 0.8278041 0 0.4139021 0.5 0.4139021 0 0.8519521 0.5194689 0.8640262 1 0.8519521 1 0.9002483 0.9281802 0.9123224 1 0.9002483 1 0.8640262 0.5681171 0.8761003 1 0.8640262 1 0.8761003 0.6588672 0.8881742 1 0.8761003 1 0.8519521 1 0.8398781 0.5 0.8519521 0.5194689 0.8881742 0.7887658 0.9002483 1 0.8881742 1 0.8519521 0.5194689 0.8398782 0 0.8519521 0 1 1 1 0 1 1 1 1 1 0 1 1 1 1 1 0 1 1 1 1 1 0 1 1 1 1 1 0 1 1 0.9123224 1 1 1 1 1 0.9002483 1 0.9123224 1 0.9123224 1 0.8278041 0 0.8278041 0.5 0.8278041 0.5 0.8881742 1 0.9002483 1 0.9002483 1 1 1 1 1 1 1 0.8761003 1 0.8881742 1 0.8881742 1 1 0 1 0 1 0 1 1 1 0 1 0 0.8640262 1 0.8761003 1 0.8761003 1 1 0 1 0 1 0 0.8519521 1 0.8640262 1 0.8640262 1 0.8278041 0.5 0.8278041 1 0.8278041 1 1 1 1 1 1 1 0.8398781 1 0.8519521 1 0.8519521 1 0.8278041 1 0.4139021 1 0.4139021 1 1 0 1 0 1 0 0.8398782 0 0.8278041 0 0.8278041 0 0.4139021 0 0.8278041 0 0.8278041 0 1 0 1 0 1 0 0.8519521 0 0.8398782 0 0.8398782 0 0.8278041 0 0.4139021 0 0.4139021 0 0.4139021 1 0.8278041 1 0.8278041 1 1 0 1 0 1 0 0.8640262 0 0.8519521 0 0.8519521 0 1 0 0.9123224 0 0.9123224 0 1 1 1 1 1 1 0.8761003 0 0.8640262 0 0.8640262 0 0.8278041 1 0.8398781 1 0.8398781 1 1 1 1 1 1 1 0.8881743 0 0.8761003 0 0.8761003 0 1 1 1 1 1 1 0.9002483 0 0.8881743 0 0.8881743 0 0.9123224 0 0.9002483 0 0.9002483 0 0.4139021 0.5 0.4139021 1 0.8278041 1 0.9123224 1 1 1 1 0 0.8278041 0.5 0.8278041 1 0.8398781 1 0.8881743 0 0.8881742 0.7887658 0.9002483 0.9281802 0.9002483 0 0.9002483 0.9281802 0.9123224 1 0.8640262 0 0.8640262 0.5681171 0.8761003 0.6588672 0.8761003 0 0.8761003 0.6588672 0.8881742 0.7887658 0.8278041 0.5 0.8278041 1 0.4139021 1 0.8278041 0 0.8278041 0.5 0.4139021 0.5 0.8519521 0 0.8519521 0.5194689 0.8640262 0.5681171 0.8278041 0 0.8278041 0.5 0.8398781 0.5 0.4139021 0.5 0.8278041 0.5 0.8278041 0 0.8519521 0.5194689 0.8519521 1 0.8640262 1 0.8640262 0.5681171 0.8640262 1 0.8761003 1 0.8761003 0.6588672 0.8761003 1 0.8881742 1 0.8398781 0.5 0.8398781 1 0.8519521 1 0.8881742 0.7887658 0.8881742 1 0.9002483 1 0.8398782 0 0.8398781 0.5 0.8519521 0.5194689 1 1 1 1 1 0 1 1 1 1 1 0 1 1 1 1 1 0 1 1 1 1 1 0 1 1 1 1 1 0 0.4139021 0.5 0.8278041 0.5 0.8278041 1 1 0 1 1 0.9123224 1 0.8278041 0.5 0.8398781 0.5 0.8398781 1 0.8881743 0 0.9002483 0 0.9002483 0.9281802 0.9002483 0 0.9123224 0 0.9123224 1 0.8640262 0 0.8761003 0 0.8761003 0.6588672 0.8761003 0 0.8881743 0 0.8881742 0.7887658 0.4139021 1 0.8278041 1 0.8278041 0.5 0.4139021 0.5 0.8278041 0.5 0.8278041 0 0.8640262 0.5681171 0.8519521 0.5194689 0.8519521 0 0.8278041 0 0.8398782 0 0.8398781 0.5 0.8278041 0 0.8278041 0.5 0.4139021 0.5 0.8519521 0.5194689 0.8640262 0.5681171 0.8640262 1 0.8640262 0.5681171 0.8761003 0.6588672 0.8761003 1 0.8761003 0.6588672 0.8881742 0.7887658 0.8881742 1 0.8519521 1 0.8398781 1 0.8398781 0.5 0.8881742 0.7887658 0.9002483 0.9281802 0.9002483 1 0.8519521 0.5194689 0.8398781 0.5 0.8398782 0 1 1 1 0 1 0 1 1 1 0 1 0 1 1 1 0 1 0 1 1 1 0 1 0 1 1 1 0 1 0 0.9123224 1 0.9123224 1 1 1 0.9002483 1 0.9002483 1 0.9123224 1 0.8278041 0 0.8278041 0 0.8278041 0.5 0.8881742 1 0.8881742 1 0.9002483 1 1 1 1 1 1 1 0.8761003 1 0.8761003 1 0.8881742 1 1 0 1 0 1 0 1 1 1 1 1 0 0.8640262 1 0.8640262 1 0.8761003 1 1 0 1 0 1 0 0.8519521 1 0.8519521 1 0.8640262 1 0.8278041 0.5 0.8278041 0.5 0.8278041 1 1 1 1 1 1 1 0.8398781 1 0.8398781 1 0.8519521 1 0.8278041 1 0.8278041 1 0.4139021 1 1 0 1 0 1 0 0.8398782 0 0.8398782 0 0.8278041 0 0.4139021 0 0.4139021 0 0.8278041 0 1 0 1 0 1 0 0.8519521 0 0.8519521 0 0.8398782 0 0.8278041 0 0.8278041 0 0.4139021 0 0.4139021 1 0.4139021 1 0.8278041 1 1 0 1 0 1 0 0.8640262 0 0.8640262 0 0.8519521 0 1 0 1 0 0.9123224 0 1 1 1 1 1 1 0.8761003 0 0.8761003 0 0.8640262 0 0.8278041 1 0.8278041 1 0.8398781 1 1 1 1 1 1 1 0.8881743 0 0.8881743 0 0.8761003 0 1 1 1 1 1 1 0.9002483 0 0.9002483 0 0.8881743 0 0.9123224 0 0.9123224 0 0.9002483 0</float_array>
          <technique_common>
            <accessor source="#Plane_021-mesh-map-0-array" count="480" stride="2">
              <param name="S" type="float"/>
              <param name="T" type="float"/>
            </accessor>
          </technique_common>
        </source>
        <vertices id="Plane_021-mesh-vertices">
          <input semantic="POSITION" source="#Plane_021-mesh-positions"/>
        </vertices>
        <triangles material="gora_dol-material" count="94">
          <input semantic="VERTEX" source="#Plane_021-mesh-vertices" offset="0"/>
          <input semantic="NORMAL" source="#Plane_021-mesh-normals" offset="1"/>
          <input semantic="TEXCOORD" source="#Plane_021-mesh-map-0" offset="2" set="0"/>
          <p>25 0 0 3 0 1 22 0 2 5 0 3 0 0 4 4 0 5 22 0 6 11 0 7 23 0 8 16 0 9 30 0 10 17 0 11 17 0 12 5 0 13 4 0 14 14 0 15 28 0 16 15 0 17 15 0 18 27 0 19 16 0 20 24 0 21 21 0 22 25 0 23 19 0 24 25 0 25 18 0 26 13 0 27 29 0 28 14 0 29 2 0 30 23 0 31 12 0 32 25 0 33 2 0 34 18 0 35 26 0 36 9 0 37 29 0 38 30 0 39 6 0 40 5 0 41 29 0 42 8 0 43 28 0 44 28 0 45 7 0 46 27 0 47 23 0 48 10 0 49 26 0 50 27 0 51 6 0 52 30 0 53 12 0 54 26 0 55 13 0 56 36 0 57 31 0 58 35 0 59 39 0 60 33 0 61 40 0 62 38 0 63 34 0 64 33 0 65 37 0 66 35 0 67 34 0 68 1 0 69 40 0 70 0 0 71 66 1 72 44 1 73 62 1 74 41 2 75 46 2 76 45 2 77 63 3 78 52 3 79 44 3 80 57 4 81 71 4 82 68 4 83 58 5 84 46 5 85 71 5 86 55 6 87 69 6 88 70 6 89 56 2 90 68 2 91 69 2 92 62 2 93 65 2 94 66 2 95 66 2 96 60 2 97 59 2 98 70 2 99 54 2 100 55 2 101 43 7 102 64 7 103 63 7 104 43 2 105 66 2 106 59 2 107 67 8 108 50 8 109 51 8 110 71 9 111 46 9 112 47 9 113 70 10 114 49 10 115 50 10 116 69 11 117 48 11 118 49 11 119 51 12 120 64 12 121 67 12 122 68 2 123 47 2 124 48 2 125 67 2 126 53 2 127 54 2 128 77 2 129 72 2 130 73 2 131 80 2 132 74 2 133 79 2 134 79 2 135 75 2 136 78 2 137 78 2 138 76 2 139 77 2 140 42 2 141 81 2 142 80 2 143 25 0 243 21 0 244 3 0 245 5 0 246 1 0 247 0 0 248 22 0 249 3 0 250 11 0 251 16 0 252 27 0 253 30 0 254 17 0 255 30 0 256 5 0 257 14 0 258 29 0 259 28 0 260 15 0 261 28 0 262 27 0 263 24 0 264 20 0 265 21 0 266 19 0 267 24 0 268 25 0 269 13 0 270 26 0 271 29 0 272 2 0 273 22 0 274 23 0 275 25 0 276 22 0 277 2 0 278 26 0 279 10 0 280 9 0 281 29 0 282 9 0 283 8 0 284 28 0 285 8 0 286 7 0 287 23 0 288 11 0 289 10 0 290 27 0 291 7 0 292 6 0 293 12 0 294 23 0 295 26 0 296 36 0 297 32 0 298 31 0 299 39 0 300 38 0 301 33 0 302 38 0 303 37 0 304 34 0 305 37 0 306 36 0 307 35 0 308 1 0 309 39 0 310 40 0 311 66 2 312 63 2 313 44 2 314 41 2 315 42 2 316 46 2 317 63 2 318 64 2 319 52 2 320 57 2 321 58 2 322 71 2 323 58 2 324 45 2 325 46 2 326 55 2 327 56 2 328 69 2 329 56 2 330 57 2 331 68 2 332 62 2 333 61 2 334 65 2 335 66 2 336 65 2 337 60 2 338 70 30 339 67 30 340 54 30 341 43 2 342 53 2 343 64 2 344 43 2 345 63 2 346 66 2 347 67 2 348 70 2 349 50 2 350 70 2 351 69 2 352 49 2 353 69 2 354 68 2 355 48 2 356 51 2 357 52 2 358 64 2 359 68 31 360 71 31 361 47 31 362 67 32 363 64 32 364 53 32 365 77 2 366 76 2 367 72 2 368 80 2 369 81 2 370 74 2 371 79 2 372 74 2 373 75 2 374 78 2 375 75 2 376 76 2 377 42 2 378 41 2 379 81 2 380</p>
        </triangles>
        <triangles material="tyl-material" count="32">
          <input semantic="VERTEX" source="#Plane_021-mesh-vertices" offset="0"/>
          <input semantic="NORMAL" source="#Plane_021-mesh-normals" offset="1"/>
          <input semantic="TEXCOORD" source="#Plane_021-mesh-map-0" offset="2" set="0"/>
          <p>40 18 162 41 18 163 0 18 164 32 19 165 72 19 166 31 19 167 31 21 171 76 21 172 35 21 173 33 24 189 81 24 190 40 24 191 12 25 192 43 25 193 2 25 194 18 25 195 60 25 196 19 25 197 34 26 198 74 26 199 33 26 200 13 25 201 53 25 202 12 25 203 2 25 204 59 25 205 18 25 206 35 28 210 75 28 211 34 28 212 14 25 213 54 25 214 13 25 215 0 25 216 45 25 217 4 25 218 15 25 222 55 25 223 14 25 224 16 25 231 56 25 232 15 25 233 17 25 237 57 25 238 16 25 239 4 25 240 58 25 241 17 25 242 40 33 399 81 33 400 41 33 401 32 19 402 73 19 403 72 19 404 31 21 408 72 21 409 76 21 410 33 24 426 74 24 427 81 24 428 12 25 429 53 25 430 43 25 431 18 25 432 59 25 433 60 25 434 34 35 435 75 35 436 74 35 437 13 25 438 54 25 439 53 25 440 2 25 441 43 25 442 59 25 443 35 28 447 76 28 448 75 28 449 14 25 450 55 25 451 54 25 452 0 25 453 41 25 454 45 25 455 15 25 459 56 25 460 55 25 461 16 25 468 57 25 469 56 25 470 17 25 474 58 25 475 57 25 476 4 25 477 45 25 478 58 25 479</p>
        </triangles>
        <triangles material="front-material" count="34">
          <input semantic="VERTEX" source="#Plane_021-mesh-vertices" offset="0"/>
          <input semantic="NORMAL" source="#Plane_021-mesh-normals" offset="1"/>
          <input semantic="TEXCOORD" source="#Plane_021-mesh-map-0" offset="2" set="0"/>
          <p>5 13 144 42 13 145 1 13 146 6 14 147 46 14 148 5 14 149 19 15 150 65 15 151 24 15 152 7 16 153 47 16 154 6 16 155 39 13 156 79 13 157 38 13 158 8 17 159 48 17 160 7 17 161 9 20 168 49 20 169 8 20 170 10 22 174 50 22 175 9 22 176 24 15 177 61 15 178 20 15 179 1 13 180 80 13 181 39 13 182 11 23 183 51 23 184 10 23 185 20 13 186 62 13 187 21 13 188 21 27 207 44 27 208 3 27 209 36 13 219 73 13 220 32 13 221 3 29 225 52 29 226 11 29 227 37 13 228 77 13 229 36 13 230 38 13 234 78 13 235 37 13 236 5 13 381 46 13 382 42 13 383 6 14 384 47 14 385 46 14 386 19 15 387 60 15 388 65 15 389 7 16 390 48 16 391 47 16 392 39 13 393 80 13 394 79 13 395 8 17 396 49 17 397 48 17 398 9 20 405 50 20 406 49 20 407 10 22 411 51 22 412 50 22 413 24 15 414 65 15 415 61 15 416 1 13 417 42 13 418 80 13 419 11 34 420 52 34 421 51 34 422 20 13 423 61 13 424 62 13 425 21 27 444 62 27 445 44 27 446 36 13 456 77 13 457 73 13 458 3 29 462 44 29 463 52 29 464 37 13 465 78 13 466 77 13 467 38 13 471 79 13 472 78 13 473</p>
        </triangles>
      </mesh>
    </geometry>
  </library_geometries>
  <library_visual_scenes>
    <visual_scene id="Scene" name="Scene">
      <node id="olmo_end1" name="olmo_end1" type="NODE">
        <matrix sid="transform">1 0 0 -0.1416327 0 1 0 -0.005397302 0 0 1 0 0 0 0 1</matrix>
        <instance_geometry url="#Plane_021-mesh" name="olmo_end1">
          <bind_material>
            <technique_common>
              <instance_material symbol="gora_dol-material" target="#gora_dol-material">
                <bind_vertex_input semantic="UVMap" input_semantic="TEXCOORD" input_set="0"/>
              </instance_material>
              <instance_material symbol="tyl-material" target="#tyl-material">
                <bind_vertex_input semantic="UVMap" input_semantic="TEXCOORD" input_set="0"/>
              </instance_material>
              <instance_material symbol="front-material" target="#front-material">
                <bind_vertex_input semantic="UVMap" input_semantic="TEXCOORD" input_set="0"/>
              </instance_material>
            </technique_common>
          </bind_material>
        </instance_geometry>
      </node>
    </visual_scene>
  </library_visual_scenes>
  <scene>
    <instance_visual_scene url="#Scene"/>
  </scene>
</COLLADA>