<?xml version="1.0" encoding="utf-8"?>
<COLLADA xmlns="http://www.collada.org/2005/11/COLLADASchema" version="1.4.1" xmlns:xsi="http://www.w3.org/2001/XMLSchema-instance">
  <asset>
    <contributor>
      <author>Blender User</author>
      <authoring_tool>Blender 3.2.0 commit date:2022-06-08, commit time:10:22, hash:e05e1e369187</authoring_tool>
    </contributor>
    <created>2023-03-08T13:24:03</created>
    <modified>2023-03-08T13:24:03</modified>
    <unit name="meter" meter="1"/>
    <up_axis>Z_UP</up_axis>
  </asset>
  <library_effects>
    <effect id="gora_dol-effect">
      <profile_COMMON>
        <technique sid="common">
          <lambert>
            <emission>
              <color sid="emission">0 0 0 1</color>
            </emission>
            <diffuse>
              <color sid="diffuse">0.8 0.8 0.8 1</color>
            </diffuse>
            <index_of_refraction>
              <float sid="ior">1.45</float>
            </index_of_refraction>
          </lambert>
        </technique>
      </profile_COMMON>
    </effect>
    <effect id="tyl-effect">
      <profile_COMMON>
        <technique sid="common">
          <lambert>
            <emission>
              <color sid="emission">0 0 0 1</color>
            </emission>
            <diffuse>
              <color sid="diffuse">0.8 0.8 0.8 1</color>
            </diffuse>
            <index_of_refraction>
              <float sid="ior">1.45</float>
            </index_of_refraction>
          </lambert>
        </technique>
      </profile_COMMON>
    </effect>
    <effect id="front-effect">
      <profile_COMMON>
        <technique sid="common">
          <lambert>
            <emission>
              <color sid="emission">0 0 0 1</color>
            </emission>
            <diffuse>
              <color sid="diffuse">0.8 0.8 0.8 1</color>
            </diffuse>
            <index_of_refraction>
              <float sid="ior">1.45</float>
            </index_of_refraction>
          </lambert>
        </technique>
      </profile_COMMON>
    </effect>
  </library_effects>
  <library_images/>
  <library_materials>
    <material id="gora_dol-material" name="gora_dol">
      <instance_effect url="#gora_dol-effect"/>
    </material>
    <material id="tyl-material" name="tyl">
      <instance_effect url="#tyl-effect"/>
    </material>
    <material id="front-material" name="front">
      <instance_effect url="#front-effect"/>
    </material>
  </library_materials>
  <library_geometries>
    <geometry id="Plane_018-mesh" name="Plane.018">
      <mesh>
        <source id="Plane_018-mesh-positions">
          <float_array id="Plane_018-mesh-positions-array" count="996">0.009699225 -0.002854347 0 -0.02509796 -0.005497038 0 0.006812095 5.02916e-4 0 0.006812095 -0.005497038 0 0.006812095 0.006502866 0 0.009699225 -0.005497038 0 0.009699225 -2.11655e-4 0 0.00928682 2.0906e-4 0 0.008874356 0.001280725 0 0.008461892 0.002717852 0 0.008049488 0.004234671 0 0.007637023 0.005545675 0 0.007224559 0.00636512 0 0.007224559 -0.005497038 0 0.007637023 -0.005497038 0 0.008049428 -0.005497038 0 0.008461892 -0.005497038 0 0.008874356 -0.005497038 0 0.009286761 -0.005497038 0 0.06189537 -0.005497038 0 -0.005891501 -0.005497038 0 -0.01859515 -0.005497038 0 -0.01859515 0.006502866 0 -0.02148228 -0.005497038 0 -0.02148228 -2.11655e-4 0 -0.02106982 2.0906e-4 0 -0.02065742 0.001280725 0 -0.02024495 0.002717852 0 -0.01983249 0.004234671 0 -0.01942008 0.005545675 0 -0.01900762 0.00636512 0 -0.01900762 -0.005497038 0 -0.01942008 -0.005497038 0 -0.01983249 -0.005497038 0 -0.02024495 -0.005497038 0 -0.02065742 -0.005497038 0 -0.02106982 -0.005497038 0 -0.005891501 0.006502866 0 0.01354801 -2.11655e-4 0 0.01354801 -0.005497038 0 0.06189537 -2.11655e-4 0 0.04569131 -0.005497038 0 0.04569131 0.006502866 0 0.04857844 -0.005497038 0 0.04857844 -2.11655e-4 0 0.04816597 2.0906e-4 0 0.04775351 0.001280725 0 0.04734104 0.002717852 0 0.04692864 0.004234671 0 0.04651618 0.005545675 0 0.04610371 0.00636512 0 0.04610371 -0.005497038 0 0.04651618 -0.005497038 0 0.04692864 -0.005497038 0 0.04734104 -0.005497038 0 0.04775351 -0.005497038 0 0.04816597 -0.005497038 0 0.03298759 -0.005497038 0 0.02028393 -0.005497038 0 0.02028393 0.006502866 0 0.0173968 -0.005497038 0 0.0173968 -2.11655e-4 0 0.01780927 2.0906e-4 0 0.01822173 0.001280725 0 0.01863414 0.002717852 0 0.0190466 0.004234671 0 0.01945906 0.005545675 0 0.01987147 0.00636512 0 0.01987147 -0.005497038 0 0.01945906 -0.005497038 0 0.0190466 -0.005497038 0 0.01863414 -0.005497038 0 0.01822173 -0.005497038 0 0.01780927 -0.005497038 0 0.03298759 0.006502866 0 -0.02509796 -2.11655e-4 0 -0.03160077 -0.005497038 0 -0.03160077 0.006502866 0 -0.02871364 -0.005497038 0 -0.02871364 -2.11655e-4 0 -0.0291261 2.0906e-4 0 -0.02953851 0.001280725 0 -0.02995097 0.002717852 0 -0.03036344 0.004234671 0 -0.03077584 0.005545675 0 -0.0311883 0.00636512 0 -0.0311883 -0.005497038 0 -0.03077584 -0.005497038 0 -0.03036344 -0.005497038 0 -0.02995097 -0.005497038 0 -0.02953851 -0.005497038 0 -0.0291261 -0.005497038 0 -0.04430443 -0.005497038 0 -0.05370682 -0.005342125 0 -0.05687463 0.006502866 0 -0.05902349 -3.21782e-4 0 -0.05866539 0.001280725 0 -0.05830723 0.002717852 0 -0.05794906 0.004234671 0 -0.05759096 0.005545675 0 -0.05723279 0.00636512 0 -0.05360037 -0.005497038 0 -0.04430443 0.006502866 0 0.007224559 4.34043e-4 0 0.007637023 2.43075e-5 0 0.008049428 -6.31177e-4 0 0.008461892 -0.001389563 0 0.008874356 -0.002108097 0 0.009286761 -0.002644002 0 -0.05794906 -3.21782e-4 0 -0.01859515 5.02916e-4 0 -0.02148228 -0.002854347 0 -0.01900762 4.34043e-4 0 -0.01942008 2.43075e-5 0 -0.01983249 -6.31177e-4 0 -0.02024495 -0.001389563 0 -0.02065742 -0.002108097 0 -0.02106982 -0.002644002 0 -0.005891501 5.02916e-4 0 0.04569131 5.02916e-4 0 -0.05830723 -3.21782e-4 0 0.04610371 4.34043e-4 0 -0.05866539 -3.21782e-4 0 -0.05759096 -3.21782e-4 0 0.01354801 -0.002854347 0 0.02028393 5.02916e-4 0 0.0173968 -0.002854347 0 0.01987147 4.34043e-4 0 0.01945906 2.43075e-5 0 0.0190466 -6.31177e-4 0 0.01863414 -0.001389563 0 0.01822173 -0.002108097 0 0.01780927 -0.002644002 0 0.03298759 5.02916e-4 0 -0.03160077 5.02916e-4 0 -0.02871364 -0.002854347 0 -0.0311883 4.34043e-4 0 -0.03077584 2.43075e-5 0 -0.03036344 -6.31177e-4 0 -0.02995097 -0.001389563 0 -0.02953851 -0.002108097 0 -0.0291261 -0.002644002 0 -0.05687463 -3.21782e-4 0 -0.05723279 -3.21782e-4 0 -0.05194061 -3.21782e-4 0 -0.05154258 -0.005497038 0 -0.05154258 0.006502866 0 -0.04430443 5.02916e-4 0 -0.02509796 -0.002854347 0 0.04651618 2.39298e-4 0 0.04775351 -1.50937e-4 0 0.04734104 -8.45152e-5 0 0.04692864 3.17255e-5 0 0.04816597 -2.00755e-4 0 -0.05317461 -0.004033625 0 -0.05257147 -0.005497038 0 0.06405961 -5.55846e-4 0 0.06405961 -2.11655e-4 0 0.06249409 -0.004670619 0 0.06309282 -0.003224432 0 0.06369149 -0.001778185 0 0.06369149 -2.11655e-4 0 0.06309282 -2.11655e-4 0 0.06249409 -2.11655e-4 0 0.0621947 -2.11655e-4 0 0.0621947 -0.005255997 0 0.009699225 -0.002854347 2.7 -0.02509796 -0.005497038 2.7 0.006812095 5.02916e-4 2.7 0.006812095 -0.005497038 2.7 0.006812095 0.006502866 2.7 0.009699225 -0.005497038 2.7 0.009699225 -2.11655e-4 2.7 0.00928682 2.0906e-4 2.7 0.008874356 0.001280725 2.7 0.008461892 0.002717852 2.7 0.008049488 0.004234671 2.7 0.007637023 0.005545675 2.7 0.007224559 0.00636512 2.7 0.007224559 -0.005497038 2.7 0.007637023 -0.005497038 2.7 0.008049428 -0.005497038 2.7 0.008461892 -0.005497038 2.7 0.008874356 -0.005497038 2.7 0.009286761 -0.005497038 2.7 0.06189537 -0.005497038 2.7 -0.005891501 -0.005497038 2.7 -0.01859515 -0.005497038 2.7 -0.01859515 0.006502866 2.7 -0.02148228 -0.005497038 2.7 -0.02148228 -2.11655e-4 2.7 -0.02106982 2.0906e-4 2.7 -0.02065742 0.001280725 2.7 -0.02024495 0.002717852 2.7 -0.01983249 0.004234671 2.7 -0.01942008 0.005545675 2.7 -0.01900762 0.00636512 2.7 -0.01900762 -0.005497038 2.7 -0.01942008 -0.005497038 2.7 -0.01983249 -0.005497038 2.7 -0.02024495 -0.005497038 2.7 -0.02065742 -0.005497038 2.7 -0.02106982 -0.005497038 2.7 -0.005891501 0.006502866 2.7 0.01354801 -2.11655e-4 2.7 0.01354801 -0.005497038 2.7 0.06189537 -2.11655e-4 2.7 0.04569131 -0.005497038 2.7 0.04569131 0.006502866 2.7 0.04857844 -0.005497038 2.7 0.04857844 -2.11655e-4 2.7 0.04816597 2.0906e-4 2.7 0.04775351 0.001280725 2.7 0.04734104 0.002717852 2.7 0.04692864 0.004234671 2.7 0.04651618 0.005545675 2.7 0.04610371 0.00636512 2.7 0.04610371 -0.005497038 2.7 0.04651618 -0.005497038 2.7 0.04692864 -0.005497038 2.7 0.04734104 -0.005497038 2.7 0.04775351 -0.005497038 2.7 0.04816597 -0.005497038 2.7 0.03298759 -0.005497038 2.7 0.02028393 -0.005497038 2.7 0.02028393 0.006502866 2.7 0.0173968 -0.005497038 2.7 0.0173968 -2.11655e-4 2.7 0.01780927 2.0906e-4 2.7 0.01822173 0.001280725 2.7 0.01863414 0.002717852 2.7 0.0190466 0.004234671 2.7 0.01945906 0.005545675 2.7 0.01987147 0.00636512 2.7 0.01987147 -0.005497038 2.7 0.01945906 -0.005497038 2.7 0.0190466 -0.005497038 2.7 0.01863414 -0.005497038 2.7 0.01822173 -0.005497038 2.7 0.01780927 -0.005497038 2.7 0.03298759 0.006502866 2.7 -0.02509796 -2.11655e-4 2.7 -0.03160077 -0.005497038 2.7 -0.03160077 0.006502866 2.7 -0.02871364 -0.005497038 2.7 -0.02871364 -2.11655e-4 2.7 -0.0291261 2.0906e-4 2.7 -0.02953851 0.001280725 2.7 -0.02995097 0.002717852 2.7 -0.03036344 0.004234671 2.7 -0.03077584 0.005545675 2.7 -0.0311883 0.00636512 2.7 -0.0311883 -0.005497038 2.7 -0.03077584 -0.005497038 2.7 -0.03036344 -0.005497038 2.7 -0.02995097 -0.005497038 2.7 -0.02953851 -0.005497038 2.7 -0.0291261 -0.005497038 2.7 -0.04430443 -0.005497038 2.7 -0.05370682 -0.005342125 2.7 -0.05687463 0.006502866 2.7 -0.05902349 -3.21782e-4 2.7 -0.05866539 0.001280725 2.7 -0.05830723 0.002717852 2.7 -0.05794906 0.004234671 2.7 -0.05759096 0.005545675 2.7 -0.05723279 0.00636512 2.7 -0.05360037 -0.005497038 2.7 -0.04430443 0.006502866 2.7 0.007224559 4.34043e-4 2.7 0.007637023 2.43075e-5 2.7 0.008049428 -6.31177e-4 2.7 0.008461892 -0.001389563 2.7 0.008874356 -0.002108097 2.7 0.009286761 -0.002644002 2.7 -0.05794906 -3.21782e-4 2.7 -0.01859515 5.02916e-4 2.7 -0.02148228 -0.002854347 2.7 -0.01900762 4.34043e-4 2.7 -0.01942008 2.43075e-5 2.7 -0.01983249 -6.31177e-4 2.7 -0.02024495 -0.001389563 2.7 -0.02065742 -0.002108097 2.7 -0.02106982 -0.002644002 2.7 -0.005891501 5.02916e-4 2.7 0.04569131 5.02916e-4 2.7 -0.05830723 -3.21782e-4 2.7 0.04610371 4.34043e-4 2.7 -0.05866539 -3.21782e-4 2.7 -0.05759096 -3.21782e-4 2.7 0.01354801 -0.002854347 2.7 0.02028393 5.02916e-4 2.7 0.0173968 -0.002854347 2.7 0.01987147 4.34043e-4 2.7 0.01945906 2.43075e-5 2.7 0.0190466 -6.31177e-4 2.7 0.01863414 -0.001389563 2.7 0.01822173 -0.002108097 2.7 0.01780927 -0.002644002 2.7 0.03298759 5.02916e-4 2.7 -0.03160077 5.02916e-4 2.7 -0.02871364 -0.002854347 2.7 -0.0311883 4.34043e-4 2.7 -0.03077584 2.43075e-5 2.7 -0.03036344 -6.31177e-4 2.7 -0.02995097 -0.001389563 2.7 -0.02953851 -0.002108097 2.7 -0.0291261 -0.002644002 2.7 -0.05687463 -3.21782e-4 2.7 -0.05723279 -3.21782e-4 2.7 -0.05194061 -3.21782e-4 2.7 -0.05154258 -0.005497038 2.7 -0.05154258 0.006502866 2.7 -0.04430443 5.02916e-4 2.7 -0.02509796 -0.002854347 2.7 0.04651618 2.39298e-4 2.7 0.04775351 -1.50937e-4 2.7 0.04734104 -8.45152e-5 2.7 0.04692864 3.17255e-5 2.7 0.04816597 -2.00755e-4 2.7 -0.05317461 -0.004033625 2.7 -0.05257147 -0.005497038 2.7 0.06405961 -5.55846e-4 2.7 0.06405961 -2.11655e-4 2.7 0.06249409 -0.004670619 2.7 0.06309282 -0.003224432 2.7 0.06369149 -0.001778185 2.7 0.06369149 -2.11655e-4 2.7 0.06309282 -2.11655e-4 2.7 0.06249409 -2.11655e-4 2.7 0.0621947 -2.11655e-4 2.7 0.0621947 -0.005255997 2.7</float_array>
          <technique_common>
            <accessor source="#Plane_018-mesh-positions-array" count="332" stride="3">
              <param name="X" type="float"/>
              <param name="Y" type="float"/>
              <param name="Z" type="float"/>
            </accessor>
          </technique_common>
        </source>
        <source id="Plane_018-mesh-normals">
          <float_array id="Plane_018-mesh-normals-array" count="417">0 0 -1 0 0 1 -1.7106e-5 0 1 3.99867e-4 0 1 -7.61416e-4 0 0.9999997 4.08965e-4 0 1 -4.64056e-4 0 0.9999999 5.49742e-4 0 0.9999999 -8.54451e-4 0 0.9999997 -1.7106e-5 0 1 2.50784e-4 0 1 1.69871e-4 0 1 -6.12617e-4 0 0.9999998 -8.54443e-4 0 0.9999997 -1.7106e-5 0 1 4.08963e-4 0 1 -4.64055e-4 0 0.9999999 5.49744e-4 0 1 6.66301e-4 0 0.9999998 -2.74872e-4 0 1 2.32029e-4 0 1 -1.0224e-4 0 1 -7.61423e-4 0 0.9999997 0.001199543 0 0.9999993 -4.94648e-4 0 0.9999999 -2.74872e-4 0 1 2.32028e-4 0 1 -1.02241e-4 0 1 -4.94653e-4 0 0.9999999 -4.25535e-4 0 1 -0.001377463 0 0.9999991 5.37248e-4 0 1 4.02872e-4 0 1 1.59576e-4 0 1 -7.88588e-4 0 0.9999997 0 1 0 -0.9759256 0.2181037 0 -0.7140923 0.7000516 0 -0.9703214 0.2418189 0 -0.7140899 0.700054 0 -0.9332749 0.3591627 0 -0.9732395 0.2297932 0 -0.9611973 0.2758622 0 -0.9646499 0.2635347 0 -0.9649637 0.2623834 0 -0.9163054 0.4004802 0 -0.9649646 0.2623801 0 -0.9539051 0.3001084 0 0 -1 0 -0.9539058 0.3001067 0 -0.8932415 0.4495772 0 -0.8932403 0.4495795 0 -0.82424 -0.5662408 0 -0.9263103 0.3767617 0 0 1 0 -0.948936 0.315469 0 1 0 0 0.9575299 -0.2883343 0 0.8903244 -0.4553269 0 0.9239554 -0.3825005 0 0.923953 -0.3825062 0 0 1 0 0 1 0 0.3167766 0.9485003 0 0.7140911 0.7000528 0 0.9332742 0.3591648 0 0.714083 0.7000612 0 0.6271768 -0.7788769 0 0.9611975 0.2758613 0 0.9332749 0.3591627 0 0.9649645 0.262381 0 0.9611958 0.2758673 0 0.9539054 0.3001075 0 0.7140923 0.7000516 0 0.9649646 0.2623801 0 0.8932409 0.4495783 0 0.9539058 0.3001067 0 0.9611978 0.2758605 0 0.8932439 0.4495723 0 0.9649637 0.2623834 0 0.9539046 0.3001103 0 0.8932391 0.4495819 0 -0.3167785 0.9484996 0 -0.3167766 0.9485003 0 -0.3589748 0.9333474 0 8.54443e-4 0 0.9999997 1.17608e-4 0 1 7.61423e-4 0 0.9999998 -4.08964e-4 0 1 4.64054e-4 0 0.9999999 -5.49741e-4 0 0.9999999 1.17607e-4 0 1 7.61416e-4 0 0.9999997 -4.08968e-4 0 1 4.64057e-4 0 1 -5.49738e-4 0 0.9999999 8.54436e-4 0 0.9999997 1.1907e-4 0 1 -1.01635e-5 0 1 -6.66306e-4 0 0.9999999 2.74869e-4 0 1 -2.32028e-4 0 1 1.02242e-4 0 1 7.61417e-4 0 0.9999998 -0.001199543 0 0.9999993 4.94653e-4 0 0.9999999 4.43193e-4 0 1 7.8728e-4 0 0.9999997 -5.70694e-4 0 0.9999999 -6.66301e-4 0 0.9999998 2.74872e-4 0 1 -2.32026e-4 0 1 1.02242e-4 0 1 7.61423e-4 0 0.9999997 -0.001199543 0 0.9999993 4.94657e-4 0 0.9999999 -0.001522839 0 0.9999989 -3.48856e-4 0 1 5.16306e-4 0 1 -0.9759271 0.2180972 0 -0.973238 0.2297999 0 -0.9646521 0.2635272 0 -0.9611963 0.2758656 0 -0.9649642 0.2623818 0 -0.91631 0.4004698 0 -0.8932428 0.4495747 0 -0.8242674 -0.5662009 0 -0.926313 0.376755 0 -0.9489368 0.3154664 0 0.8903312 -0.4553135 0 0.9239504 -0.3825122 0 0 1 0 0.9332738 0.3591659 0 0.6271628 -0.7788882 0 0.9649642 0.2623818 0 0.7140876 0.7000563 0 0.9332734 0.3591669 0 0.8932415 0.4495772 0 -0.3167804 0.9484989 0</float_array>
          <technique_common>
            <accessor source="#Plane_018-mesh-normals-array" count="139" stride="3">
              <param name="X" type="float"/>
              <param name="Y" type="float"/>
              <param name="Z" type="float"/>
            </accessor>
          </technique_common>
        </source>
        <source id="Plane_018-mesh-map-0">
          <float_array id="Plane_018-mesh-map-0-array" count="3960">0.9123224 1 1 0.5 0.9123224 0.5 0.4139021 0.5 0.8278041 1 0.8278041 0.5 0.9002483 0.5 0.9123224 1 0.9123224 0.5 0.8278041 0.5 0.8398781 1 0.8398781 0.5 0.8398781 0.5 0.8519521 1 0.8519521 0.5 0.8519521 0.5 0.8640262 1 0.8640262 0.5 0.8640262 0.5 0.8761003 1 0.8761003 0.5 0.8761003 0.5 0.8881742 1 0.8881743 0.5 0.8881743 0.5 0.9002483 1 0.9002483 0.5 1 0.5 0.9123224 1 0.9123224 0.5 0.8278041 0.5 0.4139021 1 0.4139021 0.5 0.9002483 0.5 0.9123224 1 0.9002483 1 0.8278041 0.5 0.8398781 1 0.8278041 1 0.8398781 0.5 0.8519521 1 0.8398781 1 0.8519521 0.5 0.8640262 1 0.8519521 1 0.8640262 0.5 0.8761003 1 0.8640262 1 0.8761003 0.5 0.8881742 1 0.8761003 1 0.8881743 0.5 0.9002483 1 0.8881742 1 0.4139021 0.5 0.8278041 1 0.8278041 0.5 0.9123224 1 1 0 0.9123224 0 0.8278041 0.5 0.8398781 1 0.8398781 0.5 0.8881743 0 0.9002483 0.9281802 0.9002483 0 0.9002483 0 0.9123224 1 0.9123224 0 0.8640262 0 0.8761003 0.6588672 0.8761003 0 0.8761003 0 0.8881742 0.7887658 0.8881743 0 1 0.5 0.9123224 1 0.9123224 0.5 0.8278041 0.5 0.4139021 1 0.4139021 0.5 0.9002483 0.5 0.9123224 1 0.9002483 1 0.8278041 0.5 0.8398781 1 0.8278041 1 0.8398781 0.5 0.8519521 1 0.8398781 1 0.8519521 0.5 0.8640262 1 0.8519521 1 0.8640262 0.5 0.8761003 1 0.8640262 1 0.8761003 0.5 0.8881742 1 0.8761003 1 0.8881743 0.5 0.9002483 1 0.8881742 1 0.9123224 1 1 0.5 0.9123224 0.5 0.4139021 0.5 0.8278041 1 0.8278041 0.5 0.9002483 0.5 0.9123224 1 0.9123224 0.5 0.8278041 0.5 0.8398781 1 0.8398781 0.5 0.8398781 0.5 0.8519521 1 0.8519521 0.5 0.8519521 0.5 0.8640262 1 0.8640262 0.5 0.8640262 0.5 0.8761003 1 0.8761003 0.5 0.8761003 0.5 0.8881742 1 0.8881743 0.5 0.8881743 0.5 0.9002483 1 0.9002483 0.5 0.64973 0.5 0.8278041 1 0.64973 1 0.8278041 0.5 0.8398781 1 0.8278041 1 0.4139021 0.5 0.64973 1 0.4139021 1 0.4139021 0 0.64973 0.5 0.4139021 0.5 0 0 0 0 0 0 0.64973 0 0 0 0.64973 0.5 0.8881743 0 0.9002483 0.5 0.9002483 0 0.8761003 0 0.8881743 0.5 0.8881743 0 0.8640262 0 0.8761003 0.5 0.8761003 0 0.8519521 0 0.8640262 0.5 0.8640262 0 0.8398782 0 0.8519521 0.5 0.8519521 0 0.8278041 0 0.8398781 0.5 0.8398782 0 0.9002483 0 0.9123224 0.5 0.9123224 0 0.4139021 0.5 0.8278041 0 0.4139021 0 0.9123224 0.5 1 0 0.9123224 0 0.8881743 0 0.9002483 0.5 0.8881743 0.5 0.8761003 0 0.8881743 0.5 0.8761003 0.5 0.8640262 0 0.8761003 0.5 0.8640262 0.5 0.8519521 0 0.8640262 0.5 0.8519521 0.5 0.8398782 0 0.8519521 0.5 0.8398781 0.5 0.8278041 0 0.8398781 0.5 0.8278041 0.5 0.9002483 0 0.9123224 0.5 0.9002483 0.5 0.8278041 0 0.4139021 0.5 0.4139021 0 1 0 0.9123224 0.5 0.9123224 0 0.8640262 1 0.8519522 0.5330296 0.8640262 0.6002101 0.9002483 1 0.8881742 1 0.8881743 0.8485182 0.8519521 1 0.8398781 0.5 0.8519522 0.5330296 0.8519521 0 0.8640262 0.5681171 0.8640262 0 0.8278041 0 0.8398781 0.5 0.8398782 0 0.8881742 1 0.8761003 0.7055587 0.8881743 0.8485182 0.4139021 0.5 0.8278041 0 0.4139021 0 0.8761003 1 0.8640262 0.6002101 0.8761003 0.7055587 0.8881743 0 0.9002483 0.5 0.8881743 0.5 0.8761003 0 0.8881743 0.5 0.8761003 0.5 0.8640262 0 0.8761003 0.5 0.8640262 0.5 0.8519521 0 0.8640262 0.5 0.8519521 0.5 0.8398782 0 0.8519521 0.5 0.8398781 0.5 0.8278041 0 0.8398781 0.5 0.8278041 0.5 0.9002483 0 0.9123224 0.5 0.9002483 0.5 0.8278041 0 0.4139021 0.5 0.4139021 0 1 0 0.9123224 0.5 0.9123224 0 0.8881743 0 0.9002483 0.5 0.9002483 0 0.8761003 0 0.8881743 0.5 0.8881743 0 0.8640262 0 0.8761003 0.5 0.8761003 0 0.8519521 0 0.8640262 0.5 0.8640262 0 0.8398782 0 0.8519521 0.5 0.8519521 0 0.8278041 0 0.8398781 0.5 0.8398782 0 0.9002483 0 0.9123224 0.5 0.9123224 0 0.4139021 0.5 0.8278041 0 0.4139021 0 0.9123224 0.5 1 0 0.9123224 0 0.8519521 0.5194689 0.8640262 1 0.8640262 0.5681171 0.9002483 0.9281802 0.9002483 1 0.9123224 1 0.8640262 0.5681171 0.8761003 1 0.8761003 0.6588672 0.8761003 0.6588672 0.8881742 1 0.8881742 0.7887658 0.8398781 0.5 0.8519521 1 0.8519521 0.5194689 0.8881742 0.7887658 0.9002483 1 0.9002483 0.9281802 0.8398782 0 0.8519521 0.5194689 0.8519521 0 1 1 1 0 1 0 1 1 1 0 1 0 1 1 1 0 1 0 1 1 1 0 1 0 1 1 1 0 1 0 1 0.5 0.9123224 1 0.9123224 0.5 0.4139021 0.5 0.8278041 1 0.4139021 1 0.9002483 0.5 0.9123224 1 0.9002483 1 0.8278041 0.5 0.8398781 1 0.8278041 1 0.8398781 0.5 0.8519521 1 0.8398781 1 0.8519521 0.5 0.8640262 1 0.8519521 1 0.8640262 0.5 0.8761003 1 0.8640262 1 0.8761003 0.5 0.8881742 1 0.8761003 1 0.8881743 0.5 0.9002483 1 0.8881742 1 0.9123224 1 1 0.5 0.9123224 0.5 0.4139021 1 0.8278041 0.5 0.4139021 0.5 0.9002483 0.5 0.9123224 1 0.9123224 0.5 0.8278041 0.5 0.8398781 1 0.8398781 0.5 0.8398781 0.5 0.8519521 1 0.8519521 0.5 0.8519521 0.5 0.8640262 1 0.8640262 0.5 0.8640262 0.5 0.8761003 1 0.8761003 0.5 0.8761003 0.5 0.8881742 1 0.8881743 0.5 0.8881743 0.5 0.9002483 1 0.9002483 0.5 0.4139021 0.5 0.8278041 1 0.4139021 1 1 0 0.9123224 1 0.9123224 0 0.8278041 0.5 0.8398781 1 0.8278041 1 0.8881743 0 0.9002483 0.9281802 0.8881742 0.7887658 0.9002483 0 0.9123224 1 0.9002483 0.9281802 0.8640262 0 0.8761003 0.6588672 0.8640262 0.5681171 0.8761003 0 0.8881742 0.7887658 0.8761003 0.6588672 0.9123224 1 1 0.5 0.9123224 0.5 0.4139021 1 0.8278041 0.5 0.4139021 0.5 0.9002483 0.5 0.9123224 1 0.9123224 0.5 0.8278041 0.5 0.8398781 1 0.8398781 0.5 0.8398781 0.5 0.8519521 1 0.8519521 0.5 0.8519521 0.5 0.8640262 1 0.8640262 0.5 0.8640262 0.5 0.8761003 1 0.8761003 0.5 0.8761003 0.5 0.8881742 1 0.8881743 0.5 0.8881743 0.5 0.9002483 1 0.9002483 0.5 1 0.5 0.9123224 1 0.9123224 0.5 0.4139021 0.5 0.8278041 1 0.4139021 1 0.9002483 0.5 0.9123224 1 0.9002483 1 0.8278041 0.5 0.8398781 1 0.8278041 1 0.8398781 0.5 0.8519521 1 0.8398781 1 0.8519521 0.5 0.8640262 1 0.8519521 1 0.8640262 0.5 0.8761003 1 0.8640262 1 0.8761003 0.5 0.8881742 1 0.8761003 1 0.8881743 0.5 0.9002483 1 0.8881742 1 0.64973 0.5 0.8278041 1 0.8278041 0.5 0.8278041 0.5 0.8398781 1 0.8398781 0.5 0.4139021 0.5 0.64973 1 0.64973 0.5 0.4139021 0 0.64973 0.5 0.64973 0 0 0 0 0 0 0 0.64973 0 0 0 0 0 0.8881743 0 0.9002483 0.5 0.8881743 0.5 0.8761003 0 0.8881743 0.5 0.8761003 0.5 0.8640262 0 0.8761003 0.5 0.8640262 0.5 0.8519521 0 0.8640262 0.5 0.8519521 0.5 0.8398782 0 0.8519521 0.5 0.8398781 0.5 0.8278041 0 0.8398781 0.5 0.8278041 0.5 0.9002483 0 0.9123224 0.5 0.9002483 0.5 0.8278041 0 0.4139021 0.5 0.4139021 0 1 0 0.9123224 0.5 0.9123224 0 0.8881743 0 0.9002483 0.5 0.9002483 0 0.8761003 0 0.8881743 0.5 0.8881743 0 0.8640262 0 0.8761003 0.5 0.8761003 0 0.8519521 0 0.8640262 0.5 0.8640262 0 0.8398782 0 0.8519521 0.5 0.8519521 0 0.8278041 0 0.8398781 0.5 0.8398782 0 0.9002483 0 0.9123224 0.5 0.9123224 0 0.4139021 0.5 0.8278041 0 0.4139021 0 0.9123224 0.5 1 0 0.9123224 0 0.8519522 0.5330296 0.8640262 1 0.8640262 0.6002101 0.9002483 1 0.8881743 0.8485182 0.8881742 1 0.8398781 0.5 0.8519521 1 0.8519522 0.5330296 0.8640262 0.5681171 0.8519521 0 0.8640262 0 0.8278041 0 0.8398781 0.5 0.8278041 0.5 0.8761003 0.7055587 0.8881742 1 0.8881743 0.8485182 0.8278041 0 0.4139021 0.5 0.4139021 0 0.8640262 0.6002101 0.8761003 1 0.8761003 0.7055587 0.8881743 0 0.9002483 0.5 0.9002483 0 0.8761003 0 0.8881743 0.5 0.8881743 0 0.8640262 0 0.8761003 0.5 0.8761003 0 0.8519521 0 0.8640262 0.5 0.8640262 0 0.8398782 0 0.8519521 0.5 0.8519521 0 0.8278041 0 0.8398781 0.5 0.8398782 0 0.9002483 0 0.9123224 0.5 0.9123224 0 0.4139021 0.5 0.8278041 0 0.4139021 0 0.9123224 0.5 1 0 0.9123224 0 0.8881743 0 0.9002483 0.5 0.8881743 0.5 0.8761003 0 0.8881743 0.5 0.8761003 0.5 0.8640262 0 0.8761003 0.5 0.8640262 0.5 0.8519521 0 0.8640262 0.5 0.8519521 0.5 0.8398782 0 0.8519521 0.5 0.8398781 0.5 0.8278041 0 0.8398781 0.5 0.8278041 0.5 0.9002483 0 0.9123224 0.5 0.9002483 0.5 0.8278041 0 0.4139021 0.5 0.4139021 0 1 0 0.9123224 0.5 0.9123224 0 0.8519521 0.5194689 0.8640262 1 0.8519521 1 0.9002483 0.9281802 0.9123224 1 0.9002483 1 0.8640262 0.5681171 0.8761003 1 0.8640262 1 0.8761003 0.6588672 0.8881742 1 0.8761003 1 0.8519521 1 0.8398781 0.5 0.8519521 0.5194689 0.8881742 0.7887658 0.9002483 1 0.8881742 1 0.8519521 0.5194689 0.8398782 0 0.8519521 0 1 1 1 0 1 1 1 1 1 0 1 1 1 1 1 0 1 1 1 1 1 0 1 1 1 1 1 0 1 1 1 1 0.9123224 1 0.9123224 1 0.9002483 1 0.8881742 1 0.8881742 1 0.9123224 1 0.9002483 1 0.9002483 1 0.8881742 1 0.8761003 1 0.8761003 1 0.9123224 1 0.9002483 1 0.9002483 1 0.9002483 1 0.8881742 1 0.8881742 1 0.8761003 1 0.8640262 1 0.8640262 1 0.9002483 1 0.8881742 1 0.8881742 1 0.8881742 1 0.8761003 1 0.8761003 1 0.8640262 1 0.8519521 1 0.8519521 1 0.8881742 1 0.8761003 1 0.8761003 1 0.8761003 1 0.8640262 1 0.8640262 1 0.8519521 1 0.8398781 1 0.8398781 1 0.8761003 1 0.8640262 1 0.8640262 1 0.8640262 1 0.8519521 1 0.8519521 1 0.64973 0 0 0 0 0 0.8640262 1 0.8519521 1 0.8519521 1 0.8519521 1 0.8398781 1 0.8398781 1 0.8519521 1 0.8398781 1 0.8398781 1 0 0 0 0 0 0 0.8278041 0 0.8398782 0 0.8398782 0 0.8278041 0 0.8398782 0 0.8398782 0 0 0 0 0 0 0 0.8398782 0 0.8519521 0 0.8519521 0 0.8398782 0 0.8519521 0 0.8519521 0 0.8519521 0 0.8640262 0 0.8640262 0 0.8519521 0 0.8640262 0 0.8640262 0 0.8640262 0 0.8761003 0 0.8761003 0 0.8640262 0 0.8761003 0 0.8761003 0 0.4139021 0 0.64973 0 0.64973 0 0.8761003 0 0.8881743 0 0.8881743 0 0.8278041 1 0.64973 1 0.64973 1 0.8761003 0 0.8881743 0 0.8881743 0 0.8881743 0 0.9002483 0 0.9002483 0 0.64973 1 0.4139021 1 0.4139021 1 0.8881743 0 0.9002483 0 0.9002483 0 0.8278041 0.5 0.8398781 0.5 0.8398781 0.5 0 0 0 0 0 0 0.64973 0.5 0.8278041 0.5 0.8278041 0.5 0.4139021 1 0.8278041 1 0.8278041 1 0 0 0.64973 0.5 0.64973 0.5 1 1 1 0 1 0 1 1 0.9123224 1 0.9123224 1 1 0 1 0 1 0 1 0 0.9123224 0 0.9123224 0 1 1 1 1 1 1 0.8278041 0 0.4139021 0 0.4139021 0 0.8278041 1 0.4139021 1 0.4139021 1 1 0 1 0 1 0 0.8278041 1 0.4139021 1 0.4139021 1 1 0 0.9123224 0 0.9123224 0 1 0 1 0 1 0 0.9123224 0 1 0 1 0 0.4139021 0 0.8278041 0 0.8278041 0 0.4139021 0 0.8278041 0 0.8278041 0 1 0 1 0 1 0 0.8278041 0 0.4139021 0 0.4139021 0 0.4139021 1 0.8278041 1 0.8278041 1 0.4139021 1 0.8278041 1 0.8278041 1 1 1 1 1 1 1 0.8278041 1 0.8398781 1 0.8398781 1 1 1 1 1 1 1 1 0 0.9123224 0 0.9123224 0 0.8278041 1 0.8398781 1 0.8398781 1 1 1 1 1 1 1 0.9123224 0 0.9002483 0 0.9002483 0 0.9123224 1 1 1 1 1 0.8278041 0 0.4139021 0 0.4139021 0 0.9123224 0 0.9002483 0 0.9002483 0 0.8278041 1 0.8398781 1 0.8398781 1 0.9123224 1 1 1 1 1 0.9002483 1 0.9123224 1 0.9123224 1 1 1 1 1 1 1 0.8881742 1 0.9002483 1 0.9002483 1 0.9123224 0 0.9002483 0 0.9002483 0 0.9002483 1 0.9123224 1 0.9123224 1 1 0 1 0 1 0 0.8761003 1 0.8881742 1 0.8881742 1 0.9123224 1 1 1 1 1 0.8881742 1 0.9002483 1 0.9002483 1 0.8640262 1 0.8761003 1 0.8761003 1 0.8761003 1 0.8881742 1 0.8881742 1 0.8519521 1 0.8640262 1 0.8640262 1 0.9002483 1 0.9123224 1 0.9123224 1 0.8640262 1 0.8761003 1 0.8761003 1 0.8398781 1 0.8519521 1 0.8519521 1 0.8881742 1 0.9002483 1 0.9002483 1 0.8519522 0.5330296 0.8640262 0.6002101 0.8640262 0.6002101 0.8519521 1 0.8640262 1 0.8640262 1 0.8398782 0 0.8278041 0 0.8278041 0 0.8761003 1 0.8881742 1 0.8881742 1 0.8398781 1 0.8519521 1 0.8519521 1 0.8519521 0 0.8398782 0 0.8398782 0 0.8640262 1 0.8761003 1 0.8761003 1 0.8881743 0.8485182 0.9002483 1 0.9002483 1 0.8398782 0 0.8278041 0 0.8278041 0 0.8640262 0 0.8519521 0 0.8519521 0 0.8519521 1 0.8640262 1 0.8640262 1 0.8519521 0 0.8398782 0 0.8398782 0 0.8398781 0.5 0.8519522 0.5330296 0.8519522 0.5330296 0.8761003 0 0.8640262 0 0.8640262 0 0.8398781 1 0.8519521 1 0.8519521 1 0.8640262 0 0.8519521 0 0.8519521 0 0.8761003 0.7055587 0.8881743 0.8485182 0.8881743 0.8485182 0.8881743 0 0.8761003 0 0.8761003 0 0.8398782 0 0.8278041 0 0.8278041 0 0.8761003 0 0.8640262 0 0.8640262 0 0.8640262 0.6002101 0.8761003 0.7055587 0.8761003 0.7055587 0.9002483 0 0.8881743 0 0.8881743 0 0.8519521 0 0.8398782 0 0.8398782 0 0.8881743 0 0.8761003 0 0.8761003 0 0.8640262 0 0.8519521 0 0.8519521 0 0.9002483 0 0.8881743 0 0.8881743 0 0.8761003 0 0.8640262 0 0.8640262 0 0.8881743 0 0.8761003 0 0.8761003 0 0.9002483 0 0.8881743 0 0.8881743 0 0.9123224 0 1 0 1 0 0.8398781 1 0.8278041 1 0.8278041 1 0.8398781 1 0.8278041 1 0.8278041 1 0.9002483 0 0.9123224 0 0.9123224 0 0.8398781 1 0.8278041 1 0.8278041 1 0.9002483 0 0.9123224 0 0.9123224 0 0.9123224 1 1 1 1 0.5 0.4139021 0.5 0.4139021 1 0.8278041 1 0.9002483 0.5 0.9002483 1 0.9123224 1 0.8278041 0.5 0.8278041 1 0.8398781 1 0.8398781 0.5 0.8398781 1 0.8519521 1 0.8519521 0.5 0.8519521 1 0.8640262 1 0.8640262 0.5 0.8640262 1 0.8761003 1 0.8761003 0.5 0.8761003 1 0.8881742 1 0.8881743 0.5 0.8881742 1 0.9002483 1 1 0.5 1 1 0.9123224 1 0.8278041 0.5 0.8278041 1 0.4139021 1 0.9002483 0.5 0.9123224 0.5 0.9123224 1 0.8278041 0.5 0.8398781 0.5 0.8398781 1 0.8398781 0.5 0.8519521 0.5 0.8519521 1 0.8519521 0.5 0.8640262 0.5 0.8640262 1 0.8640262 0.5 0.8761003 0.5 0.8761003 1 0.8761003 0.5 0.8881743 0.5 0.8881742 1 0.8881743 0.5 0.9002483 0.5 0.9002483 1 0.4139021 0.5 0.4139021 1 0.8278041 1 0.9123224 1 1 1 1 0 0.8278041 0.5 0.8278041 1 0.8398781 1 0.8881743 0 0.8881742 0.7887658 0.9002483 0.9281802 0.9002483 0 0.9002483 0.9281802 0.9123224 1 0.8640262 0 0.8640262 0.5681171 0.8761003 0.6588672 0.8761003 0 0.8761003 0.6588672 0.8881742 0.7887658 1 0.5 1 1 0.9123224 1 0.8278041 0.5 0.8278041 1 0.4139021 1 0.9002483 0.5 0.9123224 0.5 0.9123224 1 0.8278041 0.5 0.8398781 0.5 0.8398781 1 0.8398781 0.5 0.8519521 0.5 0.8519521 1 0.8519521 0.5 0.8640262 0.5 0.8640262 1 0.8640262 0.5 0.8761003 0.5 0.8761003 1 0.8761003 0.5 0.8881743 0.5 0.8881742 1 0.8881743 0.5 0.9002483 0.5 0.9002483 1 0.9123224 1 1 1 1 0.5 0.4139021 0.5 0.4139021 1 0.8278041 1 0.9002483 0.5 0.9002483 1 0.9123224 1 0.8278041 0.5 0.8278041 1 0.8398781 1 0.8398781 0.5 0.8398781 1 0.8519521 1 0.8519521 0.5 0.8519521 1 0.8640262 1 0.8640262 0.5 0.8640262 1 0.8761003 1 0.8761003 0.5 0.8761003 1 0.8881742 1 0.8881743 0.5 0.8881742 1 0.9002483 1 0.64973 0.5 0.8278041 0.5 0.8278041 1 0.8278041 0.5 0.8398781 0.5 0.8398781 1 0.4139021 0.5 0.64973 0.5 0.64973 1 0.4139021 0 0.64973 0 0.64973 0.5 0 0 0 0 0 0 0.64973 0 0 0 0 0 0.8881743 0 0.8881743 0.5 0.9002483 0.5 0.8761003 0 0.8761003 0.5 0.8881743 0.5 0.8640262 0 0.8640262 0.5 0.8761003 0.5 0.8519521 0 0.8519521 0.5 0.8640262 0.5 0.8398782 0 0.8398781 0.5 0.8519521 0.5 0.8278041 0 0.8278041 0.5 0.8398781 0.5 0.9002483 0 0.9002483 0.5 0.9123224 0.5 0.4139021 0.5 0.8278041 0.5 0.8278041 0 0.9123224 0.5 1 0.5 1 0 0.8881743 0 0.9002483 0 0.9002483 0.5 0.8761003 0 0.8881743 0 0.8881743 0.5 0.8640262 0 0.8761003 0 0.8761003 0.5 0.8519521 0 0.8640262 0 0.8640262 0.5 0.8398782 0 0.8519521 0 0.8519521 0.5 0.8278041 0 0.8398782 0 0.8398781 0.5 0.9002483 0 0.9123224 0 0.9123224 0.5 0.8278041 0 0.8278041 0.5 0.4139021 0.5 1 0 1 0.5 0.9123224 0.5 0.8640262 1 0.8519521 1 0.8519522 0.5330296 0.8519521 1 0.8398781 1 0.8398781 0.5 0.8519521 0 0.8519521 0.5194689 0.8640262 0.5681171 0.8278041 0 0.8278041 0.5 0.8398781 0.5 0.8881742 1 0.8761003 1 0.8761003 0.7055587 0.4139021 0.5 0.8278041 0.5 0.8278041 0 0.8761003 1 0.8640262 1 0.8640262 0.6002101 0.8881743 0 0.9002483 0 0.9002483 0.5 0.8761003 0 0.8881743 0 0.8881743 0.5 0.8640262 0 0.8761003 0 0.8761003 0.5 0.8519521 0 0.8640262 0 0.8640262 0.5 0.8398782 0 0.8519521 0 0.8519521 0.5 0.8278041 0 0.8398782 0 0.8398781 0.5 0.9002483 0 0.9123224 0 0.9123224 0.5 0.8278041 0 0.8278041 0.5 0.4139021 0.5 1 0 1 0.5 0.9123224 0.5 0.8881743 0 0.8881743 0.5 0.9002483 0.5 0.8761003 0 0.8761003 0.5 0.8881743 0.5 0.8640262 0 0.8640262 0.5 0.8761003 0.5 0.8519521 0 0.8519521 0.5 0.8640262 0.5 0.8398782 0 0.8398781 0.5 0.8519521 0.5 0.8278041 0 0.8278041 0.5 0.8398781 0.5 0.9002483 0 0.9002483 0.5 0.9123224 0.5 0.4139021 0.5 0.8278041 0.5 0.8278041 0 0.9123224 0.5 1 0.5 1 0 0.8519521 0.5194689 0.8519521 1 0.8640262 1 0.8640262 0.5681171 0.8640262 1 0.8761003 1 0.8761003 0.6588672 0.8761003 1 0.8881742 1 0.8398781 0.5 0.8398781 1 0.8519521 1 0.8881742 0.7887658 0.8881742 1 0.9002483 1 0.8398782 0 0.8398781 0.5 0.8519521 0.5194689 1 1 1 1 1 0 1 1 1 1 1 0 1 1 1 1 1 0 1 1 1 1 1 0 1 1 1 1 1 0 1 0.5 1 1 0.9123224 1 0.4139021 0.5 0.8278041 0.5 0.8278041 1 0.9002483 0.5 0.9123224 0.5 0.9123224 1 0.8278041 0.5 0.8398781 0.5 0.8398781 1 0.8398781 0.5 0.8519521 0.5 0.8519521 1 0.8519521 0.5 0.8640262 0.5 0.8640262 1 0.8640262 0.5 0.8761003 0.5 0.8761003 1 0.8761003 0.5 0.8881743 0.5 0.8881742 1 0.8881743 0.5 0.9002483 0.5 0.9002483 1 0.9123224 1 1 1 1 0.5 0.4139021 1 0.8278041 1 0.8278041 0.5 0.9002483 0.5 0.9002483 1 0.9123224 1 0.8278041 0.5 0.8278041 1 0.8398781 1 0.8398781 0.5 0.8398781 1 0.8519521 1 0.8519521 0.5 0.8519521 1 0.8640262 1 0.8640262 0.5 0.8640262 1 0.8761003 1 0.8761003 0.5 0.8761003 1 0.8881742 1 0.8881743 0.5 0.8881742 1 0.9002483 1 0.4139021 0.5 0.8278041 0.5 0.8278041 1 1 0 1 1 0.9123224 1 0.8278041 0.5 0.8398781 0.5 0.8398781 1 0.8881743 0 0.9002483 0 0.9002483 0.9281802 0.9002483 0 0.9123224 0 0.9123224 1 0.8640262 0 0.8761003 0 0.8761003 0.6588672 0.8761003 0 0.8881743 0 0.8881742 0.7887658 0.9123224 1 1 1 1 0.5 0.4139021 1 0.8278041 1 0.8278041 0.5 0.9002483 0.5 0.9002483 1 0.9123224 1 0.8278041 0.5 0.8278041 1 0.8398781 1 0.8398781 0.5 0.8398781 1 0.8519521 1 0.8519521 0.5 0.8519521 1 0.8640262 1 0.8640262 0.5 0.8640262 1 0.8761003 1 0.8761003 0.5 0.8761003 1 0.8881742 1 0.8881743 0.5 0.8881742 1 0.9002483 1 1 0.5 1 1 0.9123224 1 0.4139021 0.5 0.8278041 0.5 0.8278041 1 0.9002483 0.5 0.9123224 0.5 0.9123224 1 0.8278041 0.5 0.8398781 0.5 0.8398781 1 0.8398781 0.5 0.8519521 0.5 0.8519521 1 0.8519521 0.5 0.8640262 0.5 0.8640262 1 0.8640262 0.5 0.8761003 0.5 0.8761003 1 0.8761003 0.5 0.8881743 0.5 0.8881742 1 0.8881743 0.5 0.9002483 0.5 0.9002483 1 0.64973 0.5 0.64973 1 0.8278041 1 0.8278041 0.5 0.8278041 1 0.8398781 1 0.4139021 0.5 0.4139021 1 0.64973 1 0.4139021 0 0.4139021 0.5 0.64973 0.5 0 0 0 0 0 0 0.64973 0 0.64973 0.5 0 0 0.8881743 0 0.9002483 0 0.9002483 0.5 0.8761003 0 0.8881743 0 0.8881743 0.5 0.8640262 0 0.8761003 0 0.8761003 0.5 0.8519521 0 0.8640262 0 0.8640262 0.5 0.8398782 0 0.8519521 0 0.8519521 0.5 0.8278041 0 0.8398782 0 0.8398781 0.5 0.9002483 0 0.9123224 0 0.9123224 0.5 0.8278041 0 0.8278041 0.5 0.4139021 0.5 1 0 1 0.5 0.9123224 0.5 0.8881743 0 0.8881743 0.5 0.9002483 0.5 0.8761003 0 0.8761003 0.5 0.8881743 0.5 0.8640262 0 0.8640262 0.5 0.8761003 0.5 0.8519521 0 0.8519521 0.5 0.8640262 0.5 0.8398782 0 0.8398781 0.5 0.8519521 0.5 0.8278041 0 0.8278041 0.5 0.8398781 0.5 0.9002483 0 0.9002483 0.5 0.9123224 0.5 0.4139021 0.5 0.8278041 0.5 0.8278041 0 0.9123224 0.5 1 0.5 1 0 0.8519522 0.5330296 0.8519521 1 0.8640262 1 0.8398781 0.5 0.8398781 1 0.8519521 1 0.8640262 0.5681171 0.8519521 0.5194689 0.8519521 0 0.8278041 0 0.8398782 0 0.8398781 0.5 0.8761003 0.7055587 0.8761003 1 0.8881742 1 0.8278041 0 0.8278041 0.5 0.4139021 0.5 0.8640262 0.6002101 0.8640262 1 0.8761003 1 0.8881743 0 0.8881743 0.5 0.9002483 0.5 0.8761003 0 0.8761003 0.5 0.8881743 0.5 0.8640262 0 0.8640262 0.5 0.8761003 0.5 0.8519521 0 0.8519521 0.5 0.8640262 0.5 0.8398782 0 0.8398781 0.5 0.8519521 0.5 0.8278041 0 0.8278041 0.5 0.8398781 0.5 0.9002483 0 0.9002483 0.5 0.9123224 0.5 0.4139021 0.5 0.8278041 0.5 0.8278041 0 0.9123224 0.5 1 0.5 1 0 0.8881743 0 0.9002483 0 0.9002483 0.5 0.8761003 0 0.8881743 0 0.8881743 0.5 0.8640262 0 0.8761003 0 0.8761003 0.5 0.8519521 0 0.8640262 0 0.8640262 0.5 0.8398782 0 0.8519521 0 0.8519521 0.5 0.8278041 0 0.8398782 0 0.8398781 0.5 0.9002483 0 0.9123224 0 0.9123224 0.5 0.8278041 0 0.8278041 0.5 0.4139021 0.5 1 0 1 0.5 0.9123224 0.5 0.8519521 0.5194689 0.8640262 0.5681171 0.8640262 1 0.8640262 0.5681171 0.8761003 0.6588672 0.8761003 1 0.8761003 0.6588672 0.8881742 0.7887658 0.8881742 1 0.8519521 1 0.8398781 1 0.8398781 0.5 0.8881742 0.7887658 0.9002483 0.9281802 0.9002483 1 0.8519521 0.5194689 0.8398781 0.5 0.8398782 0 1 1 1 0 1 0 1 1 1 0 1 0 1 1 1 0 1 0 1 1 1 0 1 0 1 1 1 0 1 0 1 1 1 1 0.9123224 1 0.9002483 1 0.9002483 1 0.8881742 1 0.9123224 1 0.9123224 1 0.9002483 1 0.8881742 1 0.8881742 1 0.8761003 1 0.9123224 1 0.9123224 1 0.9002483 1 0.9002483 1 0.9002483 1 0.8881742 1 0.8761003 1 0.8761003 1 0.8640262 1 0.9002483 1 0.9002483 1 0.8881742 1 0.8881742 1 0.8881742 1 0.8761003 1 0.8640262 1 0.8640262 1 0.8519521 1 0.8881742 1 0.8881742 1 0.8761003 1 0.8761003 1 0.8761003 1 0.8640262 1 0.8519521 1 0.8519521 1 0.8398781 1 0.8761003 1 0.8761003 1 0.8640262 1 0.8640262 1 0.8640262 1 0.8519521 1 0.64973 0 0.64973 0 0 0 0.8640262 1 0.8640262 1 0.8519521 1 0.8519521 1 0.8519521 1 0.8398781 1 0.8519521 1 0.8519521 1 0.8398781 1 0 0 0 0 0 0 0.8278041 0 0.8278041 0 0.8398782 0 0.8278041 0 0.8278041 0 0.8398782 0 0 0 0 0 0 0 0.8398782 0 0.8398782 0 0.8519521 0 0.8398782 0 0.8398782 0 0.8519521 0 0.8519521 0 0.8519521 0 0.8640262 0 0.8519521 0 0.8519521 0 0.8640262 0 0.8640262 0 0.8640262 0 0.8761003 0 0.8640262 0 0.8640262 0 0.8761003 0 0.4139021 0 0.4139021 0 0.64973 0 0.8761003 0 0.8761003 0 0.8881743 0 0.8278041 1 0.8278041 1 0.64973 1 0.8761003 0 0.8761003 0 0.8881743 0 0.8881743 0 0.8881743 0 0.9002483 0 0.64973 1 0.64973 1 0.4139021 1 0.8881743 0 0.8881743 0 0.9002483 0 0.8278041 0.5 0.8278041 0.5 0.8398781 0.5 0 0 0 0 0 0 0.64973 0.5 0.64973 0.5 0.8278041 0.5 0.4139021 1 0.4139021 1 0.8278041 1 0 0 0 0 0.64973 0.5 1 1 1 1 1 0 1 1 1 1 0.9123224 1 1 0 1 0 1 0 1 0 1 0 0.9123224 0 1 1 1 1 1 1 0.8278041 0 0.8278041 0 0.4139021 0 0.8278041 1 0.8278041 1 0.4139021 1 1 0 1 0 1 0 0.8278041 1 0.8278041 1 0.4139021 1 1 0 1 0 0.9123224 0 1 0 1 0 1 0 0.9123224 0 0.9123224 0 1 0 0.4139021 0 0.4139021 0 0.8278041 0 0.4139021 0 0.4139021 0 0.8278041 0 1 0 1 0 1 0 0.8278041 0 0.8278041 0 0.4139021 0 0.4139021 1 0.4139021 1 0.8278041 1 0.4139021 1 0.4139021 1 0.8278041 1 1 1 1 1 1 1 0.8278041 1 0.8278041 1 0.8398781 1 1 1 1 1 1 1 1 0 1 0 0.9123224 0 0.8278041 1 0.8278041 1 0.8398781 1 1 1 1 1 1 1 0.9123224 0 0.9123224 0 0.9002483 0 0.9123224 1 0.9123224 1 1 1 0.8278041 0 0.8278041 0 0.4139021 0 0.9123224 0 0.9123224 0 0.9002483 0 0.8278041 1 0.8278041 1 0.8398781 1 0.9123224 1 0.9123224 1 1 1 0.9002483 1 0.9002483 1 0.9123224 1 1 1 1 1 1 1 0.8881742 1 0.8881742 1 0.9002483 1 0.9123224 0 0.9123224 0 0.9002483 0 0.9002483 1 0.9002483 1 0.9123224 1 1 0 1 0 1 0 0.8761003 1 0.8761003 1 0.8881742 1 0.9123224 1 0.9123224 1 1 1 0.8881742 1 0.8881742 1 0.9002483 1 0.8640262 1 0.8640262 1 0.8761003 1 0.8761003 1 0.8761003 1 0.8881742 1 0.8519521 1 0.8519521 1 0.8640262 1 0.9002483 1 0.9002483 1 0.9123224 1 0.8640262 1 0.8640262 1 0.8761003 1 0.8398781 1 0.8398781 1 0.8519521 1 0.8881742 1 0.8881742 1 0.9002483 1 0.8519522 0.5330296 0.8519522 0.5330296 0.8640262 0.6002101 0.8519521 1 0.8519521 1 0.8640262 1 0.8398782 0 0.8398782 0 0.8278041 0 0.8761003 1 0.8761003 1 0.8881742 1 0.8398781 1 0.8398781 1 0.8519521 1 0.8519521 0 0.8519521 0 0.8398782 0 0.8640262 1 0.8640262 1 0.8761003 1 0.8881743 0.8485182 0.8881743 0.8485182 0.9002483 1 0.8398782 0 0.8398782 0 0.8278041 0 0.8640262 0 0.8640262 0 0.8519521 0 0.8519521 1 0.8519521 1 0.8640262 1 0.8519521 0 0.8519521 0 0.8398782 0 0.8398781 0.5 0.8398781 0.5 0.8519522 0.5330296 0.8761003 0 0.8761003 0 0.8640262 0 0.8398781 1 0.8398781 1 0.8519521 1 0.8640262 0 0.8640262 0 0.8519521 0 0.8761003 0.7055587 0.8761003 0.7055587 0.8881743 0.8485182 0.8881743 0 0.8881743 0 0.8761003 0 0.8398782 0 0.8398782 0 0.8278041 0 0.8761003 0 0.8761003 0 0.8640262 0 0.8640262 0.6002101 0.8640262 0.6002101 0.8761003 0.7055587 0.9002483 0 0.9002483 0 0.8881743 0 0.8519521 0 0.8519521 0 0.8398782 0 0.8881743 0 0.8881743 0 0.8761003 0 0.8640262 0 0.8640262 0 0.8519521 0 0.9002483 0 0.9002483 0 0.8881743 0 0.8761003 0 0.8761003 0 0.8640262 0 0.8881743 0 0.8881743 0 0.8761003 0 0.9002483 0 0.9002483 0 0.8881743 0 0.9123224 0 0.9123224 0 1 0 0.8398781 1 0.8398781 1 0.8278041 1 0.8398781 1 0.8398781 1 0.8278041 1 0.9002483 0 0.9002483 0 0.9123224 0 0.8398781 1 0.8398781 1 0.8278041 1 0.9002483 0 0.9002483 0 0.9123224 0</float_array>
          <technique_common>
            <accessor source="#Plane_018-mesh-map-0-array" count="1980" stride="2">
              <param name="S" type="float"/>
              <param name="T" type="float"/>
            </accessor>
          </technique_common>
        </source>
        <vertices id="Plane_018-mesh-vertices">
          <input semantic="POSITION" source="#Plane_018-mesh-positions"/>
        </vertices>
        <triangles material="gora_dol-material" count="416">
          <input semantic="VERTEX" source="#Plane_018-mesh-vertices" offset="0"/>
          <input semantic="NORMAL" source="#Plane_018-mesh-normals" offset="1"/>
          <input semantic="TEXCOORD" source="#Plane_018-mesh-map-0" offset="2" set="0"/>
          <p>6 0 0 124 0 1 0 0 2 118 0 3 4 0 4 2 0 5 108 0 6 6 0 7 0 0 8 2 0 9 12 0 10 103 0 11 103 0 12 11 0 13 104 0 14 104 0 15 10 0 16 105 0 17 105 0 18 9 0 19 106 0 20 106 0 21 8 0 22 107 0 23 107 0 24 7 0 25 108 0 26 148 0 27 24 0 28 111 0 29 110 0 30 37 0 31 118 0 32 117 0 33 24 0 34 25 0 35 110 0 36 30 0 37 22 0 38 112 0 39 29 0 40 30 0 41 113 0 42 28 0 43 29 0 44 114 0 45 27 0 46 28 0 47 115 0 48 26 0 49 27 0 50 116 0 51 25 0 52 26 0 53 133 0 54 42 0 55 119 0 56 44 0 57 19 0 58 43 0 59 119 0 60 50 0 61 121 0 62 55 0 63 153 0 64 56 0 65 56 0 66 44 0 67 43 0 68 53 0 69 151 0 70 54 0 71 54 0 72 150 0 73 55 0 74 124 0 75 61 0 76 126 0 77 125 0 78 74 0 79 133 0 80 132 0 81 61 0 82 62 0 83 125 0 84 67 0 85 59 0 86 127 0 87 66 0 88 67 0 89 128 0 90 65 0 91 66 0 92 129 0 93 64 0 94 65 0 95 130 0 96 63 0 97 64 0 98 131 0 99 62 0 100 63 0 101 79 0 102 148 0 103 135 0 104 147 0 105 77 0 106 134 0 107 141 0 108 79 0 109 135 0 110 134 0 111 85 0 112 136 0 113 136 0 114 84 0 115 137 0 116 137 0 117 83 0 118 138 0 119 138 0 120 82 0 121 139 0 122 139 0 123 81 0 124 140 0 125 140 0 126 80 0 127 141 0 128 144 0 129 94 0 130 146 0 131 142 0 132 100 0 133 94 0 134 147 0 135 146 0 136 102 0 137 92 0 138 144 0 139 147 0 140 93 0 141 155 0 142 101 0 143 145 0 144 154 0 145 144 0 146 90 0 147 141 0 148 91 0 149 89 0 150 140 0 151 90 0 152 88 0 153 139 0 154 89 0 155 87 0 156 138 0 157 88 0 158 86 0 159 137 0 160 87 0 161 76 0 162 136 0 163 86 0 164 91 0 165 135 0 166 78 0 167 147 0 168 76 0 169 92 0 170 135 0 171 1 0 172 78 0 173 72 0 174 132 0 175 131 0 176 71 0 177 131 0 178 130 0 179 70 0 180 130 0 181 129 0 182 69 0 183 129 0 184 128 0 185 68 0 186 128 0 187 127 0 188 58 0 189 127 0 190 125 0 191 73 0 192 126 0 193 132 0 194 58 0 195 133 0 196 57 0 197 39 0 198 126 0 199 60 0 200 98 0 201 123 0 202 109 0 203 95 0 204 96 0 205 122 0 206 99 0 207 143 0 208 123 0 209 52 0 210 152 0 211 53 0 212 41 0 213 121 0 214 51 0 215 96 0 216 120 0 217 122 0 218 133 0 219 41 0 220 57 0 221 97 0 222 109 0 223 120 0 224 35 0 225 117 0 226 116 0 227 34 0 228 116 0 229 115 0 230 33 0 231 115 0 232 114 0 233 32 0 234 114 0 235 113 0 236 31 0 237 113 0 238 112 0 239 21 0 240 112 0 241 110 0 242 36 0 243 111 0 244 117 0 245 21 0 246 118 0 247 20 0 248 1 0 249 111 0 250 23 0 251 17 0 252 108 0 253 18 0 254 16 0 255 107 0 256 17 0 257 15 0 258 106 0 259 16 0 260 14 0 261 105 0 262 15 0 263 13 0 264 104 0 265 14 0 266 3 0 267 103 0 268 13 0 269 18 0 270 0 0 271 5 0 272 118 0 273 3 0 274 20 0 275 0 0 276 39 0 277 5 0 278 149 0 279 48 0 280 152 0 281 153 0 282 45 0 283 44 0 284 152 0 285 47 0 286 151 0 287 151 0 288 46 0 289 150 0 290 121 0 291 49 0 292 149 0 293 150 0 294 45 0 295 153 0 296 51 0 297 149 0 298 52 0 299 161 0 300 156 0 301 160 0 302 164 0 303 158 0 304 165 0 305 163 0 306 159 0 307 158 0 308 162 0 309 160 0 310 159 0 311 40 0 312 165 0 313 19 0 314 290 1 315 172 1 316 166 1 317 284 2 318 170 2 319 203 2 320 274 1 321 172 1 322 173 1 323 168 3 324 178 3 325 170 3 326 269 4 327 177 4 328 178 4 329 270 5 330 176 5 331 177 5 332 271 6 333 175 6 334 176 6 335 272 7 336 174 7 337 175 7 338 273 1 339 173 1 340 174 1 341 190 1 342 314 1 343 277 1 344 203 1 345 276 1 346 284 1 347 283 8 348 190 8 349 277 8 350 276 1 351 196 1 352 278 1 353 278 1 354 195 1 355 279 1 356 279 1 357 194 1 358 280 1 359 280 1 360 193 1 361 281 1 362 281 1 363 192 1 364 282 1 365 282 1 366 191 1 367 283 1 368 299 9 369 208 9 370 240 9 371 185 1 372 210 1 373 209 1 374 285 3 375 216 3 376 208 3 377 221 10 378 319 10 379 316 10 380 222 11 381 210 11 382 319 11 383 219 12 384 317 12 385 318 12 386 220 1 387 316 1 388 317 1 389 227 1 390 290 1 391 292 1 392 240 1 393 291 1 394 299 1 395 298 13 396 227 13 397 292 13 398 291 1 399 233 1 400 293 1 401 293 1 402 232 1 403 294 1 404 294 1 405 231 1 406 295 1 407 295 1 408 230 1 409 296 1 410 296 1 411 229 1 412 297 1 413 297 1 414 228 1 415 298 1 416 314 1 417 245 1 418 301 1 419 313 14 420 243 14 421 268 14 422 307 1 423 245 1 424 246 1 425 300 3 426 251 3 427 243 3 428 302 4 429 250 4 430 251 4 431 303 15 432 249 15 433 250 15 434 304 16 435 248 16 436 249 16 437 305 17 438 247 17 439 248 17 440 306 1 441 246 1 442 247 1 443 310 1 444 260 1 445 308 1 446 308 1 447 266 1 448 309 1 449 313 1 450 312 1 451 310 1 452 258 1 453 310 1 454 311 1 455 259 1 456 321 1 457 320 1 458 311 1 459 320 1 460 321 1 461 256 18 462 307 18 463 306 18 464 255 19 465 306 19 466 305 19 467 254 20 468 305 20 469 304 20 470 253 21 471 304 21 472 303 21 473 252 22 474 303 22 475 302 22 476 242 23 477 302 23 478 300 23 479 257 24 480 301 24 481 307 24 482 242 1 483 313 1 484 258 1 485 167 1 486 301 1 487 244 1 488 238 1 489 298 1 490 239 1 491 237 1 492 297 1 493 238 1 494 236 1 495 296 1 496 237 1 497 235 1 498 295 1 499 236 1 500 234 1 501 294 1 502 235 1 503 224 1 504 293 1 505 234 1 506 239 1 507 292 1 508 226 1 509 299 1 510 224 1 511 223 1 512 292 1 513 205 1 514 226 1 515 289 1 516 264 1 517 275 1 518 261 1 519 288 1 520 262 1 521 309 1 522 265 1 523 289 1 524 318 1 525 218 1 526 219 1 527 207 23 528 287 23 529 285 23 530 286 1 531 262 1 532 288 1 533 207 1 534 299 1 535 223 1 536 275 1 537 263 1 538 286 1 539 201 1 540 283 1 541 202 1 542 200 1 543 282 1 544 201 1 545 199 1 546 281 1 547 200 1 548 198 1 549 280 1 550 199 1 551 197 1 552 279 1 553 198 1 554 187 1 555 278 1 556 197 1 557 202 1 558 277 1 559 189 1 560 284 1 561 187 1 562 186 1 563 277 1 564 167 1 565 189 1 566 183 18 567 274 18 568 273 18 569 182 25 570 273 25 571 272 25 572 181 26 573 272 26 574 271 26 575 180 27 576 271 27 577 270 27 578 179 22 579 270 22 580 269 22 581 169 23 582 269 23 583 168 23 584 184 28 585 166 28 586 274 28 587 169 1 588 284 1 589 186 1 590 205 1 591 166 1 592 171 1 593 315 29 594 214 29 595 215 29 596 319 30 597 210 30 598 211 30 599 318 31 600 213 31 601 214 31 602 317 32 603 212 32 604 213 32 605 215 33 606 287 33 607 315 33 608 316 34 609 211 34 610 212 34 611 315 1 612 217 1 613 218 1 614 327 1 615 322 1 616 323 1 617 330 1 618 324 1 619 329 1 620 329 1 621 325 1 622 328 1 623 328 1 624 326 1 625 327 1 626 206 1 627 331 1 628 330 1 629 6 0 996 38 0 997 124 0 998 118 0 999 37 0 1000 4 0 1001 108 0 1002 7 0 1003 6 0 1004 2 0 1005 4 0 1006 12 0 1007 103 0 1008 12 0 1009 11 0 1010 104 0 1011 11 0 1012 10 0 1013 105 0 1014 10 0 1015 9 0 1016 106 0 1017 9 0 1018 8 0 1019 107 0 1020 8 0 1021 7 0 1022 148 0 1023 75 0 1024 24 0 1025 110 0 1026 22 0 1027 37 0 1028 117 0 1029 111 0 1030 24 0 1031 110 0 1032 112 0 1033 30 0 1034 112 0 1035 113 0 1036 29 0 1037 113 0 1038 114 0 1039 28 0 1040 114 0 1041 115 0 1042 27 0 1043 115 0 1044 116 0 1045 26 0 1046 116 0 1047 117 0 1048 25 0 1049 133 0 1050 74 0 1051 42 0 1052 44 0 1053 40 0 1054 19 0 1055 119 0 1056 42 0 1057 50 0 1058 55 0 1059 150 0 1060 153 0 1061 56 0 1062 153 0 1063 44 0 1064 53 0 1065 152 0 1066 151 0 1067 54 0 1068 151 0 1069 150 0 1070 124 0 1071 38 0 1072 61 0 1073 125 0 1074 59 0 1075 74 0 1076 132 0 1077 126 0 1078 61 0 1079 125 0 1080 127 0 1081 67 0 1082 127 0 1083 128 0 1084 66 0 1085 128 0 1086 129 0 1087 65 0 1088 129 0 1089 130 0 1090 64 0 1091 130 0 1092 131 0 1093 63 0 1094 131 0 1095 132 0 1096 62 0 1097 79 0 1098 75 0 1099 148 0 1100 147 0 1101 102 0 1102 77 0 1103 141 0 1104 80 0 1105 79 0 1106 134 0 1107 77 0 1108 85 0 1109 136 0 1110 85 0 1111 84 0 1112 137 0 1113 84 0 1114 83 0 1115 138 0 1116 83 0 1117 82 0 1118 139 0 1119 82 0 1120 81 0 1121 140 0 1122 81 0 1123 80 0 1124 144 0 1125 142 0 1126 94 0 1127 142 0 1128 143 0 1129 100 0 1130 147 0 1131 144 0 1132 146 0 1133 92 0 1134 145 0 1135 144 0 1136 93 0 1137 154 0 1138 155 0 1139 145 0 1140 155 0 1141 154 0 1142 90 0 1143 140 0 1144 141 0 1145 89 0 1146 139 0 1147 140 0 1148 88 0 1149 138 0 1150 139 0 1151 87 0 1152 137 0 1153 138 0 1154 86 0 1155 136 0 1156 137 0 1157 76 0 1158 134 0 1159 136 0 1160 91 0 1161 141 0 1162 135 0 1163 147 0 1164 134 0 1165 76 0 1166 135 0 1167 148 0 1168 1 0 1169 72 0 1170 73 0 1171 132 0 1172 71 0 1173 72 0 1174 131 0 1175 70 0 1176 71 0 1177 130 0 1178 69 0 1179 70 0 1180 129 0 1181 68 0 1182 69 0 1183 128 0 1184 58 0 1185 68 0 1186 127 0 1187 73 0 1188 60 0 1189 126 0 1190 58 0 1191 125 0 1192 133 0 1193 39 0 1194 124 0 1195 126 0 1196 98 0 1197 99 0 1198 123 0 1199 99 0 1200 100 0 1201 143 0 1202 52 0 1203 149 0 1204 152 0 1205 41 0 1206 119 0 1207 121 0 1208 96 0 1209 97 0 1210 120 0 1211 133 0 1212 119 0 1213 41 0 1214 97 0 1215 98 0 1216 109 0 1217 35 0 1218 36 0 1219 117 0 1220 34 0 1221 35 0 1222 116 0 1223 33 0 1224 34 0 1225 115 0 1226 32 0 1227 33 0 1228 114 0 1229 31 0 1230 32 0 1231 113 0 1232 21 0 1233 31 0 1234 112 0 1235 36 0 1236 23 0 1237 111 0 1238 21 0 1239 110 0 1240 118 0 1241 1 0 1242 148 0 1243 111 0 1244 17 0 1245 107 0 1246 108 0 1247 16 0 1248 106 0 1249 107 0 1250 15 0 1251 105 0 1252 106 0 1253 14 0 1254 104 0 1255 105 0 1256 13 0 1257 103 0 1258 104 0 1259 3 0 1260 2 0 1261 103 0 1262 18 0 1263 108 0 1264 0 0 1265 118 0 1266 2 0 1267 3 0 1268 0 0 1269 124 0 1270 39 0 1271 149 0 1272 49 0 1273 48 0 1274 152 0 1275 48 0 1276 47 0 1277 151 0 1278 47 0 1279 46 0 1280 121 0 1281 50 0 1282 49 0 1283 150 0 1284 46 0 1285 45 0 1286 51 0 1287 121 0 1288 149 0 1289 161 0 1290 157 0 1291 156 0 1292 164 0 1293 163 0 1294 158 0 1295 163 0 1296 162 0 1297 159 0 1298 162 0 1299 161 0 1300 160 0 1301 40 0 1302 164 0 1303 165 0 1304 290 1 1305 204 1 1306 172 1 1307 284 1 1308 168 1 1309 170 1 1310 274 85 1311 166 85 1312 172 85 1313 168 1 1314 269 1 1315 178 1 1316 269 1 1317 270 1 1318 177 1 1319 270 1 1320 271 1 1321 176 1 1322 271 1 1323 272 1 1324 175 1 1325 272 1 1326 273 1 1327 174 1 1328 273 1 1329 274 1 1330 173 1 1331 190 1 1332 241 1 1333 314 1 1334 203 1 1335 188 1 1336 276 1 1337 283 1 1338 191 1 1339 190 1 1340 276 86 1341 188 86 1342 196 86 1343 278 87 1344 196 87 1345 195 87 1346 279 88 1347 195 88 1348 194 88 1349 280 89 1350 194 89 1351 193 89 1352 281 90 1353 193 90 1354 192 90 1355 282 1 1356 192 1 1357 191 1 1358 299 1 1359 285 1 1360 208 1 1361 185 1 1362 206 1 1363 210 1 1364 285 1 1365 287 1 1366 216 1 1367 221 1 1368 222 1 1369 319 1 1370 222 1 1371 209 1 1372 210 1 1373 219 1 1374 220 1 1375 317 1 1376 220 1 1377 221 1 1378 316 1 1379 227 1 1380 204 1 1381 290 1 1382 240 1 1383 225 1 1384 291 1 1385 298 1 1386 228 1 1387 227 1 1388 291 91 1389 225 91 1390 233 91 1391 293 92 1392 233 92 1393 232 92 1394 294 93 1395 232 93 1396 231 93 1397 295 94 1398 231 94 1399 230 94 1400 296 95 1401 230 95 1402 229 95 1403 297 1 1404 229 1 1405 228 1 1406 314 1 1407 241 1 1408 245 1 1409 313 1 1410 300 1 1411 243 1 1412 307 96 1413 301 96 1414 245 96 1415 300 1 1416 302 1 1417 251 1 1418 302 1 1419 303 1 1420 250 1 1421 303 1 1422 304 1 1423 249 1 1424 304 1 1425 305 1 1426 248 1 1427 305 1 1428 306 1 1429 247 1 1430 306 1 1431 307 1 1432 246 1 1433 310 1 1434 312 1 1435 260 1 1436 308 97 1437 260 97 1438 266 97 1439 313 1 1440 268 1 1441 312 1 1442 258 98 1443 313 98 1444 310 98 1445 259 1 1446 267 1 1447 321 1 1448 311 1 1449 310 1 1450 320 1 1451 256 1 1452 257 1 1453 307 1 1454 255 1 1455 256 1 1456 306 1 1457 254 1 1458 255 1 1459 305 1 1460 253 1 1461 254 1 1462 304 1 1463 252 1 1464 253 1 1465 303 1 1466 242 1 1467 252 1 1468 302 1 1469 257 1 1470 244 1 1471 301 1 1472 242 1 1473 300 1 1474 313 1 1475 167 1 1476 314 1 1477 301 1 1478 238 99 1479 297 99 1480 298 99 1481 237 100 1482 296 100 1483 297 100 1484 236 101 1485 295 101 1486 296 101 1487 235 102 1488 294 102 1489 295 102 1490 234 103 1491 293 103 1492 294 103 1493 224 104 1494 291 104 1495 293 104 1496 239 105 1497 298 105 1498 292 105 1499 299 1 1500 291 1 1501 224 1 1502 292 1 1503 290 1 1504 205 1 1505 289 106 1506 265 106 1507 264 106 1508 309 1 1509 266 1 1510 265 1 1511 318 107 1512 315 107 1513 218 107 1514 207 1 1515 217 1 1516 287 1 1517 286 1 1518 263 1 1519 262 1 1520 207 1 1521 285 1 1522 299 1 1523 275 108 1524 264 108 1525 263 108 1526 201 109 1527 282 109 1528 283 109 1529 200 110 1530 281 110 1531 282 110 1532 199 111 1533 280 111 1534 281 111 1535 198 112 1536 279 112 1537 280 112 1538 197 113 1539 278 113 1540 279 113 1541 187 114 1542 276 114 1543 278 114 1544 202 115 1545 283 115 1546 277 115 1547 284 1 1548 276 1 1549 187 1 1550 277 1 1551 314 1 1552 167 1 1553 183 1 1554 184 1 1555 274 1 1556 182 1 1557 183 1 1558 273 1 1559 181 1 1560 182 1 1561 272 1 1562 180 1 1563 181 1 1564 271 1 1565 179 1 1566 180 1 1567 270 1 1568 169 1 1569 179 1 1570 269 1 1571 184 1 1572 171 1 1573 166 1 1574 169 1 1575 168 1 1576 284 1 1577 205 1 1578 290 1 1579 166 1 1580 315 1 1581 318 1 1582 214 1 1583 318 1 1584 317 1 1585 213 1 1586 317 1 1587 316 1 1588 212 1 1589 215 1 1590 216 1 1591 287 1 1592 316 1 1593 319 1 1594 211 1 1595 315 116 1596 287 116 1597 217 116 1598 327 1 1599 326 1 1600 322 1 1601 330 1 1602 331 1 1603 324 1 1604 329 117 1605 324 117 1606 325 117 1607 328 118 1608 325 118 1609 326 118 1610 206 1 1611 185 1 1612 331 1 1613</p>
        </triangles>
        <triangles material="tyl-material" count="128">
          <input semantic="VERTEX" source="#Plane_018-mesh-vertices" offset="0"/>
          <input semantic="NORMAL" source="#Plane_018-mesh-normals" offset="1"/>
          <input semantic="TEXCOORD" source="#Plane_018-mesh-map-0" offset="2" set="0"/>
          <p>145 48 675 321 48 676 155 48 677 101 52 687 259 52 688 93 52 689 21 48 690 197 48 691 31 48 692 58 48 693 234 48 694 68 48 695 155 48 696 267 48 697 101 48 698 31 48 699 198 48 700 32 48 701 68 48 702 235 48 703 69 48 704 32 48 705 199 48 706 33 48 707 69 48 708 236 48 709 70 48 710 33 48 711 200 48 712 34 48 713 70 48 714 237 48 715 71 48 716 92 48 717 311 48 718 145 48 719 34 48 720 201 48 721 35 48 722 71 48 726 238 48 727 72 48 728 35 48 729 202 48 730 36 48 731 72 48 735 239 48 736 73 48 737 142 48 738 309 48 739 143 48 740 93 53 741 320 53 742 154 53 743 144 48 744 308 48 745 142 48 746 154 55 750 310 55 751 144 55 752 157 56 753 322 56 754 156 56 755 156 57 759 326 57 760 160 57 761 1 48 762 244 48 763 78 48 764 41 48 768 223 48 769 57 48 770 158 58 774 331 58 775 165 58 776 19 48 780 209 48 781 43 48 782 159 59 783 324 59 784 158 59 785 23 48 786 167 48 787 1 48 788 57 48 789 224 48 790 58 48 791 20 48 792 187 48 793 21 48 794 160 60 795 325 60 796 159 60 797 3 48 798 186 48 799 20 48 800 39 48 816 171 48 817 5 48 818 5 48 825 184 48 826 18 48 827 76 48 831 258 48 832 92 48 833 43 48 834 222 48 835 56 48 836 78 48 852 257 48 853 91 48 854 165 67 858 185 67 859 19 67 860 123 48 891 275 48 892 109 48 893 13 48 897 169 48 898 3 48 899 14 48 906 179 48 907 13 48 908 122 48 912 261 48 913 95 48 914 51 48 915 207 48 916 41 48 917 15 48 918 180 48 919 14 48 920 52 48 924 217 48 925 51 48 926 143 48 927 289 48 928 123 48 929 16 48 930 181 48 931 15 48 932 53 48 936 218 48 937 52 48 938 120 48 939 288 48 940 122 48 941 17 48 942 182 48 943 16 48 944 86 48 945 242 48 946 76 48 947 54 48 948 219 48 949 53 48 950 109 48 951 286 48 952 120 48 953 18 48 954 183 48 955 17 48 956 87 48 957 252 48 958 86 48 959 55 48 960 220 48 961 54 48 962 88 48 963 253 48 964 87 48 965 56 48 966 221 48 967 55 48 968 89 48 969 254 48 970 88 48 971 90 48 972 255 48 973 89 48 974 91 48 975 256 48 976 90 48 977 60 48 978 205 48 979 39 48 980 36 48 987 189 48 988 23 48 989 73 48 993 226 48 994 60 48 995 145 48 1659 311 48 1660 321 48 1661 101 126 1671 267 126 1672 259 126 1673 21 48 1674 187 48 1675 197 48 1676 58 48 1677 224 48 1678 234 48 1679 155 48 1680 321 48 1681 267 48 1682 31 48 1683 197 48 1684 198 48 1685 68 48 1686 234 48 1687 235 48 1688 32 48 1689 198 48 1690 199 48 1691 69 48 1692 235 48 1693 236 48 1694 33 48 1695 199 48 1696 200 48 1697 70 48 1698 236 48 1699 237 48 1700 92 48 1701 258 48 1702 311 48 1703 34 48 1704 200 48 1705 201 48 1706 71 48 1710 237 48 1711 238 48 1712 35 48 1713 201 48 1714 202 48 1715 72 48 1719 238 48 1720 239 48 1721 142 48 1722 308 48 1723 309 48 1724 93 127 1725 259 127 1726 320 127 1727 144 48 1728 310 48 1729 308 48 1730 154 128 1734 320 128 1735 310 128 1736 157 56 1737 323 56 1738 322 56 1739 156 57 1743 322 57 1744 326 57 1745 1 48 1746 167 48 1747 244 48 1748 41 48 1752 207 48 1753 223 48 1754 158 129 1758 324 129 1759 331 129 1760 19 48 1764 185 48 1765 209 48 1766 159 59 1767 325 59 1768 324 59 1769 23 48 1770 189 48 1771 167 48 1772 57 48 1773 223 48 1774 224 48 1775 20 48 1776 186 48 1777 187 48 1778 160 130 1779 326 130 1780 325 130 1781 3 48 1782 169 48 1783 186 48 1784 39 48 1800 205 48 1801 171 48 1802 5 48 1809 171 48 1810 184 48 1811 76 48 1815 242 48 1816 258 48 1817 43 48 1818 209 48 1819 222 48 1820 78 48 1836 244 48 1837 257 48 1838 165 133 1842 331 133 1843 185 133 1844 123 48 1875 289 48 1876 275 48 1877 13 48 1881 179 48 1882 169 48 1883 14 48 1890 180 48 1891 179 48 1892 122 48 1896 288 48 1897 261 48 1898 51 48 1899 217 48 1900 207 48 1901 15 48 1902 181 48 1903 180 48 1904 52 48 1908 218 48 1909 217 48 1910 143 48 1911 309 48 1912 289 48 1913 16 48 1914 182 48 1915 181 48 1916 53 48 1920 219 48 1921 218 48 1922 120 48 1923 286 48 1924 288 48 1925 17 48 1926 183 48 1927 182 48 1928 86 48 1929 252 48 1930 242 48 1931 54 48 1932 220 48 1933 219 48 1934 109 48 1935 275 48 1936 286 48 1937 18 48 1938 184 48 1939 183 48 1940 87 48 1941 253 48 1942 252 48 1943 55 48 1944 221 48 1945 220 48 1946 88 48 1947 254 48 1948 253 48 1949 56 48 1950 222 48 1951 221 48 1952 89 48 1953 255 48 1954 254 48 1955 90 48 1956 256 48 1957 255 48 1958 91 48 1959 257 48 1960 256 48 1961 60 48 1962 226 48 1963 205 48 1964 36 48 1971 202 48 1972 189 48 1973 73 48 1977 239 48 1978 226 48 1979</p>
        </triangles>
        <triangles material="front-material" count="116">
          <input semantic="VERTEX" source="#Plane_018-mesh-vertices" offset="0"/>
          <input semantic="NORMAL" source="#Plane_018-mesh-normals" offset="1"/>
          <input semantic="TEXCOORD" source="#Plane_018-mesh-map-0" offset="2" set="0"/>
          <p>38 35 630 227 35 631 61 35 632 95 36 633 262 36 634 96 36 635 24 37 636 191 37 637 25 37 638 96 38 639 263 38 640 97 38 641 61 39 642 228 39 643 62 39 644 25 40 645 192 40 646 26 40 647 97 41 648 264 41 649 98 41 650 62 40 651 229 40 652 63 40 653 26 42 654 193 42 655 27 42 656 98 43 657 265 43 658 99 43 659 63 42 660 230 42 661 64 42 662 27 44 663 194 44 664 28 44 665 99 45 666 266 45 667 100 45 668 64 46 669 231 46 670 65 46 671 28 47 672 195 47 673 29 47 674 65 49 678 232 49 679 66 49 680 29 50 681 196 50 682 30 50 683 66 51 684 233 51 685 67 51 686 94 35 723 312 35 724 146 35 725 146 35 732 268 35 733 102 35 734 102 54 747 243 54 748 77 54 749 75 35 756 190 35 757 24 35 758 40 35 765 330 35 766 164 35 767 22 35 771 203 35 772 37 35 773 59 35 777 240 35 778 74 35 779 74 61 801 208 61 802 42 61 803 37 62 804 170 62 805 4 62 806 161 35 807 323 35 808 157 35 809 4 63 810 178 63 811 12 63 812 162 35 813 327 35 814 161 35 815 42 63 819 216 63 820 50 63 821 163 35 822 328 35 823 162 35 824 6 35 828 204 35 829 38 35 830 77 63 837 251 63 838 85 63 839 44 35 840 206 35 841 40 35 842 7 64 843 172 64 844 6 64 845 164 35 846 329 35 847 163 35 848 8 65 849 173 65 850 7 65 851 45 66 855 210 66 856 44 66 857 9 68 861 174 68 862 8 68 863 79 35 864 241 35 865 75 35 866 46 69 867 211 69 868 45 69 869 10 70 870 175 70 871 9 70 872 47 71 873 212 71 874 46 71 875 11 72 876 176 72 877 10 72 878 80 73 879 245 73 880 79 73 881 48 74 882 213 74 883 47 74 884 12 75 885 177 75 886 11 75 887 81 69 888 246 69 889 80 69 890 49 76 894 214 76 895 48 76 896 82 77 900 247 77 901 81 77 902 50 78 903 215 78 904 49 78 905 83 79 909 248 79 910 82 79 911 84 80 921 249 80 922 83 80 923 85 81 933 250 81 934 84 81 935 30 82 981 188 82 982 22 82 983 67 83 984 225 83 985 59 83 986 100 84 990 260 84 991 94 84 992 38 35 1614 204 35 1615 227 35 1616 95 119 1617 261 119 1618 262 119 1619 24 37 1620 190 37 1621 191 37 1622 96 38 1623 262 38 1624 263 38 1625 61 39 1626 227 39 1627 228 39 1628 25 40 1629 191 40 1630 192 40 1631 97 120 1632 263 120 1633 264 120 1634 62 40 1635 228 40 1636 229 40 1637 26 42 1638 192 42 1639 193 42 1640 98 121 1641 264 121 1642 265 121 1643 63 122 1644 229 122 1645 230 122 1646 27 123 1647 193 123 1648 194 123 1649 99 124 1650 265 124 1651 266 124 1652 64 123 1653 230 123 1654 231 123 1655 28 47 1656 194 47 1657 195 47 1658 65 49 1662 231 49 1663 232 49 1664 29 125 1665 195 125 1666 196 125 1667 66 50 1668 232 50 1669 233 50 1670 94 35 1707 260 35 1708 312 35 1709 146 35 1716 312 35 1717 268 35 1718 102 61 1731 268 61 1732 243 61 1733 75 35 1740 241 35 1741 190 35 1742 40 35 1749 206 35 1750 330 35 1751 22 35 1755 188 35 1756 203 35 1757 59 35 1761 225 35 1762 240 35 1763 74 131 1785 240 131 1786 208 131 1787 37 62 1788 203 62 1789 170 62 1790 161 35 1791 327 35 1792 323 35 1793 4 63 1794 170 63 1795 178 63 1796 162 35 1797 328 35 1798 327 35 1799 42 63 1803 208 63 1804 216 63 1805 163 35 1806 329 35 1807 328 35 1808 6 35 1812 172 35 1813 204 35 1814 77 63 1821 243 63 1822 251 63 1823 44 35 1824 210 35 1825 206 35 1826 7 64 1827 173 64 1828 172 64 1829 164 35 1830 330 35 1831 329 35 1832 8 132 1833 174 132 1834 173 132 1835 45 73 1839 211 73 1840 210 73 1841 9 68 1845 175 68 1846 174 68 1847 79 35 1848 245 35 1849 241 35 1850 46 69 1851 212 69 1852 211 69 1853 10 134 1854 176 134 1855 175 134 1856 47 71 1857 213 71 1858 212 71 1859 11 72 1860 177 72 1861 176 72 1862 80 135 1863 246 135 1864 245 135 1865 48 74 1866 214 74 1867 213 74 1868 12 75 1869 178 75 1870 177 75 1871 81 136 1872 247 136 1873 246 136 1874 49 76 1878 215 76 1879 214 76 1880 82 77 1884 248 77 1885 247 77 1886 50 81 1887 216 81 1888 215 81 1889 83 74 1893 249 74 1894 248 74 1895 84 76 1905 250 76 1906 249 76 1907 85 137 1917 251 137 1918 250 137 1919 30 138 1965 196 138 1966 188 138 1967 67 82 1968 233 82 1969 225 82 1970 100 84 1974 266 84 1975 260 84 1976</p>
        </triangles>
      </mesh>
    </geometry>
  </library_geometries>
  <library_visual_scenes>
    <visual_scene id="Scene" name="Scene">
      <node id="olmo_main" name="olmo_main" type="NODE">
        <matrix sid="transform">1 0 0 -0.02966458 0 1 0 -0.005191438 0 0 1 0 0 0 0 1</matrix>
        <instance_geometry url="#Plane_018-mesh" name="olmo_main">
          <bind_material>
            <technique_common>
              <instance_material symbol="gora_dol-material" target="#gora_dol-material">
                <bind_vertex_input semantic="UVMap" input_semantic="TEXCOORD" input_set="0"/>
              </instance_material>
              <instance_material symbol="tyl-material" target="#tyl-material">
                <bind_vertex_input semantic="UVMap" input_semantic="TEXCOORD" input_set="0"/>
              </instance_material>
              <instance_material symbol="front-material" target="#front-material">
                <bind_vertex_input semantic="UVMap" input_semantic="TEXCOORD" input_set="0"/>
              </instance_material>
            </technique_common>
          </bind_material>
        </instance_geometry>
      </node>
    </visual_scene>
  </library_visual_scenes>
  <scene>
    <instance_visual_scene url="#Scene"/>
  </scene>
</COLLADA>