# Blender v3.2.0 OBJ File: 'panele.blend'
# www.blender.org
mtllib olmo_main.mtl
o olmo_main_Plane.018
v -0.019965 0.000000 0.008046
v -0.054763 0.000000 0.010689
v -0.022852 0.000000 0.004689
v -0.022852 0.000000 0.010689
v -0.022852 0.000000 -0.001311
v -0.019965 0.000000 0.010689
v -0.019965 0.000000 0.005403
v -0.020378 0.000000 0.004982
v -0.020790 0.000000 0.003911
v -0.021203 0.000000 0.002474
v -0.021615 0.000000 0.000957
v -0.022028 0.000000 -0.000354
v -0.022440 0.000000 -0.001174
v -0.022440 0.000000 0.010689
v -0.022028 0.000000 0.010689
v -0.021615 0.000000 0.010689
v -0.021203 0.000000 0.010689
v -0.020790 0.000000 0.010689
v -0.020378 0.000000 0.010689
v 0.032231 0.000000 0.010689
v -0.035556 0.000000 0.010689
v -0.048260 0.000000 0.010689
v -0.048260 0.000000 -0.001311
v -0.051147 0.000000 0.010689
v -0.051147 0.000000 0.005403
v -0.050734 0.000000 0.004982
v -0.050322 0.000000 0.003911
v -0.049910 0.000000 0.002474
v -0.049497 0.000000 0.000957
v -0.049085 0.000000 -0.000354
v -0.048672 0.000000 -0.001174
v -0.048672 0.000000 0.010689
v -0.049085 0.000000 0.010689
v -0.049497 0.000000 0.010689
v -0.049910 0.000000 0.010689
v -0.050322 0.000000 0.010689
v -0.050734 0.000000 0.010689
v -0.035556 0.000000 -0.001311
v -0.016117 0.000000 0.005403
v -0.016117 0.000000 0.010689
v 0.032231 0.000000 0.005403
v 0.016027 0.000000 0.010689
v 0.016027 0.000000 -0.001311
v 0.018914 0.000000 0.010689
v 0.018914 0.000000 0.005403
v 0.018501 0.000000 0.004982
v 0.018089 0.000000 0.003911
v 0.017677 0.000000 0.002474
v 0.017264 0.000000 0.000957
v 0.016852 0.000000 -0.000354
v 0.016439 0.000000 -0.001174
v 0.016439 0.000000 0.010689
v 0.016852 0.000000 0.010689
v 0.017264 0.000000 0.010689
v 0.017677 0.000000 0.010689
v 0.018089 0.000000 0.010689
v 0.018501 0.000000 0.010689
v 0.003323 0.000000 0.010689
v -0.009381 0.000000 0.010689
v -0.009381 0.000000 -0.001311
v -0.012268 0.000000 0.010689
v -0.012268 0.000000 0.005403
v -0.011855 0.000000 0.004982
v -0.011443 0.000000 0.003911
v -0.011030 0.000000 0.002474
v -0.010618 0.000000 0.000957
v -0.010206 0.000000 -0.000354
v -0.009793 0.000000 -0.001174
v -0.009793 0.000000 0.010689
v -0.010205 0.000000 0.010689
v -0.010618 0.000000 0.010689
v -0.011030 0.000000 0.010689
v -0.011443 0.000000 0.010689
v -0.011855 0.000000 0.010689
v 0.003323 0.000000 -0.001311
v -0.054763 0.000000 0.005403
v -0.061265 0.000000 0.010689
v -0.061265 0.000000 -0.001311
v -0.058378 0.000000 0.010689
v -0.058378 0.000000 0.005403
v -0.058791 0.000000 0.004982
v -0.059203 0.000000 0.003911
v -0.059616 0.000000 0.002474
v -0.060028 0.000000 0.000957
v -0.060440 0.000000 -0.000354
v -0.060853 0.000000 -0.001174
v -0.060853 0.000000 0.010689
v -0.060440 0.000000 0.010689
v -0.060028 0.000000 0.010689
v -0.059616 0.000000 0.010689
v -0.059203 0.000000 0.010689
v -0.058791 0.000000 0.010689
v -0.073969 0.000000 0.010689
v -0.083371 0.000000 0.010534
v -0.086539 0.000000 -0.001311
v -0.088688 0.000000 0.005513
v -0.088330 0.000000 0.003911
v -0.087972 0.000000 0.002474
v -0.087614 0.000000 0.000957
v -0.087256 0.000000 -0.000354
v -0.086897 0.000000 -0.001174
v -0.083265 0.000000 0.010689
v -0.073969 0.000000 -0.001311
v -0.022440 0.000000 0.004757
v -0.022028 0.000000 0.005167
v -0.021615 0.000000 0.005823
v -0.021203 0.000000 0.006581
v -0.020790 0.000000 0.007300
v -0.020378 0.000000 0.007835
v -0.087614 0.000000 0.005513
v -0.048260 0.000000 0.004689
v -0.051147 0.000000 0.008046
v -0.048672 0.000000 0.004757
v -0.049085 0.000000 0.005167
v -0.049497 0.000000 0.005823
v -0.049910 0.000000 0.006581
v -0.050322 0.000000 0.007300
v -0.050734 0.000000 0.007835
v -0.035556 0.000000 0.004689
v 0.016027 0.000000 0.004689
v -0.087972 0.000000 0.005513
v 0.016439 0.000000 0.004757
v -0.088330 0.000000 0.005513
v -0.087256 0.000000 0.005513
v -0.016117 0.000000 0.008046
v -0.009381 0.000000 0.004689
v -0.012268 0.000000 0.008046
v -0.009793 0.000000 0.004757
v -0.010206 0.000000 0.005167
v -0.010618 0.000000 0.005823
v -0.011030 0.000000 0.006581
v -0.011443 0.000000 0.007300
v -0.011855 0.000000 0.007835
v 0.003323 0.000000 0.004689
v -0.061265 0.000000 0.004689
v -0.058378 0.000000 0.008046
v -0.060853 0.000000 0.004757
v -0.060440 0.000000 0.005167
v -0.060028 0.000000 0.005823
v -0.059616 0.000000 0.006581
v -0.059203 0.000000 0.007300
v -0.058791 0.000000 0.007835
v -0.086539 0.000000 0.005513
v -0.086897 0.000000 0.005513
v -0.081605 0.000000 0.005513
v -0.081207 0.000000 0.010689
v -0.081207 0.000000 -0.001311
v -0.073969 0.000000 0.004689
v -0.054763 0.000000 0.008046
v 0.016852 0.000000 0.004952
v 0.018089 0.000000 0.005342
v 0.017677 0.000000 0.005276
v 0.017264 0.000000 0.005160
v 0.018501 0.000000 0.005392
v -0.082839 0.000000 0.009225
v -0.082236 0.000000 0.010689
v 0.034395 0.000000 0.005747
v 0.034395 0.000000 0.005403
v 0.032830 0.000000 0.009862
v 0.033428 0.000000 0.008416
v 0.034027 0.000000 0.006970
v 0.034027 0.000000 0.005403
v 0.033428 0.000000 0.005403
v 0.032830 0.000000 0.005403
v 0.032530 0.000000 0.005403
v 0.032530 0.000000 0.010447
v -0.019965 2.700000 0.008046
v -0.054763 2.700000 0.010689
v -0.022852 2.700000 0.004689
v -0.022852 2.700000 0.010689
v -0.022852 2.700000 -0.001311
v -0.019965 2.700000 0.010689
v -0.019965 2.700000 0.005403
v -0.020378 2.700000 0.004982
v -0.020790 2.700000 0.003911
v -0.021203 2.700000 0.002474
v -0.021615 2.700000 0.000957
v -0.022028 2.700000 -0.000354
v -0.022440 2.700000 -0.001174
v -0.022440 2.700000 0.010689
v -0.022028 2.700000 0.010689
v -0.021615 2.700000 0.010689
v -0.021203 2.700000 0.010689
v -0.020790 2.700000 0.010689
v -0.020378 2.700000 0.010689
v 0.032231 2.700000 0.010689
v -0.035556 2.700000 0.010689
v -0.048260 2.700000 0.010689
v -0.048260 2.700000 -0.001311
v -0.051147 2.700000 0.010689
v -0.051147 2.700000 0.005403
v -0.050734 2.700000 0.004982
v -0.050322 2.700000 0.003911
v -0.049910 2.700000 0.002474
v -0.049497 2.700000 0.000957
v -0.049085 2.700000 -0.000354
v -0.048672 2.700000 -0.001174
v -0.048672 2.700000 0.010689
v -0.049085 2.700000 0.010689
v -0.049497 2.700000 0.010689
v -0.049910 2.700000 0.010689
v -0.050322 2.700000 0.010689
v -0.050734 2.700000 0.010689
v -0.035556 2.700000 -0.001311
v -0.016117 2.700000 0.005403
v -0.016117 2.700000 0.010689
v 0.032231 2.700000 0.005403
v 0.016027 2.700000 0.010689
v 0.016027 2.700000 -0.001311
v 0.018914 2.700000 0.010689
v 0.018914 2.700000 0.005403
v 0.018501 2.700000 0.004982
v 0.018089 2.700000 0.003911
v 0.017677 2.700000 0.002474
v 0.017264 2.700000 0.000957
v 0.016852 2.700000 -0.000354
v 0.016439 2.700000 -0.001174
v 0.016439 2.700000 0.010689
v 0.016852 2.700000 0.010689
v 0.017264 2.700000 0.010689
v 0.017677 2.700000 0.010689
v 0.018089 2.700000 0.010689
v 0.018501 2.700000 0.010689
v 0.003323 2.700000 0.010689
v -0.009381 2.700000 0.010689
v -0.009381 2.700000 -0.001311
v -0.012268 2.700000 0.010689
v -0.012268 2.700000 0.005403
v -0.011855 2.700000 0.004982
v -0.011443 2.700000 0.003911
v -0.011030 2.700000 0.002474
v -0.010618 2.700000 0.000957
v -0.010206 2.700000 -0.000354
v -0.009793 2.700000 -0.001174
v -0.009793 2.700000 0.010689
v -0.010205 2.700000 0.010689
v -0.010618 2.700000 0.010689
v -0.011030 2.700000 0.010689
v -0.011443 2.700000 0.010689
v -0.011855 2.700000 0.010689
v 0.003323 2.700000 -0.001311
v -0.054763 2.700000 0.005403
v -0.061265 2.700000 0.010689
v -0.061265 2.700000 -0.001311
v -0.058378 2.700000 0.010689
v -0.058378 2.700000 0.005403
v -0.058791 2.700000 0.004982
v -0.059203 2.700000 0.003911
v -0.059616 2.700000 0.002474
v -0.060028 2.700000 0.000957
v -0.060440 2.700000 -0.000354
v -0.060853 2.700000 -0.001174
v -0.060853 2.700000 0.010689
v -0.060440 2.700000 0.010689
v -0.060028 2.700000 0.010689
v -0.059616 2.700000 0.010689
v -0.059203 2.700000 0.010689
v -0.058791 2.700000 0.010689
v -0.073969 2.700000 0.010689
v -0.083371 2.700000 0.010534
v -0.086539 2.700000 -0.001311
v -0.088688 2.700000 0.005513
v -0.088330 2.700000 0.003911
v -0.087972 2.700000 0.002474
v -0.087614 2.700000 0.000957
v -0.087256 2.700000 -0.000354
v -0.086897 2.700000 -0.001174
v -0.083265 2.700000 0.010689
v -0.073969 2.700000 -0.001311
v -0.022440 2.700000 0.004757
v -0.022028 2.700000 0.005167
v -0.021615 2.700000 0.005823
v -0.021203 2.700000 0.006581
v -0.020790 2.700000 0.007300
v -0.020378 2.700000 0.007835
v -0.087614 2.700000 0.005513
v -0.048260 2.700000 0.004689
v -0.051147 2.700000 0.008046
v -0.048672 2.700000 0.004757
v -0.049085 2.700000 0.005167
v -0.049497 2.700000 0.005823
v -0.049910 2.700000 0.006581
v -0.050322 2.700000 0.007300
v -0.050734 2.700000 0.007835
v -0.035556 2.700000 0.004689
v 0.016027 2.700000 0.004689
v -0.087972 2.700000 0.005513
v 0.016439 2.700000 0.004757
v -0.088330 2.700000 0.005513
v -0.087256 2.700000 0.005513
v -0.016117 2.700000 0.008046
v -0.009381 2.700000 0.004689
v -0.012268 2.700000 0.008046
v -0.009793 2.700000 0.004757
v -0.010206 2.700000 0.005167
v -0.010618 2.700000 0.005823
v -0.011030 2.700000 0.006581
v -0.011443 2.700000 0.007300
v -0.011855 2.700000 0.007835
v 0.003323 2.700000 0.004689
v -0.061265 2.700000 0.004689
v -0.058378 2.700000 0.008046
v -0.060853 2.700000 0.004757
v -0.060440 2.700000 0.005167
v -0.060028 2.700000 0.005823
v -0.059616 2.700000 0.006581
v -0.059203 2.700000 0.007300
v -0.058791 2.700000 0.007835
v -0.086539 2.700000 0.005513
v -0.086897 2.700000 0.005513
v -0.081605 2.700000 0.005513
v -0.081207 2.700000 0.010689
v -0.081207 2.700000 -0.001311
v -0.073969 2.700000 0.004689
v -0.054763 2.700000 0.008046
v 0.016852 2.700000 0.004952
v 0.018089 2.700000 0.005342
v 0.017677 2.700000 0.005276
v 0.017264 2.700000 0.005160
v 0.018501 2.700000 0.005392
v -0.082839 2.700000 0.009225
v -0.082236 2.700000 0.010689
v 0.034395 2.700000 0.005747
v 0.034395 2.700000 0.005403
v 0.032830 2.700000 0.009862
v 0.033428 2.700000 0.008416
v 0.034027 2.700000 0.006970
v 0.034027 2.700000 0.005403
v 0.033428 2.700000 0.005403
v 0.032830 2.700000 0.005403
v 0.032530 2.700000 0.005403
v 0.032530 2.700000 0.010447
vt 0.912322 0.500000
vt 0.912322 1.000000
vt 1.000000 1.000000
vt 1.000000 0.500000
vt 0.413902 0.500000
vt 0.413902 1.000000
vt 0.827804 1.000000
vt 0.827804 0.500000
vt 0.900248 0.500000
vt 0.900248 1.000000
vt 0.839878 1.000000
vt 0.839878 0.500000
vt 0.851952 1.000000
vt 0.851952 0.500000
vt 0.864026 1.000000
vt 0.864026 0.500000
vt 0.876100 1.000000
vt 0.876100 0.500000
vt 0.888174 1.000000
vt 0.888174 0.500000
vt 0.912322 0.500000
vt 1.000000 0.500000
vt 1.000000 1.000000
vt 0.912322 1.000000
vt 0.827804 0.500000
vt 0.827804 1.000000
vt 0.900248 0.500000
vt 0.900248 1.000000
vt 0.839878 0.500000
vt 0.839878 1.000000
vt 0.851952 0.500000
vt 0.851952 1.000000
vt 0.864026 0.500000
vt 0.864026 1.000000
vt 0.876100 0.500000
vt 0.876100 1.000000
vt 0.888174 0.500000
vt 0.888174 1.000000
vt 0.413902 0.500000
vt 0.413902 1.000000
vt 0.827804 1.000000
vt 0.827804 0.500000
vt 0.912322 0.000000
vt 0.912322 1.000000
vt 1.000000 1.000000
vt 1.000000 0.000000
vt 0.839878 1.000000
vt 0.839878 0.500000
vt 0.888174 0.000000
vt 0.888174 0.788766
vt 0.900248 0.928180
vt 0.900248 0.000000
vt 0.864026 0.000000
vt 0.864026 0.568117
vt 0.876100 0.658867
vt 0.876100 0.000000
vt 0.912322 0.500000
vt 0.912322 1.000000
vt 0.827804 0.500000
vt 0.827804 1.000000
vt 0.900248 0.500000
vt 0.900248 1.000000
vt 0.839878 0.500000
vt 0.839878 1.000000
vt 0.851952 0.500000
vt 0.851952 1.000000
vt 0.864026 0.500000
vt 0.864026 1.000000
vt 0.876100 0.500000
vt 0.876100 1.000000
vt 0.888174 0.500000
vt 0.888174 1.000000
vt 0.912322 0.500000
vt 0.912322 1.000000
vt 0.413902 0.500000
vt 0.413902 1.000000
vt 0.827804 1.000000
vt 0.827804 0.500000
vt 0.900248 0.500000
vt 0.900248 1.000000
vt 0.839878 1.000000
vt 0.839878 0.500000
vt 0.851952 1.000000
vt 0.851952 0.500000
vt 0.864026 1.000000
vt 0.864026 0.500000
vt 0.876100 1.000000
vt 0.876100 0.500000
vt 0.888174 1.000000
vt 0.888174 0.500000
vt 0.649730 0.500000
vt 0.827804 0.500000
vt 0.827804 1.000000
vt 0.649730 1.000000
vt 0.839878 0.500000
vt 0.839878 1.000000
vt 0.413902 0.000000
vt 0.649730 0.000000
vt 0.000000 0.000000
vt 0.000000 0.000000
vt 0.000000 0.000000
vt 0.000000 0.000000
vt 0.888174 0.000000
vt 0.900248 0.000000
vt 0.876100 0.000000
vt 0.864026 0.000000
vt 0.851952 0.000000
vt 0.839878 0.000000
vt 0.827804 0.000000
vt 0.912322 0.000000
vt 1.000000 0.000000
vt 0.888174 0.000000
vt 0.900248 0.000000
vt 0.876100 0.000000
vt 0.864026 0.000000
vt 0.851952 0.000000
vt 0.839878 0.000000
vt 0.827804 0.000000
vt 0.912322 0.000000
vt 0.413902 0.000000
vt 1.000000 0.000000
vt 0.864026 0.600210
vt 0.864026 1.000000
vt 0.851952 1.000000
vt 0.851952 0.533030
vt 0.900248 1.000000
vt 0.888174 1.000000
vt 0.888174 0.848518
vt 0.851952 0.000000
vt 0.851952 0.519469
vt 0.827804 0.000000
vt 0.839878 0.000000
vt 0.876100 1.000000
vt 0.876100 0.705559
vt 0.888174 0.000000
vt 0.900248 0.000000
vt 0.876100 0.000000
vt 0.864026 0.000000
vt 0.851952 0.000000
vt 0.839878 0.000000
vt 0.827804 0.000000
vt 0.912322 0.000000
vt 0.413902 0.000000
vt 0.888174 0.000000
vt 0.900248 0.000000
vt 0.876100 0.000000
vt 0.864026 0.000000
vt 0.851952 0.000000
vt 0.839878 0.000000
vt 0.827804 0.000000
vt 0.912322 0.000000
vt 0.851952 1.000000
vt 0.864026 1.000000
vt 0.900248 1.000000
vt 0.876100 1.000000
vt 0.888174 1.000000
vt 1.000000 1.000000
vt 1.000000 1.000000
vt 1.000000 0.000000
vt 1.000000 0.000000
vt 1.000000 1.000000
vt 1.000000 1.000000
vt 1.000000 0.000000
vt 1.000000 0.000000
vt 1.000000 1.000000
vt 1.000000 0.000000
vt 0.912322 0.500000
vt 1.000000 0.500000
vt 1.000000 1.000000
vt 0.912322 1.000000
vt 0.413902 0.500000
vt 0.827804 0.500000
vt 0.827804 1.000000
vt 0.413902 1.000000
vt 0.900248 0.500000
vt 0.900248 1.000000
vt 0.839878 0.500000
vt 0.839878 1.000000
vt 0.851952 0.500000
vt 0.851952 1.000000
vt 0.864026 0.500000
vt 0.864026 1.000000
vt 0.876100 0.500000
vt 0.876100 1.000000
vt 0.888174 0.500000
vt 0.888174 1.000000
vt 0.912322 0.500000
vt 0.912322 1.000000
vt 1.000000 1.000000
vt 1.000000 0.500000
vt 0.827804 1.000000
vt 0.827804 0.500000
vt 0.900248 0.500000
vt 0.900248 1.000000
vt 0.839878 1.000000
vt 0.839878 0.500000
vt 0.851952 1.000000
vt 0.851952 0.500000
vt 0.864026 1.000000
vt 0.864026 0.500000
vt 0.876100 1.000000
vt 0.876100 0.500000
vt 0.888174 1.000000
vt 0.888174 0.500000
vt 0.413902 0.500000
vt 0.827804 0.500000
vt 0.827804 1.000000
vt 0.413902 1.000000
vt 0.912322 0.000000
vt 1.000000 0.000000
vt 1.000000 1.000000
vt 0.912322 1.000000
vt 0.839878 0.500000
vt 0.839878 1.000000
vt 0.888174 0.000000
vt 0.900248 0.000000
vt 0.900248 0.928180
vt 0.888174 0.788766
vt 0.864026 0.000000
vt 0.876100 0.000000
vt 0.876100 0.658867
vt 0.864026 0.568117
vt 0.912322 0.500000
vt 0.912322 1.000000
vt 0.827804 1.000000
vt 0.827804 0.500000
vt 0.900248 0.500000
vt 0.900248 1.000000
vt 0.839878 1.000000
vt 0.839878 0.500000
vt 0.851952 1.000000
vt 0.851952 0.500000
vt 0.864026 1.000000
vt 0.864026 0.500000
vt 0.876100 1.000000
vt 0.876100 0.500000
vt 0.888174 1.000000
vt 0.888174 0.500000
vt 0.912322 0.500000
vt 0.912322 1.000000
vt 0.413902 0.500000
vt 0.827804 0.500000
vt 0.827804 1.000000
vt 0.413902 1.000000
vt 0.900248 0.500000
vt 0.900248 1.000000
vt 0.839878 0.500000
vt 0.839878 1.000000
vt 0.851952 0.500000
vt 0.851952 1.000000
vt 0.864026 0.500000
vt 0.864026 1.000000
vt 0.876100 0.500000
vt 0.876100 1.000000
vt 0.888174 0.500000
vt 0.888174 1.000000
vt 0.649730 0.500000
vt 0.649730 1.000000
vt 0.827804 1.000000
vt 0.827804 0.500000
vt 0.839878 1.000000
vt 0.839878 0.500000
vt 0.413902 0.000000
vt 0.649730 0.000000
vt 0.000000 0.000000
vt 0.000000 0.000000
vt 0.000000 0.000000
vt 0.000000 0.000000
vt 0.888174 0.000000
vt 0.900248 0.000000
vt 0.876100 0.000000
vt 0.864026 0.000000
vt 0.851952 0.000000
vt 0.839878 0.000000
vt 0.827804 0.000000
vt 0.912322 0.000000
vt 1.000000 0.000000
vt 0.888174 0.000000
vt 0.900248 0.000000
vt 0.876100 0.000000
vt 0.864026 0.000000
vt 0.851952 0.000000
vt 0.839878 0.000000
vt 0.827804 0.000000
vt 0.912322 0.000000
vt 0.413902 0.000000
vt 1.000000 0.000000
vt 0.864026 0.600210
vt 0.851952 0.533030
vt 0.851952 1.000000
vt 0.864026 1.000000
vt 0.900248 1.000000
vt 0.888174 0.848518
vt 0.888174 1.000000
vt 0.851952 0.519469
vt 0.851952 0.000000
vt 0.827804 0.000000
vt 0.839878 0.000000
vt 0.876100 0.705559
vt 0.876100 1.000000
vt 0.888174 0.000000
vt 0.900248 0.000000
vt 0.876100 0.000000
vt 0.864026 0.000000
vt 0.851952 0.000000
vt 0.839878 0.000000
vt 0.827804 0.000000
vt 0.912322 0.000000
vt 0.413902 0.000000
vt 0.888174 0.000000
vt 0.900248 0.000000
vt 0.876100 0.000000
vt 0.864026 0.000000
vt 0.851952 0.000000
vt 0.839878 0.000000
vt 0.827804 0.000000
vt 0.912322 0.000000
vt 0.864026 1.000000
vt 0.851952 1.000000
vt 0.900248 1.000000
vt 0.876100 1.000000
vt 0.888174 1.000000
vt 1.000000 1.000000
vt 1.000000 0.000000
vt 1.000000 0.000000
vt 1.000000 1.000000
vt 1.000000 1.000000
vt 1.000000 0.000000
vt 1.000000 0.000000
vt 1.000000 1.000000
vt 1.000000 0.000000
vt 1.000000 1.000000
vn 0.0000 -1.0000 0.0000
vn 0.0000 1.0000 0.0000
vn 0.0000 1.0000 -0.0001
vn 0.0000 1.0000 0.0001
vn 0.0000 0.0000 1.0000
vn -0.8242 0.0000 0.5662
vn -0.9263 0.0000 -0.3768
vn -0.9489 0.0000 -0.3155
vn 1.0000 0.0000 0.0000
vn 0.9575 0.0000 0.2883
vn 0.8903 0.0000 0.4553
vn 0.9240 0.0000 0.3825
vn 0.6272 0.0000 0.7789
vn 0.0000 0.0000 -1.0000
vn -0.9759 0.0000 -0.2181
vn -0.7141 0.0000 -0.7001
vn -0.9703 0.0000 -0.2418
vn -0.9333 0.0000 -0.3592
vn -0.9732 0.0000 -0.2298
vn -0.9612 0.0000 -0.2759
vn -0.9647 0.0000 -0.2635
vn -0.9650 0.0000 -0.2624
vn -0.9163 0.0000 -0.4005
vn -0.9539 0.0000 -0.3001
vn -0.8932 0.0000 -0.4496
vn 0.3168 0.0000 -0.9485
vn 0.7141 0.0000 -0.7001
vn 0.9333 0.0000 -0.3592
vn 0.9612 0.0000 -0.2759
vn 0.9650 0.0000 -0.2624
vn 0.9539 0.0000 -0.3001
vn 0.8932 0.0000 -0.4496
vn -0.3168 0.0000 -0.9485
vn -0.3590 0.0000 -0.9333
g olmo_main_Plane.018_gora_dol
usemtl gora_dol
s off
f 1/1/1 7/2/1 39/3/1 125/4/1
f 119/5/1 38/6/1 5/7/1 3/8/1
f 109/9/1 8/10/1 7/2/1 1/1/1
f 3/8/1 5/7/1 13/11/1 104/12/1
f 104/12/1 13/11/1 12/13/1 105/14/1
f 105/14/1 12/13/1 11/15/1 106/16/1
f 106/16/1 11/15/1 10/17/1 107/18/1
f 107/18/1 10/17/1 9/19/1 108/20/1
f 108/20/1 9/19/1 8/10/1 109/9/1
f 112/21/1 149/22/1 76/23/1 25/24/1
f 119/5/1 111/25/1 23/26/1 38/6/1
f 118/27/1 112/21/1 25/24/1 26/28/1
f 111/25/1 113/29/1 31/30/1 23/26/1
f 113/29/1 114/31/1 30/32/1 31/30/1
f 114/31/1 115/33/1 29/34/1 30/32/1
f 115/33/1 116/35/1 28/36/1 29/34/1
f 116/35/1 117/37/1 27/38/1 28/36/1
f 117/37/1 118/27/1 26/28/1 27/38/1
f 134/39/1 75/40/1 43/41/1 120/42/1
f 44/43/1 45/44/1 41/45/1 20/46/1
f 120/42/1 43/41/1 51/47/1 122/48/1
f 56/49/1 151/50/1 154/51/1 57/52/1
f 57/52/1 154/51/1 45/44/1 44/43/1
f 54/53/1 153/54/1 152/55/1 55/56/1
f 55/56/1 152/55/1 151/50/1 56/49/1
f 127/57/1 125/4/1 39/3/1 62/58/1
f 134/39/1 126/59/1 60/60/1 75/40/1
f 133/61/1 127/57/1 62/58/1 63/62/1
f 126/59/1 128/63/1 68/64/1 60/60/1
f 128/63/1 129/65/1 67/66/1 68/64/1
f 129/65/1 130/67/1 66/68/1 67/66/1
f 130/67/1 131/69/1 65/70/1 66/68/1
f 131/69/1 132/71/1 64/72/1 65/70/1
f 132/71/1 133/61/1 63/62/1 64/72/1
f 136/73/1 80/74/1 76/23/1 149/22/1
f 148/75/1 103/76/1 78/77/1 135/78/1
f 142/79/1 81/80/1 80/74/1 136/73/1
f 135/78/1 78/77/1 86/81/1 137/82/1
f 137/82/1 86/81/1 85/83/1 138/84/1
f 138/84/1 85/83/1 84/85/1 139/86/1
f 139/86/1 84/85/1 83/87/1 140/88/1
f 140/88/1 83/87/1 82/89/1 141/90/1
f 141/90/1 82/89/1 81/80/1 142/79/1
f 145/91/1 143/92/1 95/93/1 147/94/1
f 143/92/1 144/95/1 101/96/1 95/93/1
f 148/75/1 145/91/1 147/94/1 103/76/1
f 93/97/1 146/98/1 145/91/1 148/75/1
f 94/99/1 155/100/1 156/101/1 102/102/1
f 146/98/1 156/101/1 155/100/1 145/91/1
f 91/103/1 141/90/1 142/79/1 92/104/1
f 90/105/1 140/88/1 141/90/1 91/103/1
f 89/106/1 139/86/1 140/88/1 90/105/1
f 88/107/1 138/84/1 139/86/1 89/106/1
f 87/108/1 137/82/1 138/84/1 88/107/1
f 77/109/1 135/78/1 137/82/1 87/108/1
f 92/104/1 142/79/1 136/73/1 79/110/1
f 93/97/1 148/75/1 135/78/1 77/109/1
f 79/110/1 136/73/1 149/22/1 2/111/1
f 73/112/1 74/113/1 133/61/1 132/71/1
f 72/114/1 73/112/1 132/71/1 131/69/1
f 71/115/1 72/114/1 131/69/1 130/67/1
f 70/116/1 71/115/1 130/67/1 129/65/1
f 69/117/1 70/116/1 129/65/1 128/63/1
f 59/118/1 69/117/1 128/63/1 126/59/1
f 74/113/1 61/119/1 127/57/1 133/61/1
f 58/120/1 59/118/1 126/59/1 134/39/1
f 61/119/1 40/121/1 125/4/1 127/57/1
f 110/122/1 99/123/1 100/124/1 124/125/1
f 96/126/1 97/127/1 123/128/1
f 124/125/1 100/124/1 101/96/1 144/95/1
f 54/53/1 53/129/1 150/130/1 153/54/1
f 42/131/1 120/42/1 122/48/1 52/132/1
f 123/128/1 97/127/1 98/133/1 121/134/1
f 58/120/1 134/39/1 120/42/1 42/131/1
f 121/134/1 98/133/1 99/123/1 110/122/1
f 36/135/1 37/136/1 118/27/1 117/37/1
f 35/137/1 36/135/1 117/37/1 116/35/1
f 34/138/1 35/137/1 116/35/1 115/33/1
f 33/139/1 34/138/1 115/33/1 114/31/1
f 32/140/1 33/139/1 114/31/1 113/29/1
f 22/141/1 32/140/1 113/29/1 111/25/1
f 37/136/1 24/142/1 112/21/1 118/27/1
f 21/143/1 22/141/1 111/25/1 119/5/1
f 24/142/1 2/111/1 149/22/1 112/21/1
f 18/144/1 108/20/1 109/9/1 19/145/1
f 17/146/1 107/18/1 108/20/1 18/144/1
f 16/147/1 106/16/1 107/18/1 17/146/1
f 15/148/1 105/14/1 106/16/1 16/147/1
f 14/149/1 104/12/1 105/14/1 15/148/1
f 4/150/1 3/8/1 104/12/1 14/149/1
f 19/145/1 109/9/1 1/1/1 6/151/1
f 21/143/1 119/5/1 3/8/1 4/150/1
f 6/151/1 1/1/1 125/4/1 40/121/1
f 150/130/1 50/152/1 49/153/1 153/54/1
f 154/51/1 46/154/1 45/44/1
f 153/54/1 49/153/1 48/155/1 152/55/1
f 152/55/1 48/155/1 47/156/1 151/50/1
f 150/130/1 122/48/1 51/47/1 50/152/1
f 151/50/1 47/156/1 46/154/1 154/51/1
f 53/129/1 52/132/1 122/48/1 150/130/1
f 162/157/1 158/158/1 157/159/1 161/160/1
f 165/161/1 164/162/1 159/163/1 166/164/1
f 164/162/1 163/165/1 160/166/1 159/163/1
f 163/165/1 162/157/1 161/160/1 160/166/1
f 41/45/1 165/161/1 166/164/1 20/46/1
f 167/167/2 291/168/2 205/169/2 173/170/2
f 285/171/2 169/172/2 171/173/2 204/174/2
f 275/175/2 167/167/2 173/170/2 174/176/2
f 169/172/2 270/177/2 179/178/2 171/173/2
f 270/177/2 271/179/2 178/180/2 179/178/2
f 271/179/2 272/181/2 177/182/2 178/180/2
f 272/181/2 273/183/2 176/184/2 177/182/2
f 273/183/2 274/185/2 175/186/2 176/184/2
f 274/185/2 275/175/2 174/176/2 175/186/2
f 278/187/2 191/188/2 242/189/2 315/190/2
f 285/171/2 204/174/2 189/191/2 277/192/2
f 284/193/2 192/194/2 191/188/2 278/187/2
f 277/192/2 189/191/2 197/195/2 279/196/2
f 279/196/2 197/195/2 196/197/2 280/198/2
f 280/198/2 196/197/2 195/199/2 281/200/2
f 281/200/3 195/199/3 194/201/3 282/202/3
f 282/202/2 194/201/2 193/203/2 283/204/2
f 283/204/2 193/203/2 192/194/2 284/193/2
f 300/205/2 286/206/2 209/207/2 241/208/2
f 210/209/2 186/210/2 207/211/2 211/212/2
f 286/206/2 288/213/2 217/214/2 209/207/2
f 222/215/2 223/216/2 320/217/2 317/218/2
f 223/216/2 210/209/2 211/212/2 320/217/2
f 220/219/2 221/220/2 318/221/2 319/222/2
f 221/220/2 222/215/2 317/218/2 318/221/2
f 293/223/2 228/224/2 205/169/2 291/168/2
f 300/205/2 241/208/2 226/225/2 292/226/2
f 299/227/2 229/228/2 228/224/2 293/223/2
f 292/226/2 226/225/2 234/229/2 294/230/2
f 294/230/2 234/229/2 233/231/2 295/232/2
f 295/232/2 233/231/2 232/233/2 296/234/2
f 296/234/2 232/233/2 231/235/2 297/236/2
f 297/236/2 231/235/2 230/237/2 298/238/2
f 298/238/2 230/237/2 229/228/2 299/227/2
f 302/239/2 315/190/2 242/189/2 246/240/2
f 314/241/2 301/242/2 244/243/2 269/244/2
f 308/245/3 302/239/3 246/240/3 247/246/3
f 301/242/2 303/247/2 252/248/2 244/243/2
f 303/247/2 304/249/2 251/250/2 252/248/2
f 304/249/3 305/251/3 250/252/3 251/250/3
f 305/251/2 306/253/2 249/254/2 250/252/2
f 306/253/2 307/255/2 248/256/2 249/254/2
f 307/255/2 308/245/2 247/246/2 248/256/2
f 311/257/2 313/258/2 261/259/2 309/260/2
f 309/260/2 261/259/2 267/261/2 310/262/2
f 314/241/2 269/244/2 313/258/2 311/257/2
f 259/263/2 314/241/2 311/257/2 312/264/2
f 260/265/2 268/266/2 322/267/2 321/268/2
f 312/264/2 311/257/2 321/268/2 322/267/2
f 257/269/2 258/270/2 308/245/2 307/255/2
f 256/271/2 257/269/2 307/255/2 306/253/2
f 255/272/2 256/271/2 306/253/2 305/251/2
f 254/273/2 255/272/2 305/251/2 304/249/2
f 253/274/2 254/273/2 304/249/2 303/247/2
f 243/275/2 253/274/2 303/247/2 301/242/2
f 258/270/2 245/276/2 302/239/2 308/245/2
f 259/263/2 243/275/2 301/242/2 314/241/2
f 245/276/2 168/277/2 315/190/2 302/239/2
f 239/278/2 298/238/2 299/227/2 240/279/2
f 238/280/2 297/236/2 298/238/2 239/278/2
f 237/281/2 296/234/2 297/236/2 238/280/2
f 236/282/2 295/232/2 296/234/2 237/281/2
f 235/283/2 294/230/2 295/232/2 236/282/2
f 225/284/2 292/226/2 294/230/2 235/283/2
f 240/279/2 299/227/2 293/223/2 227/285/2
f 224/286/2 300/205/2 292/226/2 225/284/2
f 227/285/2 293/223/2 291/168/2 206/287/2
f 276/288/2 290/289/2 266/290/2 265/291/2
f 262/292/2 289/293/2 263/294/2
f 290/289/2 310/262/2 267/261/2 266/290/2
f 220/219/2 319/222/2 316/295/2 219/296/2
f 208/297/2 218/298/2 288/213/2 286/206/2
f 289/293/2 287/299/2 264/300/2 263/294/2
f 224/286/2 208/297/2 286/206/2 300/205/2
f 287/299/2 276/288/2 265/291/2 264/300/2
f 202/301/2 283/204/2 284/193/2 203/302/2
f 201/303/2 282/202/2 283/204/2 202/301/2
f 200/304/2 281/200/2 282/202/2 201/303/2
f 199/305/2 280/198/2 281/200/2 200/304/2
f 198/306/2 279/196/2 280/198/2 199/305/2
f 188/307/2 277/192/2 279/196/2 198/306/2
f 203/302/2 284/193/2 278/187/2 190/308/2
f 187/309/2 285/171/2 277/192/2 188/307/2
f 190/308/2 278/187/2 315/190/2 168/277/2
f 184/310/2 185/311/2 275/175/2 274/185/2
f 183/312/2 184/310/2 274/185/2 273/183/2
f 182/313/2 183/312/2 273/183/2 272/181/2
f 181/314/2 182/313/2 272/181/2 271/179/2
f 180/315/2 181/314/2 271/179/2 270/177/2
f 170/316/2 180/315/2 270/177/2 169/172/2
f 185/311/2 172/317/2 167/167/2 275/175/2
f 187/309/2 170/316/2 169/172/2 285/171/2
f 172/317/2 206/287/2 291/168/2 167/167/2
f 316/295/2 319/222/2 215/318/2 216/319/2
f 320/217/2 211/212/2 212/320/2
f 319/222/2 318/221/2 214/321/2 215/318/2
f 318/221/2 317/218/2 213/322/2 214/321/2
f 316/295/2 216/319/2 217/214/2 288/213/2
f 317/218/2 320/217/2 212/320/2 213/322/2
f 219/296/2 316/295/2 288/213/2 218/298/2
f 328/323/2 327/324/2 323/325/2 324/326/2
f 331/327/2 332/328/2 325/329/2 330/330/2
f 330/330/2 325/329/2 326/331/2 329/332/2
f 329/332/4 326/331/4 327/324/4 328/323/4
f 207/211/2 186/210/2 332/328/2 331/327/2
g olmo_main_Plane.018_tyl
usemtl tyl
f 156/101/5 146/98/5 312/264/5 322/267/5
f 94/99/6 102/102/6 268/266/6 260/265/6
f 32/140/5 22/141/5 188/307/5 198/306/5
f 69/117/5 59/118/5 225/284/5 235/283/5
f 102/102/5 156/101/5 322/267/5 268/266/5
f 33/139/5 32/140/5 198/306/5 199/305/5
f 70/116/5 69/117/5 235/283/5 236/282/5
f 34/138/5 33/139/5 199/305/5 200/304/5
f 71/115/5 70/116/5 236/282/5 237/281/5
f 35/137/5 34/138/5 200/304/5 201/303/5
f 72/114/5 71/115/5 237/281/5 238/280/5
f 146/98/5 93/97/5 259/263/5 312/264/5
f 36/135/5 35/137/5 201/303/5 202/301/5
f 73/112/5 72/114/5 238/280/5 239/278/5
f 37/136/5 36/135/5 202/301/5 203/302/5
f 74/113/5 73/112/5 239/278/5 240/279/5
f 144/95/5 143/92/5 309/260/5 310/262/5
f 155/100/7 94/99/7 260/265/7 321/268/7
f 143/92/5 145/91/5 311/257/5 309/260/5
f 145/91/8 155/100/8 321/268/8 311/257/8
f 157/159/9 158/158/9 324/326/9 323/325/9
f 161/160/10 157/159/10 323/325/10 327/324/10
f 79/110/5 2/111/5 168/277/5 245/276/5
f 58/120/5 42/131/5 208/297/5 224/286/5
f 166/164/11 159/163/11 325/329/11 332/328/11
f 44/43/5 20/46/5 186/210/5 210/209/5
f 159/163/12 160/166/12 326/331/12 325/329/12
f 2/111/5 24/142/5 190/308/5 168/277/5
f 59/118/5 58/120/5 224/286/5 225/284/5
f 22/141/5 21/143/5 187/309/5 188/307/5
f 160/166/12 161/160/12 327/324/12 326/331/12
f 21/143/5 4/150/5 170/316/5 187/309/5
f 6/151/5 40/121/5 206/287/5 172/317/5
f 19/145/5 6/151/5 172/317/5 185/311/5
f 93/97/5 77/109/5 243/275/5 259/263/5
f 57/52/5 44/43/5 210/209/5 223/216/5
f 92/104/5 79/110/5 245/276/5 258/270/5
f 20/46/13 166/164/13 332/328/13 186/210/13
f 110/122/5 124/125/5 290/289/5 276/288/5
f 4/150/5 14/149/5 180/315/5 170/316/5
f 14/149/5 15/148/5 181/314/5 180/315/5
f 96/126/5 123/128/5 289/293/5 262/292/5
f 42/131/5 52/132/5 218/298/5 208/297/5
f 15/148/5 16/147/5 182/313/5 181/314/5
f 52/132/5 53/129/5 219/296/5 218/298/5
f 124/125/5 144/95/5 310/262/5 290/289/5
f 16/147/5 17/146/5 183/312/5 182/313/5
f 53/129/5 54/53/5 220/219/5 219/296/5
f 123/128/5 121/134/5 287/299/5 289/293/5
f 17/146/5 18/144/5 184/310/5 183/312/5
f 77/109/5 87/108/5 253/274/5 243/275/5
f 54/53/5 55/56/5 221/220/5 220/219/5
f 121/134/5 110/122/5 276/288/5 287/299/5
f 18/144/5 19/145/5 185/311/5 184/310/5
f 87/108/5 88/107/5 254/273/5 253/274/5
f 55/56/5 56/49/5 222/215/5 221/220/5
f 88/107/5 89/106/5 255/272/5 254/273/5
f 56/49/5 57/52/5 223/216/5 222/215/5
f 89/106/5 90/105/5 256/271/5 255/272/5
f 90/105/5 91/103/5 257/269/5 256/271/5
f 91/103/5 92/104/5 258/270/5 257/269/5
f 40/121/5 61/119/5 227/285/5 206/287/5
f 24/142/5 37/136/5 203/302/5 190/308/5
f 61/119/5 74/113/5 240/279/5 227/285/5
g olmo_main_Plane.018_front
usemtl front
f 62/58/14 39/3/14 205/169/14 228/224/14
f 97/127/15 96/126/15 262/292/15 263/294/15
f 26/28/16 25/24/16 191/188/16 192/194/16
f 98/133/17 97/127/17 263/294/17 264/300/17
f 63/62/16 62/58/16 228/224/16 229/228/16
f 27/38/18 26/28/18 192/194/18 193/203/18
f 99/123/19 98/133/19 264/300/19 265/291/19
f 64/72/18 63/62/18 229/228/18 230/237/18
f 28/36/20 27/38/20 193/203/20 194/201/20
f 100/124/21 99/123/21 265/291/21 266/290/21
f 65/70/20 64/72/20 230/237/20 231/235/20
f 29/34/22 28/36/22 194/201/22 195/199/22
f 101/96/23 100/124/23 266/290/23 267/261/23
f 66/68/22 65/70/22 231/235/22 232/233/22
f 30/32/24 29/34/24 195/199/24 196/197/24
f 67/66/24 66/68/24 232/233/24 233/231/24
f 31/30/25 30/32/25 196/197/25 197/195/25
f 68/64/25 67/66/25 233/231/25 234/229/25
f 147/94/14 95/93/14 261/259/14 313/258/14
f 103/76/14 147/94/14 313/258/14 269/244/14
f 78/77/14 103/76/14 269/244/14 244/243/14
f 25/24/14 76/23/14 242/189/14 191/188/14
f 165/161/14 41/45/14 207/211/14 331/327/14
f 38/6/14 23/26/14 189/191/14 204/174/14
f 75/40/14 60/60/14 226/225/14 241/208/14
f 43/41/14 75/40/14 241/208/14 209/207/14
f 5/7/14 38/6/14 204/174/14 171/173/14
f 158/158/14 162/157/14 328/323/14 324/326/14
f 13/11/26 5/7/26 171/173/26 179/178/26
f 162/157/14 163/165/14 329/332/14 328/323/14
f 51/47/26 43/41/26 209/207/26 217/214/26
f 163/165/14 164/162/14 330/330/14 329/332/14
f 39/3/14 7/2/14 173/170/14 205/169/14
f 86/81/26 78/77/26 244/243/26 252/248/26
f 41/45/14 45/44/14 211/212/14 207/211/14
f 7/2/27 8/10/27 174/176/27 173/170/27
f 164/162/14 165/161/14 331/327/14 330/330/14
f 8/10/28 9/19/28 175/186/28 174/176/28
f 45/44/27 46/154/27 212/320/27 211/212/27
f 9/19/29 10/17/29 176/184/29 175/186/29
f 76/23/14 80/74/14 246/240/14 242/189/14
f 46/154/28 47/156/28 213/322/28 212/320/28
f 10/17/30 11/15/30 177/182/30 176/184/30
f 47/156/29 48/155/29 214/321/29 213/322/29
f 11/15/31 12/13/31 178/180/31 177/182/31
f 80/74/27 81/80/27 247/246/27 246/240/27
f 48/155/30 49/153/30 215/318/30 214/321/30
f 12/13/32 13/11/32 179/178/32 178/180/32
f 81/80/28 82/89/28 248/256/28 247/246/28
f 49/153/31 50/152/31 216/319/31 215/318/31
f 82/89/29 83/87/29 249/254/29 248/256/29
f 50/152/32 51/47/32 217/214/32 216/319/32
f 83/87/30 84/85/30 250/252/30 249/254/30
f 84/85/31 85/83/31 251/250/31 250/252/31
f 85/83/32 86/81/32 252/248/32 251/250/32
f 23/26/33 31/30/33 197/195/33 189/191/33
f 60/60/33 68/64/33 234/229/33 226/225/33
f 95/93/34 101/96/34 267/261/34 261/259/34
