# Blender v3.2.0 OBJ File: 'panele.blend'
# www.blender.org
mtllib olmo_end1.mtl
o olmo_end1_Plane.021
v -0.118534 0.000000 0.010689
v -0.118534 0.000000 0.005575
v -0.134379 0.000000 0.010689
v -0.134379 0.000000 -0.001311
v -0.131556 0.000000 0.010689
v -0.131556 0.000000 0.005575
v -0.131959 0.000000 0.005155
v -0.132362 0.000000 0.003911
v -0.132765 0.000000 0.002474
v -0.133169 0.000000 0.000957
v -0.133572 0.000000 -0.000354
v -0.133975 0.000000 -0.001174
v -0.133975 0.000000 0.010689
v -0.133572 0.000000 0.010689
v -0.133169 0.000000 0.010689
v -0.132765 0.000000 0.010689
v -0.132362 0.000000 0.010689
v -0.131959 0.000000 0.010689
v -0.146800 0.000000 0.010689
v -0.158761 0.000000 0.010689
v -0.158761 0.000000 -0.001311
v -0.146800 0.000000 -0.001311
v -0.134379 0.000000 0.004689
v -0.133975 0.000000 0.004757
v -0.158761 0.000000 0.004689
v -0.146800 0.000000 0.004689
v -0.133572 0.000000 0.004952
v -0.132362 0.000000 0.005342
v -0.132765 0.000000 0.005276
v -0.133169 0.000000 0.005160
v -0.131959 0.000000 0.005564
v -0.116761 0.000000 0.005747
v -0.116761 0.000000 0.005575
v -0.117949 0.000000 0.009862
v -0.117505 0.000000 0.008416
v -0.117121 0.000000 0.006970
v -0.117121 0.000000 0.005575
v -0.117505 0.000000 0.005575
v -0.117949 0.000000 0.005575
v -0.118241 0.000000 0.005575
v -0.118241 0.000000 0.010447
v -0.118534 2.700000 0.010689
v -0.118534 2.700000 0.005575
v -0.134379 2.700000 0.010689
v -0.134379 2.700000 -0.001311
v -0.131556 2.700000 0.010689
v -0.131556 2.700000 0.005575
v -0.131959 2.700000 0.005155
v -0.132362 2.700000 0.003911
v -0.132765 2.700000 0.002474
v -0.133169 2.700000 0.000957
v -0.133572 2.700000 -0.000354
v -0.133975 2.700000 -0.001174
v -0.133975 2.700000 0.010689
v -0.133572 2.700000 0.010689
v -0.133169 2.700000 0.010689
v -0.132765 2.700000 0.010689
v -0.132362 2.700000 0.010689
v -0.131959 2.700000 0.010689
v -0.146800 2.700000 0.010689
v -0.158761 2.700000 0.010689
v -0.158761 2.700000 -0.001311
v -0.146800 2.700000 -0.001311
v -0.134379 2.700000 0.004689
v -0.133975 2.700000 0.004757
v -0.158761 2.700000 0.004689
v -0.146800 2.700000 0.004689
v -0.133572 2.700000 0.004952
v -0.132362 2.700000 0.005342
v -0.132765 2.700000 0.005276
v -0.133169 2.700000 0.005160
v -0.131959 2.700000 0.005564
v -0.116761 2.700000 0.005747
v -0.116761 2.700000 0.005575
v -0.117949 2.700000 0.009862
v -0.117505 2.700000 0.008416
v -0.117121 2.700000 0.006970
v -0.117121 2.700000 0.005575
v -0.117505 2.700000 0.005575
v -0.117949 2.700000 0.005575
v -0.118241 2.700000 0.005575
v -0.118241 2.700000 0.010447
vt 0.413902 0.500000
vt 0.413902 1.000000
vt 0.827804 1.000000
vt 0.827804 0.500000
vt 0.912322 0.000000
vt 0.912322 1.000000
vt 1.000000 1.000000
vt 1.000000 0.000000
vt 0.839878 1.000000
vt 0.839878 0.500000
vt 0.888174 0.000000
vt 0.888174 0.788766
vt 0.900248 0.928180
vt 0.900248 0.000000
vt 0.864026 0.000000
vt 0.864026 0.568117
vt 0.876100 0.658867
vt 0.876100 0.000000
vt 0.827804 0.500000
vt 0.827804 1.000000
vt 0.413902 0.000000
vt 0.827804 0.000000
vt 0.851952 0.000000
vt 0.851952 0.519469
vt 0.827804 0.000000
vt 0.839878 0.000000
vt 0.851952 1.000000
vt 0.864026 1.000000
vt 0.900248 1.000000
vt 0.876100 1.000000
vt 0.888174 1.000000
vt 1.000000 1.000000
vt 1.000000 1.000000
vt 1.000000 0.000000
vt 1.000000 0.000000
vt 1.000000 1.000000
vt 1.000000 1.000000
vt 1.000000 0.000000
vt 1.000000 0.000000
vt 1.000000 1.000000
vt 1.000000 0.000000
vt 0.413902 0.500000
vt 0.827804 0.500000
vt 0.827804 1.000000
vt 0.413902 1.000000
vt 0.912322 0.000000
vt 1.000000 0.000000
vt 1.000000 1.000000
vt 0.912322 1.000000
vt 0.839878 0.500000
vt 0.839878 1.000000
vt 0.888174 0.000000
vt 0.900248 0.000000
vt 0.900248 0.928180
vt 0.888174 0.788766
vt 0.864026 0.000000
vt 0.876100 0.000000
vt 0.876100 0.658867
vt 0.864026 0.568117
vt 0.827804 1.000000
vt 0.827804 0.500000
vt 0.413902 0.000000
vt 0.827804 0.000000
vt 0.851952 0.519469
vt 0.851952 0.000000
vt 0.827804 0.000000
vt 0.839878 0.000000
vt 0.864026 1.000000
vt 0.851952 1.000000
vt 0.900248 1.000000
vt 0.876100 1.000000
vt 0.888174 1.000000
vt 1.000000 1.000000
vt 1.000000 0.000000
vt 1.000000 0.000000
vt 1.000000 1.000000
vt 1.000000 1.000000
vt 1.000000 0.000000
vt 1.000000 0.000000
vt 1.000000 1.000000
vt 1.000000 0.000000
vt 1.000000 1.000000
vn 0.0000 -1.0000 0.0000
vn 0.0000 1.0000 0.0000
vn 0.0000 1.0000 0.0001
vn 0.0000 1.0000 -0.0001
vn 0.6357 0.0000 0.7720
vn 1.0000 0.0000 0.0000
vn 0.9593 0.0000 0.2824
vn 0.8944 0.0000 0.4473
vn 0.0000 0.0000 1.0000
vn 0.9560 0.0000 0.2935
vn 0.9666 0.0000 0.2563
vn 0.0000 0.0000 -1.0000
vn 0.7219 0.0000 -0.6920
vn -1.0000 0.0000 0.0000
vn 0.9513 0.0000 -0.3084
vn 0.9628 0.0000 -0.2702
vn 0.9664 0.0000 -0.2570
vn 0.9558 0.0000 -0.2940
vn 0.8972 0.0000 -0.4416
vn 0.3232 0.0000 -0.9463
g olmo_end1_Plane.021_gora_dol
usemtl gora_dol
s off
f 26/1/1 22/2/1 4/3/1 23/4/1
f 5/5/1 6/6/1 2/7/1 1/8/1
f 23/4/1 4/3/1 12/9/1 24/10/1
f 17/11/1 28/12/1 31/13/1 18/14/1
f 18/14/1 31/13/1 6/6/1 5/5/1
f 15/15/1 30/16/1 29/17/1 16/18/1
f 16/18/1 29/17/1 28/12/1 17/11/1
f 26/1/1 25/19/1 21/20/1 22/2/1
f 19/21/1 20/22/1 25/19/1 26/1/1
f 15/15/1 14/23/1 27/24/1 30/16/1
f 3/25/1 23/4/1 24/10/1 13/26/1
f 19/21/1 26/1/1 23/4/1 3/25/1
f 27/24/1 11/27/1 10/28/1 30/16/1
f 31/13/1 7/29/1 6/6/1
f 30/16/1 10/28/1 9/30/1 29/17/1
f 29/17/1 9/30/1 8/31/1 28/12/1
f 27/24/1 24/10/1 12/9/1 11/27/1
f 28/12/1 8/31/1 7/29/1 31/13/1
f 14/23/1 13/26/1 24/10/1 27/24/1
f 37/32/1 33/33/1 32/34/1 36/35/1
f 40/36/1 39/37/1 34/38/1 41/39/1
f 39/37/1 38/40/1 35/41/1 34/38/1
f 38/40/1 37/32/1 36/35/1 35/41/1
f 2/7/1 40/36/1 41/39/1 1/8/1
f 67/42/2 64/43/2 45/44/2 63/45/2
f 46/46/2 42/47/2 43/48/2 47/49/2
f 64/43/2 65/50/2 53/51/2 45/44/2
f 58/52/3 59/53/3 72/54/3 69/55/3
f 59/53/2 46/46/2 47/49/2 72/54/2
f 56/56/2 57/57/2 70/58/2 71/59/2
f 57/57/2 58/52/2 69/55/2 70/58/2
f 67/42/2 63/45/2 62/60/2 66/61/2
f 60/62/2 67/42/2 66/61/2 61/63/2
f 56/56/2 71/59/2 68/64/2 55/65/2
f 44/66/2 54/67/2 65/50/2 64/43/2
f 60/62/2 44/66/2 64/43/2 67/42/2
f 68/64/2 71/59/2 51/68/2 52/69/2
f 72/54/2 47/49/2 48/70/2
f 71/59/2 70/58/2 50/71/2 51/68/2
f 70/58/2 69/55/2 49/72/2 50/71/2
f 68/64/2 52/69/2 53/51/2 65/50/2
f 69/55/2 72/54/2 48/70/2 49/72/2
f 55/65/2 68/64/2 65/50/2 54/67/2
f 78/73/2 77/74/2 73/75/2 74/76/2
f 81/77/2 82/78/2 75/79/2 80/80/2
f 80/80/4 75/79/4 76/81/4 79/82/4
f 79/82/2 76/81/2 77/74/2 78/73/2
f 43/48/2 42/47/2 82/78/2 81/77/2
g olmo_end1_Plane.021_tyl
usemtl tyl
f 1/8/5 41/39/5 82/78/5 42/47/5
f 32/34/6 33/33/6 74/76/6 73/75/6
f 36/35/7 32/34/7 73/75/7 77/74/7
f 41/39/8 34/38/8 75/79/8 82/78/8
f 3/25/9 13/26/9 54/67/9 44/66/9
f 20/22/9 19/21/9 60/62/9 61/63/9
f 34/38/10 35/41/10 76/81/10 75/79/10
f 13/26/9 14/23/9 55/65/9 54/67/9
f 19/21/9 3/25/9 44/66/9 60/62/9
f 35/41/11 36/35/11 77/74/11 76/81/11
f 14/23/9 15/15/9 56/56/9 55/65/9
f 5/5/9 1/8/9 42/47/9 46/46/9
f 15/15/9 16/18/9 57/57/9 56/56/9
f 16/18/9 17/11/9 58/52/9 57/57/9
f 17/11/9 18/14/9 59/53/9 58/52/9
f 18/14/9 5/5/9 46/46/9 59/53/9
g olmo_end1_Plane.021_front
usemtl front
f 2/7/12 6/6/12 47/49/12 43/48/12
f 6/6/13 7/29/13 48/70/13 47/49/13
f 25/19/14 20/22/14 61/63/14 66/61/14
f 7/29/15 8/31/15 49/72/15 48/70/15
f 39/37/12 40/36/12 81/77/12 80/80/12
f 8/31/16 9/30/16 50/71/16 49/72/16
f 9/30/17 10/28/17 51/68/17 50/71/17
f 10/28/18 11/27/18 52/69/18 51/68/18
f 21/20/14 25/19/14 66/61/14 62/60/14
f 40/36/12 2/7/12 43/48/12 81/77/12
f 11/27/19 12/9/19 53/51/19 52/69/19
f 22/2/12 21/20/12 62/60/12 63/45/12
f 4/3/12 22/2/12 63/45/12 45/44/12
f 33/33/12 37/32/12 78/73/12 74/76/12
f 12/9/20 4/3/20 45/44/20 53/51/20
f 37/32/12 38/40/12 79/82/12 78/73/12
f 38/40/12 39/37/12 80/80/12 79/82/12
