<?xml version="1.0" encoding="utf-8"?>
<COLLADA xmlns="http://www.collada.org/2005/11/COLLADASchema" version="1.4.1" xmlns:xsi="http://www.w3.org/2001/XMLSchema-instance">
  <asset>
    <contributor>
      <author>Blender User</author>
      <authoring_tool>Blender 3.2.0 commit date:2022-06-08, commit time:10:22, hash:e05e1e369187</authoring_tool>
    </contributor>
    <created>2023-03-08T13:23:48</created>
    <modified>2023-03-08T13:23:48</modified>
    <unit name="meter" meter="1"/>
    <up_axis>Z_UP</up_axis>
  </asset>
  <library_effects>
    <effect id="gora_dol-effect">
      <profile_COMMON>
        <technique sid="common">
          <lambert>
            <emission>
              <color sid="emission">0 0 0 1</color>
            </emission>
            <diffuse>
              <color sid="diffuse">0.8 0.8 0.8 1</color>
            </diffuse>
            <index_of_refraction>
              <float sid="ior">1.45</float>
            </index_of_refraction>
          </lambert>
        </technique>
      </profile_COMMON>
    </effect>
    <effect id="tyl-effect">
      <profile_COMMON>
        <technique sid="common">
          <lambert>
            <emission>
              <color sid="emission">0 0 0 1</color>
            </emission>
            <diffuse>
              <color sid="diffuse">0.8 0.8 0.8 1</color>
            </diffuse>
            <index_of_refraction>
              <float sid="ior">1.45</float>
            </index_of_refraction>
          </lambert>
        </technique>
      </profile_COMMON>
    </effect>
    <effect id="front-effect">
      <profile_COMMON>
        <technique sid="common">
          <lambert>
            <emission>
              <color sid="emission">0 0 0 1</color>
            </emission>
            <diffuse>
              <color sid="diffuse">0.8 0.8 0.8 1</color>
            </diffuse>
            <index_of_refraction>
              <float sid="ior">1.45</float>
            </index_of_refraction>
          </lambert>
        </technique>
      </profile_COMMON>
    </effect>
  </library_effects>
  <library_images/>
  <library_materials>
    <material id="gora_dol-material" name="gora_dol">
      <instance_effect url="#gora_dol-effect"/>
    </material>
    <material id="tyl-material" name="tyl">
      <instance_effect url="#tyl-effect"/>
    </material>
    <material id="front-material" name="front">
      <instance_effect url="#front-effect"/>
    </material>
  </library_materials>
  <library_geometries>
    <geometry id="Plane_022-mesh" name="Plane.022">
      <mesh>
        <source id="Plane_022-mesh-positions">
          <float_array id="Plane_022-mesh-positions-array" count="156">0.01154673 -0.006309628 0 0.01154673 0.005690336 0 2.18481e-4 -0.006309628 0 -0.009153604 -0.006154656 0 -0.01231122 0.005690336 0 -0.01445317 -9.62178e-4 0 -0.0140962 4.68214e-4 0 -0.01373922 0.001905262 0 -0.01338219 0.003422141 0 -0.01302522 0.004733085 0 -0.01266825 0.005552589 0 -0.009047508 -0.006309628 0 2.18481e-4 0.005690336 0 -0.01338219 -9.62178e-4 0 -0.01373922 -9.62178e-4 0 -0.0140962 -9.62178e-4 0 -0.01302522 -9.62178e-4 0 0.01154673 -3.09649e-4 0 -0.01231122 -9.62178e-4 0 -0.01266825 -9.62178e-4 0 -0.007393121 -9.62178e-4 0 -0.006996333 -0.006309628 0 -0.006996333 0.005690336 0 2.18481e-4 -3.09649e-4 0 -0.008623123 -0.004846215 0 -0.008021891 -0.006309628 0 0.01154673 -0.006309628 2.7 0.01154673 0.005690336 2.7 2.18481e-4 -0.006309628 2.7 -0.009153604 -0.006154656 2.7 -0.01231122 0.005690336 2.7 -0.01445317 -9.62178e-4 2.7 -0.0140962 4.68214e-4 2.7 -0.01373922 0.001905262 2.7 -0.01338219 0.003422141 2.7 -0.01302522 0.004733085 2.7 -0.01266825 0.005552589 2.7 -0.009047508 -0.006309628 2.7 2.18481e-4 0.005690336 2.7 -0.01338219 -9.62178e-4 2.7 -0.01373922 -9.62178e-4 2.7 -0.0140962 -9.62178e-4 2.7 -0.01302522 -9.62178e-4 2.7 0.01154673 -3.09649e-4 2.7 -0.01231122 -9.62178e-4 2.7 -0.01266825 -9.62178e-4 2.7 -0.007393121 -9.62178e-4 2.7 -0.006996333 -0.006309628 2.7 -0.006996333 0.005690336 2.7 2.18481e-4 -3.09649e-4 2.7 -0.008623123 -0.004846215 2.7 -0.008021891 -0.006309628 2.7</float_array>
          <technique_common>
            <accessor source="#Plane_022-mesh-positions-array" count="52" stride="3">
              <param name="X" type="float"/>
              <param name="Y" type="float"/>
              <param name="Z" type="float"/>
            </accessor>
          </technique_common>
        </source>
        <source id="Plane_022-mesh-normals">
          <float_array id="Plane_022-mesh-normals-array" count="84">0 0 -1 -1.91828e-5 0 1 0 0 1 -0.9734032 0.2290987 0 0 -1 0 -0.9648665 0.2627409 0 0 1 0 -0.9167829 0.3993861 0 1 0 0 -0.3599845 0.9329584 0 -0.9267353 0.3757151 0 -0.8250961 -0.5649923 0 0 1 0 -0.9702399 0.2421459 0 -0.970504 0.2410855 0 -0.9533373 0.3019074 0 1.22547e-4 0 1 -3.05889e-5 0 1 -2.29432e-4 0 1 -4.58068e-4 0 0.9999999 8.00882e-4 0 0.9999997 -0.9734036 0.2290971 0 -0.9648669 0.262739 0 -0.9167817 0.3993887 0 -0.3599821 0.9329592 0 -0.8250997 -0.5649874 0 -0.9702403 0.2421441 0 -0.9705035 0.2410872 0</float_array>
          <technique_common>
            <accessor source="#Plane_022-mesh-normals-array" count="28" stride="3">
              <param name="X" type="float"/>
              <param name="Y" type="float"/>
              <param name="Z" type="float"/>
            </accessor>
          </technique_common>
        </source>
        <source id="Plane_022-mesh-map-0">
          <float_array id="Plane_022-mesh-map-0-array" count="600">0.4139021 0.5 0.8278041 1 0.8278041 0.5 0.64973 0.5 0.8278041 1 0.64973 1 0.8278041 0.5 0.8398781 1 0.8278041 1 0.4139021 0.5 0.64973 1 0.4139021 1 0.4139021 0 0.64973 0.5 0.4139021 0.5 0 0 0 0 0 0 0.64973 0 0 0 0.64973 0.5 0.4139021 0.5 0.8278041 0 0.4139021 0 0.8640262 1 0.8519522 0.5330296 0.8640262 0.6002101 0.9002483 1 0.8881742 1 0.8881743 0.8485182 0.8519521 1 0.8398781 0.5 0.8519522 0.5330296 0.8881742 1 0.8761003 0.7055587 0.8881743 0.8485182 0.8761003 1 0.8640262 0.6002101 0.8761003 0.7055587 0.4139021 0.5 0.8278041 1 0.4139021 1 0.64973 0.5 0.8278041 1 0.8278041 0.5 0.8278041 0.5 0.8398781 1 0.8398781 0.5 0.4139021 0.5 0.64973 1 0.64973 0.5 0.4139021 0 0.64973 0.5 0.64973 0 0 0 0 0 0 0 0.64973 0 0 0 0 0 0.8278041 0 0.4139021 0.5 0.4139021 0 0.8519522 0.5330296 0.8640262 1 0.8640262 0.6002101 0.9002483 1 0.8881743 0.8485182 0.8881742 1 0.8398781 0.5 0.8519521 1 0.8519522 0.5330296 0.8761003 0.7055587 0.8881742 1 0.8881743 0.8485182 0.8640262 0.6002101 0.8761003 1 0.8761003 0.7055587 0.8761003 1 0.8640262 1 0.8640262 1 0.8761003 0.7055587 0.8881743 0.8485182 0.8881743 0.8485182 0.8278041 0 0.4139021 0 0.4139021 0 0.8640262 1 0.8519521 1 0.8519521 1 0.8640262 0.6002101 0.8761003 0.7055587 0.8761003 0.7055587 0.8278041 1 0.64973 1 0.64973 1 0.8278041 0.5 0.8398781 0.5 0.8398781 0.5 0.8519521 1 0.8398781 1 0.8398781 1 0.8278041 1 0.8278041 0.5 0.8278041 0.5 0.64973 1 0.4139021 1 0.4139021 1 0.64973 0.5 0.8278041 0.5 0.8278041 0.5 0.64973 0 0 0 0 0 0.8278041 0.5 0.8278041 0 0.8278041 0 0.8398781 1 0.8278041 1 0.8278041 1 0 0 0 0 0 0 0 0 0 0 0 0 0.4139021 1 0.8278041 1 0.8278041 1 0.8519522 0.5330296 0.8640262 0.6002101 0.8640262 0.6002101 0 0 0 0 0 0 0.9002483 1 0.8881742 1 0.8881742 1 0.8881743 0.8485182 0.9002483 1 0.9002483 1 0.8881742 1 0.8761003 1 0.8761003 1 0.8398781 0.5 0.8519522 0.5330296 0.8519522 0.5330296 0 0 0.64973 0.5 0.64973 0.5 0.4139021 0 0.64973 0 0.64973 0 0.4139021 0.5 0.4139021 1 0.8278041 1 0.64973 0.5 0.8278041 0.5 0.8278041 1 0.8278041 0.5 0.8398781 0.5 0.8398781 1 0.4139021 0.5 0.64973 0.5 0.64973 1 0.4139021 0 0.64973 0 0.64973 0.5 0 0 0 0 0 0 0.64973 0 0 0 0 0 0.4139021 0.5 0.8278041 0.5 0.8278041 0 0.8640262 1 0.8519521 1 0.8519522 0.5330296 0.8519521 1 0.8398781 1 0.8398781 0.5 0.8881742 1 0.8761003 1 0.8761003 0.7055587 0.8761003 1 0.8640262 1 0.8640262 0.6002101 0.4139021 0.5 0.8278041 0.5 0.8278041 1 0.64973 0.5 0.64973 1 0.8278041 1 0.8278041 0.5 0.8278041 1 0.8398781 1 0.4139021 0.5 0.4139021 1 0.64973 1 0.4139021 0 0.4139021 0.5 0.64973 0.5 0 0 0 0 0 0 0.64973 0 0.64973 0.5 0 0 0.8278041 0 0.8278041 0.5 0.4139021 0.5 0.8519522 0.5330296 0.8519521 1 0.8640262 1 0.8398781 0.5 0.8398781 1 0.8519521 1 0.8761003 0.7055587 0.8761003 1 0.8881742 1 0.8640262 0.6002101 0.8640262 1 0.8761003 1 0.8761003 1 0.8761003 1 0.8640262 1 0.8761003 0.7055587 0.8761003 0.7055587 0.8881743 0.8485182 0.8278041 0 0.8278041 0 0.4139021 0 0.8640262 1 0.8640262 1 0.8519521 1 0.8640262 0.6002101 0.8640262 0.6002101 0.8761003 0.7055587 0.8278041 1 0.8278041 1 0.64973 1 0.8278041 0.5 0.8278041 0.5 0.8398781 0.5 0.8519521 1 0.8519521 1 0.8398781 1 0.8278041 1 0.8278041 1 0.8278041 0.5 0.64973 1 0.64973 1 0.4139021 1 0.64973 0.5 0.64973 0.5 0.8278041 0.5 0.64973 0 0.64973 0 0 0 0.8278041 0.5 0.8278041 0.5 0.8278041 0 0.8398781 1 0.8398781 1 0.8278041 1 0 0 0 0 0 0 0 0 0 0 0 0 0.4139021 1 0.4139021 1 0.8278041 1 0.8519522 0.5330296 0.8519522 0.5330296 0.8640262 0.6002101 0 0 0 0 0 0 0.9002483 1 0.9002483 1 0.8881742 1 0.8881743 0.8485182 0.8881743 0.8485182 0.9002483 1 0.8881742 1 0.8881742 1 0.8761003 1 0.8398781 0.5 0.8398781 0.5 0.8519522 0.5330296 0 0 0 0 0.64973 0.5 0.4139021 0 0.4139021 0 0.64973 0</float_array>
          <technique_common>
            <accessor source="#Plane_022-mesh-map-0-array" count="300" stride="2">
              <param name="S" type="float"/>
              <param name="T" type="float"/>
            </accessor>
          </technique_common>
        </source>
        <vertices id="Plane_022-mesh-vertices">
          <input semantic="POSITION" source="#Plane_022-mesh-positions"/>
        </vertices>
        <triangles material="gora_dol-material" count="50">
          <input semantic="VERTEX" source="#Plane_022-mesh-vertices" offset="0"/>
          <input semantic="NORMAL" source="#Plane_022-mesh-normals" offset="1"/>
          <input semantic="TEXCOORD" source="#Plane_022-mesh-map-0" offset="2" set="0"/>
          <p>23 0 0 1 0 1 17 0 2 20 0 3 4 0 4 22 0 5 18 0 6 10 0 7 4 0 8 23 0 9 22 0 10 12 0 11 2 0 12 20 0 13 23 0 14 3 0 15 25 0 16 11 0 17 21 0 18 24 0 19 20 0 20 23 0 21 0 0 22 2 0 23 8 0 24 16 0 25 13 0 26 5 0 27 6 0 28 15 0 29 9 0 30 19 0 31 16 0 32 6 0 33 14 0 34 15 0 35 7 0 36 13 0 37 14 0 38 49 1 39 27 1 40 38 1 41 46 2 42 30 2 43 44 2 44 44 2 45 36 2 46 45 2 47 49 2 48 48 2 49 46 2 50 28 2 51 46 2 52 47 2 53 29 2 54 51 2 55 50 2 56 47 2 57 50 2 58 51 2 59 26 2 60 49 2 61 28 2 62 42 2 63 34 2 64 39 2 65 31 2 66 41 2 67 32 2 68 45 2 69 35 2 70 42 2 71 40 2 72 32 2 73 41 2 74 39 2 75 33 2 76 40 2 77 23 0 153 12 0 154 1 0 155 20 0 156 18 0 157 4 0 158 18 0 159 19 0 160 10 0 161 23 0 162 20 0 163 22 0 164 2 0 165 21 0 166 20 0 167 3 0 168 24 0 169 25 0 170 21 0 171 25 0 172 24 0 173 23 0 174 17 0 175 0 0 176 8 0 177 9 0 178 16 0 179 9 0 180 10 0 181 19 0 182 6 0 183 7 0 184 14 0 185 7 0 186 8 0 187 13 0 188 49 2 189 43 2 190 27 2 191 46 2 192 48 2 193 30 2 194 44 16 195 30 16 196 36 16 197 49 2 198 38 2 199 48 2 200 28 17 201 49 17 202 46 17 203 29 2 204 37 2 205 51 2 206 47 18 207 46 18 208 50 18 209 26 2 210 43 2 211 49 2 212 42 19 213 35 19 214 34 19 215 45 20 216 36 20 217 35 20 218 40 2 219 33 2 220 32 2 221 39 2 222 34 2 223 33 2 224</p>
        </triangles>
        <triangles material="tyl-material" count="32">
          <input semantic="VERTEX" source="#Plane_022-mesh-vertices" offset="0"/>
          <input semantic="NORMAL" source="#Plane_022-mesh-normals" offset="1"/>
          <input semantic="TEXCOORD" source="#Plane_022-mesh-map-0" offset="2" set="0"/>
          <p>14 4 81 41 4 82 15 4 83 0 4 84 28 4 85 2 4 86 13 4 90 40 4 91 14 4 92 18 4 96 45 4 97 19 4 98 1 8 102 43 8 103 17 8 104 20 4 108 44 4 109 18 4 110 21 4 111 51 4 112 25 4 113 17 8 114 26 8 115 0 8 116 3 10 120 50 10 121 24 10 122 11 11 123 29 11 124 3 11 125 16 4 129 39 4 130 13 4 131 25 4 132 37 4 133 11 4 134 15 4 138 31 4 139 5 4 140 19 4 144 42 4 145 16 4 146 24 15 147 46 15 148 20 15 149 2 4 150 47 4 151 21 4 152 14 4 228 40 4 229 41 4 230 0 4 231 26 4 232 28 4 233 13 4 237 39 4 238 40 4 239 18 4 243 44 4 244 45 4 245 1 8 249 27 8 250 43 8 251 20 4 255 46 4 256 44 4 257 21 4 258 47 4 259 51 4 260 17 8 261 43 8 262 26 8 263 3 10 267 29 10 268 50 10 269 11 25 270 37 25 271 29 25 272 16 4 276 42 4 277 39 4 278 25 4 279 51 4 280 37 4 281 15 4 285 41 4 286 31 4 287 19 4 291 45 4 292 42 4 293 24 15 294 50 15 295 46 15 296 2 4 297 28 4 298 47 4 299</p>
        </triangles>
        <triangles material="front-material" count="18">
          <input semantic="VERTEX" source="#Plane_022-mesh-vertices" offset="0"/>
          <input semantic="NORMAL" source="#Plane_022-mesh-normals" offset="1"/>
          <input semantic="TEXCOORD" source="#Plane_022-mesh-map-0" offset="2" set="0"/>
          <p>7 3 78 34 3 79 8 3 80 8 5 87 35 5 88 9 5 89 4 6 93 48 6 94 22 6 95 9 7 99 36 7 100 10 7 101 22 6 105 38 6 106 12 6 107 10 9 117 30 9 118 4 9 119 12 12 126 27 12 127 1 12 128 5 13 135 32 13 136 6 13 137 6 14 141 33 14 142 7 14 143 7 21 225 33 21 226 34 21 227 8 22 234 34 22 235 35 22 236 4 6 240 30 6 241 48 6 242 9 23 246 35 23 247 36 23 248 22 6 252 48 6 253 38 6 254 10 24 264 36 24 265 30 24 266 12 12 273 38 12 274 27 12 275 5 26 282 31 26 283 32 26 284 6 27 288 32 27 289 33 27 290</p>
        </triangles>
      </mesh>
    </geometry>
  </library_geometries>
  <library_visual_scenes>
    <visual_scene id="Scene" name="Scene">
      <node id="olmo_end2" name="olmo_end2" type="NODE">
        <matrix sid="transform">1 0 0 0.07310517 0 1 0 -0.004378873 0 0 1 0 0 0 0 1</matrix>
        <instance_geometry url="#Plane_022-mesh" name="olmo_end2">
          <bind_material>
            <technique_common>
              <instance_material symbol="gora_dol-material" target="#gora_dol-material">
                <bind_vertex_input semantic="UVMap" input_semantic="TEXCOORD" input_set="0"/>
              </instance_material>
              <instance_material symbol="tyl-material" target="#tyl-material">
                <bind_vertex_input semantic="UVMap" input_semantic="TEXCOORD" input_set="0"/>
              </instance_material>
              <instance_material symbol="front-material" target="#front-material">
                <bind_vertex_input semantic="UVMap" input_semantic="TEXCOORD" input_set="0"/>
              </instance_material>
            </technique_common>
          </bind_material>
        </instance_geometry>
      </node>
    </visual_scene>
  </library_visual_scenes>
  <scene>
    <instance_visual_scene url="#Scene"/>
  </scene>
</COLLADA>