# Blender v3.2.0 OBJ File: 'panele.blend'
# www.blender.org
mtllib olmo_end2.mtl
o olmo_end2_Plane.022
v 0.084652 0.000000 0.010689
v 0.084652 0.000000 -0.001311
v 0.073324 0.000000 0.010689
v 0.063952 0.000000 0.010534
v 0.060794 0.000000 -0.001311
v 0.058652 0.000000 0.005341
v 0.059009 0.000000 0.003911
v 0.059366 0.000000 0.002474
v 0.059723 0.000000 0.000957
v 0.060080 0.000000 -0.000354
v 0.060437 0.000000 -0.001174
v 0.064058 0.000000 0.010689
v 0.073324 0.000000 -0.001311
v 0.059723 0.000000 0.005341
v 0.059366 0.000000 0.005341
v 0.059009 0.000000 0.005341
v 0.060080 0.000000 0.005341
v 0.084652 0.000000 0.004689
v 0.060794 0.000000 0.005341
v 0.060437 0.000000 0.005341
v 0.065712 0.000000 0.005341
v 0.066109 0.000000 0.010689
v 0.066109 0.000000 -0.001311
v 0.073324 0.000000 0.004689
v 0.064482 0.000000 0.009225
v 0.065083 0.000000 0.010689
v 0.084652 2.700000 0.010689
v 0.084652 2.700000 -0.001311
v 0.073324 2.700000 0.010689
v 0.063952 2.700000 0.010534
v 0.060794 2.700000 -0.001311
v 0.058652 2.700000 0.005341
v 0.059009 2.700000 0.003911
v 0.059366 2.700000 0.002474
v 0.059723 2.700000 0.000957
v 0.060080 2.700000 -0.000354
v 0.060437 2.700000 -0.001174
v 0.064058 2.700000 0.010689
v 0.073324 2.700000 -0.001311
v 0.059723 2.700000 0.005341
v 0.059366 2.700000 0.005341
v 0.059009 2.700000 0.005341
v 0.060080 2.700000 0.005341
v 0.084652 2.700000 0.004689
v 0.060794 2.700000 0.005341
v 0.060437 2.700000 0.005341
v 0.065712 2.700000 0.005341
v 0.066109 2.700000 0.010689
v 0.066109 2.700000 -0.001311
v 0.073324 2.700000 0.004689
v 0.064482 2.700000 0.009225
v 0.065083 2.700000 0.010689
vt 0.413902 0.500000
vt 0.413902 1.000000
vt 0.827804 1.000000
vt 0.827804 0.500000
vt 0.649730 0.500000
vt 0.827804 0.500000
vt 0.827804 1.000000
vt 0.649730 1.000000
vt 0.839878 0.500000
vt 0.839878 1.000000
vt 0.413902 0.000000
vt 0.649730 0.000000
vt 0.000000 0.000000
vt 0.000000 0.000000
vt 0.000000 0.000000
vt 0.000000 0.000000
vt 0.827804 0.000000
vt 0.864026 0.600210
vt 0.864026 1.000000
vt 0.851952 1.000000
vt 0.851952 0.533030
vt 0.900248 1.000000
vt 0.888174 1.000000
vt 0.888174 0.848518
vt 0.876100 1.000000
vt 0.876100 0.705559
vt 0.413902 0.500000
vt 0.827804 0.500000
vt 0.827804 1.000000
vt 0.413902 1.000000
vt 0.649730 0.500000
vt 0.649730 1.000000
vt 0.827804 1.000000
vt 0.827804 0.500000
vt 0.839878 1.000000
vt 0.839878 0.500000
vt 0.413902 0.000000
vt 0.649730 0.000000
vt 0.000000 0.000000
vt 0.000000 0.000000
vt 0.000000 0.000000
vt 0.000000 0.000000
vt 0.827804 0.000000
vt 0.864026 0.600210
vt 0.851952 0.533030
vt 0.851952 1.000000
vt 0.864026 1.000000
vt 0.900248 1.000000
vt 0.888174 0.848518
vt 0.888174 1.000000
vt 0.876100 0.705559
vt 0.876100 1.000000
vn 0.0000 -1.0000 0.0000
vn 0.0000 1.0000 0.0000
vn 0.0000 1.0000 -0.0001
vn 0.0000 0.0000 1.0000
vn 1.0000 0.0000 0.0000
vn -0.9267 0.0000 -0.3757
vn -0.8251 0.0000 0.5650
vn -0.9533 0.0000 -0.3019
vn -0.9734 0.0000 -0.2291
vn -0.9649 0.0000 -0.2627
vn 0.0000 0.0000 -1.0000
vn -0.9168 0.0000 -0.3994
vn -0.3600 0.0000 -0.9330
vn -0.9702 0.0000 -0.2421
vn -0.9705 0.0000 -0.2411
g olmo_end2_Plane.022_gora_dol
usemtl gora_dol
s off
f 24/1/1 13/2/1 2/3/1 18/4/1
f 21/5/1 19/6/1 5/7/1 23/8/1
f 19/6/1 20/9/1 11/10/1 5/7/1
f 24/1/1 21/5/1 23/8/1 13/2/1
f 3/11/1 22/12/1 21/5/1 24/1/1
f 4/13/1 25/14/1 26/15/1 12/16/1
f 22/12/1 26/15/1 25/14/1 21/5/1
f 3/11/1 24/1/1 18/4/1 1/17/1
f 14/18/1 9/19/1 10/20/1 17/21/1
f 6/22/1 7/23/1 16/24/1
f 17/21/1 10/20/1 11/10/1 20/9/1
f 16/24/1 7/23/1 8/25/1 15/26/1
f 15/26/1 8/25/1 9/19/1 14/18/1
f 50/27/2 44/28/2 28/29/2 39/30/2
f 47/31/2 49/32/2 31/33/2 45/34/2
f 45/34/2 31/33/2 37/35/2 46/36/2
f 50/27/2 39/30/2 49/32/2 47/31/2
f 29/37/2 50/27/2 47/31/2 48/38/2
f 30/39/3 38/40/3 52/41/3 51/42/3
f 48/38/2 47/31/2 51/42/2 52/41/2
f 29/37/2 27/43/2 44/28/2 50/27/2
f 40/44/2 43/45/2 36/46/2 35/47/2
f 32/48/2 42/49/2 33/50/2
f 43/45/2 46/36/2 37/35/2 36/46/2
f 42/49/2 41/51/2 34/52/2 33/50/2
f 41/51/2 40/44/2 35/47/2 34/52/2
g olmo_end2_Plane.022_tyl
usemtl tyl
f 16/24/4 15/26/4 41/51/4 42/49/4
f 3/11/4 1/17/4 27/43/4 29/37/4
f 15/26/4 14/18/4 40/44/4 41/51/4
f 20/9/4 19/6/4 45/34/4 46/36/4
f 18/4/5 2/3/5 28/29/5 44/28/5
f 19/6/4 21/5/4 47/31/4 45/34/4
f 26/15/4 22/12/4 48/38/4 52/41/4
f 1/17/5 18/4/5 44/28/5 27/43/5
f 25/14/6 4/13/6 30/39/6 51/42/6
f 4/13/7 12/16/7 38/40/7 30/39/7
f 14/18/4 17/21/4 43/45/4 40/44/4
f 12/16/4 26/15/4 52/41/4 38/40/4
f 6/22/4 16/24/4 42/49/4 32/48/4
f 17/21/4 20/9/4 46/36/4 43/45/4
f 21/5/8 25/14/8 51/42/8 47/31/8
f 22/12/4 3/11/4 29/37/4 48/38/4
g olmo_end2_Plane.022_front
usemtl front
f 9/19/9 8/25/9 34/52/9 35/47/9
f 10/20/10 9/19/10 35/47/10 36/46/10
f 23/8/11 5/7/11 31/33/11 49/32/11
f 11/10/12 10/20/12 36/46/12 37/35/12
f 13/2/11 23/8/11 49/32/11 39/30/11
f 5/7/13 11/10/13 37/35/13 31/33/13
f 2/3/11 13/2/11 39/30/11 28/29/11
f 7/23/14 6/22/14 32/48/14 33/50/14
f 8/25/15 7/23/15 33/50/15 34/52/15
