# Blender 4.0.2
# www.blender.org
mtllib gresso_R.mtl
o Gresso_R
v 0.112611 1.000000 -0.052627
v 0.143111 1.000000 -0.057627
v 0.143111 1.000000 -0.053497
v 0.143111 -1.700000 -0.057627
v 0.127861 1.000000 -0.057627
v 0.127861 1.000000 -0.055993
v 0.112611 -1.700000 -0.052627
v 0.143111 -1.700000 -0.053497
v 0.127861 -1.700000 -0.057627
v 0.127861 -1.700000 -0.055993
v 0.141685 1.000000 -0.044780
v 0.143111 1.000000 -0.045430
v 0.143111 1.000000 -0.044736
v 0.142940 1.000000 -0.044628
v 0.141685 -1.700000 -0.044780
v 0.143111 -1.700000 -0.045430
v 0.142940 -1.700000 -0.044628
v 0.143111 -1.700000 -0.044736
v 0.114036 1.000000 -0.044780
v 0.112611 1.000000 -0.044627
v 0.113323 1.000000 -0.044632
v 0.112802 1.000000 -0.044627
v 0.112611 -1.700000 -0.044627
v 0.114036 -1.700000 -0.044780
v 0.112802 -1.700000 -0.044627
v 0.113323 -1.700000 -0.044632
v 0.140172 1.000000 -0.045469
v 0.115550 1.000000 -0.045469
v 0.127861 1.000000 -0.055190
v 0.138095 1.000000 -0.046678
v 0.135765 1.000000 -0.047744
v 0.133241 1.000000 -0.048744
v 0.130584 1.000000 -0.049497
v 0.127861 1.000000 -0.049794
v 0.125137 1.000000 -0.049497
v 0.122481 1.000000 -0.048744
v 0.119956 1.000000 -0.047744
v 0.117627 1.000000 -0.046678
v 0.115550 -1.700000 -0.045469
v 0.140172 -1.700000 -0.045469
v 0.127861 -1.700000 -0.055190
v 0.117627 -1.700000 -0.046678
v 0.119956 -1.700000 -0.047744
v 0.122481 -1.700000 -0.048744
v 0.125137 -1.700000 -0.049497
v 0.127861 -1.700000 -0.049794
v 0.130584 -1.700000 -0.049497
v 0.133241 -1.700000 -0.048744
v 0.135765 -1.700000 -0.047744
v 0.138095 -1.700000 -0.046678
v 0.118611 1.000000 -0.052627
v 0.118611 -1.700000 -0.052627
v 0.118611 1.000000 -0.057627
v 0.118611 -1.700000 -0.057627
vn -0.0000 -1.0000 -0.0000
vn -0.4145 -0.0000 -0.9100
vn 0.4145 -0.0000 -0.9100
vn -0.0000 1.0000 -0.0000
vn 1.0000 -0.0000 -0.0000
vn -0.0000 -0.0000 1.0000
vn -0.0020 1.0000 -0.0000
vn -0.5348 -0.0000 -0.8449
vn 0.1200 -0.0000 -0.9928
vn -0.2036 -0.0000 -0.9791
vn -0.0086 -0.0000 -1.0000
vn -0.0000 -0.0000 -1.0000
vn -1.0000 -0.0000 -0.0000
vn -0.0004 1.0000 -0.0000
vn -0.5028 -0.0000 -0.8644
vn -0.4164 -0.0000 -0.9092
vn -0.3682 -0.0000 -0.9298
vn -0.2727 -0.0000 -0.9621
vn -0.1086 -0.0000 -0.9941
vn 0.1086 -0.0000 -0.9941
vn 0.2727 -0.0000 -0.9621
vn 0.3682 -0.0000 -0.9298
vn 0.4164 -0.0000 -0.9092
vn 0.5027 -0.0000 -0.8644
vt 0.009131 0.000528
vt 0.012037 0.002222
vt 0.013284 0.005648
vt 0.012986 0.005648
vt 0.009386 0.001088
vt 0.013889 0.005648
vt 0.013889 0.011296
vt 0.012359 0.011296
vt 0.157798 -7.000000
vt 0.162275 -7.000000
vt 0.162275 8.000000
vt 0.157798 8.000000
vt 0.013889 0.002222
vt 0.233821 -7.000000
vt 0.238140 -7.000000
vt 0.238140 8.000000
vt 0.233821 8.000000
vt 0.014792 0.005648
vt 0.018392 0.010208
vt 0.018647 0.010768
vt 0.018406 0.011296
vt 0.015419 0.011296
vt 0.014494 0.005648
vt 0.013889 0.011296
vt 0.013889 0.005648
vt 0.018704 0.000000
vt 0.018704 0.000071
vt 0.018702 0.000264
vt 0.018647 0.000528
vt 0.015741 0.002222
vt 0.015741 -0.000000
vt 0.013889 0.002222
vt 0.335015 8.000000
vt 0.320475 8.000000
vt 0.320475 -7.000000
vt 0.335015 -7.000000
vt 0.009386 0.010208
vt 0.009371 0.011296
vt 0.009131 0.010768
vt 0.000000 0.000000
vt 0.005648 0.000000
vt 0.005648 1.000000
vt 0.000000 1.000000
vt 0.009076 0.000264
vt 0.009074 0.000071
vt 0.009074 -0.000000
vt 0.012037 -0.000000
vt 0.009114 0.011296
vt 0.009074 0.011233
vt 0.018703 0.011233
vt 0.018663 0.011296
vt 0.242277 -7.000000
vt 0.242277 8.000000
vt 0.241769 8.000000
vt 0.241769 -7.000000
vt 0.155710 8.000000
vt 0.155710 -7.000000
vt 0.154194 8.000000
vt 0.154194 -7.000000
vt 0.153639 8.000000
vt 0.153639 -7.000000
vt 0.279764 -7.000000
vt 0.303027 -7.000000
vt 0.303027 8.000000
vt 0.279764 8.000000
vt 0.009833 0.009438
vt 0.010229 0.008576
vt 0.010599 0.007641
vt 0.010878 0.006657
vt 0.010988 0.005648
vt 0.010878 0.004639
vt 0.010599 0.003655
vt 0.010229 0.002721
vt 0.009833 0.001858
vt 0.267752 8.000000
vt 0.267752 -7.000000
vt 0.018392 0.001088
vt 0.017944 0.001858
vt 0.017549 0.002721
vt 0.017179 0.003655
vt 0.016900 0.004639
vt 0.016790 0.005648
vt 0.016900 0.006657
vt 0.017179 0.007641
vt 0.017549 0.008576
vt 0.017944 0.009438
vt 0.168449 -7.000000
vt 0.168449 8.000000
vt 0.175340 -7.000000
vt 0.175340 8.000000
vt 0.182788 -7.000000
vt 0.182788 8.000000
vt 0.190594 -7.000000
vt 0.190594 8.000000
vt 0.198542 -7.000000
vt 0.198542 8.000000
vt 0.206422 -7.000000
vt 0.206422 8.000000
vt 0.214055 -7.000000
vt 0.214055 8.000000
vt 0.221276 -7.000000
vt 0.221276 8.000000
vt 0.227923 -7.000000
vt 0.227923 8.000000
vt 0.009074 0.000000
vt 0.009074 1.000000
vt 0.244293 -7.000000
vt 0.244293 8.000000
s 0
g Gresso_R_top_bottom
usemtl top_bottom
f 19/1/1 51/2/1 6/3/1 29/4/1 28/5/1
f 6/3/1 5/6/1 2/7/1 3/8/1
f 51/2/1 53/13/1 5/6/1 6/3/1
f 41/18/4 40/19/4 15/20/4 16/21/4 8/22/4 10/23/4
f 10/23/4 8/22/4 4/24/4 9/25/4
f 23/26/4 25/27/4 26/28/4 24/29/4 52/30/4 7/31/4
f 52/30/4 10/23/4 9/25/4 54/32/4
f 27/37/1 29/4/1 6/3/1 3/8/1 12/38/1 11/39/1
f 51/2/1 19/1/1 21/44/1 22/45/1 20/46/1 1/47/1
f 13/48/1 14/49/1 12/38/1
f 14/49/1 11/39/1 12/38/1
f 15/20/4 17/50/4 16/21/4
f 17/50/7 18/51/7 16/21/7
f 27/37/1 30/66/1 29/4/1
f 30/66/1 31/67/1 29/4/1
f 31/67/1 32/68/1 29/4/1
f 32/68/1 33/69/1 29/4/1
f 33/69/1 34/70/1 29/4/1
f 34/70/1 35/71/1 29/4/1
f 35/71/1 36/72/1 29/4/1
f 36/72/1 37/73/1 29/4/1
f 37/73/1 38/74/1 29/4/1
f 38/74/1 28/5/1 29/4/1
f 39/77/14 42/78/14 41/18/14
f 42/78/4 43/79/4 41/18/4
f 43/79/4 44/80/4 41/18/4
f 44/80/4 45/81/4 41/18/4
f 45/81/4 46/82/4 41/18/4
f 46/82/4 47/83/4 41/18/4
f 47/83/4 48/84/4 41/18/4
f 48/84/4 49/85/4 41/18/4
f 49/85/4 50/86/4 41/18/4
f 50/86/4 40/19/4 41/18/4
f 52/30/4 24/29/4 39/77/4 41/18/4 10/23/4
g Gresso_R_back
usemtl back
f 2/40/6 5/41/6 9/42/6 4/43/6
f 5/41/6 53/105/6 54/106/6 9/42/6
g Gresso_R_front_gresso
usemtl front_gresso
f 19/9/2 28/10/2 39/11/2 24/12/2
f 27/14/3 11/15/3 15/16/3 40/17/3
f 52/33/5 54/34/5 53/35/5 51/36/5
f 13/52/8 18/53/8 17/54/8 14/55/8
f 14/55/9 17/54/9 15/16/9 11/15/9
f 19/9/10 24/12/10 26/56/10 21/57/10
f 21/57/11 26/56/11 25/58/11 22/59/11
f 22/59/12 25/58/12 23/60/12 20/61/12
f 1/62/5 20/63/5 23/64/5 7/65/5
f 2/62/13 4/65/13 8/75/13 3/76/13
f 39/11/15 28/10/15 38/87/15 42/88/15
f 42/88/16 38/87/16 37/89/16 43/90/16
f 43/90/17 37/89/17 36/91/17 44/92/17
f 44/92/18 36/91/18 35/93/18 45/94/18
f 45/94/19 35/93/19 34/95/19 46/96/19
f 46/96/20 34/95/20 33/97/20 47/98/20
f 47/98/21 33/97/21 32/99/21 48/100/21
f 48/100/22 32/99/22 31/101/22 49/102/22
f 49/102/23 31/101/23 30/103/23 50/104/23
f 50/104/24 30/103/24 27/14/24 40/17/24
f 1/35/6 7/34/6 52/64/6 51/63/6
f 12/107/13 3/76/13 8/75/13 16/108/13
f 13/52/13 12/107/13 16/108/13 18/53/13
