# Blender 4.0.2
# www.blender.org
mtllib gresso_main.mtl
o Gresso_main
v 0.097611 1.000000 -0.057627
v 0.097611 1.000000 -0.052627
v -0.151389 1.000000 -0.052627
v 0.092611 1.000000 -0.057627
v 0.092611 1.000000 -0.052627
v -0.120889 1.000000 -0.057627
v 0.084986 1.000000 -0.057627
v -0.090389 1.000000 -0.057627
v -0.059889 1.000000 -0.057627
v -0.029389 1.000000 -0.057627
v 0.001111 1.000000 -0.057627
v 0.031611 1.000000 -0.057627
v 0.062111 1.000000 -0.057627
v 0.062111 1.000000 -0.053497
v 0.031611 1.000000 -0.053497
v 0.001111 1.000000 -0.053497
v -0.029389 1.000000 -0.053497
v -0.059889 1.000000 -0.053497
v -0.090389 1.000000 -0.053497
v -0.120889 1.000000 -0.053497
v 0.077361 1.000000 -0.057627
v 0.077361 1.000000 -0.055993
v 0.046861 1.000000 -0.057627
v 0.046861 1.000000 -0.055993
v 0.016361 1.000000 -0.057627
v 0.016361 1.000000 -0.055993
v -0.014139 1.000000 -0.057627
v -0.120889 -1.700000 -0.057627
v -0.014139 1.000000 -0.055993
v -0.044639 1.000000 -0.057627
v 0.092611 -1.700000 -0.052627
v -0.044639 1.000000 -0.055993
v -0.075139 1.000000 -0.057627
v -0.075139 1.000000 -0.055993
v -0.105639 1.000000 -0.057627
v -0.105639 1.000000 -0.055993
v 0.092611 -1.700000 -0.057627
v -0.136139 1.000000 -0.057627
v -0.136139 1.000000 -0.055993
v -0.151389 -1.700000 -0.052627
v 0.097611 -1.700000 -0.052627
v 0.097611 -1.700000 -0.057627
v 0.081173 1.000000 -0.057627
v -0.090389 -1.700000 -0.057627
v -0.059889 -1.700000 -0.057627
v -0.029389 -1.700000 -0.057627
v 0.001111 -1.700000 -0.057627
v 0.031611 -1.700000 -0.057627
v 0.062111 -1.700000 -0.057627
v 0.062111 -1.700000 -0.053497
v 0.031611 -1.700000 -0.053497
v 0.001111 -1.700000 -0.053497
v -0.029389 -1.700000 -0.053497
v -0.059889 -1.700000 -0.053497
v -0.090389 -1.700000 -0.053497
v -0.120889 -1.700000 -0.053497
v 0.077361 -1.700000 -0.057627
v 0.077361 -1.700000 -0.055993
v 0.046861 -1.700000 -0.057627
v 0.046861 -1.700000 -0.055993
v 0.016361 -1.700000 -0.057627
v 0.016361 -1.700000 -0.055993
v -0.014139 -1.700000 -0.057627
v -0.014139 -1.700000 -0.055993
v -0.044639 -1.700000 -0.057627
v -0.044639 -1.700000 -0.055993
v -0.075139 -1.700000 -0.057627
v -0.075139 -1.700000 -0.055993
v -0.105639 -1.700000 -0.057627
v -0.105639 -1.700000 -0.055993
v -0.136139 -1.700000 -0.057627
v -0.136139 -1.700000 -0.055993
v 0.063536 1.000000 -0.044780
v 0.060685 1.000000 -0.044780
v 0.062111 1.000000 -0.045430
v 0.062633 1.000000 -0.044628
v 0.061589 1.000000 -0.044628
v 0.033036 1.000000 -0.044780
v 0.030185 1.000000 -0.044780
v 0.031611 1.000000 -0.045430
v 0.032133 1.000000 -0.044628
v 0.031089 1.000000 -0.044628
v 0.002536 1.000000 -0.044780
v -0.000315 1.000000 -0.044780
v 0.001111 1.000000 -0.045430
v 0.001633 1.000000 -0.044628
v 0.000589 1.000000 -0.044628
v -0.027964 1.000000 -0.044780
v -0.030815 1.000000 -0.044780
v -0.029389 1.000000 -0.045430
v -0.028867 1.000000 -0.044628
v -0.029911 1.000000 -0.044628
v -0.058464 1.000000 -0.044780
v -0.061315 1.000000 -0.044780
v -0.059889 1.000000 -0.045430
v -0.059367 1.000000 -0.044628
v -0.060411 1.000000 -0.044628
v -0.088964 1.000000 -0.044780
v -0.091815 1.000000 -0.044780
v -0.090389 1.000000 -0.045430
v -0.089867 1.000000 -0.044628
v -0.090911 1.000000 -0.044628
v -0.119464 1.000000 -0.044780
v -0.122315 1.000000 -0.044780
v -0.120889 1.000000 -0.045430
v -0.120367 1.000000 -0.044628
v -0.121411 1.000000 -0.044628
v 0.060685 -1.700000 -0.044780
v 0.063536 -1.700000 -0.044780
v 0.062111 -1.700000 -0.045430
v 0.061589 -1.700000 -0.044628
v 0.062633 -1.700000 -0.044628
v 0.030185 -1.700000 -0.044780
v 0.033036 -1.700000 -0.044780
v 0.031611 -1.700000 -0.045430
v 0.031089 -1.700000 -0.044628
v 0.032133 -1.700000 -0.044628
v -0.000315 -1.700000 -0.044780
v 0.002536 -1.700000 -0.044780
v 0.001111 -1.700000 -0.045430
v 0.000589 -1.700000 -0.044628
v 0.001633 -1.700000 -0.044628
v -0.030815 -1.700000 -0.044780
v -0.027964 -1.700000 -0.044780
v -0.029389 -1.700000 -0.045430
v -0.029911 -1.700000 -0.044628
v -0.028867 -1.700000 -0.044628
v -0.061315 -1.700000 -0.044780
v -0.058464 -1.700000 -0.044780
v -0.059889 -1.700000 -0.045430
v -0.060411 -1.700000 -0.044628
v -0.059367 -1.700000 -0.044628
v -0.091815 -1.700000 -0.044780
v -0.088964 -1.700000 -0.044780
v -0.090389 -1.700000 -0.045430
v -0.090911 -1.700000 -0.044628
v -0.089867 -1.700000 -0.044628
v -0.122315 -1.700000 -0.044780
v -0.119464 -1.700000 -0.044780
v -0.120889 -1.700000 -0.045430
v -0.121411 -1.700000 -0.044628
v -0.120367 -1.700000 -0.044628
v -0.149964 1.000000 -0.044780
v -0.151389 1.000000 -0.044627
v -0.150677 1.000000 -0.044632
v -0.151198 1.000000 -0.044627
v 0.092611 1.000000 -0.044627
v 0.091185 1.000000 -0.044780
v 0.092420 1.000000 -0.044627
v 0.091898 1.000000 -0.044632
v 0.091185 -1.700000 -0.044780
v 0.092611 -1.700000 -0.044627
v 0.091898 -1.700000 -0.044632
v 0.092420 -1.700000 -0.044627
v -0.151389 -1.700000 -0.044627
v -0.149964 -1.700000 -0.044780
v -0.151198 -1.700000 -0.044627
v -0.150677 -1.700000 -0.044632
v 0.089672 1.000000 -0.045469
v 0.065050 1.000000 -0.045469
v 0.077361 1.000000 -0.055190
v 0.087595 1.000000 -0.046678
v 0.085265 1.000000 -0.047744
v 0.082741 1.000000 -0.048744
v 0.080084 1.000000 -0.049497
v 0.077361 1.000000 -0.049794
v 0.074637 1.000000 -0.049497
v 0.071981 1.000000 -0.048744
v 0.069456 1.000000 -0.047744
v 0.067127 1.000000 -0.046678
v 0.059172 1.000000 -0.045469
v 0.034550 1.000000 -0.045469
v 0.046861 1.000000 -0.055190
v 0.057095 1.000000 -0.046678
v 0.054765 1.000000 -0.047744
v 0.052241 1.000000 -0.048744
v 0.049584 1.000000 -0.049497
v 0.046861 1.000000 -0.049794
v 0.044137 1.000000 -0.049497
v 0.041481 1.000000 -0.048744
v 0.038956 1.000000 -0.047744
v 0.036627 1.000000 -0.046678
v 0.028672 1.000000 -0.045469
v 0.004050 1.000000 -0.045469
v 0.016361 1.000000 -0.055190
v 0.026595 1.000000 -0.046678
v 0.024265 1.000000 -0.047744
v 0.021741 1.000000 -0.048744
v 0.019084 1.000000 -0.049497
v 0.016361 1.000000 -0.049794
v 0.013637 1.000000 -0.049497
v 0.010981 1.000000 -0.048744
v 0.008456 1.000000 -0.047744
v 0.006127 1.000000 -0.046678
v -0.062828 1.000000 -0.045469
v -0.087450 1.000000 -0.045469
v -0.075139 1.000000 -0.055190
v -0.064905 1.000000 -0.046678
v -0.067235 1.000000 -0.047744
v -0.069759 1.000000 -0.048744
v -0.072416 1.000000 -0.049497
v -0.075139 1.000000 -0.049794
v -0.077863 1.000000 -0.049497
v -0.080519 1.000000 -0.048744
v -0.083044 1.000000 -0.047744
v -0.085373 1.000000 -0.046678
v -0.093328 1.000000 -0.045469
v -0.117950 1.000000 -0.045469
v -0.105639 1.000000 -0.055190
v -0.095405 1.000000 -0.046678
v -0.097735 1.000000 -0.047744
v -0.100259 1.000000 -0.048744
v -0.102916 1.000000 -0.049497
v -0.105639 1.000000 -0.049794
v -0.108363 1.000000 -0.049497
v -0.111019 1.000000 -0.048744
v -0.113544 1.000000 -0.047744
v -0.115873 1.000000 -0.046678
v -0.001828 1.000000 -0.045469
v -0.026450 1.000000 -0.045469
v -0.014139 1.000000 -0.055190
v -0.003905 1.000000 -0.046678
v -0.006235 1.000000 -0.047744
v -0.008759 1.000000 -0.048744
v -0.011416 1.000000 -0.049497
v -0.014139 1.000000 -0.049794
v -0.016863 1.000000 -0.049497
v -0.019519 1.000000 -0.048744
v -0.022044 1.000000 -0.047744
v -0.024373 1.000000 -0.046678
v -0.032328 1.000000 -0.045469
v -0.056950 1.000000 -0.045469
v -0.044639 1.000000 -0.055190
v -0.034405 1.000000 -0.046678
v -0.036735 1.000000 -0.047744
v -0.039259 1.000000 -0.048744
v -0.041916 1.000000 -0.049497
v -0.044639 1.000000 -0.049794
v -0.047363 1.000000 -0.049497
v -0.050019 1.000000 -0.048744
v -0.052544 1.000000 -0.047744
v -0.054873 1.000000 -0.046678
v -0.123828 1.000000 -0.045469
v -0.148450 1.000000 -0.045469
v -0.136139 1.000000 -0.055190
v -0.125905 1.000000 -0.046678
v -0.128235 1.000000 -0.047744
v -0.130759 1.000000 -0.048744
v -0.133416 1.000000 -0.049497
v -0.136139 1.000000 -0.049794
v -0.138863 1.000000 -0.049497
v -0.141519 1.000000 -0.048744
v -0.144044 1.000000 -0.047744
v -0.146373 1.000000 -0.046678
v 0.065050 -1.700000 -0.045469
v 0.089672 -1.700000 -0.045469
v 0.077361 -1.700000 -0.055190
v 0.067127 -1.700000 -0.046678
v 0.069456 -1.700000 -0.047744
v 0.071981 -1.700000 -0.048744
v 0.074637 -1.700000 -0.049497
v 0.077361 -1.700000 -0.049794
v 0.080084 -1.700000 -0.049497
v 0.082741 -1.700000 -0.048744
v 0.085265 -1.700000 -0.047744
v 0.087595 -1.700000 -0.046678
v 0.034550 -1.700000 -0.045469
v 0.059172 -1.700000 -0.045469
v 0.046861 -1.700000 -0.055190
v 0.036627 -1.700000 -0.046678
v 0.038956 -1.700000 -0.047744
v 0.041481 -1.700000 -0.048744
v 0.044137 -1.700000 -0.049497
v 0.046861 -1.700000 -0.049794
v 0.049584 -1.700000 -0.049497
v 0.052241 -1.700000 -0.048744
v 0.054765 -1.700000 -0.047744
v 0.057095 -1.700000 -0.046678
v 0.004050 -1.700000 -0.045469
v 0.028672 -1.700000 -0.045469
v 0.016361 -1.700000 -0.055190
v 0.006127 -1.700000 -0.046678
v 0.008456 -1.700000 -0.047744
v 0.010981 -1.700000 -0.048744
v 0.013637 -1.700000 -0.049497
v 0.016361 -1.700000 -0.049794
v 0.019084 -1.700000 -0.049497
v 0.021741 -1.700000 -0.048744
v 0.024265 -1.700000 -0.047744
v 0.026595 -1.700000 -0.046678
v -0.087450 -1.700000 -0.045469
v -0.062828 -1.700000 -0.045469
v -0.075139 -1.700000 -0.055190
v -0.085373 -1.700000 -0.046678
v -0.083044 -1.700000 -0.047744
v -0.080519 -1.700000 -0.048744
v -0.077863 -1.700000 -0.049497
v -0.075139 -1.700000 -0.049794
v -0.072416 -1.700000 -0.049497
v -0.069759 -1.700000 -0.048744
v -0.067235 -1.700000 -0.047744
v -0.064905 -1.700000 -0.046678
v -0.117950 -1.700000 -0.045469
v -0.093328 -1.700000 -0.045469
v -0.105639 -1.700000 -0.055190
v -0.115873 -1.700000 -0.046678
v -0.113544 -1.700000 -0.047744
v -0.111019 -1.700000 -0.048744
v -0.108363 -1.700000 -0.049497
v -0.105639 -1.700000 -0.049794
v -0.102916 -1.700000 -0.049497
v -0.100259 -1.700000 -0.048744
v -0.097735 -1.700000 -0.047744
v -0.095405 -1.700000 -0.046678
v -0.026450 -1.700000 -0.045469
v -0.001828 -1.700000 -0.045469
v -0.014139 -1.700000 -0.055190
v -0.024373 -1.700000 -0.046678
v -0.022044 -1.700000 -0.047744
v -0.019519 -1.700000 -0.048744
v -0.016863 -1.700000 -0.049497
v -0.014139 -1.700000 -0.049794
v -0.011416 -1.700000 -0.049497
v -0.008759 -1.700000 -0.048744
v -0.006235 -1.700000 -0.047744
v -0.003905 -1.700000 -0.046678
v -0.056950 -1.700000 -0.045469
v -0.032328 -1.700000 -0.045469
v -0.044639 -1.700000 -0.055190
v -0.054873 -1.700000 -0.046678
v -0.052544 -1.700000 -0.047744
v -0.050019 -1.700000 -0.048744
v -0.047363 -1.700000 -0.049497
v -0.044639 -1.700000 -0.049794
v -0.041916 -1.700000 -0.049497
v -0.039259 -1.700000 -0.048744
v -0.036735 -1.700000 -0.047744
v -0.034405 -1.700000 -0.046678
v -0.148450 -1.700000 -0.045469
v -0.123828 -1.700000 -0.045469
v -0.136139 -1.700000 -0.055190
v -0.146373 -1.700000 -0.046678
v -0.144044 -1.700000 -0.047744
v -0.141519 -1.700000 -0.048744
v -0.138863 -1.700000 -0.049497
v -0.136139 -1.700000 -0.049794
v -0.133416 -1.700000 -0.049497
v -0.130759 -1.700000 -0.048744
v -0.128235 -1.700000 -0.047744
v -0.125905 -1.700000 -0.046678
v -0.145389 1.000000 -0.052627
v -0.145389 -1.700000 -0.052627
v -0.145389 1.000000 -0.057627
v -0.145389 -1.700000 -0.057627
v 0.088798 1.000000 -0.057627
v 0.088798 1.000000 -0.053469
v 0.084986 1.000000 -0.054310
v 0.081173 1.000000 -0.055152
v 0.081173 -1.700000 -0.057627
v 0.084986 -1.700000 -0.057627
v 0.088798 -1.700000 -0.057627
v 0.088798 -1.700000 -0.053469
v 0.084986 -1.700000 -0.054310
v 0.081173 -1.700000 -0.055152
vn -0.0000 -1.0000 -0.0000
vn -0.0000 1.0000 -0.0000
vn 0.4145 -0.0000 -0.9100
vn -0.4145 -0.0000 -0.9100
vn -0.0000 -0.0000 1.0000
vn 1.0000 -0.0000 -0.0000
vn -1.0000 -0.0000 -0.0000
vn -0.0000 -0.0000 -1.0000
vn 0.1655 -0.0000 -0.9862
vn -0.1655 -0.0000 -0.9862
vn -0.2036 -0.0000 -0.9791
vn -0.0086 -0.0000 -1.0000
vn 0.0086 -0.0000 -1.0000
vn 0.2036 -0.0000 -0.9791
vn -0.0004 1.0000 -0.0000
vn -0.0002 1.0000 -0.0000
vn 0.0004 1.0000 -0.0000
vn 0.5027 -0.0000 -0.8644
vn 0.4164 -0.0000 -0.9092
vn 0.3682 -0.0000 -0.9298
vn 0.2727 -0.0000 -0.9621
vn 0.1086 -0.0000 -0.9941
vn -0.1086 -0.0000 -0.9941
vn -0.2727 -0.0000 -0.9621
vn -0.3682 -0.0000 -0.9298
vn -0.4164 -0.0000 -0.9092
vn -0.5027 -0.0000 -0.8644
vn -0.5028 -0.0000 -0.8644
vn 0.0001 1.0000 -0.0000
vt 0.032129 0.979920
vt 0.052209 0.979920
vt 0.052209 1.000000
vt 0.032129 1.000000
vt 0.035508 0.964608
vt 0.052209 0.964608
vt 0.000613 0.740664
vt 0.003223 0.734940
vt 0.035621 0.734940
vt 0.045645 0.796185
vt 0.042420 0.796185
vt 0.003382 0.746742
vt 0.101195 0.857430
vt 0.103805 0.863154
vt 0.101037 0.869232
vt 0.061998 0.918675
vt 0.058773 0.918675
vt 0.068797 0.857430
vt 0.000613 0.495684
vt 0.003223 0.489960
vt 0.035621 0.489960
vt 0.045645 0.551205
vt 0.042420 0.551205
vt 0.003382 0.501762
vt 0.203176 -7.000000
vt 0.207577 -7.000000
vt 0.207577 7.999999
vt 0.203176 7.999999
vt 0.000613 0.005724
vt 0.032129 0.024096
vt 0.045645 0.061245
vt 0.042420 0.061245
vt 0.003382 0.011802
vt 0.000613 0.373194
vt 0.003223 0.367470
vt 0.035621 0.367470
vt 0.045645 0.428715
vt 0.042420 0.428715
vt 0.003382 0.379272
vt 0.000613 0.250704
vt 0.003223 0.244980
vt 0.035621 0.244980
vt 0.045645 0.306225
vt 0.042420 0.306225
vt 0.003382 0.256782
vt 0.000613 0.618174
vt 0.003223 0.612450
vt 0.035621 0.612450
vt 0.045645 0.673695
vt 0.042420 0.673695
vt 0.003382 0.624252
vt 0.052209 0.061245
vt 0.052209 0.122490
vt 0.035621 0.122490
vt 0.045645 0.183735
vt 0.052209 0.183735
vt 0.052209 0.244980
vt 0.052209 0.306225
vt 0.052209 0.367470
vt 0.052209 0.428715
vt 0.052209 0.489960
vt 0.052209 0.551205
vt 0.052209 0.612450
vt 0.052209 0.673695
vt 0.052209 0.734940
vt 0.052209 0.796185
vt 0.052209 0.857430
vt 0.035621 0.857430
vt 0.393253 -7.000000
vt 0.397655 -7.000000
vt 0.397655 7.999999
vt 0.393253 7.999999
vt 0.052209 0.918675
vt 0.045645 0.918675
vt 0.304560 -7.000000
vt 0.308961 -7.000000
vt 0.308961 7.999999
vt 0.304560 7.999999
vt 0.215867 -7.000000
vt 0.220267 -7.000000
vt 0.220267 7.999999
vt 0.215867 7.999999
vt 0.291869 -7.000000
vt 0.296270 -7.000000
vt 0.296270 7.999999
vt 0.291869 7.999999
vt 0.038479 -7.000000
vt 0.042880 -7.000000
vt 0.042880 7.999999
vt 0.038479 7.999999
vt -0.050214 -7.000000
vt -0.045813 -7.000000
vt -0.045813 7.999999
vt -0.050214 7.999999
vt -0.138908 -7.000000
vt -0.134507 -7.000000
vt -0.134507 7.999999
vt -0.138908 7.999999
vt 0.052209 0.024096
vt -0.062905 -7.000000
vt -0.058504 -7.000000
vt -0.058504 7.999999
vt -0.062905 7.999999
vt 0.072290 0.979920
vt 0.072290 1.000000
vt 0.052209 1.000000
vt 0.052209 0.979920
vt 0.068910 0.964608
vt 0.052209 0.964608
vt 0.061998 0.551205
vt 0.101037 0.600648
vt 0.103805 0.606725
vt 0.101195 0.612450
vt 0.068797 0.612450
vt 0.058773 0.551205
vt 0.061998 0.183735
vt 0.101037 0.233178
vt 0.103805 0.239256
vt 0.101195 0.244980
vt 0.068798 0.244980
vt 0.058774 0.183735
vt 0.061998 0.061245
vt 0.101037 0.110688
vt 0.103805 0.116766
vt 0.101196 0.122490
vt 0.068798 0.122490
vt 0.058774 0.061245
vt 0.061998 0.428715
vt 0.101037 0.478158
vt 0.103805 0.484236
vt 0.101195 0.489960
vt 0.068797 0.489960
vt 0.058773 0.428715
vt 0.061998 0.306225
vt 0.101037 0.355668
vt 0.103805 0.361746
vt 0.101195 0.367470
vt 0.068798 0.367470
vt 0.058773 0.306225
vt 0.061998 0.673695
vt 0.101037 0.723138
vt 0.103805 0.729215
vt 0.101195 0.734940
vt 0.068797 0.734940
vt 0.058773 0.673695
vt 0.052210 0.122490
vt 0.052210 0.061245
vt 0.052209 0.244980
vt 0.052210 0.183735
vt 0.052209 0.367470
vt 0.052209 0.306225
vt 0.052209 0.489960
vt 0.052209 0.428715
vt 0.052209 0.612450
vt 0.052209 0.551205
vt 0.052209 0.734940
vt 0.052209 0.673695
vt 0.058773 0.796185
vt 0.052209 0.857430
vt 0.052209 0.796185
vt 0.103805 0.740664
vt 0.101037 0.746742
vt 0.061998 0.796185
vt 0.052209 0.918675
vt 0.103805 0.618174
vt 0.101037 0.624252
vt 0.103805 0.495684
vt 0.101037 0.501762
vt 0.103805 0.373194
vt 0.101037 0.379272
vt 0.103805 0.250704
vt 0.101037 0.256782
vt 0.103805 0.128214
vt 0.101037 0.134292
vt 0.104418 0.000000
vt 0.104418 0.000767
vt 0.104400 0.002862
vt 0.103805 0.005724
vt 0.072290 0.024096
vt 0.072290 0.000000
vt 0.052210 0.024096
vt 0.047037 0.000000
vt 0.052685 0.000000
vt 0.052685 1.000000
vt 0.047037 1.000000
vt 0.000000 0.000000
vt 0.001852 0.000000
vt 0.001852 1.000000
vt 0.000000 1.000000
vt 0.127173 -7.000000
vt 0.131574 -7.000000
vt 0.131574 7.999999
vt 0.127173 7.999999
vt 0.659551 8.000000
vt 0.645012 8.000000
vt 0.645012 -7.000000
vt 0.659551 -7.000000
vt 0.035741 0.000000
vt 0.041389 0.000000
vt 0.041389 1.000000
vt 0.035741 1.000000
vt 0.630471 -7.000000
vt 0.630471 8.000000
vt 0.000613 0.128214
vt 0.003223 0.122490
vt 0.042420 0.183735
vt 0.003382 0.134292
vt 0.030093 0.000000
vt 0.030093 1.000000
vt 0.024444 0.000000
vt 0.024444 1.000000
vt 0.003382 0.110688
vt 0.000613 0.116766
vt 0.003382 0.600648
vt 0.000613 0.606725
vt 0.380563 -7.000000
vt 0.384964 -7.000000
vt 0.384964 7.999999
vt 0.380563 7.999999
vt 0.013148 0.000000
vt 0.018796 0.000000
vt 0.018796 1.000000
vt 0.013148 1.000000
vt 0.063981 0.000000
vt 0.069630 0.000000
vt 0.069630 1.000000
vt 0.063981 1.000000
vt 0.058333 0.000000
vt 0.058333 1.000000
vt 0.557950 -7.000000
vt 0.562351 -7.000000
vt 0.562351 7.999999
vt 0.557950 7.999999
vt 0.114482 -7.000000
vt 0.118883 -7.000000
vt 0.118883 7.999999
vt 0.114482 7.999999
vt 0.006088 0.000000
vt 0.007500 0.000000
vt 0.007500 1.000000
vt 0.006088 1.000000
vt 0.003382 0.478158
vt 0.000613 0.484236
vt 0.003382 0.845628
vt 0.003223 0.857430
vt 0.000613 0.851705
vt 0.674091 -7.000000
vt 0.674091 7.999999
vt 0.659551 7.999999
vt 0.003382 0.723138
vt 0.000613 0.729215
vt 0.101037 0.845628
vt 0.103805 0.851705
vt 0.481947 -7.000000
vt 0.486348 -7.000000
vt 0.486348 7.999999
vt 0.481947 7.999999
vt 0.101036 0.968118
vt 0.103805 0.974195
vt 0.062152 0.933986
vt 0.075278 0.000000
vt 0.080926 0.000000
vt 0.080926 1.000000
vt 0.075278 1.000000
vt 0.003382 0.355668
vt 0.000613 0.361746
vt 0.025789 -7.000000
vt 0.030190 -7.000000
vt 0.030190 7.999999
vt 0.025789 7.999999
vt 0.003382 0.233178
vt 0.000613 0.239256
vt 0.086574 0.000000
vt 0.086574 1.000000
vt 0.469257 -7.000000
vt 0.473657 -7.000000
vt 0.473657 7.999999
vt 0.469257 7.999999
vt 0.000018 0.002862
vt 0.000000 0.000767
vt 0.032129 -0.000000
vt 0.566496 -7.000000
vt 0.589760 -7.000000
vt 0.589760 8.000000
vt 0.566496 8.000000
vt 0.000613 0.863154
vt 0.000005 0.859525
vt 0.000005 0.855334
vt 0.000004 0.737035
vt 0.000004 0.732844
vt 0.000004 0.614545
vt 0.000004 0.610355
vt 0.000004 0.492055
vt 0.000004 0.487865
vt 0.000004 0.369565
vt 0.000004 0.365375
vt 0.000004 0.247075
vt 0.000004 0.242885
vt 0.000004 0.124585
vt 0.000004 0.120395
vt 0.104414 0.855334
vt 0.104414 0.859525
vt 0.104414 0.732844
vt 0.104414 0.737035
vt 0.104414 0.610355
vt 0.104414 0.614545
vt 0.104414 0.487865
vt 0.104414 0.492055
vt 0.104414 0.365375
vt 0.104414 0.369565
vt 0.104414 0.242885
vt 0.104414 0.247075
vt 0.104414 0.120395
vt 0.104414 0.124585
vt 0.210204 -7.000000
vt 0.210204 7.999999
vt 0.213238 -7.000000
vt 0.213238 7.999999
vt 0.121511 -7.000000
vt 0.121511 7.999999
vt 0.124545 -7.000000
vt 0.124545 7.999999
vt 0.301932 7.999999
vt 0.301932 -7.000000
vt 0.298898 7.999999
vt 0.298898 -7.000000
vt 0.390626 7.999999
vt 0.390626 -7.000000
vt 0.387592 7.999999
vt 0.387592 -7.000000
vt 0.476286 -7.000000
vt 0.476286 7.999999
vt 0.479320 -7.000000
vt 0.479320 7.999999
vt -0.052842 7.999999
vt -0.052842 -7.000000
vt -0.055876 7.999999
vt -0.055876 -7.000000
vt 0.032817 -7.000000
vt 0.032817 7.999999
vt 0.035851 -7.000000
vt 0.035851 7.999999
vt 0.042420 0.918675
vt 0.003382 0.869232
vt -0.140980 7.999999
vt -0.140980 -7.000000
vt -0.142497 7.999999
vt -0.142497 -7.000000
vt -0.143053 7.999999
vt -0.143053 -7.000000
vt 0.566496 -7.000000
vt 0.566496 7.999999
vt 0.565941 7.999999
vt 0.565941 -7.000000
vt 0.564424 7.999999
vt 0.564424 -7.000000
vt 0.613024 -7.000000
vt 0.613024 8.000000
vt 0.003382 0.968118
vt 0.008234 0.959774
vt 0.012519 0.950419
vt 0.016533 0.940282
vt 0.019556 0.929613
vt 0.020750 0.918675
vt 0.019556 0.907736
vt 0.016533 0.897067
vt 0.012519 0.886930
vt 0.008234 0.877575
vt 0.008234 0.837284
vt 0.012519 0.827929
vt 0.016532 0.817792
vt 0.019556 0.807123
vt 0.020750 0.796185
vt 0.019556 0.785246
vt 0.016532 0.774577
vt 0.012519 0.764440
vt 0.008234 0.755085
vt 0.008234 0.714794
vt 0.012519 0.705439
vt 0.016532 0.695302
vt 0.019556 0.684633
vt 0.020750 0.673695
vt 0.019556 0.662756
vt 0.016532 0.652087
vt 0.012519 0.641950
vt 0.008234 0.632595
vt 0.008234 0.347324
vt 0.012518 0.337969
vt 0.016532 0.327832
vt 0.019556 0.317163
vt 0.020750 0.306225
vt 0.019556 0.295286
vt 0.016532 0.284617
vt 0.012518 0.274481
vt 0.008234 0.265125
vt 0.008234 0.224835
vt 0.012518 0.215479
vt 0.016532 0.205342
vt 0.019556 0.194673
vt 0.020750 0.183735
vt 0.019556 0.172797
vt 0.016532 0.162128
vt 0.012518 0.151991
vt 0.008234 0.142635
vt 0.008234 0.592304
vt 0.012519 0.582949
vt 0.016532 0.572812
vt 0.019556 0.562143
vt 0.020750 0.551205
vt 0.019556 0.540266
vt 0.016532 0.529597
vt 0.012518 0.519460
vt 0.008234 0.510105
vt 0.008234 0.469814
vt 0.012518 0.460459
vt 0.016532 0.450322
vt 0.019556 0.439653
vt 0.020750 0.428715
vt 0.019556 0.417776
vt 0.016532 0.407107
vt 0.012518 0.396971
vt 0.008234 0.387615
vt 0.008234 0.102345
vt 0.012518 0.092989
vt 0.016532 0.082852
vt 0.019556 0.072183
vt 0.020750 0.061245
vt 0.019556 0.050307
vt 0.016532 0.039638
vt 0.012518 0.029501
vt 0.008234 0.020145
vt 0.096184 0.877575
vt 0.091900 0.886930
vt 0.087886 0.897067
vt 0.084862 0.907736
vt 0.083668 0.918675
vt 0.084862 0.929613
vt 0.087886 0.940282
vt 0.091900 0.950419
vt 0.096184 0.959774
vt 0.096184 0.755085
vt 0.091900 0.764440
vt 0.087886 0.774577
vt 0.084862 0.785246
vt 0.083668 0.796185
vt 0.084862 0.807123
vt 0.087886 0.817792
vt 0.091900 0.827929
vt 0.096184 0.837284
vt 0.096184 0.632595
vt 0.091900 0.641950
vt 0.087886 0.652087
vt 0.084863 0.662756
vt 0.083668 0.673695
vt 0.084863 0.684633
vt 0.087886 0.695302
vt 0.091900 0.705439
vt 0.096184 0.714794
vt 0.096184 0.265125
vt 0.091900 0.274481
vt 0.087886 0.284618
vt 0.084863 0.295287
vt 0.083668 0.306225
vt 0.084863 0.317163
vt 0.087886 0.327832
vt 0.091900 0.337969
vt 0.096184 0.347324
vt 0.096184 0.142635
vt 0.091900 0.151991
vt 0.087886 0.162128
vt 0.084863 0.172797
vt 0.083668 0.183735
vt 0.084863 0.194673
vt 0.087886 0.205342
vt 0.091900 0.215479
vt 0.096184 0.224835
vt 0.096184 0.510105
vt 0.091900 0.519460
vt 0.087886 0.529597
vt 0.084863 0.540266
vt 0.083668 0.551205
vt 0.084863 0.562143
vt 0.087886 0.572812
vt 0.091900 0.582949
vt 0.096184 0.592304
vt 0.096184 0.387615
vt 0.091900 0.396971
vt 0.087886 0.407108
vt 0.084863 0.417776
vt 0.083668 0.428715
vt 0.084863 0.439653
vt 0.087886 0.450322
vt 0.091900 0.460459
vt 0.096184 0.469814
vt 0.101037 0.011802
vt 0.096184 0.020145
vt 0.091900 0.029501
vt 0.087886 0.039638
vt 0.084863 0.050307
vt 0.083668 0.061245
vt 0.084863 0.072183
vt 0.087886 0.082852
vt 0.091900 0.092989
vt 0.096184 0.102345
vt 0.285828 7.999999
vt 0.285828 -7.000000
vt 0.279054 7.999999
vt 0.279054 -7.000000
vt 0.271714 7.999999
vt 0.271714 -7.000000
vt 0.263989 7.999999
vt 0.263989 -7.000000
vt 0.256068 7.999999
vt 0.256068 -7.000000
vt 0.248148 7.999999
vt 0.248148 -7.000000
vt 0.240423 7.999999
vt 0.240423 -7.000000
vt 0.233083 7.999999
vt 0.233083 -7.000000
vt 0.226308 7.999999
vt 0.226308 -7.000000
vt 0.197134 7.999999
vt 0.197134 -7.000000
vt 0.190361 7.999999
vt 0.190361 -7.000000
vt 0.183020 7.999999
vt 0.183020 -7.000000
vt 0.175295 7.999999
vt 0.175295 -7.000000
vt 0.167375 7.999999
vt 0.167375 -7.000000
vt 0.159455 7.999999
vt 0.159455 -7.000000
vt 0.151729 7.999999
vt 0.151729 -7.000000
vt 0.144389 7.999999
vt 0.144389 -7.000000
vt 0.137615 7.999999
vt 0.137615 -7.000000
vt 0.315002 -7.000000
vt 0.315002 7.999999
vt 0.321776 -7.000000
vt 0.321776 7.999999
vt 0.329116 -7.000000
vt 0.329116 7.999999
vt 0.336842 -7.000000
vt 0.336842 7.999999
vt 0.344762 -7.000000
vt 0.344762 7.999999
vt 0.352682 -7.000000
vt 0.352682 7.999999
vt 0.360408 -7.000000
vt 0.360408 7.999999
vt 0.367747 -7.000000
vt 0.367747 7.999999
vt 0.374522 -7.000000
vt 0.374522 7.999999
vt 0.551909 7.999999
vt 0.551909 -7.000000
vt 0.545135 7.999999
vt 0.545135 -7.000000
vt 0.537795 7.999999
vt 0.537795 -7.000000
vt 0.530070 7.999999
vt 0.530070 -7.000000
vt 0.522149 7.999999
vt 0.522149 -7.000000
vt 0.514229 7.999999
vt 0.514229 -7.000000
vt 0.506504 7.999999
vt 0.506504 -7.000000
vt 0.499163 7.999999
vt 0.499163 -7.000000
vt 0.492390 7.999999
vt 0.492390 -7.000000
vt 0.048921 -7.000000
vt 0.048921 7.999999
vt 0.055695 -7.000000
vt 0.055695 7.999999
vt 0.063036 -7.000000
vt 0.063036 7.999999
vt 0.070761 -7.000000
vt 0.070761 7.999999
vt 0.078681 -7.000000
vt 0.078681 7.999999
vt 0.086602 -7.000000
vt 0.086602 7.999999
vt 0.094327 -7.000000
vt 0.094327 7.999999
vt 0.101667 -7.000000
vt 0.101667 7.999999
vt 0.108441 -7.000000
vt 0.108441 7.999999
vt 0.463216 7.999999
vt 0.463216 -7.000000
vt 0.456441 7.999999
vt 0.456441 -7.000000
vt 0.449101 7.999999
vt 0.449101 -7.000000
vt 0.441376 7.999999
vt 0.441376 -7.000000
vt 0.433456 7.999999
vt 0.433456 -7.000000
vt 0.425535 7.999999
vt 0.425535 -7.000000
vt 0.417810 7.999999
vt 0.417810 -7.000000
vt 0.410470 7.999999
vt 0.410470 -7.000000
vt 0.403696 7.999999
vt 0.403696 -7.000000
vt -0.128466 -7.000000
vt -0.128466 7.999999
vt -0.121692 -7.000000
vt -0.121692 7.999999
vt -0.114351 -7.000000
vt -0.114351 7.999999
vt -0.106626 -7.000000
vt -0.106626 7.999999
vt -0.098706 -7.000000
vt -0.098706 7.999999
vt -0.090786 -7.000000
vt -0.090786 7.999999
vt -0.083060 -7.000000
vt -0.083060 7.999999
vt -0.075720 -7.000000
vt -0.075720 7.999999
vt -0.068946 -7.000000
vt -0.068946 7.999999
vt -0.039772 -7.000000
vt -0.039772 7.999999
vt -0.032998 -7.000000
vt -0.032998 7.999999
vt -0.025658 -7.000000
vt -0.025658 7.999999
vt -0.017932 -7.000000
vt -0.017932 7.999999
vt -0.010012 -7.000000
vt -0.010012 7.999999
vt -0.002092 -7.000000
vt -0.002092 7.999999
vt 0.005633 -7.000000
vt 0.005633 7.999999
vt 0.012973 -7.000000
vt 0.012973 7.999999
vt 0.019747 -7.000000
vt 0.019747 7.999999
vt 0.042266 0.933986
vt 0.000613 0.974195
vt 0.090000 0.000000
vt 0.090000 1.000000
vt 0.003264 0.000000
vt 0.003264 1.000000
vt 0.004676 0.000000
vt 0.004676 1.000000
vt 0.052209 0.933986
vt 0.065531 0.949297
vt 0.052209 0.949297
vt 0.052209 0.933986
vt 0.052209 0.949297
vt 0.038887 0.949297
vt 0.104400 0.977058
vt 0.104418 0.979153
vt 0.104418 0.979920
vt 0.000018 0.977058
vt 0.000000 0.979153
vt 0.000000 0.979920
s 0
g Gresso_main_top_bottom
usemtl top_bottom
f 5/1/1 4/2/1 1/3/1 2/4/1
f 356/5/1 355/6/1 4/2/1 5/1/1
f 78/7/1 80/8/1 15/9/1 24/10/1 173/11/1 172/12/1
f 110/13/2 109/14/2 255/15/2 257/16/2 58/17/2 50/18/2
f 88/19/1 90/20/1 17/21/1 29/22/1 221/23/1 220/24/1
f 143/29/1 351/30/1 39/31/1 245/32/1 244/33/1
f 93/34/1 95/35/1 18/36/1 32/37/1 233/38/1 232/39/1
f 98/40/1 100/41/1 19/42/1 34/43/1 197/44/1 196/45/1
f 83/46/1 85/47/1 16/48/1 26/49/1 185/50/1 184/51/1
f 39/31/1 38/52/1 6/53/1 20/54/1
f 36/55/1 35/56/1 8/57/1 19/42/1
f 34/43/1 33/58/1 9/59/1 18/36/1
f 32/37/1 30/60/1 10/61/1 17/21/1
f 29/22/1 27/62/1 11/63/1 16/48/1
f 26/49/1 25/64/1 12/65/1 15/9/1
f 24/10/1 23/66/1 13/67/1 14/68/1
f 14/68/1 13/67/1 21/73/1 22/74/1
f 15/9/1 12/65/1 23/66/1 24/10/1
f 16/48/1 11/63/1 25/64/1 26/49/1
f 17/21/1 10/61/1 27/62/1 29/22/1
f 18/36/1 9/59/1 30/60/1 32/37/1
f 19/42/1 8/57/1 33/58/1 34/43/1
f 20/54/1 6/53/1 35/56/1 36/55/1
f 351/30/1 353/99/1 38/52/1 39/31/1
f 31/104/2 41/105/2 42/106/2 37/107/2
f 362/108/2 31/104/2 37/107/2 361/109/2
f 317/110/2 316/111/2 118/112/2 120/113/2 52/114/2 64/115/2
f 305/116/2 304/117/2 133/118/2 135/119/2 55/120/2 70/121/2
f 341/122/2 340/123/2 138/124/2 140/125/2 56/126/2 72/127/2
f 329/128/2 328/129/2 123/130/2 125/131/2 53/132/2 66/133/2
f 293/134/2 292/135/2 128/136/2 130/137/2 54/138/2 68/139/2
f 281/140/2 280/141/2 113/142/2 115/143/2 51/144/2 62/145/2
f 72/127/2 56/126/2 28/146/2 71/147/2
f 70/121/2 55/120/2 44/148/2 69/149/2
f 68/139/2 54/138/2 45/150/2 67/151/2
f 66/133/2 53/132/2 46/152/2 65/153/2
f 64/115/2 52/114/2 47/154/2 63/155/2
f 62/145/2 51/144/2 48/156/2 61/157/2
f 60/158/2 50/18/2 49/159/2 59/160/2
f 115/143/2 114/161/2 267/162/2 269/163/2 60/158/2 51/144/2
f 50/18/2 58/17/2 57/164/2 49/159/2
f 51/144/2 60/158/2 59/160/2 48/156/2
f 120/113/2 119/165/2 279/166/2 281/140/2 62/145/2 52/114/2
f 52/114/2 62/145/2 61/157/2 47/154/2
f 125/131/2 124/167/2 315/168/2 317/110/2 64/115/2 53/132/2
f 53/132/2 64/115/2 63/155/2 46/152/2
f 130/137/2 129/169/2 327/170/2 329/128/2 66/133/2 54/138/2
f 54/138/2 66/133/2 65/153/2 45/150/2
f 135/119/2 134/171/2 291/172/2 293/134/2 68/139/2 55/120/2
f 55/120/2 68/139/2 67/151/2 44/148/2
f 140/125/2 139/173/2 303/174/2 305/116/2 70/121/2 56/126/2
f 56/126/2 70/121/2 69/149/2 28/146/2
f 155/175/2 157/176/2 158/177/2 156/178/2 352/179/2 40/180/2
f 352/179/2 72/127/2 71/147/2 354/181/2
f 103/204/1 105/205/1 20/54/1 36/55/1 209/206/1 208/207/1
f 243/212/1 245/32/1 39/31/1 20/54/1 105/205/1 104/213/1
f 219/214/1 221/23/1 29/22/1 16/48/1 85/47/1 84/215/1
f 231/242/1 233/38/1 32/37/1 17/21/1 90/20/1 89/243/1
f 171/244/1 173/11/1 24/10/1 14/68/1 75/245/1 74/246/1
f 183/250/1 185/50/1 26/49/1 15/9/1 80/8/1 79/251/1
f 269/163/2 268/252/2 108/253/2 110/13/2 50/18/2 60/158/2
f 257/16/2 256/258/2 151/259/2 364/260/2 58/17/2
f 195/265/1 197/44/1 34/43/1 18/36/1 95/35/1 94/266/1
f 207/271/1 209/206/1 36/55/1 19/42/1 100/41/1 99/272/1
f 351/30/1 143/29/1 145/279/1 146/280/1 144/186/1 3/281/1
f 73/286/1 76/287/1 75/245/1
f 76/287/1 77/288/1 75/245/1
f 77/288/1 74/246/1 75/245/1
f 78/7/1 81/289/1 80/8/1
f 81/289/1 82/290/1 80/8/1
f 82/290/1 79/251/1 80/8/1
f 83/46/1 86/291/1 85/47/1
f 86/291/1 87/292/1 85/47/1
f 87/292/1 84/215/1 85/47/1
f 88/19/1 91/293/1 90/20/1
f 91/293/1 92/294/1 90/20/1
f 92/294/1 89/243/1 90/20/1
f 93/34/1 96/295/1 95/35/1
f 96/295/1 97/296/1 95/35/1
f 97/296/1 94/266/1 95/35/1
f 98/40/1 101/297/1 100/41/1
f 101/297/1 102/298/1 100/41/1
f 102/298/1 99/272/1 100/41/1
f 103/204/1 106/299/1 105/205/1
f 106/299/1 107/300/1 105/205/1
f 107/300/1 104/213/1 105/205/1
f 108/253/2 111/301/2 110/13/2
f 111/301/2 112/302/2 110/13/2
f 112/302/2 109/14/2 110/13/2
f 113/142/2 116/303/2 115/143/2
f 116/303/2 117/304/2 115/143/2
f 117/304/2 114/161/2 115/143/2
f 118/112/2 121/305/2 120/113/2
f 121/305/2 122/306/2 120/113/2
f 122/306/2 119/165/2 120/113/2
f 123/130/2 126/307/2 125/131/2
f 126/307/2 127/308/2 125/131/2
f 127/308/2 124/167/2 125/131/2
f 128/136/2 131/309/2 130/137/2
f 131/309/2 132/310/2 130/137/2
f 132/310/2 129/169/2 130/137/2
f 133/118/2 136/311/2 135/119/2
f 136/311/2 137/312/2 135/119/2
f 137/312/2 134/171/2 135/119/2
f 138/124/2 141/313/2 140/125/2
f 141/313/2 142/314/2 140/125/2
f 142/314/2 139/173/2 140/125/2
f 73/286/1 75/245/1 14/68/1 22/74/1 161/343/1 160/344/1
f 159/359/1 162/360/1 161/343/1
f 162/360/1 163/361/1 161/343/1
f 163/361/1 164/362/1 161/343/1
f 164/362/1 165/363/1 161/343/1
f 165/363/1 166/364/1 161/343/1
f 166/364/1 167/365/1 161/343/1
f 167/365/1 168/366/1 161/343/1
f 168/366/1 169/367/1 161/343/1
f 169/367/1 170/368/1 161/343/1
f 170/368/1 160/344/1 161/343/1
f 171/244/1 174/369/1 173/11/1
f 174/369/1 175/370/1 173/11/1
f 175/370/1 176/371/1 173/11/1
f 176/371/1 177/372/1 173/11/1
f 177/372/1 178/373/1 173/11/1
f 178/373/1 179/374/1 173/11/1
f 179/374/1 180/375/1 173/11/1
f 180/375/1 181/376/1 173/11/1
f 181/376/1 182/377/1 173/11/1
f 182/377/1 172/12/1 173/11/1
f 183/250/1 186/378/1 185/50/1
f 186/378/1 187/379/1 185/50/1
f 187/379/1 188/380/1 185/50/1
f 188/380/1 189/381/1 185/50/1
f 189/381/1 190/382/1 185/50/1
f 190/382/1 191/383/1 185/50/1
f 191/383/1 192/384/1 185/50/1
f 192/384/1 193/385/1 185/50/1
f 193/385/1 194/386/1 185/50/1
f 194/386/1 184/51/1 185/50/1
f 195/265/1 198/387/1 197/44/1
f 198/387/1 199/388/1 197/44/1
f 199/388/1 200/389/1 197/44/1
f 200/389/1 201/390/1 197/44/1
f 201/390/1 202/391/1 197/44/1
f 202/391/1 203/392/1 197/44/1
f 203/392/1 204/393/1 197/44/1
f 204/393/1 205/394/1 197/44/1
f 205/394/1 206/395/1 197/44/1
f 206/395/1 196/45/1 197/44/1
f 207/271/1 210/396/1 209/206/1
f 210/396/1 211/397/1 209/206/1
f 211/397/1 212/398/1 209/206/1
f 212/398/1 213/399/1 209/206/1
f 213/399/1 214/400/1 209/206/1
f 214/400/1 215/401/1 209/206/1
f 215/401/1 216/402/1 209/206/1
f 216/402/1 217/403/1 209/206/1
f 217/403/1 218/404/1 209/206/1
f 218/404/1 208/207/1 209/206/1
f 219/214/1 222/405/1 221/23/1
f 222/405/1 223/406/1 221/23/1
f 223/406/1 224/407/1 221/23/1
f 224/407/1 225/408/1 221/23/1
f 225/408/1 226/409/1 221/23/1
f 226/409/1 227/410/1 221/23/1
f 227/410/1 228/411/1 221/23/1
f 228/411/1 229/412/1 221/23/1
f 229/412/1 230/413/1 221/23/1
f 230/413/1 220/24/1 221/23/1
f 231/242/1 234/414/1 233/38/1
f 234/414/1 235/415/1 233/38/1
f 235/415/1 236/416/1 233/38/1
f 236/416/1 237/417/1 233/38/1
f 237/417/1 238/418/1 233/38/1
f 238/418/1 239/419/1 233/38/1
f 239/419/1 240/420/1 233/38/1
f 240/420/1 241/421/1 233/38/1
f 241/421/1 242/422/1 233/38/1
f 242/422/1 232/39/1 233/38/1
f 243/212/1 246/423/1 245/32/1
f 246/423/1 247/424/1 245/32/1
f 247/424/1 248/425/1 245/32/1
f 248/425/1 249/426/1 245/32/1
f 249/426/1 250/427/1 245/32/1
f 250/427/1 251/428/1 245/32/1
f 251/428/1 252/429/1 245/32/1
f 252/429/1 253/430/1 245/32/1
f 253/430/1 254/431/1 245/32/1
f 254/431/1 244/33/1 245/32/1
f 255/15/15 258/432/15 257/16/15
f 258/432/2 259/433/2 257/16/2
f 259/433/2 260/434/2 257/16/2
f 260/434/2 261/435/2 257/16/2
f 261/435/2 262/436/2 257/16/2
f 262/436/2 263/437/2 257/16/2
f 263/437/2 264/438/2 257/16/2
f 264/438/2 265/439/2 257/16/2
f 265/439/2 266/440/2 257/16/2
f 266/440/2 256/258/2 257/16/2
f 267/162/2 270/441/2 269/163/2
f 270/441/2 271/442/2 269/163/2
f 271/442/2 272/443/2 269/163/2
f 272/443/2 273/444/2 269/163/2
f 273/444/2 274/445/2 269/163/2
f 274/445/2 275/446/2 269/163/2
f 275/446/2 276/447/2 269/163/2
f 276/447/2 277/448/2 269/163/2
f 277/448/2 278/449/2 269/163/2
f 278/449/2 268/252/2 269/163/2
f 279/166/2 282/450/2 281/140/2
f 282/450/2 283/451/2 281/140/2
f 283/451/2 284/452/2 281/140/2
f 284/452/2 285/453/2 281/140/2
f 285/453/2 286/454/2 281/140/2
f 286/454/2 287/455/2 281/140/2
f 287/455/2 288/456/2 281/140/2
f 288/456/16 289/457/16 281/140/16
f 289/457/2 290/458/2 281/140/2
f 290/458/2 280/141/2 281/140/2
f 291/172/15 294/459/15 293/134/15
f 294/459/2 295/460/2 293/134/2
f 295/460/2 296/461/2 293/134/2
f 296/461/2 297/462/2 293/134/2
f 297/462/2 298/463/2 293/134/2
f 298/463/2 299/464/2 293/134/2
f 299/464/2 300/465/2 293/134/2
f 300/465/16 301/466/16 293/134/16
f 301/466/2 302/467/2 293/134/2
f 302/467/2 292/135/2 293/134/2
f 303/174/15 306/468/15 305/116/15
f 306/468/2 307/469/2 305/116/2
f 307/469/2 308/470/2 305/116/2
f 308/470/2 309/471/2 305/116/2
f 309/471/2 310/472/2 305/116/2
f 310/472/2 311/473/2 305/116/2
f 311/473/2 312/474/2 305/116/2
f 312/474/2 313/475/2 305/116/2
f 313/475/2 314/476/2 305/116/2
f 314/476/2 304/117/2 305/116/2
f 315/168/15 318/477/15 317/110/15
f 318/477/2 319/478/2 317/110/2
f 319/478/2 320/479/2 317/110/2
f 320/479/2 321/480/2 317/110/2
f 321/480/2 322/481/2 317/110/2
f 322/481/2 323/482/2 317/110/2
f 323/482/2 324/483/2 317/110/2
f 324/483/2 325/484/2 317/110/2
f 325/484/2 326/485/2 317/110/2
f 326/485/2 316/111/2 317/110/2
f 327/170/17 330/486/17 329/128/17
f 330/486/2 331/487/2 329/128/2
f 331/487/2 332/488/2 329/128/2
f 332/488/2 333/489/2 329/128/2
f 333/489/2 334/490/2 329/128/2
f 334/490/2 335/491/2 329/128/2
f 335/491/2 336/492/2 329/128/2
f 336/492/2 337/493/2 329/128/2
f 337/493/2 338/494/2 329/128/2
f 338/494/2 328/129/2 329/128/2
f 339/495/15 342/496/15 341/122/15
f 342/496/2 343/497/2 341/122/2
f 343/497/2 344/498/2 341/122/2
f 344/498/2 345/499/2 341/122/2
f 345/499/2 346/500/2 341/122/2
f 346/500/2 347/501/2 341/122/2
f 347/501/2 348/502/2 341/122/2
f 348/502/2 349/503/2 341/122/2
f 349/503/2 350/504/2 341/122/2
f 350/504/2 340/123/2 341/122/2
f 159/359/1 161/343/1 22/74/1 358/649/1 148/650/1
f 352/179/2 156/178/2 339/495/2 341/122/2 72/127/2
f 58/17/29 364/260/29 359/657/29 57/164/29
f 364/260/2 363/658/2 360/659/2 359/657/2
f 363/658/2 362/108/2 361/109/2 360/659/2
f 22/74/1 21/73/1 43/660/1 358/649/1
f 358/649/1 43/660/1 7/661/1 357/662/1
f 357/662/1 7/661/1 355/6/1 356/5/1
f 364/260/2 151/259/2 153/663/2 363/658/2
f 363/658/2 153/663/2 154/664/2 362/108/2
f 362/108/2 154/664/2 152/665/2 31/104/2
f 148/650/1 358/649/1 357/662/1 150/666/1
f 150/666/1 357/662/1 356/5/1 149/667/1
f 149/667/1 356/5/1 5/1/1 147/668/1
g Gresso_main_back
usemtl back
f 10/182/5 30/183/5 65/184/5 46/185/5
f 1/186/5 4/187/5 37/188/5 42/189/5
f 11/198/5 27/199/5 63/200/5 47/201/5
f 25/208/5 11/198/5 47/201/5 61/209/5
f 12/210/5 25/208/5 61/209/5 48/211/5
f 13/220/5 23/221/5 59/222/5 49/223/5
f 33/224/5 8/225/5 44/226/5 67/227/5
f 9/228/5 33/224/5 67/227/5 45/229/5
f 43/238/5 21/239/5 57/240/5 359/241/5
f 21/239/5 13/220/5 49/223/5 57/240/5
f 27/199/5 10/182/5 46/185/5 63/200/5
f 35/261/5 6/262/5 28/263/5 69/264/5
f 8/225/5 35/261/5 69/264/5 44/226/5
f 23/221/5 12/210/5 48/211/5 59/222/5
f 6/262/5 38/273/5 71/274/5 28/263/5
f 30/183/5 9/228/5 45/229/5 65/184/5
f 38/273/5 353/651/5 354/652/5 71/274/5
f 4/187/5 355/653/5 361/654/5 37/188/5
f 355/653/5 7/655/5 360/656/5 361/654/5
f 7/655/5 43/238/5 359/241/5 360/656/5
g Gresso_main_front_gresso
usemtl front_gresso
f 231/25/3 89/26/3 123/27/3 328/28/3
f 78/69/4 172/70/4 267/71/4 114/72/4
f 83/75/4 184/76/4 279/77/4 119/78/4
f 88/79/4 220/80/4 315/81/4 124/82/4
f 219/83/3 84/84/3 118/85/3 316/86/3
f 98/87/4 196/88/4 291/89/4 134/90/4
f 103/91/4 208/92/4 303/93/4 139/94/4
f 143/95/4 244/96/4 339/97/4 156/98/4
f 243/100/3 104/101/3 138/102/3 340/103/3
f 93/190/4 232/191/4 327/192/4 129/193/4
f 352/194/6 354/195/6 353/196/6 351/197/6
f 2/202/7 1/196/7 42/195/7 41/203/7
f 183/216/3 79/217/3 113/218/3 280/219/3
f 159/230/3 148/231/3 151/232/3 256/233/3
f 195/234/3 94/235/3 128/236/3 292/237/3
f 5/197/8 2/247/8 41/248/8 31/249/8
f 73/254/4 160/255/4 255/256/4 109/257/4
f 207/267/3 99/268/3 133/269/3 304/270/3
f 171/275/3 74/276/3 108/277/3 268/278/3
f 147/282/7 5/283/7 31/284/7 152/285/7
f 123/27/9 89/26/9 92/315/9 126/316/9
f 126/316/8 92/315/8 91/317/8 127/318/8
f 127/318/10 91/317/10 88/79/10 124/82/10
f 128/236/9 94/235/9 97/319/9 131/320/9
f 131/320/8 97/319/8 96/321/8 132/322/8
f 132/322/10 96/321/10 93/190/10 129/193/10
f 83/75/10 119/78/10 122/323/10 86/324/10
f 86/324/8 122/323/8 121/325/8 87/326/8
f 87/326/9 121/325/9 118/85/9 84/84/9
f 78/69/10 114/72/10 117/327/10 81/328/10
f 81/328/8 117/327/8 116/329/8 82/330/8
f 82/330/9 116/329/9 113/218/9 79/217/9
f 108/277/9 74/276/9 77/331/9 111/332/9
f 111/332/8 77/331/8 76/333/8 112/334/8
f 112/334/10 76/333/10 73/254/10 109/257/10
f 103/91/10 139/94/10 142/335/10 106/336/10
f 106/336/8 142/335/8 141/337/8 107/338/8
f 107/338/9 141/337/9 138/102/9 104/101/9
f 133/269/9 99/268/9 102/339/9 136/340/9
f 136/340/8 102/339/8 101/341/8 137/342/8
f 137/342/10 101/341/10 98/87/10 134/90/10
f 143/95/11 156/98/11 158/345/11 145/346/11
f 145/346/12 158/345/12 157/347/12 146/348/12
f 146/348/8 157/347/8 155/349/8 144/350/8
f 147/351/8 152/352/8 154/353/8 149/354/8
f 149/354/13 154/353/13 153/355/13 150/356/13
f 150/356/14 153/355/14 151/232/14 148/231/14
f 3/283/6 144/357/6 155/358/6 40/284/6
f 219/83/18 316/86/18 326/505/18 222/506/18
f 222/506/19 326/505/19 325/507/19 223/508/19
f 223/508/20 325/507/20 324/509/20 224/510/20
f 224/510/21 324/509/21 323/511/21 225/512/21
f 225/512/22 323/511/22 322/513/22 226/514/22
f 226/514/23 322/513/23 321/515/23 227/516/23
f 227/516/24 321/515/24 320/517/24 228/518/24
f 228/518/25 320/517/25 319/519/25 229/520/25
f 229/520/26 319/519/26 318/521/26 230/522/26
f 230/522/27 318/521/27 315/81/27 220/80/27
f 231/25/18 328/28/18 338/523/18 234/524/18
f 234/524/19 338/523/19 337/525/19 235/526/19
f 235/526/20 337/525/20 336/527/20 236/528/20
f 236/528/21 336/527/21 335/529/21 237/530/21
f 237/530/22 335/529/22 334/531/22 238/532/22
f 238/532/23 334/531/23 333/533/23 239/534/23
f 239/534/24 333/533/24 332/535/24 240/536/24
f 240/536/25 332/535/25 331/537/25 241/538/25
f 241/538/26 331/537/26 330/539/26 242/540/26
f 242/540/27 330/539/27 327/192/27 232/191/27
f 279/77/28 184/76/28 194/541/28 282/542/28
f 282/542/26 194/541/26 193/543/26 283/544/26
f 283/544/25 193/543/25 192/545/25 284/546/25
f 284/546/24 192/545/24 191/547/24 285/548/24
f 285/548/23 191/547/23 190/549/23 286/550/23
f 286/550/22 190/549/22 189/551/22 287/552/22
f 287/552/21 189/551/21 188/553/21 288/554/21
f 288/554/20 188/553/20 187/555/20 289/556/20
f 289/556/19 187/555/19 186/557/19 290/558/19
f 290/558/18 186/557/18 183/216/18 280/219/18
f 159/230/18 256/233/18 266/559/18 162/560/18
f 162/560/19 266/559/19 265/561/19 163/562/19
f 163/562/20 265/561/20 264/563/20 164/564/20
f 164/564/21 264/563/21 263/565/21 165/566/21
f 165/566/22 263/565/22 262/567/22 166/568/22
f 166/568/23 262/567/23 261/569/23 167/570/23
f 167/570/24 261/569/24 260/571/24 168/572/24
f 168/572/25 260/571/25 259/573/25 169/574/25
f 169/574/26 259/573/26 258/575/26 170/576/26
f 170/576/27 258/575/27 255/256/27 160/255/27
f 291/89/28 196/88/28 206/577/28 294/578/28
f 294/578/26 206/577/26 205/579/26 295/580/26
f 295/580/25 205/579/25 204/581/25 296/582/25
f 296/582/24 204/581/24 203/583/24 297/584/24
f 297/584/23 203/583/23 202/585/23 298/586/23
f 298/586/22 202/585/22 201/587/22 299/588/22
f 299/588/21 201/587/21 200/589/21 300/590/21
f 300/590/20 200/589/20 199/591/20 301/592/20
f 301/592/19 199/591/19 198/593/19 302/594/19
f 302/594/18 198/593/18 195/234/18 292/237/18
f 171/275/18 268/278/18 278/595/18 174/596/18
f 174/596/19 278/595/19 277/597/19 175/598/19
f 175/598/20 277/597/20 276/599/20 176/600/20
f 176/600/21 276/599/21 275/601/21 177/602/21
f 177/602/22 275/601/22 274/603/22 178/604/22
f 178/604/23 274/603/23 273/605/23 179/606/23
f 179/606/24 273/605/24 272/607/24 180/608/24
f 180/608/25 272/607/25 271/609/25 181/610/25
f 181/610/26 271/609/26 270/611/26 182/612/26
f 182/612/27 270/611/27 267/71/27 172/70/27
f 339/97/27 244/96/27 254/613/27 342/614/27
f 342/614/26 254/613/26 253/615/26 343/616/26
f 343/616/25 253/615/25 252/617/25 344/618/25
f 344/618/24 252/617/24 251/619/24 345/620/24
f 345/620/23 251/619/23 250/621/23 346/622/23
f 346/622/22 250/621/22 249/623/22 347/624/22
f 347/624/21 249/623/21 248/625/21 348/626/21
f 348/626/20 248/625/20 247/627/20 349/628/20
f 349/628/19 247/627/19 246/629/19 350/630/19
f 350/630/18 246/629/18 243/100/18 340/103/18
f 303/93/28 208/92/28 218/631/28 306/632/28
f 306/632/26 218/631/26 217/633/26 307/634/26
f 307/634/25 217/633/25 216/635/25 308/636/25
f 308/636/24 216/635/24 215/637/24 309/638/24
f 309/638/23 215/637/23 214/639/23 310/640/23
f 310/640/22 214/639/22 213/641/22 311/642/22
f 311/642/21 213/641/21 212/643/21 312/644/21
f 312/644/20 212/643/20 211/645/20 313/646/20
f 313/646/19 211/645/19 210/647/19 314/648/19
f 314/648/18 210/647/18 207/267/18 304/270/18
f 3/202/5 40/203/5 352/358/5 351/357/5
