# Blender 4.0.2
# www.blender.org
mtllib gresso_L.mtl
o Gresso_L
v -0.166390 1.000000 -0.057627
v -0.166390 1.000000 -0.052627
v -0.171390 1.000000 -0.057627
v -0.171390 1.000000 -0.052627
v -0.179015 1.000000 -0.057627
v -0.201890 1.000000 -0.057627
v -0.201890 1.000000 -0.053497
v -0.186640 1.000000 -0.057627
v -0.186640 1.000000 -0.055993
v -0.171390 -1.700000 -0.052627
v -0.171390 -1.700000 -0.057627
v -0.166390 -1.700000 -0.052627
v -0.166390 -1.700000 -0.057627
v -0.182827 1.000000 -0.057627
v -0.201890 -1.700000 -0.057627
v -0.201890 -1.700000 -0.053497
v -0.186640 -1.700000 -0.057627
v -0.186640 -1.700000 -0.055993
v -0.200464 1.000000 -0.044780
v -0.201890 1.000000 -0.045430
v -0.201721 1.000000 -0.044628
v -0.201890 1.000000 -0.044692
v -0.200464 -1.700000 -0.044780
v -0.201890 -1.700000 -0.045430
v -0.201890 -1.700000 -0.044692
v -0.201721 -1.700000 -0.044628
v -0.171390 1.000000 -0.044627
v -0.172815 1.000000 -0.044780
v -0.171581 1.000000 -0.044627
v -0.172102 1.000000 -0.044632
v -0.172815 -1.700000 -0.044780
v -0.171390 -1.700000 -0.044627
v -0.172102 -1.700000 -0.044632
v -0.171581 -1.700000 -0.044627
v -0.174328 1.000000 -0.045469
v -0.198951 1.000000 -0.045469
v -0.186640 1.000000 -0.055190
v -0.176406 1.000000 -0.046678
v -0.178735 1.000000 -0.047744
v -0.181259 1.000000 -0.048744
v -0.183916 1.000000 -0.049497
v -0.186640 1.000000 -0.049794
v -0.189363 1.000000 -0.049497
v -0.192020 1.000000 -0.048744
v -0.194544 1.000000 -0.047744
v -0.196873 1.000000 -0.046678
v -0.198951 -1.700000 -0.045469
v -0.174328 -1.700000 -0.045469
v -0.186640 -1.700000 -0.055190
v -0.196873 -1.700000 -0.046678
v -0.194544 -1.700000 -0.047744
v -0.192020 -1.700000 -0.048744
v -0.189363 -1.700000 -0.049497
v -0.186640 -1.700000 -0.049794
v -0.183916 -1.700000 -0.049497
v -0.181259 -1.700000 -0.048744
v -0.178735 -1.700000 -0.047744
v -0.176406 -1.700000 -0.046678
v -0.175202 1.000000 -0.057627
v -0.175202 1.000000 -0.053469
v -0.179015 1.000000 -0.054310
v -0.182827 1.000000 -0.055151
v -0.182827 -1.700000 -0.057627
v -0.179015 -1.700000 -0.057627
v -0.175202 -1.700000 -0.057627
v -0.175202 -1.700000 -0.053469
v -0.179015 -1.700000 -0.054310
v -0.182827 -1.700000 -0.055151
vn -0.0000 -1.0000 -0.0000
vn -0.0000 1.0000 -0.0000
vn -0.0000 -0.0000 1.0000
vn -1.0000 -0.0000 -0.0000
vn 0.4145 -0.0000 -0.9100
vn -0.0000 -0.0000 -1.0000
vn -0.4145 -0.0000 -0.9100
vn 1.0000 -0.0000 -0.0000
vn 0.3508 -0.0000 -0.9365
vn -0.1198 -0.0000 -0.9928
vn 0.0086 -0.0000 -1.0000
vn 0.2036 -0.0000 -0.9791
vn -0.0004 1.0000 -0.0000
vn 0.5028 -0.0000 -0.8644
vn 0.4164 -0.0000 -0.9092
vn 0.3682 -0.0000 -0.9298
vn 0.2727 -0.0000 -0.9621
vn 0.1086 -0.0000 -0.9941
vn -0.1086 -0.0000 -0.9941
vn -0.2727 -0.0000 -0.9621
vn -0.3682 -0.0000 -0.9298
vn -0.4164 -0.0000 -0.9092
vn -0.5027 -0.0000 -0.8644
vn 0.0001 1.0000 -0.0000
vn -0.0001 1.0000 -0.0000
vt 0.225352 0.859155
vt 0.366197 0.859155
vt 0.366197 1.000000
vt 0.225352 1.000000
vt 0.249053 0.751761
vt 0.366197 0.751761
vt 0.388802 1.000000
vt 0.370497 0.959849
vt 0.389916 0.917219
vt 0.663734 0.570423
vt 0.686354 0.570423
vt 0.616044 1.000000
vt 0.249847 -0.000000
vt 0.366197 0.000000
vt 0.366197 0.429578
vt 0.320157 0.429577
vt 0.591549 0.140845
vt 0.591549 -0.000000
vt 0.732394 -0.000000
vt 0.732394 0.140845
vt 0.615250 0.248239
vt 0.732394 0.248239
vt 0.732394 0.570422
vt 0.732394 1.000000
vt 0.000000 0.000000
vt 0.001852 0.000000
vt 0.001852 1.000000
vt 0.000000 1.000000
vt 0.304472 -7.000000
vt 0.319012 -7.000000
vt 0.319012 8.000000
vt 0.304472 8.000000
vt 0.234985 -7.000000
vt 0.239437 -7.000000
vt 0.239437 8.000000
vt 0.234985 8.000000
vt 0.006088 0.000000
vt 0.007500 0.000000
vt 0.007500 1.000000
vt 0.006088 1.000000
vt 0.013148 0.000000
vt 0.013148 1.000000
vt 0.333547 -7.000000
vt 0.333547 8.000000
vt 0.159060 -7.000000
vt 0.163407 -7.000000
vt 0.163407 8.000000
vt 0.159060 8.000000
vt 0.389916 0.223626
vt 0.370497 0.180995
vt 0.662653 0.463028
vt 0.281208 -7.000000
vt 0.281208 8.000000
vt 0.004300 0.040151
vt 0.000029 0.004761
vt 0.022605 -0.000000
vt 0.001813 -0.000000
vt 0.255603 8.000000
vt 0.255603 -7.000000
vt 0.279062 -7.000000
vt 0.279062 8.000000
vt 0.368010 1.000000
vt 0.366227 0.995239
vt 0.243592 -7.000000
vt 0.243592 8.000000
vt 0.154923 8.000000
vt 0.154923 -7.000000
vt 0.155419 -7.000000
vt 0.155419 8.000000
vt 0.297537 0.429577
vt 0.023718 0.082781
vt 0.243037 8.000000
vt 0.243037 -7.000000
vt 0.241520 8.000000
vt 0.241520 -7.000000
vt 0.023719 0.776374
vt 0.057754 0.717853
vt 0.087804 0.652235
vt 0.115958 0.581133
vt 0.137165 0.506300
vt 0.145543 0.429577
vt 0.137165 0.352855
vt 0.115958 0.278022
vt 0.087804 0.206920
vt 0.057754 0.141302
vt 0.423951 0.858698
vt 0.454001 0.793080
vt 0.482155 0.721978
vt 0.503362 0.647145
vt 0.511740 0.570423
vt 0.503362 0.493700
vt 0.482155 0.418867
vt 0.454002 0.347765
vt 0.423951 0.282147
vt 0.228855 8.000000
vt 0.228855 -7.000000
vt 0.222003 8.000000
vt 0.222003 -7.000000
vt 0.214589 8.000000
vt 0.214589 -7.000000
vt 0.206810 8.000000
vt 0.206810 -7.000000
vt 0.198870 8.000000
vt 0.198870 -7.000000
vt 0.190974 8.000000
vt 0.190974 -7.000000
vt 0.183309 8.000000
vt 0.183309 -7.000000
vt 0.176047 8.000000
vt 0.176047 -7.000000
vt 0.169355 8.000000
vt 0.169355 -7.000000
vt 0.296456 0.536972
vt 0.004300 0.819005
vt 0.003264 0.000000
vt 0.003264 1.000000
vt 0.004676 0.000000
vt 0.004676 1.000000
vt 0.732394 0.463028
vt 0.638951 0.355634
vt 0.732394 0.355634
vt 0.366197 0.536972
vt 0.366197 0.644366
vt 0.272754 0.644366
vt 0.366324 0.160920
vt 0.366197 0.146224
vt 0.366197 0.140845
vt 0.000126 0.839080
vt -0.000000 0.853776
vt -0.000000 0.859155
s 0
g Gresso_L_top_bottom
usemtl top_bottom
f 4/1/1 3/2/1 1/3/1 2/4/1
f 60/5/1 59/6/1 3/2/1 4/1/1
f 24/7/2 23/8/2 47/9/2 49/10/2 18/11/2 16/12/2
f 7/13/1 6/14/1 8/15/1 9/16/1
f 10/17/2 12/18/2 13/19/2 11/20/2
f 66/21/2 10/17/2 11/20/2 65/22/2
f 16/12/2 18/11/2 17/23/2 15/24/2
f 49/10/2 48/49/2 31/50/2 68/51/2 18/11/2
f 19/54/1 21/55/1 20/56/1
f 21/55/1 22/57/1 20/56/1
f 25/62/2 26/63/2 24/7/2
f 26/63/2 23/8/2 24/7/2
f 19/54/1 20/56/1 7/13/1 9/16/1 37/70/1 36/71/1
f 35/76/1 38/77/1 37/70/1
f 38/77/1 39/78/1 37/70/1
f 39/78/1 40/79/1 37/70/1
f 40/79/1 41/80/1 37/70/1
f 41/80/1 42/81/1 37/70/1
f 42/81/1 43/82/1 37/70/1
f 43/82/1 44/83/1 37/70/1
f 44/83/1 45/84/1 37/70/1
f 45/84/1 46/85/1 37/70/1
f 46/85/1 36/71/1 37/70/1
f 47/9/13 50/86/13 49/10/13
f 50/86/2 51/87/2 49/10/2
f 51/87/2 52/88/2 49/10/2
f 52/88/2 53/89/2 49/10/2
f 53/89/2 54/90/2 49/10/2
f 54/90/2 55/91/2 49/10/2
f 55/91/2 56/92/2 49/10/2
f 56/92/2 57/93/2 49/10/2
f 57/93/2 58/94/2 49/10/2
f 58/94/2 48/49/2 49/10/2
f 35/76/1 37/70/1 9/16/1 62/113/1 28/114/1
f 18/11/24 68/51/24 63/119/24 17/23/24
f 68/51/2 67/120/2 64/121/2 63/119/2
f 67/120/2 66/21/2 65/22/2 64/121/2
f 9/16/1 8/15/1 14/122/1 62/113/1
f 62/113/1 14/122/1 5/123/1 61/124/1
f 61/124/1 5/123/1 59/6/1 60/5/1
f 68/51/2 31/50/2 33/125/2 67/120/2
f 67/120/25 33/125/25 34/126/25 66/21/25
f 66/21/2 34/126/2 32/127/2 10/17/2
f 28/114/1 62/113/1 61/124/1 30/128/1
f 30/128/1 61/124/1 60/5/1 29/129/1
f 29/129/1 60/5/1 4/1/1 27/130/1
g Gresso_L_back
usemtl back
f 1/25/3 3/26/3 11/27/3 13/28/3
f 14/37/3 8/38/3 17/39/3 63/40/3
f 8/38/3 6/41/3 15/42/3 17/39/3
f 3/26/3 59/115/3 65/116/3 11/27/3
f 59/115/3 5/117/3 64/118/3 65/116/3
f 5/117/3 14/37/3 63/40/3 64/118/3
g Gresso_L_front_gresso
usemtl front_gresso
f 2/29/4 1/30/4 13/31/4 12/32/4
f 35/33/5 28/34/5 31/35/5 48/36/5
f 4/30/6 2/43/6 12/44/6 10/31/6
f 19/45/7 36/46/7 47/47/7 23/48/7
f 27/52/4 4/29/4 10/32/4 32/53/4
f 16/58/8 7/59/8 20/60/8 24/61/8
f 22/52/8 25/53/8 24/61/8 20/60/8
f 6/64/8 7/59/8 16/58/8 15/65/8
f 25/66/9 22/67/9 21/68/9 26/69/9
f 26/69/10 21/68/10 19/45/10 23/48/10
f 27/64/6 32/65/6 34/72/6 29/73/6
f 29/73/11 34/72/11 33/74/11 30/75/11
f 30/75/12 33/74/12 31/35/12 28/34/12
f 35/33/14 48/36/14 58/95/14 38/96/14
f 38/96/15 58/95/15 57/97/15 39/98/15
f 39/98/16 57/97/16 56/99/16 40/100/16
f 40/100/17 56/99/17 55/101/17 41/102/17
f 41/102/18 55/101/18 54/103/18 42/104/18
f 42/104/19 54/103/19 53/105/19 43/106/19
f 43/106/20 53/105/20 52/107/20 44/108/20
f 44/108/21 52/107/21 51/109/21 45/110/21
f 45/110/22 51/109/22 50/111/22 46/112/22
f 46/112/23 50/111/23 47/47/23 36/46/23
