# Blender 4.0.2
# www.blender.org
mtllib roca_R.mtl
o Roca_R
v 0.092668 1.000000 -0.054127
v 0.162335 1.000000 -0.061127
v 0.154335 1.000000 -0.041127
v 0.111187 1.000000 -0.041127
v 0.098668 1.000000 -0.061127
v 0.098668 1.000000 -0.041127
v 0.098668 1.000000 -0.054127
v 0.092668 -1.700000 -0.054127
v 0.162335 -1.700000 -0.061127
v 0.154335 -1.700000 -0.041127
v 0.111187 -1.700000 -0.041127
v 0.098668 -1.700000 -0.061127
v 0.098668 -1.700000 -0.041127
v 0.098668 -1.700000 -0.054127
v 0.154335 1.000000 -0.059127
v 0.156335 1.000000 -0.061127
v 0.154603 1.000000 -0.060127
v 0.155335 1.000000 -0.060859
v 0.109187 1.000000 -0.061127
v 0.111187 1.000000 -0.059127
v 0.110187 1.000000 -0.060859
v 0.110919 1.000000 -0.060127
v 0.156335 -1.700000 -0.061127
v 0.154335 -1.700000 -0.059127
v 0.155335 -1.700000 -0.060859
v 0.154603 -1.700000 -0.060127
v 0.111187 -1.700000 -0.059127
v 0.109187 -1.700000 -0.061127
v 0.110919 -1.700000 -0.060127
v 0.110187 -1.700000 -0.060859
v 0.111187 1.000000 -0.056127
v 0.116187 1.000000 -0.051127
v 0.111187 1.000000 -0.046127
v 0.106325 1.000000 -0.052292
v 0.111857 1.000000 -0.053627
v 0.113687 1.000000 -0.051797
v 0.116187 -1.700000 -0.051127
v 0.111187 -1.700000 -0.056127
v 0.106325 -1.700000 -0.052292
v 0.111187 -1.700000 -0.046127
v 0.113687 -1.700000 -0.051797
v 0.111857 -1.700000 -0.053627
v 0.149335 1.000000 -0.051127
v 0.154335 1.000000 -0.056127
v 0.159016 1.000000 -0.052883
v 0.154335 1.000000 -0.046127
v 0.151835 1.000000 -0.051797
v 0.153665 1.000000 -0.053627
v 0.154335 -1.700000 -0.056127
v 0.149335 -1.700000 -0.051127
v 0.154335 -1.700000 -0.046127
v 0.159016 -1.700000 -0.052883
v 0.153665 -1.700000 -0.053627
v 0.151835 -1.700000 -0.051797
v 0.094668 1.000000 -0.041127
v 0.092668 1.000000 -0.043127
v 0.093903 1.000000 -0.041280
v 0.093254 1.000000 -0.041713
v 0.092820 1.000000 -0.042362
v 0.162335 1.000000 -0.043127
v 0.160335 1.000000 -0.041127
v 0.162182 1.000000 -0.042362
v 0.161749 1.000000 -0.041713
v 0.161100 1.000000 -0.041280
v 0.092668 -1.700000 -0.043127
v 0.094668 -1.700000 -0.041127
v 0.092820 -1.700000 -0.042362
v 0.093254 -1.700000 -0.041713
v 0.093903 -1.700000 -0.041280
v 0.160335 -1.700000 -0.041127
v 0.162335 -1.700000 -0.043127
v 0.161100 -1.700000 -0.041280
v 0.161749 -1.700000 -0.041713
v 0.162182 -1.700000 -0.042362
v 0.162335 1.000000 -0.052127
v 0.160462 1.000000 -0.053425
v 0.162335 1.000000 -0.056127
v 0.162335 -1.700000 -0.052127
v 0.162335 -1.700000 -0.056127
v 0.160462 -1.700000 -0.053425
vn -0.0000 -0.0000 -1.0000
vn -1.0000 -0.0000 -0.0000
vn -0.0000 1.0000 -0.0000
vn -0.0000 -1.0000 -0.0000
vn -0.0000 -0.0000 1.0000
vn 1.0000 -0.0000 -0.0000
vn -0.9659 -0.0000 0.2588
vn -0.7071 -0.0000 0.7071
vn -0.2588 -0.0000 0.9659
vn 0.9659 -0.0000 0.2588
vn 0.7071 -0.0000 0.7071
vn 0.2588 -0.0000 0.9659
vn -0.9808 -0.0000 -0.1951
vn -0.8315 -0.0000 -0.5556
vn -0.5556 -0.0000 -0.8315
vn -0.1951 -0.0000 -0.9808
vn 0.9808 -0.0000 -0.1951
vn 0.8315 -0.0000 -0.5556
vn 0.5556 -0.0000 -0.8315
vn 0.1951 -0.0000 -0.9808
vt -0.683817 -2.812357
vt -0.672707 -2.812357
vt -0.672707 3.812356
vt -0.683817 3.812356
vt 0.321442 -2.812357
vt 0.346283 -2.812357
vt 0.346283 3.812356
vt 0.321442 3.812356
vt 0.356001 0.278667
vt 0.350810 0.271176
vt 0.352979 0.265393
vt 0.380001 0.246667
vt 0.400001 0.246667
vt 0.400001 0.270667
vt 0.399392 0.273728
vt 0.397658 0.276324
vt 0.395063 0.278058
vt 0.392001 0.278667
vt 0.480001 0.278667
vt 0.460001 0.278667
vt 0.449192 0.271176
vt 0.447024 0.265393
vt 0.460001 0.246667
vt 0.472001 0.246667
vt 0.476001 0.247738
vt 0.478929 0.250667
vt 0.480001 0.254667
vt 0.440001 0.226667
vt 0.420001 0.246667
vt 0.400001 0.246667
vt 0.400001 0.074078
vt 0.420001 0.074078
vt 0.440001 0.094078
vt 0.480001 0.066078
vt 0.478929 0.070078
vt 0.476001 0.073006
vt 0.472001 0.074078
vt 0.460001 0.074078
vt 0.444662 0.054628
vt 0.452001 0.024000
vt 0.480001 0.024000
vt 0.119739 0.000000
vt 0.123635 0.000000
vt 0.123635 1.000000
vt 0.119739 1.000000
vt 0.150825 0.000000
vt 0.151919 0.000000
vt 0.151919 1.000000
vt 0.150825 1.000000
vt 0.320001 0.278667
vt 0.320001 0.254667
vt 0.321073 0.250667
vt 0.324001 0.247738
vt 0.328001 0.246667
vt 0.340001 0.246667
vt 0.340001 0.278667
vt 0.163207 0.000000
vt 0.165430 0.000000
vt 0.165430 1.000000
vt 0.163207 1.000000
vt 0.380001 0.074078
vt 0.355340 0.054628
vt 0.348001 0.024000
vt 0.400001 0.024000
vt 0.400001 0.074078
vt 0.360001 0.226667
vt 0.360001 0.094078
vt 0.400001 0.024000
vt 0.328001 0.074078
vt 0.324001 0.073006
vt 0.321073 0.070078
vt 0.320001 0.066078
vt 0.320001 0.024000
vt 0.340001 0.074078
vt -0.637934 -2.812357
vt -0.637934 3.812356
vt 0.348001 0.000000
vt 0.392001 0.000000
vt 0.395063 0.000609
vt 0.397658 0.002343
vt 0.399392 0.004939
vt 0.400001 0.008000
vt -0.518091 -2.812357
vt -0.501426 -2.812357
vt -0.501426 3.812356
vt -0.518091 3.812356
vt 0.807996 -2.812357
vt 0.807996 3.812356
vt 0.788637 3.812356
vt 0.788637 -2.812357
vt 0.400001 0.008000
vt 0.400610 0.004939
vt 0.402344 0.002343
vt 0.404940 0.000609
vt 0.408001 -0.000000
vt 0.452001 -0.000000
vt 0.882663 -2.812357
vt 0.899330 -2.812357
vt 0.899330 3.812356
vt 0.882663 3.812356
vt 0.444001 0.278667
vt 0.408001 0.278667
vt 0.404940 0.278058
vt 0.402344 0.276324
vt 0.400610 0.273728
vt 0.400001 0.270667
vt 0.152301 0.000000
vt 0.152301 1.000000
vt 0.152616 0.000000
vt 0.152616 1.000000
vt 0.119368 1.000000
vt 0.119368 0.000000
vt 0.132128 0.000000
vt 0.132128 1.000000
vt 0.131746 1.000000
vt 0.131746 0.000000
vt 0.131432 1.000000
vt 0.131432 0.000000
vt 0.165800 0.000000
vt 0.165800 1.000000
vt 0.450001 0.076757
vt 0.442681 0.084078
vt 0.357322 0.084078
vt 0.350001 0.076757
vt 0.149870 1.000000
vt 0.149870 0.000000
vt 0.149085 1.000000
vt 0.149085 0.000000
vt 0.068203 0.000000
vt 0.068203 1.000000
vt 0.067277 1.000000
vt 0.067277 0.000000
vt 0.133222 1.000000
vt 0.133222 0.000000
vt 0.442681 0.236667
vt 0.450001 0.243987
vt 0.350001 0.243987
vt 0.357322 0.236667
vt 0.055000 0.000000
vt 0.055000 1.000000
vt 0.054074 1.000000
vt 0.054074 0.000000
vt 0.134962 0.000000
vt 0.134962 1.000000
vt 0.134177 1.000000
vt 0.134177 0.000000
vt 0.319282 3.812356
vt 0.319282 -2.812357
vt 0.317355 3.812356
vt 0.317355 -2.812357
vt -0.497476 -2.812357
vt -0.497476 3.812356
vt -0.499294 3.812356
vt -0.499294 -2.812357
vt 0.490446 3.812356
vt 0.490446 -2.812357
vt 0.492602 -2.812357
vt 0.492602 3.812356
vt 0.494510 -2.812357
vt 0.494510 3.812356
vt -0.687723 3.812356
vt -0.687723 -2.812357
vt -0.685937 -2.812357
vt -0.685937 3.812356
vt 0.460025 -2.812357
vt 0.460025 3.812356
vt 0.357324 -2.812357
vt 0.357324 3.812356
vt 0.371125 -2.812357
vt 0.371125 3.812356
s 0
g Roca_R_top_bottom
usemtl top_bottom
f 78/9/3 80/10/3 52/11/3 51/12/3 10/13/3 70/14/3 72/15/3 73/16/3 74/17/3 71/18/3
f 2/19/4 77/20/4 76/21/4 45/22/4 44/23/4 15/24/4 17/25/4 18/26/4 16/27/4
f 43/28/4 46/29/4 3/30/4 4/31/4 33/32/4 32/33/4
f 19/34/4 21/35/4 22/36/4 20/37/4 31/38/4 34/39/4 7/40/4 5/41/4
f 9/50/3 23/51/3 25/52/3 26/53/3 24/54/3 49/55/3 52/11/3 80/10/3 79/56/3
f 40/61/3 39/62/3 14/63/3 13/64/3 11/65/3
f 51/12/3 50/66/3 37/67/3 40/61/3 11/65/3 10/13/3
f 34/39/4 33/32/4 4/31/4 6/68/4 7/40/4
f 27/69/3 29/70/3 30/71/3 28/72/3 12/73/3 14/63/3 39/62/3 38/74/3
f 14/63/3 8/77/3 65/78/3 67/79/3 68/80/3 69/81/3 66/82/3 13/64/3
f 7/40/4 6/68/4 55/91/4 57/92/4 58/93/4 59/94/4 56/95/4 1/96/4
f 76/21/4 75/101/4 60/102/4 62/103/4 63/104/4 64/105/4 61/106/4 3/30/4 46/29/4 45/22/4
f 31/38/4 35/121/4 36/122/4 32/33/4 33/32/4 34/39/4
f 37/67/3 41/123/3 42/124/3 38/74/3 39/62/3 40/61/3
f 43/28/4 47/135/4 48/136/4 44/23/4 45/22/4 46/29/4
f 49/55/3 53/137/3 54/138/3 50/66/3 51/12/3 52/11/3
f 80/10/3 78/9/3 79/56/3
f 75/101/4 76/21/4 77/20/4
g Roca_R_back
usemtl back
f 19/42/5 5/43/5 12/44/5 28/45/5
f 31/46/2 20/47/2 27/48/2 38/49/2
f 2/57/5 16/58/5 23/59/5 9/60/5
f 27/48/7 20/47/7 22/107/7 29/108/7
f 29/108/8 22/107/8 21/109/8 30/110/8
f 30/111/9 21/112/9 19/42/9 28/45/9
f 15/113/10 24/114/10 26/115/10 17/116/10
f 17/116/11 26/115/11 25/117/11 18/118/11
f 18/119/12 25/120/12 23/59/12 16/58/12
f 31/46/7 38/49/7 42/125/7 35/126/7
f 35/126/8 42/125/8 41/127/8 36/128/8
f 36/129/9 41/130/9 37/131/9 32/132/9
f 49/133/6 24/114/6 15/113/6 44/134/6
f 43/139/12 50/140/12 54/141/12 47/142/12
f 47/143/11 54/144/11 53/145/11 48/146/11
f 48/146/10 53/145/10 49/133/10 44/134/10
f 37/131/5 50/140/5 43/139/5 32/132/5
g Roca_R_front_roca
usemtl front_roca
f 55/1/1 6/2/1 13/3/1 66/4/1
f 60/5/2 75/6/2 78/7/2 71/8/2
f 6/2/1 4/75/1 11/76/1 13/3/1
f 3/83/1 61/84/1 70/85/1 10/86/1
f 7/87/6 14/88/6 12/89/6 5/90/6
f 4/75/1 3/83/1 10/86/1 11/76/1
f 7/97/5 1/98/5 8/99/5 14/100/5
f 60/5/13 71/8/13 74/147/13 62/148/13
f 62/148/14 74/147/14 73/149/14 63/150/14
f 63/151/15 73/152/15 72/153/15 64/154/15
f 64/154/16 72/153/16 70/85/16 61/84/16
f 65/155/17 56/156/17 59/157/17 67/158/17
f 67/158/18 59/157/18 58/159/18 68/160/18
f 68/161/19 58/162/19 57/163/19 69/164/19
f 69/164/20 57/163/20 55/1/20 66/4/20
f 1/165/6 56/156/6 65/155/6 8/166/6
f 75/6/2 77/167/2 79/168/2 78/7/2
f 2/169/2 9/170/2 79/168/2 77/167/2
