# Blender 4.0.2
# www.blender.org
mtllib velutto_main.mtl
o Velutto_main
v 0.098611 1.000000 -0.057627
v -0.145389 1.000000 -0.052627
v 0.098611 1.000000 -0.052627
v -0.151389 1.000000 -0.052627
v 0.093611 1.000000 -0.057627
v 0.093611 1.000000 -0.052627
v 0.032361 1.000000 -0.057627
v -0.028889 1.000000 -0.057627
v -0.090139 1.000000 -0.057627
v -0.090139 1.000000 -0.052627
v -0.028889 1.000000 -0.052627
v 0.032361 1.000000 -0.052627
v 0.086611 1.000000 -0.052627
v 0.086611 1.000000 -0.057627
v 0.025361 1.000000 -0.057627
v 0.025361 1.000000 -0.052627
v -0.035889 1.000000 -0.057627
v -0.035889 1.000000 -0.052627
v -0.097139 1.000000 -0.057627
v -0.097139 1.000000 -0.052627
v -0.117483 1.000000 -0.057627
v -0.131045 1.000000 -0.057627
v -0.131045 1.000000 -0.052627
v -0.117483 1.000000 -0.052627
v -0.056233 1.000000 -0.057627
v -0.069795 1.000000 -0.057627
v -0.069795 1.000000 -0.052627
v -0.056233 1.000000 -0.052627
v 0.005017 1.000000 -0.057627
v -0.008545 1.000000 -0.057627
v -0.008545 1.000000 -0.052627
v 0.005017 1.000000 -0.052627
v 0.066267 1.000000 -0.057627
v 0.052705 1.000000 -0.057627
v 0.052705 1.000000 -0.052627
v 0.066267 1.000000 -0.052627
v -0.141217 1.000000 -0.057627
v -0.141217 1.000000 -0.052627
v -0.107311 1.000000 -0.052627
v -0.107311 1.000000 -0.057627
v -0.079967 1.000000 -0.057627
v -0.079967 1.000000 -0.052627
v -0.046061 1.000000 -0.052627
v -0.046061 1.000000 -0.057627
v -0.018717 1.000000 -0.057627
v -0.018717 1.000000 -0.052627
v 0.015189 1.000000 -0.052627
v 0.015189 1.000000 -0.057627
v 0.042533 1.000000 -0.057627
v 0.042533 1.000000 -0.052627
v 0.076439 1.000000 -0.052627
v 0.076439 1.000000 -0.057627
v 0.098611 -1.700000 -0.057627
v -0.145389 1.000000 -0.057627
v 0.098611 -1.700000 -0.052627
v -0.151389 -1.700000 -0.052627
v 0.093611 -1.700000 -0.057627
v 0.093611 -1.700000 -0.052627
v 0.032361 -1.700000 -0.057627
v -0.028889 -1.700000 -0.057627
v -0.090139 -1.700000 -0.057627
v -0.090139 -1.700000 -0.052627
v -0.028889 -1.700000 -0.052627
v 0.032361 -1.700000 -0.052627
v 0.086611 -1.700000 -0.052627
v 0.086611 -1.700000 -0.057627
v 0.025361 -1.700000 -0.057627
v 0.025361 -1.700000 -0.052627
v -0.035889 -1.700000 -0.057627
v -0.035889 -1.700000 -0.052627
v -0.097139 -1.700000 -0.057627
v -0.097139 -1.700000 -0.052627
v -0.117483 -1.700000 -0.057627
v -0.131045 -1.700000 -0.057627
v -0.131045 -1.700000 -0.052627
v -0.117483 -1.700000 -0.052627
v -0.056233 -1.700000 -0.057627
v -0.069795 -1.700000 -0.057627
v -0.069795 -1.700000 -0.052627
v -0.056233 -1.700000 -0.052627
v 0.005017 -1.700000 -0.057627
v -0.008545 -1.700000 -0.057627
v -0.008545 -1.700000 -0.052627
v 0.005017 -1.700000 -0.052627
v 0.066267 -1.700000 -0.057627
v 0.052705 -1.700000 -0.057627
v 0.052705 -1.700000 -0.052627
v 0.066267 -1.700000 -0.052627
v -0.141217 -1.700000 -0.057627
v -0.141217 -1.700000 -0.052627
v -0.107311 -1.700000 -0.052627
v -0.107311 -1.700000 -0.057627
v -0.079967 -1.700000 -0.057627
v -0.079967 -1.700000 -0.052627
v -0.046061 -1.700000 -0.052627
v -0.046061 -1.700000 -0.057627
v -0.018717 -1.700000 -0.057627
v -0.018717 -1.700000 -0.052627
v 0.015189 -1.700000 -0.052627
v 0.015189 -1.700000 -0.057627
v 0.042533 -1.700000 -0.057627
v 0.042533 -1.700000 -0.052627
v 0.076439 -1.700000 -0.052627
v 0.076439 -1.700000 -0.057627
v -0.136241 1.000000 -0.049116
v -0.145870 1.000000 -0.046797
v -0.141217 1.000000 -0.052577
v -0.138500 1.000000 -0.048790
v -0.141123 1.000000 -0.048235
v -0.143711 1.000000 -0.047535
v -0.102658 1.000000 -0.046797
v -0.112287 1.000000 -0.049116
v -0.107311 1.000000 -0.052577
v -0.104817 1.000000 -0.047535
v -0.107406 1.000000 -0.048235
v -0.110029 1.000000 -0.048790
v -0.074991 1.000000 -0.049117
v -0.084620 1.000000 -0.046798
v -0.079967 1.000000 -0.052577
v -0.077250 1.000000 -0.048790
v -0.079873 1.000000 -0.048235
v -0.082461 1.000000 -0.047535
v -0.041408 1.000000 -0.046798
v -0.051037 1.000000 -0.049117
v -0.046061 1.000000 -0.052577
v -0.043567 1.000000 -0.047535
v -0.046156 1.000000 -0.048235
v -0.048779 1.000000 -0.048790
v -0.013741 1.000000 -0.049117
v -0.023370 1.000000 -0.046798
v -0.018717 1.000000 -0.052577
v -0.016000 1.000000 -0.048790
v -0.018623 1.000000 -0.048235
v -0.021211 1.000000 -0.047535
v 0.019842 1.000000 -0.046798
v 0.010213 1.000000 -0.049117
v 0.015189 1.000000 -0.052577
v 0.017683 1.000000 -0.047535
v 0.015094 1.000000 -0.048235
v 0.012471 1.000000 -0.048790
v 0.047509 1.000000 -0.049117
v 0.037880 1.000000 -0.046798
v 0.042533 1.000000 -0.052577
v 0.045250 1.000000 -0.048790
v 0.042627 1.000000 -0.048235
v 0.040039 1.000000 -0.047535
v 0.081092 1.000000 -0.046798
v 0.071463 1.000000 -0.049117
v 0.076439 1.000000 -0.052577
v 0.078933 1.000000 -0.047535
v 0.076344 1.000000 -0.048235
v 0.073721 1.000000 -0.048790
v -0.145870 -1.700000 -0.046797
v -0.136241 -1.700000 -0.049116
v -0.141217 -1.700000 -0.052577
v -0.143711 -1.700000 -0.047535
v -0.141123 -1.700000 -0.048235
v -0.138500 -1.700000 -0.048790
v -0.112287 -1.700000 -0.049116
v -0.102658 -1.700000 -0.046797
v -0.107311 -1.700000 -0.052577
v -0.110029 -1.700000 -0.048790
v -0.107406 -1.700000 -0.048235
v -0.104817 -1.700000 -0.047535
v -0.084620 -1.700000 -0.046798
v -0.074991 -1.700000 -0.049117
v -0.079967 -1.700000 -0.052577
v -0.082461 -1.700000 -0.047535
v -0.079873 -1.700000 -0.048235
v -0.077250 -1.700000 -0.048790
v -0.051037 -1.700000 -0.049117
v -0.041408 -1.700000 -0.046798
v -0.046061 -1.700000 -0.052577
v -0.048779 -1.700000 -0.048790
v -0.046156 -1.700000 -0.048235
v -0.043567 -1.700000 -0.047535
v -0.023370 -1.700000 -0.046798
v -0.013741 -1.700000 -0.049117
v -0.018717 -1.700000 -0.052577
v -0.021211 -1.700000 -0.047535
v -0.018623 -1.700000 -0.048235
v -0.016000 -1.700000 -0.048790
v 0.010213 -1.700000 -0.049117
v 0.019842 -1.700000 -0.046798
v 0.015189 -1.700000 -0.052577
v 0.012471 -1.700000 -0.048790
v 0.015094 -1.700000 -0.048235
v 0.017683 -1.700000 -0.047535
v 0.037880 -1.700000 -0.046798
v 0.047509 -1.700000 -0.049117
v 0.042533 -1.700000 -0.052577
v 0.040039 -1.700000 -0.047535
v 0.042627 -1.700000 -0.048235
v 0.045250 -1.700000 -0.048790
v 0.071463 -1.700000 -0.049117
v 0.081092 -1.700000 -0.046798
v 0.076439 -1.700000 -0.052577
v 0.073721 -1.700000 -0.048790
v 0.076344 -1.700000 -0.048235
v 0.078933 -1.700000 -0.047535
v -0.114497 1.000000 -0.049334
v -0.120483 1.000000 -0.049627
v -0.117483 1.000000 -0.052627
v -0.117487 1.000000 -0.049541
v -0.053247 1.000000 -0.049334
v -0.059233 1.000000 -0.049627
v -0.056233 1.000000 -0.052627
v -0.056237 1.000000 -0.049541
v 0.008003 1.000000 -0.049334
v 0.002017 1.000000 -0.049627
v 0.005017 1.000000 -0.052627
v 0.005013 1.000000 -0.049541
v 0.069253 1.000000 -0.049334
v 0.063267 1.000000 -0.049627
v 0.066267 1.000000 -0.052627
v 0.066263 1.000000 -0.049541
v -0.120483 -1.700000 -0.049627
v -0.114497 -1.700000 -0.049334
v -0.117483 -1.700000 -0.052627
v -0.117487 -1.700000 -0.049541
v -0.059233 -1.700000 -0.049627
v -0.053247 -1.700000 -0.049334
v -0.056233 -1.700000 -0.052627
v -0.056237 -1.700000 -0.049541
v 0.002017 -1.700000 -0.049627
v 0.008003 -1.700000 -0.049334
v 0.005017 -1.700000 -0.052627
v 0.005013 -1.700000 -0.049541
v 0.063267 -1.700000 -0.049627
v 0.069253 -1.700000 -0.049334
v 0.066267 -1.700000 -0.052627
v 0.066263 -1.700000 -0.049541
v -0.128045 1.000000 -0.049627
v -0.134031 1.000000 -0.049334
v -0.131045 1.000000 -0.052627
v -0.131041 1.000000 -0.049541
v -0.066795 1.000000 -0.049627
v -0.072781 1.000000 -0.049334
v -0.069795 1.000000 -0.052627
v -0.069791 1.000000 -0.049541
v -0.005545 1.000000 -0.049627
v -0.011531 1.000000 -0.049334
v -0.008545 1.000000 -0.052627
v -0.008541 1.000000 -0.049541
v 0.055705 1.000000 -0.049627
v 0.049719 1.000000 -0.049334
v 0.052705 1.000000 -0.052627
v 0.052709 1.000000 -0.049541
v -0.134031 -1.700000 -0.049334
v -0.128045 -1.700000 -0.049627
v -0.131045 -1.700000 -0.052627
v -0.131041 -1.700000 -0.049541
v -0.072781 -1.700000 -0.049334
v -0.066795 -1.700000 -0.049627
v -0.069795 -1.700000 -0.052627
v -0.069791 -1.700000 -0.049541
v -0.011531 -1.700000 -0.049334
v -0.005545 -1.700000 -0.049627
v -0.008545 -1.700000 -0.052627
v -0.008541 -1.700000 -0.049541
v 0.049719 -1.700000 -0.049334
v 0.055705 -1.700000 -0.049627
v 0.052705 -1.700000 -0.052627
v 0.052709 -1.700000 -0.049541
v -0.089907 1.000000 -0.044719
v -0.090389 1.000000 -0.044627
v -0.090139 1.000000 -0.044877
v -0.028657 1.000000 -0.044719
v -0.029139 1.000000 -0.044627
v -0.028889 1.000000 -0.044877
v 0.032593 1.000000 -0.044719
v 0.032111 1.000000 -0.044627
v 0.032361 1.000000 -0.044877
v 0.086861 1.000000 -0.044627
v 0.086378 1.000000 -0.044719
v 0.086611 1.000000 -0.044877
v -0.090389 -1.700000 -0.044627
v -0.089907 -1.700000 -0.044719
v -0.090139 -1.700000 -0.044877
v -0.029139 -1.700000 -0.044627
v -0.028657 -1.700000 -0.044719
v -0.028889 -1.700000 -0.044877
v 0.032111 -1.700000 -0.044627
v 0.032593 -1.700000 -0.044719
v 0.032361 -1.700000 -0.044877
v 0.086378 -1.700000 -0.044719
v 0.086861 -1.700000 -0.044627
v 0.086611 -1.700000 -0.044877
v 0.025611 1.000000 -0.044627
v 0.025128 1.000000 -0.044719
v 0.025361 1.000000 -0.044877
v -0.035639 1.000000 -0.044627
v -0.036122 1.000000 -0.044719
v -0.035889 1.000000 -0.044877
v -0.096889 1.000000 -0.044627
v -0.097372 1.000000 -0.044719
v -0.097139 1.000000 -0.044877
v 0.025128 -1.700000 -0.044719
v 0.025611 -1.700000 -0.044627
v 0.025361 -1.700000 -0.044877
v -0.036122 -1.700000 -0.044719
v -0.035639 -1.700000 -0.044627
v -0.035889 -1.700000 -0.044877
v -0.097372 -1.700000 -0.044719
v -0.096889 -1.700000 -0.044627
v -0.097139 -1.700000 -0.044877
v -0.145389 -1.700000 -0.057627
v -0.145389 -1.700000 -0.052627
v -0.151157 1.000000 -0.044719
v -0.151389 1.000000 -0.044877
v -0.151321 1.000000 -0.044727
v -0.151389 -1.700000 -0.044877
v -0.151157 -1.700000 -0.044719
v -0.151321 -1.700000 -0.044727
v 0.093611 1.000000 -0.044827
v 0.093411 1.000000 -0.044627
v 0.093552 1.000000 -0.044686
v 0.093411 -1.700000 -0.044627
v 0.093611 -1.700000 -0.044827
v 0.093552 -1.700000 -0.044686
vn -0.0000 -0.0000 -1.0000
vn -0.0000 -1.0000 -0.0000
vn -0.0000 -0.0000 1.0000
vn 0.3660 -0.0000 -0.9306
vn -0.0000 1.0000 -0.0000
vn -0.0978 -0.0000 -0.9952
vn 1.0000 -0.0000 -0.0000
vn 0.0978 -0.0000 -0.9952
vn -1.0000 -0.0000 -0.0000
vn -0.3660 -0.0000 -0.9306
vn -0.0001 1.0000 -0.0000
vn 0.0002 1.0000 -0.0000
vn 0.3232 -0.0000 -0.9463
vn 0.2610 -0.0000 -0.9653
vn 0.2071 -0.0000 -0.9783
vn 0.1431 -0.0000 -0.9897
vn -0.3232 -0.0000 -0.9463
vn -0.2610 -0.0000 -0.9653
vn -0.2071 -0.0000 -0.9783
vn -0.1431 -0.0000 -0.9897
vn 0.0001 1.0000 -0.0000
vn 0.0287 -0.0000 -0.9996
vn 0.0693 -0.0000 -0.9976
vn -0.0693 -0.0000 -0.9976
vn -0.0287 -0.0000 -0.9996
vn -0.0006 1.0000 -0.0000
vn 0.1862 -0.0000 -0.9825
vn -0.1862 -0.0000 -0.9825
vn 0.0006 1.0000 -0.0000
vn 0.0518 -0.0000 -0.9987
vn 0.9104 -0.0000 -0.4136
vn -0.3827 -0.0000 -0.9239
vn -0.9239 -0.0000 -0.3827
vt 0.242796 0.000000
vt 0.244262 0.000000
vt 0.244262 1.000000
vt 0.242796 1.000000
vt 0.052000 1.000000
vt 0.032000 1.000000
vt 0.032000 0.980000
vt 0.052000 0.980000
vt 0.088825 0.000000
vt 0.090370 0.000000
vt 0.090370 1.000000
vt 0.088825 1.000000
vt 0.052000 0.775688
vt 0.032000 0.775688
vt 0.032000 0.735000
vt 0.052000 0.735000
vt 0.052000 0.530688
vt 0.032000 0.530688
vt 0.032000 0.490000
vt 0.052000 0.490000
vt 0.052000 0.285688
vt 0.032000 0.285688
vt 0.032000 0.245000
vt 0.052000 0.245000
vt 0.278419 0.000000
vt 0.279885 0.000000
vt 0.279885 1.000000
vt 0.278419 1.000000
vt 0.266544 0.000000
vt 0.268010 0.000000
vt 0.268010 1.000000
vt 0.266544 1.000000
vt 0.254670 0.000000
vt 0.256136 0.000000
vt 0.256136 1.000000
vt 0.254670 1.000000
vt 0.283339 0.000000
vt 0.284363 0.000000
vt 0.284363 1.000000
vt 0.283339 1.000000
vt 0.032000 0.952000
vt 0.052000 0.952000
vt 0.031800 0.775688
vt 0.008681 0.757075
vt 0.000366 0.735931
vt 0.001000 0.735000
vt 0.032000 0.707000
vt 0.052000 0.707000
vt 0.031800 0.530688
vt 0.008681 0.512075
vt 0.000366 0.490931
vt 0.001000 0.490000
vt 0.032000 0.462000
vt 0.052000 0.462000
vt 0.032000 0.217000
vt 0.052000 0.217000
vt 0.031800 0.285688
vt 0.008681 0.267075
vt 0.000366 0.245931
vt 0.001000 0.245000
vt 0.052000 0.176313
vt 0.032000 0.176313
vt 0.032000 0.135625
vt 0.052000 0.135625
vt 0.032000 0.081375
vt 0.052000 0.081375
vt 0.248834 0.000000
vt 0.250094 0.000000
vt 0.250094 1.000000
vt 0.248834 1.000000
vt 0.031800 0.176313
vt 0.017957 0.156408
vt 0.018826 0.147567
vt 0.260708 0.000000
vt 0.261968 0.000000
vt 0.261968 1.000000
vt 0.260708 1.000000
vt 0.032000 0.421313
vt 0.031800 0.421313
vt 0.017957 0.401408
vt 0.018826 0.392567
vt 0.032000 0.380625
vt 0.052000 0.421313
vt 0.052000 0.380625
vt 0.032000 0.326375
vt 0.052000 0.326375
vt 0.272582 0.000000
vt 0.273842 0.000000
vt 0.273842 1.000000
vt 0.272582 1.000000
vt 0.032000 0.666313
vt 0.031800 0.666313
vt 0.017957 0.646408
vt 0.018826 0.637567
vt 0.032000 0.625625
vt 0.052000 0.666313
vt 0.052000 0.625625
vt 0.032000 0.571375
vt 0.052000 0.571375
vt 0.032000 0.911313
vt 0.031800 0.911313
vt 0.017957 0.891409
vt 0.018826 0.882567
vt 0.032000 0.870625
vt 0.052000 0.911313
vt 0.052000 0.870625
vt 0.032000 0.816375
vt 0.052000 0.816375
vt 0.032000 0.040688
vt 0.052000 0.040688
vt 0.072001 0.040688
vt 0.072001 0.024000
vt 0.072001 0.000000
vt 0.103001 0.000000
vt 0.103601 0.000273
vt 0.103635 0.000931
vt 0.095320 0.022075
vt 0.072201 0.040688
vt 0.241207 0.000000
vt 0.241635 0.000000
vt 0.241635 1.000000
vt 0.241207 1.000000
vt 0.247716 0.000000
vt 0.248740 0.000000
vt 0.248740 1.000000
vt 0.247716 1.000000
vt 0.253081 0.000000
vt 0.253510 0.000000
vt 0.253510 1.000000
vt 0.253081 1.000000
vt 0.259591 0.000000
vt 0.260614 0.000000
vt 0.260614 1.000000
vt 0.259591 1.000000
vt 0.264955 0.000000
vt 0.265384 0.000000
vt 0.265384 1.000000
vt 0.264955 1.000000
vt 0.271465 0.000000
vt 0.272489 0.000000
vt 0.272489 1.000000
vt 0.271465 1.000000
vt 0.276829 0.000000
vt 0.277258 0.000000
vt 0.277258 1.000000
vt 0.276829 1.000000
vt 0.072001 0.245000
vt 0.072001 0.217000
vt 0.103001 0.217000
vt 0.104001 0.218000
vt 0.104001 0.244000
vt 0.103001 0.245000
vt 0.329960 1.000000
vt 0.329003 1.000000
vt 0.329003 0.000000
vt 0.329960 0.000000
vt 0.052000 1.000000
vt 0.052000 0.980000
vt 0.072000 0.980000
vt 0.072000 1.000000
vt 0.284456 0.000000
vt 0.285726 0.000000
vt 0.285726 1.000000
vt 0.284456 1.000000
vt 0.052000 0.775688
vt 0.052000 0.735000
vt 0.072000 0.735000
vt 0.072000 0.775688
vt 0.052000 0.530688
vt 0.052000 0.490000
vt 0.072000 0.490000
vt 0.072000 0.530688
vt 0.052001 0.285688
vt 0.052001 0.245000
vt 0.072001 0.285688
vt 0.072000 0.462000
vt 0.103000 0.462000
vt 0.104000 0.463000
vt 0.104000 0.489000
vt 0.103000 0.490000
vt 0.072001 0.176313
vt 0.072201 0.176313
vt 0.095320 0.194925
vt 0.103635 0.216069
vt 0.072000 0.952000
vt 0.072000 0.911313
vt 0.072200 0.911313
vt 0.095320 0.929925
vt 0.103634 0.951069
vt 0.103000 0.952000
vt 0.052000 0.952000
vt 0.103000 0.735000
vt 0.103634 0.735931
vt 0.095320 0.757075
vt 0.072200 0.775688
vt 0.052000 0.707000
vt 0.072000 0.707000
vt 0.103635 0.490931
vt 0.095320 0.512075
vt 0.072200 0.530688
vt 0.052000 0.462000
vt 0.052001 0.217000
vt 0.103635 0.245931
vt 0.095320 0.267075
vt 0.072201 0.285688
vt 0.052001 0.176313
vt 0.052001 0.135625
vt 0.072001 0.135625
vt 0.052001 0.081375
vt 0.072001 0.081375
vt 0.072000 0.625625
vt 0.072000 0.571375
vt 0.084000 0.583375
vt 0.084000 0.613625
vt 0.085175 0.147567
vt 0.086044 0.156408
vt 0.072000 0.870625
vt 0.072000 0.816375
vt 0.084000 0.828375
vt 0.084000 0.858625
vt 0.072001 0.421313
vt 0.072001 0.380625
vt 0.085175 0.392567
vt 0.086044 0.401408
vt 0.072201 0.421313
vt 0.052001 0.421313
vt 0.052001 0.380625
vt 0.052001 0.326375
vt 0.072001 0.326375
vt 0.072000 0.666313
vt 0.085174 0.637567
vt 0.086044 0.646408
vt 0.072200 0.666313
vt 0.052000 0.666313
vt 0.052000 0.625625
vt 0.052000 0.571375
vt 0.085174 0.882567
vt 0.086044 0.891409
vt 0.052000 0.911313
vt 0.052000 0.870625
vt 0.052000 0.816375
vt 0.052001 0.040688
vt 0.086044 0.305592
vt 0.085175 0.314433
vt 0.095320 0.439925
vt 0.103635 0.461069
vt 0.086044 0.550592
vt 0.085175 0.559433
vt 0.095320 0.684925
vt 0.103634 0.706069
vt 0.103000 0.707000
vt 0.086044 0.795592
vt 0.085174 0.804433
vt 0.018826 0.559433
vt 0.017957 0.550592
vt 0.245422 0.000000
vt 0.245851 0.000000
vt 0.245851 1.000000
vt 0.245422 1.000000
vt 0.008212 0.000000
vt 0.011979 0.000000
vt 0.011979 1.000000
vt 0.008212 1.000000
vt 0.049815 0.000000
vt 0.053582 0.000000
vt 0.053582 1.000000
vt 0.049815 1.000000
vt 0.017002 0.000000
vt 0.017002 1.000000
vt 0.326123 0.000000
vt 0.327084 0.000000
vt 0.327084 1.000000
vt 0.326123 1.000000
vt 0.104000 0.953000
vt 0.104000 0.979200
vt 0.103766 0.979766
vt 0.103200 0.980000
vt 0.084001 0.338375
vt 0.084001 0.368625
vt 0.281045 0.000000
vt 0.281473 0.000000
vt 0.281473 1.000000
vt 0.281045 1.000000
vt 0.238313 0.000000
vt 0.239339 0.000000
vt 0.239339 1.000000
vt 0.238313 1.000000
vt 0.039687 0.000000
vt 0.043455 0.000000
vt 0.043455 1.000000
vt 0.039687 1.000000
vt 0.001852 0.000000
vt 0.004444 0.000000
vt 0.004444 1.000000
vt 0.001852 1.000000
vt 0.052001 0.024000
vt 0.001000 0.707000
vt 0.000366 0.706069
vt 0.008681 0.684925
vt 0.325153 0.000000
vt 0.325153 1.000000
vt 0.324184 1.000000
vt 0.324184 0.000000
vt 0.057350 0.000000
vt 0.057350 1.000000
vt 0.321858 1.000000
vt 0.321858 0.000000
vt 0.323021 0.000000
vt 0.323021 1.000000
vt 0.062373 0.000000
vt 0.062373 1.000000
vt 0.024537 0.000000
vt 0.027130 0.000000
vt 0.027130 1.000000
vt 0.024537 1.000000
vt -0.000000 0.244000
vt -0.000000 0.218000
vt 0.001000 0.217000
vt 0.086044 0.060592
vt 0.085175 0.069433
vt 0.000000 0.000000
vt 0.000000 1.000000
vt 0.018826 0.804433
vt 0.017957 0.795592
vt 0.257296 0.000000
vt 0.257725 0.000000
vt 0.257725 1.000000
vt 0.257296 1.000000
vt 0.315800 0.000000
vt 0.317299 0.000000
vt 0.317299 1.000000
vt 0.315800 1.000000
vt 0.085058 0.000000
vt 0.085058 1.000000
vt 0.030897 0.000000
vt 0.030897 1.000000
vt 0.000366 0.216069
vt 0.008681 0.194925
vt 0.047222 0.000000
vt 0.047222 1.000000
vt 0.020000 0.858625
vt 0.020000 0.828375
vt 0.020770 0.000000
vt 0.020770 1.000000
vt 0.001000 0.952000
vt 0.000366 0.951069
vt 0.008681 0.929925
vt 0.018826 0.314433
vt 0.017957 0.305592
vt 0.066140 0.000000
vt 0.069907 0.000000
vt 0.069907 1.000000
vt 0.066140 1.000000
vt 0.034664 0.000000
vt 0.034664 1.000000
vt 0.250187 0.000000
vt 0.251213 0.000000
vt 0.251213 1.000000
vt 0.250187 1.000000
vt 0.072500 0.000000
vt 0.076267 0.000000
vt 0.076267 1.000000
vt 0.072500 1.000000
vt 0.262062 0.000000
vt 0.263087 0.000000
vt 0.263087 1.000000
vt 0.262062 1.000000
vt 0.000000 0.489000
vt 0.000000 0.463000
vt 0.001000 0.462000
vt 0.020000 0.613625
vt 0.020000 0.583375
vt 0.273936 0.000000
vt 0.274962 0.000000
vt 0.274962 1.000000
vt 0.273936 1.000000
vt 0.084001 0.093375
vt 0.084001 0.123625
vt 0.269171 0.000000
vt 0.269599 0.000000
vt 0.269599 1.000000
vt 0.269171 1.000000
vt 0.000366 0.461069
vt 0.008681 0.439925
vt 0.080035 0.000000
vt 0.080035 1.000000
vt 0.320342 0.000000
vt 0.321827 0.000000
vt 0.321827 1.000000
vt 0.320342 1.000000
vt 0.017957 0.060592
vt 0.016651 0.051558
vt 0.031800 0.040688
vt 0.014429 0.041066
vt 0.011631 0.030713
vt 0.008681 0.022075
vt 0.011631 0.186287
vt 0.014429 0.175934
vt 0.016651 0.165442
vt 0.016651 0.296558
vt 0.014429 0.286066
vt 0.011631 0.275713
vt 0.011631 0.431287
vt 0.014429 0.420934
vt 0.016651 0.410442
vt 0.016651 0.541558
vt 0.014429 0.531066
vt 0.011631 0.520713
vt 0.011631 0.676287
vt 0.014430 0.665934
vt 0.016651 0.655442
vt 0.016651 0.786558
vt 0.014430 0.776066
vt 0.011631 0.765713
vt 0.011631 0.921287
vt 0.014430 0.910934
vt 0.016651 0.900442
vt 0.092370 0.030713
vt 0.089571 0.041066
vt 0.087350 0.051558
vt 0.087350 0.165442
vt 0.089571 0.175934
vt 0.092370 0.186287
vt 0.092370 0.275713
vt 0.089571 0.286066
vt 0.087350 0.296558
vt 0.087350 0.410442
vt 0.089571 0.420934
vt 0.092370 0.431287
vt 0.092370 0.520713
vt 0.089571 0.531066
vt 0.087350 0.541558
vt 0.087350 0.655442
vt 0.089571 0.665934
vt 0.092370 0.676287
vt 0.092370 0.765713
vt 0.089571 0.776066
vt 0.087350 0.786558
vt 0.087350 0.900442
vt 0.089571 0.910934
vt 0.092370 0.921287
vt 0.259172 1.000000
vt 0.259172 0.000000
vt 0.258671 1.000000
vt 0.258671 0.000000
vt 0.258162 1.000000
vt 0.258162 0.000000
vt 0.275381 0.000000
vt 0.275381 1.000000
vt 0.275883 0.000000
vt 0.275883 1.000000
vt 0.276391 0.000000
vt 0.276391 1.000000
vt 0.281911 0.000000
vt 0.281911 1.000000
vt 0.282419 0.000000
vt 0.282419 1.000000
vt 0.282921 0.000000
vt 0.282921 1.000000
vt 0.264517 1.000000
vt 0.264517 0.000000
vt 0.264008 1.000000
vt 0.264008 0.000000
vt 0.263506 1.000000
vt 0.263506 0.000000
vt 0.251632 0.000000
vt 0.251632 1.000000
vt 0.252134 0.000000
vt 0.252134 1.000000
vt 0.252643 0.000000
vt 0.252643 1.000000
vt 0.270037 0.000000
vt 0.270037 1.000000
vt 0.270545 0.000000
vt 0.270545 1.000000
vt 0.271046 0.000000
vt 0.271046 1.000000
vt 0.240769 1.000000
vt 0.240769 0.000000
vt 0.240260 1.000000
vt 0.240260 0.000000
vt 0.239758 1.000000
vt 0.239758 0.000000
vt 0.247298 1.000000
vt 0.247298 0.000000
vt 0.246797 1.000000
vt 0.246797 0.000000
vt 0.246288 1.000000
vt 0.246288 0.000000
vt 0.018826 0.069433
vt 0.019656 0.135608
vt 0.020000 0.123625
vt 0.019656 0.380608
vt 0.020000 0.368625
vt 0.019656 0.625608
vt 0.019656 0.870608
vt 0.084344 0.135608
vt 0.084344 0.380608
vt 0.084344 0.625608
vt 0.084344 0.870608
vt 0.256717 0.000000
vt 0.256717 1.000000
vt 0.244843 1.000000
vt 0.244843 0.000000
vt 0.280465 1.000000
vt 0.280465 0.000000
vt 0.268591 0.000000
vt 0.268591 1.000000
vt 0.020000 0.338375
vt 0.020000 0.093375
vt 0.019656 0.081392
vt 0.019656 0.326392
vt 0.019656 0.571392
vt 0.019656 0.816392
vt 0.084345 0.081392
vt 0.084344 0.326392
vt 0.084344 0.571392
vt 0.084344 0.816392
vt 0.242215 0.000000
vt 0.242215 1.000000
vt 0.277838 1.000000
vt 0.277838 0.000000
vt 0.254089 1.000000
vt 0.254089 0.000000
vt 0.265963 1.000000
vt 0.265963 0.000000
vt 0.000000 0.734000
vt 0.000000 0.953000
vt 0.104000 0.734000
vt 0.104000 0.708000
vt 0.000000 0.708000
vt 0.032000 0.024000
vt 0.052000 0.024000
vt 0.238281 1.000000
vt 0.238281 0.000000
vt 0.000366 0.000931
vt 0.000400 0.000273
vt 0.001000 0.000000
vt 0.032000 0.000000
vt 0.285754 0.000000
vt 0.285754 1.000000
vt 0.315771 1.000000
vt 0.315771 0.000000
vt 0.000800 0.980000
vt 0.000235 0.979766
vt 0.000000 0.979200
s 0
g Velutto_main_top_bottom
usemtl top_bottom
f 1/5/2 3/6/2 6/7/2 5/8/2
f 49/13/2 50/14/2 12/15/2 7/16/2
f 45/17/2 46/18/2 11/19/2 8/20/2
f 41/21/2 42/22/2 10/23/2 9/24/2
f 5/8/2 6/7/2 13/41/2 14/42/2
f 50/14/2 143/43/2 142/44/2 271/45/2 273/46/2 12/15/2
f 7/16/2 12/15/2 16/47/2 15/48/2
f 46/18/2 131/49/2 130/50/2 268/51/2 270/52/2 11/19/2
f 8/20/2 11/19/2 18/53/2 17/54/2
f 9/24/2 10/23/2 20/55/2 19/56/2
f 42/22/2 119/57/2 118/58/2 265/59/2 267/60/2 10/23/2
f 40/61/2 39/62/2 24/63/2 21/64/2
f 21/64/2 24/63/2 23/65/2 22/66/2
f 39/62/2 113/71/2 112/72/2 201/73/2 203/63/2 24/63/2
f 43/78/2 125/79/2 124/80/2 205/81/2 207/82/2 28/82/2
f 44/83/2 43/78/2 28/82/2 25/84/2
f 25/84/2 28/82/2 27/85/2 26/86/2
f 47/91/2 137/92/2 136/93/2 209/94/2 211/95/2 32/95/2
f 48/96/2 47/91/2 32/95/2 29/97/2
f 29/97/2 32/95/2 31/98/2 30/99/2
f 51/100/2 149/101/2 148/102/2 213/103/2 215/104/2 36/104/2
f 52/105/2 51/100/2 36/104/2 33/106/2
f 33/106/2 36/104/2 35/107/2 34/108/2
f 22/66/2 23/65/2 38/109/2 37/110/2
f 90/111/5 308/112/5 56/113/5 312/114/5 314/115/5 313/116/5 153/117/5 155/118/5
f 19/56/2 20/55/2 39/62/2 40/61/2
f 26/86/2 27/85/2 42/22/2 41/21/2
f 17/54/2 18/53/2 43/78/2 44/83/2
f 30/99/2 31/98/2 46/18/2 45/17/2
f 15/48/2 16/47/2 47/91/2 48/96/2
f 34/108/2 35/107/2 50/14/2 49/13/2
f 14/42/2 13/41/2 51/100/2 52/105/2
f 62/147/5 72/148/5 306/149/5 305/150/5 277/151/5 279/152/5
f 53/157/5 57/158/5 58/159/5 55/160/5
f 101/165/5 59/166/5 64/167/5 102/168/5
f 97/169/5 60/170/5 63/171/5 98/172/5
f 93/173/5 61/174/5 62/147/5 94/175/5
f 63/171/5 70/176/5 303/177/5 302/178/5 280/179/5 282/180/5
f 72/148/5 91/181/5 161/182/5 160/183/5 304/184/5 306/149/5
f 65/185/5 103/186/5 197/187/5 196/188/5 286/189/5 288/190/5
f 57/158/5 66/191/5 65/185/5 58/159/5
f 102/168/5 64/167/5 285/192/5 284/193/5 189/194/5 191/195/5
f 59/166/5 67/196/5 68/197/5 64/167/5
f 98/172/5 63/171/5 282/180/5 281/198/5 177/199/5 179/200/5
f 60/170/5 69/201/5 70/176/5 63/171/5
f 61/174/5 71/202/5 72/148/5 62/147/5
f 94/175/5 62/147/5 279/152/5 278/203/5 165/204/5 167/205/5
f 92/206/5 73/207/5 76/208/5 91/181/5
f 73/207/5 74/209/5 75/210/5 76/208/5
f 84/211/5 83/212/5 259/212/5 258/213/5 225/214/5 227/211/5
f 91/181/5 76/208/5 219/208/5 218/215/5 159/216/5 161/182/5
f 88/217/5 87/218/5 263/218/5 262/219/5 229/220/5 231/217/5
f 95/221/5 80/222/5 223/222/5 222/223/5 171/224/5 173/225/5
f 96/226/5 77/227/5 80/222/5 95/221/5
f 77/227/5 78/228/5 79/229/5 80/222/5
f 99/230/5 84/211/5 227/211/5 226/231/5 183/232/5 185/233/5
f 100/234/5 81/235/5 84/211/5 99/230/5
f 81/235/5 82/236/5 83/212/5 84/211/5
f 103/186/5 88/217/5 231/217/5 230/237/5 195/238/5 197/187/5
f 104/239/5 85/240/5 88/217/5 103/186/5
f 85/240/5 86/241/5 87/218/5 88/217/5
f 74/209/5 89/242/5 90/111/5 75/210/5
f 79/229/5 94/175/5 167/205/5 166/243/5 253/244/5 255/229/5
f 71/202/5 92/206/5 91/181/5 72/148/5
f 70/176/5 95/221/5 173/225/5 172/245/5 301/246/5 303/177/5
f 78/228/5 93/173/5 94/175/5 79/229/5
f 69/201/5 96/226/5 95/221/5 70/176/5
f 83/212/5 98/172/5 179/200/5 178/247/5 257/248/5 259/212/5
f 68/197/5 99/230/5 185/233/5 184/249/5 298/250/5 300/251/5
f 82/236/5 97/169/5 98/172/5 83/212/5
f 67/196/5 100/234/5 99/230/5 68/197/5
f 87/218/5 102/168/5 191/195/5 190/252/5 261/253/5 263/218/5
f 86/241/5 101/165/5 102/168/5 87/218/5
f 66/191/5 104/239/5 103/186/5 65/185/5
f 31/98/2 243/98/2 242/254/2 129/255/2 131/49/2 46/18/2
f 58/159/5 65/185/5 288/190/5 287/274/5 318/275/5 320/276/5 319/277/5
f 80/222/5 79/229/5 255/229/5 254/278/5 221/279/5 223/222/5
f 89/242/5 307/296/5 308/112/5 90/111/5
f 16/47/2 291/297/2 290/298/2 135/299/2 137/92/2 47/91/2
f 10/23/2 267/60/2 266/316/2 295/317/2 297/318/2 20/55/2
f 75/210/5 90/111/5 155/118/5 154/319/5 249/320/5 251/210/5
f 35/107/2 247/107/2 246/323/2 141/324/2 143/43/2 50/14/2
f 20/55/2 297/318/2 296/337/2 111/338/2 113/71/2 39/62/2
f 36/104/2 215/104/2 214/341/2 245/342/2 247/107/2 35/107/2
f 13/41/2 276/345/2 275/346/2 147/347/2 149/101/2 51/100/2
f 27/85/2 239/85/2 238/348/2 117/349/2 119/57/2 42/22/2
f 11/19/2 270/52/2 269/368/2 292/369/2 294/370/2 18/53/2
f 32/95/2 211/95/2 210/371/2 241/372/2 243/98/2 31/98/2
f 76/208/5 75/210/5 251/210/5 250/377/5 217/378/5 219/208/5
f 18/53/2 294/370/2 293/383/2 123/384/2 125/79/2 43/78/2
f 105/391/2 108/392/2 107/393/2
f 108/392/2 109/394/2 107/393/2
f 109/394/2 110/395/2 107/393/2
f 110/395/2 106/396/2 107/393/2
f 111/338/2 114/397/2 113/71/2
f 114/397/2 115/398/2 113/71/2
f 115/398/2 116/399/2 113/71/2
f 116/399/2 112/72/2 113/71/2
f 117/349/2 120/400/2 119/57/2
f 120/400/2 121/401/2 119/57/2
f 121/401/2 122/402/2 119/57/2
f 122/402/2 118/58/2 119/57/2
f 123/384/2 126/403/2 125/79/2
f 126/403/2 127/404/2 125/79/2
f 127/404/2 128/405/2 125/79/2
f 128/405/2 124/80/2 125/79/2
f 129/255/2 132/406/2 131/49/2
f 132/406/2 133/407/2 131/49/2
f 133/407/2 134/408/2 131/49/2
f 134/408/2 130/50/2 131/49/2
f 135/299/2 138/409/2 137/92/2
f 138/409/2 139/410/2 137/92/2
f 139/410/2 140/411/2 137/92/2
f 140/411/2 136/93/2 137/92/2
f 141/324/2 144/412/2 143/43/2
f 144/412/2 145/413/2 143/43/2
f 145/413/2 146/414/2 143/43/2
f 146/414/2 142/44/2 143/43/2
f 147/347/2 150/415/2 149/101/2
f 150/415/2 151/416/2 149/101/2
f 151/416/2 152/417/2 149/101/2
f 152/417/2 148/102/2 149/101/2
f 153/117/5 156/418/5 155/118/5
f 156/418/11 157/419/11 155/118/11
f 157/419/5 158/420/5 155/118/5
f 158/420/5 154/319/5 155/118/5
f 159/216/5 162/421/5 161/182/5
f 162/421/5 163/422/5 161/182/5
f 163/422/5 164/423/5 161/182/5
f 164/423/5 160/183/5 161/182/5
f 165/204/5 168/424/5 167/205/5
f 168/424/11 169/425/11 167/205/11
f 169/425/5 170/426/5 167/205/5
f 170/426/5 166/243/5 167/205/5
f 171/224/5 174/427/5 173/225/5
f 174/427/5 175/428/5 173/225/5
f 175/428/5 176/429/5 173/225/5
f 176/429/5 172/245/5 173/225/5
f 177/199/12 180/430/12 179/200/12
f 180/430/11 181/431/11 179/200/11
f 181/431/5 182/432/5 179/200/5
f 182/432/5 178/247/5 179/200/5
f 183/232/5 186/433/5 185/233/5
f 186/433/5 187/434/5 185/233/5
f 187/434/5 188/435/5 185/233/5
f 188/435/5 184/249/5 185/233/5
f 189/194/5 192/436/5 191/195/5
f 192/436/11 193/437/11 191/195/11
f 193/437/5 194/438/5 191/195/5
f 194/438/5 190/252/5 191/195/5
f 195/238/5 198/439/5 197/187/5
f 198/439/5 199/440/5 197/187/5
f 199/440/5 200/441/5 197/187/5
f 200/441/5 196/188/5 197/187/5
f 23/65/2 235/65/2 234/490/2 105/391/2 107/393/2 38/109/2
f 201/73/2 204/491/2 203/63/2
f 204/491/2 202/492/2 203/63/2
f 205/81/2 208/493/2 207/82/2
f 208/493/2 206/494/2 207/82/2
f 209/94/2 212/495/2 211/95/2
f 212/495/2 210/371/2 211/95/2
f 213/103/2 216/496/2 215/104/2
f 216/496/2 214/341/2 215/104/2
f 217/378/5 220/497/5 219/208/5
f 220/497/5 218/215/5 219/208/5
f 221/279/5 224/498/5 223/222/5
f 224/498/11 222/223/11 223/222/11
f 225/214/21 228/499/21 227/211/21
f 228/499/11 226/231/11 227/211/11
f 229/220/5 232/500/5 231/217/5
f 232/500/5 230/237/5 231/217/5
f 28/82/2 207/82/2 206/494/2 237/509/2 239/85/2 27/85/2
f 233/510/2 236/511/2 235/65/2
f 236/511/2 234/490/2 235/65/2
f 237/509/2 240/512/2 239/85/2
f 240/512/2 238/348/2 239/85/2
f 241/372/2 244/513/2 243/98/2
f 244/513/2 242/254/2 243/98/2
f 245/342/2 248/514/2 247/107/2
f 248/514/2 246/323/2 247/107/2
f 249/320/5 252/515/5 251/210/5
f 252/515/5 250/377/5 251/210/5
f 253/244/5 256/516/5 255/229/5
f 256/516/5 254/278/5 255/229/5
f 257/248/21 260/517/21 259/212/21
f 260/517/11 258/213/11 259/212/11
f 261/253/5 264/518/5 263/218/5
f 264/518/5 262/219/5 263/218/5
f 24/63/2 203/63/2 202/492/2 233/510/2 235/65/2 23/65/2
f 265/59/2 266/316/2 267/60/2
f 268/51/2 269/368/2 270/52/2
f 271/45/2 272/527/2 273/46/2
f 274/528/2 275/346/2 276/345/2
f 277/151/26 278/203/26 279/152/26
f 280/179/5 281/198/5 282/180/5
f 283/529/5 284/193/5 285/192/5
f 286/189/5 287/274/5 288/190/5
f 64/167/5 68/197/5 300/251/5 299/530/5 283/529/5 285/192/5
f 289/531/2 290/298/2 291/297/2
f 292/369/2 293/383/2 294/370/2
f 295/317/2 296/337/2 297/318/2
f 298/250/29 299/530/29 300/251/29
f 301/246/5 302/178/5 303/177/5
f 304/184/5 305/150/5 306/149/5
f 12/15/2 273/46/2 272/527/2 289/531/2 291/297/2 16/47/2
f 37/110/2 38/109/2 2/532/2 54/533/2
f 38/109/2 107/393/2 106/396/2 309/536/2 311/537/2 310/538/2 4/539/2 2/532/2
f 6/7/2 315/544/2 317/545/2 316/546/2 274/528/2 276/345/2 13/41/2
g Velutto_main_back
usemtl back
f 37/9/3 54/10/3 307/11/3 89/12/3
f 52/260/3 33/261/3 85/262/3 104/263/3
f 17/264/3 44/265/3 96/266/3 69/267/3
f 33/261/3 34/268/3 86/269/3 85/262/3
f 30/288/3 45/289/3 97/290/3 82/291/3
f 5/292/3 14/293/3 66/294/3 57/295/3
f 44/265/3 25/304/3 77/305/3 96/266/3
f 25/304/3 26/310/3 78/311/3 77/305/3
f 7/312/3 15/313/3 67/314/3 59/315/3
f 1/321/3 5/292/3 57/295/3 53/322/3
f 22/333/3 37/9/3 89/12/3 74/334/3
f 15/313/3 48/335/3 100/336/3 67/314/3
f 8/339/3 17/264/3 69/267/3 60/340/3
f 49/343/3 7/312/3 59/315/3 101/344/3
f 34/268/3 49/343/3 101/344/3 86/269/3
f 45/289/3 8/339/3 60/340/3 97/290/3
f 41/350/3 9/351/3 61/352/3 93/353/3
f 48/335/3 29/354/3 81/355/3 100/336/3
f 19/360/3 40/361/3 92/362/3 71/363/3
f 29/354/3 30/288/3 82/291/3 81/355/3
f 9/351/3 19/360/3 71/363/3 61/352/3
f 26/310/3 41/350/3 93/353/3 78/311/3
f 14/293/3 52/260/3 104/263/3 66/294/3
f 40/361/3 21/385/3 73/386/3 92/362/3
f 21/385/3 22/333/3 74/334/3 73/386/3
g Velutto_main_front_velutto
usemtl front_velutto
f 233/1/1 202/2/1 217/3/1 250/4/1
f 245/25/1 214/26/1 229/27/1 262/28/1
f 241/29/1 210/30/1 225/31/1 258/32/1
f 237/33/1 206/34/1 221/35/1 254/36/1
f 147/37/4 275/38/4 286/39/4 196/40/4
f 295/67/1 266/68/1 277/69/1 305/70/1
f 292/74/1 269/75/1 280/76/1 302/77/1
f 289/87/1 272/88/1 283/89/1 299/90/1
f 105/119/6 234/120/6 249/121/6 154/122/6
f 111/123/4 296/124/4 304/125/4 160/126/4
f 117/127/6 238/128/6 253/129/6 166/130/6
f 123/131/4 293/132/4 301/133/4 172/134/4
f 129/135/6 242/136/6 257/137/6 178/138/6
f 135/139/4 290/140/4 298/141/4 184/142/4
f 141/143/6 246/144/6 261/145/6 190/146/6
f 308/153/7 307/154/7 54/155/7 2/156/7
f 274/161/1 316/162/1 318/163/1 287/164/1
f 201/256/8 112/257/8 159/258/8 218/259/8
f 3/270/9 1/271/9 53/272/9 55/273/9
f 213/280/8 148/281/8 195/282/8 230/283/8
f 309/284/10 106/285/10 153/286/10 313/287/10
f 3/300/1 55/301/1 58/302/1 6/303/1
f 308/306/3 2/307/3 4/308/3 56/309/3
f 205/325/8 124/326/8 171/327/8 222/328/8
f 315/329/9 6/330/9 58/331/9 319/332/9
f 265/356/10 118/357/10 165/358/10 278/359/10
f 268/364/10 130/365/10 177/366/10 281/367/10
f 271/373/10 142/374/10 189/375/10 284/376/10
f 209/379/8 136/380/8 183/381/8 226/382/8
f 4/387/7 310/388/7 312/389/7 56/390/7
f 123/131/13 172/134/13 176/442/13 126/443/13
f 126/443/14 176/442/14 175/444/14 127/445/14
f 127/445/15 175/444/15 174/446/15 128/447/15
f 128/447/16 174/446/16 171/327/16 124/326/16
f 189/375/17 142/374/17 146/448/17 192/449/17
f 192/449/18 146/448/18 145/450/18 193/451/18
f 193/451/19 145/450/19 144/452/19 194/453/19
f 194/453/20 144/452/20 141/143/20 190/146/20
f 195/282/16 148/281/16 152/454/16 198/455/16
f 198/455/15 152/454/15 151/456/15 199/457/15
f 199/457/14 151/456/14 150/458/14 200/459/14
f 200/459/13 150/458/13 147/37/13 196/40/13
f 129/135/20 178/138/20 182/460/20 132/461/20
f 132/461/19 182/460/19 181/462/19 133/463/19
f 133/463/18 181/462/18 180/464/18 134/465/18
f 134/465/17 180/464/17 177/366/17 130/365/17
f 165/358/17 118/357/17 122/466/17 168/467/17
f 168/467/18 122/466/18 121/468/18 169/469/18
f 169/469/19 121/468/19 120/470/19 170/471/19
f 170/471/20 120/470/20 117/127/20 166/130/20
f 183/381/16 136/380/16 140/472/16 186/473/16
f 186/473/15 140/472/15 139/474/15 187/475/15
f 187/475/14 139/474/14 138/476/14 188/477/14
f 188/477/13 138/476/13 135/139/13 184/142/13
f 105/119/20 154/122/20 158/478/20 108/479/20
f 108/479/19 158/478/19 157/480/19 109/481/19
f 109/481/18 157/480/18 156/482/18 110/483/18
f 110/483/17 156/482/17 153/286/17 106/285/17
f 111/123/13 160/126/13 164/484/13 114/485/13
f 114/485/14 164/484/14 163/486/14 115/487/14
f 115/487/15 163/486/15 162/488/15 116/489/15
f 116/489/16 162/488/16 159/258/16 112/257/16
f 221/35/22 206/34/22 208/501/22 224/502/22
f 224/502/23 208/501/23 205/325/23 222/328/23
f 201/256/23 218/259/23 220/503/23 204/504/23
f 204/504/22 220/503/22 217/3/22 202/2/22
f 213/280/23 230/283/23 232/505/23 216/506/23
f 216/506/22 232/505/22 229/27/22 214/26/22
f 225/31/22 210/30/22 212/507/22 228/508/22
f 228/508/23 212/507/23 209/379/23 226/382/23
f 249/121/24 234/120/24 236/519/24 252/520/24
f 252/520/25 236/519/25 233/1/25 250/4/25
f 245/25/25 262/28/25 264/521/25 248/522/25
f 248/522/24 264/521/24 261/145/24 246/144/24
f 237/33/25 254/36/25 256/523/25 240/524/25
f 240/524/24 256/523/24 253/129/24 238/128/24
f 241/29/25 258/32/25 260/525/25 244/526/25
f 244/526/24 260/525/24 257/137/24 242/136/24
f 274/161/27 287/164/27 286/39/27 275/38/27
f 280/76/28 269/75/28 268/364/28 281/367/28
f 283/89/28 272/88/28 271/373/28 284/376/28
f 265/356/28 278/359/28 277/69/28 266/68/28
f 289/87/27 299/90/27 298/141/27 290/140/27
f 292/74/27 302/77/27 301/133/27 293/132/27
f 304/125/27 296/124/27 295/67/27 305/70/27
f 309/284/30 313/287/30 314/534/30 311/535/30
f 311/307/31 314/306/31 312/389/31 310/388/31
f 318/163/32 316/162/32 317/540/32 320/541/32
f 320/542/33 317/543/33 315/329/33 319/332/33
