# Blender 4.0.2
# www.blender.org
mtllib velutto_L.mtl
o Velutto_main.002
v -0.166401 1.000000 -0.057627
v -0.166401 1.000000 -0.052627
v -0.171401 1.000000 -0.057627
v -0.171401 1.000000 -0.052627
v -0.232651 1.000000 -0.057627
v -0.232651 1.000000 -0.052627
v -0.178401 1.000000 -0.052627
v -0.178401 1.000000 -0.057627
v -0.239651 1.000000 -0.057627
v -0.239651 1.000000 -0.052627
v -0.198744 1.000000 -0.057627
v -0.212307 1.000000 -0.057627
v -0.212307 1.000000 -0.052627
v -0.222479 1.000000 -0.057627
v -0.222479 1.000000 -0.052627
v -0.188573 1.000000 -0.057627
v -0.166401 -1.700000 -0.057627
v -0.166401 -1.700000 -0.052627
v -0.171401 -1.700000 -0.057627
v -0.171401 -1.700000 -0.052627
v -0.232651 -1.700000 -0.057627
v -0.232651 -1.700000 -0.052627
v -0.178401 -1.700000 -0.052627
v -0.178401 -1.700000 -0.057627
v -0.239651 -1.700000 -0.057627
v -0.239651 -1.700000 -0.052627
v -0.198744 -1.700000 -0.057627
v -0.212307 -1.700000 -0.057627
v -0.222479 -1.700000 -0.057627
v -0.188573 -1.700000 -0.057627
v -0.217503 1.000000 -0.049117
v -0.227132 1.000000 -0.046798
v -0.219761 1.000000 -0.048790
v -0.222384 1.000000 -0.048235
v -0.224973 1.000000 -0.047535
v -0.183919 1.000000 -0.046798
v -0.193549 1.000000 -0.049117
v -0.188573 1.000000 -0.052577
v -0.186079 1.000000 -0.047535
v -0.188667 1.000000 -0.048235
v -0.191290 1.000000 -0.048790
v -0.227132 -1.700000 -0.046798
v -0.217503 -1.700000 -0.049117
v -0.222479 -1.700000 -0.052577
v -0.224973 -1.700000 -0.047535
v -0.222384 -1.700000 -0.048235
v -0.219761 -1.700000 -0.048790
v -0.193549 -1.700000 -0.049117
v -0.183919 -1.700000 -0.046798
v -0.188573 -1.700000 -0.052577
v -0.191290 -1.700000 -0.048790
v -0.188667 -1.700000 -0.048235
v -0.186079 -1.700000 -0.047535
v -0.195759 1.000000 -0.049334
v -0.201744 1.000000 -0.049627
v -0.198744 1.000000 -0.052627
v -0.198749 1.000000 -0.049541
v -0.201744 -1.700000 -0.049627
v -0.195759 -1.700000 -0.049334
v -0.198744 -1.700000 -0.052627
v -0.198749 -1.700000 -0.049541
v -0.209307 1.000000 -0.049627
v -0.215293 1.000000 -0.049334
v -0.212303 1.000000 -0.049541
v -0.215293 -1.700000 -0.049334
v -0.209307 -1.700000 -0.049627
v -0.212307 -1.700000 -0.052627
v -0.212303 -1.700000 -0.049541
v -0.232418 1.000000 -0.044719
v -0.232901 1.000000 -0.044627
v -0.232651 1.000000 -0.044877
v -0.178151 1.000000 -0.044627
v -0.178633 1.000000 -0.044719
v -0.178401 1.000000 -0.044877
v -0.232901 -1.700000 -0.044627
v -0.232418 -1.700000 -0.044719
v -0.232651 -1.700000 -0.044877
v -0.178633 -1.700000 -0.044719
v -0.178151 -1.700000 -0.044627
v -0.178401 -1.700000 -0.044877
v -0.239401 -1.700000 -0.044627
v -0.239401 1.000000 -0.044627
v -0.239651 1.000000 -0.044877
v -0.239578 1.000000 -0.044701
v -0.239651 -1.700000 -0.044877
v -0.239578 -1.700000 -0.044701
v -0.171401 1.000000 -0.044827
v -0.171601 1.000000 -0.044627
v -0.171459 1.000000 -0.044686
v -0.171601 -1.700000 -0.044627
v -0.171401 -1.700000 -0.044827
v -0.171459 -1.700000 -0.044686
vn -0.0000 -1.0000 -0.0000
vn -0.0000 -0.0000 -1.0000
vn 0.3660 -0.0000 -0.9306
vn -0.0978 -0.0000 -0.9952
vn -0.0000 1.0000 -0.0000
vn -0.0000 -0.0000 1.0000
vn -1.0000 -0.0000 -0.0000
vn 0.0978 -0.0000 -0.9952
vn -0.3660 -0.0000 -0.9306
vn -0.0001 1.0000 -0.0000
vn -0.3232 -0.0000 -0.9463
vn -0.2610 -0.0000 -0.9653
vn -0.2071 -0.0000 -0.9783
vn -0.1431 -0.0000 -0.9897
vn 0.1431 -0.0000 -0.9897
vn 0.2071 -0.0000 -0.9783
vn 0.2610 -0.0000 -0.9653
vn 0.3232 -0.0000 -0.9463
vn 0.0693 -0.0000 -0.9976
vn 0.0287 -0.0000 -0.9996
vn -0.0287 -0.0000 -0.9996
vn -0.0693 -0.0000 -0.9976
vn 0.1862 -0.0000 -0.9825
vn -0.1862 -0.0000 -0.9825
vn 1.0000 -0.0000 -0.0000
vn 0.9239 -0.0000 -0.3827
vn 0.3827 -0.0000 -0.9239
vn -0.3827 -0.0000 -0.9239
vn -0.9239 -0.0000 -0.3827
vt 0.156001 0.293000
vt 0.136001 0.293000
vt 0.136001 0.273000
vt 0.156001 0.273000
vt 0.156001 0.068687
vt 0.136001 0.068688
vt 0.136001 0.028000
vt 0.156001 0.028000
vt 0.291624 0.000000
vt 0.293090 0.000000
vt 0.293090 1.000000
vt 0.291624 1.000000
vt 0.296545 0.000000
vt 0.297569 0.000000
vt 0.297569 1.000000
vt 0.296545 1.000000
vt 0.136001 0.245000
vt 0.156001 0.245000
vt 0.112681 0.050075
vt 0.104367 0.028931
vt 0.105001 0.028000
vt 0.136001 -0.000000
vt 0.156001 -0.000000
vt 0.285788 0.000000
vt 0.287048 0.000000
vt 0.287048 1.000000
vt 0.285788 1.000000
vt 0.135801 0.204313
vt 0.121957 0.184408
vt 0.122827 0.175567
vt 0.136001 0.163625
vt 0.156001 0.204313
vt 0.156001 0.163625
vt 0.136001 0.109375
vt 0.156001 0.109375
vt 0.290035 0.000000
vt 0.290464 0.000000
vt 0.290464 1.000000
vt 0.290035 1.000000
vt 0.156001 0.293000
vt 0.156001 0.273000
vt 0.176001 0.273000
vt 0.176001 0.293000
vt 0.297662 0.000000
vt 0.298932 0.000000
vt 0.298932 1.000000
vt 0.297662 1.000000
vt 0.156001 0.068688
vt 0.156001 0.028000
vt 0.176001 0.028000
vt 0.176201 0.068688
vt 0.176001 0.245000
vt 0.176201 0.204313
vt 0.199320 0.222925
vt 0.207635 0.244069
vt 0.207001 0.245000
vt 0.156001 0.245000
vt 0.207001 0.028000
vt 0.207635 0.028931
vt 0.199320 0.050075
vt 0.156001 0.000000
vt 0.176001 0.000000
vt 0.176001 0.163625
vt 0.176001 0.109375
vt 0.188001 0.121375
vt 0.188001 0.151625
vt 0.189175 0.175567
vt 0.190044 0.184409
vt 0.156001 0.204313
vt 0.156001 0.163625
vt 0.156001 0.109375
vt 0.190044 0.088592
vt 0.189175 0.097433
vt 0.098582 0.000000
vt 0.102350 0.000000
vt 0.102350 1.000000
vt 0.098582 1.000000
vt 0.107373 0.000000
vt 0.107373 1.000000
vt 0.327084 0.000000
vt 0.328045 0.000000
vt 0.328045 1.000000
vt 0.327084 1.000000
vt 0.208001 0.246000
vt 0.208001 0.272200
vt 0.207766 0.272766
vt 0.207201 0.273000
vt 0.294251 0.000000
vt 0.294679 0.000000
vt 0.294679 1.000000
vt 0.294251 1.000000
vt 0.092222 0.000000
vt 0.094815 0.000000
vt 0.094815 1.000000
vt 0.092222 1.000000
vt 0.326123 0.000000
vt 0.326123 1.000000
vt 0.325153 1.000000
vt 0.325153 0.000000
vt 0.114907 0.000000
vt 0.117500 0.000000
vt 0.117500 1.000000
vt 0.114907 1.000000
vt 0.090370 0.000000
vt 0.090370 1.000000
vt 0.122827 0.097433
vt 0.121957 0.088592
vt 0.317328 0.000000
vt 0.318827 0.000000
vt 0.318827 1.000000
vt 0.317328 1.000000
vt 0.124001 0.151625
vt 0.124001 0.121375
vt 0.111140 0.000000
vt 0.111140 1.000000
vt 0.105001 0.245000
vt 0.104367 0.244069
vt 0.112681 0.222925
vt 0.287142 0.000000
vt 0.288167 0.000000
vt 0.288167 1.000000
vt 0.287142 1.000000
vt 0.120651 0.079558
vt 0.118430 0.069066
vt 0.115631 0.058713
vt 0.115631 0.214287
vt 0.118430 0.203934
vt 0.120651 0.193442
vt 0.196370 0.058713
vt 0.193571 0.069066
vt 0.191350 0.079558
vt 0.191350 0.193442
vt 0.193571 0.203934
vt 0.196370 0.214287
vt 0.288586 0.000000
vt 0.288586 1.000000
vt 0.289088 0.000000
vt 0.289088 1.000000
vt 0.289597 0.000000
vt 0.289597 1.000000
vt 0.295117 0.000000
vt 0.295117 1.000000
vt 0.295625 0.000000
vt 0.295625 1.000000
vt 0.296126 0.000000
vt 0.296126 1.000000
vt 0.123657 0.163608
vt 0.188345 0.163608
vt 0.293671 1.000000
vt 0.293671 0.000000
vt 0.123657 0.109392
vt 0.188345 0.109392
vt 0.291043 1.000000
vt 0.291043 0.000000
vt 0.104001 0.027000
vt 0.104001 0.246000
vt 0.208001 0.027000
vt 0.315735 1.000000
vt 0.314251 1.000000
vt 0.313293 1.000000
vt 0.313293 0.000000
vt 0.314251 0.000000
vt 0.315735 0.000000
vt 0.207001 0.000000
vt 0.207708 0.000293
vt 0.208001 0.001000
vt 0.315771 0.000000
vt 0.315771 1.000000
vt 0.285754 1.000000
vt 0.285754 0.000000
vt 0.104001 0.001000
vt 0.104293 0.000293
vt 0.105001 -0.000000
vt 0.298959 0.000000
vt 0.298959 1.000000
vt 0.317299 1.000000
vt 0.317299 0.000000
vt 0.104801 0.273000
vt 0.104235 0.272766
vt 0.104001 0.272200
s 0
g Velutto_main.002_top_bottom
usemtl top_bottom
f 1/1/1 2/2/1 4/3/1 3/4/1
f 14/5/1 15/6/1 6/7/1 5/8/1
f 3/4/1 4/3/1 7/17/1 8/18/1
f 15/6/1 32/19/1 69/20/1 71/21/1 6/7/1
f 5/8/1 6/7/1 10/22/1 9/23/1
f 38/28/1 37/29/1 54/30/1 56/31/1
f 16/32/1 38/28/1 56/31/1 11/33/1
f 11/33/1 56/31/1 13/34/1 12/35/1
f 12/35/1 13/34/1 15/6/1 14/5/1
f 8/18/1 7/17/1 38/28/1 16/32/1
f 17/40/5 19/41/5 20/42/5 18/43/5
f 29/48/5 21/49/5 22/50/5 44/51/5
f 23/52/5 50/53/5 49/54/5 78/55/5 80/56/5
f 19/41/5 24/57/5 23/52/5 20/42/5
f 44/51/5 22/50/5 77/58/5 76/59/5 42/60/5
f 21/49/5 25/61/5 26/62/5 22/50/5
f 60/63/5 67/64/5 66/65/5 58/66/5
f 50/53/5 60/63/5 59/67/5 48/68/5
f 30/69/5 27/70/5 60/63/5 50/53/5
f 27/70/5 28/71/5 67/64/5 60/63/5
f 67/64/5 44/51/5 43/72/5 65/73/5
f 28/71/5 29/48/5 44/51/5 67/64/5
f 24/57/5 30/69/5 50/53/5 23/52/5
f 20/42/5 23/52/5 80/56/5 79/84/5 90/85/5 92/86/5 91/87/5
f 13/34/1 63/106/1 31/107/1 15/6/1
f 56/31/1 55/112/1 62/113/1 13/34/1
f 7/17/1 74/116/1 73/117/1 36/118/1 38/28/1
f 31/107/1 33/123/1 15/6/1
f 33/123/1 34/124/1 15/6/1
f 34/124/1 35/125/1 15/6/1
f 35/125/1 32/19/1 15/6/1
f 36/118/1 39/126/1 38/28/1
f 39/126/1 40/127/1 38/28/1
f 40/127/1 41/128/1 38/28/1
f 41/128/1 37/29/1 38/28/1
f 42/60/5 45/129/5 44/51/5
f 45/129/10 46/130/10 44/51/10
f 46/130/5 47/131/5 44/51/5
f 47/131/5 43/72/5 44/51/5
f 48/68/5 51/132/5 50/53/5
f 51/132/5 52/133/5 50/53/5
f 52/133/5 53/134/5 50/53/5
f 53/134/5 49/54/5 50/53/5
f 54/30/1 57/147/1 56/31/1
f 57/147/1 55/112/1 56/31/1
f 58/66/5 61/148/5 60/63/5
f 61/148/5 59/67/5 60/63/5
f 62/113/1 64/151/1 13/34/1
f 64/151/1 63/106/1 13/34/1
f 65/73/5 68/152/5 67/64/5
f 68/152/5 66/65/5 67/64/5
f 69/20/1 70/155/1 71/21/1
f 72/156/1 73/117/1 74/116/1
f 75/157/5 76/59/5 77/58/5
f 78/55/5 79/84/5 80/56/5
f 85/164/5 86/165/5 81/166/5 75/157/5 77/58/5 22/50/5 26/62/5
f 6/7/1 71/21/1 70/155/1 82/171/1 84/172/1 83/173/1 10/22/1
f 4/3/1 87/178/1 89/179/1 88/180/1 72/156/1 74/116/1 7/17/1
g Velutto_main.002_back
usemtl back
f 16/74/6 11/75/6 27/76/6 30/77/6
f 11/75/6 12/78/6 28/79/6 27/76/6
f 3/92/6 8/93/6 24/94/6 19/95/6
f 5/100/6 9/101/6 25/102/6 21/103/6
f 1/104/6 3/92/6 19/95/6 17/105/6
f 14/114/6 5/100/6 21/103/6 29/115/6
f 12/78/6 14/114/6 29/115/6 28/79/6
f 8/93/6 16/74/6 30/77/6 24/94/6
g Velutto_main.002_front_velutto
usemtl front_velutto
f 62/9/2 55/10/2 58/11/2 66/12/2
f 36/13/3 73/14/3 78/15/3 49/16/3
f 82/24/2 70/25/2 75/26/2 81/27/2
f 31/36/4 63/37/4 65/38/4 43/39/4
f 72/44/2 88/45/2 90/46/2 79/47/2
f 2/80/7 1/81/7 17/82/7 18/83/7
f 54/88/8 37/89/8 48/90/8 59/91/8
f 2/96/2 18/97/2 20/98/2 4/99/2
f 87/108/7 4/109/7 20/110/7 91/111/7
f 69/119/9 32/120/9 42/121/9 76/122/9
f 42/121/11 32/120/11 35/135/11 45/136/11
f 45/136/12 35/135/12 34/137/12 46/138/12
f 46/138/13 34/137/13 33/139/13 47/140/13
f 47/140/14 33/139/14 31/36/14 43/39/14
f 48/90/15 37/89/15 41/141/15 51/142/15
f 51/142/16 41/141/16 40/143/16 52/144/16
f 52/144/17 40/143/17 39/145/17 53/146/17
f 53/146/18 39/145/18 36/13/18 49/16/18
f 54/88/19 59/91/19 61/149/19 57/150/19
f 57/150/20 61/149/20 58/11/20 55/10/20
f 62/9/21 66/12/21 68/153/21 64/154/21
f 64/154/22 68/153/22 65/38/22 63/37/22
f 72/44/23 79/47/23 78/15/23 73/14/23
f 75/26/24 70/25/24 69/119/24 76/122/24
f 85/158/25 26/159/25 25/160/25 9/161/25 10/162/25 83/163/25
f 85/158/26 83/163/26 84/167/26 86/168/26
f 86/169/27 84/170/27 82/24/27 81/27/27
f 90/46/28 88/45/28 89/174/28 92/175/28
f 92/176/29 89/177/29 87/108/29 91/111/29
