# Blender 4.0.2
# www.blender.org
mtllib velutto_R.mtl
o Velutto_main.001
v 0.119623 1.000000 -0.052627
v 0.113623 1.000000 -0.052627
v 0.174873 1.000000 -0.057627
v 0.174873 1.000000 -0.052627
v 0.167873 1.000000 -0.057627
v 0.167873 1.000000 -0.052627
v 0.147529 1.000000 -0.057627
v 0.133967 1.000000 -0.057627
v 0.133967 1.000000 -0.052627
v 0.147529 1.000000 -0.052627
v 0.123795 1.000000 -0.057627
v 0.157701 1.000000 -0.057627
v 0.119623 1.000000 -0.057627
v 0.113623 -1.700000 -0.052627
v 0.174873 -1.700000 -0.057627
v 0.174873 -1.700000 -0.052627
v 0.167873 -1.700000 -0.057627
v 0.167873 -1.700000 -0.052627
v 0.147529 -1.700000 -0.057627
v 0.133967 -1.700000 -0.057627
v 0.123795 -1.700000 -0.057627
v 0.123795 -1.700000 -0.052627
v 0.157701 -1.700000 -0.057627
v 0.128771 1.000000 -0.049117
v 0.119141 1.000000 -0.046798
v 0.123795 1.000000 -0.052577
v 0.126512 1.000000 -0.048790
v 0.123889 1.000000 -0.048235
v 0.121301 1.000000 -0.047535
v 0.162354 1.000000 -0.046798
v 0.152725 1.000000 -0.049117
v 0.157701 1.000000 -0.052577
v 0.160195 1.000000 -0.047535
v 0.157606 1.000000 -0.048235
v 0.154983 1.000000 -0.048790
v 0.119141 -1.700000 -0.046798
v 0.128771 -1.700000 -0.049117
v 0.121301 -1.700000 -0.047535
v 0.123889 -1.700000 -0.048235
v 0.126512 -1.700000 -0.048790
v 0.152725 -1.700000 -0.049117
v 0.162354 -1.700000 -0.046798
v 0.157701 -1.700000 -0.052577
v 0.154983 -1.700000 -0.048790
v 0.157606 -1.700000 -0.048235
v 0.160195 -1.700000 -0.047535
v 0.150515 1.000000 -0.049334
v 0.144529 1.000000 -0.049627
v 0.147525 1.000000 -0.049541
v 0.144529 -1.700000 -0.049627
v 0.150515 -1.700000 -0.049334
v 0.147529 -1.700000 -0.052627
v 0.147525 -1.700000 -0.049541
v 0.136966 1.000000 -0.049627
v 0.130981 1.000000 -0.049334
v 0.133971 1.000000 -0.049541
v 0.130981 -1.700000 -0.049334
v 0.136966 -1.700000 -0.049627
v 0.133967 -1.700000 -0.052627
v 0.133971 -1.700000 -0.049541
v 0.174623 1.000000 -0.044627
v 0.168123 1.000000 -0.044627
v 0.167640 1.000000 -0.044719
v 0.167873 1.000000 -0.044877
v 0.167640 -1.700000 -0.044719
v 0.168123 -1.700000 -0.044627
v 0.167873 -1.700000 -0.044877
v 0.119623 -1.700000 -0.057627
v 0.119623 -1.700000 -0.052627
v 0.113855 1.000000 -0.044719
v 0.113623 1.000000 -0.044877
v 0.113691 1.000000 -0.044727
v 0.113623 -1.700000 -0.044877
v 0.113855 -1.700000 -0.044719
v 0.113691 -1.700000 -0.044727
v 0.174873 1.000000 -0.044877
v 0.174800 1.000000 -0.044701
v 0.174623 -1.700000 -0.044627
v 0.174873 -1.700000 -0.044877
v 0.174800 -1.700000 -0.044701
vn -0.0000 -0.0000 -1.0000
vn -0.0000 -0.0000 1.0000
vn -0.0000 -1.0000 -0.0000
vn -0.0000 1.0000 -0.0000
vn -0.0978 -0.0000 -0.9952
vn 0.3660 -0.0000 -0.9306
vn 1.0000 -0.0000 -0.0000
vn 0.0978 -0.0000 -0.9952
vn -0.3660 -0.0000 -0.9306
vn 0.0001 1.0000 -0.0000
vn -0.1431 -0.0000 -0.9897
vn -0.2071 -0.0000 -0.9783
vn -0.2610 -0.0000 -0.9653
vn -0.3232 -0.0000 -0.9463
vn 0.3232 -0.0000 -0.9463
vn 0.2610 -0.0000 -0.9653
vn 0.2071 -0.0000 -0.9783
vn 0.1431 -0.0000 -0.9897
vn 0.0693 -0.0000 -0.9976
vn 0.0287 -0.0000 -0.9996
vn -0.0693 -0.0000 -0.9976
vn -0.0287 -0.0000 -0.9996
vn -1.0000 -0.0000 -0.0000
vn 0.1862 -0.0000 -0.9825
vn 0.0518 -0.0000 -0.9987
vn 0.9105 -0.0000 -0.4136
vn -0.9239 -0.0000 -0.3827
vn -0.3827 -0.0000 -0.9239
vt 0.303474 0.000000
vt 0.304940 0.000000
vt 0.304940 1.000000
vt 0.303474 1.000000
vt 0.136418 0.000000
vt 0.137963 0.000000
vt 0.137963 1.000000
vt 0.136418 1.000000
vt 0.260001 0.245000
vt 0.240001 0.245000
vt 0.240001 0.217000
vt 0.260001 0.217000
vt 0.260001 0.176313
vt 0.239801 0.176313
vt 0.240001 0.135625
vt 0.260001 0.135625
vt 0.240001 0.081375
vt 0.260001 0.081375
vt 0.309512 0.000000
vt 0.310772 0.000000
vt 0.310772 1.000000
vt 0.309512 1.000000
vt 0.225958 0.156408
vt 0.226827 0.147567
vt 0.239801 0.040687
vt 0.260001 0.040687
vt 0.280001 0.040688
vt 0.280001 0.024000
vt 0.280001 0.000000
vt 0.311001 0.000000
vt 0.311601 0.000273
vt 0.311635 0.000931
vt 0.303320 0.022075
vt 0.301885 0.000000
vt 0.302313 0.000000
vt 0.302313 1.000000
vt 0.301885 1.000000
vt 0.308394 0.000000
vt 0.309418 0.000000
vt 0.309418 1.000000
vt 0.308394 1.000000
vt 0.329003 1.000000
vt 0.328045 1.000000
vt 0.328045 0.000000
vt 0.329003 0.000000
vt 0.280001 0.217000
vt 0.280201 0.176313
vt 0.303320 0.194925
vt 0.311635 0.216069
vt 0.311001 0.217000
vt 0.260001 0.245000
vt 0.260001 0.217000
vt 0.280001 0.245000
vt 0.260001 0.176313
vt 0.260001 0.135625
vt 0.280001 0.135625
vt 0.260001 0.081375
vt 0.280001 0.081375
vt 0.293175 0.147567
vt 0.294044 0.156408
vt 0.260001 0.040688
vt 0.306100 0.000000
vt 0.306529 0.000000
vt 0.306529 1.000000
vt 0.306100 1.000000
vt 0.298991 0.000000
vt 0.300017 0.000000
vt 0.300017 1.000000
vt 0.298991 1.000000
vt 0.260001 0.024000
vt 0.323021 1.000000
vt 0.323021 0.000000
vt 0.324184 0.000000
vt 0.324184 1.000000
vt 0.294044 0.060592
vt 0.293175 0.069433
vt 0.132650 0.000000
vt 0.132650 1.000000
vt 0.209001 0.217000
vt 0.208367 0.216069
vt 0.216682 0.194925
vt 0.120093 0.000000
vt 0.123860 0.000000
vt 0.123860 1.000000
vt 0.120093 1.000000
vt 0.117500 0.000000
vt 0.117500 1.000000
vt 0.292001 0.093375
vt 0.292001 0.123625
vt 0.127627 0.000000
vt 0.127627 1.000000
vt 0.318827 0.000000
vt 0.320312 0.000000
vt 0.320312 1.000000
vt 0.318827 1.000000
vt 0.225958 0.060592
vt 0.224652 0.051558
vt 0.222430 0.041066
vt 0.219631 0.030713
vt 0.216682 0.022075
vt 0.219631 0.186287
vt 0.222430 0.175934
vt 0.224652 0.165442
vt 0.300370 0.030713
vt 0.297571 0.041066
vt 0.295350 0.051558
vt 0.295350 0.165442
vt 0.297571 0.175934
vt 0.300370 0.186287
vt 0.301447 1.000000
vt 0.301447 0.000000
vt 0.300938 1.000000
vt 0.300938 0.000000
vt 0.300436 1.000000
vt 0.300436 0.000000
vt 0.307976 1.000000
vt 0.307976 0.000000
vt 0.307475 1.000000
vt 0.307475 0.000000
vt 0.306966 1.000000
vt 0.306966 0.000000
vt 0.226827 0.069433
vt 0.227657 0.135608
vt 0.228001 0.123625
vt 0.292345 0.135608
vt 0.305521 1.000000
vt 0.305521 0.000000
vt 0.228001 0.093375
vt 0.227657 0.081392
vt 0.292345 0.081392
vt 0.302893 0.000000
vt 0.302893 1.000000
vt 0.310842 1.000000
vt 0.310842 0.000000
vt 0.312332 0.000000
vt 0.312332 1.000000
vt 0.208001 0.218000
vt 0.312001 0.218000
vt 0.240001 0.024000
vt 0.260001 0.024000
vt 0.298959 1.000000
vt 0.298959 0.000000
vt 0.320342 0.000000
vt 0.320342 1.000000
vt 0.208367 0.000931
vt 0.208401 0.000273
vt 0.209001 -0.000000
vt 0.240001 -0.000000
vt 0.312001 0.244000
vt 0.311708 0.244707
vt 0.311001 0.245000
vt 0.313293 0.000000
vt 0.313293 1.000000
vt 0.310806 1.000000
vt 0.310806 0.000000
vt 0.209001 0.245000
vt 0.208294 0.244707
vt 0.208001 0.244000
s 0
g Velutto_main.001_top_bottom
usemtl top_bottom
f 3/9/3 4/10/3 6/11/3 5/12/3
f 12/13/3 32/14/3 10/15/3 7/16/3
f 7/16/3 10/15/3 9/17/3 8/18/3
f 32/14/3 31/23/3 47/24/3 10/15/3
f 8/18/3 9/17/3 26/25/3 11/26/3
f 22/27/4 69/28/4 14/29/4 73/30/4 75/31/4 74/32/4 36/33/4
f 5/12/3 6/11/3 32/14/3 12/13/3
f 18/46/4 43/47/4 42/48/4 65/49/4 67/50/4
f 15/51/4 17/52/4 18/46/4 16/53/4
f 23/54/4 19/55/4 52/56/4 43/47/4
f 19/55/4 20/57/4 59/58/4 52/56/4
f 43/47/4 52/56/4 51/59/4 41/60/4
f 20/57/4 21/61/4 22/27/4 59/58/4
f 17/52/4 23/54/4 43/47/4 18/46/4
f 21/61/4 68/70/4 69/28/4 22/27/4
f 59/58/4 22/27/4 37/75/4 57/76/4
f 6/11/3 64/79/3 63/80/3 30/81/3 32/14/3
f 52/56/4 59/58/4 58/88/4 50/89/4
f 24/96/3 27/97/3 26/25/3
f 27/97/3 28/98/3 26/25/3
f 28/98/3 29/99/3 26/25/3
f 29/99/3 25/100/3 26/25/3
f 30/81/3 33/101/3 32/14/3
f 33/101/3 34/102/3 32/14/3
f 34/102/3 35/103/3 32/14/3
f 35/103/3 31/23/3 32/14/3
f 36/33/4 38/104/4 22/27/4
f 38/104/4 39/105/4 22/27/4
f 39/105/10 40/106/10 22/27/10
f 40/106/4 37/75/4 22/27/4
f 41/60/4 44/107/4 43/47/4
f 44/107/4 45/108/4 43/47/4
f 45/108/4 46/109/4 43/47/4
f 46/109/4 42/48/4 43/47/4
f 9/17/3 55/122/3 24/96/3 26/25/3
f 47/24/3 49/123/3 10/15/3
f 49/123/3 48/124/3 10/15/3
f 50/89/4 53/125/4 52/56/4
f 53/125/4 51/59/4 52/56/4
f 54/128/3 56/129/3 9/17/3
f 56/129/3 55/122/3 9/17/3
f 57/76/4 60/130/4 59/58/4
f 60/130/4 58/88/4 59/58/4
f 10/15/3 48/124/3 54/128/3 9/17/3
f 62/137/3 63/80/3 64/79/3
f 65/49/4 66/138/4 67/50/4
f 11/26/3 26/25/3 1/139/3 13/140/3
f 26/25/3 25/100/3 70/145/3 72/146/3 71/147/3 2/148/3 1/139/3
f 78/149/4 80/150/4 79/151/4 16/53/4 18/46/4 67/50/4 66/138/4
f 76/156/3 77/157/3 61/158/3 62/137/3 64/79/3 6/11/3 4/10/3
g Velutto_main.001_back
usemtl back
f 11/5/2 13/6/2 68/7/2 21/8/2
f 8/77/2 11/5/2 21/8/2 20/78/2
f 5/82/2 12/83/2 23/84/2 17/85/2
f 3/86/2 5/82/2 17/85/2 15/87/2
f 12/83/2 7/90/2 19/91/2 23/84/2
f 7/90/2 8/77/2 20/78/2 19/91/2
g Velutto_main.001_front_velutto
usemtl front_velutto
f 54/1/1 48/2/1 50/3/1 58/4/1
f 62/19/1 61/20/1 78/21/1 66/22/1
f 24/34/5 55/35/5 57/36/5 37/37/5
f 30/38/6 63/39/6 65/40/6 42/41/6
f 69/42/7 68/43/7 13/44/7 1/45/7
f 47/62/8 31/63/8 41/64/8 51/65/8
f 70/66/9 25/67/9 36/68/9 74/69/9
f 69/71/2 1/72/2 2/73/2 14/74/2
f 2/92/7 71/93/7 73/94/7 14/95/7
f 24/34/11 37/37/11 40/110/11 27/111/11
f 27/111/12 40/110/12 39/112/12 28/113/12
f 28/113/13 39/112/13 38/114/13 29/115/13
f 29/115/14 38/114/14 36/68/14 25/67/14
f 30/38/15 42/41/15 46/116/15 33/117/15
f 33/117/16 46/116/16 45/118/16 34/119/16
f 34/119/17 45/118/17 44/120/17 35/121/17
f 35/121/18 44/120/18 41/64/18 31/63/18
f 47/62/19 51/65/19 53/126/19 49/127/19
f 49/127/20 53/126/20 50/3/20 48/2/20
f 57/36/21 55/35/21 56/131/21 60/132/21
f 60/132/22 56/131/22 54/1/22 58/4/22
f 79/133/23 76/134/23 4/135/23 16/136/23
f 65/40/24 63/39/24 62/19/24 66/22/24
f 70/66/25 74/69/25 75/141/25 72/142/25
f 72/143/26 75/144/26 73/94/26 71/93/26
f 4/135/23 3/152/23 15/153/23 16/136/23
f 76/134/27 79/133/27 80/154/27 77/155/27
f 77/155/28 80/154/28 78/21/28 61/20/28
